<svg id="Layer_1" data-name="Layer 1" xmlns="http://www.w3.org/2000/svg" viewBox="0 0 567.66 619.79"><defs><style>.cls-1{fill:#090909;}</style></defs><path class="cls-1" d="M286.44,649.05c-5.67,1.94-7.33,1.24-10.2-4.3-2-3.79-1.91-19.16.08-23.92a17.2,17.2,0,0,0,.9-8,17.77,17.77,0,0,1,.75-7.68c1-2.49,1-3.53,0-5.46s-1-3.21.31-7.2c1.58-4.74,1.57-4.84-.81-7.24-2.07-2.09-2.76-2.27-4.86-1.32-3.41,1.56-5.76-1.25-6.74-8L264,563.16A63,63,0,0,0,261.86,553c-.62-1.53-.94-7.16-.74-13.25.21-6.76,0-10.46-.66-10.25s-2.2,2.77-3.66,5.75c-2.11,4.3-2.75,7.28-3.09,14.42-.41,8.65-1.8,13.29-5,16.65-2.17,2.29-3.7,6.08-5.28,13.07a45,45,0,0,1-3.51,10.09c-1.51,2.55-2.15,6-2.62,14.26-.34,6-1.19,11.81-1.88,12.91a22,22,0,0,0-1.84,6.75c-.51,4-.31,4.88,1.35,5.77,4.63,2.48,4.57,8.05-.1,9.54-4,1.28-5.41-1.65-5.26-11.34a68.57,68.57,0,0,1,1.23-12.68c.93-3.37.8-4.42-.89-7.29a8.71,8.71,0,0,1-1.41-6c.31-1.48.76-3.66,1-4.84s2.28-4.49,4.53-7.33c4.21-5.33,4.31-6.52.58-6.52-1.64,0-2.24-.7-2.49-2.87-.18-1.58.15-3.36.75-3.95a4.5,4.5,0,0,0,1.08-2.76,4.39,4.39,0,0,1,1.5-2.92c2-1.69,1.88-2.74-.49-3.5-1.54-.48-3.37.8-8.08,5.69a67.12,67.12,0,0,0-8.26,10.2c-4,7.14-4.49,7.88-5.83,8.73-2.79,1.76-4.12,1-3.52-2,.51-2.51.24-3-2-3.38-5.14-1-8,1.21-5.22,4,1.44,1.44.4,4.27-1.57,4.27a3.47,3.47,0,0,1-2.5-1.88c-.55-1-2.82-2.61-5-3.49s-4-2.29-4-3.12c0-1.76-3.1-2-4.72-.4-1.35,1.36-3.28.33-3.28-1.74,0-1.06-.61-1.31-2-.86-1.87.59-2,.33-1.37-3.43s.4-4.31-3.41-7.83c-2.24-2.06-4.38-5-4.75-6.55-.52-2.13-1.2-2.73-2.8-2.5a2.24,2.24,0,0,0-2.13,2.3c0,1.1-.46,2-1,2.1-1,.09-.94-.63,0-6.46.37-2.26.3-2.29-1.51-.66-2.74,2.48-4.54,1-2.53-2.1,2.13-3.25.95-5.07-1.74-2.7-2,1.79-2,1.77-1.32-.68,1.79-6.06,1.82-7,.28-7a2.36,2.36,0,0,0-2.06,1.25c-.29.69-.44-.33-.33-2.25.15-2.93-.12-3.45-1.7-3.18s-1.79-.14-1.35-2.43a9.93,9.93,0,0,0-.54-5.1c-.77-1.69-.76-2.66.06-3.48s.91-2.79.54-5.46c-.79-5.77.73-7.61,5.56-6.74a13.11,13.11,0,0,1,5.14,2c.84.73,3.54,1.61,6,2s7.72,1.31,11.68,2.14,7.64,1.24,8.18.9a1.06,1.06,0,0,1,1.46.18c.75,1.21,13.55.58,15.15-.75,1.09-.9,2.26-.91,5,0,3.58,1.18,7.47.65,7.66-1,.5-4.72-.51-8.8-2.53-10.15-.61-.4-1.07-4-1.07-8.31,0-8.9-1-10.07-8-9-2.63.39-4.57.24-5-.4a2.79,2.79,0,0,0-2.17-1c-1.16,0-1.37.69-.89,2.9.36,1.6.22,3.17-.29,3.49s-1.21-.78-1.54-2.43c-.69-3.46-4.28-5.42-6.56-3.6-1.06.86-1.51.83-1.83-.11a2.55,2.55,0,0,0-2.37-1.25,2.82,2.82,0,0,1-2.52-1.5c-.91-2.35-2.36-1.76-2.36,1a4.14,4.14,0,0,0,2,3.54,3.71,3.71,0,0,1,1.88,3.28c-.09,1.78-.21,1.86-.58.41-.85-3.26-3.67-1.31-5.49,3.78-2.2,6.15-.86,8.23,2.2,3.41l2.15-3.38L181.7,509c-.38,3-.23,3.27,1.92,2.73,1.28-.32,2.33-.47,2.32-.32s-.64,2.07-1.4,4.27c-1.07,3.08-2,4.14-4.24,4.63-5.75,1.28-11.45.86-15.34-1.13a19.12,19.12,0,0,0-7-2,12.64,12.64,0,0,1-4.93-1c-1.44-.77-1.93-.56-2.34,1s-1.37,2-4.11,2c-3.94,0-4.54-1.3-1.93-4.18,1.92-2.13,1.07-3.68-1.05-1.91-2.63,2.17-3-.9-.52-4.26l2.33-3.15-2.68,1.75c-4.64,3-5.08,1.61-1.24-4,2.71-4,3.06-5.21,1.47-5.21-.56,0-1.45,1.12-2,2.5-1.43,3.74-3.37,3.18-2.59-.75a33.82,33.82,0,0,0,.62-5.64,8.32,8.32,0,0,1,2.47-4.88c2.84-2.85,3.17-4.23,1-4.23s-1.88-1.62.47-4a11.48,11.48,0,0,0,2.61-4.5c.51-2,.26-2.52-1.24-2.52s-2.16-1.22-3.1-5.18c-1.07-4.51-1-5.41.4-7s1.39-2.1.41-3.28-.91-1.93.36-3.74c2-2.81,2-3.82.14-3.82-2.8,0-2.77-2.25.07-4.66l2.88-2.43-3.25.62c-3.85.74-4.44-1.15-1.26-4,1.41-1.28,1.7-2.16,1-3-1.42-1.71-.31-4,2.57-5.31a3.73,3.73,0,0,0,2.45-3.57c0-1.59,1.06-3.21,3-4.59,3.55-2.53,3.77-4.55.83-7.68-2.1-2.24-2.11-2.36-.33-4.33s1.78-2.07-.08-3.5-1.86-1.55.64-3.78c1.42-1.27,2.41-2.8,2.2-3.41a1.6,1.6,0,0,1,.66-1.76c.69-.42.63-1.32-.19-2.72-1-1.65-1-2.18,0-2.53a2.16,2.16,0,0,0,1.25-1.91c0-.8,1.63-2.41,3.62-3.59,3.37-2,3.5-2.23,1.81-3.46a6.87,6.87,0,0,0-3.13-1.33c-1.93,0-1.58-3,.45-3.72a8,8,0,0,0,3-2.47,4.24,4.24,0,0,1,2.64-1.81c.73,0,1.56-.9,1.85-2a2.6,2.6,0,0,1,2.23-2c1.21,0,1.56-.58,1.2-2-.68-2.59,1.63-4.4,4.83-3.79,1.92.37,3-.1,4.12-1.88s2.48-2.39,6.19-2.48c4.4-.1,4.49-.16,1.89-1.19-4.2-1.66-3.48-3.7,1.31-3.7,7.07,0,10.63-3.21,4.85-4.37-4-.81-3.3-3,1.26-3.69a12.87,12.87,0,0,0,5.72-2.63l2.21-2.06-7.8-4.6c-4.75-2.8-8.76-6-10.24-8.2-2.17-3.23-2.32-4-1.37-7.6,1.24-4.64,1.19-4.67-9.69-6.83-3.58-.71-7-1.84-7.52-2.52s-2.58-1.58-4.5-2a17.73,17.73,0,0,1-6.59-3.47,40.36,40.36,0,0,0-7.5-4.84,57,57,0,0,1-9-5.92c-2.55-2.07-8.2-6.34-12.57-9.49-9.09-6.54-39.95-35.8-46.39-44C69.25,234,60.08,211.63,61.38,204.71c.9-4.77,3.83-7.46,11.22-10.3,4.87-1.87,8.38-2.32,20.87-2.66,8.26-.23,17,0,19.5.45,8.32,1.6,21.46,3.86,25.84,4.44a26.65,26.65,0,0,1,7.2,2.05,15,15,0,0,0,5.74,1.47,16.55,16.55,0,0,1,6.09,1.59,21.24,21.24,0,0,0,5.4,1.87,73.88,73.88,0,0,1,10.22,3.52c4.4,1.78,10.25,3.91,13,4.74a72,72,0,0,1,9.67,3.87,106.21,106.21,0,0,0,16.45,6.48,113.49,113.49,0,0,1,11.5,5.2c4.61,2.34,11.52,5.6,15.37,7.24s11.16,5.13,16.26,7.74,9.71,4.75,10.26,4.75c1.82,0,1-2.49-2.51-7.72-1.93-2.86-3.5-5.74-3.5-6.39s-1.58-4-3.5-7.46c-3.87-6.91-4.48-11.15-1.75-12.11a13.64,13.64,0,0,0,3.25-1.84,12.72,12.72,0,0,1,4.25-1.87c4.28-1,3.44-3.7-3.7-11.84-3.23-3.69-7.44-12.62-9.55-20.27-1.22-4.4-2.67-9.35-3.23-11-1.12-3.33-1.6-5.67-4.66-22.85-1.16-6.51-2.45-12.36-2.86-13s-1.3-6.1-2-12.15-1.65-14.6-2.19-19c-2.47-20.1-3-28.29-2.11-34,3.6-23.82,5.05-28.55,10-32.46,4.19-3.32,7.11-3.81,9-1.51,1.67,2-.34,4.5-3.63,4.5-1.62,0-2.37.57-2.37,1.8,0,1-1.42,4-3.16,6.75a23.3,23.3,0,0,0-3.62,9.68c-.51,5.12-.76,4.86,6.2,6.4,2.16.48,4.13,1.49,4.38,2.25.36,1.12-.61,1.25-5.09.69-6.51-.82-6.62-.66-6.67,9.43-.08,13.89-.31,13.38,6.21,14.41,3.16.5,5.75,1.27,5.75,1.7s-2.59.92-5.75,1.09c-5.12.27-5.72.52-5.42,2.3A7.31,7.31,0,0,0,239.42,96c1.08,1.11,1.08,1.8,0,3.92-1.4,2.7-1,14.88.6,16.6.44.47,3,1,5.71,1.13,11.55.62,16.18,3.84,5,3.47-8.81-.29-8.93-.25-8.57,2.28.28,2,.94,2.27,5.82,2.44,7.28.26,12.73,1,17,2.26,5.77,1.73,8.2,1.39,7.83-1.1-.26-1.72-1.61-2.51-6.61-3.87-3.45-1-6.57-2-6.91-2.35-1.48-1.48.7-1.53,5.28-.14,7.29,2.21,8.24,2,8.63-1.74.33-3.22-4-13.89-6.19-15.24-.56-.35-1-2.15-1-4,0-3.19-2.07-6.51-4.06-6.51-.5,0-2.15-1.91-3.67-4.25-3.2-4.94-4.13-5.74-5.86-5.08-.69.27-1.76-.45-2.37-1.59-.84-1.56-2.09-2.08-5-2.08-2.15,0-4.18-.45-4.52-1-.88-1.42,2.43-1.18,19.09,1.39,2.81.43,13.25,2.93,17.66,4.23,2.47.73,2.18-1.36-.71-5.16-1.81-2.37-4.08-3.7-8.58-5.05s-5.59-2-4.29-2.48a6.4,6.4,0,0,1,4.08.37c2.81,1.27,3.66.49,2.88-2.64-.46-1.82-1.84-2.82-5.56-4a32.91,32.91,0,0,0-7.89-1.62c-3.68,0-6.31-2.63-3.64-3.66,1.52-.58,4.26-.07,12.6,2.36,1.2.35,2-.56,2.87-3.36a18.71,18.71,0,0,1,2.11-4.79c1.86-2,.7-4.75-3.87-9.19a36.12,36.12,0,0,0-8-6c-3.21-1.37-5.07-3.81-3.83-5s8.6,1.78,11.82,4.73c1.79,1.63,3.6,3,4,3,1.91,0,5.65,4.92,10.65,14,2.36,4.28,5.95,7.68,8.63,8.16,1.32.24,2.1,1.29,2.32,3.12C293,69,296.05,75,299.67,80.93s7.71,12.75,9.09,15.23a55.36,55.36,0,0,0,3.87,6.09,140.13,140.13,0,0,1,6.94,12.5c10.38,20.28,13.88,26.9,14.5,27.4a9,9,0,0,1,1.38,3,11.74,11.74,0,0,0,2.63,4.29,5.87,5.87,0,0,1,1.88,3.08c0,1.23,3,6.23,9.1,15.38a29.66,29.66,0,0,1,3.47,6.68,4.62,4.62,0,0,0,1.87,2.91c.7.27,3,4,5,8.32a72.64,72.64,0,0,0,4.4,8.34c1.49,1.18,8.87,12.86,10.56,16.73a15.81,15.81,0,0,0,4.31,5.84c1.91,1.25,2.36,2.26,2,4.52s-.05,2.91,1.43,2.91c2,0,9.77,11.22,9.79,14.09a5.8,5.8,0,0,0,1.95,3.36,10.66,10.66,0,0,1,2.62,4.9c.37,1.73,3.15,6,6.17,9.43,3.87,4.43,5.33,6.85,5,8.25-.61,2.34.83,3.62,1.66,1.46.32-.82,1.69-1.49,3.06-1.49,2,0,2.68.7,3.5,3.69a14.81,14.81,0,0,1,.41,6.13c-.45,1.79-.25,2.32.75,2,.75-.25,1.64-1.81,2-3.46.79-3.86,1.83-5.52,3-4.8,1.47.91,1.08,5.29-.71,8-.9,1.38-1.36,2.78-1,3.11.87.88,3.66-1.65,3.66-3.32,0-2.07,5.07-3.77,7.23-2.43a7.6,7.6,0,0,0,3.25,1.08c2.48,0,1.81,4.62-1,6.82-3.21,2.52-3.36,5.44-.25,5,1.44-.21,2.9-1.67,4.08-4.07,1-2.06,2.25-3.75,2.75-3.75,1.68,0,.95,3.69-1.64,8.32l-2.55,4.57,2.8-.2c2.28-.15,2.76.19,2.56,1.81-.34,2.8,1.24,4.91,3.15,4.18,1-.4,1.6-1.82,1.6-4,0-3.61,3.81-11.72,7.26-15.43a7.17,7.17,0,0,1,4.35-2.25c1.25,0,2.54-.43,2.86-1,1.23-2,7.63-3,9.89-1.6a4.76,4.76,0,0,0,4.14.57c1.34-.52,3.08-.13,5.27,1.2,1.8,1.09,3.88,1.75,4.62,1.47,2.58-1,13.58,7.26,13.64,10.23,0,.88,1.14,3.39,2.49,5.59,3,4.95,3.1,6.27.23,6.7l-2.25.34,2.27,1.28c2.62,1.47,4.23.82,4.23-1.7,0-2.8,6-13,8.58-14.77,1.8-1.18,4.69-1.52,11.66-1.39,49,1,73.28.13,86.76-2.95,10.79-2.47,10.69-2.47,13.95.79,4.54,4.54,4,6.58-2.2,9-7.21,2.81-8.43,3.11-15.27,3.66-3.29.27-10.6.94-16.24,1.48-7.37.72-10.94.69-12.71-.12s-4.59-.83-9.74-.15c-10.62,1.42-30.78.85-46-1.29-2.91-.4-4.75-.28-4.75.32,0,1.56,11.25,7.83,16.62,9.25,2.68.72,7.48,2.12,10.66,3.12a150.19,150.19,0,0,0,15,3.51c5.07.93,9.54,2.18,9.93,2.8s6.29,1.16,17,1.25c27.91.25,36.09,1.41,39.57,5.6.87,1,.7,2.08-.71,4.4l-1.84,3-21.37-.41c-11.85-.23-22.92-.91-24.86-1.54a27.9,27.9,0,0,0-8.2-.88,20.29,20.29,0,0,1-9-1.67,65.59,65.59,0,0,0-9.55-3.15c-2.89-.67-5.51-1.63-5.81-2.12s-2.27-.9-4.37-.9a11.63,11.63,0,0,1-6.19-1.83,84.33,84.33,0,0,0-8.31-5c-5.27-2.82-6.15-3-8-1.79-4.32,2.87-7.34,6.4-8.51,9.95s-1.09,3.78,1.86,6.26c3.34,2.81,4,5.14,1.58,6.05-1.93.74-1.93,3.76,0,5.36s1.87,4.09-.41,4.68c-1.55.41-1.91,1.45-1.94,5.64,0,3,.53,5.78,1.32,6.66,1.69,1.89,2.39,10.23.9,10.73-.59.2-.87,1.46-.61,2.81.62,3.23-2.28,4.48-4.28,1.85-.78-1-1.43-1.36-1.45-.74a3.73,3.73,0,0,0,1.41,2.32c1.08.89,1.21,1.84.5,3.69a24.58,24.58,0,0,0-.94,6.93c0,6.45-5.66,17.23-13,24.7-1.67,1.71-3,3.4-3,3.76s-1.13,1.16-2.5,1.79a3.93,3.93,0,0,0-2.5,3.12,8.08,8.08,0,0,1-2,4.27c-1.12,1.26-3.71,4.27-5.75,6.69-4.33,5.12-7.82,6.86-12.63,6.3-3.18-.37-3.51-.73-4.14-4.55a32.68,32.68,0,0,0-2.57-7.85c-5-10-8-23.51-8.32-38.64-.34-14.25-1.13-19.56-3.17-21.25-1-.84-1.39-.85-1.39,0a1.14,1.14,0,0,0,1.14,1.12c1.81,0,.23,14.7-2,18.44-1,1.71-2.13,6-2.49,9.58-1.89,18.52-6.34,38.15-11.25,49.72a12.32,12.32,0,0,0-.78,6.2c.48,2.43,0,3.46-2.44,5.76-2.23,2.05-3.22,4.08-3.74,7.62-.45,3.07-1.39,5.24-2.59,6-1.47.92-1.87,2.38-1.87,6.86,0,3.91-.51,6.19-1.62,7.3-.89.89-1.34,1.9-1,2.24s-.27,1.23-1.36,2c-1.65,1.16-1.78,1.7-.78,3.3s.93,2.93,0,6.48A36.33,36.33,0,0,0,416,497c0,4.65-7,14.18-10.42,14.18-.3,0-2.58-2-5.06-4.33-5.4-5.17-5.9-8.21-1.52-9.17,1.65-.36,3-1,3-1.33s-1.54-2-3.42-3.67c-3.38-3-3.41-3.07-2.57-8.5,1.22-8,1.16-16.43-.13-17.72s-1.77-15.19-.47-17.44q1-1.67-.39-6a46.37,46.37,0,0,1-1.65-7.84c-.31-3.6-5.38-9.47-6.16-7.13a2,2,0,0,1-1.83,1.13c-1.13,0-1.22.43-.42,1.93,1.47,2.75,1.28,4.38-.43,3.72s-3.06,1.16-2.68,4.1c.2,1.55-.23,2.25-1.39,2.25s-1.47-.54-1.13-1.43c.68-1.76-2.07-4.26-3.28-3a6.91,6.91,0,0,0-1.22,2.91c-.2,1.1-.8,2-1.35,2s-1.12-.9-1.28-2-1.62-3.58-3.24-5.5c-2.46-2.93-3.11-3.26-4-2-.57.82-.79,2.93-.48,4.68.41,2.35.11,3.43-1.13,4.12-1.63.91-1.6,2.28.11,6.45,1.26,3-1.94,2-5.36-1.75s-4.58-4.2-5.62-2.53,1.45,9,3.07,9c3,0,6,4.28,5.95,8.5,0,4-.42,4.27-3.78,3-2.68-1-2.21,2.14.78,5.33,1.73,1.84,2.34,3.35,1.92,4.71a19.5,19.5,0,0,0-.5,5.25,12.44,12.44,0,0,1-.94,5.22c-.69,1.29-.75,3.9-.17,7.59.78,4.93.65,5.83-1,7.41-2,1.85-2.55,5.39-3.2,19.81-.25,5.64-.78,7.79-2.36,9.5-1.2,1.31-2.32,4.37-2.73,7.44-.6,4.54-1,5.19-2.81,5s-2.23.47-2.85,4.64c-.45,3.07-1.43,5.35-2.66,6.21-1.63,1.14-1.82,2-1.18,5.48.95,5.2,1.87,6.09,6.64,6.38,7.12.45,7.35.53,7.35,2.59,0,2.93-3.94,4.36-9.65,3.51a12,12,0,0,1-8-4.14c-2.89-3.06-3.24-4.08-3.34-9.66-.18-10.63,0-11.91,2-14.49a9.17,9.17,0,0,0,2-4.43,22.63,22.63,0,0,1,2.06-6.44c1.6-3.51,1.8-4.84.89-5.93-.72-.87-.94-3-.57-5.67.33-2.35,1-8.1,1.48-12.77.95-9.21.48-10.38-3.71-9.33-2.91.73-4.11-.92-4.14-5.67a16.79,16.79,0,0,0-1.52-6.37c-1.87-3.58-1.88-4.63-.06-4.63.81,0,2.27,2.26,3.37,5.2,2.76,7.4,4.38,7.46,3.82.14-.79-10.2-1.68-13.34-3.77-13.34-1,0-2.79,1.45-3.91,3.25-1.62,2.61-1.93,4.42-1.56,9.25a89.71,89.71,0,0,0,4,20.91c2.09,6.42,2,9-.45,15.6-1.37,3.67-1.86,6.73-1.49,9.24a25.28,25.28,0,0,1-.55,8.19c-1.16,4.58-3.44,6.67-4.08,3.74-.7-3.19-.15-12.7,1.09-18.68.68-3.3,1.37-7.48,1.53-9.29a9.67,9.67,0,0,1,.92-3.92c1.22-1.22.61-2.38-1.12-2.09-1.58.27-1.76-.84-1.86-11.2-.1-9.7-.5-12.44-2.55-17.5-1.33-3.3-3-8-3.7-10.5s-1.78-6.08-2.39-8-1.46-5.3-1.89-7.5c-2.94-15.14-3.06-15.49-6-18-4.89-4.11-5.44-3.61-6.13,5.61a29.51,29.51,0,0,1-2,8.91c-1.79,3.58-2.18,11-.73,13.74,1,1.89,4.41,16.16,6.52,27.2.86,4.54,1,7.07.31,7.29s-.35,1.6.63,3.49a17.39,17.39,0,0,1,1.63,6.65c0,1.92.42,3.75,1,4.07s.69,2.77.37,5.43a23,23,0,0,0,.63,8.45c.65,2,.85,4.17.43,4.84s-.73,5-.69,9.58c0,6.69-.22,8.25-1.32,7.83-1.86-.72-1.73.4.67,6,2.21,5.16,2,8.5-.46,6.48a8.07,8.07,0,0,1-2-3.61c-.34-1.36-1.28-2.46-2.08-2.46-1.17,0-1.25.53-.42,2.71,1.35,3.56.44,6.92-2.07,7.57a2.71,2.71,0,0,0-2,2.39,30,30,0,0,1-1.88,6.84c-4.5,12-4.79,12.3-11.06,12.9-4.35.42-6.54,2.23-7.65,6.29-.94,3.41-.18,4.58,1.94,3a5.94,5.94,0,0,0,2-3.94c.21-3.53,1.43-2.52,2.25,1.85a10.89,10.89,0,0,1-.93,6.93c-1,2-1.21,3.59-.63,3.95,1.37.84,1.2,7.84-.23,9.27-.65.66-2,5.08-2.94,9.83-1.59,7.88-1.61,9-.2,12.5s1.94,3.88,5,3.88c2.24,0,3.64.56,4,1.63,1,2.59-.83,4.43-6.2,6.26Zm-78.79-66a4.94,4.94,0,0,1,2.92.41c1.48.93,4.65-2.58,3.45-3.82a9.8,9.8,0,0,1-1.23-4.33A13.23,13.23,0,0,0,210,569c-2.78-3.22-5.68-3.92-4.51-1.1.83,2,.82,2.69-.09,6.48a8.6,8.6,0,0,0,.12,4.5,6.63,6.63,0,0,1,.55,3.09c-.12.77.54,1.2,1.6,1Zm-8.94-3.33c.54,2.81,2.25,4.43,2.25,2.13,0-2.1-1.08-4.64-2-4.64-.42,0-.54,1.13-.28,2.51Zm88.47-2.59c.15,1.33.84,2.6,1.53,2.83,1.7.56,1.57-1-.28-3.31-1.48-1.88-1.52-1.87-1.25.48Zm-6.31-3.24a4.56,4.56,0,0,0-.75,3.37c.6,4.07,2.55,0,3.34-6.93.52-4.59.41-6.19-.39-5.69C282.46,565,282,567,282,569s-.49,4.23-1.09,4.83Zm-10.8,2.48c1.11,1.56,2.33,2.8,2.71,2.76,3.58-.42,8.4-5.92,5.18-5.92-.55,0-1,.67-1,1.5,0,1.8-2.13,2-3.8.3s-1.54-2.87,0-2.55c.68.13,1.67-1.22,2.2-3,1.14-3.82,3-4.41,2.31-.73-.27,1.39-.13,2.74.31,3,1.26.78,2.08-3,2.19-10.18.09-5.79.26-6.37,1.44-4.75a3.92,3.92,0,0,1,.92,3,3.24,3.24,0,0,0,.56,2.53c.67,1,.81-1.27.44-6.84-.34-5-.17-8.25.42-8.25s1,.78,1.14,1.75.27,2.42.39,3.25.27,3.21.33,5.3c.18,6.55,2.11,3,2.11-3.86,0-3.63.43-6.44,1-6.44.91,0,1.53,5.41,1,9-.12.82.13,1.16.55.74.86-.84,2.59-10.92,2.53-14.74a8.45,8.45,0,0,1,1.49-4.5c1.46-1.91,1.59-1.92,2.85-.22s1.38,1.61,1.94.16a10.6,10.6,0,0,0,.62-3.17,3.85,3.85,0,0,1,1.5-2.66c2-1.5,3.08-30.71,1.22-33.68-1.41-2.26-2.72-2.52-2.72-.56,0,.76-1,2-2.21,2.85-2.09,1.38-2.14,1.7-.88,5.52,1.12,3.37,1.12,5.18,0,10.67s-1.58,6.52-3.13,6c-1.34-.43-1.81-.06-1.81,1.43a3.46,3.46,0,0,1-1.07,2.67,1.72,1.72,0,0,0-.54,2,1.84,1.84,0,0,1-.82,2.15,4.43,4.43,0,0,0-1.71,2.7c-.2,1-1.66,2.64-3.26,3.52-3.39,1.88-6.84,7.75-6,10.28.4,1.26-.17,2-2,2.73-2.94,1.12-5.61,5.75-5.62,9.75a43.33,43.33,0,0,1-1.46,8.21c-1.35,5.09-1.32,5.58.58,8.25ZM296,534.16a1,1,0,1,1,1-1A1,1,0,0,1,296,534.16Zm0-3.5c-.55-.34-1-1.95-1-3.56s.45-2.94,1-2.94,1,1.6,1,3.55C297,529.83,296.55,531,296,530.66Zm-83,33.16c1.12,2.66,2.62,6.07,3.33,7.59l1.3,2.75,3.31-4.12c1.82-2.27,3.39-4.86,3.49-5.75a13.66,13.66,0,0,1,1-3.35c.51-1.13,0-2.75-1.39-4.75-2.29-3.22-7.13-5.2-7.8-3.19-.22.63-1.48,1.16-2.81,1.16-3.09,0-3.21,3-.38,9.66Zm-16.38,6.8c-.6,1.57.64,2.91,1.71,1.84s.77-3.3-.26-3.3c-.49,0-1.14.66-1.45,1.46Zm93.27-4.79a5.45,5.45,0,0,0-.75,3.8c.42,3.52,1.83,2.11,1.83-1.84,0-2.17-.31-2.73-1.08-2Zm-54.47-1.75c.37.59,1,1,1.36.92s2.18-.35,4-.57c2.92-.36,3.27-.73,3-3.09-.21-1.81-1-2.78-2.35-3-2.35-.33-7,4.1-6,5.72Zm-34.51-1.92a1,1,0,0,0,1.06-1c0-.55-.2-1-.44-1s-.72.45-1.06,1S200.32,562.16,200.9,562.16Zm92.66-2.84c-.16,1.83,2,2.06,3.37.37.87-1.05.91-1.53.15-1.53s-1.12-1.1-1.12-2.45c0-3.64-2-4.21-2.15-.61-.09,1.68-.2,3.58-.25,4.22Zm-3.06-.23a1.15,1.15,0,0,0,.44,1.56c.56.34,1-.08,1-.94,0-1.75-.6-2-1.46-.62Zm-41-3.18c-.39-4.71-.41-4.75-2-4.75s-2,3.45-.9,6.41S249.8,559.35,249.51,555.91Zm-62.8-1.25c2.65-4.11,3.2-9.54.75-7.5a4.47,4.47,0,0,0-1.54,2.87,7.55,7.55,0,0,1-1.5,3.57,7.15,7.15,0,0,0-1.46,3.25C183,559.09,184.37,558.27,186.71,554.66Zm114.19,2.5a1,1,0,0,0,1.06-1c0-.55-.2-1-.44-1s-.72.45-1.06,1S300.31,557.16,300.9,557.16Zm-69.27-1.43a2,2,0,0,1,2.31.4c.81,1.3,4.52-2.59,5.47-5.73a6.18,6.18,0,0,1,2.49-3.22c2-1.09,3.33-4.74,2-5.58s-1.06-5.07.56-6.41c1.86-1.55,7.54-13.14,7.54-15.4a2.6,2.6,0,0,0-1.5-2.27c-2.37-.91-1.75-2.37,1-2.37,1.55,0,2.5-.56,2.5-1.5s-.94-1.5-2.44-1.5c-3.84,0-3.74-1.28.45-6.06,3.95-4.49,5.22-8.94,2.55-8.94a2.76,2.76,0,0,0-2.14,1.13c-.48.77-1,.62-1.61-.5a3.36,3.36,0,0,0-2.56-1.63c-1.29,0-1.39-.26-.45-1.2,1.52-1.51,1.55-5.05.06-6.54-.86-.85-.76-2,.4-4.45s1.45-5.71,1.23-11.81c-.23-6.6.05-8.89,1.26-10.25a5.13,5.13,0,0,1,2.49-1.75c1.26,0,4.59-3.94,5.81-6.85,1.54-3.71,4-1.05,3.22,3.54-.43,2.7-.17,3.79,1.08,4.49,2.36,1.32,2.05,3.82-.48,3.82-2.22,0-2.23.49-.32,10.5,1.72,9.06,1.66,11.23-.36,13.11a11.49,11.49,0,0,0-2.75,4.74c-.61,2.44-.44,2.8,1.17,2.49a2.47,2.47,0,0,0,1.92-2.35c.06-2.91,1.74-3.32,3-.74.61,1.23,1.34,2,1.62,1.74s3.78-.91,7.8-1.42c8-1,9.77-2.32,6.9-5.18a7,7,0,0,1-1.9-4.14c0-2.78-.74-3.82-4.23-6a5.13,5.13,0,0,1-2.75-4.23c0-1.53-.57-2.48-1.5-2.48s-1.5.92-1.5,2.2c0,1.74-.26,1.95-1.23,1-.68-.67-1.29-3.63-1.37-6.57s-.45-5.86-.84-6.5c-1.13-1.83-1.55-7-.61-7.57s.2-8.21-1.14-10.8-2.81-1.19-2.81,2.39c0,2.4-.57,3.19-2.89,4a4.74,4.74,0,0,0-3.48,3.94c-.32,1.62-1.09,2.94-1.72,2.94s-.85-.71-.45-1.75c2.51-6.47,1-10.27-2.41-6.07-2.4,3-3.78,1.69-2.09-1.92,2-4.16,3-9.49,2.38-12s-2.34-3.09-2.34-.86c0,1.43-4.82,5.13-5.63,4.32-.45-.44,1.61-5.75,2.61-6.71,1.76-1.68,5-10.16,4.33-11.24-.45-.69-1-4.18-1.31-7.76-.47-6-.67-6.48-2.75-6.26-1.24.13-2.25-.2-2.25-.75a1,1,0,0,1,1-1,1,1,0,0,0,1-1c0-1.68-2.59-1.11-4.5,1-2.47,2.73-3,2.6-7.74-2-2.29-2.2-4.94-4-5.88-4a10.8,10.8,0,0,1-3.17-.55c-1.61-.62-6.14,6.06-5.17,7.63,1.11,1.8,2.45.88,4.13-2.83s1.7-3.74,2.08-1c.41,3,1.2,3.4,3,1.57,2.28-2.28,2.17-.12-.24,4.76-1.34,2.71-3.64,8.3-5.11,12.43-3,8.56-4.17,10.31-6.17,9.54-2.33-.89-5.26,1.33-5.26,4,0,2.48,2.28,3.44,3.5,1.47a3.1,3.1,0,0,1,2.4-1c1.92,0,5.08-3,5.51-5.17,1.11-5.79,3.95-12.83,5.16-12.83,1.82,0,1.85,2.4,0,3.9a7.69,7.69,0,0,0-1.91,3.88c-.28,1.49-.85,3.79-1.26,5.1-.55,1.76-.4,2.27.58,1.94a4.3,4.3,0,0,0,2.09-1.88,158.7,158.7,0,0,0,6.4-15.26c.93-2.64,1.9-4.61,2.14-4.37,1,1-2.2,10.65-5.9,18-3.22,6.4-4.27,7.69-5.8,7.2-1.24-.39-2.3.1-3.15,1.46a4.73,4.73,0,0,1-3.54,2.06c-2.8,0-3,1.58-.26,2.29s2.48,3.37-.56,4.13c-1.8.45-2.41,1.15-2.08,2.36.27.94.77,3.12,1.11,4.83.62,3.09.67,3.11,8.83,3.89,4.51.44,10.9.84,14.2.89,5.19.09,6,.37,6.28,2.11s-.34,2-3,2.21c-1.8.12-4.63.36-6.28.53a12.74,12.74,0,0,1-5.7-1,16,16,0,0,0-5.7-1.27c-1.64,0-3.29-.5-3.66-1.1s-2-.9-3.68-.66c-3.31.49-10.8-1.74-12-3.57-.57-.85-1.15-.7-2.1.55-1.24,1.62-1.46,1.6-3.48-.29C198.93,453,198,451.6,198,451s-.71-.8-1.58-.47-3-.46-4.81-1.87c-3.59-2.73-5.61-2-5.61,2.07,0,2.4-4.12,3.9-5.89,2.13-.65-.65-1.54-.43-2.62.65a5.52,5.52,0,0,1-3.07,1.64c-1.69,0-1.91,2.58-.29,3.58.62.38,1.54,0,2-.94a2.89,2.89,0,0,1,5.32.36c.65,2,2.5,2.79,2.5,1,0-.55.84-1,1.88-1s2.62-1.12,3.52-2.49c1.62-2.48,1.63-2.48,3.61-.5a7.23,7.23,0,0,1,2,4.24l0,2.25,1.85-2.4c1.39-1.81,2-2.06,2.4-1s.71,1.17,1.58-.08c1.51-2.17,2.61-.41,2.26,3.62-.27,3.19-.1,3.48,1.78,2.88,2.12-.67,2.94.83,1.09,2-1.39.85-1.26,4.84.2,6.3.66.66,1.1,2.78,1,4.7-.17,2.5.18,3.5,1.22,3.5s1.67-1.7,2.16-5.75c1.11-9.09,5.13-15.25,10-15.25,2,0,2.5.5,2.5,2.37,0,1.3,1.56,7.14,3.47,13,3.52,10.73,9.69,20.65,13.78,22.14a2.54,2.54,0,0,1,1.75,2,4,4,0,0,0,1.42,2.49,11.31,11.31,0,0,1,2.45,4.12c.9,2.6.8,3-.93,3a1.76,1.76,0,0,1-1.94-2c0-3.08-2-2.38-2.64.93-.8,4-3.13,4.85-2.56,1,.23-1.59,0-2.89-.58-2.89-1,0-4.22,6-4.22,7.9,0,.6-.68,1.1-1.5,1.1-2,0-1.89-1.25.56-5.62a23,23,0,0,0,2.47-6.83c.34-2.64-.08-3.44-2.52-4.89-3.14-1.85-6.76-1.52-10.76,1-3,1.85-2.85,3.51.79,10.78,6.55,13.07,7.52,13.77,11.2,8.09,1.24-1.92,2.64-3.5,3.11-3.5,1.79,0-.57,5.29-3.4,7.68-1.62,1.36-2.95,2.89-2.95,3.39,0,1.32,3.39,1.13,4.78-.27,1.58-1.58,2.81-.23,1.37,1.5-.63.75-.84,1.67-.48,2,1.25,1.24,2.33.65,2.33-1.29a3.38,3.38,0,0,1,1.1-2.62c.79-.49.75-.91-.14-1.46-1.82-1.12-.38-4,2-4,1.12,0,2-.45,2-1a1,1,0,0,0-1-1,1,1,0,0,1-1-1,1,1,0,0,1,1.25-.88c2.63.34,3.75-.13,3.75-1.57,0-.83.45-1.5,1-1.5s1,.27,1,.61c0,1-6.26,12.63-8.36,15.56s-1.65,5.83.82,5.83c.85,0,1.54.48,1.54,1.06s-.85.8-1.93.46c-1.55-.49-2-.07-2.25,2.1-.47,4-2.19,3.93-4.92-.08-1.32-1.94-2.94-3.53-3.61-3.54-2.3,0-6.29-2.34-6.29-3.67,0-1.87-6.89-1.79-7.61.09-.31.79.44,4.17,1.66,7.5,2.34,6.42,3.86,7.36,7.13,4.41,1.73-1.57,1.94-1.55,3.3.25,2.08,2.75,1.86,3.94-1,5.23s-3.38,3.19-1.09,3.19a2,2,0,0,1,1.81,1.17c.61,1.83,2.48.15,3.25-2.92.7-2.79,4.24-6.88,5.16-5.95.76.76-3.54,9.7-4.66,9.7-.53,0-1,.72-1,1.6,0,1.09.53,1.4,1.67,1Zm2.48-2.09c-.29-.29,0-1,.66-1.7s1.19-.78,1.19-.15a2.74,2.74,0,0,1-.67,1.7A.86.86,0,0,1,234.11,553.64Zm-3.71-12.48c-.25,0-.44-.45-.44-1a1,1,0,0,1,1.06-1c.58,0,.78.45.44,1S230.64,541.16,230.4,541.16Zm13.94-10.47c-.91,1.39-1.85,2.33-2.09,2.09-.59-.59,2-4.62,3-4.62.43,0,0,1.13-.88,2.53ZM230.25,505.8a3.33,3.33,0,0,1,.76-3c1-.89,1.1-.73.59.69a16.63,16.63,0,0,0-.76,3C230.78,507.13,230.51,506.82,230.25,505.8Zm9.82-16.42c-1.28,1.6-3.15,1.58-3.08,0,0-1.15,6.07-7.42,6.61-6.89s-1.3,4.14-3.53,6.92Zm.59-11.11c-1.21,2.13-2.77,3.87-3.45,3.88-1.63,0-1.54-1,.28-3.43A7.56,7.56,0,0,0,239,475a1.86,1.86,0,0,1,3.29-1.19c.34.35-.37,2.37-1.59,4.49Zm-1.95-9.82c-2,.74-3.35-1.12-2.16-3a5.52,5.52,0,0,1,2.23-2.06c1.6-.53,1.53,4.48-.07,5.07Zm1.87-18.75c-.61,1.58-5.62,2.05-5.62.53,0-1.18,2.85-4.07,4-4.07,1.35,0,2.22,1.93,1.61,3.54Zm-7.87.79c-2.13.86-4.75.71-4.75-.26,0-1.43,3-4.07,4.57-4.07,1.75,0,1.9,3.64.18,4.33Zm-8-2.36c-1.67,1.55-4.8,1.84-4.8.45,0-1,5.07-11.68,5.37-11.33a23.3,23.3,0,0,1,.9,4.7c.44,3.47.16,4.66-1.47,6.18Zm6.47-10.64c-1.34,2.66-2.68,4.59-3,4.28s.61-2.93,2-5.83,3.4-7.42,4.39-10a31.67,31.67,0,0,1,3.63-7l1.82-2.25-.62,2.84a45.7,45.7,0,0,1-3.22,8c-1.44,2.84-3.7,7.33-5,10ZM242,441.16a1,1,0,1,1,1-1A1,1,0,0,1,242,441.16Zm-5.8-2.9c-.36-1.06,3.88-8.35,4.5-7.73.25.25-.59,2.28-1.87,4.51S236.33,438.72,236.16,438.26Zm7.72-15.52c0,1.17-.29,1.4-.61.6a2,2,0,0,1,.08-1.91c.33-.33.57.26.53,1.31ZM241,415.16a1,1,0,0,1-1-.94,2.14,2.14,0,0,1,1-1.56c.55-.34,1,.08,1,.94S241.51,415.16,241,415.16Zm-11,0c-1.79,0-1.1-4.62,1-6.5,1.73-1.57,2-1.6,2-.22a15,15,0,0,1-1,4.15C231.44,414,230.54,415.16,230,415.16Zm-39.56,136c-2,2.22-1.58,5.64.65,5.2.88-.18,2.16-1.54,2.83-3,1.13-2.48,1.33-2.55,2.5-1,1.58,2.16,4.42,2.22,7.34.17a5.48,5.48,0,0,1,4.09-1,6.17,6.17,0,0,0,3.49,0c2.06-.79,2.15-3.41.11-3.41-.84,0-1.93-1.08-2.44-2.41a7.52,7.52,0,0,0-2-3.06c-.59-.36-1.06-2.18-1.06-4.05a17.55,17.55,0,0,0-1.21-6c-1.17-2.56-1.42-2.63-7.07-2-7.57.85-8.72,1.35-8.72,3.72,0,1.55.44,1.82,2.15,1.28,2.11-.67,2.14-.52,1.55,6.55-.38,4.56-1.21,7.9-2.24,9Zm8.26-5.78c-1.36,3.62-2.92,1.85-2.2-2.5.89-5.35,1-5.48,3.54-3.2,1.71,1.55,1.83,2.06.69,2.91a7.2,7.2,0,0,0-2,2.79Zm-13.8-8.58c-.6.6-.93,2.31-.75,3.8.42,3.52,1.83,2.11,1.83-1.84,0-2.17-.31-2.73-1.08-2Zm78.83-2.18c.26,1.38.88,2.51,1.36,2.51s.9-.12.93-.25.13-3.4.25-7.25c.16-5.65-.08-7-1.29-7s-1.53,1.24-1.62,4.74a44.29,44.29,0,0,0,.37,7.25Zm5.9-3a1.75,1.75,0,0,0,.39,2.06c.52.33,1-.33,1-1.46,0-2.42-.56-2.66-1.35-.6ZM343,533.16c.55,0,1-.2,1-.44s-.45-.72-1-1.06-1-.14-1,.44A1,1,0,0,0,343,533.16Zm-174.25-.25c.75.24,1.25-.46,1.25-1.75s-.5-2-1.25-1.75a1.85,1.85,0,0,0,0,3.5Zm85.33-3.5c-.05,1.81.44,2.75,1.42,2.75s1.5-.92,1.5-2.28a9.42,9.42,0,0,1,1.57-4.51c1.66-2.38,1.07-6.59-.83-6-1.39.47-3.56,6.39-3.66,10Zm33.71-5.24a18,18,0,0,0-.31,3c.67,0,2.52-2.68,2.52-3.64,0-2.7-1.8-2.17-2.21.65Zm-6.27-4.86c-.19.19.29,1.22,1.07,2.29,1.18,1.62,1.41,1.67,1.41.31,0-1.55-1.72-3.36-2.48-2.6Zm63.68.58c2.89,3.48,5.71-2.13,3.52-7-1.2-2.66-2.11-2.13-3.4,2-.81,2.62-.85,4.12-.12,5ZM267,512.72c0-1.35-.46-2.74-1-3.09-1.63-1-3.8,1.39-3.24,3.56C263.44,516.14,267,515.75,267,512.72Zm8.08-.81c0,1.61.49,2.25,1.92,2.25,1.1,0,2-.45,2-1s-.63-1-1.41-1a2.22,2.22,0,0,1-1.92-1.25c-.28-.69-.54-.24-.59,1Zm-7.71-2.26c.69,1.82,2.63,2,2.65.26,0-2.9,1.64-4,4-2.76,1.51.8,2.56.86,3.24.18a2.77,2.77,0,0,1,2.65-.44c1.8.64-2.5-3-4.88-4.1-.82-.39-2.62-1.36-4-2.15-2.47-1.42-2.5-1.39-3.35,3-.47,2.46-.6,5.15-.28,6Zm-12.92-3.06c-1.42,1.05-1.65,1.73-.84,2.55s1.54.44,2.77-1.43c1.85-2.83,1-3.31-1.93-1.12Zm-83.45.07a2.35,2.35,0,0,1,2,1.3c.3.75,1-.12,1.75-2.07,1.59-4.41,1.54-5.79-.2-5.13-1.1.43-1.33-.32-1-3.45.22-2.19.5-4.36.63-4.82.5-1.74-2.34-5.33-4.22-5.33-1.73,0-2,.7-2,6s.23,5.88,1.68,5.32,1.51-.27.85,1.28c-1.42,3.29-1.16,6.93.47,6.93Zm-1-13.5c-.55,0-1-.68-1-1.5s.45-1.5,1-1.5,1,.67,1,1.5S170.5,493.16,170,493.16Zm-20,16c1.18,0,2.44-2,1.72-2.67S149,507,149,508.22A1,1,0,0,0,149.9,509.16Zm198.32-7.53c-1,3.38-1,3.53,1.39,3.53,2.18,0,2.43-.38,2.16-3.18-.44-4.39-2.25-4.57-3.55-.35ZM236.7,502.91a1.85,1.85,0,0,0,1.4,1.25c1.63,0,2.13-3,.77-4.61-1.19-1.44-1.38-1.41-2,.26a5.53,5.53,0,0,0-.19,3.1Zm39.72-2.82c.92,1.49,6.34,1.16,10.79-.67,6.15-2.52,4-4.68-3.56-3.63-4.79.65-8.22,2.69-7.23,4.3Zm-113.49-4c-.26,1.33,0,2.58.64,2.79s1.37-1.53,1.75-4.3c.93-6.77.8-8.39-.66-8.39-.84,0-1.29,1.33-1.28,3.75a39,39,0,0,1-.45,6.15Zm43.49-2.43c6.57.84,12.42,1.47,13,1.39,5.9-.77,6.66-1.6,4-4.29-1.85-1.85-3-2-4-.48S207,490.5,205,488.73a13.87,13.87,0,0,0-3-1.93c-.83-.35.63-.43,3.24-.19,4,.37,4.92.12,5.83-1.59,1.35-2.53.66-3.44-1.05-1.39a4.69,4.69,0,0,1-3.14,1.53c-1.77,0-2.33-1.79-2.15-6.75,0-.69-.35-1.25-.84-1.25a1,1,0,0,0-.89,1.06c0,.59-.84.8-1.89.47-1.43-.45-2,0-2.54,2a9.72,9.72,0,0,0-.08,4.41c.89,2.82-2.41,3.46-5,1-2.45-2.3-9.66-4.33-12.34-3.47-.92.29-3.44-.37-5.6-1.47a18.42,18.42,0,0,0-5.59-2c-2.22,0-8.61-2.71-9.4-4-1.32-2.13-8.92-4.87-10.77-3.87s-1.56,2.86.23,2.86c.47,0,3.25,1.57,6.17,3.5s5.9,3.5,6.63,3.5a20.2,20.2,0,0,1,5.39,2.08,31.53,31.53,0,0,0,6.21,2.47,181.59,181.59,0,0,1,18.13,5.52c1.1.48,7.38,1.57,14,2.4ZM404,492.12a1,1,0,0,0,.84,1c1.27,0,3.47-10.68,3.7-18,.14-4.52,1.43-10.15,4.24-18.5,3.78-11.26,3.94-12.16,2.5-14.59s-1.37-2.94,0-6A54.86,54.86,0,0,0,418,425.41c.64-4,1.58-7.5,2.08-7.81s.91-2.11.91-4c0-4.13-2.55-4.77-4-1a10.38,10.38,0,0,1-3.48,4.12c-1.4.92-2.54,2.23-2.54,2.92s-1,2.49-2.18,4c-2,2.51-2.17,3.86-2,14.16.08,6.26.39,11.79.7,12.29s-.34,3.16-1.43,5.92c-2.2,5.61-4.09,18.43-3.31,22.53a5.22,5.22,0,0,1-1.28,4.65c-1.74,1.92-1.72,2.09.37,4.93a11.69,11.69,0,0,1,2.18,4Zm-107.11-1.21c.17,2,1.93,1.44,3.62-1.14,1.35-2,1.41-3.63.47-11.21-.6-4.86-1.5-9.31-2-9.91a20.85,20.85,0,0,1-2-5.53l-2.47-10a176.32,176.32,0,0,0-7.16-21.67,40.05,40.05,0,0,1-2.38-7.77,8.73,8.73,0,0,0-.91-3.33c-1.22-2.32-6.71-18.71-9.8-29.23-1.37-4.68-3.33-9.37-4.35-10.44-1.84-1.91-1.88-1.9-2.8.5-.82,2.12-1,2.21-1.64.69a5.21,5.21,0,0,1-.14-3.25c.42-1.07-.09-1.5-1.77-1.5-2.44,0-3.57,2.55-2.79,6.3.28,1.35.7,1.53,1.66.73,3.38-2.81,5.74,2.2,6.09,13,.18,5.42,2.86,14.79,6,21a24.52,24.52,0,0,1,1.81,6c.29,1.91,1.14,3.94,1.87,4.5,1.48,1.13,6.94,13.77,8.64,20,.71,2.6.74,4.34.09,5.12s-.27,1.67,1.45,2.79,2.76,3.15,3.58,7.11c.63,3,1.57,5.77,2.08,6.09,1.63,1,1.11,4.74-.57,4.09-.82-.31-1.5-.09-1.5.5s-.67.82-1.5.51c-1.55-.6-4.53,4.9-4.47,8.23,0,1.47.16,1.47,1.25.06a8.39,8.39,0,0,1,3-2.24,1.82,1.82,0,0,0,1.22-2.57c-.37-1.18,0-2.1.9-2.46,1.7-.65,2-.26,2.94,3.59.5,2.08.29,2.75-.86,2.75-1,0-1.52.93-1.52,2.5,0,2.94.76,3.15,2.67.75,1.26-1.59,1.38-1.48,1.26,1.25-.08,1.65-.09,3.56,0,4.25Zm-43.9.75c.55.34,1,.14,1-.44a1,1,0,0,0-1-1.06c-.55,0-1,.19-1,.44S252.4,491.32,253,491.66Zm3.13-2.75c1.05,2.86,2.47,2.88,3.22,0s-.23-6.78-1.66-6.78c-.72,0-.69-.4.11-1.2,1.88-1.88,1.56-8.8-.4-8.8-1,0-1.4-.56-1.06-1.43a40.6,40.6,0,0,0,1.22-5c.56-3,.42-3.48-.91-3-1.81.69-2,1.31-4.11,11.42-1.84,9-1.85,9.27-.4,8.78.63-.21,1.31-1.92,1.52-3.8.68-6.2,2.11-5.3,1.88,1.19-.13,3.48.14,7.34.59,8.58Zm92.87.88c0,.91,3,.24,3.62-.82,1.55-2.52,1.52-11.82-.05-15a18,18,0,0,1-1.57-6.74,16.55,16.55,0,0,0-1.46-6.38c-1.16-2.22-1.22-3.31-.29-5.36s.89-2.78-.73-4a9.58,9.58,0,0,0-4.86-1.39c-2.81,0-2.88.09-1.31,1.83a6.29,6.29,0,0,1,1.65,3.33,3.51,3.51,0,0,0,.58,2.08c.32.32.78,3.21,1,6.42.84,11.1,1.28,14.86,2.34,20.22.58,3,1.06,5.55,1.06,5.75Zm-132.41-4.13c-.5,2-.25,2.5,1.23,2.5a4.32,4.32,0,0,0,2.52-.67c1.25-1.26.66-3.33-.95-3.33-1.21,0-1.45-.61-1-2.48s.28-2.34-.82-1.92c-1.77.68-2.93,3.4-1.45,3.4.65,0,.83,1,.45,2.5ZM195,480.16c.55,0,1-.68,1-1.5s-.45-1.5-1-1.5-1,.67-1,1.5S194.4,480.16,195,480.16Zm21.5-5q1.5,0,1.5-3c0-1.65-.4-3-.89-3-1,0-2.11,2.41-2.11,4.58A1.47,1.47,0,0,0,216.45,475.16Zm-19-4a2.27,2.27,0,0,0,.39,2.43c1.35.83,1.82-.31,1.94-4.7.11-3.6,0-3.73-2.61-3.11-3.68.88-4.22,1.26-4.22,2.94s1.59,1.92,2.51.42,2.63,0,2,2ZM184,465.6c0,4.06,1.51,5.49,2.41,2.3.61-2.19.66-2.2,2.1-.32,2,2.58,2.47,1.83,3-4.54l.48-5.38-1.57,3.39c-1.17,2.53-1.85,3.1-2.71,2.25-2.19-2.19-3.74-1.24-3.74,2.3Zm-24.6.12c-.81,3.21-.08,5.33,1.17,3.39,2-3.07,3.45-6.27,3.09-6.63-1-1-3.74,1.14-4.26,3.24Zm255.49-1.85a2.53,2.53,0,0,0-.73,2.26c.5,1.49,1.84.15,1.84-1.84,0-1.13-.3-1.24-1.11-.42Zm-88.34-.46c.75,2.5,2.46,4.74,2.44,3.2,0-2.28-1.3-5.45-2.17-5.45-.53,0-.65,1-.27,2.25Zm2.78-3a14.94,14.94,0,0,0,2.06,3.75c.2,0,.4-2,.45-4.5s-.29-4.5-.76-4.5-1.17-2.14-1.56-4.75-1.07-5.2-1.52-5.75a22.14,22.14,0,0,1-1.94-5.25c-.63-2.34-1.68-4.29-2.35-4.33a27.84,27.84,0,0,1-2.83-.39c-1.3-.25-1.65.58-1.72,4.08-.07,3.71.43,4.91,3.26,7.74,3,3,4.72,6.11,5.08,9.15a31.17,31.17,0,0,0,1.82,4.75Zm-54.55-2.53a1.75,1.75,0,0,0,.87,2c.69.24,1.43-1.21,1.83-3.56.83-4.92-1.48-9.21-4.53-8.41-2.39.62-2.39.43.08,4.82,1.11,2,1.9,4.32,1.75,5.18Zm142.74-2.47c-.89,2.12,1.15,2.31,3.73.35,1.23-.92,1.75-2.72,1.75-6,0-4.2-1.6-6.48-2.38-3.39-.43,1.69-2.21,6.85-3.1,9Zm-249.84.34c.29.78,1,1.41,1.46,1.41,1.08,0,1.46-1.06,2.37-6.49s2.37-8,3.78-6.62,2.71,1.39,2.71-.24c0-1.78-3.24-4.65-5.26-4.65a2.77,2.77,0,0,0-2.24,2,2.87,2.87,0,0,1-2.32,2c-1.54,0-1.54.14.07,1.36,2.09,1.59,2.23,5.39.29,7.95a4,4,0,0,0-.86,3.25Zm113.89-2.49c.69,1.13,3.43,1.18,3.43.06,0-1.4-1.12-2.05-2.59-1.49-.77.29-1.15.94-.84,1.43Zm-74.37-2.91c.9-.89,1.6-.78,3,.48,2.48,2.24,2.45-.29,0-3.53-2.37-3.07-5.76-2.55-5.38.84.35,3.09,1,3.66,2.43,2.21Zm191.41-4.44c.36,2.88,1,5.25,1.52,5.25,1.06,0,1.1-.3.91-6-.16-4.77-1.95-11-3.15-11-.4,0-.54,1.46-.32,3.25s.69,5.61,1,8.5ZM175.4,451.16c.24,0,.71-.45,1-1s.15-1-.44-1a1,1,0,0,0-1.06,1C175,450.71,175.15,451.16,175.4,451.16Zm162-3.73a2.05,2.05,0,0,0-.18,1.86c.34,1,.58,1,1.21,0,.83-1.35,0-2.88-1-1.86Zm-154.85.66a1.16,1.16,0,0,0,.45,1.56c.55.34,1-.08,1-.93,0-1.76-.6-2-1.46-.63Zm15.13-2.36c.56,1.47,3.49,1.94,4.67.76a2.5,2.5,0,0,0-.85-4c-2-.75-4.52,1.39-3.82,3.22Zm101.19-4.06a7,7,0,0,1,1.32,3c.83,4.41,1.61-1.28,1.07-7.89-.45-5.66-.92-7-2.9-8.3-1.29-.85-2.35-2.18-2.35-3,0-1.36-2.75-6.29-4.09-7.35a60.13,60.13,0,0,1-4.09-6.94c-1.9-3.54-4.06-6.64-4.8-6.89-1-.32-1.13.09-.59,1.44.41,1,1.51,4.81,2.45,8.39a55.76,55.76,0,0,0,2.8,8.5c2.39,4.32,6.32,15,6.32,17.11,0,2.75,1.9,4.16,3.07,2.27.55-.89,1.17-1,1.79-.38Zm.06-4.93c-.05,1.16-.29,1.4-.61.6a2,2,0,0,1,.08-1.91c.34-.33.57.26.53,1.31ZM278,446.16c.55,0,1-.2,1-.44s-.45-.72-1-1.06-1-.14-1,.44A1,1,0,0,0,278,446.16Zm-22.35-5c.33,1.65,1.24,3,2,3,1.75,0,1.47-8.14-.31-8.72-1.6-.52-2.42,2.22-1.72,5.73Zm-66,.38c-.35.9.31,1.56,1.87,1.86,3,.56,3.79-.13,2.32-1.91s-3.51-1.72-4.19.05Zm153.9,1c2.89,1.11,4.47.63,5.34-1.64a3.48,3.48,0,0,0-.62-3.92c-1-1.1-1.55-4.33-1.71-9.5-.14-4.31-.78-8.82-1.42-10A13.93,13.93,0,0,1,344,412a11.1,11.1,0,0,0-1.36-5.32c-.75-1.09-1.68-4.55-2.07-7.71s-1.12-6-1.64-6.31-.93-2.12-.93-4-.34-3.44-.75-3.44c-.82,0-3.25-7-3.25-9.4a1.94,1.94,0,0,1,.92-1.77c1.42-.52,0-5.83-1.53-5.83s-1.72-.49-.25-2.86a3.1,3.1,0,0,0,0-3.73c-.61-1.05-1.12-1.35-1.14-.66a1.18,1.18,0,0,1-1,1.25c-1.32,0-1.28-4.32.06-5.66s.14-6.34-1.54-6.34-3.86,2.64-3.19,3.72a46.08,46.08,0,0,1,1,8c.3,4,1,8.14,1.64,9.25s.89,2.37.66,2.77.15,4.33.85,8.73,2.26,14.3,3.44,22S336.48,418.8,337,419c1.35.47,4.95,9,4.95,11.73a4,4,0,0,1-1.08,3c-.79.48-.79,1,0,1.76a6.42,6.42,0,0,1,1.08,3.78c0,1.53.69,2.95,1.59,3.3Zm82.09-2.14a1.63,1.63,0,0,0,2.66.08c1.06-1.06.77-5.33-.37-5.33s-3,4.1-2.29,5.25ZM359,440.24c0,1.47,2.74,1.05,3.34-.51a2.44,2.44,0,0,0-.78-2.53c-1-.82-1.48-.69-1.94.51a9.32,9.32,0,0,0-.62,2.53Zm-89.05.92a1,1,0,0,0,1.05-1c0-.55-.19-1-.44-1s-.72.45-1.06,1S269.31,441.16,269.9,441.16Zm-83.95-2c1.51,0,2.05-.53,1.81-1.75a1.81,1.81,0,0,0-3.62,0C183.91,438.63,184.45,439.16,186,439.16Zm-20.82-2.83c.33,2.23,2.27,3.56,3.12,2.13a27.45,27.45,0,0,0,1.18-5c.73-4.41,1.86-5.43,2.93-2.64.48,1.26.92,1.36,2,.44s1.08-1.68-.76-4.57c-1.19-1.87-2.68-3.42-3.31-3.44a2.34,2.34,0,0,1-1.72-1.54,2.3,2.3,0,0,0-4.29,0,3.68,3.68,0,0,0,.91,3.25,13.88,13.88,0,0,1,2.16,5.47c.55,3.06.38,3.75-.94,3.75-1.09,0-1.51.7-1.3,2.17Zm187.27,1.06c2.36,1.64,4.56.78,4.56-1.78,0-4.9-4.39-10.56-7-9-1,.63,1,9.81,2.4,10.76ZM201,434.77c0,3,.38,3,2.39-.08s2-3.46-.39-2.82a2.69,2.69,0,0,0-2,2.9Zm-23.76-1.61c-1.13,1.8-1,2,1.26,2,1.84,0,2.5-.53,2.5-2,0-1.1-.56-2-1.25-2a4,4,0,0,0-2.51,2Zm225.87,1c1.43,0,1-2.64-.61-4s-1.95-.34-.89,2.41C401.89,433.44,402.57,434.16,403.06,434.16ZM253.84,427c.95,6,1.6,7.05,2.86,4.5,1.55-3.13,1.46-12.33-.13-12.33-2.73,0-3.58,2.45-2.73,7.83Zm174.51,2.44a2,2,0,0,0-.08,1.91c.32.8.55.56.6-.6s-.19-1.64-.52-1.31ZM203,429.22c1.89,1.2,2.67,1.16,3.49-.16.37-.6,0-1.75-.78-2.55-1.27-1.27-1.62-1.25-2.8.17s-1.12,1.77.09,2.54Zm6.49-2c.88,1.43,3.45,1.06,4.08-.59.85-2.23-.35-4.55-2-3.91s-2.87,3.19-2.06,4.5Zm166.32-1.78c1.52,1.87,3.13,2.23,3.13.69,0-.55-.19-1-.42-1a12.47,12.47,0,0,1-2.25-.69c-1.62-.61-1.67-.49-.46,1Zm-59.87.69a1,1,0,1,0-1-1A1,1,0,0,0,316,426.16Zm-98.75-1.08c3-1,4-3.92,1.25-3.92-.84,0-1.5.89-1.5,2S217.07,425.12,217.21,425.08Zm185.29-2.85a2.73,2.73,0,0,0,2.13.93c1.28,0,1.34-.28.33-1.49-1.29-1.56-3.47-1.07-2.46.56Zm-77.1,0c.72-1.17-.39-4.09-1.55-4.09-.5,0-.9,1.12-.9,2.5C323,423.13,324.31,424,325.4,422.25Zm-15.58-3.84c4.29,4,6.2,4.58,8.1,2.29,1.62-2,.9-2.85-4.17-5.12-4.8-2.15-8.72-6-8.77-8.67,0-2.14,1.82-2.32,2.61-.26.31.82,1,1.26,1.43,1s.35-1.64-.27-3c-1.05-2.31-1.27-2.37-3.43-1-3.06,2-3.7,1.9-3.08-.49.67-2.56-.89-2.61-2.25-.07-2.09,3.91-1.79,4.38,9.83,15.32ZM356,420.16c.55,0,1-.68,1-1.5s-.45-1.5-1-1.5-1,.67-1,1.5S355.4,420.16,356,420.16Zm-144-.88a.73.73,0,0,0,.75.8c2-.21,3.25-1.23,3.25-2.6a9.68,9.68,0,0,1,2.1-4.17l2.1-2.65-2.18-.33c-2.74-.42-3.27.11-3.27,3.27a5.42,5.42,0,0,1-1.37,3.66,3.68,3.68,0,0,0-1.38,2Zm-50.65-.67c.65,1.7,2.23,2,3.08.66.66-1.06-2.21-3.66-3.07-2.8a2.36,2.36,0,0,0,0,2.14ZM429,417.16a1.75,1.75,0,0,0,1.91,2c2.4,0,6.07-7.23,6.13-12.07,0-3.28.64-6.58,2.8-15.43,1.3-5.31,2.55-17.17,1.74-16.39a6.62,6.62,0,0,0-1,2.69c-.95,4.9-3.93,14.8-4.81,15.93a5.21,5.21,0,0,0-.32,3.78c.49,1.93,0,3.09-1.89,4.88-2.52,2.33-3.41,5.61-1.52,5.61,1.11,0,1.33,3,.39,5.41a2.45,2.45,0,0,1-2,1.59c-.77,0-1.39.9-1.39,2Zm-175.56-2.1a2.26,2.26,0,0,0,1.55,1.1c1.1,0,2.4-3.94,1.57-4.77s-3.88,2.45-3.12,3.67Zm-31.27-1.76c.33,2.29.33,2.28,2.08-.39a11.21,11.21,0,0,0,1.75-3.72c0-1.56-3-1.24-3.61.39A9.16,9.16,0,0,0,222.12,413.3Zm-16.17.86a1,1,0,0,0,1-.94,2.14,2.14,0,0,0-1-1.56c-.55-.34-1,.08-1,.94S205.4,414.16,206,414.16ZM351,406c2.13,6.31,4.64,8.64,3.58,3.32-.78-3.91-4-11.12-4.91-11.12-1.14,0-1,1,1.33,7.8Zm21.51,3.61a2.48,2.48,0,0,0,2,1.59c1.88,0,1.76-.72-.6-3.73-2-2.55-2.76-1.4-1.4,2.14Zm-214.17,1.59c.25,0,.72-.45,1.06-1s.14-1-.44-1a1,1,0,0,0-1.06,1C157.94,410.71,158.14,411.16,158.38,411.16Zm204.82-4c1.66,2.66,3,2.47,2.18-.29s-1.09-3.09-2.35-2.31c-.71.44-.66,1.27.17,2.6Zm-150.56.32c1.12,1.12,2.2.69,3.26-1.3,1.38-2.57,1.31-3.06-.42-3.06s-3.83,3.38-2.84,4.36Zm-4.26.64c.86,0,1.56-.45,1.56-1a1,1,0,0,0-.94-1,2.14,2.14,0,0,0-1.56,1C207.1,407.71,207.52,408.16,208.38,408.16Zm275.12-5.75c-.77,3.49-.54,3.41,2.09-.72,1.78-2.79,1.9-3.49.71-3.95-1.48-.56-1.76-.1-2.8,4.67Zm-234.06-.24c2.2,1.61,5.07,2.94,6.37,2.95,2.11,0,2.31-.3,1.78-3-.85-4.25-3.55-8-5.77-8-1,0-1.88-.5-1.88-1.11s-.66-.85-1.47-.54a1.91,1.91,0,0,1-2.25-.74c-.43-.72-2.47-1.58-4.55-1.9a19,19,0,0,1-7.47-3.65c-2-1.69-4.22-3.06-4.83-3.06s-1.62-1.13-2.25-2.5c-1.17-2.57-2.71-3.09-5-1.66a2.18,2.18,0,0,0-.57,2.74c.86,2.34,9.07,10.42,10.58,10.42s12,6.16,17.27,10Zm-47.09-.64c-.84,2.18-.25,2.76,1.61,1.61,1.14-.7,1.2-1.16.25-2.11s-1.35-.83-1.86.5Zm91.47-.27c2.47,2.3,2.74,2.33,3.51.31.84-2.17.87-2.11-1.56-2.75-3.29-.86-4.23.32-1.95,2.44Zm174.09-6.84a13.56,13.56,0,0,1,3.48,4.81c1.42,3.23,1.54,3.3,2.15,1.15.55-1.94,1.11-2.18,3.89-1.66s3.32.27,3.78-1.48c.39-1.48,1.05-1.9,2.26-1.44,1.47.57,1.55.37.57-1.46s-1.55-2-3.68-1.15c-4.54,1.73-7.78,1.06-12.31-2.54a40.22,40.22,0,0,0-4.77-3.49c-1,0,2.87,6,4.63,7.26Zm-103.45,6.07a11.33,11.33,0,0,1,4.11.71c3,1.15,4.35-.86,1.79-2.73-1.11-.82-2-1-2.22-.39s-1.68.73-3.4.39c-2.36-.48-2.95-.3-2.57.78a2.24,2.24,0,0,0,2.29,1.24Zm-149.18-1.77c-.66,1.72.89,3.88,2,2.79s.81-4.35-.34-4.35c-.57,0-1.31.7-1.64,1.56ZM184,400.91c0,1.7,3.65,1.59,4.32-.14.37-1-.2-1.35-1.9-1.25-1.33.07-2.42.7-2.42,1.39Zm199.36-3.45c-.41.41,0,1.5.94,2.43,1.81,1.81,2.27.73.73-1.7-.51-.81-1.26-1.14-1.67-.73Zm24.63,1.2c.55.34,1,.14,1-.44a1,1,0,0,0-1-1.06c-.55,0-1,.19-1,.44S407.39,398.32,407.94,398.66Zm-20.5-1.5c.83,0,1.5-.45,1.5-1s-.67-1-1.5-1-1.5.45-1.5,1S386.62,397.16,387.44,397.16Zm-186.5,0c.55,0,1-.2,1-.44s-.45-.72-1-1.06-1-.15-1,.44A1,1,0,0,0,200.94,397.16Zm163.48-4c.95.79,1.52.86,1.52.2,0-1.21-1.89-2.62-2.59-1.93C363.1,391.67,363.58,392.44,364.42,393.14Zm-6.73-.5c-.13.55.59,1.15,1.62,1.35,1.21.23,1.71-.11,1.42-1-.52-1.56-2.67-1.81-3-.36Zm-73.51-.5c.52,2.7,3.48,2.31,4.19-.55.37-1.47.47-2.87.22-3.12-.91-.91-4.68,2.23-4.41,3.67Zm-64.79,2c.85,0,1.55-.45,1.55-1a1,1,0,0,0-.94-1,2.16,2.16,0,0,0-1.56,1C218.1,393.71,218.53,394.16,219.39,394.16Zm172.08-4c1.7,3.29,2.48,3.72,2.48,1.38s-2-5.57-3.05-4.9c-.56.34-.32,1.79.57,3.52Zm95.84,2c1,0,.73-2.83-.36-3.5-.55-.34-1-2-1-3.62s-.42-2.74-1-2.38c-1.43.88-1.18,5.68.39,7.75C486.07,391.37,487,392.16,487.31,392.16Zm-139.92,0c.24,0,.72-.45,1.06-1s.14-1-.44-1a1,1,0,0,0-1.06,1C347,391.71,347.15,392.16,347.39,392.16Zm-93.81-5.48c.7,5.92,1.6,6.74,3.54,3.23,1.38-2.49,1.3-4.16-.36-7.47-.84-1.68-.8-2.59.16-3.75.7-.84.87-1.53.37-1.53a5.82,5.82,0,0,0-2.63,2c-1.38,1.62-1.6,3.1-1.08,7.5ZM489,386.35c0,4.12.28,4.81,2,4.81,1.29,0,2.2-.89,2.62-2.56.67-2.66-.06-9.23-1.14-10.32-1.36-1.36-3.46,3.53-3.46,8.07Zm-88.48-3.87c-.5,4.43-.4,7.19.28,7.87,1.51,1.52,2.59-6.94,1.43-11.24-.9-3.31-1-3.18-1.71,3.37Zm-203,5.51c1.84,3.7,2,3.79,2.69,1.28a3.82,3.82,0,0,0-1.48-3.57c-2.68-2.29-3.1-1.49-1.21,2.29Zm236.83-.56a2,2,0,0,0-.08,1.91c.32.8.56.56.61-.6s-.2-1.65-.53-1.31Zm-6.4.73a1,1,0,1,0-1-1A1,1,0,0,0,428,388.16Zm-57.43-1c3.43,1.31,3.63,1.26,3.25-.77-.2-1.06-1.42-1.88-3.07-2.07-3.47-.4-3.59,1.55-.18,2.84Zm-120.45,0c.55,0,.72-.45.38-1a2.19,2.19,0,0,0-1.62-1c-.55,0-.72.45-.38,1A2.19,2.19,0,0,0,250.07,387.16Zm-38.18,0c1.18,0,2.44-2,1.73-2.67S211,385,211,386.22A1,1,0,0,0,211.89,387.16ZM363,383.75c0,1.34.59,2.41,1.33,2.41,3.14,0,3.69-3.5.67-4.29-1.59-.42-2,0-2,1.88Zm-120.36-.81c-.34.54.06,1.55.87,2.23,1.63,1.34,2,.29.6-1.87-.52-.82-1.1-1-1.47-.36ZM434,381.54c0,1.37.38,2.74.85,3,1,.62,2.15-11.37,2.15-22.53,0-6.68.28-8,1.92-8.84,1.39-.75,2.08-.69,2.5.21.33.69.33-.1,0-1.74-.88-4.47-2.65-4.93-4.63-1.22-1.25,2.32-1.73,5.69-1.76,12.26,0,5-.43,9.47-.91,10-1.29,1.41-2.3,7.67-1.12,6.94.55-.34,1,.5,1,1.89Zm-142,2.31a1.19,1.19,0,0,0,1,1.31,1.1,1.1,0,0,0,1-1.18,6.15,6.15,0,0,1,1.62-3c1.16-1.28,1.44-2.75,1-5.25-.53-2.81-1.22-3.59-3.62-4.12-3.15-.69-4-2.89-1.47-3.86.82-.31,1.5-1,1.5-1.5,0-1.55-3.29-2.28-4.16-.92-.63,1-.84.95-.93-.21-.15-2-1.69,2.89-1.81,5.81-.06,1.27.3,2,.8,1.75s2.25-.28,3.9,0c2.33.46,3.09,1.22,3.41,3.39a7.17,7.17,0,0,1-.9,4.58,6.81,6.81,0,0,0-1.31,3.11Zm183,.31a1,1,0,1,0-1-1A1,1,0,0,0,475,384.16Zm-46-1.4c0-1.45-2.42-2.86-3.33-1.94a2.12,2.12,0,0,0,0,1.93C426.32,384.57,429,384.58,429,382.76Zm-108.56,1.4c.24,0,.72-.45,1.06-1s.14-1-.45-1a1,1,0,0,0-1.05,1C320,383.71,320.14,384.16,320.39,384.16Zm-30.94-2.64c.82.31,1.5.14,1.5-.4s-.68-1-1.5-1-1.5.17-1.5.39S288.62,381.2,289.45,381.52Zm-80.95.64c.86,0,1.28-.45.95-1a2.16,2.16,0,0,0-1.56-1,1,1,0,0,0-.94,1C207,381.71,207.65,382.16,208.5,382.16ZM496,378.66c.55.34,1,.16,1-.39a2.18,2.18,0,0,0-1-1.61c-.55-.34-1-.17-1,.38A2.19,2.19,0,0,0,496,378.66Zm-281.86-2.38c2.46,2.66,5.85,3.89,5.85,2.12,0-1.3-9.66-11.24-10.92-11.24-1.48,0,1.34,5.07,5.08,9.12Zm104.16.61c.25,1,.48.42.5-1.23s-.19-2.45-.46-1.77A5.59,5.59,0,0,0,318.25,376.89Zm-76.31-3.47a5.51,5.51,0,0,0,1.5,3.74c.95.78,1.5.85,1.5.18a2.33,2.33,0,0,0-1.06-1.72c-.62-.39-.78-1.91-.39-3.71.58-2.63.43-3-1.06-2.39a3.22,3.22,0,0,1-2.9-.29c-1.38-1.14-4.11.27-3.24,1.68.33.54,1.74.76,3.13.5,2.15-.42,2.52-.12,2.52,2Zm-38,4.74a1,1,0,1,0-1-1A1,1,0,0,0,203.94,378.16Zm180.94-1a2.14,2.14,0,0,0,1.56-1c.34-.55-.08-1-.94-1s-1.56.45-1.56,1A1,1,0,0,0,384.88,377.16Zm-130.32-3c.71.71,1.58.43,2.77-.89,2.23-2.46.17-4.11-2.19-1.75C254,372.64,253.85,373.47,254.56,374.17Zm-5.94-6.57a4.1,4.1,0,0,0-1.5,3.72l.32,2.34,2.25-2.11c2.14-2,3.1-5.43,1.5-5.36a7.53,7.53,0,0,0-2.57,1.41Zm228.32,5.56c.55,0,1-.68,1-1.5s-.45-1.5-1-1.5-1,.67-1,1.5S476.39,373.16,476.94,373.16Zm-99-1.25a1.12,1.12,0,0,0,1,1.25c1.45,0,3.19-5,2.4-6.93-.51-1.22-1-.9-2,1.43a17.45,17.45,0,0,0-1.38,4.25Zm12.34-1.29c1.13-3,.65-4.46-1.45-4.46-1.65,0-2,.53-1.75,2.67C387.49,371.92,389.4,373,390.32,370.62Zm-73.24,1.13c.81.49.95-.08.49-1.92-.52-2.08-.34-2.5.85-2,2.16.83,3.12-2.46,1.26-4.32-1.38-1.38-1.6-1.32-2.22.63-.53,1.66-1,1.91-2,1.06-.79-.66-1.56-.72-1.9-.17s.09,1.5.91,2.18a4.07,4.07,0,0,1,1.49,2.55A2.66,2.66,0,0,0,317.08,371.75Zm174.44-1.34c1.26,1.26,4.1.83,5.48-.83,1.08-1.31,1.06-1.73-.13-2.48-2-1.29-2.71-1.17-3.75.68-.62,1.12-1.13,1.28-1.6.5-1-1.54-3.85-1.43-3.33.13a1.8,1.8,0,0,0,1.5,1.25,2.94,2.94,0,0,1,1.83.75Zm-20.58-.25a1,1,0,1,0-1-1A1,1,0,0,0,470.94,370.16Zm-46-1c.53,0,1-.68,1-1.5s-.18-1.5-.4-1.5-.65.67-1,1.5S424.43,369.16,425,369.16ZM305.38,369c1.14.22,1.63-.14,1.34-1a3.12,3.12,0,0,0-2.23-1.69c-1.14-.22-1.62.14-1.34,1A3.12,3.12,0,0,0,305.38,369Zm166.91-2.36c.6,1.56.87,1.62,4,.81,1.45-.37,1.77-1.31,1.56-4.69s.25-4.74,1.93-6.41c2.73-2.74,2.77-4.56.14-6.32-2-1.31-2-1.57-.52-5.7,1.56-4.41,2.34-17.11,1.17-19a54.73,54.73,0,0,1-2.05-8.36c-.78-4-1.72-8.55-2.1-10.06-.68-2.74,1.2-4.18,2-1.5.19.68,1.08,3.66,2,6.61a38.09,38.09,0,0,1,1.62,8.33c0,1.94.43,2.83,1.25,2.55,1.71-.58,1-13.5-.85-16.47a13.38,13.38,0,0,0-4.41-3.78c-1.84-.95-3-2.33-3-3.59,0-1.65-.43-1.91-2.25-1.35a12.68,12.68,0,0,0-3.5,1.69c-1.49,1.19-1.68,4.76-.25,4.76,1.12,0,1.29,3.31.34,6.83-.46,1.74-.83,2-1.47,1s-.85-1-.86.33a13.26,13.26,0,0,1-.65,3.5c-.56,1.62-.44,1.6,1-.16s1.79-1.75,2.53-.62c1.12,1.7-.17,6.55-2.3,8.69-1.75,1.75-2.11,6-.59,6.91.61.38.52,1.38-.25,2.69-1,1.66-1,2.18,0,2.55,2.11.76,4.28,3.38,3.65,4.4a2.44,2.44,0,0,0,.61,2.42c.89,1.06.92,1.81.11,2.78a1.6,1.6,0,0,0,.13,2.55,7.31,7.31,0,0,1,1.44,3.93c.11,1.48.5,4.39.86,6.46.41,2.4.21,4.3-.57,5.24a3.34,3.34,0,0,0-.65,3ZM441,365.41c0,3.19,1.56,3.67,2.49.75s-.41-6.76-1.6-4.89a9.65,9.65,0,0,0-.89,4.14ZM366.06,365c.62.21,1-.13.75-.75-.42-1.25-1.87-1.54-1.87-.37C364.94,364.32,365.44,364.83,366.06,365Zm-127.12-.54c0,.92,3.77.85,4.35-.09.9-1.46-.6-6.24-2-6.24-.76,0-1.38.45-1.38,1a1.09,1.09,0,0,0,1.15,1c.69,0,.49.73-.5,1.83a6.86,6.86,0,0,0-1.65,2.5Zm227.43-2.33c0,1.1.3,2,.68,2,1,0,1.87-2.69,1.15-3.41-1.13-1.13-1.83-.59-1.83,1.41Zm-190.93,1a2.93,2.93,0,0,0,2.31,1c1.45,0,1.48-.15.19-1-2-1.27-3.28-1.27-2.5,0Zm-27.56,1c1.18,0,2.44-2,1.72-2.67s-2.66.55-2.66,1.73A1,1,0,0,0,247.88,364.16Zm104.06-5.24c0,2.07,3.61,4.67,4.5,3.24s-1.32-5-3-5a1.64,1.64,0,0,0-1.46,1.76Zm-148.5,3.6c.82.31,1.5.14,1.5-.39s-.68-1-1.5-1-1.5.17-1.5.39S202.61,362.2,203.44,362.52Zm307.06-.36c.85,0,1.28-.45.94-1a2.14,2.14,0,0,0-1.56-1,1,1,0,0,0-.94,1C508.94,361.71,509.64,362.16,510.5,362.16ZM358.74,361c-.78.78-.83,1.2-.12,1.2,2.1,0,3.54-2.78,2.43-4.7-1-1.68-1.05-1.66-1.08.25a5.42,5.42,0,0,1-1.23,3.25Zm-80-1.19c.95,1.45,4.68,2.61,5.56,1.73a7,7,0,0,0,.68-3.51c0-3.33.63-3.46,4-.83s3.81,2.49,6.57-.49c2.09-2.25,2.15-2.57.62-3.42-2.54-1.42-.7-2.44,1.89-1.05,1.83,1,2.46.94,3.34-.23a7.4,7.4,0,0,1,2.83-2.09c2.62-1,2.12-2.4-1.28-3.58s-7.1-.46-4.83.94c.71.44,1,1.11.64,1.47-.79.78-6.78-1.69-6.78-2.8,0-.41-.68-.75-1.5-.75-2.33,0-1.77,1.55,1,2.81,1.37.63,2.5,1.6,2.5,2.17,0,1.66-1.78,1.17-3.87-1.07-1.6-1.72-2.31-1.89-4-1-1.15.61-2.09,1.55-2.09,2.08s-.68,1-1.5,1-1.5.9-1.5,2.1c0,1.47-.46,1.93-1.5,1.53s-1.5.08-1.49,1.65a7.55,7.55,0,0,0,.75,3.33Zm124.23,1.39c.55,0,1-.68,1-1.5s-.45-1.5-1-1.5-1,.67-1,1.5S402.38,361.16,402.93,361.16ZM300,359.7c1.95,2.35,3.75,1.77,3.21-1-.48-2.54-2.6-3.36-3.77-1.46a2.46,2.46,0,0,0,.56,2.5Zm-29.42-.42c1.75,1.94,3.3,2.44,3.5,1.13l.27-1.75a15.13,15.13,0,0,1,4.26-8.21c2.91-2.71,3-3.9.26-4.61-1.16-.3-1.81-1-1.44-1.62.46-.75,1.24-.76,2.62,0,2.06,1.1,3.92.54,3.92-1.19,0-.56-.57-.82-1.25-.57a4.19,4.19,0,0,1-2.75-.28,27.31,27.31,0,0,0-4.33-1.4c-2.45-.59-2.75-.43-2.24,1.19s.14,1.81-2.67,1.48l-3.26-.39,2.25,2c2.77,2.43,3.28,10.81.7,11.8-1.36.53-1.34.81.16,2.47Zm-52.61,1.38c.55.34,1,.16,1-.39a2.18,2.18,0,0,0-1-1.61c-.55-.34-1-.17-1,.38A2.19,2.19,0,0,0,217.94,360.66Zm278.25-4.25c.63,1.89,3.75,2.16,3.75.32,0-.93-.86-1.57-2.09-1.57s-1.91.51-1.66,1.25Zm-192.06-.51c.38,2,3.3,2.89,4.27,1.31.36-.58,1.79-1,3.17-1,2,0,2.45-.43,2.19-2.25s-1.08-2.33-3.58-2.57c-3.67-.35-6.58,1.83-6.05,4.56Zm-46.57-2.84a16.92,16.92,0,0,1,3.54,4.08c.29.88.8.76,1.78-.42a2.81,2.81,0,0,1,2.69-1.15c2.2.84,2.57-1.26.67-3.87-2.24-3.08-5.35-3.45-4.59-.54.62,2.37-.29,2.57-2.36.5a5.14,5.14,0,0,0-3.17-1.47c-1.25,0-.87.76,1.44,2.87Zm-18,2.1c.55.55,3.55,1.25,6.66,1.54l5.66.54-.21-3c-.16-2.2-.63-2.89-1.74-2.54-2.3.72-8-1.2-10.51-3.54-1.89-1.79-2.29-1.86-2.8-.53-.81,2.1-3.38,2-4.15-.19s-8.67-8-12-8.84c-3.79-.95-3.86-2-.26-4.21,4-2.39,9.95-3.34,23.76-3.74,9.76-.29,10.67-.15,13,2,4.11,3.76,8.47,4.76,12,2.76,2.64-1.52,3.12-1.54,4.47-.19,2.07,2.07,10.95,1.46,10.12-.7-.45-1.19.06-1.34,2.65-.77a19.49,19.49,0,0,1,5,1.8c2.32,1.44,3.25.32,1.87-2.26s0-2.76,3.52-.45c1.38.9,2.77,1.36,3.11,1,1-1-1.75-3.66-3.75-3.66a3.33,3.33,0,0,1-2.62-1.35c-.63-1.05-3.57-3.22-7.07-5.2a13.35,13.35,0,0,1,1.23-3.7c1.6-3.84,1.43-4.18-3.46-6.85q-4-2.19-28.78-3.12c-8.87-.33-10.25-.17-10,1.16a4.51,4.51,0,0,1-.47,2.71c-1,1.55,8.44,2.86,10.94,1.54,1.16-.62,5.14-.65,10.84-.09,15.24,1.5,19,2.28,19,3.91,0,1.09-1.21,1.5-4.5,1.54a62.51,62.51,0,0,0-8.75.84c-3.8.7-4.25.58-4.25-1.13s-.88-1.9-22.25-1.56c-32.59.53-56.09,1-57.4,1.16-2.18.26-3.24,5.51-1.7,8.44.78,1.48,1.82,2.7,2.31,2.7s1.15.78,1.46,1.75,2,2.4,3.82,3.19,5.73,2.89,8.76,4.66c4.18,2.44,6.28,3.09,8.75,2.69,1.85-.3,3.25-1.12,3.25-1.91a1.44,1.44,0,0,1,1.5-1.38c1.81,0,2,1.63.25,2.35-.88.37-.66,1,.75,2.07,1.1.85,3.05,2.46,4.33,3.56a8.83,8.83,0,0,0,3.25,2c1.82,0,.86-3.8-1.33-5.27-1.24-.83-2-1.8-1.65-2.15,1.09-1.13,3.34.41,5.9,4,3.75,5.3,6.14,7.39,8.49,7.39a5.1,5.1,0,0,1,3.11,1Zm49.76-26.5c.74,1.92-1.4,1.94-3.92,0-1.87-1.41-1.84-1.47.7-1.5,1.45,0,2.9.64,3.22,1.47Zm-9.36-2c-.55-.34-1-.82-1-1.06s.45-.44,1-.44a1,1,0,0,1,1,1C280.94,326.8,280.49,327,279.94,326.66Zm-23.76,28.5c.56,0,.45-.67-.24-1.5a4,4,0,0,0-2.25-1.5c-.56,0-.45.66.25,1.5A4,4,0,0,0,256.18,355.16Zm99.32-3.25c-.76,2.45.56,3,2.26,1a2.3,2.3,0,0,0,.18-2.72c-1-1.67-1.49-1.34-2.44,1.76Zm145.83,1.25c.85,0,1.34-1,1.25-2.42-.11-1.81-.46-2.15-1.39-1.38a3.66,3.66,0,0,0-1.25,2.42A1.38,1.38,0,0,0,501.33,353.16Zm-97-1.48c-.79,2.05,1,1.85,3-.32,1.52-1.69,1.39-2.16-1.91-7.06-3.58-5.31-4.12-8.64-1.4-8.64,2.51,0,3.38-2.54,1.51-4.36-1.58-1.53-1.81-1.49-3.23.61-.85,1.23-2.13,2.25-2.85,2.25-2.68,0-2.65,3.87.06,6.72,3.18,3.38,5.62,8.79,4.85,10.8Zm-30.4,1.48c1.34,0,2-5.44.72-6.21-1.55-.95-2.94,1.77-2.17,4.23C372.79,352.27,373.44,353.16,373.89,353.16Zm-162-1c2.64,1.41,2.83,1.35,3.62-1.14s-1.8-5.05-4.15-4.15c-2,.79-1.71,4.09.53,5.29Zm104.41-.63c1.24-1.24.67-2.39-1.59-3.25-3.16-1.19-4.19-.23-2.16,2C314.37,352.28,315.21,352.56,316.28,351.49Zm175.85-2.58c.21,1.08,1.44,1.87,3.21,2.08,2.34.26,2.76,0,2.25-1.34a11,11,0,0,1-.64-2.08c0-.23-1.16-.41-2.58-.41-1.91,0-2.48.45-2.24,1.75ZM488,351.16c.55,0,1-1.1,1-2.45s-.45-2.71-1-3-1,.65-1,2.44S487.4,351.16,488,351.16Zm-88.56,0c.24,0,.72-.45,1.06-1s.14-1-.44-1a1,1,0,0,0-1.06,1C399,350.71,399.15,351.16,399.39,351.16Zm-63.94-1.5c0,1.28,3,1.5,7.76.55,4-.79,5.46-1.67,4.45-2.67s-12.21,1-12.21,2.12ZM410,348.1c0,2.62,2,2.63,4.81,0s2.76-3.13-.4-1.93c-1.42.54-3,.73-3.5.41s-.91.36-.91,1.5Zm-93.81-1.64c.38,2.67,2.69,3.24,5.31,1.32,1.93-1.41,1.93-1.49.11-3.5-2.37-2.61-5.91-1.19-5.42,2.18ZM252,349.16c.55,0,1-.2,1-.45s-.45-.71-1-1-1-.15-1,.44A1,1,0,0,0,252,349.16Zm129.5-3.64a2.46,2.46,0,0,1,3,1c1.11,1.52,1.28,1.43,1.72-.84.4-2.09.09-2.52-1.76-2.52a5.1,5.1,0,0,0-3.5,1.52c-1.07,1.28-1,1.42.52.84Zm-115.32,2.64c1.32,0,.49-2.28-1-2.78-.73-.24-1,.22-.58,1.19S265.6,348.16,266.13,348.16Zm61.06-3c3.83,2.33,7.75,2.61,7.75.55,0-1,1.3-1.55,3.75-1.75l3.75-.31-4.38-2.85c-4.59-3-10.75-4.14-12.87-2.42s-1.35,4.73,2,6.78Zm-20.13,1c1.78,0,1.92-.25.88-1.5a4,4,0,0,0-2.12-1.5c-.48,0-.88.67-.88,1.5S305.84,346.16,307.06,346.16Zm128.46-1.61c2.44.93,2.58.8,2.24-2.14-.42-3.64-3.82-4.48-3.82-.93a3.4,3.4,0,0,0,1.58,3.07Zm-209.33-6c-.13.13,1.82,1.72,4.34,3.54l4.59,3.29-1.55-3a6.39,6.39,0,0,0-4.34-3.54,9,9,0,0,0-3-.29ZM407,342.67c1.65,2,1.88,1.92,6.39-1.76l3.9-3.19,1.45,2.18,1.44,2.17,3.41-3.31c1.87-1.82,3.4-3.77,3.4-4.35,0-1.29-2.39-2.25-5.59-2.25a9.49,9.49,0,0,1-4.17-1.07c-1.28-.79-2.66-.68-5.24.42l-3.5,1.49,2.86,1.1c2.38.9,2.65,1.34,1.63,2.57a5.32,5.32,0,0,1-3.64,1.49c-2.84,0-4.09,2.4-2.34,4.51Zm-121-1.6c0,1.88,4.55,2.69,7.33,1.31s2.75-1.48,1.09-3.31a5.82,5.82,0,0,0-3.5-1.91c-1.79,0-4.92,2.48-4.92,3.91Zm-47.57,1.66c1.66,1.66,2.57,1.82,2.57.46,0-.53-.9-1.45-2-2-2.33-1.25-2.61-.48-.57,1.57Zm225.57-.07c.55.34,1,.14,1-.44a1,1,0,0,0-1-1.06c-.55,0-1,.19-1,.44S463.39,342.32,463.94,342.66Zm-118.44-1c3.43,2.6,5,1.91,5.15-2.21.06-2.06-.4-4.06-1-4.45s-.84-1-.49-1.33c.87-.87,5,1.44,6.61,3.68,1.47,2.08,5.19,2.51,5.19.6,0-.69-1.94-2.05-4.29-3a14.71,14.71,0,0,1-6-4.5c-2-3.17-6.37-8.23-7.17-8.23-1.14,0-.49,2.93.83,3.7.76.44,1.69,2.26,2.08,4.05.59,2.75.42,3.23-1.13,3.15-3.89-.22-6.41-1.56-10.82-5.78-2.52-2.41-4.9-4.06-5.29-3.68s.08,1.14,1,1.68a3.34,3.34,0,0,1,1.74,2.41c0,.78,1.13,1.71,2.51,2.06a9.61,9.61,0,0,1,4.49,3.41,9.65,9.65,0,0,0,4.49,3.4c2.5.63,3.59,3.6,1.32,3.6-.65,0-.32.66.75,1.46Zm-36.91.07c.76,2,6.35,2,6.35,0,0-1.61-4.25-3.11-5.9-2.09a1.8,1.8,0,0,0-.45,2.1Zm-50.65,1.47a1,1,0,1,0-1-1A1,1,0,0,0,257.94,343.16ZM384.73,336c1.49,2.82,3,5.13,3.47,5.14,1.44,0,.76-6-.74-6.63-1-.36-1.41-1.67-1.25-3.61.28-3.54-1.67-4.74-3.16-2-.8,1.5-.43,3.06,1.68,7.05Zm71.76,2.08a1.15,1.15,0,0,0,.44,1.56c.56.34,1-.08,1-.94,0-1.75-.6-2-1.46-.62Zm-76,.16c.68,2.13,2.47,2.6,2.49.66,0-.69-1.19-3.58-2.67-6.42-2.59-5-2.81-5.17-7-5.17a16.24,16.24,0,0,1-5.33-.64c-1.4-.86-1.33.79.09,2.21a2.69,2.69,0,0,1,.56,2.62c-.88,2.28-4.55.82-6.26-2.48-1-2-2.24-2.87-4-2.87-1.38,0-2.77-.68-3.08-1.5-.66-1.72-4.36-2.06-4.36-.41,0,1.8,4,6.91,5.45,6.91.72,0,2.05,1.12,3,2.5a5.27,5.27,0,0,0,4,2.5,6.54,6.54,0,0,1,4.14,2c2.41,2.67,3.35,2.52,4.58-.73a8.5,8.5,0,0,1,2.15-3.42c1.46-.9,5.53,1.83,6.29,4.24Zm-82.09-.87c-.33.34.45,1.15,1.73,1.81,2.23,1.15,2.26,1.12.61-.61-1-1-2-1.53-2.34-1.2Zm15.6.82a6.94,6.94,0,0,0,7.43-.39c2.47-1.81.67-2.81-4-2.23-4.37.54-5.44,1.35-3.43,2.62Zm-41,0c0-.55-1-1-2.25-1-1.82,0-2,.2-.75,1C271.89,339.41,273,339.41,273,338.16Zm229.26-2c2.75,0,3.74-.73,3.74-2.74s-5.4-1.19-5.81,1C499.89,335.68,500.46,336.16,502.21,336.16Zm-46.27-1.25a1.16,1.16,0,0,0,1,1.25c1.35,0,1.21-1.14-.4-3.27-1.16-1.53-1.49-1.57-2.55-.29a2.53,2.53,0,0,0-.51,2.62c.52.84.95.78,1.57-.21s.86-1,.88-.1Zm-20-2.29c0,1.4.43,2.54,1,2.54,1.39,0,2.38-6.49,1.66-11-1.09-6.81,1.83-9.69,4.33-4.28l1.28,2.75.9-2.39a9.49,9.49,0,0,0-.25-6c-.64-2-1.31-4.18-1.49-4.86-.44-1.7-2.39-1.6-2.39.12,0,2.5-2.52,3.76-5.38,2.67a6.83,6.83,0,0,0-5.37.14,10.44,10.44,0,0,1-3.5,1c-.41-.09-.75.28-.75.82s.79.93,1.75.85c4.11-.35,8.25.24,8.25,1.17,0,.55-.81,1-1.8,1a4.67,4.67,0,0,0-2.89,1.09c-.79.79-1.66.79-3.14,0-2.67-1.43-3.17-1.38-3.17.34s4.79,2.5,7.12,1.17,4.88,0,4.88,2.86c0,1.87-.53,2.54-2,2.54-2.39,0-2.78,3.48-.5,4.36.83.31,1.5,1.71,1.5,3.1Zm52-1.06c0,3.44.95,3.28,5-.88,3.19-3.29,3.28-3.58,1.7-5.33-2.14-2.36-2.12-3.19.07-3.22,1.61,0,1.62-.11.09-1-2-1.16-5.7-.12-3.78,1.07.91.57.68,1.52-.92,3.77a11.82,11.82,0,0,0-2.14,5.6ZM459,333.16a1,1,0,0,0,.94-1c0-.55-.7-1-1.56-1s-1.28.45-.94,1A2.14,2.14,0,0,0,459,333.16Zm-146.89-3.25c4.06,3.26,8.82,4.33,8.84,2,0-.69-1.46-2.46-3.25-3.93s-2.92-3-2.51-3.41,1.64.08,2.74,1.08c2.11,1.9,2.41,1.71,1.4-.91-.67-1.76-3.93-2.14-4.89-.58s-5.25,1.23-5.78-.25c-.25-.69-.75-1-1.11-.65-1.15,1.06.39,3.29,4.56,6.65Zm107.65-.61a43.68,43.68,0,0,1,6.71,1.23c1.35.52,3.38-1.89,2.34-2.78a58.29,58.29,0,0,0-7.69-.9c-5.45-.44-7.21-.28-6.92.61.22.66,2.72,1.48,5.56,1.84Zm-31.61-4.14c.67,0,2.17,1.2,3.34,2.66,1.61,2,2.32,2.35,2.94,1.35.51-.83.16-1.8-1-2.62-2.83-2.07-1.21-4.12,3.14-4,3.18.09,3.89.49,4.16,2.36.5,3.57,2.18,2.61,2.18-1.25,0-1.93.45-3.5,1-3.5,1.63,0,1.14-2.55-1-5.3-1.33-1.69-1.65-2.79-.93-3.23s1.72.16,2.51,1.18c1.38,1.77,1.48,1.78,2.52,0,.86-1.44,1.37-1.56,2.51-.61.93.76,3.21,1,6.4.6,5.8-.68,9-2.18,9-4.2,0-1.14-1-1.32-4.75-.84-2.62.34-5.18,1-5.7,1.49a5.17,5.17,0,0,1-2.93.87c-1.87,0-1.85-.13.35-2.47,1.27-1.36,2.72-2.22,3.22-1.92,1.64,1,3.89-1.79,3.2-4-.89-2.92-1.14-3.06-2.86-1.63a3.35,3.35,0,0,1-3,.69,1.46,1.46,0,0,0-1.91.64c-.25.66-1-.27-1.66-2s-1.55-3.25-2-3.25c-1.56,0-1.77,3.93-.36,6.65,1.29,2.49,1.27,2.92-.2,4a3.68,3.68,0,0,1-2.9.73A2.63,2.63,0,0,0,401,308.6c-1.61,1.95-3,1.1-3-1.8,0-2.67-1.75-4.64-4.1-4.64a2.71,2.71,0,0,1-2.32-1.65c-.35-.9-.89-1.38-1.21-1.06s-.25,1.1.15,1.75a17.36,17.36,0,0,1,1,5.3c.17,2.26.79,4.27,1.37,4.47,1.28.42,1.44,2.19.2,2.19s-6.13-7.65-6.13-9.6c0-1.15-.6-1.48-2-1.11-1.1.29-3.79-.34-6-1.4s-4.32-1.82-4.74-1.71c-1.31.35-5.68-1.33-7.41-2.84a4.08,4.08,0,0,0-2.5-1.23c-.48.11-2.55-.55-4.59-1.46-4.67-2.08-6.79-2.2-4.75-.27s10.79,6.62,12.4,6.62c.74,0,2.42,1.11,3.71,2.48s2.86,2.49,3.48,2.5a4.12,4.12,0,0,1,2.38,1.52c1.72,2.07,3.74,1.87,4.48-.45.63-2,3.52-1.82,3.52.19,0,.56,1.12,2.07,2.5,3.34,3.2,3,3.16,3.8-.16,3-1.56-.4-2.93-.22-3.33.43-.68,1.1-8.19-.75-12.25-3a8.93,8.93,0,0,0-3.66-1c-1.62,0-1.91.7-1.86,4.4.07,4.07.3,4.45,3,5,4.58.92,10.64.71,12.8-.45a3.53,3.53,0,0,1,3.68,0c1.48.87,1.34,1-1,1.05-3.27,0-5.86,3.67-3.31,4.65a6.79,6.79,0,0,0,3.54.08c1.09-.28,2-.11,2,.39s.54.91,1.21.91Zm-47.18,0c-1.53-2-2.18-2.25-3.17-1.27s-.75,1.75,1.12,3.75C343,332,344.65,329.93,341,325.16Zm-16,5a1,1,0,0,0,.94-1c0-.55-.71-1-1.56-1s-1.28.45-.94,1A2.14,2.14,0,0,0,325,330.16Zm-23.39-1.43a4.86,4.86,0,0,1,3.4.46c1.44.78,1.93.71,1.93-.25,0-.71-1.47-1.93-3.25-2.7a41.74,41.74,0,0,1-6.06-3.35c-1.55-1.07-3.08-1.68-3.42-1.34s-.42.72-.19.86,1.77.95,3.42,1.81,2.93,2.3,2.85,3.32.34,1.56,1.32,1.19Zm203.72-2.3a2,2,0,0,0-.18,1.86c.33,1,.57,1,1.2,0,.83-1.35,0-2.88-1-1.86Zm-175.28,2.73c.55,0,.72-.45.38-1a2.19,2.19,0,0,0-1.62-1c-.55,0-.72.45-.38,1A2.19,2.19,0,0,0,330.06,329.16Zm99.88-3a1,1,0,1,0-1-1A1,1,0,0,0,429.94,326.16Zm-21.41-1.86c1.1,1.79,2.41.75,2.38-1.89s-.11-2.65-1.47-.86c-.79,1.05-1.2,2.28-.91,2.75Zm8.11-5.3a3.16,3.16,0,0,0,3.74-.42c2.13-1.57,2-1.88-1.11-2.84-1.19-.37-2.45-.2-2.81.38a3.34,3.34,0,0,1-2.58,1,1.74,1.74,0,0,0-1.94,1.62c0,1.3.29,1.38,1.43.43A2.64,2.64,0,0,1,416.64,319Zm-99.46-2.42c-.34.34.14,1.38,1.07,2.31,1.56,1.56,1.69,1.57,1.69,0,0-1.82-1.77-3.33-2.76-2.35Zm145.76,1.58a1,1,0,1,0-1-1A1,1,0,0,0,462.94,318.16ZM304.88,318c.75.25,1.13-.13.88-.88a3.13,3.13,0,0,0-1.75-1.75c-.75-.25-1.13.13-.88.88A3.13,3.13,0,0,0,304.88,318Zm56.06-2.31c1.23,1.48,3,2,3,.93s-6.46-8.4-7.35-8.42c-.48,0-.58,1.13-.22,2.54.58,2.32.45,2.45-1.39,1.46-1.12-.6-2.07-1.63-2.12-2.3-.06-.93-.19-.93-.57,0-.56,1.38,3.27,7.27,4.72,7.27.51,0,.93-.68.93-1.5s.4-1.5.88-1.5a4,4,0,0,1,2.12,1.5Zm-70.09-1.11c1.22,1.46,6.09,2.8,6.09,1.67,0-1.46-2.53-3.06-4.82-3.06-1.95,0-2.2.26-1.27,1.39Zm-90.91.6c0,.74,15.43,1.23,16.18.51a59.86,59.86,0,0,1,7.82-.85c12.12-.86,16.84-1.78,17.47-3.42s-1.74-1.5-17.47.22c-1.92.21-6.42.65-10,1-9.82.9-14,1.66-14,2.57Zm-22.5-1.57c2.2.75,4.68,1.63,5.5,1.95a4.85,4.85,0,0,0,3.5-.6c2.08-1.22,5.6-1.92,21.33-4.25a89.44,89.44,0,0,0,11-2.08c.92-.38,7.3-.86,14.17-1.06s13.52-.64,14.75-1c2.39-.67,2.91-1.87,1.25-2.9-.55-.33-1-2.13-1-4,0-6.55-6.86-9.44-17.92-7.57a200.85,200.85,0,0,1-20.08,1.54c-22.46.71-32.3,1.52-33.81,2.77s-11.94,2-13.48,1,1.52-3.3,4.17-3.32a34.67,34.67,0,0,0,7.53-1.5,41,41,0,0,1,9.75-1.49c3.32,0,4.84-.41,4.84-1.3s-8.5-7.9-15.5-12.53a70.41,70.41,0,0,1-6-7.16c-4.39-5.76-6.92-8.28-8.54-8.53a7.55,7.55,0,0,1-5.82-4c-.62-1.37-1.9-2.48-2.83-2.48a6.06,6.06,0,0,1-3.38-1.54c-.94-.84-4.57-2-8.08-2.56-6.82-1.09-8.55-2-7.37-3.93.53-.86,3-1,8.93-.51,7.46.62,8.54.48,12.12-1.64,2.16-1.28,7.88-3.32,12.71-4.54,8-2,15.72-6.11,15.72-8.33,0-.44-1.54-1.31-3.42-1.93a12.32,12.32,0,0,1-4.62-2.58c-2.23-2.69,3.5-1.65,13.77,2.51,5.38,2.17,11,4.24,12.53,4.61a6.82,6.82,0,0,1,3.31,1.55,3.07,3.07,0,0,0,2.35.89c1,0,3.33,1,5.19,2.25,7.66,5.08,19,7.13,17.5,3.16-.71-1.86,1.39-1.8,4.1.1,1.48,1,2.37,1.16,2.83.43a1.78,1.78,0,0,1,2.1-.53,1.6,1.6,0,0,0,2-1c.7-1.81.27-2.36-2.27-2.94-3-.68-9.29-3.07-10-3.82a4.38,4.38,0,0,0-2.56-.68c-2.2,0-9.84-3.74-11.29-5.53-1.32-1.61-8.28-2.65-8.73-1.3-.31.91-8.75-2.4-17.11-6.71a13.4,13.4,0,0,0-5-1.46c-1.17,0-6.42-1.41-11.67-3.13s-10.12-3.28-10.82-3.48-1.06-1.23-.64-2.87c.53-2.13.28-2.52-1.59-2.52-1.55,0-2,.44-1.64,1.5.68,1.76-.42,1.83-5.86.38a54.39,54.39,0,0,0-6-1.3,69.92,69.92,0,0,1-12-3.56c-1.1-.47-4.47-1.58-7.5-2.47s-6.4-2-7.5-2.51c-6.86-3-15.63-2.75-16.87.5-1,2.73,1.64,5.29,7.83,7.43,3.32,1.15,7.39,2.73,9,3.51s6.6,1.93,11,2.56,8.45,1.52,9,2,3.25,1.11,6,1.47a55.21,55.21,0,0,1,7.5,1.49c1.38.45,5.11,1.4,8.3,2.1s6,1.65,6.31,2.11a3.12,3.12,0,0,0,2.33.83,4.82,4.82,0,0,1,3.18,1.63c1.22,1.48,1,1.59-2.13,1.14-9-1.29-18.67-3.09-20.49-3.8-2.67-1-15.65-3.88-22.5-4.92-8.21-1.25-16.51-3.75-21.78-6.55-2.59-1.38-5.41-2.5-6.27-2.5-1.82,0-5-6-5-9.42a2.7,2.7,0,0,0-1.81-2.82c-2.06-.54-12.67,1.39-13.79,2.5a5,5,0,0,1-2.88.74c-1.18,0-3.34,1.25-4.81,2.78-2.59,2.7-2.64,3-1.64,9.25s2.55,10.5,7.75,20.75c2.56,5,5,8,14.74,18.22,2.37,2.47,4.78,5.73,5.35,7.25s1.7,2.75,2.5,2.75,2.32,1.11,3.39,2.46c2.16,2.75,11.71,10.53,12.92,10.54.43,0,1.67,1.32,2.75,2.94a10.8,10.8,0,0,0,3.5,3.51,28.45,28.45,0,0,1,8.9,5.92c1.51,1.44,3.25,2.63,3.87,2.63s2,1.12,3.08,2.5,2.3,2.5,2.69,2.5c1,0,14.32,8.91,15,10.06a3.94,3.94,0,0,0,2.87.94,6.46,6.46,0,0,1,4.09,2,5.9,5.9,0,0,0,3.23,2,5.1,5.1,0,0,1,2.91,1.49,9.52,9.52,0,0,0,4.18,2,67.68,67.68,0,0,1,6.68,1.9Zm39.5-79.06c0,1.14-1.39.73-7.24-2.09-5.58-2.69-7.2-4.27-4.38-4.27,3,0,11.62,4.73,11.62,6.36Zm121.18,77.31a2.9,2.9,0,0,0,2.09,2.14c2.38.46,2.19-1.05-.35-2.63-1.84-1.15-2-1.09-1.74.49ZM331.89,314c1.55.23,2.14-.09,1.84-1a3.56,3.56,0,0,0-2.72-1.67c-1.55-.22-2.14.1-1.85,1A3.53,3.53,0,0,0,331.89,314Zm-8.94.17a1,1,0,1,0-1-1A1,1,0,0,0,323,314.16Zm128.68-4.29a2.37,2.37,0,0,0,.26,2.19c.61,1,1,1,1.55.12a1.89,1.89,0,0,0-.27-2.2c-.56-.56-1.24-.61-1.54-.11ZM344,310.66c.55.34,1,.14,1-.44a1,1,0,0,0-1-1.06c-.55,0-1,.19-1,.44S343.4,310.32,344,310.66Zm-42.27-1.5a6.44,6.44,0,0,0,2.37,2c1.13,0,3.09-2.88,2.56-3.75-.4-.63-4.83-.87-6.4-.33-.14,0,.53,1,1.47,2.08Zm162.18-2.11c-1,2.45-.78,3.63.42,2.44a4.7,4.7,0,0,0,.6-2.75c-.06-1.92-.14-1.89-1,.31Zm-181,1.71a98.87,98.87,0,0,1,10.13.92c.29.17,1.52-.72,2.74-2,3-3.14,1.51-4.23-8.43-6.1-4.31-.81-10.09-1.91-12.84-2.45a76.39,76.39,0,0,0-10.5-1.11c-3-.08-6.06-.59-6.74-1.12-1.93-1.53-4.26-.07-4.26,2.66a9,9,0,0,0,2.25,5c2.4,2.67,2.12,2.63,27.65,4.22Zm148.54-1.07c3.72,2.81,7.93,1.11,9.08-3.67.93-3.84-1.09-4.4-3.17-.88-1.35,2.28-2.52,3-4.82,3.05-2.88,0-2.94.1-1.09,1.5Zm-115.47,1.47c.53,0,.71-.68.39-1.5s-.75-1.5-1-1.5-.39.67-.39,1.5S315.37,309.16,315.91,309.16ZM499,307.47c2.52.65,6.67-3,5.14-4.5-1.07-1.07-7.21,1.57-7.21,3.1C496.94,306.54,497.87,307.17,499,307.47Zm-10.68-.31c.22,0,.65-.68,1-1.5s.14-1.5-.39-1.5-1,.67-1,1.5S488.12,307.16,488.33,307.16ZM337.52,304c-.31.49.11,1.46.93,2.14,1.21,1,1.49.94,1.49-.33,0-1.87-1.63-3.09-2.42-1.81Zm21.1-.73a29.71,29.71,0,0,0,7.32,1.46l4.5.31L368,303.19c-1.36-1-2.81-1.67-3.22-1.41s-1.89-.28-3.28-1.19a6.46,6.46,0,0,0-5-1c-2.37.59-3.58,2.59-1.58,2.59a16,16,0,0,1,3.75,1.14Zm-32.09,1.86c.79,0,1.11-.63.77-1.5a2.88,2.88,0,0,0-2.59-1.5c-1.68,0-1.81.25-.77,1.5A4.15,4.15,0,0,0,326.53,305.16Zm162.85-2c.24,0,.72-.45,1.06-1s.14-1-.44-1a1,1,0,0,0-1.06,1C488.94,302.71,489.14,303.16,489.38,303.16Zm-182.94-2a14.37,14.37,0,0,0,4.13,1.32c3,.56,3.08.48,2.05-1.71a11.64,11.64,0,0,0-4.12-4c-3-1.7-3-1.78-1.05-3.22s2-1.48.05-2.91c-2.25-1.66-4.56-1.88-4.56-.43,0,.55-.68,1-1.5,1s-1.5-.42-1.5-.94-.81-1.19-1.8-1.5-5-3.68-9-7.47c-7.06-6.79-7.23-6.89-10.95-6-3.91.91-13.7-.75-21.5-3.65-3.19-1.18-3.9-1.17-5.17.1a5,5,0,0,1-2.35,1.48c-1.94,0-6.3,2.59-6.72,4-1.32,4.45-1.45,8.64-.31,10,1.92,2.37,11.4,5.64,19.76,6.83,4.12.58,9.07,1.3,11,1.59s5.56.74,8.08,1a35.69,35.69,0,0,1,7.32,1.5,52.37,52.37,0,0,0,9.91,1.67c3.95.35,7.64,1,8.19,1.36Zm125.23.41c1.21,1.21,2.34.53,3.29-2,1.25-3.29,1.24-3.43-.36-3.43s-3.89,4.44-2.93,5.4Zm-102.51-.4c1.41,0,1.81-.47,1.39-1.59a9.87,9.87,0,0,1-.61-2c0-.23-.86-.41-1.91-.41-1.41,0-1.77.51-1.38,2A2.67,2.67,0,0,0,329.16,301.16Zm17.67-4.3c-.71.72-.73,1.28-.05,1.7a1.24,1.24,0,0,0,1.69-.45c.95-1.54-.35-2.53-1.63-1.25Zm70.05,1.3c1.18,0,2.44-2,1.73-2.67s-2.67.55-2.67,1.73A1,1,0,0,0,416.88,298.16ZM338,296.41c0,1.38,2,.76,2.51-.75,1.47-4.69,1.42-4.91-.5-2.5a10.86,10.86,0,0,0-2,3.25Zm173.79-3.47c-.65.65-.95,1.42-.67,1.7.67.67,1.85-.52,1.85-1.85,0-.63-.46-.57-1.18.15ZM401,289.78c.11,2.81,1.39,5.58,2.21,4.76,1.22-1.21.8-4.07-.78-5.38-1.24-1-1.49-.93-1.43.62Zm-9.07,1.75c0,3.42.83,4.47,2.33,3,1.17-1.17.72-4.05-.83-5.33-1.29-1.07-1.5-.73-1.5,2.37Zm-6.68.12c.18,3.45,1,4.42,2.15,2.55.77-1.23-.44-6-1.51-6-.45,0-.74,1.57-.64,3.49Zm-60.85.46c.47.77,8.53,1.13,8.53.39a6.37,6.37,0,0,0-2.52-1.35c-2.06-.78-2.41-1.42-1.9-3.45s.14-2.7-2.23-3.71a22,22,0,0,1-4.54-2.63,3.66,3.66,0,0,0-3-.93c-.72.26-3.33-.59-5.81-1.88-7.19-3.76-13.73-6.39-15.89-6.39a3.42,3.42,0,0,1-2.61-1c-1.11-1.81-5.35-1.06-6.95,1.22-1.44,2.06-1.41,2.28.34,2.93a5.94,5.94,0,0,1,2.57,1.78,2.79,2.79,0,0,0,2.16,1.07c1.87,0,12.06,4.81,15.27,7.21a8.88,8.88,0,0,0,4.12,1.79,4.38,4.38,0,0,1,2.93,1.42c.64.78,2.95,1.72,5.11,2.09s4.16,1,4.42,1.44Zm131.53.05c.55,0,1-.68,1-1.5s-.45-1.5-1-1.5-1,.67-1,1.5S455.38,292.16,455.93,292.16Zm-261.51-4.68c1.83,1,18.23,2.63,19,1.84a56.75,56.75,0,0,1,8.16-.61c15.55-.56,14.06-.12,14.58-4.3.69-5.63-.59-8-5-9.15-7-1.88-9.79-2.43-11-2.23a10.19,10.19,0,0,1-4.2-1.33,18.08,18.08,0,0,0-7-1.54,32.69,32.69,0,0,1-8.3-1.39c-2.36-.77-5.41-1.66-6.79-2a25.83,25.83,0,0,1-6-2.79,12.51,12.51,0,0,0-6.53-2,15.93,15.93,0,0,1-5.8-.82c-4-1.53-9.17,1.13-7.65,4,2.69,5,16.41,16.59,26.47,22.3Zm295.45.68a1,1,0,0,0,1.06-1c0-.55-.2-1-.44-1s-.72.45-1.06,1S489.29,288.16,489.87,288.16Zm-191.36-1.65c.65,1.7,3.42,2.32,3.42.77,0-1.16-2.91-3.55-3.55-2.91-.28.28-.22,1.24.13,2.14Zm106.42-.92c0,1,1.55.62,2.8-.63,1.44-1.44,1.59-3.8.24-3.8-.9,0-3,3.13-3,4.43Zm-25-1.93c.55.34,1-.09,1-.94s-.45-1.56-1-1.56a1,1,0,0,0-1,.94A2.16,2.16,0,0,0,379.93,283.66Zm47-3c.55.34,1-.09,1-.94s-.45-1.56-1-1.56a1,1,0,0,0-1,.94A2.16,2.16,0,0,0,426.93,280.66Zm-76.86-.39c1.86,1.18,3.86,1.1,3.86-.14,0-1.4-2.63-2.32-4.06-1.44-.84.52-.79.95.2,1.58Zm-15.25-3.51a13.48,13.48,0,0,1,5.34,2.16c1.55,1.35,1.79,1.34,2.34-.08.85-2.22-.23-3.58-2.4-3-2,.53-7.17-5.32-7.17-8.12,0-1.69-2.42-2.89-10.5-5.21l-10.5-3a39.16,39.16,0,0,0-7.5-1.56c-2.75,0-15.55-2.47-16.26-3.18-1-1,.61-1.86,3.49-1.88,3.21,0,10.41.85,18.27,2.23,11.08,1.94,13,2.52,19.15,5.7,4,2.09,5.85,1.75,5.85-1.1a2.74,2.74,0,0,0-2.41-3.09,4.27,4.27,0,0,1-3-3c-.63-2.51-2-3.14-3.07-1.41-.34.55.08,1,.94,1s1.56.45,1.56,1a1.13,1.13,0,0,1-1.25,1c-2.25,0-3.83-1.61-3.21-3.22.45-1.17-.24-1.75-2.72-2.26a100.33,100.33,0,0,1-10.82-3.5c-9.66-3.64-17.4-6-19.69-6a12.52,12.52,0,0,1-4.81-1.8,38.24,38.24,0,0,0-8.67-3.14c-7.06-1.66-8.7-2.58-7.22-4.06.78-.79,2.17-.69,5,.35a127,127,0,0,0,24.4,6.72c6.9,1.23,28.11,8.49,29,9.92a1.43,1.43,0,0,0,2,.54c.66-.4,1.75,0,2.46,1,1.1,1.51,1.34,1.54,1.86.2.64-1.69-4.31-6.74-6.61-6.74a15.27,15.27,0,0,1-4.55-1.6,90.23,90.23,0,0,0-11.9-3.92c-17.22-4.61-21.85-6.48-21.47-8.65.26-1.49-2.67-2.81-18.6-8.38-1.07-.37-1.11-.79-.17-1.92,3.1-3.74-2.21-7.53-7.65-5.46a19.89,19.89,0,0,1-3.07,1c-1.44-.41-2.1.43-2.52,3.18-.6,4,.86,7.12,2.93,6.32,1.2-.46,1.37,0,.86,2.35-.48,2.18,0,4,1.95,7,2.55,4,6.15,6.31,12,7.55,2.19.47,2.58.86,1.54,1.5a3.07,3.07,0,0,1-2.84.06c-1.28-.72-5.15-.34-5.15.51,0,2,2.72,5.43,4.27,5.43s1.82.48,1.36,2.34c-.51,2-.22,2.36,2.19,2.43,3.08.09,10.85,2.87,13.18,4.73,1.91,1.52,10.32,5.5,11.62,5.5a3.76,3.76,0,0,1,2.1,1.12c1.1,1.09,12.07,5.86,13.51,5.87a51.81,51.81,0,0,1,6.89,3,49.14,49.14,0,0,0,9.77,3.62Zm-48.89-26.62c0,1.1-4.93,1-5.62-.18a1.29,1.29,0,0,1-.1-1.42c.71-.7,5.72.7,5.72,1.6Zm-22.27-32.59c.33.33-.26.57-1.31.53s-1.41-.29-.61-.61a2,2,0,0,1,1.92.08ZM373.6,268.34c-.67,5.61.25,7.83,2.24,5.43,1.46-1.76,1.06-9.81-.51-10.32-.67-.22-1.36,1.72-1.73,4.89Zm-16.67,5.26c0,1.75.6,2,1.46.63a1.14,1.14,0,0,0-.44-1.56c-.56-.35-1,.07-1,.93Zm41-3.37c0,1.48,2.63,4,3.38,3.21,1-1,.71-2.45-.38-1.78-.55.34-1-.09-1-1s-.45-1.55-1-1.55a1,1,0,0,0-1,1.07Zm-161.42,3.06c2,3.18,11.63-3.19,9.77-6.44-1.33-2.32-16.84-13.8-24.2-17.91s-10.78-4.67-12.69-2.06c-.72,1-3.8,2.22-7.11,2.86a57.58,57.58,0,0,0-7.6,1.88c-1,.43-1.75.32-1.75-.27s2.14-1.81,4.75-2.77c6.38-2.34,9-4.79,7.33-6.83a8.34,8.34,0,0,0-3.42-2.17,12.71,12.71,0,0,1-3.66-1.92c-2.71-2.27-12.05-2.5-16.21-.39a18.34,18.34,0,0,1-4.92,1.89,5.67,5.67,0,0,0-2.88,1.5c-.92.83-4.78,2.52-8.58,3.75-6.59,2.14-6.89,2.38-6.6,5.13a8.34,8.34,0,0,0,1.66,4.23,8.35,8.35,0,0,1,1.69,2.29c.19.52,5.19,1.15,11.12,1.4,9.79.41,10.88.28,11.79-1.43a3.42,3.42,0,0,1,2.47-1.87c1.9,0,1.85.91-.2,3.17-.91,1-1.47,2-1.23,2.27.51.51,22.63,6.39,28.39,7.54,2.2.45,6.48,1.53,9.5,2.42s7,1.9,8.77,2.24,3.52,1,3.81,1.49Zm-45.64-20.13c-.58,0-.78-.45-.44-1s.82-1,1.06-1,.44.45.44,1A1,1,0,0,1,190.87,253.16Zm156.6,16.08a12,12,0,0,0,1.82,2.92c1,0,1.64-1.71,1.64-4.28,0-2.27.36-2.8,1.58-2.33a9.28,9.28,0,0,0,2.5.61c.5,0,.95,1,1,2.25.06,2.11.11,2.13.84.26.89-2.26.32-5.25-1.16-6.17a17.8,17.8,0,0,0-5.13-.89c-2.27-.16-4.57-.37-5.12-.49-3.18-.65-5.5.18-5.5,2,0,1.32.94,2.12,3,2.58a6.72,6.72,0,0,1,4.52,3.58Zm-80.23,1.69a24.86,24.86,0,0,1,6.19.35c2.92.85,6.24,0,6.92-1.79.77-2-6.45-9.33-9.18-9.33a4.79,4.79,0,0,1-3.24-1.5c-1-1.26-.9-1.5.82-1.5a3.57,3.57,0,0,1,2.71,1c.44.72,1.09.69,2.05-.11,1.17-1,1-1.47-1-3a9,9,0,0,0-3.37-1.88,4.23,4.23,0,0,1-2.27-1.57,3.44,3.44,0,0,0-3.43-1c-1.3.33-3.47-.36-5.57-1.78-6.44-4.35-14.89-6.33-18.2-4.26a20,20,0,0,1-6,2.07c-2.13.37-3.75,1.23-3.75,2,0,2.47,26.23,20.58,29.8,20.58a3.56,3.56,0,0,1,2.7,1c.34.55,2.51.9,4.81.77Zm-7.37-16a3.11,3.11,0,0,1-1.75-1.75c-.25-.75.12-1.13.87-.88a3.13,3.13,0,0,1,1.75,1.75C261,254.84,260.62,255.22,259.87,255Zm-4.94-3.21c0,.81-1.91.36-2.5-.59-.35-.57.06-.74.95-.4s1.55.78,1.55,1Zm-4-1.63a1.12,1.12,0,0,1-1.25,1c-1.65,0-5.26-2.79-4.57-3.48s5.82,1.32,5.82,2.49Zm135.89,21c1.17,0,2.27-2.92,1.55-4.09-1.09-1.77-2.44-.88-2.44,1.59C385.93,270,386.33,271.16,386.82,271.16Zm-48.08-2.69c-.8.32-.56.56.6.61s1.65-.2,1.32-.53a2,2,0,0,0-1.92-.08Zm-38.69.69c.55,0,.72-.45.38-1a2.19,2.19,0,0,0-1.62-1c-.55,0-.72.45-.38,1A2.19,2.19,0,0,0,300.05,269.16Zm-14.42-2.75c.59,3.06,1.22,3.33,3,1.28,1-1.1,1.83-1.15,4.21-.25,3.49,1.31,5.37.14,2.8-1.74-1.62-1.18-9.62-3-10.28-2.33a8.45,8.45,0,0,0,.25,3Zm107.56-1.21c1.41,2.25,3.74,2.61,3.74.58,0-1.83-2.65-4-3.93-3.16-.68.42-.62,1.29.19,2.58Zm-28.26-2.54c1.58,1.9,2.43,1.89,4.07-.09s0-4.86-3.08-4.89c-1.27,0-2.5-.59-2.73-1.27-.5-1.48,1.17-1.63,3.61-.32a3.41,3.41,0,0,0,3,.13c.95-.58.61-1.31-1.3-2.82-1.43-1.12-2.59-2.91-2.59-4,0-1.36-1.64-2.74-5.5-4.63-5.85-2.87-7.14-4.26-2.95-3.21,4.4,1.1,4.71-.49.76-4a21.53,21.53,0,0,0-9.06-4.56c-5.74-1.33-7-2.89-2.28-2.89,2.27,0,2.83-.37,2.38-1.55-.7-1.82-9.44-6.45-12.16-6.45a39,39,0,0,1-7.78-2.08c-8.91-3.12-10.41-3.37-10.41-1.73,0,3.22,5.5,6.51,14.75,8.85,5.09,1.28,9.25,2.75,9.25,3.26,0,.92-.59.83-8.47-1.18-2.18-.56-4.11-.88-4.27-.71-1.14,1.13,1.74,3.83,6.57,6.16l7.46,3.62a3.44,3.44,0,0,0,2.73.29c1.23-.75,5.19,1.37,4.53,2.43-.27.45-1.64.6-3,.34-4.1-.79-2.9,1.21,2.22,3.71,4.88,2.37,10.25,6.72,10.25,8.29,0,1.34-4.11-.2-7.68-2.87a12,12,0,0,0-5.5-2.4c-3.21,0-5-1.35-4.29-3.2.42-1.08-.82-2.51-4-4.67-2.54-1.71-5.05-3.11-5.57-3.11a.92.92,0,0,1-.95-.87c0-.48-2.81-3-6.25-5.54-4.23-3.17-7-4.55-8.49-4.28-2.07.37-2.19.12-1.64-3.32s.28-4-2.86-6.36c-1.89-1.45-4.08-2.65-4.85-2.67-1,0-.82-.47.53-1.49,1.91-1.45,1.91-1.5-.21-3.47a7.86,7.86,0,0,0-3.94-2.08c-3-.13-8.27-2.36-8.13-3.42.07-.55-2.07-1.55-4.76-2.21-7.74-1.91-15.32-4.13-16.4-4.8a2.8,2.8,0,0,1-1-2.18c0-1.31.81-1.46,4.75-.89,2.61.37,5.61.68,6.66.68a9.94,9.94,0,0,1,4,1.16,21.7,21.7,0,0,0,7.16,1.39,53.72,53.72,0,0,1,12.69,1.86,4.92,4.92,0,0,0,4.26-.53c.93-.77,3-1,5.49-.71,3.45.46,4,.28,4-1.37,0-2.36,2.13-2.43,6.3-.18,3.18,1.71,3.19,1.72.7,2.08a7.81,7.81,0,0,0-3.32,1.15c-1.54,1.48,4.23,4.77,10.52,6a44.81,44.81,0,0,1,9,2.64c1.81.93,2.92,1.05,3.35.36.89-1.44-2.4-6.22-3.89-5.64-1.74.66-5.08-1.92-3.63-2.82.77-.48.56-1.32-.69-2.71-2.14-2.37-5.55-3.87-10.09-4.43a19,19,0,0,1-6.5-2.46L322.43,188l3,.52c1.65.29,4.35.84,6,1.23l3,.7L331.88,188a15.29,15.29,0,0,1-3.17-4,4.58,4.58,0,0,0-3.2-2.09c-2.62-.5-3.61.65-1.33,1.55.69.27-.38.26-2.37,0-3.43-.49-6,.89-4,2.14.51.31.68,1.5.38,2.63-.36,1.39.16,2.55,1.6,3.56,1.17.82,2.13,2,2.13,2.7,0,1.7-6.71,1.24-8.81-.61a12.68,12.68,0,0,0-3.94-2.16c-1.24-.38-2.25-1.15-2.25-1.72a11.91,11.91,0,0,0-2.07-3.93c-1.46-2.05-2.91-2.9-4.94-2.9-3.07,0-4.72-1.43-2.93-2.54,1.4-.87-2.78-5.46-5-5.47-2.69,0-11.74-4.67-12.4-6.38-.34-.89-1.13-1.61-1.75-1.61s-.87.71-.51,1.64c.55,1.43,0,1.54-4.15.88-2.62-.41-6.56-.81-8.75-.89-2.93-.1-4.07-.6-4.32-1.88s.29-1.75,1.8-1.75a5.65,5.65,0,0,0,3.49-1.35c1.41-1.41,5.39-1.5,9.38-.21,1.77.57,2.25.43,1.92-.57-.51-1.53-9.55-3.4-22-4.57-5.41-.51-5.75-.42-5.75,1.65a6.05,6.05,0,0,0,1.5,3.69,7,7,0,0,1,1.5,4.32c0,3.69,4.57,19.39,6.77,23.26.95,1.66,2.32,4.1,3,5.4s1.67,2.38,2.13,2.38,1.1.78,1.44,1.75a53.09,53.09,0,0,0,2.87,5.75c2.47,4.37,6.39,5.89,8,3.09,1-1.71,4.79-2.22,4.79-.64,0,.52-.71,1.34-1.58,1.83-1.34.75-1.19,1.14,1,2.58a24.54,24.54,0,0,0,6.83,2.62c2.33.5,7.16,1.63,10.73,2.52,8,2,14.26,3.4,15.25,3.45.41,0,.75.55.75,1.15s-.94.88-2.35.52-2.63-.3-3,0c-.83.83,6.39,6.27,8.38,6.31a4.28,4.28,0,0,1,3.95,4c0,.92,1.52,2.21,3.5,3a18.45,18.45,0,0,1,5.68,3.68c1.19,1.28,2.79,2.32,3.55,2.32s4.28,2,7.82,4.5,6.89,4.5,7.45,4.5a.93.93,0,0,1,1,.83c0,1.22,10.38,8.17,12.2,8.17a4.26,4.26,0,0,1,2.8,1.5Zm-38-26.66c-1.37,0-1.94-.23-1.25-.51a4,4,0,0,1,2.5,0C328.87,235.77,328.31,236,326.93,236Zm-22-22.86a3.37,3.37,0,0,1-3.16,0,10.72,10.72,0,0,0-4.24-.93c-1.38,0-2.81-.49-3.18-1.09-.47-.76,1.07-.87,5.19-.37,6.58.79,7.43,1.18,5.39,2.44Zm-16-9c-1.17-.76-.89-1,1.25-1,1.51,0,2.75.44,2.75,1C292.93,205.42,290.89,205.42,288.93,204.16Zm52.5-4h-3.14c-1.88,0-3.38-.6-3.72-1.49-.73-1.9.37-1.9,4,0Zm-36.5-10.68c0,.85-2.58.61-10.42-1-2.49-.5-2.66-.73-1.19-1.55,2-1.1,11.61,1,11.61,2.5Zm-17-2.46c-1.37,0-1.94-.23-1.25-.51a4,4,0,0,1,2.5,0C289.87,186.77,289.31,187,287.93,187Zm5.44-5.74c-.7,1.13-3.52,1.13-5.3,0-2-1.27.24-2.31,3.31-1.54,1.4.35,2.29,1,2,1.53Zm-8.13-.74c-.94.93-3.76.78-4.86-.27a7.8,7.8,0,0,0-2.95-1.38c-1.1-.26.11-.53,2.69-.6,4.43-.11,6.55.82,5.12,2.25Zm99.87,79.88a3.13,3.13,0,0,0,2.11,2.58c1.45.27,1.67-.13,1.17-2.13-.74-2.93,1-4.4,3.11-2.64s2.76.48,1-2.85c-2.19-4.24-7.41-9.2-9.68-9.2-2.5,0-2.46,2.55.08,4.73a5.56,5.56,0,0,1,2,3.29,4.56,4.56,0,0,0,1.2,2.78c.93.93.92,1.2-.07,1.2-.74,0-1.14.92-.95,2.24Zm-102.18.33c0-1.28-3.44-3.57-5.32-3.54-2.18,0-2.18,0,.18,2C279.9,261,282.93,261.85,282.93,260.73Zm90.25-1.91c1.4.89,7.75,1.13,7.75.3,0-1.22-5.94-3.92-7.41-3.36-1.91.73-2,2-.34,3.06Zm-32.31-1.66a13.12,13.12,0,0,1,3.23.42,4.59,4.59,0,0,0,2.62-.1c1.89-.76-.3-3.09-4.58-4.88-5.55-2.32-6.54-2-4.71,1.56.9,1.73,2.35,3,3.44,3Zm32-5.19c.75.25,1.12-.13.87-.88a3.11,3.11,0,0,0-1.75-1.75c-.75-.25-1.12.13-.87.88A3.13,3.13,0,0,0,372.87,252Zm-7.54-9.68c2.77,3.16,6.13,4.44,7.19,2.73.47-.77-.63-2.42-2.93-4.42s-3.48-3.74-3.11-4.71c.92-2.39-8.69-8.92-10-6.81-.75,1.21,3.14,5.84,5.52,6.6,1.29.41,1.84,1.24,1.51,2.31-.27.92.54,2.85,1.82,4.3Zm12.55-.66c3.29,1.7,6.05,2,6.05.64,0-1.08-3.7-3.57-6.75-4.54-3.44-1.09-2.88,2.05.7,3.9Zm-.44-7.48c.94-1.52-2.1-5.2-5.48-6.62s-4.18-.14-1.78,2.76C372.29,232.84,376.77,235.22,377.44,234.15Zm-62.06.17a5.23,5.23,0,0,0,3,.81c1.92,0,1.89-.14-.45-2-3.55-2.81-15.61-8.44-21.45-10a54.3,54.3,0,0,1-9.3-3.65c-4.76-2.53-9.67-3.11-9-1.06.52,1.61,10.56,6.75,12.09,6.2,2.56-.92,11.17,2.14,12.15,4.33.71,1.59,2.47,2.49,6.5,3.35,3,.65,5.95,1.56,6.47,2Zm40.1-9.29a10.55,10.55,0,0,0,3.67,1.51c2.13.5,2.61.32,2.17-.81-.71-1.86-4.83-4.57-6.94-4.57-.89,0-1.41-.57-1.16-1.25a1.48,1.48,0,0,1,1.59-1c.62.13,1.12-.6,1.12-1.63,0-2.58-5.69-6.68-10.28-7.41a28.42,28.42,0,0,1-6.87-2.14c-1.7-.85-3.45-1.32-3.89-1-1.72,1.06,2.21,6.25,6,8,2.2,1,4,2.27,4,2.84,0,1.91,5.34,6.66,7.49,6.66a5.35,5.35,0,0,1,3.06.87ZM349.37,220c-1.53-.18-3-.92-3.22-1.65-.31-.94.38-1.23,2.35-1,1.53.18,3,.92,3.21,1.65C352,219.92,351.33,220.21,349.37,220Zm17.21,2.72c2.65,2.47,4.45,3,5.68,1.79,1.92-1.91-2.15-6.33-5.83-6.33-3.22,0-3.17,1.47.15,4.54Zm-37-5.76c2.58,1.33,9.32,2.25,9.32,1.28,0-2.07-5.25-4.35-12.67-5.53-5.34-.84-8.33-1.76-8.33-2.55,0-1.73,1.73-1.84,6-.38,5.77,2,7.62.43,3.75-3.16-1.49-1.39-2.72-3-2.72-3.48s-1.55-1-3.44-1c-3.62,0-7.13,3.27-5.8,5.41a7.72,7.72,0,0,1,.39,3.75c-.31,3,.84,3.61,7.63,4.28a21.65,21.65,0,0,1,5.9,1.34Zm34-7.81-4.21-6.75c-2.22-3.57-3.95-4.1-4.94-1.51-.43,1.12.1,2.27,1.55,3.37,1.21.91,2,2.3,1.66,3.08-.65,1.68.8,3.78,4.2,6.13C366.54,216.64,367.24,214.89,363.64,209.13Zm-213.59-2c1.1,0,1.72-.45,1.38-1a3.41,3.41,0,0,0-2.61-1c-1.1,0-1.73.45-1.39,1A3.43,3.43,0,0,0,150.05,207.16Zm158.89-5.37c0-.84-1.63-1.6-4.25-2-2.34-.35-5.38-.89-6.75-1.21s-.34.57,2.31,2C305.57,203.42,308.94,203.89,308.94,201.79Zm-214-2.63a1,1,0,1,0-1-1A1,1,0,0,0,94.93,199.16Zm249.5-7.28c5.18,4.45,7.12,4.93,7.87,1.93.6-2.38-1-6.71-4.38-11.65a19.9,19.9,0,0,1-2.39-5.38,25,25,0,0,0-3.15-6.48,16.78,16.78,0,0,1-2.45-4.55,6.21,6.21,0,0,0-1.6-2.71c-1.26-1.39-2-1.53-3.37-.67s-2.77.71-5.92-.55c-4.86-1.95-5.11-2-5.11-.66,0,.55.9,1,2,1s2,.66,2,1.77a5.67,5.67,0,0,0,2,3.49,6.62,6.62,0,0,1,2,5.05,7.36,7.36,0,0,0,2.49,5.67c2,1.89,2.25,2.62,1.28,3.79s-.62,1.94,1.89,4.09l6.84,5.86ZM341.7,182c.22.65-.31,1.19-1.19,1.19a1.59,1.59,0,0,1-1.58-1.59c0-1.76,2.15-1.45,2.77.4Zm-36.77-1.05c1.93,1.23,4.06,2.23,4.75,2.23,1.79,0,1.55-2.67-.31-3.38-2.39-.92-.69-2.61,2.62-2.61,1.62,0,2.94-.42,2.94-.94,0-1.14-5.38-5.06-6.95-5.06a22.5,22.5,0,0,1-5.35-2.07c-4.81-2.37-14.7-3.81-14.7-2.15s4.95,5.22,7,5.22a9.14,9.14,0,0,1,4.27,2,9.36,9.36,0,0,0,4.58,2c3.17,0,3.52,1.82.42,2.2l-2.77.33,3.5,2.23Zm13.81-8.4c6.81,4.72,9.54,2.58,4.73-3.72-1.63-2.15-2.27-4-1.88-5.44s.12-2.2-.59-2.2-1-.73-.86-1.62c.31-1.72-.66-2.4-6.21-4.34-7.34-2.55-7.29-2.55-6.51.06,1.19,4,3.45,6.9,5.34,6.9,2.21,0,7.15,2.24,7.16,3.25,0,.41-1.11.75-2.49.75-3.82,0-3.15,3.27,1.31,6.36Zm-16.65-5.91c7,1.92,6.84,1.93,6.84-.33,0-3-7.05-7.48-13.58-8.7a27.67,27.67,0,0,1-6.33-2.06c-3.61-1.88-8.09-1.77-8.09.2,0,3.39,2.08,5.26,7.23,6.49a43.46,43.46,0,0,1,6.77,2.06,56.34,56.34,0,0,0,7.16,2.34Zm28.31-9.07c2.78,1.83,3.53,2,3.53.77s-3.43-4.15-4.83-4.15c-2,0-1.31,1.67,1.3,3.38Zm-61.47.33c3.1,1.13,6.92,1.22,7.57.18.37-.6-.29-2.38-1.47-4l-2.13-2.89,2-2c1.66-1.66,1.81-2.42.91-4.4-1.33-2.92-7.7-4.4-21.63-5.06-7.3-.34-9.25-.14-9.25.92,0,.74,1.46,1.64,3.25,2,5.51,1.11,6.75,1.6,6.75,2.68,0,.61-1,.78-2.49.42-2.9-.73-6.51,1.19-6.51,3.46,0,3.44,2.58,5,10.52,6.54,4.39.83,8.66,1.52,9.48,1.54a11.29,11.29,0,0,1,3,.58Zm2-7.81c0,.49-1.8.83-4,.75s-3.85-.6-3.67-1.15,1.64-.94,3.25-.85c4.25.21,4.41.26,4.41,1.25Zm28,6.32c0,.42.9.78,2,.78,2.74,0,2.52-2.44-.54-5.87-2.06-2.31-3.65-3-8.32-3.46a30.24,30.24,0,0,1-8.71-2.14c-2.68-1.4-3-1.38-4.23.22s-.94,2.06,1.26,4a14.94,14.94,0,0,0,6.3,2.82c6,1,12.24,2.85,12.24,3.7Zm10.56-5.52c9.52,2.69,9.44,2.68,9.44.63,0-1.27-2.08-3.13-6.25-5.6l-6.25-3.71,3.5-.05,3.5,0-3-2.45c-3.14-2.57-17.15-8.15-18.09-7.21-1.44,1.43,2.7,5,8.09,7l6,2.22-3.79.5-3.79.5,2.85,3.4a15,15,0,0,0,7.79,4.8ZM324,149.18a8.66,8.66,0,0,0,3.39,1c2.33,0,2-4.7-.44-6a4.09,4.09,0,0,1-2-3.79c0-1.49-2.07-7-4.63-12.21s-5-10.18-5.37-11a201.91,201.91,0,0,0-10-18.5c-1.46-2.2-3.88-5.93-5.36-8.29s-3.69-4.7-4.91-5.19a24.47,24.47,0,0,1-5.21-3.47l-3-2.58,2.75.62c3.14.71,3.29.35,1.35-3.4-2.37-4.58-4.72-6-9.52-5.85s-6.51,2.12-2.91,3.61a23.63,23.63,0,0,1,4.83,3c2.46,2,2.47,2,.31,2a3.81,3.81,0,0,0-2.7.86c-1,1.67,3.92,7,7.51,8.08,4.84,1.45,6.75,3.68,3.93,4.57-2,.65-3,4.52-1.07,4.52.54,0,2.07,2.13,3.4,4.75a47.86,47.86,0,0,0,5.48,8.25,18.16,18.16,0,0,1,3.65,6.07c.72,3.23,6.16,9.93,8.06,9.93s1.83,1.39.22,4c-1,1.64-.84,2.35,1.25,4.61a22,22,0,0,0,6,4.25c3.05,1.37,3.22,1.62,1.32,1.93l-2.18.36,2,3.46a14.16,14.16,0,0,0,3.87,4.44Zm-38.55-5.87c3.3.9,7,2,8.25,2.36,3.3,1.06,2.83-1-1.14-5-5.47-5.46-14.63-7.23-14.59-2.81,0,2.87,1.14,3.69,7.48,5.43Zm-20-5.17c2.75.58,5.75,1.28,6.67,1.57,2.54.81,2.92-.86,1-4.63s-3.87-4.46-18.8-5.42c-7.52-.48-9.32-.31-10.4,1-.92,1.12-1,2.19-.31,3.76.87,2,1.83,2.23,8.89,2.45a93.36,93.36,0,0,1,12.91,1.29Zm16.42-5.6a12.47,12.47,0,0,0,3.83,2.07c2,.6,2.25.33,2.25-2.35,0-2-.67-3.39-2-4.1-1.1-.59-2-1.65-2-2.36,0-2.08-4.73-6-6.45-5.3-.85.33-1.55,1-1.55,1.47,0,1.47,3.81,4.42,4.87,3.77a1.18,1.18,0,0,1,1.62.4c.38.61-.65,1-2.54,1-2.47,0-3,.34-2.56,1.58a9.87,9.87,0,0,1,.61,2c0,.23.53.42,1.17.42a5.45,5.45,0,0,1,2.75,1.38Zm21.73,0c3.65,1.9,4.35,2,4.35.68,0-2.55-3.52-7.85-6.63-10-2.34-1.61-3.07-2.62-2.26-3.12s.94-1.39,0-3.62c-1.49-3.6-3.62-4.93-13.41-8.35-8.29-2.91-10.22-4-7.21-4,1.65,0,1.6-.26-.51-2.5-1.29-1.38-3.18-2.5-4.2-2.5-2.56,0-3.55,3-1.4,4.2,1.31.73,1.45,1.28.58,2.32-1.89,2.28,2.46,7.13,7.07,7.87,4.41.7,5.66,2,3.88,4.2-1,1.22-.88,2,.76,4.2a15,15,0,0,0,4.24,3.84,16.38,16.38,0,0,1,3.36,2.25,4.75,4.75,0,0,0,2.92,1.12c1.82,0,2.57.3,8.45,3.35Zm-9.21-12.39a7.64,7.64,0,0,1-4-1.43c-1.91-1.45-1.91-1.47.12-1.5a7.73,7.73,0,0,1,4,1.43C296.4,120.07,296.4,120.09,294.37,120.12Zm-8.64-16.6c2.1,1.45,4.32,2.64,4.95,2.64,2.08,0,2.35-1.91.54-3.81s-3.76-5.16-7-11.44a6.46,6.46,0,0,0-4.1-3.28c-1.47-.29-7.18-1.6-12.68-2.91s-10.36-2.15-10.81-1.87c-1.05.65,2.22,4.31,3.84,4.31a4,4,0,0,1,2.45,1.47c1.26,1.52,7.71,4.8,16.52,8.41,2.75,1.13,4.44,2.07,3.75,2.08-2.27.06-1.3,1.73,2.55,4.4Zm-2.8-35.95a1.59,1.59,0,0,0,1.58,1.59c1.77,0,1.46-2.16-.39-2.77-.65-.22-1.19.31-1.19,1.18ZM272.39,64c.8,2.51,1.83,2.69,3.54.63a4.46,4.46,0,0,1,2.87-1.53c1.37,0,1.32-.27-.31-1.5C275,59,271.27,60.5,272.39,64ZM194.63,519c-1,1.24-1.25,1.12-1.53-.82a4.45,4.45,0,0,1,.75-3.36A6.38,6.38,0,0,0,195,511.2a13.91,13.91,0,0,1,1-4.55c.66-1.43.79-.73.43,2.5-.27,2.48-.52,5.38-.54,6.46a6.48,6.48,0,0,1-1.26,3.41Zm8.6.13c-1.27,0-.84-.87,1.7-3.5,3.7-3.81,5-4.33,5-2,0,.84-1.12,2-2.5,2.47s-2.5,1.42-2.5,2S204.17,519.15,203.23,519.15Zm-1.38-4.7c-.66,2.76-1.62,4.64-2.28,4.42-1.81-.59-1.92-4.48-.21-6.92.91-1.3,1.57-4.31,1.57-7.19,0-2.72.29-4.65.64-4.31,1.24,1.25,1.4,9.28.28,14Zm-12.53,3.13c-.46,1.21-1,1.4-1.72.64s-.72-1.41.11-2.25c1.53-1.52,2.46-.6,1.61,1.61Zm.77-7.45a2.53,2.53,0,0,1,.73-2.26c.82-.82,1.11-.71,1.11.42a3.71,3.71,0,0,1-.73,2.26C190.8,511,190.3,510.76,190.09,510.13Zm-2.26-2.36c-1.77,2.13-2.06.82-1.05-4.62l.84-4.5.77,3.76c.54,2.64.37,4.25-.56,5.36ZM263.94,113c-2.4-.17-4.53-.86-4.75-1.54-.58-1.73,6.45-1.33,7.93.45C268.1,113.06,267.58,113.24,263.94,113ZM252.66,99.83c.24.74-.36,1-1.67.63-1.13-.3-2.06-1-2.06-1.49,0-1.33,3.25-.58,3.73.86Zm8.27-27.55c0,.69-1,.84-2.75.4-3.16-.79-3.83-1.28-3-2.14s5.71.51,5.71,1.74Z" transform="translate(-61.26 -30.24)"/></svg>