<svg id="Layer_1" data-name="Layer 1" xmlns="http://www.w3.org/2000/svg" viewBox="0 0 567.63 619.76"><defs><style>.cls-1{fill:#696969;}</style></defs><path class="cls-1" d="M342.26,618.79c-5.37-1.83-7.2-3.67-6.2-6.26.36-1.07,1.76-1.63,4-1.63,3.06,0,3.59-.38,5-3.88s1.39-4.62-.2-12.5c-.94-4.75-2.29-9.17-2.94-9.83-1.43-1.43-1.6-8.43-.23-9.27.58-.36.37-1.95-.63-3.95a10.91,10.91,0,0,1-.93-6.93c.82-4.37,2-5.38,2.25-1.85a5.92,5.92,0,0,0,2,3.94c2.12,1.58,2.88.41,1.94-3-1.11-4.06-3.3-5.87-7.65-6.29-6.27-.6-6.56-.9-11.06-12.9a29.53,29.53,0,0,1-1.88-6.84,2.72,2.72,0,0,0-2-2.39c-2.51-.65-3.42-4-2.07-7.57.83-2.18.75-2.71-.42-2.71-.8,0-1.74,1.1-2.08,2.46a8,8,0,0,1-2,3.61c-2.46,2-2.67-1.32-.46-6.48,2.4-5.6,2.53-6.72.67-6-1.1.42-1.32-1.14-1.32-7.83,0-4.58-.27-8.91-.69-9.58s-.22-2.84.43-4.84a23.14,23.14,0,0,0,.63-8.45c-.32-2.66-.21-5.11.37-5.43s1-2.15,1-4.07a17.44,17.44,0,0,1,1.63-6.65c1-1.89,1.32-3.27.63-3.49s-.55-2.75.31-7.29c2.11-11,5.52-25.31,6.52-27.2,1.45-2.74,1.06-10.16-.73-13.74a29.33,29.33,0,0,1-2-8.91c-.69-9.22-1.24-9.72-6.13-5.61-2.94,2.51-3.06,2.86-6,18-.43,2.2-1.28,5.58-1.89,7.5s-1.69,5.5-2.39,8-2.37,7.2-3.7,10.5c-2.05,5.06-2.45,7.8-2.55,17.5-.1,10.36-.28,11.47-1.86,11.2-1.73-.29-2.34.87-1.12,2.09a9.67,9.67,0,0,1,.92,3.92c.16,1.81.85,6,1.53,9.29,1.24,6,1.79,15.49,1.09,18.68-.64,2.93-2.92.84-4.08-3.74a25.35,25.35,0,0,1-.55-8.19c.37-2.51-.12-5.57-1.49-9.24-2.45-6.6-2.54-9.18-.45-15.6a89.78,89.78,0,0,0,4-20.91c.37-4.83.06-6.64-1.56-9.25-1.12-1.8-2.91-3.25-3.91-3.25-2.09,0-3,3.14-3.77,13.34-.56,7.32,1.06,7.26,3.82-.14,1.1-2.94,2.56-5.2,3.37-5.2,1.82,0,1.81,1.05-.06,4.63a16.72,16.72,0,0,0-1.52,6.37c0,4.75-1.23,6.4-4.14,5.67-4.19-1.05-4.66.12-3.71,9.33.48,4.67,1.15,10.42,1.48,12.77.37,2.67.15,4.8-.57,5.67-.91,1.09-.71,2.42.89,5.93a22.75,22.75,0,0,1,2.06,6.44,9.23,9.23,0,0,0,2,4.43c2,2.58,2.18,3.86,2,14.49-.1,5.58-.45,6.6-3.34,9.66a12,12,0,0,1-8,4.14c-5.71.85-9.65-.58-9.65-3.51,0-2.06.23-2.14,7.35-2.59,4.77-.29,5.69-1.18,6.64-6.38.64-3.48.45-4.34-1.18-5.48-1.23-.86-2.21-3.14-2.66-6.21-.62-4.17-1-4.83-2.85-4.64s-2.21-.46-2.81-5c-.41-3.07-1.53-6.13-2.73-7.44-1.58-1.71-2.11-3.86-2.36-9.5-.65-14.42-1.2-18-3.2-19.81-1.65-1.58-1.78-2.48-1-7.41.58-3.69.52-6.3-.17-7.59a12.28,12.28,0,0,1-.94-5.22,19.74,19.74,0,0,0-.5-5.25c-.42-1.36.19-2.87,1.92-4.71,3-3.19,3.46-6.33.78-5.33-3.36,1.27-3.78,1-3.78-3-.05-4.22,2.95-8.5,5.95-8.5,1.62,0,4.11-7.33,3.07-9s-2.2-1.22-5.62,2.53-6.62,4.75-5.36,1.75c1.71-4.17,1.74-5.54.11-6.45-1.24-.69-1.54-1.77-1.13-4.12.31-1.75.09-3.86-.48-4.68-.89-1.26-1.54-.93-4,2-1.62,1.92-3.08,4.4-3.24,5.5s-.73,2-1.28,2-1.15-.9-1.35-2a6.89,6.89,0,0,0-1.22-2.91c-1.21-1.26-4,1.24-3.28,3,.34.89,0,1.43-1.13,1.43s-1.59-.7-1.39-2.25c.38-2.94-1-4.76-2.68-4.1s-1.9-1-.43-3.72c.8-1.5.71-1.93-.42-1.93a2,2,0,0,1-1.83-1.13c-.78-2.34-5.85,3.53-6.16,7.13a46.5,46.5,0,0,1-1.65,7.84q-1.4,4.34-.39,6c1.3,2.25.82,16.15-.47,17.44s-1.35,9.72-.13,17.72c.84,5.43.81,5.5-2.57,8.5-1.88,1.67-3.42,3.34-3.42,3.67s1.35,1,3,1.33c4.38,1,3.88,4-1.52,9.17-2.48,2.33-4.76,4.33-5.06,4.33-3.42,0-10.42-9.53-10.42-14.18a36.43,36.43,0,0,0-1.23-7.4c-.93-3.55-1-4.88,0-6.48s.87-2.14-.78-3.3c-1.09-.77-1.7-1.66-1.36-2s-.11-1.35-1-2.24c-1.11-1.11-1.62-3.39-1.62-7.3,0-4.48-.4-5.94-1.87-6.86-1.2-.76-2.14-2.93-2.59-6-.52-3.54-1.51-5.57-3.74-7.62-2.44-2.3-2.92-3.33-2.44-5.76a12.28,12.28,0,0,0-.78-6.2c-4.91-11.57-9.36-31.2-11.25-49.72-.36-3.58-1.49-7.87-2.49-9.58-2.23-3.74-3.81-18.44-2-18.44a1.14,1.14,0,0,0,1.14-1.12c0-.85-.39-.84-1.39,0-2,1.69-2.83,7-3.17,21.25C176,363.12,173,376.63,168,386.63a32.52,32.52,0,0,0-2.57,7.85c-.63,3.82-1,4.18-4.14,4.55-4.81.56-8.3-1.18-12.63-6.3-2-2.42-4.63-5.43-5.75-6.69a8.07,8.07,0,0,1-2-4.27,3.93,3.93,0,0,0-2.5-3.12c-1.37-.63-2.5-1.43-2.5-1.79s-1.33-2.05-3-3.76c-7.34-7.47-13-18.25-13-24.7a24.6,24.6,0,0,0-.94-6.93c-.71-1.85-.58-2.8.5-3.69a3.75,3.75,0,0,0,1.41-2.32c0-.62-.67-.26-1.45.74-2,2.63-4.9,1.38-4.28-1.85.26-1.35,0-2.61-.61-2.81-1.49-.5-.79-8.84.9-10.73.79-.88,1.32-3.66,1.32-6.66,0-4.19-.39-5.23-1.94-5.64-2.28-.59-2.34-3.08-.41-4.68s1.93-4.62,0-5.36c-2.42-.91-1.76-3.24,1.58-6.05,3-2.48,3-2.71,1.86-6.26s-4.19-7.08-8.51-10c-1.85-1.21-2.73-1-8,1.79A86.3,86.3,0,0,0,93,283a11.63,11.63,0,0,1-6.19,1.83c-2.1,0-4.07.41-4.37.9s-2.92,1.45-5.81,2.12A65.49,65.49,0,0,0,67.1,291a20.29,20.29,0,0,1-9,1.67,28,28,0,0,0-8.2.88c-1.94.63-13,1.31-24.86,1.54l-21.37.41-1.84-3c-1.41-2.32-1.58-3.4-.71-4.4,3.48-4.19,11.66-5.35,39.57-5.6,10.71-.09,16.61-.63,17-1.25s4.86-1.87,9.93-2.8a148.33,148.33,0,0,0,15-3.51c3.18-1,8-2.4,10.66-3.12,5.37-1.42,16.62-7.69,16.62-9.25,0-.6-1.84-.72-4.75-.32-15.22,2.14-35.38,2.71-46,1.29-5.15-.68-8-.66-9.74.15s-5.34.84-12.71.12c-5.64-.54-13-1.21-16.24-1.48-6.84-.55-8.06-.85-15.27-3.66-6.2-2.42-6.74-4.46-2.2-9,3.26-3.26,3.16-3.26,14-.79,13.48,3.08,37.76,4,86.76,3,7-.13,9.86.21,11.66,1.39,2.58,1.77,8.58,12,8.58,14.77,0,2.52,1.61,3.17,4.23,1.7l2.27-1.28-2.25-.34c-2.87-.43-2.77-1.75.23-6.7,1.35-2.2,2.49-4.71,2.49-5.59.06-3,11.06-11.23,13.64-10.23.74.28,2.82-.38,4.62-1.47,2.19-1.33,3.93-1.72,5.27-1.2a4.75,4.75,0,0,0,4.14-.57c2.26-1.4,8.66-.4,9.89,1.6.32.57,1.61,1,2.86,1a7.17,7.17,0,0,1,4.35,2.25c3.45,3.71,7.26,11.82,7.26,15.43,0,2.18.6,3.6,1.6,4,1.91.73,3.49-1.38,3.15-4.18-.2-1.62.28-2,2.56-1.81l2.8.2-2.55-4.57c-2.59-4.63-3.32-8.32-1.64-8.32.5,0,1.75,1.69,2.75,3.75,1.18,2.4,2.64,3.86,4.08,4.07,3.11.44,3-2.48-.25-5-2.81-2.2-3.48-6.82-1-6.82a7.68,7.68,0,0,0,3.25-1.08c2.16-1.34,7.23.36,7.23,2.43,0,1.67,2.79,4.2,3.66,3.32.36-.33-.1-1.73-1-3.11-1.79-2.71-2.18-7.09-.71-8,1.17-.72,2.21.94,3,4.8.36,1.65,1.25,3.21,2,3.46,1,.32,1.2-.21.75-2a14.93,14.93,0,0,1,.41-6.13c.82-3,1.5-3.69,3.5-3.69,1.37,0,2.74.67,3.06,1.49.83,2.16,2.27.88,1.66-1.46-.33-1.4,1.13-3.82,5-8.25,3-3.43,5.8-7.7,6.17-9.43a10.59,10.59,0,0,1,2.62-4.9,5.81,5.81,0,0,0,2-3.36c0-2.87,7.79-14.09,9.79-14.09,1.48,0,1.79-.65,1.43-2.91s.09-3.27,2-4.52a15.83,15.83,0,0,0,4.31-5.84c1.69-3.87,9.07-15.55,10.56-16.73a72.89,72.89,0,0,0,4.4-8.34c2-4.32,4.3-8,5-8.32a4.58,4.58,0,0,0,1.87-2.91,29.44,29.44,0,0,1,3.47-6.68c6.1-9.15,9.1-14.15,9.1-15.38a5.83,5.83,0,0,1,1.88-3.08,11.74,11.74,0,0,0,2.63-4.29,9,9,0,0,1,1.38-3c.62-.5,4.12-7.12,14.5-27.4A139.84,139.84,0,0,1,316.25,72a55.93,55.93,0,0,0,3.87-6.09c1.38-2.48,5.47-9.3,9.09-15.23s6.67-11.93,6.8-13.37c.22-1.83,1-2.88,2.32-3.12C341,33.72,344.6,30.32,347,26c5-9.08,8.74-14,10.65-14,.4,0,2.21-1.37,4-3,3.22-2.95,10.58-5.92,11.82-4.73s-.62,3.63-3.83,5a36.33,36.33,0,0,0-8,6c-4.57,4.44-5.73,7.19-3.87,9.19a19,19,0,0,1,2.11,4.79c.87,2.8,1.67,3.71,2.87,3.36,8.34-2.43,11.08-2.94,12.6-2.36,2.67,1,0,3.66-3.64,3.66a32.65,32.65,0,0,0-7.89,1.62c-3.72,1.18-5.1,2.18-5.56,4-.78,3.13.07,3.91,2.88,2.64a6.36,6.36,0,0,1,4.08-.37c1.3.48.21,1.13-4.29,2.48s-6.77,2.68-8.58,5c-2.89,3.8-3.18,5.89-.71,5.16,4.41-1.3,14.85-3.8,17.66-4.23,16.66-2.57,20-2.81,19.09-1.39-.34.55-2.37,1-4.52,1-2.91,0-4.16.52-5,2.08-.61,1.14-1.68,1.86-2.37,1.59-1.73-.66-2.66.14-5.86,5.08-1.52,2.34-3.17,4.25-3.67,4.25-2,0-4.06,3.32-4.06,6.51,0,1.85-.44,3.65-1,4-2.19,1.35-6.52,12-6.19,15.24.39,3.74,1.34,4,8.63,1.74,4.58-1.39,6.76-1.34,5.28.14-.34.35-3.46,1.35-6.91,2.35-5,1.36-6.35,2.15-6.61,3.87-.37,2.49,2.06,2.83,7.83,1.1,4.27-1.26,9.72-2,17-2.26,4.88-.17,5.54-.44,5.82-2.44.36-2.53.24-2.57-8.57-2.28-11.18.37-6.55-2.85,5-3.47,2.71-.13,5.27-.66,5.71-1.13,1.6-1.72,2-13.9.6-16.6-1.08-2.12-1.08-2.81,0-3.92a7.4,7.4,0,0,0,1.68-3.31c.3-1.78-.3-2-5.42-2.3-3.16-.17-5.75-.66-5.75-1.09s2.59-1.2,5.75-1.7c6.52-1,6.29-.52,6.21-14.41-.05-10.09-.16-10.25-6.67-9.43-4.48.56-5.45.43-5.09-.69.25-.76,2.22-1.77,4.38-2.25,7-1.54,6.71-1.28,6.2-6.4a23.25,23.25,0,0,0-3.62-9.68C385.39,11.75,384,8.75,384,7.75c0-1.23-.75-1.8-2.37-1.8-3.29,0-5.3-2.5-3.63-4.5,1.89-2.3,4.81-1.81,9,1.51,4.95,3.91,6.4,8.64,10,32.46.89,5.71.36,13.9-2.11,34-.54,4.4-1.49,13-2.19,19s-1.59,11.51-2,12.15-1.7,6.49-2.86,13c-3.06,17.18-3.54,19.52-4.66,22.85-.56,1.65-2,6.6-3.23,11-2.11,7.65-6.32,16.58-9.55,20.27-7.14,8.14-8,10.84-3.7,11.84a12.75,12.75,0,0,1,4.25,1.87,13.55,13.55,0,0,0,3.25,1.84c2.73,1,2.12,5.2-1.75,12.11-1.92,3.46-3.5,6.81-3.5,7.46s-1.57,3.53-3.5,6.39c-3.51,5.23-4.33,7.72-2.51,7.72.55,0,5.16-2.14,10.26-4.75s12.41-6.1,16.26-7.74,10.76-4.9,15.37-7.24a112.06,112.06,0,0,1,11.5-5.2,106.66,106.66,0,0,0,16.45-6.48,72,72,0,0,1,9.67-3.87c2.75-.83,8.6-3,13-4.74a73.85,73.85,0,0,1,10.22-3.52,21.47,21.47,0,0,0,5.4-1.87,16.75,16.75,0,0,1,6.09-1.59,14.91,14.91,0,0,0,5.74-1.47,26.49,26.49,0,0,1,7.2-2c4.38-.58,17.52-2.84,25.84-4.44,2.5-.45,11.24-.68,19.5-.45,12.49.34,16,.79,20.87,2.66,7.39,2.84,10.32,5.53,11.22,10.3,1.3,6.92-7.87,29.29-16.45,40.27-6.44,8.2-37.3,37.46-46.39,44-4.37,3.15-10,7.42-12.57,9.49a57.05,57.05,0,0,1-9,5.92,40,40,0,0,0-7.5,4.84,17.79,17.79,0,0,1-6.59,3.47c-1.92.42-4,1.32-4.5,2s-3.94,1.81-7.52,2.52c-10.88,2.16-10.93,2.19-9.69,6.83.95,3.6.8,4.37-1.37,7.6-1.48,2.2-5.49,5.4-10.24,8.2l-7.8,4.6,2.21,2.06a12.82,12.82,0,0,0,5.72,2.63c4.56.69,5.26,2.88,1.26,3.69-5.78,1.16-2.22,4.37,4.85,4.37,4.79,0,5.51,2,1.31,3.7-2.6,1-2.51,1.09,1.89,1.19,3.71.09,5.07.7,6.19,2.48s2.2,2.25,4.12,1.88c3.2-.61,5.51,1.2,4.83,3.79-.36,1.42,0,2,1.2,2a2.61,2.61,0,0,1,2.23,2c.29,1.1,1.12,2,1.85,2a4.25,4.25,0,0,1,2.64,1.81,7.91,7.91,0,0,0,3,2.47c2,.72,2.38,3.72.45,3.72a6.78,6.78,0,0,0-3.13,1.33c-1.69,1.23-1.56,1.46,1.81,3.46,2,1.18,3.62,2.79,3.62,3.59a2.16,2.16,0,0,0,1.25,1.91c1,.35,1,.88,0,2.53-.82,1.4-.88,2.3-.19,2.72a1.6,1.6,0,0,1,.66,1.76c-.21.61.78,2.14,2.2,3.41,2.5,2.23,2.5,2.35.64,3.78s-1.86,1.53-.08,3.5,1.77,2.09-.33,4.33c-2.94,3.13-2.72,5.15.83,7.68,1.94,1.38,3,3,3,4.59a3.72,3.72,0,0,0,2.45,3.57c2.88,1.31,4,3.6,2.57,5.31-.7.84-.41,1.72,1,3,3.18,2.85,2.59,4.74-1.26,4l-3.25-.62,2.88,2.43c2.84,2.41,2.87,4.66.07,4.66-1.86,0-1.86,1,.14,3.82,1.27,1.81,1.34,2.56.36,3.74s-1,1.69.41,3.28,1.47,2.49.4,7c-.94,4-1.6,5.18-3.1,5.18s-1.75.52-1.24,2.52A11.46,11.46,0,0,0,486,451c2.35,2.38,2.64,4,.47,4s-1.84,1.38,1,4.23a8.31,8.31,0,0,1,2.47,4.88,34.52,34.52,0,0,0,.62,5.64c.78,3.93-1.16,4.49-2.59.75-.55-1.38-1.44-2.5-2-2.5-1.59,0-1.24,1.21,1.47,5.21,3.84,5.61,3.4,7-1.24,4l-2.68-1.75,2.33,3.15c2.48,3.36,2.11,6.43-.52,4.26-2.12-1.77-3-.22-1,1.91,2.61,2.88,2,4.18-1.93,4.18-2.74,0-3.7-.44-4.11-2s-.9-1.77-2.34-1a12.67,12.67,0,0,1-4.93,1,19,19,0,0,0-7,2c-3.89,2-9.59,2.41-15.34,1.13-2.24-.49-3.17-1.55-4.24-4.63-.76-2.2-1.39-4.12-1.4-4.27s1,0,2.32.32c2.15.54,2.3.27,1.92-2.73l-.48-3,2.15,3.38c3.06,4.82,4.4,2.74,2.2-3.41-1.82-5.09-4.64-7-5.49-3.78-.37,1.45-.49,1.37-.58-.41a3.71,3.71,0,0,1,1.88-3.28,4.14,4.14,0,0,0,2-3.54c0-2.76-1.45-3.35-2.36-1a2.83,2.83,0,0,1-2.52,1.5,2.55,2.55,0,0,0-2.37,1.25c-.32.94-.77,1-1.83.11-2.28-1.82-5.87.14-6.56,3.6-.33,1.65-1,2.75-1.54,2.43s-.65-1.89-.29-3.49c.48-2.21.27-2.9-.89-2.9a2.79,2.79,0,0,0-2.17,1c-.43.64-2.37.79-5,.4-7-1.07-8,.1-8,9,0,4.31-.46,7.91-1.07,8.31-2,1.35-3,5.43-2.53,10.15.19,1.65,4.08,2.18,7.66,1,2.74-.91,3.91-.9,5,0,1.6,1.33,14.4,2,15.15.75a1.06,1.06,0,0,1,1.46-.18c.54.34,4.22-.07,8.18-.9s9.22-1.75,11.68-2.14,5.16-1.27,6-2a13.06,13.06,0,0,1,5.14-2c4.83-.87,6.35,1,5.56,6.74-.37,2.67-.28,4.64.54,5.46s.83,1.79.06,3.48a10,10,0,0,0-.54,5.1c.44,2.29.23,2.7-1.35,2.43s-1.85.25-1.7,3.18c.11,1.92,0,2.94-.33,2.25a2.38,2.38,0,0,0-2.06-1.25c-1.54,0-1.51.94.28,7,.68,2.45.68,2.47-1.32.68-2.69-2.37-3.87-.55-1.74,2.7s.21,4.58-2.53,2.1c-1.81-1.63-1.88-1.6-1.51.66.94,5.83,1,6.55,0,6.46-.54-.1-1-1-1-2.1a2.24,2.24,0,0,0-2.13-2.3c-1.6-.23-2.28.37-2.8,2.5-.37,1.55-2.51,4.49-4.75,6.55-3.81,3.52-4,4.07-3.41,7.83s.5,4-1.37,3.43c-1.39-.45-2-.2-2,.86,0,2.07-1.93,3.1-3.28,1.74-1.62-1.6-4.72-1.36-4.72.4,0,.83-1.82,2.24-4,3.12s-4.45,2.49-5,3.49a3.47,3.47,0,0,1-2.5,1.88c-2,0-3-2.83-1.57-4.27,2.78-2.79-.08-5-5.22-4-2.24.38-2.51.87-2,3.38.6,3-.73,3.76-3.52,2-1.34-.85-1.83-1.59-5.83-8.73a66.89,66.89,0,0,0-8.26-10.2c-4.71-4.89-6.54-6.17-8.08-5.69-2.37.76-2.49,1.81-.49,3.5a4.37,4.37,0,0,1,1.5,2.92,4.51,4.51,0,0,0,1.08,2.76c.6.59.93,2.37.75,4-.25,2.17-.85,2.87-2.49,2.87-3.73,0-3.63,1.19.58,6.52,2.25,2.84,4.29,6.15,4.53,7.33s.69,3.36,1,4.84a8.72,8.72,0,0,1-1.41,6c-1.69,2.87-1.82,3.92-.89,7.29a69.14,69.14,0,0,1,1.23,12.68c.15,9.69-1.26,12.62-5.26,11.34-4.67-1.49-4.73-7.06-.1-9.54,1.66-.89,1.86-1.77,1.35-5.77a22.05,22.05,0,0,0-1.84-6.75c-.69-1.1-1.54-6.91-1.88-12.91-.47-8.26-1.11-11.71-2.62-14.26a44.55,44.55,0,0,1-3.51-10.09c-1.58-7-3.11-10.78-5.28-13.07-3.2-3.36-4.59-8-5-16.65-.34-7.14-1-10.12-3.09-14.42-1.46-3-3-5.54-3.66-5.75s-.87,3.49-.66,10.25c.2,6.09-.12,11.72-.74,13.25a62.85,62.85,0,0,0-2.14,10.16L363,545.69c-1,6.75-3.33,9.56-6.74,8-2.1-1-2.79-.77-4.86,1.32-2.38,2.4-2.39,2.5-.81,7.24,1.31,4,1.31,5.27.31,7.2s-1,3,0,5.46a17.85,17.85,0,0,1,.75,7.68,17.15,17.15,0,0,0,.9,8c2,4.76,2.08,20.13.08,23.92-2.87,5.54-4.53,6.24-10.2,4.3Zm78.95-66.06c1.06.2,1.72-.23,1.6-1a6.56,6.56,0,0,1,.55-3.09,8.59,8.59,0,0,0,.12-4.5c-.91-3.79-.92-4.48-.09-6.48,1.17-2.82-1.73-2.12-4.51,1.1a13.21,13.21,0,0,0-2.79,6.31,9.83,9.83,0,0,1-1.23,4.33c-1.2,1.24,2,4.75,3.45,3.82a5,5,0,0,1,2.92-.41Zm9-3.25c.26-1.38.14-2.51-.28-2.51-.92,0-2,2.54-2,4.64,0,2.3,1.71.68,2.25-2.13Zm-89.75-3.07c-1.85,2.31-2,3.87-.28,3.31.69-.23,1.38-1.5,1.53-2.83C342,544.54,341.93,544.53,340.45,546.41Zm7.52-2.82c-.6-.6-1.09-2.83-1.09-4.83s-.46-4-1.07-4.36c-.8-.5-.91,1.1-.39,5.69.79,6.93,2.74,11,3.34,6.93a4.57,4.57,0,0,0-.75-3.37Zm10.94,2.51c1.9-2.67,1.93-3.16.58-8.25a43.08,43.08,0,0,1-1.46-8.21c0-4-2.68-8.63-5.62-9.75-1.83-.73-2.4-1.47-2-2.73.84-2.53-2.61-8.4-6-10.28-1.6-.88-3.06-2.52-3.26-3.52a4.41,4.41,0,0,0-1.71-2.7,1.85,1.85,0,0,1-.82-2.15,1.71,1.71,0,0,0-.54-2,3.44,3.44,0,0,1-1.07-2.67c0-1.49-.47-1.86-1.81-1.43-1.55.52-2-.51-3.13-6s-1.12-7.3,0-10.67c1.26-3.82,1.21-4.14-.88-5.52-1.21-.85-2.21-2.09-2.21-2.85,0-2-1.31-1.7-2.72.56-1.86,3-.78,32.18,1.22,33.68a3.85,3.85,0,0,1,1.5,2.66,10.43,10.43,0,0,0,.62,3.17c.56,1.45.68,1.54,1.94-.16s1.39-1.69,2.85.22a8.45,8.45,0,0,1,1.49,4.5c-.06,3.82,1.67,13.9,2.53,14.74.42.42.67.08.55-.74-.53-3.59.09-9,1-9,.57,0,1,2.81,1,6.44,0,6.86,1.93,10.41,2.11,3.86.06-2.09.21-4.47.33-5.3s.25-2.28.39-3.25.55-1.75,1.14-1.75.76,3.25.42,8.25c-.37,5.57-.23,7.84.44,6.84a3.26,3.26,0,0,0,.56-2.53,3.91,3.91,0,0,1,.92-3c1.18-1.62,1.35-1,1.44,4.75.11,7.18.93,11,2.19,10.18.44-.26.58-1.61.31-3-.69-3.68,1.17-3.09,2.31.73.53,1.78,1.52,3.13,2.2,3,1.54-.32,1.67.85,0,2.55s-3.8,1.5-3.8-.3c0-.83-.45-1.5-1-1.5-3.22,0,1.6,5.5,5.18,5.92.38,0,1.6-1.2,2.71-2.76Zm-27-43.18a1,1,0,1,1,1,1A1,1,0,0,1,331.88,502.92Zm0-5.45c0-2,.45-3.55,1-3.55s1,1.33,1,2.94-.45,3.22-1,3.56S331.88,499.59,331.88,497.47Zm83.95,36.11c2.83-6.66,2.71-9.66-.38-9.66-1.33,0-2.59-.53-2.81-1.16-.67-2-5.51,0-7.8,3.19-1.39,2-1.9,3.62-1.39,4.75a14,14,0,0,1,1,3.35c.1.89,1.67,3.48,3.49,5.75l3.31,4.12,1.3-2.75c.71-1.52,2.21-4.93,3.33-7.59Zm16.43,6.8c-.31-.8-1-1.46-1.45-1.46-1,0-1.33,2.23-.26,3.3s2.31-.27,1.71-1.84ZM339,535.55c-.77-.73-1.08-.17-1.08,2,0,4,1.41,5.36,1.83,1.84a5.45,5.45,0,0,0-.75-3.8Zm54.46-1.73c1-1.62-3.65-6.05-6-5.72-1.35.22-2.14,1.19-2.35,3-.27,2.36.08,2.73,3,3.09,1.82.22,3.64.49,4,.57s1-.33,1.36-.92Zm34.53-1.9c.58,0,.77-.45.43-1s-.82-1-1.06-1-.44.45-.44,1V531a1,1,0,0,0,1.06.94Zm-92.67-2.84c-.05-.64-.16-2.54-.25-4.22-.15-3.6-2.15-3-2.15.61,0,1.35-.36,2.45-1.12,2.45s-.72.48.15,1.53c1.37,1.69,3.53,1.46,3.37-.37Zm3.08-.23c-.86-1.38-1.46-1.13-1.46.62,0,.86.44,1.28,1,.94a1.15,1.15,0,0,0,.44-1.56Zm41-3.18c-.29,3.44,1.8,4.62,2.9,1.66s.69-6.41-.9-6.41-1.61,0-2,4.75Zm66.55.94a7.22,7.22,0,0,0-1.46-3.25,7.56,7.56,0,0,1-1.5-3.57,4.43,4.43,0,0,0-1.54-2.87c-2.45-2-1.9,3.39.75,7.5C444.51,528,445.88,528.85,445.92,526.61ZM328,526.92c.59,0,.78-.45.44-1s-.82-1-1.06-1-.44.45-.44,1V526a1,1,0,0,0,1.06.94Zm69.32-1.22c1.14.4,1.67.09,1.67-1,0-.88-.47-1.6-1-1.6-1.12,0-5.42-8.94-4.66-9.7.92-.93,4.46,3.16,5.16,6,.77,3.07,2.64,4.75,3.25,2.92a2,2,0,0,1,1.81-1.17c2.29,0,1.77-1.9-1.09-3.19s-3.08-2.48-1-5.23c1.36-1.8,1.57-1.82,3.3-.25,3.27,3,4.79,2,7.13-4.41,1.22-3.33,2-6.71,1.66-7.5-.72-1.88-7.61-2-7.61-.09,0,1.33-4,3.67-6.29,3.67-.67,0-2.29,1.6-3.61,3.54-2.73,4-4.45,4.08-4.92.08-.25-2.17-.7-2.59-2.25-2.1-1.08.34-1.93.12-1.93-.46s.69-1.06,1.54-1.06c2.47,0,2.92-2.9.82-5.83s-8.36-14.56-8.36-15.56c0-.34.45-.61,1-.61s1,.67,1,1.5c0,1.44,1.12,1.91,3.75,1.57l.17,0a1,1,0,1,1,.08,1.91,1,1,0,0,0-1,1c0,.55.88,1,2,1,2.38,0,3.82,2.88,2,4-.89.55-.93,1-.14,1.46a3.38,3.38,0,0,1,1.1,2.62c0,1.94,1.08,2.53,2.33,1.29.36-.33.15-1.25-.48-2-1.44-1.73-.21-3.08,1.37-1.5,1.39,1.4,4.78,1.59,4.78.27,0-.5-1.33-2-2.95-3.39-2.83-2.39-5.19-7.68-3.4-7.68.47,0,1.87,1.58,3.11,3.5,3.68,5.68,4.65,5,11.2-8.09,3.64-7.27,3.79-8.93.79-10.78-4-2.52-7.62-2.85-10.76-1-2.44,1.45-2.86,2.25-2.52,4.89a23.11,23.11,0,0,0,2.47,6.83c2.45,4.37,2.56,5.62.56,5.62-.82,0-1.5-.5-1.5-1.1,0-1.9-3.22-7.9-4.22-7.9-.58,0-.81,1.3-.58,2.89.57,3.85-1.76,3-2.56-1-.64-3.31-2.64-4-2.64-.93a2.26,2.26,0,0,1,0,.45,1.76,1.76,0,0,1-1.95,1.55c-1.73,0-1.83-.4-.93-3a11.29,11.29,0,0,1,2.45-4.12,4,4,0,0,0,1.42-2.49,2.54,2.54,0,0,1,1.75-2c4.09-1.49,10.26-11.41,13.78-22.14,1.91-5.86,3.47-11.7,3.47-13,0-1.87.5-2.37,2.5-2.37,4.87,0,8.89,6.16,10,15.25.49,4.05,1.12,5.75,2.16,5.75s1.39-1,1.22-3.5c-.1-1.92.34-4,1-4.7,1.46-1.46,1.59-5.45.2-6.3-1.85-1.17-1-2.67,1.09-2,1.88.6,2.05.31,1.78-2.88-.35-4,.75-5.79,2.26-3.62.87,1.25,1.18,1.14,1.58.08s1-.81,2.4,1l1.85,2.4v-2.25a7.23,7.23,0,0,1,2-4.24c2-2,2-2,3.61.5.9,1.37,2.48,2.49,3.52,2.49s1.88.45,1.88,1c0,1.79,1.85,1,2.5-1a2.89,2.89,0,0,1,5.32-.36c.46.94,1.38,1.32,2,.94,1.62-1,1.4-3.58-.29-3.58a5.55,5.55,0,0,1-3.07-1.64c-1.08-1.08-2-1.3-2.62-.65-1.77,1.77-5.89.27-5.89-2.13,0-4.07-2-4.8-5.61-2.07-1.81,1.41-3.94,2.2-4.81,1.87s-1.58-.13-1.58.47-.93,2-2.08,3.17c-2,1.89-2.24,1.91-3.48.29-.95-1.25-1.53-1.4-2.1-.55-1.2,1.83-8.69,4.06-12,3.57-1.68-.24-3.31.06-3.68.66s-2,1.1-3.66,1.1a16,16,0,0,0-5.7,1.27,12.67,12.67,0,0,1-5.7,1c-1.65-.17-4.48-.41-6.28-.53-2.66-.21-3.28-.47-3-2.21s1.09-2,6.28-2.11c3.3-.05,9.69-.45,14.2-.89,8.16-.78,8.21-.8,8.83-3.89.34-1.71.84-3.89,1.11-4.83.33-1.21-.28-1.91-2.08-2.36-3-.76-3.3-3.42-.56-4.13s2.54-2.29-.26-2.29a4.72,4.72,0,0,1-3.54-2.06c-.85-1.36-1.91-1.85-3.15-1.46-1.53.49-2.58-.8-5.8-7.2-3.7-7.35-6.9-17-5.9-18,.24-.24,1.21,1.73,2.14,4.37a159.17,159.17,0,0,0,6.4,15.26,4.3,4.3,0,0,0,2.09,1.88c1,.33,1.13-.18.58-1.94-.41-1.31-1-3.61-1.26-5.1a7.69,7.69,0,0,0-1.91-3.88c-1.85-1.5-1.82-3.9,0-3.9,1.21,0,4.05,7,5.16,12.83C406,401,409.12,404,411,404a3.12,3.12,0,0,1,2.4,1c1.22,2,3.5,1,3.5-1.47,0-2.67-2.93-4.89-5.26-4-2,.77-3.17-1-6.17-9.54-1.47-4.13-3.77-9.72-5.11-12.43-2.41-4.88-2.52-7-.24-4.76,1.8,1.83,2.59,1.43,3-1.57.38-2.74.4-2.71,2.08,1s3,4.63,4.13,2.83c1-1.57-3.56-8.25-5.17-7.63A10.66,10.66,0,0,1,401,368c-.94,0-3.59,1.8-5.88,4-4.74,4.6-5.27,4.73-7.74,2-1.91-2.11-4.5-2.68-4.5-1a1,1,0,0,0,1,1,1,1,0,0,1,1,1c0,.55-1,.88-2.25.75-2.08-.22-2.28.26-2.75,6.26-.31,3.58-.86,7.07-1.31,7.76-.67,1.08,2.57,9.56,4.33,11.24,1,1,3.06,6.27,2.61,6.71-.81.81-5.63-2.89-5.63-4.32,0-2.23-1.72-1.65-2.34.86s.38,7.84,2.38,12c1.69,3.61.31,4.92-2.09,1.92-3.41-4.2-4.92-.4-2.41,6.07.4,1,.18,1.75-.45,1.75s-1.4-1.32-1.72-2.94a4.73,4.73,0,0,0-3.48-3.94c-2.32-.81-2.89-1.6-2.89-4,0-3.58-1.47-5-2.81-2.39S362,422.94,363,423.51s.52,5.74-.61,7.57c-.39.64-.76,3.56-.84,6.5s-.69,5.9-1.37,6.57c-1,1-1.23.74-1.23-1,0-1.28-.57-2.2-1.5-2.2s-1.5.95-1.5,2.48a5.14,5.14,0,0,1-2.75,4.23c-3.49,2.18-4.23,3.22-4.23,6a7,7,0,0,1-1.9,4.14c-2.87,2.86-1.1,4.18,6.9,5.18,4,.51,7.52,1.16,7.8,1.42s1-.51,1.62-1.74c1.26-2.58,2.94-2.17,3,.74a2.48,2.48,0,0,0,1.92,2.35c1.61.31,1.78-.05,1.17-2.49a11.56,11.56,0,0,0-2.75-4.74c-2-1.88-2.08-4-.36-13.11,1.91-10,1.9-10.5-.32-10.5-2.53,0-2.84-2.5-.48-3.82,1.25-.7,1.51-1.79,1.08-4.49-.78-4.59,1.68-7.25,3.22-3.54,1.22,2.91,4.55,6.85,5.81,6.85a5.13,5.13,0,0,1,2.49,1.75c1.21,1.36,1.49,3.65,1.26,10.25-.22,6.1.07,9.36,1.23,11.81s1.26,3.6.4,4.45c-1.49,1.49-1.46,5,.06,6.54.94.94.84,1.2-.45,1.2a3.37,3.37,0,0,0-2.56,1.63c-.61,1.12-1.13,1.27-1.61.5a2.75,2.75,0,0,0-2.14-1.13c-2.67,0-1.4,4.45,2.55,8.94,4.19,4.78,4.29,6.06.45,6.06-1.5,0-2.44.56-2.44,1.5s.95,1.5,2.5,1.5c2.75,0,3.37,1.46,1,2.37a2.59,2.59,0,0,0-1.5,2.27c0,2.26,5.68,13.85,7.54,15.4,1.62,1.34,1.89,5.57.56,6.41s0,4.49,2,5.58a6.18,6.18,0,0,1,2.49,3.22c.95,3.14,4.66,7,5.47,5.73a2,2,0,0,1,2.31-.4Zm-2.53-2.3a.86.86,0,0,1-1.18-.15,2.72,2.72,0,0,1-.67-1.7c0-.63.53-.55,1.19.15s.95,1.41.66,1.7Zm3.71-12.48c-.24,0-.72-.45-1.06-1s-.14-1,.44-1h.06a1,1,0,0,1,1,1c0,.55-.19,1-.44,1Zm-14-10.47c-.88-1.4-1.31-2.53-.88-2.53,1,0,3.59,4,3,4.62-.24.24-1.18-.7-2.09-2.09ZM398,476.25a16.29,16.29,0,0,0-.76-3c-.51-1.42-.41-1.58.59-.69a3.35,3.35,0,0,1,.76,3C398.37,476.58,398.1,476.89,398,476.25Zm-9.23-17.08c-2.23-2.78-4.07-6.39-3.53-6.92s6.61,5.74,6.61,6.89c.07,1.58-1.8,1.6-3.08,0Zm-.63-11.11c-1.22-2.12-1.93-4.14-1.59-4.49a1.86,1.86,0,0,1,3.29,1.19,7.57,7.57,0,0,0,1.51,3.72c1.82,2.43,1.91,3.43.28,3.43-.68,0-2.24-1.75-3.45-3.88Zm2-9.84c-1.6-.59-1.67-5.6-.07-5.07a5.53,5.53,0,0,1,2.23,2.06c1.19,1.88-.16,3.74-2.16,3Zm-1.86-18.76c-.61-1.61.26-3.54,1.61-3.54,1.15,0,4,2.89,4,4.07,0,1.52-5,1.05-5.62-.53Zm7.86.79c-1.72-.69-1.57-4.33.18-4.33,1.57,0,4.57,2.64,4.57,4.07,0,1-2.62,1.12-4.75.26Zm8-2.36c-1.63-1.52-1.91-2.71-1.47-6.18a23.51,23.51,0,0,1,.9-4.7c.3-.35,5.37,10.33,5.37,11.33,0,1.39-3.13,1.1-4.8-.45Zm-6.47-10.6c-1.3-2.67-3.56-7.16-5-10a46.13,46.13,0,0,1-3.22-8l-.62-2.84,1.82,2.25a31.22,31.22,0,0,1,3.63,7c1,2.58,3,7.1,4.39,10s2.32,5.52,2,5.83-1.66-1.62-3-4.28Zm-11.82,2.63a1,1,0,1,1,1,1A1,1,0,0,1,385.88,409.92Zm6.84-1.9c-.17.46-1.39-1-2.67-3.22s-2.12-4.26-1.87-4.51c.62-.62,4.86,6.67,4.5,7.73Zm-7.23-16.83a2,2,0,0,1,.08,1.91c-.32.8-.61.57-.61-.6S385.16,390.86,385.49,391.19Zm1.39-7.83c0-.86.45-1.28,1-.94a2.16,2.16,0,0,1,1,1.56,1,1,0,0,1-1,.94C387.37,384.92,386.88,384.22,386.88,383.36Zm10-1a14.89,14.89,0,0,1-1-4.15c0-1.38.27-1.35,2,.22,2.1,1.88,2.79,6.5,1,6.5C398.34,384.92,397.44,383.76,396.88,382.35Zm41.59,138.56c-1-1.1-1.86-4.44-2.24-9-.59-7.07-.56-7.22,1.55-6.55,1.71.54,2.15.27,2.15-1.28,0-2.37-1.15-2.87-8.72-3.72-5.65-.63-5.9-.56-7.07,2a17.58,17.58,0,0,0-1.21,6c0,1.87-.47,3.69-1.06,4a7.45,7.45,0,0,0-2,3.06c-.51,1.33-1.6,2.41-2.44,2.41-2,0-1.95,2.62.11,3.41a6.1,6.1,0,0,0,3.49,0,5.53,5.53,0,0,1,4.09,1c2.92,2.05,5.76,2,7.34-.17,1.17-1.55,1.37-1.48,2.5,1,.67,1.46,2,2.82,2.83,3,2.23.44,2.65-3,.65-5.2Zm-8.32-5.77a7.22,7.22,0,0,0-2-2.79c-1.14-.85-1-1.36.69-2.91,2.54-2.28,2.65-2.15,3.54,3.2.72,4.35-.84,6.12-2.2,2.5ZM444,506.52c-.77-.73-1.08-.17-1.08,2,0,4,1.41,5.36,1.83,1.84.18-1.49-.15-3.2-.75-3.8Zm-78.83-2.14a45.06,45.06,0,0,0,.37-7.25c-.09-3.5-.41-4.74-1.62-4.74s-1.45,1.35-1.29,7c.12,3.85.22,7.12.25,7.25s.45.25.93.25,1.1-1.13,1.36-2.51Zm-5.94-3c-.79-2.06-1.35-1.82-1.35.6,0,1.13.48,1.79,1,1.46a1.75,1.75,0,0,0,.39-2.06Zm-73.27,1.54a1,1,0,0,0,.94-1.06c0-.58-.45-.78-1-.44s-1,.82-1,1.06.45.44,1,.44Zm175.34-1.4a1.85,1.85,0,0,0-1.15-2.35c-.75-.25-1.25.46-1.25,1.75s.5,2,1.25,1.75A1.87,1.87,0,0,0,461.28,501.52Zm-86.48-2.39c-.1-3.61-2.27-9.53-3.66-10-1.9-.59-2.49,3.62-.83,6a9.47,9.47,0,0,1,1.57,4.51c0,1.36.52,2.28,1.5,2.28s1.47-.94,1.42-2.75Zm-33.71-5.19c-.41-2.82-2.21-3.35-2.21-.65,0,1,1.85,3.64,2.52,3.64a17.75,17.75,0,0,0-.31-3Zm3.79-2.27c0,1.36.23,1.31,1.41-.31.78-1.07,1.26-2.1,1.07-2.29C346.6,488.31,344.88,490.12,344.88,491.67Zm-61.32-7c-1.29-4.13-2.2-4.66-3.4-2-2.19,4.87.63,10.48,3.52,7C284.41,488.77,284.37,487.27,283.56,484.65Zm82.56-1.7c.56-2.17-1.61-4.56-3.24-3.56-.54.35-1,1.74-1,3.09C361.88,485.51,365.44,485.9,366.12,483Zm-12.91-2.28a2.23,2.23,0,0,1-1.92,1.25c-.78,0-1.41.45-1.41,1s.9,1,2,1c1.43,0,1.92-.64,1.92-2.25C353.75,480.43,353.49,480,353.21,480.67Zm8.27-1.27c.32-.85.19-3.54-.28-6-.85-4.39-.88-4.42-3.35-3-1.38.79-3.18,1.76-4,2.15-2.38,1.1-6.68,4.74-4.88,4.1a2.78,2.78,0,0,1,2.65.44c.68.68,1.73.62,3.24-.18,2.36-1.24,4-.14,4,2.76,0,1.74,2,1.56,2.65-.26Zm12.95-3c-2.93-2.19-3.78-1.71-1.93,1.12,1.23,1.87,2,2.25,2.77,1.43s.58-1.5-.84-2.55Zm83.49.1c1.63,0,1.89-3.64.47-6.93-.66-1.55-.6-1.84.85-1.28s1.68,0,1.68-5.32-.27-6-2-6c-1.88,0-4.72,3.59-4.22,5.33.13.46.41,2.63.63,4.82.33,3.13.1,3.88-1,3.45-1.74-.66-1.79.72-.2,5.13.75,2,1.45,2.82,1.75,2.07a2.37,2.37,0,0,1,2-1.3Zm1-13.53c-.5,0-1-.67-1-1.5s.45-1.5,1-1.5,1,.68,1,1.5-.45,1.5-1,1.5Zm20.1,16a1,1,0,0,0,.9-.94c0-1.22-2-2.4-2.72-1.73s.54,2.67,1.72,2.67Zm-198.42-7.53c-1.3-4.22-3.11-4-3.55.35-.27,2.8,0,3.18,2.16,3.18,2.39,0,2.39-.15,1.39-3.53Zm111.64,1.28a5.55,5.55,0,0,0-.19-3.1c-.62-1.67-.81-1.7-2-.26-1.36,1.61-.86,4.61.77,4.61a1.85,1.85,0,0,0,1.4-1.25Zm-39.74-2.82c1-1.61-2.44-3.65-7.23-4.3-7.56-1.05-9.71,1.11-3.56,3.63,4.45,1.83,9.87,2.16,10.79.67Zm113-10.15c0-2.42-.44-3.75-1.28-3.75-1.46,0-1.59,1.62-.66,8.39.38,2.77,1.11,4.51,1.75,4.3s.9-1.46.64-2.79A39.5,39.5,0,0,1,465.5,459.7Zm-43.17,3.68c6.62-.83,12.9-1.92,14-2.4a181.26,181.26,0,0,1,18.13-5.52,31.65,31.65,0,0,0,6.21-2.47,20.07,20.07,0,0,1,5.39-2.08c.73,0,3.71-1.57,6.63-3.5s5.7-3.5,6.17-3.5c1.79,0,2.08-1.86.23-2.86s-9.45,1.74-10.77,3.87c-.79,1.29-7.18,4-9.4,4a18.51,18.51,0,0,0-5.59,2c-2.16,1.1-4.68,1.76-5.6,1.47-2.68-.86-9.89,1.17-12.34,3.47-2.59,2.46-5.89,1.82-5-1a9.8,9.8,0,0,0-.08-4.41c-.54-2-1.11-2.45-2.54-2-1,.33-1.89.12-1.89-.47a1,1,0,0,0-.89-1.06c-.49,0-.84.56-.84,1.25.18,5-.38,6.75-2.15,6.75a4.67,4.67,0,0,1-3.14-1.53c-1.71-2.05-2.4-1.14-1.05,1.39.91,1.71,1.83,2,5.83,1.59,2.61-.24,4.07-.16,3.24.19a13.71,13.71,0,0,0-3,1.93c-2,1.77-13.42,3.07-14.42,1.55s-2.15-1.37-4,.48c-2.66,2.69-1.9,3.52,4,4.29.58.08,6.43-.55,13-1.39Zm-197.47-1.5a11.82,11.82,0,0,1,2.18-4c2.09-2.84,2.11-3,.37-4.93a5.21,5.21,0,0,1-1.28-4.65c.78-4.1-1.11-16.92-3.31-22.53-1.09-2.76-1.74-5.42-1.43-5.92s.62-6,.7-12.29c.17-10.3,0-11.65-2-14.16-1.18-1.51-2.18-3.31-2.18-4s-1.14-2-2.54-2.92a10.38,10.38,0,0,1-3.48-4.12c-1.45-3.77-4-3.13-4,1,0,1.89.41,3.69.91,4s1.44,3.81,2.08,7.81a54.83,54.83,0,0,0,2.72,10.62c1.37,3.06,1.44,3.57,0,6s-1.28,3.33,2.5,14.59c2.81,8.35,4.1,14,4.24,18.5.23,7.32,2.43,18,3.7,18a1,1,0,0,0,.84-1ZM332,460.73a34.43,34.43,0,0,0,0-4.25c-.12-2.73,0-2.84,1.26-1.25,1.91,2.4,2.67,2.19,2.67-.75,0-1.57-.52-2.5-1.52-2.5-1.15,0-1.36-.67-.86-2.75.94-3.85,1.24-4.24,2.94-3.59a1.82,1.82,0,0,1,.9,2.46,1.74,1.74,0,0,0-.14.38,1.82,1.82,0,0,0,1.36,2.19,8.39,8.39,0,0,1,3,2.24c1.09,1.41,1.25,1.41,1.25-.06.06-3.33-2.92-8.83-4.47-8.23-.83.31-1.5.08-1.5-.51s-.68-.81-1.5-.5c-1.68.65-2.2-3.09-.57-4.09.51-.32,1.45-3.09,2.08-6.09.82-4,1.86-6,3.58-7.11s2.1-2,1.45-2.79-.62-2.52.09-5.12c1.7-6.23,7.16-18.87,8.64-20,.73-.56,1.58-2.59,1.87-4.5a24.17,24.17,0,0,1,1.81-6c3.14-6.21,5.82-15.58,6-21,.35-10.8,2.71-15.81,6.09-13,1,.8,1.38.62,1.66-.73.78-3.75-.35-6.3-2.79-6.3-1.68,0-2.19.43-1.77,1.5a5.24,5.24,0,0,1-.14,3.25c-.64,1.52-.82,1.43-1.64-.69-.92-2.4-1-2.41-2.8-.5-1,1.07-3,5.76-4.35,10.44-3.09,10.52-8.58,26.91-9.8,29.23a8.8,8.8,0,0,0-.91,3.33,40.56,40.56,0,0,1-2.38,7.77,177.29,177.29,0,0,0-7.16,21.67l-2.47,10a20.92,20.92,0,0,1-2,5.53c-.5.6-1.4,5-2,9.91-.94,7.58-.88,9.21.47,11.21,1.69,2.58,3.45,3.14,3.62,1.14Zm43.86.69c.6-.34,1-.81,1-1.06s-.45-.44-1-.44h-.06a1,1,0,0,0-.94,1.06c0,.58.45.78,1,.44Zm-3.12-2.79c.45-1.24.72-5.1.59-8.58-.23-6.49,1.2-7.39,1.88-1.19.21,1.88.89,3.59,1.52,3.8,1.45.49,1.44.22-.4-8.78-2.11-10.11-2.3-10.73-4.11-11.42-1.33-.48-1.47,0-.91,3a40.94,40.94,0,0,0,1.22,5c.34.87-.06,1.43-1.06,1.43-2,0-2.28,6.92-.4,8.8.8.8.83,1.2.11,1.2-1.43,0-2.41,3.9-1.66,6.78s2.17,2.86,3.22,0Zm-92.85.86c0-.2.48-2.75,1.06-5.75,1.06-5.36,1.5-9.12,2.34-20.22.22-3.21.68-6.1,1-6.42a3.49,3.49,0,0,0,.58-2.08,6.3,6.3,0,0,1,1.65-3.33c1.57-1.74,1.5-1.83-1.31-1.83a9.58,9.58,0,0,0-4.86,1.39c-1.62,1.22-1.66,1.95-.73,4s.87,3.14-.29,5.36a16.56,16.56,0,0,0-1.46,6.38,18,18,0,0,1-1.57,6.74c-1.57,3.18-1.6,12.48-.05,15,.62,1.06,3.62,1.73,3.62.82Zm132.41-4.07c-.38-1.5-.2-2.5.45-2.5,1.48,0,.32-2.72-1.45-3.4-1.1-.42-1.27.05-.82,1.92s.21,2.48-1,2.48c-1.61,0-2.2,2.07-.95,3.33a4.31,4.31,0,0,0,2.52.67c1.48,0,1.73-.5,1.23-2.5Zm22.56-7c0-.83-.45-1.5-1-1.5s-1,.68-1,1.5.45,1.5,1,1.5S434.88,449.25,434.88,448.42Zm-22.45-3.5a1.48,1.48,0,0,0,1.45-1.42c0-2.17-1.11-4.58-2.11-4.58-.49,0-.89,1.35-.89,3q0,3,1.5,3Zm18.94-4c-.63-2,1.08-3.5,2-2s2.51,1.26,2.51-.42-.54-2.06-4.22-2.94c-2.61-.62-2.72-.49-2.61,3.11.12,4.39.59,5.53,1.94,4.7a2.26,2.26,0,0,0,.39-2.43Zm13.54-5.54c0-3.54-1.55-4.49-3.74-2.3-.86.85-1.54.28-2.71-2.25l-1.57-3.39.48,5.38c.53,6.37,1,7.12,3,4.54,1.44-1.88,1.49-1.87,2.1.32.9,3.19,2.41,1.76,2.41-2.3Zm20.31-3.12c-.36.36,1.09,3.56,3.09,6.63,1.25,1.94,2-.18,1.17-3.39C469,433.38,466.22,431.24,465.22,432.24Zm-252.34,1.81c0,2,1.34,3.33,1.84,1.84a2.54,2.54,0,0,0-.73-2.26C213.18,432.81,212.88,432.92,212.88,434.05Zm89.18-3.13c-.87,0-2.17,3.17-2.17,5.45,0,1.54,1.69-.7,2.44-3.2C302.71,431.92,302.59,430.92,302.06,430.92Zm-2.5-.75a32.09,32.09,0,0,0,1.82-4.75c.36-3,2.08-6.15,5.08-9.15,2.83-2.83,3.33-4,3.26-7.74-.07-3.5-.42-4.33-1.72-4.08a27.11,27.11,0,0,1-2.83.39c-.67,0-1.72,2-2.35,4.33a21.8,21.8,0,0,1-1.94,5.25c-.45.55-1.13,3.14-1.52,5.75s-1.09,4.75-1.56,4.75-.81,2-.76,4.5.25,4.5.45,4.5a14.89,14.89,0,0,0,2.06-3.75Zm54.54-2.5c-.15-.86.64-3.18,1.75-5.18,2.47-4.39,2.47-4.2.08-4.82-3.05-.8-5.36,3.49-4.53,8.41.4,2.35,1.14,3.8,1.83,3.56a1.75,1.75,0,0,0,.87-2Zm-142.74-2.54c-.89-2.15-2.67-7.31-3.1-9-.78-3.09-2.38-.81-2.38,3.39,0,3.28.52,5.08,1.75,6,2.58,2,4.62,1.77,3.73-.35Zm249.84.35a4,4,0,0,0-.86-3.25c-1.94-2.56-1.8-6.36.29-8,1.61-1.22,1.61-1.36.07-1.36a2.86,2.86,0,0,1-2.32-2,2.78,2.78,0,0,0-2.24-2c-2,0-5.26,2.87-5.26,4.65s1.3,1.62,2.71.24,2.87,1.19,3.78,6.62,1.29,6.49,2.37,6.49c.46,0,1.17-.63,1.46-1.41Zm-114.73-3.89c-1.47-.56-2.59.09-2.59,1.49,0,1.12,2.74,1.07,3.43-.06C347.62,422.53,347.24,421.88,346.47,421.59Zm75.16-1.48c1.43,1.45,2.08.88,2.43-2.21.38-3.39-3-3.91-5.38-.84-2.45,3.24-2.48,5.77,0,3.53,1.4-1.26,2.1-1.37,3-.48Zm-191.32-4.44c.31-2.89.78-6.71,1-8.5s.08-3.25-.32-3.25c-1.2,0-3,6.23-3.15,11-.19,5.7-.15,6,.91,6,.52,0,1.16-2.37,1.52-5.25ZM454,419.92v-.06a1,1,0,0,0-1.06-.94c-.59,0-.73.45-.44,1s.76,1,1,1S453.88,420.47,454,419.92Zm-162.53-2.73c-1-1-1.83.51-1,1.86.63,1,.87,1,1.21,0a2.08,2.08,0,0,0-.18-1.86Zm154.89.66c-.86-1.37-1.46-1.13-1.46.63,0,.85.45,1.27,1,.93a1.16,1.16,0,0,0,.45-1.56Zm-15.14-2.38c.7-1.83-1.82-4-3.82-3.22a2.3,2.3,0,0,0-.72.47,2.5,2.5,0,0,0-.13,3.53c1.18,1.18,4.11.71,4.67-.76ZM330,411.39c.62-.62,1.24-.51,1.79.38,1.17,1.89,3.07.48,3.07-2.27,0-2.11,3.93-12.79,6.32-17.11a55.27,55.27,0,0,0,2.8-8.5c.94-3.58,2-7.39,2.45-8.39.54-1.35.41-1.76-.59-1.44-.74.25-2.9,3.35-4.8,6.89a60.41,60.41,0,0,1-4.09,6.94c-1.34,1.06-4.09,6-4.09,7.35,0,.82-1.06,2.15-2.35,3-2,1.3-2.45,2.64-2.9,8.3-.54,6.61.24,12.3,1.07,7.89a7.05,7.05,0,0,1,1.32-3Zm.47-6.2a2,2,0,0,1,.08,1.91c-.32.8-.56.56-.61-.6S330.14,404.86,330.48,405.19Zm20.46,10.73a1,1,0,0,0,.94-1.06c0-.58-.45-.78-1-.44s-1,.82-1,1.06.45.44,1,.44Zm22.32-5c.7-3.51-.12-6.25-1.72-5.73-1.78.58-2.06,8.72-.31,8.72.76,0,1.67-1.35,2-3Zm66,.37c-.68-1.77-2.72-1.83-4.19-.05s-.68,2.47,2.32,1.91c1.56-.3,2.22-1,1.87-1.86Zm-153.89,1c.9-.35,1.59-1.77,1.59-3.3a6.44,6.44,0,0,1,1.08-3.78c.79-.76.79-1.28,0-1.76a4,4,0,0,1-1.08-3c0-2.73,3.6-11.26,4.95-11.73.52-.2,1.9-6.61,3.08-14.31s2.74-17.6,3.44-22,1.08-8.33.85-8.73a3.89,3.89,0,0,1,.66-2.77c.64-1.11,1.34-5.25,1.64-9.25a45.82,45.82,0,0,1,1-8c.67-1.08-1.51-3.72-3.19-3.72s-2.88,5-1.54,6.34,1.38,5.66.06,5.66a1.18,1.18,0,0,1-1-1.25c0-.69-.53-.39-1.14.66a3.11,3.11,0,0,0,0,3.73c1.47,2.37,1.28,2.86-.25,2.86s-2.95,5.31-1.53,5.83a2,2,0,0,1,.92,1.77c0,2.4-2.43,9.4-3.25,9.4-.41,0-.75,1.56-.75,3.44s-.41,3.69-.93,4-1.25,3.15-1.64,6.31-1.32,6.62-2.07,7.71a11.11,11.11,0,0,0-1.36,5.32,14,14,0,0,1-1.14,5.48c-.64,1.18-1.28,5.69-1.42,10-.16,5.17-.71,8.4-1.71,9.5a3.47,3.47,0,0,0-.62,3.92c.87,2.27,2.45,2.75,5.34,1.64ZM201,404.91c-1.14,0-1.43,4.27-.37,5.33a1.6,1.6,0,0,0,.4.38,1.64,1.64,0,0,0,2.26-.46C204,409,202.09,404.91,201,404.91Zm68.31,2.56c-.46-1.2-.94-1.33-1.94-.51a2.43,2.43,0,0,0-.78,2.53c.6,1.56,3.34,2,3.34.51A9.56,9.56,0,0,0,269.26,407.47ZM359,410.92c.59,0,.74-.45.4-1s-.81-1-1.06-1-.44.45-.44,1V410a1,1,0,0,0,1.05.95Zm83.9-2c1.55,0,2.09-.53,1.81-1.75a1.81,1.81,0,1,0-3.62,0c-.24,1.22.3,1.75,1.81,1.75Zm20.84-2.81c.21-1.47-.21-2.17-1.3-2.17-1.32,0-1.49-.69-.94-3.75a13.89,13.89,0,0,1,2.16-5.47,3.68,3.68,0,0,0,.91-3.25,2.27,2.27,0,0,0-1.32-1.31,2.3,2.3,0,0,0-3,1.31,2.35,2.35,0,0,1-1.72,1.54c-.63,0-2.12,1.57-3.31,3.44-1.84,2.89-1.84,3.65-.76,4.57s1.52.82,2-.44c1.07-2.79,2.2-1.77,2.93,2.64a27.74,27.74,0,0,0,1.18,5c.85,1.43,2.79.1,3.12-2.13Zm-187.25,1c1.4-.95,3.4-10.13,2.4-10.76-2.61-1.56-7,4.1-7,9,0,2.56,2.2,3.42,4.56,1.78Zm149.41-5.5c-2.39-.64-2.4-.26-.39,2.82s2.39,3.08,2.39.08A2.69,2.69,0,0,0,425.88,401.63Zm23.25-.71c-.69,0-1.25.9-1.25,2,0,1.47.66,2,2.5,2,2.26,0,2.39-.2,1.26-2A4,4,0,0,0,449.13,400.92Zm-223.31,3c.49,0,1.17-.72,1.45-1.59,1.06-2.75.72-3.77-.89-2.41s-2,4-.61,4ZM375,396.76c.85-5.38,0-7.83-2.73-7.83-1.59,0-1.68,9.2-.13,12.33,1.26,2.55,1.91,1.5,2.86-4.5ZM200.53,399.2c-.33-.33-.57.15-.52,1.31s.28,1.4.6.6a2,2,0,0,0-.08-1.91ZM425.88,399c1.21-.77,1.27-1.12.09-2.54s-1.53-1.44-2.8-.17c-.78.8-1.15,2-.78,2.55.82,1.32,1.6,1.36,3.49.16Zm-6.51-2c.81-1.31-.41-3.86-2.06-4.5s-2.85,1.68-2,3.91c.63,1.65,3.2,2,4.08.59ZM252.61,394.2a12.71,12.71,0,0,1-2.25.69c-.23,0-.42.45-.42,1,0,1.54,1.61,1.18,3.13-.69C254.28,393.71,254.23,393.59,252.61,394.2Zm60.27,1.72H313a1,1,0,1,0-1-1,1,1,0,0,0,1,1Zm98.79-1.08c.14,0,.27-.84.27-1.95s-.66-2-1.5-2c-2.75,0-1.75,2.92,1.25,3.92ZM223.94,391.4c-1,1.21-.95,1.49.33,1.49a2.76,2.76,0,0,0,2.13-.93C227.41,390.33,225.23,389.84,223.94,391.4Zm79.54.61c1.09,1.75,2.4.88,2.47-1.64,0-1.38-.4-2.5-.9-2.5-1.16,0-2.27,2.92-1.55,4.09Zm25.43-19.21c-1.36-2.54-2.92-2.49-2.25.07.62,2.39,0,2.49-3.08.49-2.16-1.37-2.38-1.31-3.43,1-.62,1.36-.7,2.74-.27,3s1.12-.18,1.43-1c.79-2.06,2.61-1.88,2.61.26-.05,2.67-4,6.52-8.77,8.67-5.07,2.27-5.79,3.12-4.17,5.12,1.9,2.29,3.81,1.71,8.1-2.29C330.7,377.18,331,376.71,328.91,372.8Zm-55,15.62c0-.83-.45-1.5-1-1.5s-1,.68-1,1.5.45,1.5,1,1.5S273.88,389.25,273.88,388.42Zm143,.6a3.7,3.7,0,0,0-1.38-2,5.42,5.42,0,0,1-1.37-3.66c0-3.16-.53-3.69-3.27-3.27l-2.18.33,2.1,2.65a9.7,9.7,0,0,1,2.1,4.17c0,1.37,1.25,2.39,3.25,2.6h.09a.74.74,0,0,0,.66-.8Zm50.64-.65a2.37,2.37,0,0,0,0-2.14c-.86-.86-3.73,1.74-3.07,2.8.85,1.34,2.43,1,3.08-.66Zm-267.68-1.45c0-1.1-.62-2-1.39-2a2.46,2.46,0,0,1-2-1.59c-.94-2.41-.72-5.41.39-5.41,1.89,0,1-3.28-1.52-5.61-1.89-1.79-2.38-2.95-1.89-4.88a5.21,5.21,0,0,0-.32-3.78c-.88-1.13-3.86-11-4.81-15.93a6.51,6.51,0,0,0-1-2.69c-.81-.78.44,11.08,1.74,16.39,2.16,8.85,2.8,12.15,2.8,15.43.06,4.84,3.73,12.07,6.13,12.07a1.62,1.62,0,0,0,.44,0,1.75,1.75,0,0,0,1.47-2Zm175.6-2.1c.76-1.22-2.29-4.5-3.12-3.67s.47,4.77,1.57,4.77a2.25,2.25,0,0,0,1.55-1.1Zm31.32-1.76a9.16,9.16,0,0,0-.27-3.72c-.61-1.63-3.61-1.95-3.61-.39a11.14,11.14,0,0,0,1.75,3.72c1.75,2.67,1.75,2.68,2.08.39Zm16.12.86c.6,0,1-.7,1-1.56s-.45-1.28-1-.94a2.16,2.16,0,0,0-1,1.56,1,1,0,0,0,1,.94Zm-145-8.16c2.33-6.8,2.47-7.8,1.33-7.8-.91,0-4.13,7.21-4.91,11.12-1.06,5.32,1.45,3,3.58-3.32ZM255,377.23c-2.36,3-2.48,3.73-.6,3.73a2.48,2.48,0,0,0,2-1.59C257.73,375.83,257,374.68,255,377.23Zm215.53,3.69c.24,0,.44-.45.48-1v-.06a1,1,0,0,0-1.06-.94c-.58,0-.78.45-.44,1s.81,1,1.06,1Zm-204.61-6.56c-1.26-.78-1.53-.45-2.35,2.31s.52,2.95,2.18.29C266.55,375.63,266.6,374.8,265.89,374.36Zm147.55-1.44c-1.73,0-1.8.49-.42,3.06,1.06,2,2.14,2.42,3.26,1.3S415.17,372.92,413.44,372.92Zm7.06,5c.86,0,1.28-.45,1-1a2.16,2.16,0,0,0-1.56-1,1,1,0,0,0-.94,1c0,.55.7,1,1.56,1ZM142.62,367.5c-1.19.46-1.07,1.16.71,3.95,2.63,4.13,2.86,4.21,2.09.72C144.38,367.4,144.1,366.94,142.62,367.5Zm236.9,4.38c5.27-3.84,15.76-10,17.27-10s9.72-8.08,10.58-10.42a2.18,2.18,0,0,0-.57-2.74c-2.29-1.43-3.83-.91-5,1.66-.63,1.37-1.64,2.5-2.25,2.5s-2.83,1.37-4.83,3.06a19,19,0,0,1-7.47,3.65c-2.08.32-4.12,1.18-4.55,1.9a1.91,1.91,0,0,1-2.25.74c-.81-.31-1.47-.07-1.47.54s-.88,1.11-1.88,1.11c-2.22,0-4.92,3.75-5.77,8-.53,2.7-.33,3,1.78,3,1.3,0,4.17-1.34,6.37-2.95Zm45.19-1.09c-.95.95-.89,1.41.25,2.11,1.86,1.15,2.45.57,1.61-1.61C426.06,370,425.66,369.84,424.71,370.79Zm-91.56-2.21c-2.43.64-2.4.58-1.56,2.75s1,2,3.51-.31C337.38,368.9,336.44,367.72,333.15,368.58ZM161,364.18c1.76-1.26,5.63-7.26,4.63-7.26a39.65,39.65,0,0,0-4.77,3.49c-4.53,3.6-7.77,4.27-12.31,2.54-2.13-.85-2.7-.68-3.68,1.15s-.9,2,.57,1.46c1.21-.46,1.87,0,2.26,1.44.46,1.75,1,2,3.78,1.48s3.34-.28,3.89,1.66c.61,2.15.73,2.08,2.15-1.15a13.6,13.6,0,0,1,3.48-4.81Zm103.45,6.07a2.24,2.24,0,0,0,2.29-1.24c.38-1.08-.21-1.26-2.57-.78-1.72.34-3.18.22-3.4-.39s-1.11-.43-2.22.39c-2.56,1.87-1.21,3.88,1.79,2.73a11.29,11.29,0,0,1,4.11-.71Zm149.16-1.77c-.33-.86-1.07-1.56-1.64-1.56-1.15,0-1.45,3.26-.34,4.35s2.66-1.07,2-2.79Zm31.26,2.19c0-.69-1.09-1.32-2.42-1.39-1.7-.1-2.27.25-1.9,1.25.67,1.73,4.32,1.84,4.32.14Zm-199.36-3.45c-.41-.41-1.16-.08-1.67.73-1.54,2.43-1.08,3.51.73,1.7.94-.93,1.35-2,.94-2.43Zm-24.58,1.2c.55-.34.95-.81.95-1.06s-.45-.44-1-.44h-.06a1,1,0,0,0-.94,1.06c0,.58.45.78,1,.44Zm20.5-1.5c.82,0,1.45-.45,1.45-1s-.67-1-1.5-1-1.5.45-1.5,1,.67,1,1.5,1Zm186.5,0h0a1,1,0,0,0,.94-1.06c0-.59-.45-.78-1-.44s-1,.82-1,1.06.45.44,1,.44Zm-163.48-4c.84-.7,1.32-1.47,1-1.71-.7-.69-2.59.72-2.59,1.93,0,.66.57.59,1.52-.2Zm6.64-.49c-.33-1.45-2.48-1.2-3,.36-.29.89.21,1.23,1.42,1,1-.2,1.75-.8,1.62-1.35Zm73.55-.49c.27-1.44-3.5-4.58-4.41-3.67-.25.25-.15,1.65.22,3.12.71,2.86,3.67,3.25,4.19.55Zm64.84,2c.86,0,1.29-.45.9-1a2.16,2.16,0,0,0-1.56-1,1,1,0,0,0-.94,1c0,.55.7,1,1.55,1Zm-172.13-4c.89-1.73,1.13-3.18.57-3.52-1.05-.67-3.05,2.56-3.05,4.9s.78,1.91,2.48-1.38Zm-95.79,2c.31,0,1.24-.79,1.92-1.75,1.57-2.07,1.82-6.87.39-7.75-.58-.36-1,.76-1,2.38s-.45,3.28-1,3.62c-1.09.67-1.36,3.5-.36,3.5Zm139.92,0c.24,0,.39-.45.39-1v-.06a1,1,0,0,0-1.06-.94c-.58,0-.78.45-.44,1s.82,1,1.06,1Zm93.76-5.5c.52-4.4.3-5.88-1.08-7.5a5.84,5.84,0,0,0-2.63-2c-.5,0-.33.69.37,1.53,1,1.16,1,2.07.16,3.75-1.66,3.31-1.74,5-.36,7.47,1.94,3.51,2.84,2.69,3.54-3.23Zm-235.39-.31c0-4.54-2.1-9.43-3.46-8.07-1.08,1.09-1.81,7.66-1.14,10.32.42,1.67,1.33,2.56,2.62,2.56,1.72,0,2-.69,2-4.81Zm86.79-7.24c-1.16,4.3-.08,12.76,1.43,11.24.68-.68.78-3.44.28-7.87C227.65,345.69,227.55,345.56,226.65,348.87Zm203.5,6.59a3.82,3.82,0,0,0-1.48,3.57c.69,2.51.85,2.42,2.69-1.28S432.83,353.17,430.15,355.46ZM194,358.5c.05,1.16.29,1.4.61.6a2,2,0,0,0-.08-1.91C194.2,356.85,194,357.34,194,358.5Zm6.88-.58h.05a1,1,0,1,0-1-1,1,1,0,0,0,1,1Zm57.3-3.84c-1.65.19-2.87,1-3.07,2.07-.38,2-.18,2.08,3.25.77S261.65,353.68,258.18,354.08Zm120.63,2.84a2.21,2.21,0,0,0,1.62-1c.34-.55.17-1-.38-1a2.21,2.21,0,0,0-1.62,1c-.34.55-.17,1,.38,1Zm38.18,0a1,1,0,0,0,.89-.94c0-1.22-1.91-2.4-2.62-1.73s.55,2.67,1.73,2.67Zm-153.11-5.29c-3,.79-2.47,4.29.67,4.29.74,0,1.33-1.07,1.33-2.41C265.88,351.63,265.47,351.21,263.88,351.63Zm122.36,1.07c-.37-.64-.95-.46-1.47.36-1.4,2.16-1,3.21.6,1.87.81-.68,1.21-1.69.87-2.23Zm-191.36-1.43c0-1.39.45-2.23,1-1.89,1.18.73.17-5.53-1.12-6.94-.48-.53-.91-5-.91-10,0-6.57-.51-9.94-1.76-12.26-2-3.71-3.75-3.25-4.63,1.22-.33,1.64-.33,2.43,0,1.74.42-.9,1.11-1,2.5-.21,1.64.84,1.92,2.16,1.92,8.84,0,11.16,1.15,23.15,2.15,22.53.47-.26.85-1.63.85-3Zm142,2.25a6.83,6.83,0,0,0-1.31-3.11,7.18,7.18,0,0,1-.9-4.58c.32-2.17,1.08-2.93,3.41-3.39a9.21,9.21,0,0,1,3.9,0c.5.25.86-.48.8-1.75-.12-2.92-1.66-7.81-1.81-5.81-.09,1.16-.3,1.21-.93.21-.87-1.36-4.16-.63-4.16.92,0,.5.68,1.19,1.5,1.5,2.53,1,1.68,3.17-1.47,3.86-2.4.53-3.09,1.31-3.62,4.12-.44,2.5-.16,4,1,5.25a6.22,6.22,0,0,1,1.62,3,1.1,1.1,0,0,0,1,1.18,1.2,1.2,0,0,0,1-1.31Zm-182-.6a1,1,0,1,0-1,1A1,1,0,0,0,154.88,352.92Zm48.33-.41a2.12,2.12,0,0,0,0-1.93c-.91-.92-3.33.49-3.33,1.94C199.88,354.34,202.56,354.33,203.21,352.51Zm105.28,1.41c.25,0,.39-.45.39-1v-.05a1,1,0,0,0-1.05-.95c-.59,0-.79.45-.45,1s.82,1,1.06,1Zm30.94-2.64c.83-.32,1.45-.79,1.45-1s-.68-.39-1.5-.39-1.5.46-1.5,1,.68.71,1.5.4Zm80.95.64c.85,0,1.5-.45,1.5-1a1,1,0,0,0-.94-1,2.16,2.16,0,0,0-1.56,1c-.33.55.09,1,.95,1Zm-286.5-5.12c0-.55-.45-.72-1-.38a2.19,2.19,0,0,0-1,1.61c0,.55.45.73,1,.39A2.21,2.21,0,0,0,133.88,346.8ZM414.73,346c3.74-4.05,6.56-9.12,5.08-9.12-1.26,0-10.92,9.94-10.92,11.24,0,1.77,3.39.54,5.85-2.12Zm-104.1.61a5.66,5.66,0,0,0-.09-3c-.27-.68-.48.12-.46,1.77s.25,2.23.5,1.23Zm76.26-3.48c0-2.12.37-2.42,2.52-2,1.39.26,2.8,0,3.13-.5.87-1.41-1.86-2.82-3.24-1.68a3.24,3.24,0,0,1-2.9.29c-1.49-.61-1.64-.24-1.06,2.39.39,1.8.23,3.32-.39,3.71a2.31,2.31,0,0,0-1.06,1.72c0,.67.55.6,1.5-.18a5.53,5.53,0,0,0,1.5-3.74Zm38.05,4.75a1,1,0,1,0-.05,0Zm-180.94-1a1,1,0,0,0,.89-1c0-.55-.7-1-1.56-1s-1.28.45-.94,1a2.14,2.14,0,0,0,1.56,1Zm130.32-3c.71-.7.56-1.53-.63-2.65-2.36-2.36-4.42-.71-2.19,1.75,1.19,1.32,2.06,1.6,2.77.89Zm5.89-6.58a7.69,7.69,0,0,0-2.57-1.41c-1.6-.07-.64,3.36,1.5,5.36l2.25,2.11.32-2.34a4.11,4.11,0,0,0-1.5-3.72Zm-228.27,5.57c.55,0,.95-.68.95-1.51s-.45-1.5-1-1.5-1,.68-1,1.5.45,1.5,1,1.5Zm98.93-1.26a17.61,17.61,0,0,0-1.38-4.25c-1-2.33-1.49-2.65-2-1.43-.79,1.93.95,6.93,2.4,6.93h0a1.13,1.13,0,0,0,1-1.25Zm-12.31-1.28c.92,2.38,2.83,1.3,3.19-1.8.25-2.14-.1-2.67-1.75-2.67-2.1,0-2.58,1.46-1.45,4.46Zm73.24,1.13a2.68,2.68,0,0,0,1.11-2A4,4,0,0,1,314.4,337c.82-.68,1.25-1.63.91-2.18s-1.11-.49-1.9.17c-1,.85-1.47.6-2-1.06-.62-1.95-.84-2-2.22-.63-1.86,1.86-.9,5.15,1.26,4.32,1.19-.5,1.37-.08.85,2-.46,1.84-.32,2.41.49,1.92Zm-172.62-2.1a1.8,1.8,0,0,0,1.5-1.25c.52-1.56-2.33-1.67-3.33-.13-.47.78-1,.62-1.6-.5-1-1.85-1.75-2-3.75-.68-1.19.75-1.21,1.17-.13,2.48,1.38,1.66,4.22,2.09,5.48.83A2.94,2.94,0,0,1,139.18,339.41Zm18.76.51h0a1,1,0,1,0-1-1,1,1,0,0,0,1,1Zm45.94-1c.57,0,.8-.68.45-1.51s-.78-1.5-1-1.5-.4.68-.4,1.5.47,1.5,1,1.5Zm121.85-1.85c.28-.86-.2-1.22-1.34-1a3.12,3.12,0,0,0-2.23,1.69c-.29.86.2,1.22,1.34,1A3.14,3.14,0,0,0,325.73,337.07Zm-169.21-.65a3.35,3.35,0,0,0-.65-3c-.78-.94-1-2.84-.57-5.24.36-2.07.75-5,.86-6.46a7.36,7.36,0,0,1,1.44-3.93,1.55,1.55,0,0,0,.33-.3,1.6,1.6,0,0,0-.2-2.25c-.81-1-.78-1.72.11-2.78a2.43,2.43,0,0,0,.61-2.42c-.63-1,1.54-3.64,3.65-4.4,1-.37,1-.89,0-2.55-.77-1.31-.86-2.31-.25-2.69,1.52-.91,1.16-5.16-.59-6.91-2.13-2.14-3.42-7-2.3-8.69.74-1.13,1.09-1.14,2.53.62s1.56,1.78,1,.16a13.44,13.44,0,0,1-.65-3.5c0-1.33-.22-1.33-.86-.33s-1,.74-1.47-1c-.95-3.52-.78-6.83.34-6.83,1.43,0,1.24-3.57-.25-4.76a12.59,12.59,0,0,0-3.5-1.69c-1.82-.56-2.25-.3-2.25,1.35,0,1.26-1.16,2.64-3,3.59a13.27,13.27,0,0,0-4.41,3.78c-1.85,3-2.56,15.89-.85,16.47.82.28,1.25-.61,1.25-2.55a38.13,38.13,0,0,1,1.62-8.33c.92-2.95,1.81-5.93,2-6.61.8-2.68,2.68-1.24,2,1.5-.38,1.51-1.32,6.06-2.1,10.06a54.54,54.54,0,0,1-2.05,8.36c-1.17,1.89-.39,14.59,1.17,19,1.48,4.13,1.48,4.39-.52,5.7-2.63,1.76-2.59,3.58.14,6.32,1.68,1.67,2.14,3,1.93,6.41s.11,4.32,1.56,4.69c3.13.81,3.4.75,4-.81Zm31.36-1.25A9.7,9.7,0,0,0,187,331c-1.19-1.87-2.53,2-1.6,4.89s2.49,2.44,2.49-.75Zm76.06-1.53c0-1.17-1.45-.88-1.87.37-.25.62.13,1,.75.75S263.94,334.08,263.94,333.64Zm126,.58a6.86,6.86,0,0,0-1.65-2.5c-1-1.1-1.19-1.83-.5-1.83a1.1,1.1,0,0,0,1.15-1c0-.55-.62-1-1.38-1-1.4,0-2.9,4.78-2,6.24.58.94,4.35,1,4.35.09Zm-229.29-3.74c-.72.72.15,3.41,1.15,3.41.38,0,.68-.9.68-2C162.51,329.89,161.81,329.35,160.68,330.48Zm190.26,2.41c-1.29.85-1.26,1,.19,1a3,3,0,0,0,2.31-1C354.22,331.62,352.94,331.62,350.94,332.89Zm30.06,1a1,1,0,0,0,.94-1c0-1.18-1.94-2.4-2.66-1.73s.54,2.67,1.72,2.67Zm-104.1-5.27a1.64,1.64,0,0,0-1.46-1.76c-1.68,0-3.89,3.57-3,5s4.5-1.17,4.5-3.24Zm148.54,3.63c.83-.32,1.5-.81,1.5-1s-.68-.39-1.5-.39-1.5.47-1.5,1,.68.7,1.5.39Zm-307.06-.36c.86,0,1.56-.45,1.56-1a1,1,0,0,0-.94-1,2.14,2.14,0,0,0-1.56,1c-.34.55.09,1,.94,1Zm150.53-4.41c0-1.91-.08-1.93-1.08-.25-1.11,1.92.33,4.7,2.43,4.7.71,0,.66-.42-.12-1.2A5.38,5.38,0,0,1,268.91,327.51Zm81.19,2.05a7.54,7.54,0,0,0,.75-3.33c0-1.57-.45-2.05-1.49-1.65s-1.5-.06-1.5-1.53c0-1.2-.68-2.1-1.5-2.1s-1.5-.47-1.5-1-.94-1.47-2.09-2.08c-1.69-.89-2.4-.72-4,1-2.09,2.24-3.87,2.73-3.87,1.07,0-.57,1.13-1.54,2.5-2.17,2.77-1.26,3.33-2.81,1-2.81-.82,0-1.5.34-1.5.75,0,1.11-6,3.58-6.78,2.8-.36-.36-.07-1,.64-1.47,2.27-1.4-1.43-2.12-4.83-.94s-3.9,2.58-1.28,3.58a7.42,7.42,0,0,1,2.83,2.09c.88,1.17,1.51,1.23,3.34.23,2.59-1.39,4.43-.37,1.89,1.05-1.53.85-1.47,1.17.62,3.42,2.76,3,3.2,3.12,6.57.49s4-2.5,4,.83a7,7,0,0,0,.68,3.51c.88.88,4.61-.28,5.56-1.73ZM226,330.92c.55,0,1-.63,1-1.46s-.45-1.5-1-1.5-1,.68-1,1.5.45,1.5,1,1.5Zm102.93-1.42a2.45,2.45,0,0,0,.56-2.5c-1.17-1.9-3.29-1.08-3.77,1.46-.54,2.77,1.26,3.35,3.21,1Zm29.42-.41c1.5-1.66,1.52-1.94.16-2.47-2.58-1-2.07-9.37.7-11.8l2.25-2-3.26.39c-2.81.33-3.18.14-2.67-1.48s.21-1.78-2.24-1.19a27.33,27.33,0,0,0-4.33,1.4,4.21,4.21,0,0,1-2.75.28c-.68-.25-1.25,0-1.25.57,0,1.73,1.86,2.29,3.92,1.19,1.38-.76,2.16-.75,2.62,0s-.28,1.32-1.44,1.62c-2.74.71-2.65,1.9.26,4.61a15.15,15.15,0,0,1,4.26,8.21l.27,1.75c.2,1.31,1.75.81,3.5-1.13Zm52.64,1.33a2.19,2.19,0,0,0,1-1.62c0-.55-.45-.72-1-.38a2.19,2.19,0,0,0-1,1.61c0,.55.45.73,1,.39ZM131,324.92c-1.23,0-2.09.64-2.09,1.57,0,1.84,3.12,1.57,3.75-.32C132.91,325.43,132.23,324.92,131,324.92Zm193.72.79c.53-2.73-2.38-4.91-6.05-4.56-2.5.24-3.32.75-3.58,2.57s.19,2.25,2.19,2.25c1.38,0,2.81.42,3.17,1,1,1.58,3.89.69,4.27-1.31Zm46.57-2.89c2.31-2.11,2.69-2.87,1.44-2.87a5.07,5.07,0,0,0-3.17,1.47c-2.07,2.07-3,1.87-2.36-.5.76-2.91-2.35-2.54-4.59.54-1.9,2.61-1.53,4.71.67,3.87a2.8,2.8,0,0,1,2.69,1.15c1,1.18,1.49,1.3,1.78.42a16.84,16.84,0,0,1,3.54-4.08Zm17.89,2.07a5,5,0,0,1,3.11-1c2.35,0,4.74-2.09,8.49-7.39,2.56-3.59,4.81-5.13,5.9-4,.35.35-.41,1.32-1.65,2.15-2.19,1.47-3.15,5.27-1.33,5.27a8.76,8.76,0,0,0,3.25-2c1.28-1.1,3.23-2.71,4.33-3.56,1.41-1.07,1.63-1.7.75-2.07-1.75-.72-1.56-2.35.25-2.35h0a1.44,1.44,0,0,1,1.5,1.38c0,.79,1.4,1.61,3.25,1.91,2.47.4,4.57-.25,8.75-2.69,3-1.77,6.94-3.87,8.76-4.66s3.51-2.22,3.82-3.19,1-1.75,1.46-1.75,1.53-1.22,2.31-2.7c1.54-2.93.48-8.18-1.7-8.44-1.31-.16-24.81-.63-57.4-1.16-21.37-.34-22.25-.15-22.25,1.56s-.45,1.83-4.25,1.13a61.13,61.13,0,0,0-8.75-.84c-3.29,0-4.5-.45-4.5-1.54,0-1.63,3.76-2.41,19-3.91,5.7-.56,9.68-.53,10.84.09,2.5,1.32,11.94,0,10.94-1.54a4.47,4.47,0,0,1-.47-2.71c.25-1.33-1.13-1.49-10-1.16q-24.78.93-28.78,3.12c-4.89,2.67-5.06,3-3.46,6.85a13.43,13.43,0,0,1,1.23,3.7c-3.5,2-6.44,4.15-7.07,5.2a3.34,3.34,0,0,1-2.62,1.35c-2,0-4.75,2.66-3.75,3.66.34.36,1.73-.1,3.11-1,3.52-2.31,4.9-2.13,3.52.45s-.45,3.7,1.87,2.26a19.42,19.42,0,0,1,5-1.8c2.59-.57,3.1-.42,2.65.77-.83,2.16,8,2.77,10.12.7,1.35-1.35,1.83-1.33,4.47.19,3.53,2,7.89,1,12-2.76,2.33-2.15,3.24-2.29,13-2,13.81.4,19.76,1.35,23.76,3.74,3.6,2.21,3.53,3.26-.26,4.21-3.33.84-11.23,6.65-12,8.84s-3.34,2.29-4.15.19c-.51-1.33-.91-1.26-2.8.53-2.51,2.34-8.21,4.26-10.51,3.54-1.11-.35-1.58.34-1.74,2.54l-.21,3,5.66-.54c3.11-.29,6.11-1,6.66-1.54Zm-49.65-26.5c.32-.83,1.77-1.47,3.22-1.47,2.54,0,2.57.09.7,1.5-2.52,1.94-4.66,1.92-3.92,0Zm9.41-2c-.55.34-1,.14-1.05-.5a1,1,0,0,1,1-1c.55,0,1,.2,1,.44s-.45.72-1,1.06Zm23.76,28.5a4,4,0,0,0,2.19-1.5c.7-.84.81-1.5.25-1.5a4,4,0,0,0-2.25,1.5c-.69.83-.8,1.5-.24,1.5Zm-99.37-3.21c-.95-3.1-1.44-3.43-2.44-1.76a2.3,2.3,0,0,0,.18,2.72c1.7,2,3,1.45,2.26-1Zm-145.78,1.21a1.37,1.37,0,0,0,1.34-1.38,3.68,3.68,0,0,0-1.25-2.42c-.93-.77-1.28-.43-1.39,1.38-.09,1.42.4,2.42,1.25,2.42Zm96.92-1.48c-.77-2,1.67-7.42,4.85-10.8,2.71-2.85,2.74-6.72.06-6.72-.72,0-2-1-2.85-2.25-1.42-2.1-1.65-2.14-3.23-.61-1.87,1.82-1,4.36,1.51,4.36,2.72,0,2.18,3.33-1.4,8.64-3.3,4.9-3.43,5.37-1.91,7.06,2,2.17,3.79,2.37,3,.32ZM255,322.92c.45,0,1.1-.89,1.36-2,.77-2.46-.62-5.18-2.17-4.23-1.28.77-.62,6.21.72,6.21Zm162.44-6.29c-2.35-.9-4.94,1.66-4.15,4.15s1,2.55,3.62,1.14C419.14,320.72,419.43,317.42,417.43,316.63ZM312.6,321.25c1.07,1.07,1.91.79,3.64-1.21,2-2.23,1-3.19-2.16-2-2.26.86-2.83,2-1.59,3.25ZM134.4,317c-1.42,0-2.58.18-2.58.41a10.87,10.87,0,0,1-.64,2.08c-.51,1.34-.09,1.6,2.25,1.34,1.77-.21,3-1,3.21-2.08C136.88,317.41,136.31,317,134.4,317Zm7.48,1c0-1.79-.45-2.73-1-2.44s-1,1.65-1,3,.45,2.45,1,2.45S141.88,319.7,141.88,317.91Zm87.61,3c.24,0,.39-.45.39-1v-.06a1,1,0,0,0-1.06-.94c-.58,0-.78.45-.44,1s.82,1,1.06,1Zm63.89-1.5c0-1.12-11.2-3.12-12.21-2.12s.45,1.88,4.45,2.67c4.76.95,7.76.73,7.76-.55Zm-74.5-1.58c0-1.14-.41-1.82-.91-1.5s-2.08.13-3.5-.41c-3.16-1.2-3.21-.7-.4,1.93s4.81,2.62,4.81,0Zm93.81-1.62c.49-3.37-3.05-4.79-5.42-2.18-1.82,2-1.82,2.09.11,3.5,2.62,1.92,4.93,1.35,5.31-1.32Zm64.2,2.7a1,1,0,0,0,1-1c0-.59-.45-.73-1-.44s-1,.75-1,1,.45.45,1,.45ZM247.4,315.28c1.52.58,1.59.44.52-.84a5.09,5.09,0,0,0-3.5-1.52c-1.85,0-2.16.43-1.76,2.52.44,2.27.61,2.36,1.72.84a2.45,2.45,0,0,1,3-1Zm115.35,2.64c.53,0,1.11-.62,1.53-1.59s.15-1.43-.58-1.19c-1.49.5-2.32,2.78-1,2.78Zm-61.11-3c3.35-2.05,4.12-5.06,2-6.78s-8.28-.58-12.87,2.42l-4.38,2.85,3.75.31c2.45.2,3.75.75,3.75,1.75,0,2.06,3.92,1.78,7.75-.55Zm20.18,1c1.22,0,2.07-.67,2.07-1.5s-.4-1.5-.88-1.5a4,4,0,0,0-2.12,1.5c-1,1.25-.9,1.5.88,1.5Zm-128.51-1.61a3.4,3.4,0,0,0,1.58-3.07c0-3.55-3.4-2.71-3.82.93-.34,2.94-.2,3.07,2.24,2.14Zm209.29-6a9.2,9.2,0,0,0-3,.29,6.4,6.4,0,0,0-4.34,3.54l-1.55,3,4.59-3.29c2.52-1.82,4.47-3.41,4.34-3.54Zm-183.06-.39a5.32,5.32,0,0,1-3.64-1.49c-1-1.23-.75-1.67,1.63-2.57l2.86-1.1-3.5-1.49c-2.58-1.1-4-1.21-5.24-.42a9.49,9.49,0,0,1-4.17,1.07c-3.2,0-5.59,1-5.59,2.25,0,.58,1.53,2.53,3.4,4.35l3.41,3.31,1.44-2.17,1.45-2.18,3.9,3.19c4.51,3.68,4.74,3.76,6.39,1.76S222.38,307.92,219.54,307.92Zm123.34,2.91c0-1.43-3.13-3.91-4.92-3.91a5.76,5.76,0,0,0-3.5,1.91c-1.66,1.83-1.69,1.93,1.09,3.31s7.33.57,7.33-1.31Zm47.57,1.69c2-2,1.76-2.82-.57-1.57-1.1.55-2,1.47-2,2,0,1.36.91,1.2,2.57-.46Zm-225.51-.1c.55-.34.94-.81.94-1.06s-.45-.44-1-.44h-.06a1,1,0,0,0-.94,1.06c0,.58.45.78,1,.44Zm118.41-1c1.07-.8,1.4-1.46.75-1.46-2.27,0-1.18-3,1.32-3.6a9.7,9.7,0,0,0,4.49-3.4,9.61,9.61,0,0,1,4.49-3.41c1.38-.35,2.51-1.28,2.51-2.06a3.33,3.33,0,0,1,1.74-2.41c.92-.54,1.39-1.3,1-1.68s-2.77,1.27-5.29,3.68c-4.41,4.22-6.93,5.56-10.82,5.78-1.55.08-1.72-.4-1.13-3.15.39-1.79,1.32-3.61,2.08-4.05,1.32-.77,2-3.7.83-3.7-.8,0-5.17,5.06-7.17,8.23a14.82,14.82,0,0,1-6,4.5c-2.35,1-4.29,2.31-4.29,3,0,1.91,3.72,1.48,5.19-.6,1.61-2.24,5.74-4.55,6.61-3.68.35.33.11.94-.49,1.33s-1.06,2.39-1,4.45c.15,4.12,1.72,4.81,5.15,2.21Zm36.88.06a1.79,1.79,0,0,0-.45-2.1c-1.65-1-5.9.48-5.9,2.09,0,2,5.59,2,6.35,0Zm50.71,1.42a.73.73,0,1,0-.06,0Zm-126.79-7.21c2.11-4,2.48-5.55,1.68-7-1.49-2.74-3.44-1.54-3.16,2,.16,1.94-.25,3.25-1.25,3.61-1.5.63-2.18,6.63-.74,6.63.47,0,2-2.32,3.47-5.14Zm-71.74,2.13c-.86-1.38-1.46-1.13-1.46.62,0,.86.44,1.28,1,.94a1.15,1.15,0,0,0,.44-1.56Zm75.93.16c.76-2.41,4.83-5.14,6.29-4.24a8.47,8.47,0,0,1,2.15,3.42c1.23,3.25,2.17,3.4,4.58.73a6.49,6.49,0,0,1,4.14-2,5.28,5.28,0,0,0,4-2.5c.95-1.38,2.28-2.5,3-2.5,1.45,0,5.45-5.11,5.45-6.91,0-1.65-3.7-1.31-4.36.41-.31.82-1.7,1.5-3.08,1.5-1.76,0-3,.87-4,2.87-1.71,3.3-5.38,4.76-6.26,2.48a2.69,2.69,0,0,1,.56-2.62c1.42-1.42,1.49-3.07.09-2.21a16.28,16.28,0,0,1-5.33.64c-4.19,0-4.41.17-7,5.17-1.48,2.84-2.67,5.73-2.67,6.42,0,1.94,1.81,1.47,2.49-.66Zm79.8.33c-1.65,1.73-1.62,1.76.61.61,1.28-.66,2.06-1.47,1.73-1.81S329.14,307.33,328.14,308.33ZM314.88,308c2-1.27.94-2.08-3.43-2.62-4.67-.58-6.47.42-4,2.23a6.94,6.94,0,0,0,7.43.39Zm41,0c0,1.25,1.11,1.25,3,0,1.25-.8,1.07-1-.75-1-1.25,0-2.25.45-2.25,1Zm-229.21-2c1.75,0,2.32-.48,2-1.71-.41-2.19-5.81-3-5.81-1s1,2.74,3.74,2.74Zm46.23-1.22c0-.9.26-.89.88.1s1.05,1.05,1.57.21a2.54,2.54,0,0,0-.51-2.62c-1.06-1.28-1.39-1.24-2.55.29-1.61,2.13-1.75,3.27-.4,3.27a1.16,1.16,0,0,0,1-1.25Zm19.95-2.3c0-1.39.67-2.79,1.5-3.1,2.28-.88,1.89-4.36-.5-4.36-1.47,0-2-.67-2-2.54a3.12,3.12,0,0,1,4.88-2.86c2.33,1.33,7.12.55,7.12-1.17s-.5-1.77-3.17-.34c-1.48.79-2.35.79-3.14,0a4.7,4.7,0,0,0-2.89-1.09c-1,0-1.8-.45-1.8-1,0-.93,4.14-1.52,8.25-1.17,1,.08,1.75-.31,1.75-.85s-.34-.91-.75-.82a10.42,10.42,0,0,1-3.5-1,6.82,6.82,0,0,0-5.37-.14c-2.86,1.09-5.38-.17-5.38-2.67,0-1.72-1.95-1.82-2.39-.12-.18.68-.85,2.86-1.49,4.86a9.48,9.48,0,0,0-.25,6l.9,2.39,1.28-2.75c2.5-5.41,5.42-2.53,4.33,4.28-.72,4.51.27,11,1.66,11,.57,0,1-1.14,1-2.54Zm-52-1a11.84,11.84,0,0,0-2.14-5.6c-1.6-2.25-1.83-3.2-.92-3.77,1.92-1.19-1.78-2.23-3.78-1.07-1.53.89-1.52,1,.09,1,2.19,0,2.21.86.07,3.22-1.58,1.75-1.49,2,1.7,5.33,4.05,4.16,5,4.32,5,.88Zm30.57.56c.34-.55-.08-1-.94-1s-1.56.45-1.56,1a1,1,0,0,0,.94,1A2.16,2.16,0,0,0,171.44,301.92Zm145.33-2.25c4.17-3.36,5.71-5.59,4.56-6.65-.36-.35-.86,0-1.11.65-.53,1.48-4.82,1.81-5.78.25s-4.22-1.18-4.89.58c-1,2.62-.71,2.81,1.4.91,1.1-1,2.33-1.49,2.74-1.08s-.72,1.94-2.51,3.41-3.25,3.24-3.25,3.93c0,2.33,4.78,1.26,8.84-2Zm-107.65-.61c2.84-.36,5.34-1.18,5.56-1.84.29-.89-1.47-1.05-6.92-.61a58.43,58.43,0,0,0-7.69.9c-1,.89,1,3.3,2.34,2.78a43.53,43.53,0,0,1,6.71-1.23Zm31.66-4.1c.67,0,1.21-.41,1.21-.91s.91-.67,2-.39a6.75,6.75,0,0,0,3.54-.08c2.55-1,0-4.65-3.31-4.65-2.34-.05-2.48-.18-1-1.05a3.53,3.53,0,0,1,3.68,0c2.16,1.16,8.22,1.37,12.8.45,2.7-.55,2.93-.93,3-5,.05-3.7-.24-4.4-1.86-4.4a9,9,0,0,0-3.66,1c-4.06,2.25-11.57,4.1-12.25,3-.4-.65-1.77-.83-3.33-.43-3.32.8-3.36,0-.16-3,1.38-1.27,2.5-2.78,2.5-3.34,0-2,2.89-2.19,3.52-.19.74,2.32,2.76,2.52,4.48.45a4.12,4.12,0,0,1,2.38-1.52c.62,0,2.19-1.13,3.48-2.5s3-2.48,3.71-2.48c1.61,0,10.36-4.69,12.4-6.62s-.08-1.81-4.75.27c-2,.91-4.11,1.57-4.59,1.46a4.06,4.06,0,0,0-2.5,1.23c-1.73,1.51-6.1,3.19-7.41,2.84-.42-.11-2.53.65-4.74,1.71s-4.9,1.69-6,1.4c-1.4-.37-2,0-2,1.11,0,1.95-4.89,9.6-6.13,9.6s-1.08-1.77.2-2.19c.58-.2,1.2-2.21,1.37-4.47a17.1,17.1,0,0,1,1-5.3c.4-.65.47-1.43.15-1.75s-.86.16-1.21,1.06a2.73,2.73,0,0,1-2.32,1.65c-2.35,0-4.1,2-4.1,4.64,0,2.9-1.39,3.75-3,1.8a2.65,2.65,0,0,0-2.42-1,3.68,3.68,0,0,1-2.9-.73c-1.47-1.08-1.49-1.51-.2-4,1.41-2.72,1.2-6.65-.36-6.65-.45,0-1.34,1.52-2,3.25s-1.41,2.66-1.66,2a1.46,1.46,0,0,0-1.91-.64,3.36,3.36,0,0,1-3-.69c-1.72-1.43-2-1.29-2.86,1.63-.69,2.21,1.56,5,3.2,4,.5-.3,1.95.56,3.22,1.92,2.2,2.34,2.22,2.47.35,2.47a5.19,5.19,0,0,1-2.93-.87c-.52-.49-3.08-1.15-5.7-1.49-3.75-.48-4.75-.3-4.75.84,0,2,3.2,3.52,9,4.2,3.19.4,5.47.16,6.4-.6,1.14-.95,1.65-.83,2.51.61,1,1.78,1.14,1.77,2.52,0,.79-1,1.79-1.62,2.51-1.18s.4,1.54-.93,3.23c-2.14,2.75-2.63,5.3-1,5.3.55,0,1,1.57,1,3.5,0,3.86,1.68,4.82,2.18,1.25.27-1.87,1-2.27,4.16-2.36,4.35-.12,6,1.93,3.14,4-1.16.82-1.51,1.79-1,2.62.62,1,1.33.65,2.94-1.35,1.17-1.46,2.67-2.66,3.34-2.66Zm47.1,0c-3.65,4.77-2,6.84,2.08,2.48,1.87-2,2.11-2.77,1.12-3.75s-1.64-.73-3.17,1.27Zm16,5a2.14,2.14,0,0,0,1.59-1c.34-.55-.09-1-.94-1s-1.56.45-1.56,1a1,1,0,0,0,.94,1Zm23.42-1.43c1,.37,1.4-.17,1.32-1.19s1.2-2.46,2.85-3.32,3.19-1.67,3.42-1.81.15-.52-.19-.86-1.87.27-3.42,1.34a42,42,0,0,1-6.06,3.35c-1.78.77-3.25,2-3.25,2.7,0,1,.49,1,1.93.25a4.84,4.84,0,0,1,3.4-.46Zm-203.74-2.3c-1-1-1.83.51-1,1.86.63,1,.87,1,1.2,0a2,2,0,0,0-.18-1.86Zm175.26,2.73a2.21,2.21,0,0,0,1.66-1c.34-.55.17-1-.38-1a2.21,2.21,0,0,0-1.62,1c-.34.55-.17,1,.38,1Zm-99.88-3h0a1,1,0,1,0-1-1,1,1,0,0,0,1,1Zm20.54-4.61c-1.36-1.79-1.44-1.78-1.47.86s1.28,3.68,2.38,1.89C220.68,293.59,220.27,292.36,219.48,291.31Zm-7.24-2.55a2.64,2.64,0,0,1,3.31.17c1.14.95,1.43.87,1.43-.43,0,0,0-.06,0-.1a1.74,1.74,0,0,0-1.93-1.52,3.32,3.32,0,0,1-2.58-1c-.36-.58-1.62-.75-2.81-.38-3.11,1-3.24,1.27-1.11,2.84a3.16,3.16,0,0,0,3.74.42Zm99.5-2.46c-1-1-2.76.53-2.76,2.35,0,1.57.13,1.56,1.69,0,.93-.93,1.41-2,1.07-2.31Zm-145.8,1.62h0a1,1,0,1,0-1-1,1,1,0,0,0,1,1ZM325.75,286c.25-.75-.13-1.13-.88-.88a3.13,3.13,0,0,0-1.75,1.75c-.25.75.13,1.13.88.88A3.13,3.13,0,0,0,325.75,286Zm-57.81-.58a4,4,0,0,1,2.12-1.5c.48,0,.88.68.88,1.5s.42,1.5.93,1.5c1.45,0,5.28-5.89,4.72-7.27-.38-.93-.51-.93-.57,0,0,.67-1,1.7-2.12,2.3-1.84,1-2,.86-1.39-1.46.36-1.41.26-2.54-.22-2.54-.89,0-7.35,7.35-7.35,8.42s1.77.55,3-.93ZM338,284.34c.93-1.13.68-1.39-1.27-1.39-2.29,0-4.82,1.6-4.82,3.06,0,1.13,4.87-.21,6.09-1.67Zm90.91.63c0-.91-4.18-1.67-14-2.57-3.58-.35-8.08-.79-10-1-15.73-1.72-18.1-1.86-17.47-.22s5.35,2.56,17.47,3.42a60.5,60.5,0,0,1,7.82.85c.75.72,16.18.23,16.18-.51Zm22.7-1.71a66.93,66.93,0,0,1,6.68-1.9,9.5,9.5,0,0,0,4.18-2,5.08,5.08,0,0,1,2.91-1.49,5.92,5.92,0,0,0,3.23-2,6.46,6.46,0,0,1,4.09-2,4,4,0,0,0,2.87-.94c.68-1.15,14-10.06,15-10.06.39,0,1.61-1.12,2.69-2.5s2.46-2.5,3.08-2.5,2.36-1.19,3.87-2.63a28.45,28.45,0,0,1,8.9-5.92,10.77,10.77,0,0,0,3.5-3.51c1.08-1.62,2.32-2.94,2.75-2.94,1.21,0,10.76-7.79,12.92-10.54,1.07-1.35,2.59-2.46,3.39-2.46s1.93-1.23,2.5-2.75,3-4.78,5.35-7.25c9.74-10.22,12.18-13.22,14.74-18.22,5.2-10.25,6.75-14.5,7.75-20.75s1-6.55-1.64-9.25c-1.47-1.53-3.63-2.78-4.81-2.78a5,5,0,0,1-2.88-.74c-1.12-1.11-11.73-3-13.79-2.5a2.71,2.71,0,0,0-1.81,2.82c0,3.42-3.18,9.42-5,9.42-.86,0-3.68,1.12-6.27,2.5-5.27,2.8-13.57,5.3-21.78,6.55-6.85,1-19.83,3.92-22.5,4.92-1.82.71-11.49,2.51-20.49,3.8-3.13.45-3.35.34-2.13-1.14a4.84,4.84,0,0,1,3.18-1.63,3.09,3.09,0,0,0,2.33-.83c.31-.46,3.12-1.41,6.31-2.11s6.92-1.65,8.3-2.1a54.67,54.67,0,0,1,7.5-1.49c2.75-.36,5.45-1,6-1.47s4.6-1.37,9-2,9.39-1.78,11-2.56,5.68-2.36,9-3.51c6.19-2.14,8.83-4.7,7.83-7.43-1.24-3.25-10-3.5-16.87-.5-1.1.51-4.47,1.62-7.5,2.51s-6.4,2-7.5,2.47a70.67,70.67,0,0,1-12,3.56,53.42,53.42,0,0,0-6,1.3c-5.44,1.45-6.54,1.38-5.86-.38.36-1.06-.09-1.5-1.64-1.5-1.87,0-2.12.39-1.59,2.52.42,1.64.06,2.67-.64,2.87S464.22,184,459,185.7s-10.5,3.13-11.67,3.13a13.43,13.43,0,0,0-5,1.46c-8.36,4.31-16.8,7.62-17.11,6.71-.45-1.35-7.41-.31-8.73,1.3-1.45,1.79-9.09,5.53-11.29,5.53a4.37,4.37,0,0,0-2.56.68c-.71.75-7,3.14-10,3.82-2.54.58-3,1.13-2.27,2.94a1.59,1.59,0,0,0,2,1,1.78,1.78,0,0,1,2.1.53c.46.73,1.35.57,2.83-.43,2.71-1.9,4.81-2,4.1-.1-1.5,4,9.84,1.92,17.5-3.16,1.86-1.25,4.19-2.25,5.19-2.25a3.08,3.08,0,0,0,2.35-.89,6.85,6.85,0,0,1,3.31-1.55c1.53-.37,7.15-2.44,12.53-4.61,10.27-4.16,16-5.2,13.77-2.51a12.48,12.48,0,0,1-4.62,2.58c-1.88.62-3.42,1.49-3.42,1.93,0,2.22,7.72,6.33,15.72,8.33,4.83,1.22,10.55,3.26,12.71,4.54,3.58,2.12,4.66,2.26,12.12,1.64,5.93-.49,8.4-.35,8.93.51,1.18,1.93-.55,2.84-7.37,3.93-3.51.56-7.14,1.72-8.08,2.56a6.12,6.12,0,0,1-3.38,1.54c-.93,0-2.21,1.11-2.83,2.48a7.57,7.57,0,0,1-5.82,4c-1.62.25-4.15,2.77-8.54,8.53a69.55,69.55,0,0,1-6,7.16c-7,4.63-15.5,11.64-15.5,12.53s1.52,1.3,4.84,1.3a40.73,40.73,0,0,1,9.75,1.49,34.54,34.54,0,0,0,7.53,1.5c2.65,0,5.71,2.32,4.17,3.32s-12,.25-13.48-1-11.35-2.06-33.81-2.77a201.12,201.12,0,0,1-20.08-1.54c-11.06-1.87-17.92,1-17.92,7.57,0,1.87-.45,3.67-1,4-1.66,1-1.14,2.23,1.25,2.9,1.23.36,7.88.8,14.75,1s13.25.68,14.17,1.06a89.22,89.22,0,0,0,11,2.08c15.73,2.33,19.25,3,21.33,4.25a4.83,4.83,0,0,0,3.5.6c.82-.32,3.3-1.2,5.5-1.95Zm-39.7-78.95c0-1.63,8.62-6.36,11.62-6.36,2.82,0,1.2,1.58-4.38,4.27-5.85,2.82-7.24,3.23-7.24,2.09ZM289,281.13c-2.54,1.58-2.73,3.09-.35,2.63a2.89,2.89,0,0,0,2.09-2.14C291,280,290.86,280,289,281.13Zm10.7,1c.29-.9-.3-1.22-1.85-1a3.58,3.58,0,0,0-2.72,1.67c-.3.91.29,1.23,1.84,1A3.54,3.54,0,0,0,299.72,282.09Zm6.16,1.83h0a1,1,0,1,0-1-1,1,1,0,0,0,1,1Zm-130.17-4.17a1.88,1.88,0,0,0-.27,2.2c.55.88.94.88,1.55-.12a2.37,2.37,0,0,0,.26-2.19C177,279.14,176.27,279.19,175.71,279.75Zm110.17-.39c0-.25-.45-.44-1-.44h-.06a1,1,0,0,0-.94,1.06c0,.58.45.78,1,.44S285.88,279.61,285.88,279.36Zm42.74-2.52c-1.57-.54-6-.3-6.4.33-.53.87,1.43,3.75,2.56,3.75a6.45,6.45,0,0,0,2.37-2A6.79,6.79,0,0,0,328.62,276.84Zm-163.67,0c-.86-2.2-.94-2.23-1-.31a4.63,4.63,0,0,0,.6,2.75c1.2,1.19,1.42,0,.42-2.44Zm181,1.73c25.53-1.59,25.25-1.55,27.65-4.22a9,9,0,0,0,2.25-5c0-2.73-2.33-4.19-4.26-2.66-.68.53-3.74,1-6.74,1.12a77.09,77.09,0,0,0-10.5,1.11c-2.75.54-8.53,1.64-12.84,2.45-9.94,1.87-11.43,3-8.43,6.1,1.22,1.28,2.45,2.17,2.74,2a98.24,98.24,0,0,1,10.13-.92Zm-148.54-1.09c1.85-1.4,1.79-1.5-1.09-1.5-2.3-.05-3.47-.77-4.82-3.05-2.08-3.52-4.1-3-3.17.88,1.15,4.78,5.36,6.48,9.08,3.67ZM313,278.92c.54,0,.93-.67.93-1.5s-.14-1.5-.39-1.5-.68.68-1,1.5-.14,1.5.39,1.5Zm-181-3.09c0-1.53-6.14-4.17-7.21-3.1-1.53,1.5,2.62,5.15,5.14,4.5C131,276.93,131.94,276.3,132,275.83Zm8.6,1.09c.21,0,.4-.67.4-1.5s-.47-1.5-1-1.5-.74.68-.39,1.5.78,1.5,1,1.5Zm150.81-3.16c-.79-1.28-2.42-.06-2.42,1.81,0,1.27.28,1.33,1.49.33.82-.68,1.24-1.65.93-2.14Zm-21.15-.68a15.93,15.93,0,0,1,3.75-1.14c2,0,.79-2-1.58-2.59a6.47,6.47,0,0,0-5,1c-1.39.91-2.87,1.45-3.28,1.19s-1.86.41-3.22,1.41l-2.44,1.85,4.5-.31a30,30,0,0,0,7.32-1.46Zm32.14,1.84a4.15,4.15,0,0,0,2.59-1.53c1-1.25.91-1.5-.77-1.5a2.88,2.88,0,0,0-2.59,1.5c-.34.87,0,1.5.77,1.5Zm-162.85-2c.24,0,.44-.45.44-1v-.06a1,1,0,0,0-1.06-.94c-.58,0-.78.45-.44,1s.82,1,1.06,1Zm183-2c.55-.36,4.24-1,8.19-1.36a52.76,52.76,0,0,0,9.91-1.67,35.77,35.77,0,0,1,7.32-1.5c2.52-.26,6.15-.71,8.08-1s6.88-1,11-1.59c8.36-1.19,17.84-4.46,19.76-6.83,1.14-1.36,1-5.55-.31-10-.42-1.41-4.78-4-6.72-4a5,5,0,0,1-2.35-1.48c-1.27-1.27-2-1.28-5.17-.1-7.8,2.9-17.59,4.56-21.5,3.65-3.72-.89-3.89-.79-10.95,6-4,3.79-8,7.16-9,7.47s-1.8,1-1.8,1.5-.68.94-1.5.94-1.5-.45-1.5-1c0-1.45-2.31-1.23-4.56.43-1.95,1.43-1.9,1.47.05,2.91s1.95,1.52-1.05,3.22a11.61,11.61,0,0,0-4.12,4c-1,2.19-.95,2.27,2.05,1.71a14.34,14.34,0,0,0,4.13-1.32Zm-125.27.36c1-1-1.33-5.4-2.93-5.4s-1.61.14-.36,3.43c1,2.53,2.08,3.21,3.29,2Zm102.51-.35a2.68,2.68,0,0,0,2.51-2c.39-1.49,0-2-1.38-2-1.05,0-1.91.18-1.91.41a9.84,9.84,0,0,1-.61,2c-.42,1.12,0,1.59,1.39,1.59ZM282,266.6c-1.28-1.28-2.58-.29-1.63,1.25a1.24,1.24,0,0,0,1.69.45c.68-.42.66-1-.05-1.7Zm-70,1.32a1,1,0,0,0,.94-1c0-1.18-2-2.4-2.67-1.73s.55,2.67,1.73,2.67Zm78.87-1.75a11,11,0,0,0-2-3.25c-1.92-2.41-2-2.19-.5,2.5.51,1.51,2.51,2.13,2.51.75Zm-175-3.62c0,1.33,1.18,2.52,1.85,1.85.28-.28,0-1-.67-1.7S115.91,261.92,115.91,262.55Zm110.54-3.63c-1.58,1.31-2,4.17-.78,5.38.82.82,2.1-1.95,2.21-4.76C227.94,258,227.69,257.92,226.45,258.92Zm10.5,2.41c0-3.1-.21-3.44-1.5-2.37-1.55,1.28-2,4.16-.83,5.33,1.5,1.47,2.33.42,2.33-3Zm6.68.12c.1-1.92-.19-3.49-.64-3.49-1.07,0-2.28,4.77-1.51,6,1.15,1.87,2,.9,2.15-2.55Zm60.85.42c.26-.44,2.26-1.07,4.42-1.44s4.47-1.31,5.11-2.09a4.4,4.4,0,0,1,2.93-1.42,8.87,8.87,0,0,0,4.12-1.79c3.21-2.4,13.4-7.21,15.27-7.21a2.78,2.78,0,0,0,2.16-1.07,5.92,5.92,0,0,1,2.57-1.78c1.75-.65,1.78-.87.34-2.93-1.6-2.28-5.84-3-6.95-1.22a3.44,3.44,0,0,1-2.61,1c-2.16,0-8.7,2.63-15.89,6.39-2.48,1.29-5.09,2.14-5.81,1.88a3.63,3.63,0,0,0-3,.93,22.1,22.1,0,0,1-4.54,2.63c-2.37,1-2.74,1.68-2.23,3.71s.16,2.67-1.9,3.45a6.3,6.3,0,0,0-2.52,1.35c0,.74,8.06.38,8.53-.39ZM173,261.92c.55,0,1-.67,1-1.5s-.45-1.5-1-1.5-1,.68-1,1.5.45,1.5,1,1.5Zm261.57-4.7c10.06-5.71,23.78-17.3,26.47-22.3,1.52-2.87-3.65-5.53-7.65-4a15.87,15.87,0,0,1-5.8.82,12.52,12.52,0,0,0-6.53,2,26,26,0,0,1-6,2.79c-1.38.34-4.43,1.23-6.79,2a32.55,32.55,0,0,1-8.3,1.39,18,18,0,0,0-7,1.54,10.25,10.25,0,0,1-4.2,1.33c-1.21-.2-4,.35-11,2.23-4.41,1.15-5.69,3.52-5,9.15.52,4.18-1,3.74,14.58,4.3a57.13,57.13,0,0,1,8.16.61c.77.79,17.17-.84,19-1.84Zm-295.51.7c.58,0,.78-.45.44-1s-.82-1-1.06-1-.44.45-.44,1V257a1,1,0,0,0,1.06.94Zm191.36-1.65c.35-.9.41-1.86.13-2.14-.64-.64-3.55,1.75-3.55,2.91,0,1.55,2.77.93,3.42-.77Zm-106.46-.92c0-1.3-2.1-4.43-3-4.43-1.35,0-1.2,2.36.24,3.8,1.25,1.25,2.8,1.63,2.8.63Zm25-1.93a2.16,2.16,0,0,0,1-1.56,1,1,0,0,0-1-.94c-.55,0-1,.71-1,1.56s.45,1.28,1,.94Zm-47-3a2.16,2.16,0,0,0,1-1.56,1,1,0,0,0-1-.94c-.55,0-1,.71-1,1.56s.45,1.28,1,.94Zm76.86-.39c1-.63,1-1.06.2-1.58-1.43-.88-4.06,0-4.06,1.44,0,1.24,2,1.32,3.86.14ZM294,246.57a49.21,49.21,0,0,0,9.77-3.62,50.72,50.72,0,0,1,6.89-3c1.44,0,12.41-4.78,13.51-5.87a3.8,3.8,0,0,1,2.1-1.12c1.3,0,9.71-4,11.62-5.5,2.33-1.86,10.1-4.64,13.18-4.73,2.41-.07,2.7-.43,2.19-2.43S353,218,354.58,218s4.27-3.43,4.27-5.43c0-.85-3.87-1.23-5.15-.51a3.07,3.07,0,0,1-2.84-.06c-1-.64-.65-1,1.54-1.5,5.85-1.24,9.45-3.55,12-7.55,2-3,2.43-4.82,2-7-.51-2.35-.34-2.81.86-2.35,2.07.8,3.53-2.32,2.93-6.32-.42-2.75-1.08-3.59-2.52-3.18a19.32,19.32,0,0,1-3.07-1c-5.44-2.07-10.75,1.72-7.65,5.46.94,1.13.9,1.55-.17,1.92-15.93,5.57-18.86,6.89-18.6,8.38.38,2.17-4.25,4-21.47,8.65a90.53,90.53,0,0,0-11.9,3.92,15.32,15.32,0,0,1-4.55,1.6c-2.3,0-7.25,5-6.61,6.74.52,1.34.76,1.31,1.86-.2.71-1,1.8-1.4,2.46-1l.06,0a1.44,1.44,0,0,0,1.94-.58c.89-1.43,22.1-8.69,29-9.92a126.58,126.58,0,0,0,24.4-6.72c2.83-1,4.22-1.14,5-.35,1.48,1.48-.16,2.4-7.22,4.06a38.1,38.1,0,0,0-8.67,3.14,12.43,12.43,0,0,1-4.81,1.8c-2.29,0-10,2.36-19.69,6a100.31,100.31,0,0,1-10.82,3.5c-2.48.51-3.17,1.09-2.72,2.26.62,1.61-1,3.22-3.21,3.22h0a1.13,1.13,0,0,1-1.25-1c0-.55.7-1,1.56-1s1.28-.45.94-1c-1.07-1.73-2.44-1.1-3.07,1.41a4.28,4.28,0,0,1-3,3h-.06a2.74,2.74,0,0,0-2.35,3.08c0,2.85,1.85,3.19,5.85,1.1,6.15-3.18,8.07-3.76,19.15-5.7a134.87,134.87,0,0,1,18.27-2.23c2.88,0,4.49.88,3.49,1.88-.71.71-13.51,3.18-16.26,3.18a39.05,39.05,0,0,0-7.5,1.56l-10.5,3c-8.08,2.32-10.5,3.52-10.5,5.21,0,2.8-5.17,8.65-7.17,8.12-2.17-.58-3.25.78-2.4,3,.55,1.42.79,1.43,2.34.08a13.42,13.42,0,0,1,5.34-2.16Zm49-26.67c0-.9,5-2.3,5.72-1.6a1.31,1.31,0,0,1-.1,1.42c-.69,1.18-5.62,1.28-5.62.18Zm22.27-32.59a2,2,0,0,1,1.92-.08c.8.32.44.57-.61.61s-1.64-.2-1.31-.53ZM255.28,238.1c-.37-3.17-1.06-5.11-1.73-4.89-1.57.51-2,8.56-.51,10.32,2,2.4,2.91.18,2.24-5.43Zm16.65,5.26c0-.86-.44-1.28-1-.93h0a1.13,1.13,0,0,0-.43,1.55c.86,1.37,1.46,1.12,1.46-.63Zm-41-3.42v-.07a1,1,0,0,0-1-1c-.55,0-1,.64-1,1.55s-.45,1.34-1,1c-1.09-.67-1.38.78-.38,1.78.75.79,3.38-1.73,3.38-3.21Zm165.23,1.62c1.77-.34,5.75-1.35,8.77-2.24s7.3-2,9.5-2.42c5.76-1.15,27.88-7,28.39-7.54.24-.27-.32-1.27-1.23-2.27-2.05-2.26-2.1-3.17-.2-3.17a3.43,3.43,0,0,1,2.47,1.87c.91,1.71,2,1.84,11.79,1.43,5.93-.25,10.93-.88,11.12-1.4a8.45,8.45,0,0,1,1.69-2.29,8.36,8.36,0,0,0,1.66-4.23c.29-2.75,0-3-6.6-5.13-3.8-1.23-7.66-2.92-8.58-3.75a5.65,5.65,0,0,0-2.88-1.5,18.49,18.49,0,0,1-4.92-1.89c-4.16-2.11-13.5-1.88-16.21.39a12.69,12.69,0,0,1-3.66,1.92,8.34,8.34,0,0,0-3.42,2.17c-1.67,2,.95,4.49,7.33,6.83,2.61,1,4.75,2.18,4.75,2.77s-.75.7-1.75.27a57,57,0,0,0-7.6-1.88c-3.31-.64-6.39-1.86-7.11-2.86-1.91-2.61-5.33-2-12.69,2.06s-22.87,15.59-24.2,17.91c-1.86,3.25,7.77,9.62,9.77,6.44C392.66,242.56,394.41,241.9,396.18,241.56ZM438,222.92a1,1,0,0,1-1-1c0-.55.2-1,.44-1s.72.45,1.06,1,.14,1-.44,1ZM281.42,239a6.71,6.71,0,0,1,4.52-3.58c2.06-.46,3-1.26,3-2.58,0-1.82-2.32-2.65-5.5-2-.55.12-2.85.33-5.12.49a17.6,17.6,0,0,0-5.13.89c-1.48.92-2.05,3.91-1.16,6.17.73,1.87.78,1.85.84-.26.05-1.25.5-2.25,1-2.25a9.33,9.33,0,0,0,2.5-.61c1.22-.47,1.58.06,1.58,2.33,0,2.57.64,4.28,1.64,4.28a11.92,11.92,0,0,0,1.82-2.92Zm80.23,1.7c2.3.13,4.47-.22,4.81-.77a3.56,3.56,0,0,1,2.7-1c3.57,0,29.8-18.11,29.8-20.58,0-.77-1.62-1.63-3.75-2a20.25,20.25,0,0,1-6-2.07c-3.31-2.07-11.76-.09-18.2,4.26-2.1,1.42-4.27,2.11-5.57,1.78a3.44,3.44,0,0,0-3.43,1,4.22,4.22,0,0,1-2.27,1.57,9,9,0,0,0-3.37,1.88c-2,1.53-2.17,2-1,3,1,.8,1.61.83,2.05.11a3.59,3.59,0,0,1,2.71-1c1.72,0,1.82.24.82,1.5a4.78,4.78,0,0,1-3.24,1.5c-2.73,0-9.95,7.33-9.18,9.33.68,1.79,4,2.64,6.92,1.79a25.18,25.18,0,0,1,6.19-.35Zm7.36-16c-.75.22-1.13-.16-.87-.95a3.13,3.13,0,0,1,1.75-1.75c.75-.25,1.12.13.87.88a3.13,3.13,0,0,1-1.75,1.75Zm4.94-3.27c0-.22.66-.66,1.55-1s1.3-.17.95.4c-.59,1-2.5,1.4-2.5.59Zm4-1.63c0-1.17,5.13-3.18,5.82-2.49s-2.92,3.48-4.57,3.48h0a1.12,1.12,0,0,1-1.23-1ZM242.06,240.92c.49,0,.89-1.16.89-2.57,0-2.47-1.35-3.36-2.44-1.59-.72,1.17.38,4.09,1.55,4.09Zm46.16-2.68c-.33.33.16.58,1.32.53s1.4-.29.6-.61A2,2,0,0,0,288.22,238.24Zm40.61.68a2.16,2.16,0,0,0,1.62-1.07c.34-.55.17-1-.38-1a2.21,2.21,0,0,0-1.62,1c-.34.55-.17,1,.38,1Zm14.44-2.86a8.43,8.43,0,0,0,.25-3c-.66-.67-8.66,1.15-10.28,2.33-2.57,1.88-.69,3.05,2.8,1.74,2.38-.9,3.21-.85,4.21.25,1.78,2.05,2.41,1.78,3-1.28Zm-107.58-1.17c.81-1.29.87-2.16.19-2.58-1.28-.84-3.93,1.33-3.93,3.16,0,2,2.33,1.67,3.74-.58ZM264,232.36a4.26,4.26,0,0,1,2.8-1.5c1.82,0,12.2-7,12.2-8.17a.93.93,0,0,1,1-.83c.56,0,3.91-2,7.45-4.5s7.06-4.5,7.82-4.5,2.36-1,3.55-2.32a18.5,18.5,0,0,1,5.68-3.68c2-.79,3.5-2.08,3.5-3a4.28,4.28,0,0,1,3.95-4c2,0,9.21-5.48,8.38-6.31a4.38,4.38,0,0,0-3,0c-1.41.36-2.35.08-2.35-.52s.34-1.15.75-1.15c1,0,7.25-1.45,15.25-3.45,3.57-.89,8.4-2,10.73-2.52a24.64,24.64,0,0,0,6.83-2.62c2.19-1.44,2.34-1.83,1-2.58-.87-.49-1.58-1.31-1.58-1.83,0-1.58,3.79-1.07,4.79.64,1.61,2.8,5.53,1.28,8-3.09a54.05,54.05,0,0,0,2.87-5.75c.34-1,1-1.75,1.44-1.75s1.45-1.08,2.13-2.38,2.05-3.74,3-5.4c2.2-3.87,6.77-19.57,6.77-23.26a7,7,0,0,1,1.5-4.32,6.09,6.09,0,0,0,1.5-3.69c0-2.07-.34-2.16-5.75-1.65-12.45,1.17-21.49,3-22,4.57-.33,1,.15,1.14,1.92.57,4-1.29,8-1.2,9.38.21a5.68,5.68,0,0,0,3.49,1.35c1.51,0,2,.47,1.8,1.75s-1.39,1.78-4.32,1.88c-2.19.08-6.13.48-8.75.89-4.15.66-4.7.55-4.15-.88.36-.93.11-1.64-.51-1.64s-1.41.72-1.75,1.61c-.66,1.71-9.71,6.38-12.4,6.38-2.22,0-6.4,4.6-5,5.47,1.79,1.11.14,2.54-2.93,2.54-2,0-3.48.85-4.94,2.9a12,12,0,0,0-2.07,3.93c0,.57-1,1.34-2.25,1.72a12.63,12.63,0,0,0-3.94,2.16c-2.1,1.85-8.81,2.31-8.81.61,0-.7,1-1.88,2.13-2.7,1.44-1,2-2.17,1.6-3.56-.3-1.13-.13-2.32.38-2.63,2-1.25-.57-2.63-4-2.14-2,.26-3.06.27-2.37,0,2.28-.9,1.29-2.05-1.33-1.55a4.59,4.59,0,0,0-3.2,2.09,15.55,15.55,0,0,1-3.17,4l-2.55,2.45,3-.7c1.65-.39,4.35-.94,6-1.23l3-.52-3.27,1.93a19,19,0,0,1-6.5,2.46c-4.54.56-7.95,2.06-10.09,4.43-1.25,1.39-1.46,2.23-.69,2.71,1.45.9-1.89,3.48-3.63,2.82-1.49-.58-4.78,4.2-3.89,5.64.43.69,1.54.57,3.35-.36a44.88,44.88,0,0,1,9-2.64c6.29-1.23,12.06-4.52,10.52-6a7.89,7.89,0,0,0-3.32-1.15c-2.49-.36-2.48-.37.7-2.08,4.17-2.25,6.3-2.18,6.3.18,0,1.65.55,1.83,4,1.37,2.49-.29,4.56-.06,5.49.71a4.93,4.93,0,0,0,4.26.53,53.89,53.89,0,0,1,12.69-1.86,21.89,21.89,0,0,0,7.16-1.39,10,10,0,0,1,4-1.16c1.05,0,4.05-.31,6.66-.68,3.94-.57,4.75-.42,4.75.89a2.81,2.81,0,0,1-1,2.18c-1.08.67-8.66,2.89-16.4,4.8-2.69.66-4.83,1.66-4.76,2.21.14,1.06-5.13,3.29-8.13,3.42a7.82,7.82,0,0,0-3.94,2.08c-2.12,2-2.12,2-.21,3.47,1.35,1,1.53,1.49.53,1.49-.77,0-3,1.22-4.85,2.67-3.14,2.36-3.41,2.92-2.86,6.36s.43,3.69-1.64,3.32c-1.49-.27-4.26,1.11-8.49,4.28-3.44,2.54-6.25,5.06-6.25,5.54a.92.92,0,0,1-.95.87c-.52,0-3,1.4-5.57,3.11-3.18,2.16-4.42,3.59-4,4.67.71,1.85-1.08,3.2-4.29,3.2a12,12,0,0,0-5.5,2.4c-3.57,2.67-7.68,4.21-7.68,2.87,0-1.57,5.37-5.92,10.25-8.29,5.12-2.5,6.32-4.5,2.22-3.71-1.36.26-2.73.11-3-.34-.66-1.06,3.3-3.18,4.53-2.43a3.43,3.43,0,0,0,2.73-.29l7.46-3.62c4.83-2.33,7.71-5,6.57-6.16-.16-.17-2.09.15-4.27.71-7.88,2-8.47,2.1-8.47,1.18,0-.51,4.16-2,9.25-3.26C304.47,194.5,310,191.21,310,188c0-1.64-1.5-1.39-10.41,1.73a38.86,38.86,0,0,1-7.78,2.08c-2.72,0-11.46,4.63-12.16,6.45-.45,1.18.11,1.55,2.38,1.55,4.72,0,3.46,1.56-2.28,2.89a21.54,21.54,0,0,0-9.06,4.56c-4,3.51-3.64,5.1.76,4,4.19-1.05,2.9.34-2.95,3.21-3.86,1.89-5.5,3.27-5.5,4.63,0,1.09-1.16,2.88-2.59,4-1.91,1.51-2.25,2.24-1.3,2.82a3.44,3.44,0,0,0,3-.13c2.44-1.31,4.11-1.16,3.61.32-.23.68-1.46,1.27-2.73,1.27-3.08,0-4.72,2.91-3.08,4.89s2.49,2,4.07.09Zm38-26.6c-1.38,0-1.94-.23-1.25-.58a4,4,0,0,1,2.5,0c.69.28.12.51-1.25.51Zm22-22.88c-2-1.26-1.19-1.65,5.39-2.44,4.12-.5,5.66-.39,5.19.37-.37.6-1.8,1.09-3.18,1.09a10.68,10.68,0,0,0-4.24.93,3.4,3.4,0,0,1-3.16,0Zm16-9c-2,1.26-4,1.26-4-.09,0-.56,1.24-1,2.75-1,2.14,0,2.42.24,1.25,1Zm-49.64-5.58c3.63-1.9,4.73-1.9,4,0-.34.89-1.84,1.49-3.72,1.49h-3.14ZM324,159.1c0-1.5,9.61-3.6,11.61-2.5,1.47.82,1.3,1.05-1.19,1.55-7.84,1.61-10.42,1.85-10.42,1Zm17-2.34c-1.38,0-1.94-.23-1.25-.58a4,4,0,0,1,2.5,0c.69.28.12.51-1.25.51Zm-5.45-5.82c-.29-.53.6-1.18,2-1.53,3.07-.77,5.31.27,3.31,1.54-1.78,1.13-4.6,1.13-5.3,0Zm8.14-.73c-1.43-1.43.69-2.36,5.12-2.25,2.58.07,3.79.34,2.69.6a7.84,7.84,0,0,0-2.95,1.38c-1.1,1.05-3.92,1.2-4.86.27ZM243.8,230.09c.19-1.32-.21-2.24-1-2.24-1,0-1-.27-.07-1.2a4.56,4.56,0,0,0,1.2-2.78,5.52,5.52,0,0,1,2-3.29c2.54-2.18,2.58-4.73.08-4.73-2.27,0-7.49,5-9.68,9.2-1.76,3.33-1.11,4.61,1,2.85s3.85-.29,3.11,2.64c-.5,2-.28,2.4,1.17,2.13a3.13,3.13,0,0,0,2.11-2.58Zm102.15.4c0,1.12,3,.27,5.14-1.61,2.36-2,2.36-2,.18-2-1.88,0-5.32,2.26-5.32,3.54Zm-90.59-5c-1.47-.56-7.41,2.14-7.41,3.36,0,.83,6.35.59,7.75-.3C257.36,227.45,257.27,226.18,255.36,225.45Zm32.65,1.4c1.09,0,2.54-1.27,3.44-3,1.83-3.56.84-3.88-4.71-1.56-4.28,1.79-6.47,4.12-4.58,4.88a4.58,4.58,0,0,0,2.62.1,13.5,13.5,0,0,1,3.23-.42Zm-32-5.09a3.13,3.13,0,0,0,1.75-1.85c.25-.75-.12-1.13-.87-.88a3.13,3.13,0,0,0-1.75,1.75c-.25.75.12,1.13.87.88Zm7.54-9.78c1.28-1.45,2.09-3.38,1.82-4.3-.33-1.07.22-1.9,1.51-2.31,2.38-.76,6.27-5.39,5.52-6.6-1.31-2.11-10.92,4.42-10,6.81.37,1-.81,2.71-3.11,4.71s-3.4,3.65-2.93,4.42c1.06,1.71,4.42.43,7.19-2.73Zm-11.85-4.56c-3,1-6.75,3.46-6.75,4.54,0,1.36,2.76,1.06,6.05-.64C254.58,209.47,255.14,206.33,251.7,207.42Zm-.26-3.51c.67,1.07,5.15-1.31,7.26-3.93,2.4-2.9,1.6-4.18-1.78-2.76s-6.42,5.1-5.48,6.62Zm62.05.08c.52-.44,3.47-1.35,6.47-2,4-.86,5.79-1.76,6.5-3.35,1-2.19,9.59-5.25,12.15-4.33,1.53.55,11.57-4.59,12.09-6.2.67-2.05-4.24-1.47-9,1.06a54.25,54.25,0,0,1-9.3,3.65c-5.84,1.56-17.9,7.19-21.45,10-2.34,1.86-2.37,2-.45,2a5.22,5.22,0,0,0,3-.81Zm-40.05-9.2a5.35,5.35,0,0,1,3.06-.87c2.15,0,7.49-4.75,7.49-6.66,0-.57,1.8-1.84,4-2.84,3.79-1.75,7.72-6.94,6-8-.44-.32-2.19.15-3.89,1a28.53,28.53,0,0,1-6.87,2.14c-4.59.73-10.28,4.83-10.28,7.41,0,1,.5,1.76,1.12,1.63a1.48,1.48,0,0,1,1.59,1c.25.68-.27,1.25-1.16,1.25-2.11,0-6.23,2.71-6.94,4.57-.44,1.13,0,1.31,2.17.81a10.64,10.64,0,0,0,3.67-1.51Zm3.73-6c.21-.73,1.68-1.47,3.21-1.65,2-.23,2.66.06,2.35,1-.22.73-1.69,1.47-3.22,1.65C277.55,190,276.88,189.68,277.17,188.76Zm-14.87,3.72c3.32-3.07,3.37-4.54.15-4.54-3.68,0-7.75,4.42-5.83,6.33,1.23,1.21,3,.68,5.68-1.79Zm37-5.8a21.7,21.7,0,0,1,5.9-1.34c6.79-.67,7.94-1.28,7.63-4.28a7.72,7.72,0,0,1,.39-3.75c1.33-2.14-2.18-5.41-5.8-5.41-1.89,0-3.44.52-3.44,1s-1.23,2.09-2.72,3.48c-3.87,3.59-2,5.16,3.75,3.16,4.27-1.46,6-1.35,6,.38,0,.79-3,1.71-8.33,2.55C295.23,183.65,290,185.93,290,188c0,1,6.74.05,9.32-1.28Zm-34-7.79c-3.6,5.76-2.9,7.51,1.8,4.34,3.4-2.35,4.85-4.45,4.2-6.13-.34-.78.45-2.17,1.66-3.08,1.45-1.1,2-2.25,1.55-3.37-1-2.59-2.72-2.06-4.94,1.51l-4.21,6.75Zm213.59-2a3.43,3.43,0,0,0,2.68-1c.34-.55-.29-1-1.39-1a3.44,3.44,0,0,0-2.61,1c-.34.55.28,1,1.38,1Zm-158.89-5.37c0,2.1,3.37,1.63,8.75-1.22,2.65-1.43,3.68-2.32,2.31-2s-4.41.86-6.75,1.21c-2.62.4-4.25,1.16-4.25,2Zm214-2.63H534a1,1,0,1,0-1-1,1,1,0,0,0,1,1ZM284.5,161.63l6.84-5.86c2.51-2.15,2.86-2.92,1.89-4.09s-.72-1.9,1.28-3.79a7.39,7.39,0,0,0,2.49-5.67,6.6,6.6,0,0,1,2-5.05,5.68,5.68,0,0,0,2-3.49,1.82,1.82,0,0,1,2-1.77c1.1,0,2-.45,2-1,0-1.34-.25-1.29-5.11.66-3.15,1.26-4.55,1.41-5.92.55s-2.11-.72-3.37.67a6.14,6.14,0,0,0-1.6,2.71,16.82,16.82,0,0,1-2.45,4.55,24.93,24.93,0,0,0-3.15,6.48,20,20,0,0,1-2.39,5.38c-3.38,4.94-5,9.27-4.38,11.65.75,3,2.69,2.52,7.87-1.93ZM290,151.36a1.6,1.6,0,0,1-1.58,1.59c-.88,0-1.41-.54-1.19-1.19C287.8,149.91,290,149.6,290,151.36Zm34-.65,3.5-2.23-2.77-.33c-3.1-.38-2.75-2.2.42-2.2a9.37,9.37,0,0,0,4.58-2,9.11,9.11,0,0,1,4.27-2c2.05,0,7-3.56,7-5.22s-9.89-.22-14.7,2.15A22.46,22.46,0,0,1,320.9,141c-1.57,0-6.95,3.92-6.95,5.06,0,.52,1.32.94,2.94.94,3.31,0,5,1.69,2.62,2.61-1.86.71-2.1,3.38-.31,3.38.69,0,2.82-1,4.75-2.23Zm-13.81-8.4c4.46-3.09,5.13-6.36,1.31-6.36-1.38,0-2.49-.34-2.49-.75,0-1,5-3.25,7.16-3.25,1.89,0,4.15-2.9,5.34-6.9.78-2.61.83-2.61-6.51-.06-5.55,1.94-6.52,2.62-6.21,4.34.14.89-.15,1.62-.86,1.62s-1,.76-.59,2.2-.25,3.29-1.88,5.44c-4.81,6.3-2.08,8.44,4.73,3.72Zm16.65-5.91a56,56,0,0,0,7.16-2.34,43.32,43.32,0,0,1,6.77-2.06c5.15-1.23,7.23-3.1,7.23-6.49,0-2-4.48-2.08-8.09-.2a27.74,27.74,0,0,1-6.33,2.06c-6.53,1.22-13.58,5.7-13.58,8.7,0,2.26-.16,2.25,6.84.33Zm-28.31-9.07c2.61-1.71,3.3-3.38,1.3-3.38-1.4,0-4.83,2.92-4.83,4.15s.75,1.06,3.53-.77Zm61.47.3a11.39,11.39,0,0,1,3-.58c.82,0,5.09-.71,9.48-1.54C380.37,124,383,122.41,383,119c0-2.27-3.61-4.19-6.51-3.46-1.49.36-2.49.19-2.49-.42,0-1.08,1.24-1.57,6.75-2.68,1.79-.36,3.25-1.26,3.25-2,0-1.06-1.95-1.26-9.25-.92-13.93.66-20.3,2.14-21.63,5.06-.9,2-.75,2.74.91,4.4l2,2-2.13,2.89c-1.18,1.62-1.84,3.4-1.47,4,.65,1,4.47.95,7.57-.18Zm-2-7.78c0-1,.16-1,4.41-1.25,1.61-.09,3.07.3,3.25.85s-1.47,1.07-3.67,1.15-4-.26-4-.75Zm-28,6.37c0-.85,6.24-2.7,12.24-3.7a15,15,0,0,0,6.3-2.82c2.2-1.94,2.49-2.4,1.26-4s-1.55-1.62-4.23-.22a30.46,30.46,0,0,1-8.71,2.14c-4.67.46-6.26,1.15-8.32,3.46-3.06,3.43-3.28,5.87-.54,5.87,1.1,0,2-.36,2-.78Zm-10.56-5.54a15,15,0,0,0,7.79-4.8l2.85-3.4-3.79-.5-3.79-.5,6-2.22c5.39-2,9.53-5.57,8.09-7-.94-.94-15,4.64-18.09,7.21l-3,2.45H319l3.5,0-6.25,3.71C312,118.15,310,120,310,121.28c0,2-.08,2.06,9.44-.63ZM304.86,119a14.22,14.22,0,0,0,3.87-4.44l2-3.46-2.18-.36c-1.9-.31-1.73-.56,1.32-1.93a22.17,22.17,0,0,0,6-4.25c2.09-2.26,2.25-3,1.25-4.61-1.61-2.61-1.68-4,.22-4s7.34-6.7,8.06-9.93a18.26,18.26,0,0,1,3.65-6.07,47.86,47.86,0,0,0,5.48-8.25c1.33-2.62,2.86-4.75,3.4-4.75,1.93,0,.93-3.87-1.07-4.52-2.82-.89-.91-3.12,3.93-4.57,3.59-1.08,8.51-6.41,7.51-8.08a3.83,3.83,0,0,0-2.7-.86c-2.16,0-2.15,0,.31-2a23.35,23.35,0,0,1,4.83-3c3.6-1.49,1.89-3.46-2.91-3.61s-7.15,1.27-9.52,5.85c-1.94,3.75-1.79,4.11,1.35,3.4l2.75-.62-3,2.58A24.63,24.63,0,0,1,334.2,55c-1.22.49-3.43,2.83-4.91,5.19s-3.9,6.09-5.36,8.29a202.23,202.23,0,0,0-10,18.5c-.37.82-2.81,5.79-5.37,11s-4.63,10.72-4.63,12.21a4.09,4.09,0,0,1-2,3.79c-2.44,1.3-2.77,6-.44,6a8.75,8.75,0,0,0,3.39-1Zm38.57-5.92c6.34-1.74,7.48-2.56,7.48-5.43,0-4.42-9.12-2.65-14.59,2.81-4,4-4.44,6.06-1.14,5,1.25-.36,4.95-1.46,8.25-2.36Zm20-5.13a93.17,93.17,0,0,1,12.91-1.29c7.06-.22,8-.45,8.89-2.45.69-1.57.61-2.64-.31-3.76-1.08-1.31-2.88-1.48-10.4-1-14.93,1-16.88,1.65-18.8,5.42s-1.54,5.44,1,4.63c.92-.29,3.92-1,6.67-1.57ZM347,102.28a5.5,5.5,0,0,1,2.75-1.38c.64,0,1.17-.19,1.17-.42a9.84,9.84,0,0,1,.61-2c.44-1.24-.09-1.58-2.56-1.58-1.89,0-2.92-.39-2.54-1a1.18,1.18,0,0,1,1.62-.4c1.06.65,4.87-2.3,4.87-3.77,0-.47-.7-1.14-1.55-1.47-1.72-.7-6.45,3.22-6.45,5.3,0,.71-.9,1.77-2,2.36-1.33.71-2,2.1-2,4.1,0,2.68.25,3,2.25,2.35A12.48,12.48,0,0,0,347,102.3Zm-21.72,0c5.88-3,6.63-3.35,8.45-3.35a4.75,4.75,0,0,0,2.92-1.12A16.17,16.17,0,0,1,340,95.52a15,15,0,0,0,4.24-3.84c1.64-2.2,1.76-3,.76-4.2-1.78-2.2-.53-3.5,3.88-4.2,4.61-.74,9-5.59,7.07-7.87-.87-1-.73-1.59.58-2.32,2.15-1.2,1.16-4.2-1.4-4.2-1,0-2.91,1.12-4.2,2.5-2.11,2.24-2.16,2.5-.51,2.5,3,0,1.08,1.09-7.21,4-9.79,3.42-11.92,4.75-13.41,8.35-.94,2.23-.81,3.12,0,3.62s.08,1.51-2.26,3.12c-3.11,2.15-6.63,7.45-6.63,10,0,1.32.7,1.22,4.35-.68Zm9.22-12.36c-2,0-2,0-.14-1.47a7.7,7.7,0,0,1,4-1.43c2,0,2,0,.12,1.5a7.61,7.61,0,0,1-4,1.43Zm8.61-16.57c3.85-2.67,4.82-4.34,2.55-4.4-.69,0,1-1,3.75-2.08,8.81-3.61,15.26-6.89,16.52-8.41A4,4,0,0,1,368.39,57c1.62,0,4.89-3.66,3.84-4.31-.45-.28-5.31.56-10.81,1.87s-11.21,2.62-12.68,2.91a6.46,6.46,0,0,0-4.1,3.28c-3.24,6.28-5.19,9.54-7,11.44S336.1,76,338.18,76c.63,0,2.85-1.19,4.95-2.64Zm2.81-35.95c0-.87-.54-1.4-1.19-1.18-1.85.61-2.16,2.77-.39,2.77a1.6,1.6,0,0,0,1.58-1.59Zm4.46-6c-1.63,1.23-1.68,1.5-.31,1.5A4.48,4.48,0,0,1,353,34.39c1.71,2.06,2.74,1.88,3.54-.63C357.61,30.26,353.88,28.76,350.39,31.36Zm83.86,457.42a6.49,6.49,0,0,1-1.26-3.41c0-1.08-.27-4-.54-6.46-.36-3.23-.23-3.93.43-2.5a14,14,0,0,1,1,4.55,6.4,6.4,0,0,0,1.15,3.62,4.45,4.45,0,0,1,.75,3.36c-.28,1.94-.53,2.06-1.53.82Zm-8.6.13c-.94,0-1.7-.47-1.7-1.05s-1.12-1.53-2.5-2-2.5-1.63-2.5-2.47c0-2.33,1.3-1.81,5,2,2.54,2.63,3,3.5,1.7,3.5Zm1.38-4.72c-1.12-4.72-1-12.75.28-14,.35-.34.64,1.59.64,4.31,0,2.88.66,5.89,1.57,7.19,1.71,2.44,1.6,6.33-.21,6.92-.66.22-1.62-1.66-2.28-4.42Zm14.14,1.52c.83.84.83,1.49.11,2.25s-1.26.57-1.72-.64C438.71,485.11,439.64,484.19,441.17,485.71Zm-2.38-5.82c-.21.63-.71.87-1.11.4A3.68,3.68,0,0,1,437,478c0-1.13.29-1.24,1.11-.42a2.54,2.54,0,0,1,.73,2.26Zm1.7-7.74.77-3.76.84,4.5c1,5.44.72,6.75-1.05,4.62C440.12,476.4,440,474.79,440.49,472.15ZM361.76,81.67c1.48-1.78,8.51-2.18,7.93-.45-.22.68-2.35,1.37-4.75,1.54C361.3,83,360.78,82.82,361.76,81.67ZM380,68.73c0,.49-.93,1.19-2.06,1.49-1.31.37-1.91.11-1.67-.63C376.7,68.15,380,67.4,380,68.73ZM368,42c0-1.23,4.88-2.6,5.71-1.74s.16,1.35-3,2.14c-1.75.44-2.75.29-2.75-.4Z" transform="translate(0 -0.03)"/></svg>