<svg id="Layer_1" data-name="Layer 1" xmlns="http://www.w3.org/2000/svg" viewBox="0 0 248.76 332.95"><defs><style>.cls-1{fill:#e4dd99;}</style></defs><path class="cls-1" d="M105.94,18.28c.9-.65-.49-2,.43-2.65C107.2,16.6,107.31,19.32,105.94,18.28Z" transform="translate(-0.14 0.01)"/><path class="cls-1" d="M101.13,18.35c1-.15,2.49-2,3.1-1C103.25,17.51,101.74,19.43,101.13,18.35Z" transform="translate(-0.14 0.01)"/><path class="cls-1" d="M56.25,53.23c-7.94.32-15.79.38-24.23,2.32,2.88-3.31,9.76-2.34,12-3.8-.61-1.13-1.58-1-2-2.61,1.74-1,3.66,1.56,3.41,3.09,3.31-.8,6.07.14,9.37-.64a10.19,10.19,0,0,0-4.69-4.23c3.91-1.47,6.66,4.33,9.29,6.06.84.57,2-.24,2.17.69,1.36-1.76.9-.11,2.63-.76C63.51,58,56,56.23,53,56.17a10.21,10.21,0,0,1-4.08.31c2.71-2.64,6-.42,7.4-3.24Z" transform="translate(-0.14 0.01)"/><path class="cls-1" d="M61.41,44.5c-1.14.7-1.87,0-2.65-.44C59.94,43.28,60.88,43.17,61.41,44.5Z" transform="translate(-0.14 0.01)"/><path class="cls-1" d="M70,55.19c-3.22.29-8.86-8.11-7.37-10.71C65.39,47.07,67.53,51.73,70,55.19Z" transform="translate(-0.14 0.01)"/><path class="cls-1" d="M87.73,36.9c.45-2.3,2.78-3.91,2.78-6.3,1-.3,2.54-2.15,2.88-.3a5,5,0,0,0-1.11,6c-.85.62-1.27-.15-1.92-.21,1.48,1.68,3.19,4,.32,5.28C89.71,39.82,88.51,39,87.73,36.9Z" transform="translate(-0.14 0.01)"/><path class="cls-1" d="M79.88,57.91c-3.35,2.07-2.29-4.3-5.35-4.48.82-4.12-2.48-9.19-5.48-11.7L70.48,41C75.37,44.72,76.83,53.48,79.88,57.91Z" transform="translate(-0.14 0.01)"/><path class="cls-1" d="M49.07,54.56c-1.12.22-2.91,2.53-3.35.53C47,54.43,48.39,53.36,49.07,54.56Z" transform="translate(-0.14 0.01)"/><path class="cls-1" d="M48.74,63.21c-.83,1.7-3.4.49-4.58-.63.57-.48.56-1.16,1.66-1.48C45.65,63.65,47.48,62.1,48.74,63.21Z" transform="translate(-0.14 0.01)"/><path class="cls-1" d="M82.81,44.87c-1,1.42-2.49-1.44-.75-1.44Z" transform="translate(-0.14 0.01)"/><path class="cls-1" d="M93.23,49.79c-1.76.52-2.26-2.94-4.35-1.36,0-2.63-3-2.85-1.51-4.12C89.81,45.65,93.28,47.2,93.23,49.79Z" transform="translate(-0.14 0.01)"/><path class="cls-1" d="M85,57c-1.29-.54-.27-.62-1-1.91,1.6-1.08,2.49-.26,3.6,0-.89-3.21-1.21-6.23-1.83-9.34a29.24,29.24,0,0,1,3,9.32c.4,2.29,2.68,5.16.59,7C87.76,59.13,86.65,55.3,85,57Z" transform="translate(-0.14 0.01)"/><path class="cls-1" d="M116.75,33.25c-.28-1-2.14-2.54-.28-2.88C117.6,30.69,118.59,32.72,116.75,33.25Z" transform="translate(-0.14 0.01)"/><path class="cls-1" d="M59.55,61.82c-1.15.69-2.27,1.3-2.88.3A2.66,2.66,0,0,1,59.55,61.82Z" transform="translate(-0.14 0.01)"/><path class="cls-1" d="M162,9.67C163.88,8.19,166,8,168,6c-.27,4.68-8,4.7-10.2,8.34-.32-1.46-1.46-.41-2.17-.68-1.16,1.73-4.41,6.25-6.41,5.15C152.5,15.14,156.13,9,162,9.67Z" transform="translate(-0.14 0.01)"/><path class="cls-1" d="M168.5,8.11c.4-.7,1.46-4.44,3.1-2.22C169.68,6.13,170,9.11,168.5,8.11Z" transform="translate(-0.14 0.01)"/><path class="cls-1" d="M80.55,53.28c.79,1.18-.38,1.76-1.16,2.43l-1-1.87C79.24,53.26,79.73,53.82,80.55,53.28Z" transform="translate(-0.14 0.01)"/><path class="cls-1" d="M173.26,5.67c1.12.32,3-1.58,5.76-.58-3,1.57-6.14,3.45-8.14,1.82C171.88,6.71,172.1,4.43,173.26,5.67Z" transform="translate(-0.14 0.01)"/><path class="cls-1" d="M55,68.44c-.78.32-1.61.92-1.92-.22l1-.49C54.35,68.17,54.78,68.06,55,68.44Z" transform="translate(-0.14 0.01)"/><path class="cls-1" d="M83.66,56l-.94.5-.5-1,1-.49Z" transform="translate(-0.14 0.01)"/><path class="cls-1" d="M189.1,5.86a14.64,14.64,0,0,1-7.22-1.09C184.34,4.56,189,2.83,189.1,5.86Z" transform="translate(-0.14 0.01)"/><path class="cls-1" d="M55.59,70.51c.26.37.69.37,1.19,0,.59,1.95,1.87,1.57,2.47,3.57a2.37,2.37,0,0,1-2.4.06c.51-.36,1.4-.62,1.19-1.22C57.09,72.2,53.88,72.21,55.59,70.51Z" transform="translate(-0.14 0.01)"/><path class="cls-1" d="M128.62,41c.17-2.21.53-6.46,3.26-6.54C130.76,36.59,131,39.19,128.62,41Z" transform="translate(-0.14 0.01)"/><path class="cls-1" d="M168.17,16.79c-.19-.91,3.2-2.68,3.81-2C169.88,15,169.31,18.84,168.17,16.79Z" transform="translate(-0.14 0.01)"/><path class="cls-1" d="M193.21,5.53C190,7.1,186.74,9.24,184.14,9,187,7.64,192.26,5.2,193.21,5.53Z" transform="translate(-0.14 0.01)"/><path class="cls-1" d="M91.19,57.47c1,1.38.43,2.25-.19,3.13C90.16,59.3,89.59,58,91.19,57.47Z" transform="translate(-0.14 0.01)"/><path class="cls-1" d="M186.61,12.62c-2.28,1.76-3.36-.3-5.28.33s-4.5,3.33-5.74,1.78C179,11.64,183.78,10.18,186.61,12.62Z" transform="translate(-0.14 0.01)"/><path class="cls-1" d="M102.49,57c-.3-1.68-2.08-3.81-.08-4.81C102.88,54,104,55.94,102.49,57Z" transform="translate(-0.14 0.01)"/><path class="cls-1" d="M198.31,6a17.07,17.07,0,0,0,6,2.3c-1.52.76-2.78.43-4.52,1.76l-1.25-2.39c-3.35.54-6.66.81-10.07,1.61C190.66,6.85,194.88,7.94,198.31,6Z" transform="translate(-0.14 0.01)"/><path class="cls-1" d="M104.1,53.17c.83,1.72,2.33,3.63.56,4.55C105.15,56.43,102.22,54,104.1,53.17Z" transform="translate(-0.14 0.01)"/><path class="cls-1" d="M134.76,45.7c-.29-3.15-.91-6.4,1.53-8.69C136.79,40.22,137.43,43.51,134.76,45.7Z" transform="translate(-0.14 0.01)"/><path class="cls-1" d="M62,77C60.2,79.5,59.31,76.2,62,77Z" transform="translate(-0.14 0.01)"/><path class="cls-1" d="M106.82,57.18c0-1-1.95-2.42.19-3.13a27.34,27.34,0,0,1,.26,15.65c2.68-1,3.36,2.12,3.88,2.83-2.12.81-3.65-1.22-4.12-2.11-.19,1,.69,2.35-.91,2.9.24-3.93-3-4.25-3.5-7.87,2.72-.93,2.44,2.09,3.18,2.6A47.25,47.25,0,0,0,106.82,57.18Z" transform="translate(-0.14 0.01)"/><path class="cls-1" d="M178.58,21.65c-1.61-.76-3.89.56-5.3-.87C175.29,19.51,179.12,19.06,178.58,21.65Z" transform="translate(-0.14 0.01)"/><path class="cls-1" d="M61.26,79.12c.75-.29,1.67-1.09,2.16-.52C63.1,79.55,62,80.15,61.26,79.12Z" transform="translate(-0.14 0.01)"/><path class="cls-1" d="M126.83,46.82a5.43,5.43,0,0,1,.81,5A6.55,6.55,0,0,1,126.83,46.82Z" transform="translate(-0.14 0.01)"/><path class="cls-1" d="M205.05,8.47c.67,1.73,3.94,1.73,3.2,3.8-1.78-2.4-4.72-1.06-6.78-2.54C202.66,9.3,203.65,9.55,205.05,8.47Z" transform="translate(-0.14 0.01)"/><path class="cls-1" d="M71.1,78.23c-.31,1-1.45,1.52-2.16.52C69.69,78.43,70.62,77.66,71.1,78.23Z" transform="translate(-0.14 0.01)"/><path class="cls-1" d="M39.7,98.23c-1.65.63-3,.12-4.33-.17C37.12,97.12,38.77,96.56,39.7,98.23Z" transform="translate(-0.14 0.01)"/><path class="cls-1" d="M35.89,100.25c-.91.29-2.14,1.68-2.41,0C34.46,99.57,35.33,99.43,35.89,100.25Z" transform="translate(-0.14 0.01)"/><path class="cls-1" d="M196.08,18c-1.32,1.21-1.88,0-2.66-.44C194.58,16.86,195.29,17.51,196.08,18Z" transform="translate(-0.14 0.01)"/><path class="cls-1" d="M112.88,79.49l-1.23-2.28c-.06-.87,1.79-1.08,1.4-2a1.46,1.46,0,0,1-1.87-.23c.94-.55-.08-1.67,1.4-2,.46.72.8,1.68,1.7.93-1-3.06,4.25-7.63.09-9.13,1.33-1.44-1.61-4.23.15-5.53,1.09,1.61,1.9,4.08,3.66,3.54.94,1.76,1.51,3.34-.16,4.34-.76-1,.14-3.36-1-3.12A22.68,22.68,0,0,1,112.88,79.49Z" transform="translate(-0.14 0.01)"/><path class="cls-1" d="M49.23,95.63c-1.65.18-3.46,1-5,.8C46.19,95.32,48.13,94.22,49.23,95.63Z" transform="translate(-0.14 0.01)"/><path class="cls-1" d="M142.25,48.43c1-.66,1.85-.77,2.4,0C143.64,49.12,142.8,49.24,142.25,48.43Z" transform="translate(-0.14 0.01)"/><path class="cls-1" d="M82.92,83.57c.24.6-3,.27-1.4,2,7.33-1.71,15.37-5.72,21.61-4C97.9,82.93,91,83.09,86.61,85.93c1.56-.1,3.35-1.36,4.56-.56-5.33,3.36-8.71.59-13,.7-.11-1.49-3.2-.68-1-1.91C78.58,85.43,82.47,82.43,82.92,83.57Z" transform="translate(-0.14 0.01)"/><path class="cls-1" d="M213.63,17.94c-1.12.95-3.45-.69-2.67-1.63C211.68,17.35,213.07,16.34,213.63,17.94Z" transform="translate(-0.14 0.01)"/><path class="cls-1" d="M78.27,89.65c1.56,2.23,4.11,1.3,5.37,4.48,2.47-.27,4.51.86,5.83,4.23C87.72,99,87.32,97.19,87,96c-1.31,1.21-1.65-.7-2.65-.43.69,1.14,1.3,2.27.3,2.88-1.15-1.86-2-4.75-4.15-3.3-1-1.91-1.86-3.46-2.46-3.57-.61,1.9-.78-.57-2.16.52.3.76,1.09,1.67.52,2.15-1.53-1.45-3.54-1.39-4.86-3.52L73,90C74.4,90.7,77.25,91.64,78.27,89.65Z" transform="translate(-0.14 0.01)"/><path class="cls-1" d="M101.66,79.9c-.54-2.07-2-1.13-2.92-2.13,2.05-.6,4.2-1.52,5.31.88C102.4,79.08,103,78.79,101.66,79.9Z" transform="translate(-0.14 0.01)"/><path class="cls-1" d="M154.34,53.11c2.48-1.86,6.3-.75,6.67-3.47-2,.8-4.25,2.47-5.51,1,2.45-.67,4.68-1.07,6.45-2.75,1.2,2.63-2.21,3.81-1.57,6.28-1.71.75-3,.35-4.57.55.17-2,3.49-.46,3.57-2.46C157.57,53,155.62,54.06,154.34,53.11Z" transform="translate(-0.14 0.01)"/><path class="cls-1" d="M35.21,115.13c-2,.6-4.46,3.08-6,2.5C31.53,116.24,33,114.09,35.21,115.13Z" transform="translate(-0.14 0.01)"/><path class="cls-1" d="M112,80c-1.16,1.17-4-1.87-2-2.61C110.44,79,111.59,78.32,112,80Z" transform="translate(-0.14 0.01)"/><path class="cls-1" d="M92.66,88.21c-.84,1.75-3.75,1.54-5.26,1.54C89.19,89.12,91.11,88.08,92.66,88.21Z" transform="translate(-0.14 0.01)"/><path class="cls-1" d="M108,82.67c-.54.37-1.06.73-.46,1.46-2.69,1.21-4.73.59-7,.59,1.75-1.33,3-.94,4.54-1.75-.44-1.18-1.67.16-2.18-.7C105.2,80.43,106.27,82.53,108,82.67Z" transform="translate(-0.14 0.01)"/><path class="cls-1" d="M117.53,80.11l-2.38,1.24c-.93-1.62-1-3,1.13-3.62Z" transform="translate(-0.14 0.01)"/><path class="cls-1" d="M50.09,114.62c-1.76.54-4.1,2.93-5.49,2.26C46.75,115.63,48.21,113.65,50.09,114.62Z" transform="translate(-0.14 0.01)"/><path class="cls-1" d="M94.17,92.27c-.78.33-1.62.93-1.92-.2l1-.5C93.45,92.05,93.88,91.93,94.17,92.27Z" transform="translate(-0.14 0.01)"/><path class="cls-1" d="M109.66,86c-4.27-.59-6.8,5-10.48,5.46a32.28,32.28,0,0,1,10-7.62A3,3,0,0,1,109.66,86Z" transform="translate(-0.14 0.01)"/><path class="cls-1" d="M40.19,128.27c-1.21-1.32,0-1.88.44-2.65C41.34,126.77,40.16,127.32,40.19,128.27Z" transform="translate(-0.14 0.01)"/><path class="cls-1" d="M153.22,71.83c-2.67.75-1.67,2.66-2.82,3.89a5.21,5.21,0,0,1-.08-4.81C151.11,71.73,152.79,69.8,153.22,71.83Z" transform="translate(-0.14 0.01)"/><path class="cls-1" d="M43.35,130.82a1.27,1.27,0,0,1-.77-.75,1.28,1.28,0,0,1,.74-1.64C44,129.43,44.14,130.3,43.35,130.82Z" transform="translate(-0.14 0.01)"/><path class="cls-1" d="M100.52,113.8c-2,1.19-7.36.41-7.45.85.26-1.23,2.64.43,1.41-1.94-3.14,1.1-4.46,5-7.86,4.69,1.74-2,4.27-3.7,6.16-5.63-1.89,1-3.28.38-5,.8C91.47,106.56,96.36,113.43,100.52,113.8Z" transform="translate(-0.14 0.01)"/><path class="cls-1" d="M50.89,136c-.86.52.5,1.75-.67,2.18-.78-.17-1.07-1.69-2.18-.69-.31-1.41-.93-3-.31-4.08C48.88,136.17,49.47,136.67,50.89,136Z" transform="translate(-0.14 0.01)"/><path class="cls-1" d="M145.31,84.83a2,2,0,0,1,2.32-1.61c.48,1.42-.35,3.43-2.11,2.93A2,2,0,0,1,145.31,84.83Z" transform="translate(-0.14 0.01)"/><path class="cls-1" d="M121.55,105.3c.76-.3,1.68-1.09,2.16-.52C123.36,105.73,122.26,106.32,121.55,105.3Z" transform="translate(-0.14 0.01)"/><path class="cls-1" d="M146.43,98.39a7.89,7.89,0,0,1-6,.1C141.88,95.73,144.88,97.5,146.43,98.39Z" transform="translate(-0.14 0.01)"/><path class="cls-1" d="M129.75,107.12,129,105.7c.58-.27,1.31-.79,1.67-.27C130,105.8,130.94,106.79,129.75,107.12Z" transform="translate(-0.14 0.01)"/><path class="cls-1" d="M161.45,105.12c-2.43-2.83-6.27-1.23-8.95-3.23C154.78,99.54,161,101.7,161.45,105.12Z" transform="translate(-0.14 0.01)"/><path class="cls-1" d="M118.78,126.72c-2.3.15-4.76.79-6.5-.85C114.54,125.84,116.88,125.43,118.78,126.72Z" transform="translate(-0.14 0.01)"/><path class="cls-1" d="M122.63,127.14c-1.15.71-1.87,0-2.65-.44C121.13,126,121.88,126.66,122.63,127.14Z" transform="translate(-0.14 0.01)"/><path class="cls-1" d="M124.12,129.66h0a3.83,3.83,0,0,1,.8,5.36c-1.88-1-.35-2.71-2.23-4.29.59-.35.33-1,1.18-1.23Z" transform="translate(-0.14 0.01)"/><path class="cls-1" d="M122.9,144c-.81-2.65-1.34-3.52-3.43-4.27,2.58-.17,3.13.68,3.8-2C124.23,138.72,123.7,142.22,122.9,144Z" transform="translate(-0.14 0.01)"/><path class="cls-1" d="M152.49,144.92l1.74,3.34C152,150.59,149.33,145.43,152.49,144.92Z" transform="translate(-0.14 0.01)"/><path class="cls-1" d="M158.65,149.61l-4.8,2.5c-.09-1.34,2.87-1.71,4-2.71.15-.43,1.68-2.24,2.38-1.24C159.28,148.52,159.49,149.28,158.65,149.61Z" transform="translate(-0.14 0.01)"/><path class="cls-1" d="M174.15,147a1.47,1.47,0,0,1,.23-1.93A1.5,1.5,0,0,1,174.15,147Z" transform="translate(-0.14 0.01)"/><path class="cls-1" d="M166.28,150.47c-.82.1-2.17,1.84-2.63.76C163.88,150.26,165.61,149.27,166.28,150.47Z" transform="translate(-0.14 0.01)"/><path class="cls-1" d="M167.74,150.92c2.5-1.78,2.39-2.38,4.74-3.68C173.05,148.89,169.38,151.29,167.74,150.92Z" transform="translate(-0.14 0.01)"/><path class="cls-1" d="M174,148.89c.55-1.63,1.06-1.08,1.88-2.18C176.79,147.71,174.88,149.78,174,148.89Z" transform="translate(-0.14 0.01)"/><path class="cls-1" d="M164.17,153.38a3.46,3.46,0,0,1,2.14-1.71C167.79,152.73,164.49,154.21,164.17,153.38Z" transform="translate(-0.14 0.01)"/><path class="cls-1" d="M167.34,156c-4.45,1.52-7.72,5.5-10.72,6.18C157.88,159,165.28,155.92,167.34,156Z" transform="translate(-0.14 0.01)"/><path class="cls-1" d="M179.76,150.72c-.83.1-2.18,1.84-2.64.77C177.4,150.52,179.07,149.53,179.76,150.72Z" transform="translate(-0.14 0.01)"/><path class="cls-1" d="M135.38,173.81c-1,.29-2.54,2.15-2.87.29l2.37-1.24Z" transform="translate(-0.14 0.01)"/><path class="cls-1" d="M130.67,177.5c-2.68,2-6,4.16-8.35,3.74C125.88,180.43,128.15,176,130.67,177.5Z" transform="translate(-0.14 0.01)"/><path class="cls-1" d="M169.28,157.39c-5.31,1.89-9.09,6.42-13.82,7.2C159.32,162.48,166.74,157.15,169.28,157.39Z" transform="translate(-0.14 0.01)"/><path class="cls-1" d="M147.88,171c-1,.29-2.54,2.15-2.88.29C146.14,170.56,147.26,170,147.88,171Z" transform="translate(-0.14 0.01)"/><path class="cls-1" d="M150,169.25C152.77,167.11,151.83,170.18,150,169.25Z" transform="translate(-0.14 0.01)"/><path class="cls-1" d="M182.24,155.49c2.81-1.46,5.25-5.24,8.81-5.19C187.74,151.66,185.74,155.52,182.24,155.49Z" transform="translate(-0.14 0.01)"/><path class="cls-1" d="M167.45,163.18c.82-.57,2.53-2.88,3.82-2C169.26,161.43,168.88,164.12,167.45,163.18Z" transform="translate(-0.14 0.01)"/><path class="cls-1" d="M139.85,180c-1.13.27-2.82,2.27-3.58,1.27C136.57,180.27,139.12,178.6,139.85,180Z" transform="translate(-0.14 0.01)"/><path class="cls-1" d="M184,157.63c2.91-1.48,5.25-5.2,8.81-5.2C189.46,153.79,187.46,157.66,184,157.63Z" transform="translate(-0.14 0.01)"/><path class="cls-1" d="M178.21,159.43C181,157.25,180,160.33,178.21,159.43Z" transform="translate(-0.14 0.01)"/><path class="cls-1" d="M170.13,164.82c.83-.09,2.17-1.84,2.64-.76C172,164.21,170.59,165.9,170.13,164.82Z" transform="translate(-0.14 0.01)"/><path class="cls-1" d="M165.4,168.49c-5,1.51-8.66,6.74-12.66,6C157.64,173.1,161.6,167.65,165.4,168.49Z" transform="translate(-0.14 0.01)"/><path class="cls-1" d="M196.64,152.85c-3.48,1.56-6,5.54-9.76,5.69C189.3,157.25,194.62,151.86,196.64,152.85Z" transform="translate(-0.14 0.01)"/><path class="cls-1" d="M141.53,180.93c2.71-1,6-3.93,8.35-3.76C148.49,178.61,143.39,182.17,141.53,180.93Z" transform="translate(-0.14 0.01)"/><path class="cls-1" d="M179,164.44c-3,2.16-.59.89-3.34,1.74s6-4.85,6-3.7C181.61,162.94,178.81,164.58,179,164.44Z" transform="translate(-0.14 0.01)"/><path class="cls-1" d="M169.72,168.68c-3.59,1.28,5-2.76.24.47-4.11,2.82-9.82,6.85-14.31,7.45C161,174.14,165.7,170.12,169.72,168.68Z" transform="translate(-0.14 0.01)"/><path class="cls-1" d="M172.63,170.79c10.2-4.45,15.81-12.54,25.7-15.81C190.88,160.34,181.63,167.25,172.63,170.79Z" transform="translate(-0.14 0.01)"/><path class="cls-1" d="M198.65,157.85c-.35,1-9.29,6.8-11.68,7.9C189.44,162.89,195.24,159.13,198.65,157.85Z" transform="translate(-0.14 0.01)"/><path class="cls-1" d="M149,183.71l10.5-5.47c2.73-2.21,10.57-6.63,11.92-6.21C164.75,175.86,156.34,181.36,149,183.71Z" transform="translate(-0.14 0.01)"/><path class="cls-1" d="M184.84,167.47c-3,.67-4.18,3.93-6.67,3.47C179,169.74,184.88,166.35,184.84,167.47Z" transform="translate(-0.14 0.01)"/><path class="cls-1" d="M198,162.43A186.91,186.91,0,0,1,171.52,178c11.14-6,19.47-13,30-19.24C201.6,160.54,199.15,161.59,198,162.43Z" transform="translate(-0.14 0.01)"/><path class="cls-1" d="M174.12,173.66c-4.81,2.2-7.61,4.92-11.42,7.15-2.84,1.67-6.65,4.27-8.6,3.27C161.16,181.11,169.94,174.55,174.12,173.66Z" transform="translate(-0.14 0.01)"/><path class="cls-1" d="M189.91,170.28c4.09-2.82,6.59-7.51,11.67-7.9.58-.2,1.31-.79,1.68-.26-12.26,9-26.55,16-40.71,24.22-2.35,1.37-4.73,4.57-7.87,3.5C166.71,182.81,179.65,177.43,189.91,170.28Z" transform="translate(-0.14 0.01)"/><path class="cls-1" d="M155.1,187.19a52.48,52.48,0,0,1,14.78-7.7C164.31,181.59,159.78,186.13,155.1,187.19Z" transform="translate(-0.14 0.01)"/><path class="cls-1" d="M205.74,164.48c-4,1.56-7,5.49-11,5.71C197.58,168.43,202.18,163.43,205.74,164.48Z" transform="translate(-0.14 0.01)"/><path class="cls-1" d="M185.25,176.4c1-.57,12.11-6.53,8.11-4.22-3,1.72-9.56,6.2-11.92,7.43-7.44,3.81-12.25,7.22-20.25,11.14-2.77,1.33-7.81,3.85-3.1,1l5.72-3C170.75,183.74,178.39,180.3,185.25,176.4Z" transform="translate(-0.14 0.01)"/><path class="cls-1" d="M169.08,189.6c-3.51,1.42-7.81,4.7-10,5.21C161.17,192.94,166.26,189.92,169.08,189.6Z" transform="translate(-0.14 0.01)"/><path class="cls-1" d="M169.91,195.84c-2.06,2.4-7,3.94-10.23,5.94,5-3.53,15.1-9.91,19.78-10.91C175.59,192.28,173.53,195.57,169.91,195.84Z" transform="translate(-0.14 0.01)"/><path class="cls-1" d="M141.09,211.43C143.34,209.06,146.48,210.75,141.09,211.43Z" transform="translate(-0.14 0.01)"/><path class="cls-1" d="M206.14,179.36c-1.94,1.11-3.17,2.78-4.29,2.23,2.43-2.79,7.14-4.92,11.43-7.16C213.14,176.83,208.74,177.92,206.14,179.36Z" transform="translate(-0.14 0.01)"/><path class="cls-1" d="M198.56,183.33c.2-.1,1.2-.43,1.2,0-.08,1.58-5.56,3.39-7.37,4.45-2.79,1.62-6,4.54-9.07,4.72C188.33,189.51,196.27,184.69,198.56,183.33Z" transform="translate(-0.14 0.01)"/><path class="cls-1" d="M168.32,200.88c-1.64.82-9.29,5-5.49,2.25,6.89-2.78,12.62-8,18.62-9.7A131.54,131.54,0,0,1,168.32,200.88Z" transform="translate(-0.14 0.01)"/><path class="cls-1" d="M153.27,208.19C150,209.1,147,214,144,212.43,146.75,211.27,152.53,207.21,153.27,208.19Z" transform="translate(-0.14 0.01)"/><path class="cls-1" d="M216.8,181.12c-.14.52-9.58,6.9-11.92,6.21C209,185.51,212.48,181.61,216.8,181.12Z" transform="translate(-0.14 0.01)"/><path class="cls-1" d="M167.71,207.93c-.07-1.79,2.42-3,3.55-3.67,4.46-2.88,9.78-4.52,14.55-7C180.88,200.56,173.56,203.9,167.71,207.93Z" transform="translate(-0.14 0.01)"/><path class="cls-1" d="M191.74,194.76c6.07-3,.48,1.2-2.86,1.49C190,195.7,190.63,195.32,191.74,194.76Z" transform="translate(-0.14 0.01)"/><path class="cls-1" d="M216.86,184.73c-3.59,2.72-10.35,6.67-14.08,6.72,5.09-3.3,9.8-6.75,16.19-9.65C219.43,182.71,217.88,183.91,216.86,184.73Z" transform="translate(-0.14 0.01)"/><path class="cls-1" d="M175.86,206.08c.82-.1,2.17-1.84,2.63-.77C177.66,205.43,176.31,207.15,175.86,206.08Z" transform="translate(-0.14 0.01)"/><path class="cls-1" d="M172.53,209l-4.76,2.48C166.75,209.88,172,207.7,172.53,209Z" transform="translate(-0.14 0.01)"/><path class="cls-1" d="M198.5,194.88c.84-.1,2.17-1.85,2.63-.77C200.31,194.22,199,196,198.5,194.88Z" transform="translate(-0.14 0.01)"/><path class="cls-1" d="M148.9,220.72c4.17-1.78,8.91-5.45,12.67-6C158.42,216.36,152,220.48,148.9,220.72Z" transform="translate(-0.14 0.01)"/><path class="cls-1" d="M205,194.5c-.28-.52.39-.77.72.23-3.25,1.21-8.78,5.89-12.87,6.7A84.81,84.81,0,0,1,205,194.5Z" transform="translate(-0.14 0.01)"/><path class="cls-1" d="M217.62,189.76c-2.57,1.69-6,2.89-8.57,4.47.18-1.83,3.1-3.25,5-4.41,2.3-1.39,4.83-2.39,7.15-3.72C221.57,187.67,219.11,188.82,217.62,189.76Z" transform="translate(-0.14 0.01)"/><path class="cls-1" d="M181.16,207c1.14-.26,2.82-2.26,3.59-1.26C183.61,205.92,181.88,207.91,181.16,207Z" transform="translate(-0.14 0.01)"/><path class="cls-1" d="M172.12,212.9c-1.33-1.4,3-3,3.57-2.47C175.38,211.51,173.46,212.1,172.12,212.9Z" transform="translate(-0.14 0.01)"/><path class="cls-1" d="M186.21,207.35c1.14-.26,2.84-2.26,3.6-1.26C188.66,206.32,186.94,208.33,186.21,207.35Z" transform="translate(-0.14 0.01)"/><path class="cls-1" d="M150.48,227.21c-1.48-1.2,2.24-2.73,2.62-2C152.82,226,151.69,226.63,150.48,227.21Z" transform="translate(-0.14 0.01)"/><path class="cls-1" d="M196.49,203.81c-.23-1.31,7.59-5.08,8.59-4.47Z" transform="translate(-0.14 0.01)"/><path class="cls-1" d="M192.18,204.85C195.45,202.43,194.47,205.48,192.18,204.85Z" transform="translate(-0.14 0.01)"/><path class="cls-1" d="M156.72,226.38c-1,.3-2.54,2.15-2.88.3l2.39-1.25Z" transform="translate(-0.14 0.01)"/><path class="cls-1" d="M207.21,200.05c4-3.12,10-5.62,15-8.41C221.26,195.52,211,199.5,207.21,200.05Z" transform="translate(-0.14 0.01)"/><path class="cls-1" d="M200.15,205c-2.4,1.31-4.85,2.93-6.46,2.76,4.68-2.71,7.41-3.88,11.19-6.44C205.43,203.15,201.88,204,200.15,205Z" transform="translate(-0.14 0.01)"/><path class="cls-1" d="M177.76,216.62l-1,.5c-1.35-.79.91-2.22,1.19-1.22C177.67,216.08,177.41,216.26,177.76,216.62Z" transform="translate(-0.14 0.01)"/><path class="cls-1" d="M178.47,219.25c-.87.38-2.13,1.73-2.4.05l1.91-1Z" transform="translate(-0.14 0.01)"/><path class="cls-1" d="M140.1,238.68c2.37-2.22,8.26-5.4,11.43-6C149.16,234.87,143.27,238,140.1,238.68Z" transform="translate(-0.14 0.01)"/><path class="cls-1" d="M205.88,204.43C208.65,202.24,207.69,205.29,205.88,204.43Z" transform="translate(-0.14 0.01)"/><path class="cls-1" d="M204.69,205.6c-2.42.46-3.19,3.48-5.24,2.73C200.41,207.5,204.8,204.19,204.69,205.6Z" transform="translate(-0.14 0.01)"/><path class="cls-1" d="M199.23,209.06c-1.35.81-2.48,1.14-3.35.53C197.13,209,198.53,207.87,199.23,209.06Z" transform="translate(-0.14 0.01)"/><path class="cls-1" d="M191.58,211.83c.76-.29,1.67-1.1,2.15-.52C193,211.6,192.05,212.37,191.58,211.83Z" transform="translate(-0.14 0.01)"/><path class="cls-1" d="M218.29,199.13c2.33-1.36,4.84-2.83,6.93-3,.23.62.43,1.2-.46,1.45-5,2.86-8.74,4.66-12.63,7.18C212.12,202.56,215.65,200.67,218.29,199.13Z" transform="translate(-0.14 0.01)"/><path class="cls-1" d="M178.06,223.14c-1.48-1.2,2.24-2.73,2.61-2C179.54,221.72,179.7,222.69,178.06,223.14Z" transform="translate(-0.14 0.01)"/><path class="cls-1" d="M195.93,213.2c3.82-1.59,8.25-5.1,11.68-5.48C203.8,209.31,199.41,212.79,195.93,213.2Z" transform="translate(-0.14 0.01)"/><path class="cls-1" d="M201.71,213.82c1-.16,2.5-2,3.11-1C203.88,213,202.31,214.84,201.71,213.82Z" transform="translate(-0.14 0.01)"/><path class="cls-1" d="M198.17,217.49l-8.11,4.22c-.87-.82,5-2.92,6.9-4.2.54-.46.8-2.86,2.14-1.72A1.49,1.49,0,0,0,198.17,217.49Z" transform="translate(-0.14 0.01)"/><path class="cls-1" d="M181.22,225.7l-1.42.74c-.51-.81-.07-1.36.93-1.69Z" transform="translate(-0.14 0.01)"/><path class="cls-1" d="M188.14,225.13c.35,1.34,1.64-2.28,2.64-.76C189.83,225,187.54,227.43,188.14,225.13Z" transform="translate(-0.14 0.01)"/><path class="cls-1" d="M184.17,229c-2.65.86-3.11,2.45-5.47,3.45C178.47,231,182.79,227.34,184.17,229Z" transform="translate(-0.14 0.01)"/><path class="cls-1" d="M208.73,216.88l-.95.5-.49-1,.94-.49Z" transform="translate(-0.14 0.01)"/><path class="cls-1" d="M203.24,219.09c1.3-.31,3.15-2.4,4.06-1.51A4,4,0,0,1,203.24,219.09Z" transform="translate(-0.14 0.01)"/><path class="cls-1" d="M199.43,221.08C202.19,218.94,201.23,222,199.43,221.08Z" transform="translate(-0.14 0.01)"/><path class="cls-1" d="M212.32,216.79c1-3.57,7.61-5.33,11.66-7.9C223.24,212.51,216.28,214.16,212.32,216.79Z" transform="translate(-0.14 0.01)"/><path class="cls-1" d="M191.09,226c1.76-.53,4.1-2.92,5.5-2.25C194.83,224.3,192.47,226.69,191.09,226Z" transform="translate(-0.14 0.01)"/><path class="cls-1" d="M191.11,227.26c-.87.33-2.14,1.69-2.4,0C189.68,226.59,190.56,226.43,191.11,227.26Z" transform="translate(-0.14 0.01)"/><path class="cls-1" d="M205.18,220.5c1.77-.1,2.31-1.59,4.77-2.49C211,219.64,205.8,221.81,205.18,220.5Z" transform="translate(-0.14 0.01)"/><path class="cls-1" d="M183.75,232.87l-1.42.75c-.51-.83-.08-1.36.92-1.7Z" transform="translate(-0.14 0.01)"/><path class="cls-1" d="M201.14,223.21c1.14-.26,2.82-2.26,3.59-1.26C203.58,222.15,201.88,224.14,201.14,223.21Z" transform="translate(-0.14 0.01)"/><path class="cls-1" d="M197.32,225.19c.83-.1,2.18-1.84,2.64-.76C199.13,224.53,197.79,226.3,197.32,225.19Z" transform="translate(-0.14 0.01)"/><path class="cls-1" d="M194,228.14c-1.86.48-2.86,3.31-4.78,2.48C189.69,228.92,193.88,227.22,194,228.14Z" transform="translate(-0.14 0.01)"/><path class="cls-1" d="M189.28,231.83l-5.71,3C182.74,233.07,188.38,230.58,189.28,231.83Z" transform="translate(-0.14 0.01)"/><path class="cls-1" d="M183.07,235.05c-1.15.69-2.27,1.29-2.88.29C181.2,235.08,182.72,233.19,183.07,235.05Z" transform="translate(-0.14 0.01)"/><path class="cls-1" d="M196.66,228.54c1.59-.45,3.78-2.74,5-2C200.06,227,197.88,229.32,196.66,228.54Z" transform="translate(-0.14 0.01)"/><path class="cls-1" d="M188.56,232.76c1.45-.38,3.47-2.59,4.54-1.77C192.76,231.76,189.29,234.73,188.56,232.76Z" transform="translate(-0.14 0.01)"/><path class="cls-1" d="M204.3,227c1-.15,2.51-2,3.12-1C206.45,226.15,204.94,228,204.3,227Z" transform="translate(-0.14 0.01)"/><path class="cls-1" d="M196,232C198.76,229.8,197.81,232.86,196,232Z" transform="translate(-0.14 0.01)"/><path class="cls-1" d="M194.34,233.41c.51-.27.77.4-.23.73a50,50,0,0,0-8.81,5.2C184.48,236.34,192.08,234.14,194.34,233.41Z" transform="translate(-0.14 0.01)"/><path class="cls-1" d="M204.62,229.88c1.45-.38,3.46-2.57,4.53-1.75C207.71,228.5,205.69,230.71,204.62,229.88Z" transform="translate(-0.14 0.01)"/><path class="cls-1" d="M208.46,230.28c.19-.62,1.54-.36,1.68-.27C211.05,230.67,208.27,230.9,208.46,230.28Z" transform="translate(-0.14 0.01)"/><path class="cls-1" d="M205.59,231.77c.84-.1,2.18-1.84,2.64-.76C207.41,231.13,206.06,232.87,205.59,231.77Z" transform="translate(-0.14 0.01)"/><path class="cls-1" d="M200.62,235c1.39.46-3.68,2.27-5,3.21C194.66,236.36,199.6,235,200.62,235Z" transform="translate(-0.14 0.01)"/><path class="cls-1" d="M194.88,239.15l-1.41.75c-.5-.82-.06-1.36.94-1.7Z" transform="translate(-0.14 0.01)"/><path class="cls-1" d="M190.62,241.37c-1,.3-2.53,2.16-2.88.3l2.39-1.24Z" transform="translate(-0.14 0.01)"/><path class="cls-1" d="M205.16,235.66c-2.75,2.16-7.67,7.49-11.67,6.69,6.63-3.61,10.88-8,17.63-11.61C211.25,233,207.64,234.16,205.16,235.66Z" transform="translate(-0.14 0.01)"/><path class="cls-1" d="M196.13,240.38l-1.43.75c-.51-.83-.07-1.37.93-1.7Z" transform="translate(-0.14 0.01)"/><path class="cls-1" d="M188.28,245.1l-.5-1,4.77-2.48C193.64,243.55,189.49,243.84,188.28,245.1Z" transform="translate(-0.14 0.01)"/><path class="cls-1" d="M196.24,246.36c-.5-2.16,7.6-6.73,9.29-5.43A63,63,0,0,0,196.24,246.36Z" transform="translate(-0.14 0.01)"/><path class="cls-1" d="M174.06,257.32c-1.54.27-4,3.27-4.79,1.27C170.83,258.43,173.24,255.29,174.06,257.32Z" transform="translate(-0.14 0.01)"/><path class="cls-1" d="M210.84,259.34c-.59.34-.34,1-1.19,1.21l-.74-1.43,1.47-.77.5,1Z" transform="translate(-0.14 0.01)"/><path class="cls-1" d="M220.55,261.6c-2.83.52-4.54-3.73-3-5.73C218.88,257.43,220.48,259.48,220.55,261.6Z" transform="translate(-0.14 0.01)"/><path class="cls-1" d="M227.26,261.72c-.63,1-1.94,1.79-2.84,2.7-.29-1.56-1.32-.89-1.72-2.14C224.13,262.43,226.22,260.37,227.26,261.72Z" transform="translate(-0.14 0.01)"/><path class="cls-1" d="M222.28,265c-1.31.81-2.56,1.41-3.13-.19C220.51,263.73,221.4,264.32,222.28,265Z" transform="translate(-0.14 0.01)"/><path class="cls-1" d="M229.84,272.53c-1.75-.09-.21-3.09-2.21-3.09-.62.47-.4,1.2-.94,1.7.36-2.84-2.14-4.47-2.5-6C226.27,266.91,233,269.25,229.84,272.53Z" transform="translate(-0.14 0.01)"/><path class="cls-1" d="M223,279.08c-.48.27-.37.71-.71,1-.32-.79-.92-1.63.21-1.94Z" transform="translate(-0.14 0.01)"/><path class="cls-1" d="M230.69,293.92a3.51,3.51,0,0,1,1.72,2.14c-2.08,0-2.73,1.1-3.57,2.46-.6-.73-3-2.2-2.21-3.09C228.16,296.71,230,295.53,230.69,293.92Z" transform="translate(-0.14 0.01)"/><path class="cls-1" d="M238.91,298.07c-.65.47-1.84.74-1.65,1.47,1,2,3.1.25,3.89,2.82-2,1.56-2.74-.57-3.88-1.62-2.2-.27-6.56-.19-6.76-2.53C233.25,300.72,236.57,296.43,238.91,298.07Z" transform="translate(-0.14 0.01)"/><path class="cls-1" d="M224.55,315.86c-4.21,2.07-4.11-5.7-2.28-6.7C222.48,312.07,222,313.43,224.55,315.86Z" transform="translate(-0.14 0.01)"/><path class="cls-1" d="M15.55,123c1.24,3,1.72.66,3.84.41q-1.89,9-12,15.35c-12-1.83-6.81-12.55-.57-19.71,3.23-3.7,6.18-4.8,10.45-7.86C23.16,107,25,99.44,30,97.28,31.55,87.72,42.31,78,54.92,76.43c-3.64-5.19-6.19-11.19-10.76-10.19-1.84-1.75-3.37-4.5-6.07-3.5-2.5,4.05-8.74,10.78-14.74,10.1a2.42,2.42,0,0,0-1.22-1.18c-1.13-6.06,2.49-10,6.25-14.78,1.8-2.25,3.05-5,4.47-6.56,5-5.54,13.09-3.7,20.37-6.36,6.41-2.33,12.23-5.88,17-7,4.29-1,8.62.11,12,1,1-4.1,4.5-5.53,7.07-8.53s3.71-7.29,6.32-10A43.87,43.87,0,0,1,110.83,9.07c5.4.36,9-4.64,14.32-6.25C134.78-.07,145.72,0,149.06,9.16c-3,9.59-16.07-1.41-24,4-2.23,1.52-4.13,6.76-5.13,9.94-.75,2.47.39,5.92,1.84,9.35.14,1.14-1.62,3.71-.42,3.85,1.9-3.37,6.25-4.46,9.5-7.37,1.18-1.06,1.58-2.88,2.82-3.88,2.06-1.68,4.93-2.67,7.38-4.45,5.28-3.87,9.6-9.78,14.45-13,9.33-6.16,15.21-5,23-5.9C184.1,1,189.1-.63,194.1.24c5.55,1,9.5,3.5,14.29,6.5,5.64,3.53,6.7,6.53,10.08,13.53,1.89,3.93,3.92,7,5.23,12.44-3.58,6.13-15.15,3.72-17.47-1-.44-.9-1.8-3.76.64-4.57.78,1.44-1.12,2,.06,3.6,2.11,1.93,7.16,5.63,10.9,4.63,2.26-.64,2.93-2.66,3.32-2.93.87-.64,2-1.13.19-3.13-.45,1.54-1.71,1.14-2.18-.69-.74-1.74,2.16,1,1.43-.74-1.37-1.16-2.8-2.11-4.14-3.3a4.74,4.74,0,0,1,.81,5c-1.14-2.21-2.65-4.56-2.77-6.45-3.32-.93-6.25-2.93-10.59-.55,1,.54.23,3.34,1.74,3.34,2-.83,2.2-2.22,4.52-2.95.62,1.69,2.31,1.62,4.1.89-1.64,2.11-1.63,6.86-5.39,7,.49-1.44,2.8-2.31,2.09-4.12-.75.29-1.67,1.08-2.15.5,2.94-1.16.65-2.35-.76-2.62-1,1.71-2.71,1.94-3.32,2.94-2.52-.87-3.58-6.07-6.58-5.66C190.1,24.05,188.32,29,180.77,34c-4,2.7-9,4-11.45,6-4.88,4.12-1.8,9-2.66,13.51-.34,1.77-2.25,4.38-3.25,6.54-1.67,3.49-1.85,6.49-4.67,8.49.49,1.6.09,5-1.85,4.6a15.08,15.08,0,0,0,.62-5.78c1.09-.59,1-1.59,2.61-2-.45-3.42,3.52-6.23,4.65-9.69,1.51-4.49-1.11-8.89,1-13.25,2.35-4.77,10-6.77,15.69-10.59s8.84-8.74,15-10.82c8.58-2.88,17.67.09,23.85,3.93-3.13-3.75-3.82-8.19-6-11.44-1.71-2.55-5.24-4.47-8.76-6.35-3.31-1.75-6.75-4.19-9.25-4.9-5.33-1.48-9.3,0-15.86,1-4.4.71-9.38.09-12.92.71-12.25,2.12-19.5,13.76-29,20-6.41,4.2-9.26,8.79-15.41,12.27-.81,1.11-.76,2.4-1.88,3.4-.6-1.35-1.57-1.2-1.92-.2l1.24,2.38a20.66,20.66,0,0,0-1.27,10.35c.09.73,1.06,1.39,1.24,2.39.3,1.91-.49,4.07-.15,5.53.86,3.7,3,7.72,6.64,9.27,1.28-1.08,2-.41,3.11-1,1.33-3.91-1.8-10.33-5.27-13.61,1.83,2,.66,3.13-.17,4.32,1.26,2.09,1.38,4.2,2.26,5.5-5.79-.06-2.31-7.19-3.79-10.75,2.54.13.43-2.51,2.35-3.65-1.36-3-.87-5.31-1.1-7.91,2.09,4.68,1.35,9.76,4.76,12.63.18-2.61-1.11-5.64-.6-8.16.46.66.74,1.84,1.46,1.66a10.79,10.79,0,0,1-.3-4.08c1.94,3.71.89,9.81-1.47,13.48,1.23,1.61,2.1,5.14,2.74,5.25,3.4-4.58,3-12.57,1.17-17.52-.81.8.81,2.38-.19,3.12-1.05-2.62-1.43-5-.59-7,.36.52.62,1.41,1.22,1.19-2.55-9.71,5.22-18.29,14-23.09-2.75,3.65-4.8,7.52-4.61,12.1,2.74-1.67,4.27-4.33,8.57-5.67.34-2.68,2.81-6.81,5.16-7.53-.78,2-3.75,3.32-3,5.81,1-.15,2.5-2,3.11-1-2.56,2.59-6.18,4.91-7.32,8-.55-1.24-1.5-1.16-2.42-1.16-.48,2.24-2.7,3.93-2.79,6.3-1.23,1.35-1.17-1.39-2.4,0,.5,1.36-.39,2.27-1.39,3.15-.49-5.6,2.3-12.29,3.1-16.16-3.09,3.25-6,6.61-6.56,10.69-1.23-.74.29-2.44-1-1.91-4.09,6.37-.71,14-.65,20.93,3.45-2.63,2-8.48,5.85-9.71-1.61,4.23-3.42,8.23-5.08,12.34a71.54,71.54,0,0,0-5,18.38c-.17,2.85.35,6-1.78,8.2-1.54-1.2,1.32-3-1-3.11-1.88,2.21-.38,3.82.12,7.21,1.25-.4-1.39-2,.68-2.18,3.68.73-.61,8.29,3.52,9.08.18-1.14.94-2.08-.06-3.6.94-.33,3.41.8,3.59-1.26-3.06.16-1.58.31-.27-1.69-.46-1.07-1.81.67-2.63.77-1.14-2.66.4-4.42-.6-7,2.62-2.66-.15-7,3-9.44,4.18,9.82,14.38,14,20.53,5.82.72,2.75-2.43,4.29-5.43,5.85a17.49,17.49,0,0,1-.09,9.14c-1.72,1.65-3.24,1.28-4.05,2.71,6.7,3.36,15.3,1.29,20.82,8.56,3,3.88,4.54,8.21,8.35,12.56-3,8.84-15.52,6.25-20.63,2.25-3.78.23-6.83-1.8-10.83-1,1,7.76,4.1,16.17,6.65,24.42,1.31-.17,3.62-3,4.31-1-5.21,1.83-5.61,7.08-1.77,9.4-1.95,1.57-2.74-.56-3.88-1.61.87-4.93-1.81-6.59-1.6-10.08-2.56-.26,1-1.83-2-2.6,1.78-2.77-1.91-7.25-1.85-10.55-.26-.36-.69-.37-1.21,0-.48-2.29.59-6.18-1.56-7.66-1.59,1.36.31,3.16.56,4.55,1.42,8.33,2.42,16.66,6.42,25.14-1.16.43-1.74,1-1.41,1.94,4.11-1.09,0,2.5,3.64,2.34-5.05,2.4-8,5.46-12.85,7.91-1.81-3-4.39-3.54-7-4.22,1.19-1.67,2.23-.86,4.28-2.23-.42-1.46-1.72-3.2.42-3.85,1.06,2.53-.7,8.47,3.75,8.34-.93-.91-3.06-2.93-.79-3.83.62,3.51,1.66-.63,2.85-1.49.75.7.92,3.11,2,2.62,1.14-2.21-1.53-3.62-.32-5.29,2.17,1.69,3.63,0,4.85,2.33.4-1.9-2.25-2.25-3.43-3.07-4.94-7.79-10.35-14.33-16.41-18.73-1.47-3.49,2.54-10.34-2.83-11.24l1.24,2.37c-1.62,1.72-.12,3.94-1.12,4.84-3.53-.5,1.09-2.71-1.53-5.27-6.69,0-8.43-3.58-13.31-5.78-1.33,3.24.22,9.06,2.09,11,.4.8-1.18,1-.93,1.71,2.37,3.83,3.22,7.54,5.48,11.69s6.7,7.87,6.7,12.87a18.39,18.39,0,0,1-4.42-6.19c-1.4.21-4.06.61-3.63-1.13-.74-1.75,2.56-.24,1.66-1.47-2.14-.89-3.82-3.86-4.66-5.47-.23,1.65-1.84,2.87-1.84,4.6-.69-2.51.2-4.45.85-6.51-2.81.61-1.36-4.14-3-4.51-1.72,2.37-1.84,5.26-3.24,7.74-1.3-4.52,1.58-7.74,3.9-11.12-4.14,2-2-2.33-4.36-2.57-3.26,2.2-2,7.91-4.42,9,.2-4.73,2.76-11.59,8.2-12.16a9,9,0,0,0-2.42-1.17c-.17.66-2.51,2.61-3.34,1.74,2.59-3.11,5.52-3.66,5.16-7.54a86.22,86.22,0,0,0-9-5.62c4.26-1.3,8.26,4.9,11.12,3.9C95.56,104,79.82,100.44,63,100.16c.39.55,1.21.56,0,1.19-14.06-2-28.55,16.17-41.55,16.8,2.25-1.37-1-.12-1.23-1.18l5.25-2.74c7.69,2.16,17.2-8.43,25.76-12.2-1.28.76-2.72.55-4.79,1.28s-4.48,3.56-6.22,2c1.45-.73,4.76-.85,5.25-2.73-5,2.19-10.84.89-14.84,4.08,2.51,1.36,6.64-2.49,9.12-1.1-3.24,2.06-7.35,2-9.8,3.29-3.9,2-6.83,5.73-10.44,7.86-.83.44-2.91,2.52-4.33,1,5.87-2,11-7.48,13.3-10.55-1.21.42-2.18.18-3.59,1.26,2.59,1.17-6.76,6.93-5.23,3.93-7.3,1.48-12.77,8.48-15.87,13.72,6.21-6.29,15-4.51,20.84-4.19,8.22.43,15.7,1.62,24.47-3,3.71,1.69,6.57-.49,11-2.1,5.22-1.94,11.51-.38,15.35-1.94,1.07-.43,2-2.33,3.32-2.94,3.21-1.5,6-.16,8.15-1.82.11-.09-.81-1.28-.74-1.44.39-.88,3.79-1,3.09-2.2-2.46.12-5.2,1.26-7.46.84.84-.8,3.75-.91,2.37-2.45-10.9,1.77-24,14.29-33.45,12.58.51-.36,1.4-.62,1.19-1.22-2.18.37-2.37,1.85-4.31,1l5.24-2.73c5.6,1.69,13.08-2.65,20.36-6.37-.27-1.16,2.43-2,.43-2.65.71-.74,3.11-.92,2.62-2-2.32.51-5.09,2.63-7,1.8,1.76-1.73,4.91-1.21,5.24-2.73-8.1-.34-14.44,5.7-21.72,9.49-1.94,1-5.12,1.59-7.64,2.78-6.1,2.91-11.32,5.83-15.32,4.33,3.5-1.36,6.08-5.16,9.3-4.23a11.72,11.72,0,0,0-4.74,3.68c3.08-1.2,3.91-3,6.91-4.2,1.41-.93-.5,2,1.21,1.18a169.65,169.65,0,0,0,20.48-11.88c-2.89-.48-6.49,1.22-9.37.64,4.69-3.06,9-1.15,12.44-4.06,10.7,1.82,21.7,2.72,31.14,8.59-3.24.58-5.28-2.63-9.37.63,1.69,5.22-7.61,1.72-10,5.22,5.69,5.8,15.35,5.13,23.35-.64,1.57,1.62,4.19.2,5.57,2.54-.72,1.52-4.62,3.27-4.53,1.77C97.51,122,94.42,125.4,96,130.71c2.76,9.35,10.92,15.11,15.67,17.29,5.42,2.44,12.12,9.06,14.69,1.44-3.47-5.74-.36-8.52.75-12.52.62-2.2-.46-4.06,1.35-5.55,2,.85.29,3,1.29,4.79a36.54,36.54,0,0,1,8.07,8.53c1.21,1.89,4,4.95,1.55,6.46-2.38-4.51-6.4-10.65-10.33-14,.9,2.62,4.19,5.14,5.9,7.83,1.51,2.37,4.1,5.52,2.29,7.9-2.21-3.92-5.68-10.26-9.35-13.31-4.83,4,2.74,9.6-1,13.24-4.72,4.62-11.2-.38-15.46-4.07-6.35-.18-14.71-9.35-17.35-17-2.46-7.13,3.49-11.39,9.35-15.78-2.73-.47-5.32,1.88-8.12,3-8,3.14-13.17.7-19.74-3.06-7.5,2-14.05.92-22.24,4.92,5.77,5.51,8.56,16,3.45,19.41-1.51,1-6,1.42-7.94,1.12a27.5,27.5,0,0,1-6.3-2.79c-4.45-3.29-7.83-10.44-11.07-15.44-6-.18-12.07-.5-18.27-.18,1.11,1.09,1.88,3.27,3.18,3.8,1.54-1.46-3.2-3.36-.78-3.84Zm-8.67,11.1c.34,1.57-.44.9-1.66,1.46C6,137,7.68,135.34,8.37,137c.84-2.42,6.12-3.39,4.47-6.57.71-.59,1.09-.09,1.44.46,1.55-1.26-.87-1.59-1.26-3.59,1.35-1.32,1.52,1.12,2.19,1.9.87-2.53-1.47-3.31-2.75-6.46-2,1.38-3.2,3-2.8,5.1-1.94,0-2.7,1.11-4.29,2.23.61,1,2.11-.84,3.11-1-.06.64-.84,1.06-.21,1.93-2.76-.74-2.6,2.52-5.26,1.52-.6-1.25,1.37-1.67,1.63-2.67-1.95-.95-2.45,1.89-3.56,2.46.91,2.72,2.78,2.87,3.18,3.79C5.4,135.5,5.24,134.52,6.88,134.11ZM88.25,39C91,43.43,94.18,46.43,98,47.29c3.52-.79.63-5.08,1.58-6.28,1.2-1.53.56.21-.5-.95-1.85-2-2.46-7.34-5.46-10.49,1-3.82,2.22-7.55,7.52-10,.19.85-1.28,1.19.05,2.4-1.12.56-1.83-.11-3.12,1,.22,2.58-2.3,4.32-2.48,6.75.82,3,2.65,4.47,4.22,8.1,1.54-4,3-8,1.71-13,1.12-.49,1.3,1.92,2,2.61,3.34-5.64,5.24-13.7,12.49-16.77.93,2.28-3.12,4.56.32,5.28-2.67,1-4,2.5-6,3.71,2.29,2.59-2.07,3.08-.15,5.54,2-.53,2-1.77,3.56-2.47.63,2-2.64,2.36-3.8,3.19-.73.53-.29,1.37-.45,1.45-2.21,1.64-6.43,2.14-5.93,4.91,1.05-1.27,3-2.21,5-3.21.35,2.24-2,3.61-4,5.11,2.07-.25,4.46-1.44,6.46-1.55-1.33,2.63-6.44,4.08-8.06,6.63,1.07.81,3.1-1.38,4.54-1.76.31,2.9-7.16,2-6.16,5.63,1.52-1,2.34-2.23,4.52-3-.72,1.8-3.67,2.84-5,4.41,1.3,1.5,1.21-.54,3.11-1,.24,1.41-2.16,2-2.59,3.16,1.48,1.07,1.89-1.48,3.33-1.73.86-.23,0,1,1,.7,4.58-2,8-4.38,10.22-7.13-.87,5.08-6.73,6.58-12.58,9.58-1.17,1.45,1.93-.41,2.63-.77.3.95-.25,1.52-1.41,1.95.6,1,2.11-.81,3.11-1,.78,1.31-3.42,1.05-1.64,2.67,2.84-2.36,3.61,1.94,6,1.1,2.25-1.28,2-3.34,4.25-4.64.37,2.25-1.6,3.75-3.27,5.35,1.72,2.08,3.87,2.8,5.37,5.68.82-.91-.55-2.57.66-3.38a3.08,3.08,0,0,1-3.16-2.59c.73-2.24,1.89-2.15,2.82-3.89-.55-.79-.77-2.64-1.94-1.42,3.27-2.52.49-9.78,3.86-13.52C115.35,20.4,123.33,9.33,137,3.33c-2.78-1.51-9.17-.07-13.68,1.67a25.87,25.87,0,0,0-8.09,5.43C106.69,8.94,97,19.62,93.83,25.24c-2.24,3.93-9.79,8.88-9.18,13.88,1.67-.18,2.28,2.12,3.61-.06Zm16.24-6c-1.1-1.32-1.86,0-1.9,1.09.7,1.14,1.69-.71,1.91-1Zm7.81-19.8c1.1,2.56-3,3.56-3,5.83,2.39.06,2.86-3.92,5.21-5.14l-.5-1A2.56,2.56,0,0,0,112.3,13.17ZM54.46,69.33c1.89-.12-.15,1.76,0,2.4,4.9,5.84,7,13,13.22,14.92C74.78,84.26,80,87.86,86,89.26c-.09,2.8,3,5.11,4.91,5.93-2,1-3.39-2.14-6-2.31-3.2-5.6-9.69-5.65-16.2-5.49-5.56.13-9.23.19-12.91,4.3-2,.79-3.4-.2-5.06-.4C46.57,93,41.16,93.76,37,95.37c-2.86,1.1-4.66,3.21-6.91,3-3,3.61-6.27,7-9.69,10.49,3,.35,7.17-3.2,11.94-5,1.87-.69,4-.72,6-1.3,2.29-.67,4.17-2.1,6-2.5,5.77-1.32,11.67-.17,16.56-2a66.87,66.87,0,0,0,14.89.71c5.56,2.2,11.52,3.1,17.39,4.29.63-2.12-1.39-5.13-3-6.93,2.59-1.89,3.17,2.62,4.87,3.53,6.88,2,16.47-4.61,14.47-11.77.84-.94,1-2.08,2.84-2.7-1.22-1.18-2.87-1-4.12-2.09,2.6-2.44,3.82.67,5.32,2.07,3.4,3.19,6.57,8.29,9.11,12.84,1.38-3.07-2-6.45-4.24-9.32s-5.1-5.37-6.62-8.06c2.26-2.1,2.67,1.63,4.12,2.09,2.77-1,3.83.82,6-.09,6.54-2.68,5.42-12-1.2-16.28-1.61-7.91-9.15-14.27-15.86-14.16-2.64-3-6.06-3.53-9.44-4.18-.15-2.72-2.69-1.5-4.37-2.56-3.4-2.16-6.29-5.81-10.21-6.81-5.39-1.42-15.82.46-23.26,4.22-.89.46-2.08,1.82-3.08,2.22-5.79,2.23-13,1.25-18.19,4.62-4.62,3-8,10.37-11.31,14.37,6.47-2.79,12.62-4.72,17.47-2.46,3.09,4.5,8.28,5.07,11.23,9.94C54.88,71.12,53.49,69.89,54.46,69.33ZM133.15,6.54c.73,1,2.23-.83,2.37-1.23-.69-1.06-2.23.81-2.37,1.24Zm4.34,1.37c-2.22-1.84-8.87-.88-9.33,3.09,5.05-3,8,.78,12.49-.45-2.09-3.39,1.95-3.29,4.25-4.63-1.61-.41-3.58.39-5.51,1C139.42,5,143,5.71,143,4.46c-.76-1-2.45,1-3.58,1.26-.2-.71,1-1,1.66-1.47C140,2.4,138,3.56,137,4.56c1.61.21,1.54.55-.46,1.45.86.62,2.37.64,1,1.91Zm-33.1,20.27c2-.35,3.83-4.12,4-6.31-2.31,1.81-2.16,4.37-4,6.32ZM33.12,63.54C28.58,62,26.72,68,27,71.54c4.4-2.61,6.23-6.06,9.23-9.06-.65-.91-2.18,1-2.65-.43-.46.38.17,1.12-.46,1.45Zm-9.29,6.59c1.53.16,1.71-3.43,3-4.61-2.1-.38-3.27,2.93-3,4.62ZM146.39,7.49C146,8.82,145,7.74,143.53,9c.52.88,1.75-.49,2.18.7.15.57-.79.81-.46,1.44-1.88.67-2.74-1.91-4.08.31a10.1,10.1,0,0,0,5.53.19A7.64,7.64,0,0,0,146.39,7.49Zm-41.86,28c-.39-.45-1.12.16-1.45-.45-1.74.38-.37,1.77-1.16,2.43,1.4,1,1.21-1.74,2.62-2Zm-42.84,49a74.09,74.09,0,0,1-5.4-6.88c-7,1.16-20.17,5.7-20.46,13.08,5.41-3,9.79-2.42,14.79-4.07-2.13-2.61-5-3-8-2.52,3.32-3.75,7.57.49,10.38,2.49,2.68-1.22,4.55-.08,7.2-1.33-3.56-1.87-5-3.21-9-4.42,3-2.22,7,2.9,10.4,3.68ZM35.53,91.33c-2,.37-3,3.37-4.25,4.63,1.75.33,2.65-1,4.07-1.5,7.38-2.73,14.66-3,22-5.39-6.13-.36-14.3.85-21.84,2.28ZM61.64,86.8a23.17,23.17,0,0,0-6.49.36c2.05.25,4.06.6,6.49-.35ZM22.36,110.29C19.71,109.94,20.06,113.47,22.36,110.29ZM9.6,124.21c-.81-1.16-5.52,2.93-6.89,4.2,2.23.15,4-3.29,6.89-4.21ZM128.72,73.64c.2-1.09-.07-3.24-1.24-3.59-.49.38,0,.62.25.48.18.54-.39.71-.7,1,.28,1.57,1.3.89,1.7,2.14ZM48.11,122.36c2,.11,3.29,4.32.78,3.83-.19-.59.34-.51.48-.25.22-2.25-2.71,2.16-3.63-1.14-.16,1.82,2.64,5.08,4.41,5,.64,1.38.16,2.44.78,3.83,1.3.11,3-1.19,3.86.41-2.4,1.62.65,1.24.75,1.44.92,3.69-5.49-.22-6.08-3.51-3-.89-5.78-5.45-6.64-9.26-1.39.67-.36,2-1.64,2.67-1-1.11.5-1.44.68-2.17-1.92-1.23-2.82.81-3.08,2.21-1.11.49-1.26-1.87-2-2.61-1-.19-2.25.41-3.12-.19-.94,4.54,3.89,7.32,6.66,10.46,1.84,2.08,3.32,6.63,6.09,4.73-1.45-2.06-.36-3.27-1.53-5.27,2.29,1.13.88,4.51,3,6.92,2.67.79,5.77.21,9.11-1.11-.92-2.32,1.74-6.85-.59-7a3.86,3.86,0,0,1,.93-1.69c-.81-2.47-2.34-2.68-3.2-5-1.15,1.15-.17,1,.51,2.15-1.15.71-1.87,0-2.65-.43-.16-1.11.64-1.93,1.64-2.67l-2-3.82c-.61-.21-1.46.4-1.94-.21-.77,2.45-4,1.36-5,3.21.44,2,2.23-.31,3.36-.53Zm68.22-38.63c-.52.36,0,1.08.27,1.68.83-.22.56-.9,1.18-1.22C117.45,83.74,116.74,84.36,116.33,83.73ZM136,77.16c1.7,1.17,1.3-3.27-.74-1.4.53.22,1.42.92.74,1.43Zm-21.7,10.7c-.47.23-.66-.38-1-.68-1.56.29-.88,1.32-2.14,1.72.46,1.07,1.81-.67,2.64-.76.3,1.55-2.65,2.06-3.07,3.41,1.71.52,4.74-1.94,3.54-3.66Zm5.72-3c-3-.45-2.52,2.84,0,0Zm5.08,1.6c1.22-1.8,0-2.31-.34-4a11.23,11.23,0,0,0-5.9,4.89c.37,1.74,3.84-1.47,2.84-2.7,1.56-.73,2.66,0,3.4,1.87Zm9.5-8.61-1,.5.5,1,1-.5Zm.51,3.4c-.66-2-2.82-.52-1.92,1l1.91-1Zm-19.83,8.45c-5.18,4.23-8.39,9.07-14.44,13-.76-.89.18-1.3.93-1.69-2.33.21-3.33,2.27-4.33-.17-2.15,1.91,1.83,3.57,2.94,3.32,2.72-1.41,3.55-3.4,6.65-4.68,2.16.72,3.16,5.19,5.16,6.41,1.45-1.77-2.47-7-3.75-8.36,2.11-1.61,3.29-.35,4.58.65,2-1.24,5.28-2.06,5.22-3.93-.82-2.12-3,3.62-5.49,2.25.32-1.76,5-2.16,4.5-4.16-.92-1.42-3.55,3-6.67,3.47C110.33,93.25,117.36,92.94,115.27,89.72Zm8,3.77c2.54-1.75-1.75-4.84-1.56-6.49-.38.81-1.54,1.43-1.16,2.43,1.78.77,1.29,1.49,2.71,4Zm-26,11.69c1.24,1-3-2.31-2.25-4.31-.77.81-.32,2-.91,2.9a5,5,0,0,0,3.15,1.39ZM139.39,79l-1.91,1c.27,1.72,1.46.36,2.4,0ZM127,86.68c-.16,1.64-.55,3.29,1.06,5.52C127.79,90.43,128.63,87.56,127,86.68Zm13.6-6.47c-.22,1.13-2.62,1.57-2.84,2.7C138.88,83.59,141.44,81.43,140.61,80.21ZM134,83.69c-.81.57-.7,1.4,0,2.4A2.35,2.35,0,0,0,134,83.69Zm3.32,1.88c1.62,1.19,1.86,2.8,3.86.41,0,1.19-1.3,2-2.84,2.69-.72,3.62,2.18,4.1,4.18,5.71,6.65-1.33,8.09-6.76,5.82-12.11-3.21-.29-3.11,1.61-6.21,3.23-.13-1.4,3.2-1.65,1.87-3.4-1.57.69-1.57,1.91-3.57,2.46-1.16-1.56,2.84-1.49,1.39-3.15-1.37.53-4.13,4.58-5.26,1.53-.57,2,.05,4.27.34,6.49C138.29,88.51,136.26,86.55,137.3,85.57ZM107,100.74l-1.43.74c1.7,3.4.3,7.25,2.56,9.57,1.83.47,1.1-2.29,2.59-3.16ZM103.93,103a10.4,10.4,0,0,1-4.76,2.48c-1,.7,4.28,2.08,5.82,3,.51-1.56.14-3.41-1.06-5.5Zm15.26-7.93c-.8,1.19-3.2,1.92-3.8,3.19,1.24.57,3.42-1.58,4.79-1.28Zm-3.06,4.63a5.73,5.73,0,0,1-4.09-.89c-.74,1.22,1.53,3.42,2,5,2-1.75,7.48-2.43,7.14-4.92-1-2-3.62,1.36-5.05.79Zm12-6.19c-1.12-.82-1.5,1.63-2.89.29-.43.78-1.65,1.33-.43,2.65,1.25-.2.46-3.28,1.91-1,1.48-.39.41-1.51,1.41-2Zm7.41-3.31c-1,.77-1.49-.33-2.63.77.35.51.31.9,0,1.2,1.08,0,2,.54,3.13.19-.52-.82.05-1.33-.52-2.16Zm1.38.45C135.88,88.59,138.63,95.55,136.88,90.63ZM123.14,99a2.51,2.51,0,0,0,.22,1.7c-1.59,1.26-2.45.25-4,1.51,1.41.65,3.26.4,5,.4,4.75-.08,8.6-.78,13.17-5-2.13-1.09-2.46-.11-4.36-1.37-4.48,1.21-4,5.3-7.35,5.64,1.65-2.75,3.72-5.51,6.86-6.59s6.45,1.61,9.14.08C136.07,92,128.46,94,123.07,99ZM120,112.68c-3.08-.69-4.48-7.45-1.6-8.9-1.81-2.24-1.28,1.92-2.63.76-.7.53,2,1.87-.44,2.65-1.75.74,1-2.16-.75-1.42-2.82,2-4.65,4.58-3.73,6.79,2,4.77,12.72.89,15.47,5.27,2.58-.8,5.16.87,7,.61s3.42-1.84,6-2.51a27.92,27.92,0,0,1,12-.19c3.19.78,6.11,3,9.19,3.69,5.19,1.15,11.05,1.79,12.69-3.57-4.38-6.19-8.61-14.66-14.94-17-2.14-.78-5.33-.54-8-1.31s-4.72-2-7.27-2.27c-4.07,2.17-10.55,5.24-7.07,8.53,1.25-.61.41-.66,0-1.2,2-1.18,3.15.13,4.81-.08,3-3,7.68-4.19,10.53-3.06-1.66,1.86-5.53-.06-8.85,2.8,2.73,2.26,6.27,2,9.19,3.69,1.41-2.58,4.77-2.11,6.24-.83-.61,1.44-3.59-.39-5.51,1.06,5.52,2.28,11.07,4.49,16.23,7.9-.11,1.64-3.56-1.91-3.11,1-1.48.23-.11-1.85-1.48-2.85-1.59.69-.28,2.3-.67,3.37-1.86-1.19-3.43-3.46-5.6-3.75-.16-1.5-1-4-2.93-3.32-.36,1.28,1.64,2.21,2.46,3.56-1.38.61-2.46.23-3.15-1.39-1,.76,1,2.45,1.26,3.59-2.14-.37-3.23-4.07-5.14-5.21-1.28-1-1.7,1.8-2.13,1.72-.72-.06-2.43-4-2.72-4-3.35.31,3.11,3.21,1,4.31-1.37.69-1.85-4.89-2.94-3.31l2.73,5.24c-2.56-.25-4.12-3.77-5.88-6.64.06.86-1.79,1.07-1.41,2-2.52-.69-3.64-.89-4.64-4.25a8.26,8.26,0,0,0,.86,7.44c-.93.8-1.16-.55-1.93-.2-.48-3.64-1.36-8.84-5.9-7.84-2.39,2.44-2.14,5.7.16,9.61-3-.35-2.81-3.66-3.72-6-1.37,1-2.25.4-3.12-.2,1-1.27,3.8-.4,3.8-3.19-4.29-1.76-7.55,2.68-4.43,9Zm24.13-7c-1.46-2.56-3.9-2-6.08-2.3-2,1.65,2.52,2.85,2.67,1.65,1.28-.26,1.67,2.31,3.38.66Zm-21.91,12.61c-1.7-2.21-4.43-1.12-6.78-1.32,1.75,1.7,5.21,3.2,6.75,1.34Zm-14.06,7.93c.77-.81.62-1.93.17-3.12-1.47.61-.9,1.85-2.37,2.45.52.87,1.75-.49,2.17.69Zm39.38-17.47c1.45,1.17-.41-1.93-.79-2.62-1.45-1.18.4,1.93.76,2.63Zm4.05-.31c1.28-1.06-1-.76-1-1.89-1.13.68.72,1.68,1,1.9Zm-16.12,26c-1.21-4.75-2.86-12.12-6.79-15.29-.87,2.19,1.25,2.86,2.25,5.5-1.18,1.22-1.36-.59-1.94-1.42-3,5.3,3.73,7.73,6.47,12.42.31.92,1,.73.72.23l-.74-1.43Zm9.8,11.85c-4.45-10.12-7.79-16.87-10.54-27.28l-1,.53c-.91,2.5.83,6.12,1.83,9.35,1.66,5.15,2.7,9.66,6.26,14.32.79,1.06,1.56,3.55,3.4,3.06Zm-6.63-24.45c-.49-1.46.9-2.32-.3-4.06-2.29.42-1.58,3-1.38,4.34.46,3.3,3.59,7.92,4,11.24.14-1.91-1.43-8-2.35-11.51Zm-25.21,18.08a1.48,1.48,0,0,0,.2-2,1.48,1.48,0,0,0-.21,1.93Zm45.94-29.43c-.6.51.23,1.4.51,2.13,1-.71.48-1.84-.52-2.15Z" transform="translate(-0.14 0.01)"/><path class="cls-1" d="M53.79,61.23c1.35-.81,2.49-1.13,3.35-.54-2.89,1.61-5,.67-6.74-1.33,7.54-2.43,14.36-2.51,21.11-2.51,2.32,2.68,6,1.17,8,4.92,2.66-1.26,4.18,1.07,6.51.85,1.35,1.24-1.39,1.17,0,2.41.56-.48.55-1.16,1.65-1.48,1,1.12-.5,1.41,0,2.41,2.18-1.49,3.22.74,5,.4,5.71,5.06,12.08,8,17.08,15.34-3.14,1.12-3.32-3-6-1.1-1.18-1.45,1.63-1.62.2-3.13-2.32-2.33-5.92-.58-8.92-.82,2.35-2.37,6,.58,6-2.5-8.2-.92-19.2.28-27.5,4,3.17.08,7.24-2.71,9.62-.16.06,1.26-3.57.55-3.57,2.47,1.87-1,3.6-1.32,5-.81-5.06,1.29-10.51,3.85-14.18.72C70,79,72.66,78.7,72.58,77.48c-5.07.91-8.89-2.21-13.74-1.94,1.68-2.46,4.9,0,6.25.38a21.24,21.24,0,0,0,8.66.34c7.71-1.1,14.59-4.5,20.37-4-1.85-2.12-5.09.2-7-1.8.56-.62,2.76-.72,2.14-1.72-2-.26-4.75,1.51-6.49.34,2.94-1.73,5-.56,7.67-1.56-6.6-1-15.49-1.44-21.87,1.08.62-.19.57.42.5,1,1.29-.2,2.74-1.07,3.61-.07-1,1.22-3.27.58-2.86,1.49,1.58,0,3.44-.77,4.8-.08-2.41,1.7-6,.58-7,1.81,2.84,1.12,6.84-1.42,9.84-.88a14.24,14.24,0,0,1-12,1.39c.54-.36,1-.72.45-1.44-1.32,0-2.69.08-3.63-1.14-.72-1.5,2.68.48,1.91-1-1.59-.88-5.71-.36-5.8-1.82.33.81,3.34-.75,2.86-1.5a2.32,2.32,0,0,1-2.4,0c2-.13,4.88-2.82,6.24-.82-1.2.35-3.16.24-2.61,2,1.38-.63,3-2.1,3.83-.78-.5.36-1.39.63-1.18,1.23,1.48-1.73,1.24,2,2.42,1.16-.48-3.52,9-2.89,12.92-4.3-.25-.74.36-1.21.2-1.93-2,1.22-3.42.76-4.35-1.37-5,1-11.33-.34-15.58,2.66,1-.66,1.85-.78,2.41,0-2.38,1.14-6.52,1.32-6.52-.86,4.57-1.73,10.46-1.09,13.91-3.6-2-.3-3.22-1.84-5.32-2.07-3.49-.4-7.83,1.45-12,2.6l.48.93Zm19,18a1.49,1.49,0,0,0,1.93.22A1.48,1.48,0,0,0,72.76,79.21ZM93.32,69.7c1-1.27-1.32-2.53-2.42-1.14.51,1.33,2-.59,2.42,1.17ZM76.88,78.91s-.2-.48-.25-.48C72.68,79,80.46,79.35,76.88,78.91Z" transform="translate(-0.14 0.01)"/><path class="cls-1" d="M52.11,63.89c-.72-1.06-2.26.81-1.66,1.47,1.22-.15,2.07,1,3.15,1.4-1,.76-1.48-.34-2.63.76-.66-2-.61-2.18-2.21-3.09C49.88,63.55,53.08,62.34,52.11,63.89Z" transform="translate(-0.14 0.01)"/><path class="cls-1" d="M53.8,63.61" transform="translate(-0.14 0.01)"/><path class="cls-1" d="M141.45,45.77c1.44-.73,4.75-.84,5.25-2.73-1.34.46-2.75,1.12-3.83.79,5.9-9.67,14.68-17.44,28.68-25.25-14.13,4.89-22.68,14.88-29.68,23.33-.29-1.19,1-3,1.61-3.87a52,52,0,0,1,4-5.11c1.57-1.44,2.8-2.42,3.32-2.94,1.92-1.91,4.81-2.84,6.65-4.68,2.27-2.26,3.75-5.13,5.9-7.31a49.17,49.17,0,0,1,7.81-7.1c3-2,5.56-4.65,8.82-4-4.29,3.43-12.29,5.69-12.8,10.31-3,.13-5,2.95-5.9,4.89,7.23-4.06,13.56-5.16,20.5-8.25.63,1.34,1.33.75,2.18.68,5.69-.42,13.12-2.18,18.25-1,1.11.28,3.43.94,3.64,2.35-1.64-.11-2.85-1.47-4.08.3-3.21-2.77-7.75-1.51-12-1,1.1,1.29,3.1-.4,4.1.89-2.56,2.64-5.93-.84-9.14-.09-.88,1.19-3.65,3.08-4.51,3-2.25-2.58-6.2.27-9.83,2.08,2.29,3-2.1,2.09-2.51,3.16-.06.19,1,.7,1,.7a9.34,9.34,0,0,1-3.62,1.31c.47.62,1.2.4,1.7.94-4.37,1.27-9.53-.65-11.71,4.27,1.87-.45,1.46-1.67,3.09-2.21,6.13-.58,12.56-2,18-.3-5.15,1.39-10.54-.44-15.15,1.22-1.12.41-.38,1.31-.93,1.7-.72.5-2.2-.56-2.89.28.26.66,2.7.44,1.47,1.66-2.08-.13-6.1-.8-7.66,1.57,1.95-.7,3.87-1.33,5.28-.33-2.43,1.42-7.33,0-7.87,3.51,1.78-1,3.48-1.8,4.78-1.29-2.38,2.28-6.51.28-6.67,3.47,8.21-3.62,15.67-1.4,23.21-6.62.41-1.39-.57-1.23-1.25-2.39,3.51-2,11-1.37,10-7.62a40.46,40.46,0,0,0,5.28-.32c-1.2-1.23-3.12-.29-4.12-2.1,2.33-.66,4.15.33,6.49-.35,1.66-1.38,4.36-4.61,5.73-1.78-2.51,1.48-2.62,1.89-5.24,2.73-2.31,3.68-9.13,5.91-10.68,9.81-1.83,1.26-7.13,3.46-10.48,5.46.19.72-.21,1.26.51,2.15-3.18,2.72-4.83,5.91-7.55,8.78.84-.09,2.18-1.84,2.64-.76-7.73,4.19-15.21,1.1-21.36,4.46,1.59-.42,3.22-1,4.33.17-1.1,1.36-3.28-.37-3.1,1,.42,1.18,1.65-.17,2.17.69-1.77,1.71-4.16-1.07-4.85,1.29.94.82,2.66-.88,3.61-.06-.86,2.68-4.25,3-5.69,5.39,2.89,1.06,1.19-1.47,3.57-2.47a26.42,26.42,0,0,0,19.66-3c1.31,1.22-1.38,2.38-1.14,3.63.09.49,1.22,1.18,1.22,1.18-1,4.29-5.27,6-7.27,10.46-6.11.69-12.48-4.86-18-2.14.9.63,2.17-.08,2.9.92-1.28,1.09-1.82-.11-3.11,1C132.81,60.89,138.22,53.69,141.45,45.77Zm-1.16,16.45c-1.89.5-2.95-1.6-5.07-.43.7,2,2.63.2,3.63,1.15-.09,1.81-2.3-.18-3.58,1.25,1.12.46,1,.87-.46,1.46,5.89.7,10.87,4.26,17.58,2.36-.33-1.49-1.44-.47-1.94-1.42,1.82-1.14,3.08-.51,5-2-.83-1.4-3.11,1.6-3.83-.4.74-2.14,5.36-.72,6-2.5-1.55.2-2.85-.2-4.55.56-.36-2.29,1.24-1.87,3.31-2.94-4.88-.71-10.72,1.91-15.4.74-1.45.33-.4,1.48-.68,2.18ZM169.7,22a2.64,2.64,0,0,0-2.87.33c.34,1.85,1.88,0,2.88-.29Zm-6,2.5c.77.5,1.88-.09,2.88-.29C165.76,23.43,164.16,23.05,163.73,24.54Zm-3.81,2c1,1.45,2.93-.05,4.56-.55C163.33,25,161.73,25.43,159.92,26.52Zm20.26-9.94a1.48,1.48,0,0,0-.2,1.92C181.88,18.06,181.23,16.92,180.18,16.58Zm3.12-1c-1,.34-1.46.84-.94,1.7l1.43-.75ZM159,43.33c1.67-.11,2.46-1.2,2.12-2.92,1.57-1.48,2.57.81,3.11-1-6.37-1.55-12.77,2.05-19.19,2.71,1.41,1,3.54-.34,5.06.4-.28,2.74-2.05,2.21-4.52,3,.42,1.16,1.65-.18,2.17.68-.42,1.63-3.3.42-4.56.56-1.44,1-2.59,2.1-2.35,3.64,6.45-2.15,11.45-.06,18.45-4.15C159.51,45.26,160.83,43.92,159,43.33Z" transform="translate(-0.14 0.01)"/><path class="cls-1" d="M97.86,66.78c.14-1.14-.91-2.62-2-5,2.79-1.07.15-6,1.53-8.7C99.75,58.05,98.78,64.1,97.86,66.78Z" transform="translate(-0.14 0.01)"/><path class="cls-1" d="M94.61,60.53C94.39,65.43,94.74,57.28,94.61,60.53Z" transform="translate(-0.14 0.01)"/><path class="cls-1" d="M100.45,66c-1.72-.48.85-1.42-1-3.11,2.57-1.17,4.13,3.09,1,1.91C100.53,65.19,100.88,65.72,100.45,66Z" transform="translate(-0.14 0.01)"/><path class="cls-1" d="M57,96.49c-1.89-1.55-4.47-.93-6.29-2.77C53,93.13,56.88,94.32,57,96.49Z" transform="translate(-0.14 0.01)"/><path class="cls-1" d="M83.41,80.91c1.6.66.94.25-.23.73-2.13.88-9.44,2.88-11.75,1.88C75.58,82.15,78.88,83.36,83.41,80.91Z" transform="translate(-0.14 0.01)"/><path class="cls-1" d="M66,90.58c.61.72-.08,1.59.74,1.43.47-1.52,1.2-.79,2.15-.52-.42-1.68-1.78-.23-2.19-1.89,5-.64,5.37,5.58,9.28,8.51-5,.66-3-8.06-9-5.63.26.58.78,1.32.26,1.68a4.94,4.94,0,0,0-3.16-2.59c-.34,1.67-3,2.75-4.54,1.75C62.56,92.1,63,91.43,66,90.58Z" transform="translate(-0.14 0.01)"/><path class="cls-1" d="M116.59,124.84c-.29-1.56-1.27-.93-1.72-2.13s1.18-1.75.18-3.13c-.88-.16-2,.47-2.65-.44C115.31,117.14,118.36,123,116.59,124.84Z" transform="translate(-0.14 0.01)"/><path class="cls-1" d="M123,136c-1.71-.47-3.54-.61-5.08-1.61C119.82,133.58,123.18,134.64,123,136Z" transform="translate(-0.14 0.01)"/><path class="cls-1" d="M172.37,144.79c-.54,1.84-3.65,4.92-5.92,4.92.32-1.31,4.9-2.72,5.21-5.14-4.5,2.71-12.8,9.78-20,11.63,1.76-4.8,11.76-5.44,13.76-10.8-6.61,1.76-11.82,6.36-18.61,8.47,2.28-2.41,6.79-2.91,9-5.91-2.39.29-4.42-5.79-2.27-6.71.8.28.43,3.58,2.25,5.49,19.4-6.48,38-5.77,51.74,4,7.33,5.28,12.68,12.95,19.81,20.59,2.95,8.32,7.21,17.09,8.79,25.09-1,1.79-.66,4.05.34,6.48C234,209.16,234,215.81,232,222.16c-3.56,11.32-12,19.54-19.7,29.66.05,2.1,2.06,2.86,3.44,4.27-2,.47.43,3,1,3.1-3.58.74,1.32,4.16-.88,5.31-2-.3-.76-4.21-3-4.52,2.47,6.71,8.6,12.13,12.78,17.58-2,2.71.35,5.21.64,9.37.4,5.83-3,10.92-.72,14.92,1.25,2.14,6.66,5.1,7.53,4,1.19.67.53,1.53,2,2.62,1.2.42,3.06-1.43,3.85.42-.7.72-2.71-.38-2.38,1.23,2,6.14,7.84,5.74,12.38,7.49-3,2.67-7.3-1.1-10.61-1.75.37,5.35,6.3,3.44,8.76,6.35-3.23,2.17-4-3.26-7.23-1.09a12.46,12.46,0,0,1,2.44,2.37c-.86,1.26-2.47-1.11-2.15.52,1.5,3.66.88,6.65-2,8.93-2.24-2.69,2.35-3.23,1.35-5.55-1,.72-1.53,2.09-2.64.77,5.71-3.85-.85-5.7-2.79-8.85-2.25-3.7-1.76-8.9-5.25-12.41-1.12-1.1-2.9-.89-4.12-2.1-5.15-5.09-1.81-9.48-5-14.35a11.12,11.12,0,0,0-.63-9.36c-1.08,2.57-2.87,3.39-3,5.82-.2,4.6,4.69,9.09,4.8,13.87-1.31,1.61-1.17-1.47-2.17-.69-.83,2.37.21,4.73-.39,6.26-4.36,1.82-3.47,5.27-6.36,7.55-.17-3.11.89-5.83,5.16-7.54-.18-4.31,2.68-7.65-1.42-13.19-1.14.68-2.26,1.28-2.88.28,1.47-3-.79-4.83-.37-7.7.55-4,5.4-6.07,4.87-10.43-2.76-2.72-10-8.25-8.16-13.33,2.32,7.61,8.85,10,11.08,15.45.77,1.91-.45,4,1.3,6,.59-1.67,2.43-3,1.59-5.08-2.8-3-4.24-7.81-8.32-9-.83-2,1.94-.33.69-2.18-1.43-.67-.89-2.09-2.22-3.09-.81-.58-1.31,1-1.92-.21-.07-.13.93-1.46.93-1.69-.18-1-1.38-.75-1.47-1.66-.2-2.09,1.4-2.23-.78-3.84-2,1.44-2.33.82-2.88.29-1.93-2,1.52-2.44,1.62-3.86-1.3,1-4.42,1.52-4.52,2.95a21.91,21.91,0,0,1,4.41,5c-1.67,1.23-4.22,2.71-3,5.81.94.79,2.47-.22,3.15,1.39-1.39.78.22,2.47-1.39,3.15-3.35-3.57-2.79-6.87-3.79-10.75-1.3,2-3.68,3.63-2.77,6.3.62,1.82,2.29.28,2.91,2.11-1.24,1.46,1.2,4.09-.87,5.3-1.1-2.32-.72-4.2-3.72-7.15.57-2.74,1-5.47,3.24-7.74a3.51,3.51,0,0,1-1.72-2.14c-9.78,1.88-20.46,4.9-28.78,4.08a69.27,69.27,0,0,1-20-4.7,54.57,54.57,0,0,1-8.49-4.71,65,65,0,0,1-20.79-21.29c-8.83-14.84-9.34-24.79-8.55-37.36,1.16-2.15,2.35-4.3,1.81-7,5.09-9.69,9.77-19.49,18.77-28,1.1,3.15,4,.83,5.8,1.83-3.15,2.84-10.55,3.18-10,6.41.5-2.31,5-2.47,7.86-4.7,2.37,1.6,8.55-2.91,8.69,1.53-.21.43-4,.44-3.31,2.94,5.21-1.8,7.21-6,11.74-5.58-3.41,2.25-7.71,4.21-10.47,6.66l6.21-3.23c.73,1.86-2.17,2.34-2.84,2.69a33,33,0,0,1-4.29,2.24c-.62.23-1-.73-1.45-.47s-.06,1.39-.45,1.46c-1.2.19-1.47-.88-2.66-.45-4.44,1.72-7.27,4.78-12.66,6,.59-1.94,5.65-2.44,6.18-4.44-3.8,3.38-10,2.5-10.24,6,.82-.35,4.18-2.49,3.11-1-1.8,1.79-5.18.71-3.8,3.19,1.24-.44,5.24-3.25,4.55-1.76-3.89,1.86-7.59,3.72-7.35,6.86,2.36-.73,5.53-4,7.18-2.53-3.07,3.06-8.77,1.38-8.34,5a268.24,268.24,0,0,0,26.22-13.66c-.53-1.36-2.51-3.18-.06-3.61,1.19-.47-.54,3.49,1,3.12,10.56-4.56,19.55-12.23,30.71-17.82,2.4-1-.07,1-1.18,1.22-18,11.19-38.16,23.59-57.16,32.19,3.34.34,8.06-3.67,11.71-4.27l4.25-2.21c.75-.53,1.45-.09.24.47l-2.39,1.24c-4.8,4-13.6,4.4-14.52,8.17,5.82-1.57,12.8-6.93,18.38-7.76L131,186.39c-2.68,1.22-5.66,3.2-8.58,4.47-2.42,1-6.91.8-6,3.71,3.4-1.08,7.18-3.37,10.52-4.26l7.62-4c.62,1-1.58,1.09-2.14,1.71-3.28,1.57-7.64,4.14-11,5.71-2.12,1-6,.69-5,3.21,5.9-2.33,12.22-5.89,17.9-7.51-6,4.57-13.37,5.07-18.87,9.23,2.36,1,5.67-3,7-1.8-2.08,1.47-6,2.35-6.9,4.2,7.24-2.24,14.82-9.19,21.72-9.49-5.2,2.46-12,6.16-16.69,8.68-1.63.89-5.43.54-5,3.22,6.72-2.79,14.51-9.06,20.51-9.48-6.66,3.87-15.33,7.4-20.48,10.67,2.09,1.85,5.78-3.52,7-1.8-2.1,2-7.43,2.31-6.9,4.2a19.5,19.5,0,0,0,10-5.22c-.51-1.34-2.44,1.84-2.65-.43,3.81-2.12,6.47-2.43,9.53-5,1.16,2.08-4.11,2.13-3.29,4.13,3,.46,5.55-5.16,7.89-2.29-1.82.66-5.77,1.47-6.67,3.47,1.56-.39,3.43-1.61,4.56-.56-4.89,1.2-10.92,6-15.75,7-.17-1.24,3.13-1.41,2.83-2.69-2.42,2.12-6.34,1.33-6.42,3.95.85,1.16,2.66-.84,3.6-.06-.82.8-3.71.95-2.35,2.44,3.48-3.52,6.8-3.86,10.48-5.46,2.61-1.14,5-4,7.17-2.52-4,2.83-9.46,4.15-13.12,6.22-1.6.91-3.91,2.18-4,3.91,5-2.27,10.4-6.11,15-7.21l3.34-1.75c.35,1.22-2.24,1.42-3.09,2.22-3.15,2.35-7.25,3.08-10.25,4.74-1.68.94-4.37,2.26-4.51,4.17,6.1-2.49,13.27-8.38,18.62-8.49-6.13,4.36-15.52,5.75-18.13,10.65,3.32-.75,8.86-5.73,13.12-6.22,2.76-2.09,3.64-.86,4.53-1.76-3.14,3.23-15.74,6.48-16.92,9.41,5.62.56,12.3-7.86,17.2-6.53-5.55,3.68-12.33,4.59-16.68,8.68,5.9-.67,11-7.3,17.9-7.5-3.34,1.87-7.13,4.41-10.71,6.19-2.29,1.11-5.88.78-6,3.71,5.19-1.52,11.91-8.29,17-7-.69.75-3.11.92-2.61,2,1.52-.56,3.43-2.43,4.31-1-5.36,3.41-15.18,6.68-16.91,9.41,3.86-1.11,8.27-3.9,11.2-5.24,2.08-.92,4.23-3.32,6-2.5a32.92,32.92,0,0,1-8.5,5c-3,1.39-7.31,1.63-7.85,4.7l17.16-8.94c.74,2.2-4.26,2.64-4.26,4.64l8.11-4.22c0,2.28-3.23,2.84-5.23,3.93-5.35,2.92-10.69,4.53-13.57,7.67,6.18-3.59,11.88-5.71,17.88-8.71,1.23,1.31-1.23,1.48-.43,2.65,1.26-.21,3.28-2.78,3.83-.78-6.45,4.11-14.45,6.3-19.52,10.16a179.8,179.8,0,0,0,16.94-8.21c-.17,2-3.68,3.8-6.42,5.15-3.21,1.61-7.41,2.14-9.3,4.25,5.55-.6,15.11-8.49,18.88-6.81-5.9,4-13,5-17.41,8.47,5.48-1.39,11.43-4.26,17.43-7.26.49,2-2.79,2.6-4.28,3.43-4.53,2.54-9.61,4-11.67,5.48,2.4-.45,5.39-2.63,7.2-1.32-2.11,1.52-5.7,1.23-6.46,2.75,3.65.58,8.14-2.87,12.65-4.77,1.79-.73,4.54-2.3,6-1.3-2.06,1.46-6,2.34-6.9,4.2l7.63-4c.64,1.9-2.32,2.36-3.79,3.19-4.13,2.31-9,3.39-11,5.72,5.12-2.36,10.15-4.41,15.5-7.48.2,3.05,4.58-.26,7.2-1.32,0,2.22-3.85,3.16-6.17,4.43-2.88,1.56-6.11,2.65-7.38,4.44l11-5.71c.09,1.73-2.4,3-4,3.91-2.23,1.32-5.24,1.83-7.4,3.26-.85-3.25-5.71-.39-6.71,1.07,2-.92,4-1.79,5.74-1.79,0,1.46-3.9,1.7-3.79,3.2,5.34-2.71,10.07-3.31,15.75-7,1.45,3.08,5.76-3.09,7.45-.85-2.16,1.15-4.85,2.19-5.22,3.93,1.69-.29,4.26-3.53,5.26-1.53-5.46,2.94-13.28,6.75-17.16,8.94,6.12-1.88,13-6.57,19.12-8.75.41,2-2.84,2.63-4.27,3.43-4.71,2.64-9.88,3.92-12.42,6.47,1.61-1.35,3.81-1.5,6-2.5,5.13-2.33,11.11-7.43,15-6-6.72,4.42-14.7,6.25-19.77,9.68,11-3.61,21.36-9.44,32.43-15.67.5,2-2.19,2.29-3.32,2.94-9.29,5.36-18.88,10.08-26.69,13.9,7.12-2.38,14.77-6.41,22.43-10.46,1.72,1.86-3.25,1.63-2.6,3.16a39.24,39.24,0,0,0,7.38-4.45c1.09,3.54-7.82,3.93-7.82,7.11l6.67-3.48c0,2.18-3.55,3.06-5.71,4.18a43.26,43.26,0,0,1-7.41,3.25c-1.12-1.6.76-2.15,0-3.6-3.18,2.08-8.33,3.72-10,5.21,2.07.17,5-2.24,7.4-3.24,1.28,2.27-4.7,2.23-4.5,4.16l5.24-2.73c1.3,2.59-2.47,1.51-2.59,3.17,2.68-.49,4.68,1.1,8.14-1.82,1.14,1.69-2.91,1.77-.41,3.85,2.26-1.68,3.84-1.14,6-2.5,1.78,1.62-2.43,1.36-1.65,2.67,11.71-7,24-11.44,33.83-18.83-2.45.68-4.75,3-6.9,4.2-2,1.08-4.29,3.25-6.21,2,6-3.57,12.11-7.07,17.36-10.86,2,2.44-3.77,2.53-3.77,4.38,2.76-1.6,9.36-4.1,5.68-5.37,5.15-2.89,11.42-5.42,14-9.13-5.1,2.79-10.63,7.54-16,8.92,3.9-4.69,14.79-7.76,17.64-11.61-3.87,1.45-8.63,4.23-12.87,6.7-2.83,1.68-5.78,5.17-8.83,4,5.13-2.13,9.75-5.89,14.75-8.89,4.19-2.52,9.4-3.83,8-7.83-3.37,3.4-10.51,5.09-13.3,6.93,3.55-.31,7.8-2.85,11.94-5,.62,1.33-1.67,2.53-2.59,3.16-3.75,2.56-9.8,4.36-12.62,7.18-.34-1.65.87-2.27-1.71-.93-.51-2.11.91-2.09,0-3.61,7.07-4.39,13.84-4.6,19.07-9.93L224,219.65c-.09-3.22,8.55-3.69,8.55-6.87l-6.67,3.47c.17-2.73,5.94-3.7,7.11-6.13l-7.63,4c-1.55-2.07,4-1.93,3.54-3.66-2.85,1.88-7.24,1.95-9.05,4.72,1.26-.22,3.28-2.79,3.83-.79-2.09,1.06-4.4,2.06-4.75,3.69l5.7-3c-.52,3.39-9,4.34-10.7,7.39l8.58-4.47c-.14,1.79-3.1,3.27-5,4.41-1.54.92-3.22,1.58-4.77,2.48-1-1.11.5-1.46,0-2.4-.71,1.31-3.91,2.11-5.5,2.25,1.21-1.59,4.72-1.42,5.72-4.18-2.67,1.38-5,2.11-6.46,2.75-.74-2,3.67-2.33,6-3.7-.34-.6-1-.35-1.23-1.19,6.92-5.59,17.62-7.7,22.62-13.59-3.19.5-5.32,5.06-7.39,3.25-.11-1.43,7.46-3,7.35-5.65a154.88,154.88,0,0,1-15.73,9c-1.85.92-4.12,3.16-6.21,2,7.53-5.14,16-7.49,22.38-12.88-6.92,3.67-14.2,7.16-20.5,10.67-1.71.94-3.59,4.1-6,2.51,8.43-6.13,18.61-9.78,26.43-15.59-9.55,3.71-17.72,10.71-26.72,12.71,7.41-5.79,20.07-9.27,26.67-15.11-7.88,4.35-14.3,7.39-22.88,11.92-.28-1.6,2.07-2.72,3.07-3.41,6.53-4.38,15.5-5.88,19.27-10.64-2.24.77-5.07,3.43-6.93,3,1.4-1.95,5.18-3.15,6.4-5.15-2.09.7-4.75,3.27-6.45,2.76,1.16-1.77,4.71-2.78,5.46-4.66-5.14,3.13-10.58,6.58-17.14,10.13-1.88,1-3.89,4.25-5.49,2.25,4.23-2.44,11.4-6.61,16.89-10.61,2-1.46,5.94-1.72,5.47-4.66-2.05,1.06-4.71,4.07-7.15,3.72-.16-2.7,6.93-3.15,6.63-5.88-8.71,3.82-17.68,11.59-25.27,13.16,6.82-4.84,17.78-9.17,24.73-15.3-2.47-.24-6.23,5.05-9.07,3.52,1.85-1.95,6.09-3.18,7.61-5.18A136.47,136.47,0,0,0,216,187.65c-2.5,1.5-7.08,5.84-9.78,4.5,5.21-3.74,11.18-6.27,16.44-9.17,2.08-1.15,4.92-2.76,5.92-4.9-2.65.37-7,5-9.07,3.51,1.35-2.5,8.58-3.13,7.58-6.37-3.38,1.45-4.74,3.55-8.32,4.94-1.67-3.58,8-3.6,7.33-6.85-2.75-2.41-6.42,5.42-9.32,3a29.75,29.75,0,0,0,8.08-5.42c-3.37-1.08-8,5-9.51,6.16-4,3-9.57,4.39-12.12,8.13,4.82-1.53,9.76-6.82,13.11-6.22-10.46,6.48-21.81,10.49-31.46,16.39,10.81-6.29,18.94-13.42,30.43-19.5-.65-3.57,8.3-4,7.58-7.57-3.3-.1-6.18,5.47-10,5.21,2.29-2.61,7.78-4.19,8.29-7.35-6.35,4.77-20.6,13.78-30.44,19.49a41.85,41.85,0,0,1-6.67,3.48c-2.22.65,2.36-2.11,4-2.71,9.12-6,22.29-13.36,28.29-19,1.07-1,3.87-1.41,3.07-3.41-6.55,2.34-10.44,9.59-18.27,12.54-1.23.47-2.63.22-3.84.79-11.66,5.45-23.24,14.32-34.78,19.32-2.07,1.38-8.83,4.45-6,2.51,4.2-2.9,10.94-5.41,15.74-8.2,14.49-8.4,27-13.66,38.82-22,2.28-1.62,8.42-5.7,5.63-7.78,0,2.22-2.89,2.26-4.27,3.43-4.38,3.72-10.11,9.74-17.11,11.34,7-5.24,16.44-9.73,20.88-15.73-13.17,7.94-29.46,20.47-45,27.66,6.88-5.07,16.16-9,24-14.33,1.88-1.27,3.14-3.17,5-4.41s4.29-1.91,6.21-3.24c1.28-.88,2.3-2.65,3.54-3.65,1.38-1.2,4.57-1.49,4-3.92-2.87,1.24-4.78,4.86-7.87,4.69,1.59-2.28,6.8-3.41,6.39-6.34-2.12.13-5.42,3.26-6.42,3.94-.93-2.79,6.81-2.9,4-6.32-2.05,1.34-5.53,5.6-7.37,4.46,2.43-1.63,5.8-3,5.67-5.38-2.3-1.08-4,3.5-6,2.5,1-1.56,4.26-2.4,3.78-4.4-2.63-.27-4.63,4.81-7.38,4.46,1.84-1.92,5.12-3.45,5.43-5.86-1.46-1-2,2.4-3.59,1.25,1.19-.67,2.42-1.36,1.65-2.67-1.85.13-2.27,2.68-3.34,1.74-.17-1.12,3-1.13,1.64-2.67-2.45-.36-3.83,3.74-6.21,3.24,1.12-1.27,2.81-2.3,3.54-3.66-2-.92-3,3-5,2,1.33-.91,2.75-1.79,2.59-3.16-2.32.35-3,3.27-4.77,2.48,1.11-.87,2.86-1.48,2.11-2.93-1.92.45-3.13,2.45-4.74,3.69-2.76,2.15-6.32,5.54-8.59,4.47,3.45-1.78,10-4.77,10.68-8.59-1.72.59-5,4.26-5.24,2.73,1.59-.83,3.44-1.55,2.59-3.17-1.31-1.1-2.89,3.41-4.31,1,.5-.35,1.4-.63,1.18-1.21-2.92,2.12-1.88,0-2.65-.45a11.83,11.83,0,0,0-3.77,4.39c-1.78-2.29,2.11-2.82,1.11-4.82-2.31.6-4.12-.46-6.71,1.07Zm-32.11,18.57c-1.42-1-1.51.11-3.85.75.33.34.76.2,1,.71s-.38.7-.7,1c.7,2.81,1.22-1.85,1.41-1.95,1-.47.83,1.39.27,1.69.51-.36.48-1.27,1.89-2.2Zm-7.46-1.56C134.63,162.75,135.59,159.7,132.8,161.8Zm35.28-17.09c-1.56.29-.88,1.32-2.12,1.72C166.83,147.8,169.07,146.05,168.08,144.71Zm-40.2,23.95C129.88,169.6,129,166,127.88,168.66Zm.55,2.15c-.66-1.23-2.37-.23-2.66.77.46,1.07,1.81-.66,2.63-.76Zm-.21,1.92c-.65-.3-4.49-.25-3.36,1.75l3.33-1.74ZM139.68,168c-.6.21-.85-.66-1.27-1.17l-3.34,1.74c-1.51,1.19,4.23-1,1.23,1.19,1.71.49,4.38-2.07,6.46-2.77-.49-.53-1.23-.31-1.7-.93.59,2.47-2.41-.3-1.41,2Zm-9.38,3c.5,1.09,1.84-.67,2.66-.79-.45-1.07-1.8.67-2.63.76Zm-7.07,34C128.07,204.26,128.75,201.41,123.23,205Zm-1.6,20.23c2,1.24,6.74-2.38,8.36-3.76-1.41.66-6.68,1.85-8.35,3.75Zm9.76-4.47c2.3.68,3.25-2.42,0,0Zm-6.55,9.46c2.36.16,5.62-2.69,8.36-3.76-2.35-.18-5.63,2.76-8.35,3.76Zm9.28-4.22c1.82.95,2.76-2.13,0,0Zm-6.81,7.78c.63,1,6.24-3,8.83-4-3.27-.37-5.29,2.4-8.82,4Zm14.52,7c-.35-.65-5,1.29-7.14,2.51,1.76,1.15,4.74-1.52,7.17-2.52Zm6.32.36c-1.79.64-5.51,2.83-9.79,4.48,1.38.2,6.81-2,10-4,2.45-1.47,2.94-1.64-.24-.47Zm5.09,5.21c-2.85-1.1-7.24,2.72-10.51,3.07,3.25.4,8.07-2.47,10.53-3.06Zm-3.09,2.2c-2.08,1.54-3.56,1.18-5.48,2.28.77,1.64,8.25-3,5.5-2.26Zm81.56-40c-4.48,2.55.88,1.51,1.19-1.21-.84.22-.57.9-1.18,1.22ZM224.62,231c-.37.18-5.45,3.67-7.59,5.18,1.47,1.94,10.77-7.07,7.61-5.17Zm-2.3,6c-1.23-1.19.62-1.4,1.38-1.92-4.71.72-9.39,5.34-13.55,6.45,4.3,3.87,6.69-6.41,12.19-4.52Zm-18.14,8.23c.77,1,2.45-1,3.6-1.25-.76-1-2.45,1-3.58,1.26Zm-.45,1.47c-6.35,1.94-18.38,9.33-26.95,13.42,3.1-1.12,5.52.17,9.1-2.31,2.25.25,4.47.84,6.47-1.55-2.22-1-4.93-.35-8.15,1.81.44-2.56,3.72-3.18,5.72-4.18,4.44-2.38,9.15-4.46,13.83-7.2Zm16-6.54c1.37-1.82-1.11.56-3.33,1.76,1.57,1.34,3.11-1.44,3.34-1.75Zm-16.62,11.1c-.22-1.27,3.52-1.29,2.15-2.92-1.23,1.5-3.8,2.56-6,3.71.78,1.33,3.06-2.11,3.84-.78Zm9.72-5.69c.81.93,2.46-1,3.61-1.25-.75-1-2.45,1-3.59,1.26Zm-.41,2.66a16.38,16.38,0,0,0-6.71,2.28c-1.14,2.11,3.13-2.3,3.13.19-1.45.76-7.31,4.69-9.55,3.76L196.5,256c.46,1.08,1.8-.66,2.62-.76,3.94.41,10.66-3.35,13.31-6.93Zm-7,12.12c1-1.49-1.6-2.45-2.2-3.08-.58.32,1.53,2.64,2.22,3.09Zm7.41-3.25c.65.82.42-.6,0-1.18-.67-.8-.46.61,0,1.2Zm1.84,28.12c1.13-2.06,3.84-3.58,3.53-6.06-.89,2.12-4,3.52-3.51,6.07Zm-.15,4.33a5.39,5.39,0,0,0,0-3.59,5.3,5.3,0,0,0,0,3.6Zm9.3-6.63c-1.56,2-1.69,4.46-.36,7.46-.9.75-1.26-.22-1.7-.93,2.82,3.84-1.12,7.14,2.13,12.22C222.81,295.1,225.33,289.68,223.81,283ZM237.1,317.8c.27-3.19-1.89-8.79-5-10.74,2.11,3.56,3.34,8.28,5.51,12.92,1.35,1.26-.13-1.56-.51-2.15Z" transform="translate(-0.14 0.01)"/><path class="cls-1" d="M165.79,164.69c-4.57,2.54-8.38,5.32-13.57,7.67a2.34,2.34,0,0,1-1.41,1.94c-.43.06-.95.46-1.19,0C153.11,170.81,162.09,165.08,165.79,164.69Z" transform="translate(-0.14 0.01)"/><path class="cls-1" d="M173.08,214.78c2.54-.71,5.31-3.36,6-2.51C176.88,212.71,175,216.84,173.08,214.78Z" transform="translate(-0.14 0.01)"/><path class="cls-1" d="M182.87,223c-.37-.51-.68,0-1,.49-.44-.38-1.17-.84-.25-.47C181.59,221.87,183.88,222.17,182.87,223Z" transform="translate(-0.14 0.01)"/><path class="cls-1" d="M176.42,254.86l7.63-4c2.55-1.3,5.56-3.93,7.65-2.76-2.55,1.72-7,2.84-8.34,4.94l10.49-5.46c-.18,2.32-3.79,3.18-6.18,4.43l-8.1,4.22c-1.78-1.74,2.85-1.5,2.11-2.92l-5.72,3a16.5,16.5,0,0,1-2.44-2.36c-1.26.22-3.28,2.79-3.83.79l14.3-7.45c.92-.41,1.17,1.4,2.17.69a22,22,0,0,1,6.65-4.68c4.7,1.43,10.16-7.13,14.58-5.77-11.51,6.63-20.86,10.28-31.93,17.84Zm7.36-5.64c-1.38-.67-3.73,1.72-5.49,2.25C179.67,252.14,182,249.75,183.78,249.22Z" transform="translate(-0.14 0.01)"/><path class="cls-1" d="M220.4,312.56c-1.55.56-.3-3.07-3.39-1.87,2.83-1.46,3.62-5.36,5.42-5.86,1.38,1.61-.27,2.3.07,3.61-.84.57-1.3,0-2.16.52C220.44,310.18,219.63,311.12,220.4,312.56Z" transform="translate(-0.14 0.01)"/></svg>