<svg id="Layer_1" data-name="Layer 1" xmlns="http://www.w3.org/2000/svg" viewBox="0 0 248.89 332.98"><defs><style>.cls-1{fill:#919191;}</style></defs><path class="cls-1" d="M178.51,11.2c.92.64-.47,2,.43,2.65C177.57,14.89,177.68,12.17,178.51,11.2Z" transform="translate(-35.84 4.43)"/><path class="cls-1" d="M180.65,12.92c.61-1,2.13.85,3.1,1C183.14,15,181.63,13.08,180.65,12.92Z" transform="translate(-35.84 4.43)"/><path class="cls-1" d="M228.61,48.81c1.44,2.82,4.69.6,7.4,3.24a10.24,10.24,0,0,1-4.08-.31c-3,.06-10.56,1.85-11.25-2.82,1.73.65,1.27-1,2.63.76.14-.93,1.33-.12,2.17-.69,2.63-1.73,5.38-7.53,9.29-6.06a10.19,10.19,0,0,0-4.69,4.23c3.3.78,6.06-.16,9.37.64-.25-1.53,1.67-4.08,3.41-3.09-.42,1.64-1.39,1.48-2,2.61,2.24,1.46,9.12.49,12,3.8-8.44-1.94-16.29-2-24.23-2.32Z" transform="translate(-35.84 4.43)"/><path class="cls-1" d="M226.12,39.63c-.78.48-1.51,1.14-2.65.44C224,38.74,224.94,38.85,226.12,39.63Z" transform="translate(-35.84 4.43)"/><path class="cls-1" d="M222.27,40.05c1.49,2.6-4.15,11-7.37,10.71C217.35,47.3,219.49,42.64,222.27,40.05Z" transform="translate(-35.84 4.43)"/><path class="cls-1" d="M194.2,36.94c-2.87-1.27-1.16-3.6.32-5.28-.65.06-1.07.83-1.92.21a5,5,0,0,0-1.11-6c.34-1.85,1.87,0,2.88.3,0,2.39,2.33,4,2.78,6.3C196.37,34.6,195.17,35.39,194.2,36.94Z" transform="translate(-35.84 4.43)"/><path class="cls-1" d="M214.4,36.56l1.43.74c-3,2.51-6.3,7.58-5.48,11.7-3.06.18-2,6.55-5.35,4.48C208.05,49.05,209.51,40.29,214.4,36.56Z" transform="translate(-35.84 4.43)"/><path class="cls-1" d="M239.16,50.66c-.44,2-2.23-.31-3.35-.53C236.49,48.93,237.9,50,239.16,50.66Z" transform="translate(-35.84 4.43)"/><path class="cls-1" d="M239.06,56.67c1.1.32,1.09,1,1.66,1.48-1.18,1.12-3.75,2.33-4.58.63C237.4,57.67,239.23,59.22,239.06,56.67Z" transform="translate(-35.84 4.43)"/><path class="cls-1" d="M202.82,39c1.74,0,.27,2.86-.75,1.44Z" transform="translate(-35.84 4.43)"/><path class="cls-1" d="M197.51,39.88C199,41.15,196,41.37,196,44c-2.09-1.58-2.59,1.88-4.35,1.36C191.6,42.77,195.07,41.22,197.51,39.88Z" transform="translate(-35.84 4.43)"/><path class="cls-1" d="M195.54,57.64c-2.09-1.84.19-4.71.59-7a29.4,29.4,0,0,1,3-9.32c-.62,3.11-.94,6.13-1.83,9.34,1.11-.26,2-1.08,3.6,0-.73,1.29.29,1.37-1,1.91C198.23,50.87,197.12,54.7,195.54,57.64Z" transform="translate(-35.84 4.43)"/><path class="cls-1" d="M168.41,25.94c1.86.34,0,1.87-.28,2.88C166.29,28.29,167.28,26.26,168.41,25.94Z" transform="translate(-35.84 4.43)"/><path class="cls-1" d="M228.21,57.69c-.61,1-1.73.39-2.88-.3A2.64,2.64,0,0,1,228.21,57.69Z" transform="translate(-35.84 4.43)"/><path class="cls-1" d="M135.67,14.34c-2,1.1-5.25-3.42-6.41-5.15-.71.27-1.85-.78-2.17.68-2.25-3.64-9.93-3.66-10.2-8.34,2,2,4.11,2.23,6,3.71C128.75,4.54,132.38,10.71,135.67,14.34Z" transform="translate(-35.84 4.43)"/><path class="cls-1" d="M113.28,1.46c1.64-2.22,2.7,1.52,3.1,2.22C114.88,4.68,115.2,1.7,113.28,1.46Z" transform="translate(-35.84 4.43)"/><path class="cls-1" d="M206.49,49.41l-1,1.87c-.78-.67-1.95-1.25-1.16-2.43C205.15,49.39,205.64,48.83,206.49,49.41Z" transform="translate(-35.84 4.43)"/><path class="cls-1" d="M114,2.48c-2,1.63-5.13-.25-8.14-1.82,2.8-1,4.64.9,5.76.58C112.78,0,113,2.28,114,2.48Z" transform="translate(-35.84 4.43)"/><path class="cls-1" d="M230.76,63.3l1,.49c-.31,1.14-1.14.54-1.92.22C230.1,63.63,230.53,63.74,230.76,63.3Z" transform="translate(-35.84 4.43)"/><path class="cls-1" d="M201.66,50.53l1,.49-.5,1-.94-.5Z" transform="translate(-35.84 4.43)"/><path class="cls-1" d="M103,.34a14.63,14.63,0,0,1-7.22,1.09C95.85-1.6,100.54.13,103,.34Z" transform="translate(-35.84 4.43)"/><path class="cls-1" d="M226.84,68.49c-.21.6.68.86,1.19,1.22a2.37,2.37,0,0,1-2.4-.06c.6-2,1.88-1.62,2.47-3.57.5.37.93.37,1.19,0C231,67.78,227.79,67.77,226.84,68.49Z" transform="translate(-35.84 4.43)"/><path class="cls-1" d="M153,30c2.73.08,3.09,4.33,3.26,6.54C153.88,34.76,154.12,32.16,153,30Z" transform="translate(-35.84 4.43)"/><path class="cls-1" d="M112.9,10.36c.61-.68,4,1.09,3.81,2C115.57,14.41,115,10.52,112.9,10.36Z" transform="translate(-35.84 4.43)"/><path class="cls-1" d="M100.74,4.61c-2.6.2-5.89-1.94-9.07-3.51C92.62.77,97.88,3.21,100.74,4.61Z" transform="translate(-35.84 4.43)"/><path class="cls-1" d="M193.88,56.17c-.62-.88-1.2-1.75-.19-3.13C195.29,53.6,194.72,54.87,193.88,56.17Z" transform="translate(-35.84 4.43)"/><path class="cls-1" d="M109.29,10.3c-1.24,1.55-3.82-1.15-5.74-1.78s-3,1.43-5.28-.33C101.1,5.75,105.86,7.21,109.29,10.3Z" transform="translate(-35.84 4.43)"/><path class="cls-1" d="M182.47,47.8c2,1,.22,3.13-.08,4.81C180.84,51.51,182,49.55,182.47,47.8Z" transform="translate(-35.84 4.43)"/><path class="cls-1" d="M96.41,4.8C93,4,89.69,3.73,86.34,3.19L85.09,5.58c-1.74-1.33-3-1-4.52-1.76a16.89,16.89,0,0,0,6-2.3C90,3.51,94.22,2.42,96.41,4.8Z" transform="translate(-35.84 4.43)"/><path class="cls-1" d="M180.22,53.29c-1.77-.92-.27-2.83.56-4.55C182.66,49.6,179.73,52,180.22,53.29Z" transform="translate(-35.84 4.43)"/><path class="cls-1" d="M148.59,32.58c2.44,2.29,1.82,5.54,1.53,8.69C147.45,39.08,148.09,35.79,148.59,32.58Z" transform="translate(-35.84 4.43)"/><path class="cls-1" d="M222.93,72.52C225.57,71.77,224.68,75.07,222.93,72.52Z" transform="translate(-35.84 4.43)"/><path class="cls-1" d="M179.08,63.62c.74-.51.46-3.53,3.18-2.6-.5,3.62-3.74,3.94-3.5,7.87-1.6-.55-.72-1.89-.91-2.9-.47.89-2,2.92-4.12,2.11.52-.71,1.2-3.81,3.88-2.83a27.34,27.34,0,0,1,.26-15.65c2.14.71.24,2.17.19,3.13A47.81,47.81,0,0,0,179.08,63.62Z" transform="translate(-35.84 4.43)"/><path class="cls-1" d="M111.6,16.35c-1.41,1.43-3.69.11-5.3.87C105.76,14.63,109.59,15.08,111.6,16.35Z" transform="translate(-35.84 4.43)"/><path class="cls-1" d="M221.46,74.17c.49-.57,1.41.23,2.16.52C222.91,75.72,221.78,75.12,221.46,74.17Z" transform="translate(-35.84 4.43)"/><path class="cls-1" d="M157.24,47.39a5.45,5.45,0,0,1,.81-5A6.52,6.52,0,0,1,157.24,47.39Z" transform="translate(-35.84 4.43)"/><path class="cls-1" d="M83.41,5.3c-2.06,1.48-5,.14-6.78,2.54-.74-2.07,2.53-2.07,3.2-3.8C81.23,5.12,82.22,4.87,83.41,5.3Z" transform="translate(-35.84 4.43)"/><path class="cls-1" d="M215.94,74.32c-.71,1-1.85.43-2.16-.52C214.26,73.23,215.19,74,215.94,74.32Z" transform="translate(-35.84 4.43)"/><path class="cls-1" d="M249.51,93.63c-1.36.29-2.68.8-4.33.17C246.11,92.13,247.76,92.69,249.51,93.63Z" transform="translate(-35.84 4.43)"/><path class="cls-1" d="M251.4,95.82c-.27,1.68-1.5.29-2.41,0C249.55,95,250.42,95.14,251.4,95.82Z" transform="translate(-35.84 4.43)"/><path class="cls-1" d="M91.46,13.13c-.78.48-1.34,1.65-2.66.44C89.59,13.08,90.3,12.43,91.46,13.13Z" transform="translate(-35.84 4.43)"/><path class="cls-1" d="M167.86,59.58c-1.14-.24-.24,2.13-1,3.12-1.67-1-1.1-2.58-.16-4.34,1.76.54,2.57-1.93,3.66-3.54,1.76,1.3-1.18,4.09.15,5.53-4.16,1.5,1.08,6.07.09,9.13.9.75,1.24-.21,1.7-.93,1.48.33.46,1.45,1.4,2a1.47,1.47,0,0,1-1.87.23c-.39.92,1.46,1.13,1.4,2L172,75.06A22.71,22.71,0,0,1,167.86,59.58Z" transform="translate(-35.84 4.43)"/><path class="cls-1" d="M240.65,92c-1.54.18-3.35-.62-5-.8C236.75,89.79,238.69,90.89,240.65,92Z" transform="translate(-35.84 4.43)"/><path class="cls-1" d="M140.23,44c.55-.77,1.38-.66,2.4,0C142.08,44.81,141.24,44.69,140.23,44Z" transform="translate(-35.84 4.43)"/><path class="cls-1" d="M207.71,79.73c2.2,1.23-.89.42-1,1.91-4.29-.11-7.67,2.66-13-.7,1.21-.8,3,.46,4.56.56-4.35-2.84-11.29-3-16.52-4.36,6.24-1.72,14.28,2.29,21.61,4,1.6-1.73-1.64-1.4-1.4-2C202.41,78,206.3,81,207.71,79.73Z" transform="translate(-35.84 4.43)"/><path class="cls-1" d="M73.92,11.88c.78.94-1.55,2.58-2.67,1.63C71.81,11.91,73.2,12.92,73.92,11.88Z" transform="translate(-35.84 4.43)"/><path class="cls-1" d="M211.9,85.55l1.41.74c-1.32,2.13-3.33,2.07-4.86,3.52-.57-.48.22-1.39.52-2.15-1.38-1.09-1.55,1.38-2.16-.52-.6.11-1.45,1.66-2.46,3.57-2.18-1.45-3,1.44-4.15,3.3-1-.61-.39-1.74.3-2.88-1-.27-1.34,1.64-2.65.43-.29,1.2-.69,3-2.44,2.37,1.32-3.37,3.36-4.5,5.83-4.23,1.26-3.18,3.81-2.25,5.37-4.48C207.63,87.21,210.48,86.27,211.9,85.55Z" transform="translate(-35.84 4.43)"/><path class="cls-1" d="M180.83,74.22c1.11-2.4,3.26-1.48,5.31-.88-.87,1-2.38.06-2.92,2.13C181.92,74.36,182.48,74.65,180.83,74.22Z" transform="translate(-35.84 4.43)"/><path class="cls-1" d="M125.5,47.83c.08,2,3.4.5,3.57,2.46-1.53-.2-2.86.2-4.57-.55.64-2.47-2.77-3.65-1.57-6.28,1.77,1.68,4,2.08,6.45,2.75-1.26,1.47-3.51-.2-5.51-1,.37,2.72,4.19,1.61,6.67,3.47C129.26,49.63,127.31,48.53,125.5,47.83Z" transform="translate(-35.84 4.43)"/><path class="cls-1" d="M255.67,113.2c-1.54.58-4-1.9-6-2.5C251.88,109.66,253.35,111.81,255.67,113.2Z" transform="translate(-35.84 4.43)"/><path class="cls-1" d="M174.85,72.92c2,.74-.84,3.78-2,2.61C173.29,73.89,174.44,74.56,174.85,72.92Z" transform="translate(-35.84 4.43)"/><path class="cls-1" d="M197.48,85.32c-1.51,0-4.42.21-5.26-1.54C193.77,83.65,195.69,84.69,197.48,85.32Z" transform="translate(-35.84 4.43)"/><path class="cls-1" d="M182,77.84c-.51.86-1.74-.48-2.18.7,1.57.81,2.79.42,4.54,1.75-2.27,0-4.31.62-7-.59.6-.73.08-1.09-.46-1.46C178.61,78.1,179.68,76,182,77.84Z" transform="translate(-35.84 4.43)"/><path class="cls-1" d="M168.6,73.3c2.17.64,2.06,2,1.13,3.62l-2.38-1.24Z" transform="translate(-35.84 4.43)"/><path class="cls-1" d="M240.28,112.45c-1.39.67-3.73-1.72-5.49-2.26C236.67,109.22,238.13,111.2,240.28,112.45Z" transform="translate(-35.84 4.43)"/><path class="cls-1" d="M191.68,87.14l.95.5c-.3,1.13-1.14.53-1.92.2C191,87.5,191.43,87.62,191.68,87.14Z" transform="translate(-35.84 4.43)"/><path class="cls-1" d="M175.7,79.42a32.16,32.16,0,0,1,10,7.62c-3.68-.5-6.21-6.05-10.48-5.46A3,3,0,0,1,175.7,79.42Z" transform="translate(-35.84 4.43)"/><path class="cls-1" d="M244.25,121.19c.48.77,1.65,1.33.44,2.65C244.72,122.89,243.54,122.34,244.25,121.19Z" transform="translate(-35.84 4.43)"/><path class="cls-1" d="M134.56,66.48a5.18,5.18,0,0,1-.08,4.81c-1.15-1.23-.15-3.14-2.82-3.89C132.09,65.37,133.77,67.3,134.56,66.48Z" transform="translate(-35.84 4.43)"/><path class="cls-1" d="M241.56,124a1.28,1.28,0,0,1,.74,1.64,1.25,1.25,0,0,1-.77.75C240.74,125.87,240.86,125,241.56,124Z" transform="translate(-35.84 4.43)"/><path class="cls-1" d="M197.1,108.14c-1.72-.42-3.11.23-5-.8,1.89,1.93,4.42,3.66,6.16,5.63-3.4.26-4.72-3.59-7.86-4.69-1.23,2.37,1.15.71,1.41,1.94-.09-.44-5.48.34-7.45-.85C188.52,109,193.41,102.13,197.1,108.14Z" transform="translate(-35.84 4.43)"/><path class="cls-1" d="M237.15,129c.62,1.12,0,2.67-.31,4.08-1.11-1-1.4.52-2.18.69-1.17-.43.19-1.66-.67-2.18C235.41,132.24,236,131.74,237.15,129Z" transform="translate(-35.84 4.43)"/><path class="cls-1" d="M139.36,81.72c-1.76.5-2.59-1.51-2.11-2.93a2,2,0,0,1,2.11,2.93Z" transform="translate(-35.84 4.43)"/><path class="cls-1" d="M161.17,100.35c.48-.57,1.4.22,2.16.52C162.62,101.89,161.52,101.3,161.17,100.35Z" transform="translate(-35.84 4.43)"/><path class="cls-1" d="M144.45,94.06a7.89,7.89,0,0,1-6-.1C140,93.07,143,91.3,144.45,94.06Z" transform="translate(-35.84 4.43)"/><path class="cls-1" d="M154.2,101c.36-.52,1.09,0,1.67.27l-.74,1.42C153.94,102.36,154.92,101.37,154.2,101Z" transform="translate(-35.84 4.43)"/><path class="cls-1" d="M132.38,97.46c-2.68,2-6.52.4-8.95,3.23C123.88,97.27,130.1,95.11,132.38,97.46Z" transform="translate(-35.84 4.43)"/><path class="cls-1" d="M172.6,121.44c-1.74,1.64-4.2,1-6.5.85C168,121,170.34,121.41,172.6,121.44Z" transform="translate(-35.84 4.43)"/><path class="cls-1" d="M164.9,122.27c-.78.49-1.5,1.15-2.65.44C163,122.23,163.75,121.58,164.9,122.27Z" transform="translate(-35.84 4.43)"/><path class="cls-1" d="M161,125.07c.85.27.59.88,1.18,1.23-1.88,1.58-.35,3.34-2.23,4.29a3.83,3.83,0,0,1,.81-5.36Z" transform="translate(-35.84 4.43)"/><path class="cls-1" d="M161.61,133.27c.67,2.68,1.22,1.83,3.8,2-2.09.75-2.62,1.62-3.43,4.27C161.18,137.79,160.65,134.29,161.61,133.27Z" transform="translate(-35.84 4.43)"/><path class="cls-1" d="M130.65,143.83l1.74-3.34C135.55,141,132.84,146.16,130.65,143.83Z" transform="translate(-35.84 4.43)"/><path class="cls-1" d="M124.65,143.73c.7-1,2.23.81,2.38,1.24,1.13,1,4.09,1.37,4,2.71l-4.8-2.5C125.39,144.85,125.6,144.09,124.65,143.73Z" transform="translate(-35.84 4.43)"/><path class="cls-1" d="M110.5,140.62a1.47,1.47,0,0,1,.23,1.93A1.5,1.5,0,0,1,110.5,140.62Z" transform="translate(-35.84 4.43)"/><path class="cls-1" d="M121.23,146.8c-.46,1.08-1.81-.66-2.63-.76C119.27,144.84,121,145.83,121.23,146.8Z" transform="translate(-35.84 4.43)"/><path class="cls-1" d="M112.4,142.81c2.35,1.3,2.24,1.9,4.74,3.68C115.5,146.86,111.83,144.46,112.4,142.81Z" transform="translate(-35.84 4.43)"/><path class="cls-1" d="M109,142.28c.82,1.1,1.33.55,1.88,2.18C110,145.35,108.09,143.28,109,142.28Z" transform="translate(-35.84 4.43)"/><path class="cls-1" d="M118.57,147.24a3.46,3.46,0,0,1,2.14,1.71C120.39,149.78,117.09,148.3,118.57,147.24Z" transform="translate(-35.84 4.43)"/><path class="cls-1" d="M128.26,157.73c-3-.68-6.27-4.66-10.72-6.18C119.6,151.49,127,154.57,128.26,157.73Z" transform="translate(-35.84 4.43)"/><path class="cls-1" d="M107.76,147.06c-.46,1.07-1.81-.67-2.64-.77C105.81,145.1,107.48,146.09,107.76,147.06Z" transform="translate(-35.84 4.43)"/><path class="cls-1" d="M150,168.43l2.37,1.24c-.33,1.86-1.86,0-2.87-.29Z" transform="translate(-35.84 4.43)"/><path class="cls-1" d="M162.56,176.81c-2.3.42-5.67-1.73-8.35-3.74C156.73,171.61,159,176,162.56,176.81Z" transform="translate(-35.84 4.43)"/><path class="cls-1" d="M129.42,160.16c-4.73-.78-8.51-5.31-13.82-7.2C118.14,152.72,125.56,158.05,129.42,160.16Z" transform="translate(-35.84 4.43)"/><path class="cls-1" d="M139.88,166.82c-.34,1.86-1.87,0-2.88-.29C137.62,165.52,138.74,166.13,139.88,166.82Z" transform="translate(-35.84 4.43)"/><path class="cls-1" d="M134.87,164.82C133.05,165.75,132.11,162.68,134.87,164.82Z" transform="translate(-35.84 4.43)"/><path class="cls-1" d="M93.83,145.87c3.56-.05,6,3.73,8.81,5.19C99.14,151.09,97.14,147.23,93.83,145.87Z" transform="translate(-35.84 4.43)"/><path class="cls-1" d="M113.61,156.75c1.29-.88,3,1.43,3.82,2C116,159.69,115.62,157,113.61,156.75Z" transform="translate(-35.84 4.43)"/><path class="cls-1" d="M148.61,176.82c-.76,1-2.45-1-3.58-1.27C145.76,174.17,148.31,175.84,148.61,176.82Z" transform="translate(-35.84 4.43)"/><path class="cls-1" d="M92.11,148c3.56,0,5.9,3.72,8.81,5.2C97.42,153.23,95.42,149.36,92.11,148Z" transform="translate(-35.84 4.43)"/><path class="cls-1" d="M106.67,155C104.9,155.9,103.9,152.82,106.67,155Z" transform="translate(-35.84 4.43)"/><path class="cls-1" d="M112.11,159.63c.47-1.08,1.81.67,2.64.76C114.29,161.47,112.93,159.78,112.11,159.63Z" transform="translate(-35.84 4.43)"/><path class="cls-1" d="M132.14,170.06c-4,.74-7.7-4.49-12.66-6C123.28,163.22,127.24,168.67,132.14,170.06Z" transform="translate(-35.84 4.43)"/><path class="cls-1" d="M98,154.11c-3.78-.15-6.28-4.13-9.76-5.69C90.26,147.43,95.58,152.82,98,154.11Z" transform="translate(-35.84 4.43)"/><path class="cls-1" d="M135,172.74c2.35-.17,5.64,2.74,8.35,3.76C141.49,177.74,136.39,174.18,135,172.74Z" transform="translate(-35.84 4.43)"/><path class="cls-1" d="M103.25,158.05c0-1.15,8.75,4.55,6,3.7s-.31.42-3.34-1.74C106.07,160.15,103.27,158.51,103.25,158.05Z" transform="translate(-35.84 4.43)"/><path class="cls-1" d="M129.23,172.17c-4.49-.6-10.2-4.63-14.31-7.45-4.73-3.23,3.83.81.24-.47C119.18,165.69,123.85,169.71,129.23,172.17Z" transform="translate(-35.84 4.43)"/><path class="cls-1" d="M86.55,150.55c9.89,3.27,15.5,11.36,25.7,15.81C103.25,162.82,94,155.91,86.55,150.55Z" transform="translate(-35.84 4.43)"/><path class="cls-1" d="M97.91,161.32c-2.39-1.1-11.33-6.86-11.68-7.9C89.64,154.7,95.44,158.46,97.91,161.32Z" transform="translate(-35.84 4.43)"/><path class="cls-1" d="M113.46,167.6c1.35-.42,9.19,4,11.92,6.21l10.5,5.47C128.54,176.93,120.13,171.43,113.46,167.6Z" transform="translate(-35.84 4.43)"/><path class="cls-1" d="M106.71,166.51c-2.49.46-3.72-2.8-6.67-3.47C100,161.92,105.86,165.31,106.71,166.51Z" transform="translate(-35.84 4.43)"/><path class="cls-1" d="M83.36,154.35c10.53,6.24,18.86,13.21,30,19.24A187.1,187.1,0,0,1,86.89,158C85.73,157.16,83.28,156.11,83.36,154.35Z" transform="translate(-35.84 4.43)"/><path class="cls-1" d="M130.78,179.65c-1.95,1-5.76-1.6-8.6-3.27-3.81-2.23-6.61-4.95-11.42-7.15C114.94,170.12,123.72,176.68,130.78,179.65Z" transform="translate(-35.84 4.43)"/><path class="cls-1" d="M130.2,185.41c-3.14,1.07-5.52-2.13-7.87-3.5-14.16-8.2-28.45-15.19-40.71-24.22.37-.53,1.1.06,1.68.26,5.08.39,7.58,5.08,11.67,7.9C105.23,173,118.17,178.38,130.2,185.41Z" transform="translate(-35.84 4.43)"/><path class="cls-1" d="M115,175.06a52.34,52.34,0,0,1,14.78,7.7C125.1,181.7,120.57,177.16,115,175.06Z" transform="translate(-35.84 4.43)"/><path class="cls-1" d="M90.14,165.76c-4-.22-7-4.15-11-5.71C82.7,159,87.3,164,90.14,165.76Z" transform="translate(-35.84 4.43)"/><path class="cls-1" d="M121.07,184.32l5.72,3c4.71,2.85-.33.33-3.1-1-8-3.92-12.81-7.33-20.25-11.14-2.36-1.23-8.94-5.71-11.92-7.43-4-2.31,7.12,3.65,8.11,4.22C106.49,175.87,114.13,179.31,121.07,184.32Z" transform="translate(-35.84 4.43)"/><path class="cls-1" d="M125.8,190.38c-2.19-.51-6.49-3.79-10-5.21C118.62,185.49,123.71,188.51,125.8,190.38Z" transform="translate(-35.84 4.43)"/><path class="cls-1" d="M105.42,186.44c4.68,1,14.8,7.38,19.78,10.91-3.25-2-8.17-3.54-10.23-5.94C111.35,191.14,109.29,187.85,105.42,186.44Z" transform="translate(-35.84 4.43)"/><path class="cls-1" d="M143.79,207C138.4,206.32,141.54,204.63,143.79,207Z" transform="translate(-35.84 4.43)"/><path class="cls-1" d="M71.6,170c4.29,2.24,9,4.37,11.43,7.16-1.12.55-2.35-1.12-4.29-2.23C76.14,173.49,71.74,172.4,71.6,170Z" transform="translate(-35.84 4.43)"/><path class="cls-1" d="M101.56,188.07c-3.11-.18-6.28-3.1-9.07-4.72-1.81-1.06-7.29-2.87-7.37-4.45,0-.43,1-.1,1.2,0C88.61,180.26,96.55,185.08,101.56,188.07Z" transform="translate(-35.84 4.43)"/><path class="cls-1" d="M103.43,189c6,1.71,11.73,6.92,18.62,9.7,3.8,2.78-3.85-1.43-5.49-2.25A132.67,132.67,0,0,1,103.43,189Z" transform="translate(-35.84 4.43)"/><path class="cls-1" d="M140.93,208c-3,1.61-6-3.33-9.32-4.24C132.35,202.78,138.13,206.84,140.93,208Z" transform="translate(-35.84 4.43)"/><path class="cls-1" d="M80,182.9c-2.34.69-11.78-5.69-11.92-6.21C72.4,177.18,75.88,181.08,80,182.9Z" transform="translate(-35.84 4.43)"/><path class="cls-1" d="M99.07,192.83c4.77,2.48,10.09,4.12,14.55,7,1.13.71,3.62,1.88,3.55,3.67C111.32,199.47,104,196.13,99.07,192.83Z" transform="translate(-35.84 4.43)"/><path class="cls-1" d="M96,191.82c-3.34-.29-8.93-4.51-2.86-1.49C94.25,190.89,94.87,191.27,96,191.82Z" transform="translate(-35.84 4.43)"/><path class="cls-1" d="M65.91,177.37c6.39,2.9,11.1,6.35,16.19,9.65-3.73-.05-10.49-4-14.08-6.72C67,179.48,65.45,178.28,65.91,177.37Z" transform="translate(-35.84 4.43)"/><path class="cls-1" d="M106.39,200.88c.46-1.07,1.81.67,2.63.77C108.57,202.72,107.22,201,106.39,200.88Z" transform="translate(-35.84 4.43)"/><path class="cls-1" d="M117.11,207.06l-4.76-2.48C112.93,203.27,118.13,205.45,117.11,207.06Z" transform="translate(-35.84 4.43)"/><path class="cls-1" d="M83.75,189.68c.46-1.08,1.79.67,2.63.77C85.91,191.53,84.57,189.79,83.75,189.68Z" transform="translate(-35.84 4.43)"/><path class="cls-1" d="M123.31,210.29c3.76.55,8.5,4.22,12.67,6C132.88,216.05,126.46,211.93,123.31,210.29Z" transform="translate(-35.84 4.43)"/><path class="cls-1" d="M92,197c-4.09-.81-9.62-5.49-12.87-6.7.33-1,1-.75.72-.23A84.27,84.27,0,0,1,92,197Z" transform="translate(-35.84 4.43)"/><path class="cls-1" d="M63.68,181.67C66,183,68.53,184,70.83,185.39c1.9,1.16,4.82,2.58,5,4.41-2.56-1.58-6-2.78-8.57-4.47C65.77,184.39,63.31,183.24,63.68,181.67Z" transform="translate(-35.84 4.43)"/><path class="cls-1" d="M100.13,201.26c.77-1,2.45,1,3.59,1.26C103,203.48,101.27,201.49,100.13,201.26Z" transform="translate(-35.84 4.43)"/><path class="cls-1" d="M109.19,206c.58-.54,4.9,1.07,3.57,2.47C111.42,207.67,109.5,207.08,109.19,206Z" transform="translate(-35.84 4.43)"/><path class="cls-1" d="M95.07,201.66c.76-1,2.46,1,3.6,1.26C97.94,203.9,96.22,201.89,95.07,201.66Z" transform="translate(-35.84 4.43)"/><path class="cls-1" d="M131.78,220.78c.38-.73,4.1.8,2.62,2C133.19,222.2,132.06,221.61,131.78,220.78Z" transform="translate(-35.84 4.43)"/><path class="cls-1" d="M79.8,194.91c1-.61,8.82,3.16,8.59,4.47Z" transform="translate(-35.84 4.43)"/><path class="cls-1" d="M92.7,200.42C90.41,201.05,89.43,198,92.7,200.42Z" transform="translate(-35.84 4.43)"/><path class="cls-1" d="M128.65,221l2.39,1.25c-.34,1.85-1.86,0-2.88-.3Z" transform="translate(-35.84 4.43)"/><path class="cls-1" d="M62.67,187.21c5,2.79,11,5.29,15,8.41C73.85,195.07,63.62,191.09,62.67,187.21Z" transform="translate(-35.84 4.43)"/><path class="cls-1" d="M80,196.84c3.78,2.56,6.51,3.73,11.19,6.44-1.61.17-4.06-1.45-6.46-2.76C83,199.55,79.45,198.72,80,196.84Z" transform="translate(-35.84 4.43)"/><path class="cls-1" d="M106.93,211.47c.28-1,2.54.43,1.19,1.22l-1-.5C107.47,211.83,107.21,211.65,106.93,211.47Z" transform="translate(-35.84 4.43)"/><path class="cls-1" d="M106.9,213.87l1.91,1c-.27,1.68-1.53.33-2.4-.05Z" transform="translate(-35.84 4.43)"/><path class="cls-1" d="M133.35,228.25c3.17.6,9.06,3.78,11.43,6C141.61,233.61,135.72,230.44,133.35,228.25Z" transform="translate(-35.84 4.43)"/><path class="cls-1" d="M79,200C77.19,200.86,76.23,197.81,79,200Z" transform="translate(-35.84 4.43)"/><path class="cls-1" d="M85.43,203.9c-2.05.75-2.82-2.27-5.24-2.73C80.08,199.76,84.47,203.07,85.43,203.9Z" transform="translate(-35.84 4.43)"/><path class="cls-1" d="M89,205.16c-.87.61-2,.28-3.35-.53C86.35,203.44,87.75,204.52,89,205.16Z" transform="translate(-35.84 4.43)"/><path class="cls-1" d="M91.15,206.88c.48-.58,1.39.23,2.15.52C92.83,207.94,91.9,207.17,91.15,206.88Z" transform="translate(-35.84 4.43)"/><path class="cls-1" d="M72.75,200.33c-3.89-2.52-7.61-4.32-12.63-7.18-.89-.25-.69-.83-.46-1.45,2.09.17,4.6,1.64,6.93,3C69.23,196.24,72.76,198.13,72.75,200.33Z" transform="translate(-35.84 4.43)"/><path class="cls-1" d="M104.21,216.71c.37-.73,4.09.8,2.61,2C105.18,218.26,105.34,217.29,104.21,216.71Z" transform="translate(-35.84 4.43)"/><path class="cls-1" d="M77.27,203.29c3.43.38,7.86,3.89,11.68,5.48C85.47,208.36,81.08,204.88,77.27,203.29Z" transform="translate(-35.84 4.43)"/><path class="cls-1" d="M80.06,208.39c.61-1,2.13.84,3.11,1C82.57,210.41,81,208.57,80.06,208.39Z" transform="translate(-35.84 4.43)"/><path class="cls-1" d="M85.78,211.36c1.34-1.14,1.6,1.26,2.14,1.72,1.87,1.28,7.77,3.38,6.9,4.2l-8.11-4.22A1.48,1.48,0,0,0,85.78,211.36Z" transform="translate(-35.84 4.43)"/><path class="cls-1" d="M104.15,220.32c1,.33,1.44.88.93,1.69l-1.42-.74Z" transform="translate(-35.84 4.43)"/><path class="cls-1" d="M94.1,219.94c1-1.52,2.29,2.1,2.64.76C97.34,223,95.05,220.52,94.1,219.94Z" transform="translate(-35.84 4.43)"/><path class="cls-1" d="M106.18,228c-2.36-1-2.82-2.59-5.47-3.45C102.09,222.91,106.41,226.61,106.18,228Z" transform="translate(-35.84 4.43)"/><path class="cls-1" d="M76.65,211.46l.94.49-.49,1-.95-.5Z" transform="translate(-35.84 4.43)"/><path class="cls-1" d="M77.58,213.15c.91-.89,2.76,1.2,4.06,1.51A4,4,0,0,1,77.58,213.15Z" transform="translate(-35.84 4.43)"/><path class="cls-1" d="M85.45,216.65C83.65,217.56,82.69,214.51,85.45,216.65Z" transform="translate(-35.84 4.43)"/><path class="cls-1" d="M60.9,204.46c4.05,2.57,10.7,4.33,11.66,7.9C68.6,209.73,61.64,208.08,60.9,204.46Z" transform="translate(-35.84 4.43)"/><path class="cls-1" d="M88.29,219.34c1.4-.67,3.74,1.72,5.5,2.25C92.41,222.26,90.05,219.87,88.29,219.34Z" transform="translate(-35.84 4.43)"/><path class="cls-1" d="M96.17,222.83c-.26,1.69-1.53.33-2.4,0C94.32,222,95.2,222.16,96.17,222.83Z" transform="translate(-35.84 4.43)"/><path class="cls-1" d="M74.93,213.58c2.46.9,3,2.39,4.77,2.49C79.08,217.38,73.9,215.21,74.93,213.58Z" transform="translate(-35.84 4.43)"/><path class="cls-1" d="M101.63,227.49c1,.34,1.43.87.92,1.7l-1.42-.75Z" transform="translate(-35.84 4.43)"/><path class="cls-1" d="M80.15,217.52c.77-1,2.45,1,3.59,1.26C83,219.71,81.3,217.72,80.15,217.52Z" transform="translate(-35.84 4.43)"/><path class="cls-1" d="M84.92,220c.46-1.08,1.81.66,2.64.76C87.09,221.87,85.75,220.1,84.92,220Z" transform="translate(-35.84 4.43)"/><path class="cls-1" d="M95.64,226.19c-1.92.83-2.92-2-4.78-2.48C91,222.79,95.19,224.49,95.64,226.19Z" transform="translate(-35.84 4.43)"/><path class="cls-1" d="M101.31,230.4l-5.71-3C96.5,226.15,102.14,228.64,101.31,230.4Z" transform="translate(-35.84 4.43)"/><path class="cls-1" d="M104.69,230.91c-.61,1-1.73.4-2.88-.29C102.16,228.76,103.68,230.65,104.69,230.91Z" transform="translate(-35.84 4.43)"/><path class="cls-1" d="M83.22,222.11c1.22-.74,3.41,1.55,5,2C87,224.89,84.82,222.6,83.22,222.11Z" transform="translate(-35.84 4.43)"/><path class="cls-1" d="M91.78,226.56c1.07-.82,3.09,1.39,4.54,1.77C95.59,230.3,92.12,227.33,91.78,226.56Z" transform="translate(-35.84 4.43)"/><path class="cls-1" d="M77.46,221.58c.61-1,2.14.85,3.12,1C79.94,223.59,78.43,221.72,77.46,221.58Z" transform="translate(-35.84 4.43)"/><path class="cls-1" d="M88.88,227.52C87.07,228.43,86.12,225.37,88.88,227.52Z" transform="translate(-35.84 4.43)"/><path class="cls-1" d="M99.58,234.91a50,50,0,0,0-8.81-5.2c-1-.33-.74-1-.23-.73C92.8,229.71,100.4,231.91,99.58,234.91Z" transform="translate(-35.84 4.43)"/><path class="cls-1" d="M75.73,223.7c1.07-.82,3.08,1.37,4.53,1.75C79.19,226.28,77.17,224.07,75.73,223.7Z" transform="translate(-35.84 4.43)"/><path class="cls-1" d="M74.74,225.58c.14-.09,1.49-.35,1.68.27S73.83,226.24,74.74,225.58Z" transform="translate(-35.84 4.43)"/><path class="cls-1" d="M76.65,226.58c.46-1.08,1.8.66,2.64.76C78.82,228.44,77.47,226.7,76.65,226.58Z" transform="translate(-35.84 4.43)"/><path class="cls-1" d="M89.26,233.78c-1.32-.94-6.39-2.75-5-3.21C85.28,230.54,90.22,231.93,89.26,233.78Z" transform="translate(-35.84 4.43)"/><path class="cls-1" d="M90.47,233.77c1,.34,1.44.88.94,1.7L90,234.72Z" transform="translate(-35.84 4.43)"/><path class="cls-1" d="M94.75,236l2.39,1.24c-.35,1.86-1.87,0-2.88-.3Z" transform="translate(-35.84 4.43)"/><path class="cls-1" d="M73.76,226.31c6.75,3.59,11,8,17.63,11.61-4,.8-8.92-4.53-11.67-6.69C77.24,229.73,73.63,228.6,73.76,226.31Z" transform="translate(-35.84 4.43)"/><path class="cls-1" d="M89.25,235c1,.33,1.44.87.93,1.7l-1.43-.75Z" transform="translate(-35.84 4.43)"/><path class="cls-1" d="M92.33,237.19l4.77,2.48-.5,1C95.39,239.41,91.24,239.12,92.33,237.19Z" transform="translate(-35.84 4.43)"/><path class="cls-1" d="M79.35,236.5c1.69-1.3,9.79,3.27,9.29,5.43A62.46,62.46,0,0,0,79.35,236.5Z" transform="translate(-35.84 4.43)"/><path class="cls-1" d="M115.61,254.16c-.82,2-3.25-1-4.79-1.27C111.64,250.86,114.05,254,115.61,254.16Z" transform="translate(-35.84 4.43)"/><path class="cls-1" d="M74,254.92l.5-1,1.47.77-.74,1.43c-.85-.26-.6-.87-1.19-1.21Z" transform="translate(-35.84 4.43)"/><path class="cls-1" d="M67.33,251.44c1.54,2-.17,6.25-3,5.73C64.4,255.05,66,253,67.33,251.44Z" transform="translate(-35.84 4.43)"/><path class="cls-1" d="M62.18,257.85c-.4,1.25-1.43.58-1.72,2.14-.9-.91-2.21-1.7-2.84-2.7C58.66,255.94,60.75,258,62.18,257.85Z" transform="translate(-35.84 4.43)"/><path class="cls-1" d="M65.73,260.35c-.57,1.6-1.82,1-3.13.19C63.48,259.89,64.37,259.3,65.73,260.35Z" transform="translate(-35.84 4.43)"/><path class="cls-1" d="M60.69,260.71c-.36,1.53-2.86,3.16-2.5,6-.54-.5-.32-1.23-.94-1.7-2,0-.46,3-2.21,3.09C51.84,264.82,58.61,262.48,60.69,260.71Z" transform="translate(-35.84 4.43)"/><path class="cls-1" d="M62.4,273.71c1.13.31.53,1.15.21,1.94-.34-.29-.23-.73-.71-1Z" transform="translate(-35.84 4.43)"/><path class="cls-1" d="M58.25,291c.76.89-1.61,2.36-2.21,3.09-.84-1.36-1.49-2.48-3.57-2.46a3.51,3.51,0,0,1,1.72-2.14C54.87,291.1,56.72,292.28,58.25,291Z" transform="translate(-35.84 4.43)"/><path class="cls-1" d="M54.37,293.78c-.2,2.34-4.56,2.26-6.76,2.53-1.14,1.05-1.93,3.18-3.88,1.62.79-2.57,2.94-.78,3.89-2.82.19-.73-1-1-1.65-1.47C48.31,292,51.63,296.29,54.37,293.78Z" transform="translate(-35.84 4.43)"/><path class="cls-1" d="M62.61,304.73c1.83,1,1.93,8.77-2.28,6.7C62.85,309,62.4,307.64,62.61,304.73Z" transform="translate(-35.84 4.43)"/><path class="cls-1" d="M269.29,118.47c2.42.48-2.32,2.38-.78,3.84,1.3-.53,2.07-2.71,3.18-3.8-6.2-.32-12.23,0-18.27.18-3.24,5-6.62,12.15-11.07,15.44a27.5,27.5,0,0,1-6.3,2.79c-1.91.3-6.43-.09-7.94-1.12-5.11-3.45-2.32-13.9,3.45-19.41-8.19-4-14.74-2.94-22.24-4.92-6.57,3.76-11.78,6.2-19.74,3.06-2.8-1.12-5.39-3.47-8.12-3,5.86,4.39,11.81,8.65,9.35,15.78-2.64,7.65-11,16.82-17.35,17C169.2,148,162.72,153,158,148.38c-3.74-3.64,3.83-9.28-1-13.24-3.67,3.05-7.14,9.39-9.35,13.31-1.81-2.38.78-5.53,2.29-7.9,1.71-2.69,5-5.21,5.9-7.83-3.93,3.35-7.95,9.49-10.33,14-2.46-1.51.34-4.57,1.55-6.46a36.54,36.54,0,0,1,8.07-8.53c1-1.75-.75-3.94,1.29-4.79,1.81,1.49.73,3.35,1.35,5.55,1.11,4,4.22,6.78.75,12.52,2.57,7.62,9.27,1,14.69-1.44,4.75-2.18,12.91-7.94,15.67-17.29,1.58-5.31-1.51-8.68-6.29-12.36.09,1.5-3.81-.25-4.53-1.77,1.38-2.34,4-.92,5.57-2.54,8,5.77,17.66,6.44,23.35.64-2.39-3.5-11.69,0-10-5.22-4.09-3.26-6.13-.05-9.37-.63,9.44-5.87,20.44-6.77,31.14-8.59,3.41,2.91,7.75,1,12.44,4.06-2.88.58-6.48-1.12-9.37-.64a170.43,170.43,0,0,0,20.48,11.88c1.71.83-.2-2.11,1.21-1.18,3,1.18,3.83,3,6.91,4.2a11.72,11.72,0,0,0-4.74-3.68c3.22-.93,5.8,2.87,9.3,4.23-4,1.5-9.22-1.42-15.32-4.33-2.52-1.19-5.7-1.76-7.64-2.78-7.28-3.79-13.62-9.83-21.72-9.49.33,1.52,3.48,1,5.24,2.73-1.86.83-4.63-1.29-6.95-1.8-.49,1.08,1.91,1.26,2.62,2-2,.6.7,1.49.43,2.65,7.28,3.72,14.76,8.06,20.36,6.37l5.24,2.73c-1.94.85-2.13-.63-4.31-1-.21.6.68.86,1.19,1.22-9.47,1.71-22.55-10.81-33.45-12.58-1.38,1.54,1.53,1.65,2.37,2.45-2.26.42-5-.72-7.46-.84-.7,1.21,2.7,1.32,3.09,2.2.07.16-.85,1.35-.74,1.44,2.11,1.66,4.94.32,8.15,1.82,1.32.61,2.25,2.51,3.32,2.94,3.84,1.56,10.13,0,15.35,1.94,4.43,1.61,7.29,3.79,11,2.1,8.77,4.62,16.25,3.43,24.47,3,5.88-.32,14.63-2.1,20.84,4.19-3.1-5.24-8.57-12.24-15.87-13.72,1.53,3-7.82-2.76-5.23-3.93-1.41-1.08-2.38-.84-3.59-1.26,2.34,3.07,7.43,8.59,13.3,10.55-1.42,1.52-3.5-.56-4.33-1-3.61-2.13-6.54-5.91-10.44-7.86-2.45-1.28-6.56-1.23-9.8-3.29,2.48-1.39,6.61,2.46,9.12,1.1-4-3.19-9.89-1.89-14.84-4.08.49,1.88,3.8,2,5.25,2.73-1.74,1.56-4.15-1.27-6.22-2s-3.51-.52-4.79-1.28c8.56,3.77,18.07,14.36,25.76,12.2l5.25,2.74c-.24,1.06-3.48-.19-1.23,1.18-13-.63-27.49-18.82-41.55-16.8-1.21-.63-.39-.64,0-1.19-16.79.28-32.53,3.83-46.38,13.41,2.86,1,6.86-5.2,11.12-3.9a86.58,86.58,0,0,0-9,5.62c-.36,3.88,2.57,4.43,5.16,7.54-.83.87-3.17-1.08-3.34-1.74a9.17,9.17,0,0,0-2.42,1.17c5.44.57,8,7.43,8.2,12.16-2.44-1.09-1.16-6.8-4.42-9-2.38.24-.22,4.53-4.36,2.57,2.32,3.38,5.2,6.6,3.9,11.12-1.4-2.48-1.52-5.37-3.24-7.74-1.64.37-.19,5.12-3,4.51.65,2.06,1.54,4,.85,6.51,0-1.73-1.61-2.95-1.84-4.6-.84,1.61-2.52,4.58-4.66,5.47-.9,1.23,2.4-.28,1.66,1.47.43,1.74-2.23,1.34-3.63,1.13a18.39,18.39,0,0,1-4.42,6.19c0-5,4.44-8.72,6.7-12.87s3.11-7.86,5.48-11.69c.25-.75-1.33-.91-.93-1.71,1.87-1.94,3.42-7.76,2.09-11-4.88,2.2-6.62,5.83-13.31,5.78-2.62,2.56,2,4.77-1.53,5.27-1-.9.5-3.12-1.12-4.84l1.24-2.37c-5.37.9-1.36,7.75-2.83,11.24-6.06,4.4-11.47,10.94-16.41,18.73-1.18.82-3.83,1.17-3.43,3.07,1.22-2.34,2.68-.64,4.85-2.33,1.21,1.67-1.46,3.08-.32,5.29,1.08.49,1.25-1.92,2-2.62,1.19.86,2.23,5,2.85,1.49,2.27.9.14,2.92-.79,3.83,4.45.13,2.69-5.81,3.75-8.34,2.14.65.84,2.39.42,3.85,2.05,1.37,3.09.56,4.28,2.23-2.61.68-5.19,1.19-7,4.22-4.85-2.45-7.8-5.51-12.85-7.91,3.61.16-.47-3.43,3.64-2.34.33-.89-.25-1.51-1.41-1.94,4-8.48,5-16.81,6.42-25.14.25-1.39,2.15-3.19.56-4.55-2.15,1.48-1.08,5.37-1.56,7.66-.52-.37-.95-.36-1.21,0,.06,3.3-3.63,7.78-1.85,10.55-3,.77.56,2.34-2,2.6.21,3.49-2.47,5.15-1.6,10.08-1.14,1.05-1.93,3.18-3.88,1.61,3.84-2.32,3.44-7.57-1.77-9.4.69-2,3,.83,4.31,1,2.55-8.25,5.66-16.66,6.65-24.42-4-.8-7.05,1.23-10.83,1-5.11,4-17.66,6.59-20.63-2.25,3.81-4.35,5.39-8.68,8.35-12.56,5.52-7.27,14.12-5.2,20.82-8.56-.81-1.43-2.33-1.06-4.05-2.71a17.49,17.49,0,0,1-.09-9.14c-3-1.56-6.15-3.1-5.43-5.85,6.15,8.14,16.35,4,20.53-5.82,3.15,2.46.38,6.78,3,9.44-1,2.58.54,4.34-.6,7-.82-.1-2.17-1.84-2.63-.77,1.31,2,2.79,1.85-.27,1.69.18,2.06,2.65.93,3.59,1.26-1,1.52-.24,2.46-.06,3.6,4.13-.79-.16-8.35,3.52-9.08,2.07.15-.57,1.78.68,2.18.5-3.39,2-5,.12-7.21-2.32.14.54,1.91-1,3.11-2.13-2.24-1.61-5.35-1.78-8.2a71.51,71.51,0,0,0-5-18.38c-1.66-4.11-3.47-8.11-5.08-12.34,3.87,1.23,2.4,7.08,5.85,9.71.06-6.88,3.44-14.56-.65-20.93-1.29-.53.23,1.17-1,1.91-.55-4.08-3.47-7.44-6.56-10.69.8,3.87,3.59,10.56,3.1,16.16-1-.88-1.89-1.79-1.39-3.15-1.23-1.39-1.17,1.35-2.4,0-.09-2.37-2.31-4.06-2.79-6.3-.92,0-1.87-.08-2.42,1.16-1.14-3.09-4.76-5.41-7.32-8,.61-1,2.13.85,3.11,1,.75-2.49-2.22-3.82-3-5.81,2.35.72,4.82,4.85,5.16,7.53,4.3,1.34,5.83,4,8.57,5.67.19-4.58-1.86-8.45-4.61-12.1,8.78,4.8,16.55,13.38,14,23.09.6.22.86-.67,1.22-1.19.84,2,.46,4.38-.59,7-1-.74.62-2.32-.19-3.12-1.83,4.95-2.23,12.94,1.17,17.52.64-.11,1.51-3.64,2.74-5.25-2.36-3.67-3.41-9.77-1.47-13.48a10.6,10.6,0,0,1-.3,4.08c.72.18,1-1,1.46-1.66.51,2.52-.78,5.55-.6,8.16,3.41-2.87,2.67-7.95,4.76-12.63-.23,2.6.26,4.95-1.1,7.91,1.92,1.14-.19,3.78,2.35,3.65-1.48,3.56,2,10.69-3.79,10.75.88-1.3,1-3.41,2.26-5.5-.83-1.19-2-2.29-.17-4.32-3.47,3.28-6.6,9.7-5.27,13.61,1.12.59,1.83-.08,3.11,1,3.68-1.55,5.78-5.57,6.64-9.27.34-1.46-.45-3.62-.15-5.53.18-1,1.15-1.66,1.24-2.39a20.67,20.67,0,0,0-1.27-10.35l1.24-2.38c-.35-1-1.32-1.15-1.92.2-1.12-1-1.07-2.29-1.88-3.4-6.15-3.48-9-8.07-15.41-12.27-9.5-6.19-16.75-17.83-29-19.95-3.54-.62-8.52,0-12.92-.71-6.56-1-10.53-2.48-15.86-1-2.5.71-5.94,3.15-9.25,4.9-3.52,1.88-7.05,3.8-8.76,6.35-2.18,3.25-2.87,7.69-6,11.44,6.18-3.84,15.27-6.81,23.85-3.93,6.16,2.08,9.35,7,15,10.82s13.34,5.82,15.69,10.59c2.11,4.36-.51,8.76,1,13.25,1.13,3.46,5.1,6.27,4.65,9.69,1.63.41,1.52,1.41,2.61,2a15.27,15.27,0,0,0,.62,5.78c-1.94.45-2.34-3-1.85-4.6-2.82-2-3-5-4.67-8.49-1-2.16-2.91-4.77-3.25-6.54-.86-4.53,2.22-9.39-2.66-13.51-2.43-2-7.41-3.3-11.45-6-7.55-5-9.33-9.92-17.38-12.08-3-.41-4.06,4.79-6.58,5.66-.61-1-2.35-1.23-3.32-2.94-1.41.27-3.7,1.46-.76,2.62-.48.58-1.4-.21-2.15-.5-.71,1.81,1.6,2.68,2.09,4.12-3.76-.14-3.75-4.89-5.39-7,1.79.73,3.48.8,4.1-.89,2.32.73,2.54,2.12,4.52,2.95,1.51,0,.77-2.8,1.74-3.34-4.34-2.38-7.27-.38-10.59.55-.12,1.89-1.63,4.24-2.77,6.45-.59-1.43-.64-3,.81-5-1.34,1.19-2.77,2.14-4.14,3.3-.73,1.75,2.17-1,1.43.74-.47,1.83-1.73,2.23-2.18.69-1.78,2-.68,2.49.19,3.13.39.27,1.06,2.29,3.32,2.93,3.74,1,8.79-2.7,10.9-4.63,1.18-1.56-.72-2.16.06-3.6,2.44.81,1.08,3.67.64,4.57C76.33,32,64.76,34.41,61.18,28.28c1.31-5.4,3.34-8.51,5.23-12.44,3.38-7,4.44-10,10.08-13.53,4.79-3,8.74-5.51,14.29-6.5,5-.87,10,.8,15.6,1.46,7.79.93,13.67-.26,23,5.9,4.85,3.22,9.17,9.13,14.45,13,2.45,1.78,5.32,2.77,7.38,4.45,1.24,1,1.64,2.82,2.82,3.88,3.25,2.91,7.6,4,9.5,7.37,1.2-.14-.56-2.71-.42-3.85,1.45-3.43,2.59-6.88,1.84-9.35-1-3.18-2.9-8.42-5.13-9.94-7.93-5.41-21,5.59-24-4,3.34-9.13,14.28-9.23,23.91-6.34C165.07,0,168.65,5,174.05,4.64A43.8,43.8,0,0,1,189.27,15c2.61,2.71,3.75,7,6.32,10s6.09,4.43,7.07,8.53c3.38-.89,7.71-2,12-1,4.77,1.12,10.59,4.67,17,7,7.28,2.66,15.36.82,20.37,6.36,1.42,1.59,2.67,4.31,4.47,6.56,3.76,4.74,7.38,8.72,6.25,14.78a2.46,2.46,0,0,0-1.22,1.18c-6,.68-12.24-6.05-14.74-10.1-2.7-1-4.23,1.75-6.07,3.5-4.57-1-7.12,5-10.76,10.19,12.61,1.52,23.37,11.29,24.9,20.85,5,2.16,6.86,9.68,12.75,13.92,4.27,3.06,7.22,4.16,10.45,7.86,6.24,7.16,11.48,17.88-.57,19.71q-10.11-6.39-12-15.35c2.12.25,2.6,2.64,3.84-.41Zm11.33,13.16c.4-.92,2.27-1.07,3.18-3.79-1.11-.57-1.61-3.41-3.56-2.46.26,1,2.23,1.42,1.63,2.67-2.66,1-2.5-2.26-5.26-1.52.63-.87-.15-1.29-.21-1.93,1,.16,2.5,2,3.11,1-1.59-1.12-2.35-2.21-4.29-2.23.4-2.12-.85-3.72-2.8-5.1-1.28,3.15-3.62,3.93-2.75,6.46.67-.78.84-3.22,2.19-1.9-.39,2-2.81,2.33-1.26,3.59.35-.55.73-1.05,1.44-.46-1.65,3.18,3.63,4.15,4.47,6.57.69-1.62,2.38,0,3.15-1.39-1.22-.56-2,.11-1.66-1.46C279.64,130.09,279.48,131.07,280.62,131.63Zm-84-97c1.33,2.18,1.94-.12,3.61.06.61-5-6.94-9.95-9.18-13.88C187.91,15.19,178.19,4.51,169.68,6A25.87,25.87,0,0,0,161.59.57c-4.51-1.74-10.9-3.18-13.68-1.67,13.64,6,21.62,17.07,16.33,30.32,3.37,3.74.59,11,3.86,13.52-1.17-1.22-1.39.63-1.94,1.42.93,1.74,2.09,1.65,2.82,3.89a3.08,3.08,0,0,1-3.16,2.59c1.21.81-.16,2.47.66,3.38,1.5-2.88,3.65-3.6,5.37-5.68-1.67-1.6-3.64-3.1-3.27-5.35,2.2,1.3,2,3.36,4.25,4.64,2.39.84,3.16-3.46,6-1.1,1.78-1.62-2.42-1.36-1.64-2.67,1,.19,2.51,2,3.11,1-1.16-.43-1.71-1-1.41-1.95.7.36,3.8,2.22,2.63.77-5.85-3-11.71-4.5-12.58-9.58,2.21,2.75,5.64,5.12,10.22,7.13.95.35.14-.93,1-.7,1.44.25,1.85,2.8,3.33,1.73-.43-1.19-2.83-1.75-2.59-3.16,1.9.46,1.81,2.5,3.11,1-1.33-1.57-4.28-2.61-5-4.41,2.18.77,3,2,4.52,3,1-3.66-6.47-2.73-6.16-5.63,1.44.38,3.47,2.57,4.54,1.76-1.62-2.55-6.73-4-8.06-6.63,2,.11,4.39,1.3,6.46,1.55-2-1.5-4.35-2.87-4-5.11,2,1,3.95,1.94,5,3.21.5-2.77-3.72-3.27-5.93-4.91-.16-.08.28-.92-.45-1.45-1.16-.83-4.43-1.18-3.8-3.19,1.59.7,1.56,1.94,3.56,2.47,1.92-2.46-2.44-2.95-.15-5.54-2-1.21-3.28-2.68-5.95-3.71,3.44-.72-.61-3,.32-5.28C176.16,9.3,178.06,17.36,181.4,23c.7-.69.88-3.1,2-2.61-1.31,5,.17,9,1.71,13,1.57-3.63,3.4-5.13,4.22-8.1-.18-2.43-2.7-4.17-2.48-6.75-1.29-1.11-2-.44-3.12-1,1.33-1.21-.14-1.55.05-2.4,5.3,2.45,6.52,6.18,7.52,10-3,3.15-3.61,8.47-5.46,10.49-1.06,1.16-1.7-.58-.5.95.95,1.2-1.94,5.49,1.58,6.28C190.7,42,193.9,39,196.63,34.58Zm-16.24-6c.22.29,1.21,2.14,1.91,1C182.25,28.5,181.49,27.22,180.39,28.54ZM170.87,8.43l-.5,1c2.35,1.22,2.82,5.2,5.21,5.14,0-2.27-4.1-3.27-3-5.83A2.52,2.52,0,0,0,170.87,8.43Zm60.32,58.69c2.95-4.87,8.14-5.44,11.23-9.94,4.85-2.26,11-.33,17.47,2.46-3.28-4-6.69-11.38-11.31-14.37-5.17-3.37-12.4-2.39-18.19-4.62-1-.4-2.19-1.76-3.08-2.22-7.44-3.76-17.87-5.64-23.26-4.22-3.92,1-6.81,4.65-10.21,6.81-1.68,1.06-4.22-.16-4.37,2.56-3.38.65-6.8,1.17-9.44,4.18-6.71-.11-14.25,6.25-15.86,14.16-6.62,4.25-7.74,13.6-1.2,16.28,2.17.91,3.23-.94,6,.09,1.45-.46,1.86-4.19,4.12-2.09-1.52,2.69-4.38,5.19-6.62,8.06s-5.62,6.25-4.24,9.32c2.54-4.55,5.71-9.65,9.11-12.84,1.5-1.4,2.72-4.51,5.32-2.07-1.25,1.06-2.9.91-4.12,2.09,1.85.62,2,1.76,2.84,2.7-2,7.16,7.59,13.81,14.47,11.77,1.7-.91,2.28-5.42,4.87-3.53-1.61,1.8-3.63,4.81-3,6.93,5.87-1.19,11.83-2.09,17.39-4.29A67.05,67.05,0,0,0,224,93.63c4.89,1.83,10.79.68,16.56,2,1.83.4,3.71,1.83,6,2.5,2,.58,4.13.61,6,1.3,4.77,1.8,8.9,5.35,11.94,5-3.42-3.44-6.73-6.88-9.69-10.49-2.25.21-4.05-1.9-6.91-3-4.18-1.61-9.59-2.35-13.66-4.08-1.66.2-3.08,1.19-5.06.4-3.68-4.11-7.35-4.17-12.91-4.3-6.51-.16-13-.11-16.2,5.49-2.66.17-4,3.32-6.05,2.31,1.86-.82,5-3.13,4.91-5.93,6-1.4,11.17-5,18.27-2.61,6.22-1.92,8.32-9.08,13.22-14.92.15-.64-1.89-2.52,0-2.4C231.39,65.46,230,66.69,231.19,67.12Zm-79.46-65c-.14-.43-1.68-2.3-2.37-1.24C149.5,1.28,151,3.15,151.73,2.11Zm-4.34,1.37c-1.37-1.27.14-1.29,1-1.91-2-.9-2.07-1.24-.46-1.45-1-1-3-2.16-4.08-.31.67.45,1.86.76,1.66,1.47-1.13-.22-2.82-2.22-3.58-1.26-.06,1.25,3.53.54,3.56,2.46-1.93-.61-3.9-1.41-5.51-1,2.3,1.34,6.34,1.24,4.25,4.63,4.52,1.23,7.44-2.53,12.49.45C156.26,2.6,149.61,1.64,147.39,3.48Zm33.1,20.27c-1.84-1.95-1.69-4.51-4-6.32C176.66,19.63,178.53,23.4,180.49,23.75Zm71.3,35.31c-.63-.33,0-1.07-.46-1.45-.47,1.42-2-.48-2.65.43,3,3,4.83,6.45,9.23,9.06.25-3.56-1.61-9.56-6.15-8Zm9.26,6.64c.27-1.69-.9-5-3-4.62,1.29,1.18,1.47,4.77,3,4.61ZM138.18,7.19A10.09,10.09,0,0,0,143.71,7c-1.34-2.22-2.2.36-4.08-.31.33-.63-.61-.87-.46-1.44.43-1.19,1.66.18,2.18-.7-1.45-1.24-2.47-.16-2.86-1.49A7.7,7.7,0,0,0,138.18,7.19ZM180.34,31c1.41.26,1.22,3,2.62,2-.79-.66.58-2.05-1.16-2.43-.33.61-1.06,0-1.45.45Zm42.94,49c3.39-.78,7.37-5.9,10.4-3.68-4,1.21-5.44,2.55-9,4.42,2.65,1.25,4.52.11,7.2,1.33,2.81-2,7.06-6.24,10.38-2.49-3-.45-5.87-.09-8,2.52,5,1.65,9.38,1.1,14.79,4.07-.29-7.38-13.5-11.92-20.46-13.08-1.48,2.47-4.74,6-5.4,6.88Zm26.09,6.92c-7.54-1.43-15.71-2.64-21.84-2.28,7.34,2.37,14.62,2.66,22,5.39,1.42.52,2.32,1.83,4.07,1.5-1.25-1.26-2.29-4.26-4.25-4.63Zm-26.13-4.54c2.43.95,4.44.6,6.49.35A23.21,23.21,0,0,0,223.24,82.37Zm39.28,23.48c2.3,3.18,2.65-.35,0,0Zm12.76,13.91c2.9.92,4.66,4.36,6.89,4.21-1.37-1.27-6.08-5.36-6.89-4.2ZM156.15,69.24c.4-1.25,1.42-.57,1.7-2.14-.31-.29-.88-.46-.7-1,.27.14.74-.1.25-.48-1.17.35-1.44,2.5-1.24,3.59Zm80.68,48.69c1.13.22,2.92,2.49,3.36.53-1-1.85-4.23-.76-5-3.21-.48.61-1.33,0-1.94.21l-2,3.82c1,.74,1.8,1.56,1.64,2.67-.78.48-1.5,1.14-2.65.43.68-1.15,1.66-1,.51-2.15-.86,2.32-2.39,2.53-3.2,5a3.86,3.86,0,0,1,.93,1.69c-2.33.15.33,4.68-.59,7,3.34,1.32,6.44,1.9,9.11,1.11,2.12-2.41.71-5.79,3-6.92-1.17,2-.08,3.21-1.53,5.27,2.77,1.9,4.25-2.65,6.09-4.73,2.77-3.14,7.6-5.92,6.66-10.46-.87.6-2.13,0-3.12.19-.74.74-.89,3.1-2,2.61-.26-1.4-1.16-3.44-3.08-2.21.18.73,1.7,1.06.68,2.17-1.28-.67-.25-2-1.64-2.67-.86,3.81-3.69,8.37-6.64,9.26-.59,3.29-7,7.2-6.08,3.51.1-.2,3.15.18.75-1.44.83-1.6,2.56-.3,3.86-.41.62-1.39.14-2.45.78-3.83,1.77.08,4.57-3.18,4.41-5-.92,3.3-3.85-1.11-3.63,1.14.14-.26.67-.34.48.25-2.51.49-1.26-3.72.78-3.83ZM167.1,79.76c.62.32.35,1,1.18,1.22.22-.6.79-1.32.27-1.68C168.14,79.93,167.43,79.31,167.1,79.76Zm-18.21-7c-.68-.51.21-1.21.74-1.43C147.59,69.46,147.19,73.9,148.89,72.73Zm21.7,10.7c-1.2,1.72,1.83,4.18,3.54,3.66-.42-1.35-3.37-1.86-3.07-3.41.83.09,2.18,1.83,2.64.76-1.26-.4-.58-1.43-2.14-1.72C171.25,83.05,171.06,83.66,170.59,83.43Zm-5.72-3C167.39,83.29,167.87,80,164.87,80.45Zm-5.08,1.6c.74-1.87,1.84-2.6,3.4-1.87-1,1.23,2.47,4.44,2.84,2.7a11.23,11.23,0,0,0-5.9-4.89C159.83,79.74,158.57,80.25,159.79,82.05Zm-10-7.62,1,.5.5-1-1-.5Zm0,2.41,1.91,1C152.6,76.32,150.44,74.79,149.78,76.84ZM174.31,91.4c-3.12-.5-5.75-4.89-6.67-3.47-.51,2,4.18,2.4,4.5,4.16-2.44,1.37-4.67-4.37-5.49-2.25-.06,1.87,3.24,2.69,5.22,3.93,1.29-1,2.47-2.26,4.58-.65-1.28,1.36-5.2,6.59-3.75,8.36,2-1.22,3-5.69,5.16-6.41,3.1,1.28,3.93,3.27,6.65,4.68,1.11.25,5.09-1.41,2.94-3.32-1,2.44-2,.38-4.33.17.75.39,1.69.8.93,1.69-6.05-3.93-9.26-8.77-14.44-13C167.52,88.51,174.55,88.82,174.31,91.4ZM161.61,89c1.42-2.51.93-3.23,2.71-4,.38-1-.78-1.62-1.16-2.43.19,1.65-4.1,4.74-1.56,6.49Zm26,11.73a5,5,0,0,0,3.15-1.39c-.59-.88-.14-2.09-.91-2.9.72,2-3.49,5.27-2.25,4.31ZM145,75.55c.94.36,2.13,1.72,2.4,0l-1.91-1Zm11.81,12.22c1.61-2.23,1.22-3.88,1.06-5.52C156.25,83.13,157.09,86,156.81,87.77Zm-9.7-9.29c-.22-1.13-2.62-1.57-2.84-2.7C143.44,77,146,79.16,147.11,78.48Zm3.79,3.18c.7-1,.81-1.83,0-2.4A2.35,2.35,0,0,0,150.9,81.66ZM148,85c.29-2.22.91-4.54.34-6.49-1.13,3.05-3.89-1-5.26-1.53-1.45,1.66,2.55,1.59,1.39,3.15-2-.55-2-1.77-3.57-2.46-1.33,1.75,2,2,1.87,3.4-3.1-1.62-3-3.52-6.21-3.23-2.27,5.35-.83,10.78,5.82,12.11,2-1.61,4.9-2.09,4.18-5.71-1.54-.7-2.88-1.5-2.84-2.69,2,2.39,2.24.78,3.86-.41C148.62,82.12,146.59,84.08,148,85Zm26.14,18.46c1.49.87.76,3.63,2.59,3.16,2.26-2.32.86-6.17,2.56-9.57l-1.43-.74Zm6.81-4.93c-1.2,2.09-1.57,3.94-1.06,5.5,1.54-.92,6.84-2.3,5.82-3a10.49,10.49,0,0,1-4.76-2.48Zm-16.25-6c1.37-.3,3.55,1.85,4.79,1.28-.6-1.27-3-2-3.8-3.19Zm4.05,2.7c-1.43.57-4.06-2.74-5.05-.79-.34,2.49,5.12,3.17,7.14,4.92.47-1.58,2.74-3.78,2-5a5.75,5.75,0,0,1-4.09.89ZM156.79,89c1,.49-.07,1.61,1.41,2,1.45-2.28.66.8,1.91,1,1.22-1.32,0-1.87-.43-2.65-1.39,1.34-1.77-1.11-2.89-.29Zm-7.39-3.25c-.57.83,0,1.34-.52,2.16,1.17.35,2.05-.23,3.13-.19-.31-.3-.35-.69,0-1.2-1.14-1.1-1.59,0-2.63-.77ZM148,86.2C146.25,91.12,149,84.16,148,86.2Zm13.81,8.4c-5.39-5-13-7.06-18.7-3.68,2.69,1.53,6-1.16,9.14-.08s5.21,3.84,6.86,6.59c-3.31-.34-2.87-4.43-7.35-5.64-1.9,1.26-2.23.28-4.36,1.37,4.57,4.22,8.42,4.92,13.17,5,1.74,0,3.59.25,5-.4-1.6-1.26-2.46-.25-4.05-1.51a2.5,2.5,0,0,0,.22-1.7Zm3.14,13.75c3.12-6.32-.14-10.76-4.43-9,0,2.79,2.85,1.92,3.8,3.19-.87.6-1.75,1.19-3.12.2-.91,2.34-.77,5.65-3.72,6,2.3-3.91,2.55-7.17.16-9.61-4.54-1-5.42,4.2-5.9,7.84-.77-.35-1,1-1.93.2a8.22,8.22,0,0,0,.86-7.44c-1,3.36-2.12,3.56-4.64,4.25.38-.93-1.47-1.14-1.41-2-1.76,2.87-3.32,6.39-5.88,6.64l2.73-5.24c-1.09-1.58-1.57,4-2.94,3.31-2.11-1.1,4.35-4,1-4.31-.29,0-2,3.94-2.72,4-.43.08-.85-2.7-2.13-1.72-1.91,1.14-3,4.84-5.14,5.21.23-1.14,2.22-2.83,1.26-3.59-.69,1.62-1.77,2-3.15,1.39.82-1.35,2.82-2.28,2.46-3.56-1.9-.68-2.77,1.82-2.93,3.32-2.17.29-3.74,2.56-5.6,3.75-.39-1.07.92-2.68-.67-3.37-1.37,1,0,3.08-1.48,2.85.45-2.91-3,.64-3.11-1,5.16-3.41,10.71-5.62,16.23-7.9-1.92-1.45-4.9.38-5.51-1.06,1.47-1.28,4.83-1.75,6.24.83,2.92-1.68,6.46-1.43,9.19-3.69-3.32-2.86-7.19-.94-8.85-2.8,2.85-1.13,7.55.05,10.53,3.06,1.66.21,2.83-1.1,4.81.08-.41.54-1.25.59,0,1.2,3.48-3.29-3-6.36-7.07-8.53-2.55.31-4.6,1.5-7.27,2.27s-5.86.53-8,1.31c-6.33,2.34-10.56,10.81-14.94,17,1.64,5.36,7.5,4.72,12.69,3.57,3.08-.65,6-2.91,9.19-3.69a27.85,27.85,0,0,1,12,.19c2.58.67,4.16,2.25,6,2.51s4.42-1.41,7-.61c2.75-4.38,13.47-.5,15.47-5.27.92-2.21-.91-4.75-3.73-6.79-1.76-.74,1,2.16-.75,1.42-2.39-.78.26-2.12-.44-2.65-1.35,1.16-.82-3-2.63-.76,2.88,1.45,1.48,8.21-1.6,8.9Zm-24.17-7.13c1.71,1.65,2.1-.92,3.38-.66.15,1.2,4.63,0,2.67-1.65-2.18.32-4.62-.26-6.08,2.3Zm21.91,12.62c1.54,1.86,5,.36,6.75-1.34-2.35.2-5.08-.89-6.78,1.32Zm14.06,7.93c.42-1.18,1.65.18,2.17-.69-1.47-.6-.9-1.84-2.37-2.45-.45,1.19-.6,2.31.17,3.12Zm-39.38-17.48c.36-.7,2.21-3.81.76-2.63-.38.69-2.24,3.79-.79,2.62Zm-4.08-.31c.28-.22,2.13-1.22,1-1.9-.05,1.13-2.28.83-1,1.89Zm16.15,26-.74,1.43c-.26.5.41.69.72-.23,2.74-4.69,9.46-7.12,6.47-12.42-.58.83-.76,2.64-1.94,1.42,1-2.64,3.12-3.31,2.25-5.5-3.93,3.17-5.58,10.54-6.79,15.29Zm-9.78,11.82c1.84.49,2.61-2,3.4-3.06,3.56-4.66,4.6-9.17,6.26-14.32,1-3.23,2.74-6.85,1.83-9.35l-1-.53c-2.75,10.41-6.09,17.16-10.54,27.28Zm6.61-24.42c-.92,3.5-2.49,9.6-2.35,11.51.41-3.32,3.54-7.94,4-11.24.2-1.37.91-3.92-1.38-4.34C145.34,115.05,146.73,115.91,146.24,117.37Zm25.19,18a1.48,1.48,0,0,0-.21-1.93,1.49,1.49,0,0,0,.2,2ZM125.52,106c-1,.31-1.55,1.44-.52,2.15.28-.73,1.11-1.62.51-2.13Z" transform="translate(-35.84 4.43)"/><path class="cls-1" d="M231.13,56.78l.48-.93c-4.17-1.15-8.51-3-12-2.6-2.1.23-3.36,1.77-5.32,2.07,3.45,2.51,9.34,1.87,13.91,3.6,0,2.18-4.14,2-6.52.86.56-.78,1.4-.66,2.41,0-4.25-3-10.63-1.7-15.58-2.66-.93,2.13-2.37,2.59-4.35,1.37-.16.72.45,1.19.2,1.93,3.9,1.41,13.4.78,12.92,4.3,1.18.81.94-2.89,2.42-1.16.21-.6-.68-.87-1.18-1.23.78-1.32,2.45.15,3.83.78.55-1.71-1.41-1.6-2.61-1.95,1.36-2,4.22.69,6.24.82a2.32,2.32,0,0,1-2.4-.05c-.48.75,2.53,2.31,2.86,1.5-.09,1.46-4.21.94-5.8,1.82-.77,1.48,2.63-.5,1.91,1-.94,1.22-2.31,1.11-3.63,1.14-.6.72-.09,1.08.45,1.44a14.22,14.22,0,0,1-12-1.39c3-.54,7,2,9.84.88-.94-1.23-4.54-.11-6.95-1.81,1.36-.69,3.22.13,4.8.08.41-.91-1.88-.27-2.86-1.49.87-1,2.32-.13,3.61.07-.07-.58-.12-1.19.5-1-6.38-2.52-15.27-2.06-21.87-1.08,2.71,1,4.73-.17,7.67,1.56-1.74,1.17-4.45-.6-6.49-.34-.62,1,1.58,1.1,2.14,1.72-1.91,2-5.15-.32-7,1.8,5.78-.5,12.66,2.9,20.37,4a21.24,21.24,0,0,0,8.66-.34c1.35-.42,4.57-2.84,6.25-.38-4.85-.27-8.67,2.85-13.74,1.94-.08,1.22,2.58,1.55,2.13,2.92-3.67,3.13-9.12.57-14.18-.72,1.4-.51,3.13-.17,5,.81,0-1.92-3.63-1.21-3.57-2.47,2.38-2.55,6.45.24,9.62.16C203,70,192,68.8,183.8,69.72c0,3.08,3.65.13,6,2.5-3,.24-6.6-1.51-8.92.82-1.43,1.51,1.38,1.68.2,3.13-2.68-1.89-2.86,2.22-6,1.1,5-7.38,11.37-10.28,17.08-15.34,1.83.34,2.87-1.89,5.05-.4.5-1-1-1.29,0-2.41,1.1.32,1.09,1,1.65,1.48,1.39-1.24-1.35-1.17,0-2.41,2.33.22,3.85-2.11,6.51-.85,2-3.75,5.68-2.24,8-4.92,6.75,0,13.57.08,21.11,2.51-1.75,2-3.85,2.94-6.74,1.33.86-.59,2-.27,3.35.54ZM210.19,75a1.5,1.5,0,0,0,1.93-.22A1.48,1.48,0,0,0,210.19,75Zm-18.63-9.7c.38-1.76,1.91.16,2.42-1.17C192.88,62.74,190.58,64,191.56,65.27ZM208.25,74c-.05,0-.23.43-.25.48C204.42,74.92,212.2,74.58,208.25,74Z" transform="translate(-35.84 4.43)"/><path class="cls-1" d="M236.12,60c-1.6.91-1.55,1.09-2.21,3.09-1.15-1.1-1.59,0-2.63-.76,1.08-.35,1.93-1.55,3.15-1.4.6-.66-.94-2.53-1.66-1.47C231.8,57.91,235,59.12,236.12,60Z" transform="translate(-35.84 4.43)"/><path class="cls-1" d="M231.08,59.18" transform="translate(-35.84 4.43)"/><path class="cls-1" d="M150.7,65.8c-1.29-1.11-1.83.09-3.11-1,.73-1,2-.29,2.9-.92-5.52-2.72-11.89,2.83-18,2.14-2-4.44-6.3-6.17-7.27-10.46,0,0,1.13-.69,1.22-1.18.24-1.25-2.45-2.41-1.14-3.63a26.42,26.42,0,0,0,19.66,3c2.38,1,.68,3.53,3.57,2.47-1.44-2.44-4.83-2.71-5.69-5.39.95-.82,2.67.88,3.61.06-.69-2.36-3.08.42-4.85-1.29.52-.86,1.75.49,2.17-.69.18-1.37-2,.36-3.1-1,1.11-1.12,2.74-.59,4.33-.17-6.15-3.36-13.63-.27-21.36-4.46.46-1.08,1.8.67,2.64.76-2.72-2.87-4.37-6.06-7.55-8.78.72-.89.32-1.43.51-2.15-3.35-2-8.65-4.2-10.48-5.46-1.55-3.9-8.37-6.13-10.68-9.81-2.62-.84-2.73-1.25-5.24-2.73,1.37-2.83,4.07.4,5.73,1.78,2.34.68,4.16-.31,6.49.35-1,1.81-2.92.87-4.12,2.1a40.46,40.46,0,0,0,5.28.32c-1,6.25,6.49,5.64,10,7.62-.68,1.16-1.66,1-1.25,2.39,7.54,5.22,15,3,23.21,6.62-.16-3.19-4.29-1.19-6.67-3.47,1.3-.51,3,.25,4.78,1.29-.54-3.51-5.44-2.09-7.87-3.51,1.41-1,3.33-.37,5.28.33-1.56-2.37-5.58-1.7-7.66-1.57-1.23-1.22,1.21-1,1.47-1.66-.69-.84-2.17.22-2.89-.28-.55-.39.19-1.29-.93-1.7-4.61-1.66-10,.17-15.15-1.22,5.44-1.68,11.87-.28,18,.3,1.63.54,1.22,1.76,3.09,2.21-2.18-4.92-7.34-3-11.71-4.27.5-.54,1.23-.32,1.7-.94A9.4,9.4,0,0,1,116,20.49s1.06-.51,1-.7c-.41-1.07-4.8-.2-2.51-3.16-3.63-1.81-7.58-4.66-9.83-2.08-.86.08-3.63-1.81-4.51-3-3.21-.75-6.58,2.73-9.14.09,1-1.29,3,.4,4.1-.89-4.25-.51-8.79-1.77-12,1-1.23-1.77-2.44-.41-4.08-.3.21-1.41,2.53-2.07,3.64-2.35,5.13-1.18,12.56.58,18.25,1,.85.07,1.55.66,2.18-.68,6.94,3.09,13.27,4.19,20.5,8.25-.94-1.94-2.86-4.76-5.9-4.89-.51-4.62-8.51-6.88-12.8-10.31,3.26-.65,5.87,2,8.82,4a49.2,49.2,0,0,1,7.81,7.1c2.15,2.18,3.63,5.05,5.9,7.31,1.84,1.84,4.73,2.77,6.65,4.68.52.52,1.75,1.5,3.32,2.94a51,51,0,0,1,4,5.11c.65.9,1.9,2.68,1.61,3.87-7-8.45-15.55-18.44-29.68-23.33,14,7.81,22.78,15.58,28.68,25.25-1.08.33-2.49-.33-3.83-.79.5,1.89,3.81,2,5.25,2.73C146.66,49.26,152.07,56.46,150.7,65.8Zm-6.12-8c-.28-.7.77-1.85-.68-2.18-4.68,1.17-10.52-1.45-15.4-.74,2.07,1.07,3.67.65,3.31,2.94-1.7-.76-3-.36-4.55-.56.64,1.78,5.26.36,6,2.5-.72,2-3-1-3.83.4,1.92,1.49,3.18.86,5,2-.5.95-1.61-.07-1.94,1.42,6.71,1.9,11.69-1.66,17.58-2.36-1.46-.59-1.58-1-.46-1.46-1.28-1.43-3.49.56-3.58-1.25,1-.95,2.93.87,3.63-1.15-2.12-1.17-3.18.93-5.07.43ZM115.17,17.65c1,.25,2.54,2.14,2.88.29a2.64,2.64,0,0,0-2.87-.33Zm3.1,2.17c1,.2,2.11.79,2.88.29C120.72,18.62,119.12,19,118.27,19.82Zm2.13,1.72c1.63.5,3.57,2,4.56.55C123.15,21,121.55,20.55,120.4,21.54Zm-15.5-7.47a1.48,1.48,0,0,0-.2-1.92C103.65,12.49,103,13.63,104.9,14.07Zm-3.81-2,1.43.75c.52-.86.1-1.36-.94-1.7ZM125.6,41.82c7,4.09,12,2,18.45,4.15.24-1.54-.91-2.6-2.35-3.64-1.26-.14-4.14,1.07-4.56-.56.52-.86,1.75.48,2.17-.68-2.47-.79-4.24-.26-4.52-3,1.52-.74,3.65.63,5.06-.4-6.42-.66-12.82-4.26-19.19-2.71.54,1.81,1.54-.48,3.11,1-.34,1.72.45,2.81,2.12,2.92C124.05,39.49,125.37,40.83,125.6,41.82Z" transform="translate(-35.84 4.43)"/><path class="cls-1" d="M187.49,48.65c1.38,2.7-1.26,7.63,1.53,8.7-1.09,2.38-2.14,3.86-2,5C186.1,59.67,185.13,53.62,187.49,48.65Z" transform="translate(-35.84 4.43)"/><path class="cls-1" d="M190.27,56.1C190.14,52.85,190.49,61,190.27,56.1Z" transform="translate(-35.84 4.43)"/><path class="cls-1" d="M184.43,60.34c-3.13,1.18-1.57-3.08,1-1.91-1.85,1.69.72,2.63-1,3.11C184,61.29,184.35,60.76,184.43,60.34Z" transform="translate(-35.84 4.43)"/><path class="cls-1" d="M234.2,89.29c-1.82,1.84-4.4,1.22-6.29,2.77C228,89.89,231.9,88.7,234.2,89.29Z" transform="translate(-35.84 4.43)"/><path class="cls-1" d="M213.45,79.09c-2.31,1-9.62-1-11.75-1.88-1.17-.48-1.83-.07-.23-.73C206,78.93,209.3,77.72,213.45,79.09Z" transform="translate(-35.84 4.43)"/><path class="cls-1" d="M225.31,88.89c-1.52,1-4.2-.08-4.54-1.75a4.94,4.94,0,0,0-3.16,2.59c-.52-.36,0-1.1.26-1.68-6-2.43-4,6.29-9,5.63,3.91-2.93,4.31-9.15,9.28-8.51-.41,1.66-1.77.21-2.19,1.89.95-.27,1.68-1,2.15.52.82.16.13-.71.74-1.43C221.85,87,222.32,87.67,225.31,88.89Z" transform="translate(-35.84 4.43)"/><path class="cls-1" d="M172.48,114.71c-.64.91-1.77.28-2.65.44-1,1.38.63,1.93.18,3.13s-1.43.57-1.72,2.13C166.52,118.57,169.57,112.71,172.48,114.71Z" transform="translate(-35.84 4.43)"/><path class="cls-1" d="M166.94,130c-1.54,1-3.37,1.14-5.08,1.61C161.7,130.21,165.06,129.15,166.94,130Z" transform="translate(-35.84 4.43)"/><path class="cls-1" d="M112.46,140.37c-2.59-1.53-4.4-.47-6.71-1.07-1,2,2.89,2.53,1.11,4.82a11.74,11.74,0,0,0-3.77-4.39c-.77.42.27,2.57-2.65.45-.22.58.68.86,1.18,1.21-1.42,2.41-3-2.1-4.31-1-.85,1.62,1,2.34,2.59,3.17-.24,1.53-3.52-2.14-5.24-2.73.73,3.82,7.23,6.81,10.68,8.59-2.27,1.07-5.83-2.32-8.59-4.47-1.61-1.24-2.82-3.24-4.74-3.69-.75,1.45,1,2.06,2.11,2.93-1.79.79-2.45-2.13-4.77-2.48-.16,1.37,1.26,2.25,2.59,3.16-2,1-3-2.92-5-2,.73,1.36,2.42,2.39,3.54,3.66-2.38.5-3.76-3.6-6.21-3.24-1.38,1.54,1.81,1.55,1.64,2.67-1.07.94-1.49-1.61-3.34-1.74-.77,1.31.46,2,1.65,2.67-1.59,1.15-2.13-2.23-3.59-1.25.31,2.41,3.59,3.94,5.43,5.86-2.75.35-4.75-4.73-7.38-4.46-.48,2,2.81,2.84,3.78,4.4-2,1-3.7-3.58-6-2.5-.13,2.41,3.24,3.75,5.67,5.38-1.84,1.14-5.32-3.12-7.37-4.46-2.81,3.42,4.93,3.53,4,6.32-1-.68-4.3-3.81-6.42-3.94-.41,2.93,4.8,4.06,6.39,6.34-3.09.17-5-3.45-7.87-4.69-.57,2.43,2.62,2.72,4,3.92,1.24,1,2.26,2.77,3.54,3.65,1.92,1.33,4.35,2,6.21,3.24s3.12,3.14,5,4.41c7.84,5.35,17.12,9.26,24,14.33-15.54-7.19-31.83-19.72-45-27.66,4.44,6,13.89,10.49,20.88,15.73-7-1.6-12.73-7.62-17.11-11.34-1.38-1.17-4.26-1.21-4.27-3.43-2.79,2.08,3.35,6.16,5.63,7.78,11.79,8.34,24.33,13.6,38.82,22,4.8,2.79,11.54,5.3,15.74,8.2,2.83,1.94-3.93-1.13-6-2.51-11.54-5-23.12-13.87-34.78-19.32-1.21-.57-2.61-.32-3.84-.79-7.83-2.95-11.72-10.2-18.27-12.54-.8,2,2,2.4,3.07,3.41,6,5.64,19.17,13,28.29,19,1.64.6,6.22,3.36,4,2.71a41.85,41.85,0,0,1-6.67-3.48c-9.84-5.71-24.09-14.72-30.44-19.49.51,3.16,6,4.74,8.29,7.35-3.82.26-6.7-5.31-10-5.21-.72,3.55,8.23,4,7.58,7.57,11.49,6.08,19.62,13.21,30.43,19.5-9.65-5.9-21-9.91-31.46-16.39,3.35-.6,8.29,4.69,13.11,6.22-2.55-3.74-8.1-5.11-12.12-8.13-1.54-1.15-6.14-7.24-9.51-6.16a29.75,29.75,0,0,0,8.08,5.42c-2.9,2.42-6.57-5.41-9.32-3-.63,3.25,9,3.27,7.33,6.85-3.58-1.39-4.94-3.49-8.32-4.94-1,3.24,6.23,3.87,7.58,6.37-2.07,1.49-6.42-3.14-9.07-3.51,1,2.14,3.84,3.75,5.92,4.9,5.26,2.9,11.23,5.43,16.44,9.17-2.7,1.34-7.28-3-9.78-4.5a136.47,136.47,0,0,0-13.31-6.92c1.52,2,5.76,3.23,7.61,5.18-2.84,1.53-6.6-3.76-9.07-3.52,6.95,6.13,17.91,10.46,24.73,15.3-7.59-1.57-16.56-9.34-25.27-13.16-.3,2.73,6.79,3.18,6.63,5.88-2.44.35-5.1-2.66-7.15-3.72-.47,2.94,3.43,3.2,5.47,4.66,5.49,4,12.66,8.17,16.89,10.61-1.6,2-3.61-1.22-5.49-2.25-6.56-3.55-12-7-17.14-10.13.75,1.88,4.3,2.89,5.46,4.66-1.7.51-4.36-2.06-6.45-2.76,1.22,2,5,3.2,6.4,5.15-1.86.43-4.69-2.23-6.93-3,3.77,4.76,12.74,6.26,19.27,10.64,1,.69,3.35,1.81,3.07,3.41-8.58-4.53-15-7.57-22.88-11.92,6.6,5.84,19.26,9.32,26.67,15.11-9-2-17.17-9-26.72-12.71,7.82,5.81,18,9.46,26.43,15.59-2.41,1.59-4.29-1.57-6-2.51-6.3-3.51-13.58-7-20.5-10.67,6.35,5.39,14.85,7.74,22.38,12.88-2.09,1.16-4.36-1.08-6.21-2A154.67,154.67,0,0,1,51,198c-.11,2.66,7.46,4.22,7.35,5.65-2.07,1.81-4.2-2.75-7.39-3.25,5,5.89,15.7,8,22.62,13.59-.27.84-.89.59-1.23,1.19,2.33,1.37,6.74,1.67,6,3.7-1.44-.64-3.79-1.37-6.46-2.75,1,2.76,4.51,2.59,5.72,4.18-1.59-.14-4.79-.94-5.5-2.25-.5.94,1,1.29,0,2.4-1.55-.9-3.23-1.56-4.77-2.48-1.9-1.14-4.86-2.62-5-4.41l8.58,4.47c-1.7-3.05-10.18-4-10.7-7.39l5.7,3c-.35-1.63-2.66-2.63-4.75-3.69.55-2,2.57.57,3.83.79-1.81-2.77-6.2-2.84-9.05-4.72-.45,1.73,5.09,1.59,3.54,3.66l-7.63-4c1.17,2.43,6.94,3.4,7.11,6.13l-6.67-3.47c0,3.18,8.64,3.65,8.55,6.87l-7.16-3.73c5.23,5.33,12,5.54,19.07,9.93-.91,1.52.51,1.5,0,3.61-2.58-1.34-1.37-.72-1.71.93-2.82-2.82-8.87-4.62-12.62-7.18-.92-.63-3.21-1.83-2.59-3.16,4.14,2.15,8.39,4.69,11.94,5-2.79-1.84-9.93-3.53-13.3-6.93-1.4,4,3.81,5.31,8,7.83,5,3,9.62,6.76,14.75,8.89-3.05,1.17-6-2.32-8.83-4-4.24-2.47-9-5.25-12.87-6.7,2.85,3.85,13.74,6.92,17.64,11.61-5.37-1.38-10.9-6.13-16-8.92,2.58,3.71,8.85,6.24,14,9.13-3.68,1.27,2.92,3.77,5.68,5.37,0-1.85-5.75-1.94-3.77-4.38,5.25,3.79,11.4,7.29,17.36,10.86-1.92,1.25-4.22-.92-6.21-2-2.15-1.19-4.45-3.52-6.9-4.2,9.86,7.39,22.12,11.8,33.83,18.83.78-1.31-3.43-1.05-1.65-2.67,2.16,1.36,3.74.82,6,2.5,2.5-2.08-1.55-2.16-.41-3.85,3.46,2.92,5.46,1.33,8.14,1.82-.12-1.66-3.89-.58-2.59-3.17l5.24,2.73c.2-1.93-5.78-1.89-4.5-4.16,2.44,1,5.33,3.41,7.4,3.24-1.67-1.49-6.82-3.13-10-5.21-.76,1.45,1.12,2,0,3.6a43.26,43.26,0,0,1-7.41-3.25c-2.16-1.12-5.73-2-5.71-4.18l6.67,3.48c0-3.18-8.91-3.57-7.82-7.11a39.56,39.56,0,0,0,7.38,4.45c.65-1.53-4.32-1.3-2.6-3.16,7.66,4.05,15.31,8.08,22.43,10.46-7.81-3.82-17.4-8.54-26.69-13.9-1.13-.65-3.82-.92-3.32-2.94,11.07,6.23,21.44,12.06,32.43,15.67-5.07-3.43-13.05-5.26-19.77-9.68,3.89-1.43,9.87,3.67,15,6,2.19,1,4.39,1.15,6,2.5-2.54-2.55-7.71-3.83-12.42-6.47-1.43-.8-4.68-1.38-4.27-3.43,6.14,2.18,13,6.87,19.12,8.75-3.88-2.19-11.7-6-17.16-8.94,1-2,3.57,1.24,5.26,1.53-.37-1.74-3.06-2.78-5.22-3.93,1.69-2.24,6,3.93,7.45.85,5.68,3.69,10.41,4.29,15.75,7,.11-1.5-3.78-1.74-3.79-3.2,1.72,0,3.73.87,5.74,1.79-1-1.46-5.86-4.32-6.71-1.07-2.16-1.43-5.17-1.94-7.4-3.26-1.6-.94-4.09-2.18-4-3.91l11,5.71c-1.27-1.79-4.5-2.88-7.38-4.44-2.32-1.27-6.21-2.21-6.17-4.43,2.62,1.06,7,4.37,7.2,1.32,5.35,3.07,10.38,5.12,15.5,7.48-2-2.33-6.87-3.41-11-5.72-1.47-.83-4.43-1.29-3.79-3.19l7.63,4c-.87-1.86-4.84-2.74-6.9-4.2,1.46-1,4.21.57,6,1.3,4.51,1.9,9,5.35,12.65,4.77-.76-1.52-4.35-1.23-6.46-2.75,1.81-1.31,4.8.87,7.2,1.32-2.06-1.52-7.14-2.94-11.67-5.48-1.49-.83-4.77-1.45-4.28-3.43,6,3,11.95,5.87,17.43,7.26-4.43-3.44-11.51-4.48-17.41-8.47,3.77-1.68,13.33,6.21,18.88,6.81-1.89-2.11-6.09-2.64-9.3-4.25-2.74-1.35-6.25-3.16-6.42-5.15a179.8,179.8,0,0,0,16.94,8.21c-5.07-3.86-13.07-6.05-19.52-10.16.55-2,2.57.57,3.83.78.8-1.17-1.66-1.34-.43-2.65,6,3,11.7,5.12,17.88,8.71-2.88-3.14-8.22-4.75-13.57-7.67-2-1.09-5.21-1.65-5.23-3.93l8.11,4.22c0-2-5-2.44-4.26-4.64l17.16,8.94c-.54-3.07-4.85-3.31-7.85-4.7A33.12,33.12,0,0,1,145,215.5c1.77-.82,3.92,1.58,6,2.5,2.93,1.34,7.34,4.13,11.2,5.24-1.73-2.73-11.55-6-16.91-9.41.88-1.43,2.79.44,4.31,1,.5-1.08-1.92-1.25-2.61-2,5.09-1.29,11.81,5.48,17,7-.12-2.93-3.71-2.6-6-3.71-3.58-1.78-7.37-4.32-10.71-6.19,6.87.2,12,6.83,17.9,7.5-4.35-4.09-11.13-5-16.68-8.68,4.9-1.33,11.58,7.09,17.2,6.53-1.18-2.93-13.78-6.18-16.92-9.41.89.9,1.77-.33,4.53,1.76,4.26.49,9.8,5.47,13.12,6.22-2.61-4.9-12-6.29-18.13-10.65,5.35.11,12.52,6,18.62,8.49-.14-1.91-2.83-3.23-4.51-4.17-3-1.66-7.1-2.39-10.25-4.74-.85-.8-3.44-1-3.09-2.22l3.34,1.75c4.6,1.1,10.05,4.94,15,7.21-.09-1.73-2.4-3-4-3.91-3.66-2.07-9.17-3.39-13.12-6.22,2.16-1.43,4.56,1.38,7.17,2.52,3.68,1.6,7,1.94,10.48,5.46,1.36-1.49-1.53-1.64-2.35-2.44.94-.78,2.75,1.22,3.6.06-.08-2.62-4-1.83-6.42-3.95-.3,1.28,3,1.45,2.83,2.69-4.83-1-10.86-5.8-15.75-7,1.13-1.05,3,.17,4.56.56-.9-2-4.85-2.81-6.67-3.47,2.34-2.87,4.89,2.75,7.89,2.29.82-2-4.45-2.05-3.29-4.13,3.06,2.57,5.72,2.88,9.53,5-.21,2.27-2.14-.91-2.65.43a19.53,19.53,0,0,0,10,5.22c.53-1.89-4.8-2.23-6.9-4.2,1.17-1.72,4.86,3.65,6.95,1.8-5.15-3.27-13.82-6.8-20.48-10.67,6,.42,13.79,6.69,20.51,9.48.43-2.68-3.37-2.33-5-3.22-4.65-2.52-11.49-6.22-16.69-8.68,6.9.3,14.48,7.25,21.72,9.49-.86-1.85-4.82-2.73-6.9-4.2,1.33-1.24,4.64,2.83,7,1.8-5.5-4.16-12.84-4.66-18.87-9.23,5.68,1.62,12,5.18,17.9,7.51,1-2.52-2.88-2.21-5-3.21-3.36-1.57-7.72-4.14-11-5.71-.56-.62-2.76-.72-2.14-1.71l7.62,4c3.34.89,7.12,3.18,10.52,4.26.91-2.91-3.58-2.66-6-3.71-2.92-1.27-5.9-3.25-8.58-4.47l-4.29-2.24c5.58.83,12.56,6.19,18.38,7.76-.92-3.77-9.72-4.21-14.52-8.17l-2.39-1.24c-1.21-.56-.51-1,.24-.47l4.25,2.21c3.65.6,8.37,4.61,11.71,4.27-19-8.6-39.18-21-57.16-32.19-1.11-.22-3.58-2.27-1.18-1.22,11.16,5.59,20.15,13.26,30.71,17.82,1.54.37-.19-3.59,1-3.12,2.45.43.47,2.25-.06,3.61a269.38,269.38,0,0,0,26.22,13.66c.43-3.62-5.27-1.94-8.34-5,1.65-1.52,4.82,1.8,7.18,2.53.24-3.14-3.46-5-7.35-6.86-.69-1.49,3.31,1.32,4.55,1.76,1.38-2.48-2-1.4-3.8-3.19-1.07-1.49,2.29.65,3.11,1-.22-3.5-6.44-2.62-10.24-6,.53,2,5.59,2.5,6.18,4.44-5.39-1.22-8.22-4.28-12.66-6-1.19-.43-1.46.64-2.66.45-.39-.07.05-1.2-.45-1.46s-.83.7-1.45.47a33,33,0,0,1-4.29-2.24c-.67-.35-3.57-.83-2.84-2.69l6.21,3.23c-2.76-2.45-7.06-4.41-10.47-6.66C134,156,136,160.2,141.21,162c.66-2.5-3.1-2.51-3.31-2.94.14-4.44,6.32.07,8.69-1.53,2.88,2.23,7.36,2.39,7.86,4.7.55-3.23-6.85-3.57-10-6.41,1.82-1,4.7,1.32,5.8-1.83,9,8.46,13.68,18.26,18.77,27.95-.54,2.7.65,4.85,1.81,7,.79,12.57.28,22.52-8.55,37.36a65,65,0,0,1-20.79,21.29A54.32,54.32,0,0,1,133,252.3,69.33,69.33,0,0,1,113,257c-8.32.82-19-2.2-28.78-4.08a3.51,3.51,0,0,1-1.72,2.14c2.2,2.27,2.67,5,3.24,7.74-3,2.95-2.62,4.83-3.72,7.15-2.07-1.21.37-3.84-.87-5.3.62-1.83,2.29-.29,2.91-2.11.91-2.67-1.47-4.32-2.77-6.3-1,3.88-.44,7.18-3.79,10.75-1.61-.68,0-2.37-1.39-3.15.68-1.61,2.21-.6,3.15-1.39,1.22-3.1-1.33-4.58-3-5.81a22.05,22.05,0,0,1,4.41-5c-.1-1.43-3.22-1.91-4.52-2.95.1,1.42,3.55,1.85,1.62,3.86-.55.53-.89,1.15-2.88-.29-2.18,1.61-.58,1.75-.78,3.84-.09.91-1.29.7-1.47,1.66,0,.23,1,1.56.93,1.69-.61,1.17-1.11-.37-1.92.21-1.33,1-.79,2.42-2.22,3.09-1.25,1.85,1.52.21.69,2.18-4.08,1.19-5.52,6-8.32,9-.84,2.12,1,3.41,1.59,5.08,1.75-2,.53-4.09,1.3-6,2.23-5.44,8.76-7.84,11.08-15.45,1.87,5.08-5.4,10.61-8.16,13.33-.53,4.36,4.32,6.46,4.87,10.43.42,2.87-1.84,4.68-.37,7.7-.62,1-1.74.4-2.88-.28-4.1,5.54-1.24,8.88-1.42,13.19,4.27,1.71,5.33,4.43,5.16,7.54-2.89-2.28-2-5.73-6.36-7.55-.6-1.53.44-3.89-.39-6.26-1-.78-.86,2.3-2.17.69.11-4.78,5-9.27,4.8-13.87-.13-2.43-1.92-3.25-3-5.82a11.12,11.12,0,0,0-.63,9.36c-3.19,4.87.15,9.26-5,14.35-1.22,1.21-3,1-4.12,2.1-3.49,3.51-3,8.71-5.25,12.41-1.94,3.15-8.5,5-2.79,8.85-1.11,1.32-1.6-.05-2.64-.77-1,2.32,3.59,2.86,1.35,5.55-2.88-2.28-3.5-5.27-2-8.93.32-1.63-1.29.74-2.15-.52a12.75,12.75,0,0,1,2.44-2.37c-3.22-2.17-4,3.26-7.23,1.09,2.46-2.91,8.39-1,8.76-6.35-3.31.65-7.57,4.42-10.61,1.75,4.54-1.75,10.39-1.35,12.38-7.49.33-1.61-1.68-.51-2.38-1.23.79-1.85,2.65,0,3.85-.42,1.47-1.09.81-1.95,2-2.62.87,1.1,6.28-1.86,7.53-4,2.3-4-1.12-9.09-.72-14.92.29-4.16,2.67-6.66.64-9.37,4.18-5.45,10.31-10.87,12.78-17.58-2.24.31-1,4.22-3,4.52-2.2-1.15,2.7-4.57-.88-5.31.57-.14,3-2.63,1-3.1,1.38-1.41,3.39-2.17,3.44-4.27-7.71-10.12-16.14-18.34-19.7-29.66-2-6.35-2.07-13-4.51-19.26,1-2.43,1.39-4.69.34-6.48,1.58-8,5.84-16.77,8.79-25.09,7.13-7.64,12.48-15.31,19.81-20.59,13.71-9.77,32.34-10.48,51.74-4,1.82-1.91,1.45-5.21,2.25-5.49,2.15.92.12,7-2.27,6.71,2.21,3,6.72,3.5,9,5.91-6.79-2.11-12-6.71-18.61-8.47,2,5.36,12,6,13.76,10.8-7.2-1.85-15.5-8.92-20-11.63.31,2.42,4.89,3.83,5.21,5.14-2.27,0-5.38-3.08-5.92-4.92Zm32.14,18.56c1.41.93,1.38,1.84,1.89,2.2-.56-.3-.72-2.16.27-1.69.19.1.71,4.76,1.41,1.95-.32-.3-.94-.49-.7-1s.67-.37,1-.71c-2.34-.64-2.43-1.75-3.85-.75Zm7.48-1.56c-2.79-2.1-1.83.95,0,0ZM118.92,142c-1.24-.4-.56-1.43-2.12-1.72C115.81,141.62,118.05,143.37,118.92,142ZM157,164.23c-1.09-2.69-2,.94,0,0Zm-.52,2.16c.82.1,2.17,1.83,2.63.76-.29-1-2-2-2.66-.77Zm.21,1.92,3.33,1.74c1.13-2-2.71-2.05-3.36-1.75Zm-11.46-4.75c1-2.25-2,.52-1.41-1.95-.47.62-1.21.4-1.7.93,2.08.7,4.75,3.26,6.46,2.77-3-2.23,2.74,0,1.23-1.19l-3.34-1.74c-.42.51-.67,1.38-1.27,1.17Zm9.32,3c-.83-.09-2.18-1.83-2.63-.76C152.74,165.92,154.08,167.68,154.58,166.59Zm7.1,34c-5.52-3.58-4.84-.73,0,0Zm1.59,20.22c-1.67-1.9-6.94-3.09-8.35-3.75,1.62,1.38,6.36,5,8.36,3.76Zm-9.78-4.49C150.24,213.9,151.19,217,153.49,216.32Zm6.57,9.49c-2.72-1-6-3.94-8.35-3.76,2.74,1.07,6,3.92,8.36,3.76Zm-9.3-4.25C148,219.43,148.94,222.51,150.76,221.56Zm6.83,7.81c-3.53-1.6-5.55-4.37-8.82-4,2.59,1,8.2,5,8.83,4Zm-14.54,7c2.43,1,5.41,3.67,7.17,2.52C148,237.64,143.4,235.7,143.05,236.35Zm-6.26.38c-3.18-1.17-2.69-1-.24.47,3.19,2,8.62,4.2,10,4-4.28-1.65-8-3.84-9.79-4.48Zm-5.14,5.21c2.46.59,7.28,3.46,10.53,3.06-3.27-.35-7.66-4.17-10.51-3.07Zm3.09,2.21c-2.75-.75,4.73,3.9,5.5,2.26-1.92-1.1-3.4-.74-5.48-2.28Zm-81.55-40c-.61-.32-.34-1-1.18-1.22.31,2.72,5.67,3.76,1.19,1.21Zm7.08,22.47c-3.16-1.9,6.14,7.11,7.61,5.17-2.14-1.51-7.22-5-7.59-5.18Zm2.3,6c5.5-1.89,7.89,8.39,12.19,4.52-4.16-1.11-8.84-5.73-13.55-6.45.76.52,2.61.73,1.38,1.92Zm18.14,8.23c-1.13-.23-2.82-2.22-3.58-1.26,1.15.23,2.83,2.23,3.6,1.25Zm.45,1.45c4.68,2.74,9.39,4.82,13.83,7.2,2,1,5.28,1.62,5.72,4.18-3.22-2.16-5.93-2.8-8.15-1.81,2,2.39,4.22,1.8,6.47,1.55,3.58,2.48,6,1.19,9.1,2.31-8.57-4.09-20.6-11.48-26.95-13.42Zm-16-6.52c.23.31,1.77,3.09,3.34,1.75-2.22-1.2-4.7-3.58-3.33-1.76Zm16.64,11.1c.78-1.33,3.06,2.11,3.84.78-2.2-1.15-4.77-2.21-6-3.71-1.37,1.63,2.37,1.65,2.15,2.92Zm-9.75-5.69c-1.14-.23-2.84-2.22-3.59-1.26,1.15.21,2.8,2.18,3.61,1.25Zm.43,2.65c2.65,3.58,9.37,7.34,13.31,6.93.82.1,2.16,1.84,2.62.76l-2.8-1.46c-2.24.93-8.1-3-9.55-3.76,0-2.49,4.27,1.92,3.13-.19a16.33,16.33,0,0,0-6.71-2.28Zm7,12.13c.69-.45,2.8-2.77,2.22-3.09-.6.63-3.15,1.59-2.2,3.08Zm-7.39-3.24c.46-.59.67-2,0-1.2-.42.58-.65,2,0,1.18ZM70.2,280.83c.51-2.55-2.62-3.95-3.51-6.07-.31,2.48,2.4,4,3.53,6.06Zm.17,4.33a5.3,5.3,0,0,0,0-3.6,5.39,5.39,0,0,0,0,3.59ZM61,297.27c3.25-5.08-.69-8.38,2.13-12.22-.44.71-.8,1.68-1.7.93,1.33-3,1.2-5.43-.36-7.46-1.52,6.73,1,12.15-.07,18.75ZM47.78,313.4c-.38.59-1.86,3.41-.51,2.15,2.17-4.64,3.4-9.36,5.51-12.92-3.11,1.95-5.27,7.55-5,10.74Z" transform="translate(-35.84 4.43)"/><path class="cls-1" d="M135.26,169.87c-.24.46-.76.06-1.19,0a2.34,2.34,0,0,1-1.41-1.94c-5.19-2.35-9-5.13-13.57-7.67C122.79,160.65,131.77,166.38,135.26,169.87Z" transform="translate(-35.84 4.43)"/><path class="cls-1" d="M105.8,207.84c.69-.85,3.46,1.8,6,2.51C109.84,212.41,108,208.28,105.8,207.84Z" transform="translate(-35.84 4.43)"/><path class="cls-1" d="M103.21,218.62c.92-.37.19.09-.25.47-.27-.51-.58-1-.95-.49C101,217.74,103.29,217.44,103.21,218.62Z" transform="translate(-35.84 4.43)"/><path class="cls-1" d="M109.42,250.94C98.35,243.38,89,239.73,77.49,233.1c4.42-1.36,9.88,7.2,14.58,5.77a22.08,22.08,0,0,1,6.65,4.68c1,.71,1.25-1.1,2.17-.69l14.3,7.45c-.55,2-2.57-.57-3.83-.79a16.5,16.5,0,0,1-2.44,2.36l-5.72-3c-.74,1.42,3.89,1.18,2.11,2.92l-8.1-4.22c-2.39-1.25-6-2.11-6.18-4.43l10.49,5.46c-1.34-2.1-5.79-3.22-8.34-4.94,2.09-1.17,5.1,1.46,7.65,2.76l7.63,4Zm-2.83-3.9c-1.76-.53-4.11-2.92-5.49-2.25,1.76.53,4.11,2.92,5.49,2.25Z" transform="translate(-35.84 4.43)"/><path class="cls-1" d="M64.54,304.53c-.86-.53-1.32.05-2.16-.52.34-1.31-1.31-2,.07-3.61,1.8.5,2.59,4.4,5.42,5.86-3.09-1.2-1.84,2.43-3.39,1.87C65.25,306.69,64.44,305.75,64.54,304.53Z" transform="translate(-35.84 4.43)"/></svg>