<svg id="Layer_1" data-name="Layer 1" xmlns="http://www.w3.org/2000/svg" viewBox="0 0 246.18 346.31"><defs><style>.cls-1{fill:#f4f4bd;}</style></defs><path class="cls-1" d="M97.45,3.93c1.11.14.51,2,1.61,2.15C98.32,7.63,97.16,5.17,97.45,3.93Z" transform="translate(0 0)"/><path class="cls-1" d="M100.14,4.46c.07-1.18,2.28-.23,3.22-.53C103.29,5.11,101.08,4.15,100.14,4.46Z" transform="translate(0 0)"/><path class="cls-1" d="M159.26,14.14c2.58,1.84,4.44-1.63,8.06-.54a10.44,10.44,0,0,1-3.76,1.61c-2.66,1.45-8.52,6.52-11.29,2.69,1.84-.22.68-1.45,2.69-.54-.31-.89,1.12-.72,1.61-1.61C158.1,13,157.86,6.58,162,6.08A10.18,10.18,0,0,0,159.8,12c3.29-.83,5.3-2.94,8.6-3.76C167.48,7,168,3.85,170,3.93c.39,1.64-.55,1.95-.54,3.22,2.66.26,8.31-3.78,12.36-2.15-8.39,2.18-15.36,5.78-22.57,9.14Z" transform="translate(0 0)"/><path class="cls-1" d="M152.81,7.15c-.47.79-.81,1.71-2.15,1.61C150.5,7.35,151.4,7,152.81,7.15Z" transform="translate(0 0)"/><path class="cls-1" d="M149.59,9.3C152.11,10.92,151,21,148,22.2,148.57,18,148.32,12.88,149.59,9.3Z" transform="translate(0 0)"/><path class="cls-1" d="M123.25,19.51c-3.13.2-2.69-2.66-2.15-4.83-.55.35-.56,1.23-1.61,1.07a5,5,0,0,0-3.77-4.84c-.55-1.8,1.68-.83,2.69-1.07,1.12,2.11,3.94,2.51,5.38,4.3C124.1,16.43,123.4,17.69,123.25,19.51Z" transform="translate(0 0)"/><path class="cls-1" d="M141,9.84h1.61c-1.49,3.6-2.09,9.63.54,12.9-2.63,1.58,1.26,6.73-2.68,6.45C141.13,23.85,138.38,15.41,141,9.84Z" transform="translate(0 0)"/><path class="cls-1" d="M169.47,10.91c.51,1.94-2.12.75-3.22,1.08C166.3,10.61,168.05,10.92,169.47,10.91Z" transform="translate(0 0)"/><path class="cls-1" d="M172.16,16.29c1.12-.23,1.42.37,2.15.54-.53,1.54-2.25,3.8-3.77,2.68C171.15,17.94,173.48,18.47,172.16,16.29Z" transform="translate(0 0)"/><path class="cls-1" d="M131.85,17.36c1.56-.79,1.56,2.41,0,1.62Z" transform="translate(0 0)"/><path class="cls-1" d="M127.55,20.59c1.91.43-.63,2,.54,4.3-2.58-.43-1.43,2.87-3.23,3.22C123.64,25.88,126,22.9,127.55,20.59Z" transform="translate(0 0)"/><path class="cls-1" d="M134,37.25c-2.7-.67-2-4.27-2.69-6.45a29.54,29.54,0,0,1-1.61-9.67c.89,3.05,2,5.87,2.69,9.13.87-.74,1.32-1.9,3.22-1.61-.05,1.47.89,1.08,0,2.15C133.26,30,134.05,33.91,134,37.25Z" transform="translate(0 0)"/><path class="cls-1" d="M95.3,21.66c1.81-.55.84,1.68,1.08,2.69C94.51,24.73,94.45,22.47,95.3,21.66Z" transform="translate(0 0)"/><path class="cls-1" d="M163,22.2c-.08,1.17-1.35,1.15-2.69,1.07A2.64,2.64,0,0,1,163,22.2Z" transform="translate(0 0)"/><path class="cls-1" d="M60.9,26.5c-1.3,1.92-6.23-.61-8.06-1.61-.5.57-2,.16-1.61,1.61-3.68-2.19-10.5,1.34-12.9-2.69,2.71.87,4.68.08,7,.54C50.24,21,56.31,24.8,60.9,26.5Z" transform="translate(0 0)"/><path class="cls-1" d="M35.1,25.42c.43-2.73,3.09.1,3.77.54C38,27.53,36.91,24.74,35.1,25.42Z" transform="translate(0 0)"/><path class="cls-1" d="M139.91,24.89V27c-1-.23-2.31-.2-2.15-1.62C138.72,25.49,138.89,24.77,139.91,24.89Z" transform="translate(0 0)"/><path class="cls-1" d="M36.18,26c-1,2.36-4.67,2.15-8.06,2.15,2-2.23,4.53-1.35,5.37-2.15C34,24.39,35.22,26.28,36.18,26Z" transform="translate(0 0)"/><path class="cls-1" d="M167.86,26h1.07c.25,1.15-.77,1-1.61,1.08C167.42,26.6,167.86,26.5,167.86,26Z" transform="translate(0 0)"/><path class="cls-1" d="M136.15,28.11h1.07v1.08h-1.07Z" transform="translate(0 0)"/><path class="cls-1" d="M25.43,29.19a14.62,14.62,0,0,1-5.91,4.3C18.22,30.75,23.18,30.12,25.43,29.19Z" transform="translate(0 0)"/><path class="cls-1" d="M166.78,32.41c.09.63,1,.45,1.62.54A2.37,2.37,0,0,1,166.24,34c-.37-2,.92-2.3.54-4.3.62.09,1-.11,1.07-.53C170.13,29.87,167.29,31.34,166.78,32.41Z" transform="translate(0 0)"/><path class="cls-1" d="M83.48,32.41c2.46-1.19,4.74,2.41,5.91,4.3C86.49,36.2,85.5,33.78,83.48,32.41Z" transform="translate(0 0)"/><path class="cls-1" d="M38.87,33.49c.23-.89,4.06-.89,4.3,0C43.11,35.84,40.83,32.64,38.87,33.49Z" transform="translate(0 0)"/><path class="cls-1" d="M25.43,34c-2.21,1.38-6.12,1-9.67,1.08C16.45,34.35,22.25,34.08,25.43,34Z" transform="translate(0 0)"/><path class="cls-1" d="M131.85,36.71c-.95-.49-1.87-1-1.61-2.69C131.92,33.78,132,35.17,131.85,36.71Z" transform="translate(0 0)"/><path class="cls-1" d="M35.64,35.1c-.38,1.95-3.92.74-5.91,1.07s-2,2.65-4.84,2.15C26.28,34.85,31.17,33.94,35.64,35.1Z" transform="translate(0 0)"/><path class="cls-1" d="M117.87,34.56c2.23-.08,1.64,2.67,2.15,4.3C118.13,38.6,118.26,36.33,117.87,34.56Z" transform="translate(0 0)"/><path class="cls-1" d="M21.67,36.17C18.24,37,15.22,38.33,12,39.4v2.69c-2.16-.37-3.06.51-4.83.53a17,17,0,0,0,4.3-4.83C15.37,38,18.63,35.07,21.67,36.17Z" transform="translate(0 0)"/><path class="cls-1" d="M118.41,40.47c-2,0-1.55-2.39-1.61-4.3C118.87,36.07,117.37,39.54,118.41,40.47Z" transform="translate(0 0)"/><path class="cls-1" d="M80.79,36.71c3.22.9,4.17,4.07,5.37,7C82.78,43,81.83,39.79,80.79,36.71Z" transform="translate(0 0)"/><path class="cls-1" d="M165.17,37.79C167.17,35.91,167.9,39.25,165.17,37.79Z" transform="translate(0 0)"/><path class="cls-1" d="M122.17,50.15c.42-.79-1.23-3.34,1.62-3.77,1.22,3.44-1.5,5.22.53,8.6-1.68.25-1.51-1.35-2.15-2.15,0,1-.47,3.53-2.68,3.77.13-.87-.69-3.93,2.14-4.3a27.35,27.35,0,0,1-7-14c2.23-.36,1.21,1.81,1.61,2.69A47.51,47.51,0,0,0,122.17,50.15Z" transform="translate(0 0)"/><path class="cls-1" d="M40.48,39.4c-.59,1.92-3.22,1.8-4.3,3.22C34.51,40.57,38.11,39.2,40.48,39.4Z" transform="translate(0 0)"/><path class="cls-1" d="M164.63,39.94c.17-.73,1.35-.45,2.15-.54C166.63,40.64,165.35,40.63,164.63,39.94Z" transform="translate(0 0)"/><path class="cls-1" d="M95.3,45.85A5.48,5.48,0,0,1,93.69,41,6.53,6.53,0,0,1,95.3,45.85Z" transform="translate(0 0)"/><path class="cls-1" d="M10.38,42.62C9.23,44.88,6,45.06,5.54,48c-1.62-1.49,1.29-3,1.08-4.84C8.36,43.47,9.12,42.79,10.38,42.62Z" transform="translate(0 0)"/><path class="cls-1" d="M159.8,42.62c-.15,1.25-1.44,1.24-2.15.54C157.81,42.43,159,42.71,159.8,42.62Z" transform="translate(0 0)"/><path class="cls-1" d="M198.49,44.24c-1.07.89-2,1.95-3.76,2.15.06-1.91,1.78-2.17,3.76-2.15Z" transform="translate(0 0)"/><path class="cls-1" d="M201.18,45.31c.54,1.62-1.19.95-2.15,1.08C199.16,45.44,200,45.16,201.18,45.31Z" transform="translate(0 0)"/><path class="cls-1" d="M21.13,45.85c-.47.78-.42,2.08-2.15,1.61C19.45,46.67,19.78,45.76,21.13,45.85Z" transform="translate(0 0)"/><path class="cls-1" d="M110.35,51.76c-1.12.31.77,2,.54,3.23-1.92-.07-2.17-1.78-2.15-3.77,1.81-.34,1.39-2.9,1.61-4.83,2.16.34.84,4.17,2.69,4.83-3,3.26,3.76,4.89,4.3,8.06,1.14.25,1-.76,1.07-1.61,1.47-.39,1.08,1.07,2.15,1.08A1.48,1.48,0,0,1,119,59.82c.08,1,1.82.33,2.15,1.08v2.68A22.71,22.71,0,0,1,110.35,51.76Z" transform="translate(0 0)"/><path class="cls-1" d="M189.9,46.92c-1.28.88-3.26,1-4.84,1.62C185.4,46.73,187.63,46.81,189.9,46.92Z" transform="translate(0 0)"/><path class="cls-1" d="M78.64,50.68c.13-.94.92-1.22,2.15-1.07C80.66,50.56,79.86,50.84,78.64,50.68Z" transform="translate(0 0)"/><path class="cls-1" d="M155,51.22c2.52.07-.59.78,0,2.15-3.85,1.89-5.57,5.9-11.83,5.38.7-1.27,2.91-1,4.3-1.61-5.17-.51-11.39,2.57-16.66,3.76,4.74-4.41,13.72-4.56,21-6.45.62-2.27-2.1-.49-2.14-1.08C149.49,52.11,154.34,53,155,51.22Z" transform="translate(0 0)"/><path class="cls-1" d="M5,52.84c1.12.47-.18,3-1.62,2.68C3.14,53.84,4.84,54.1,5,52.84Z" transform="translate(0 0)"/><path class="cls-1" d="M161.41,54.45H163c-.19,2.5-2,3.38-2.69,5.37-.72-.16-.44-1.34-.53-2.15-1.73-.33-.74,1.94-2.15.54-.49.37-.52,2.14-.54,4.3-2.6-.28-2,2.67-2.15,4.84-1.17-.08-1.15-1.36-1.07-2.69-1,.22-.43,2.08-2.15,1.61.3,1.19.79,3-1.07,3.23-.38-3.6.9-5.55,3.22-6.45-.35-3.4,2.34-3.75,2.69-6.45C158.39,57.89,160.48,55.74,161.41,54.45Z" transform="translate(0 0)"/><path class="cls-1" d="M128.62,58.75c-.13-2.64,2.2-2.82,4.3-3.23-.3,1.31-2.08,1.15-1.61,3.23C129.65,58.37,130.28,58.37,128.62,58.75Z" transform="translate(0 0)"/><path class="cls-1" d="M67.35,60.9c1,1.75,3.25-1.13,4.3.53-1.44.53-2.44,1.5-4.3,1.62-.57-2.48-4.14-1.95-4.3-4.84,2.35.67,4.5,0,7-.54-.44,1.89-3.21,1.45-5.37,1.62,1.58,2.25,4.46-.51,7.52,0C71.52,60.76,69.28,60.68,67.35,60.9Z" transform="translate(0 0)"/><path class="cls-1" d="M213,58.75c-1.1,1.23-4.47.19-6.45.54C208,57.37,210.3,58.59,213,58.75Z" transform="translate(0 0)"/><path class="cls-1" d="M122.71,60.36c2.12-.27,1,3.74-.54,3.22C121.78,61.94,123.1,62,122.71,60.36Z" transform="translate(0 0)"/><path class="cls-1" d="M148.51,60.9c-1.32.74-3.82,2.23-5.38,1.07C144.45,61.14,146.63,61.17,148.51,60.9Z" transform="translate(0 0)"/><path class="cls-1" d="M131.31,61.43c-.06,1-1.77.38-1.61,1.62,1.77,0,2.67-.91,4.83-.54-2,1.07-3.54,2.54-6.44,2.69.19-.92-.43-1-1.08-1.08C128.44,63.22,128.42,60.87,131.31,61.43Z" transform="translate(0 0)"/><path class="cls-1" d="M117.34,63.58c2.22-.43,2.76.83,2.68,2.69h-2.68Z" transform="translate(0 0)"/><path class="cls-1" d="M199,65.2c-.92,1.23-4.1.19-5.91.53C194.31,64,196.52,65.08,199,65.2Z" transform="translate(0 0)"/><path class="cls-1" d="M144.21,65.2h1.07c.25,1.14-.77,1-1.61,1.07C143.77,65.83,144.21,65.74,144.21,65.2Z" transform="translate(0 0)"/><path class="cls-1" d="M126.47,65.73a32.07,32.07,0,0,1,12.36,2.15c-3.5,1.26-8.3-2.5-11.82,0A3,3,0,0,1,126.47,65.73Z" transform="translate(0 0)"/><path class="cls-1" d="M206.56,71.11c.78.47,2.08.42,1.61,2.15C207.76,72.41,206.46,72.46,206.56,71.11Z" transform="translate(0 0)"/><path class="cls-1" d="M84,73.26a5.15,5.15,0,0,1,2.15,4.3c-1.59-.56-1.58-2.72-4.3-2.15C81.3,73.41,83.68,74.35,84,73.26Z" transform="translate(0 0)"/><path class="cls-1" d="M205.48,74.87A1.27,1.27,0,0,1,206.56,77C205.61,76.89,205.33,76.1,205.48,74.87Z" transform="translate(0 0)"/><path class="cls-1" d="M158.72,81.32c-1.73.42-2.66,1.64-4.84,1.61,2.57.84,5.61,1.21,8.07,2.15-2.9,1.8-5.85-1-9.14-.53,0,2.67,1.35.1,2.15,1.07-.29-.35-4.71,2.83-7,2.69C151.52,86.07,152.66,77.69,158.72,81.32Z" transform="translate(0 0)"/><path class="cls-1" d="M203.87,81.32c1.07.71,1.2,2.39,1.61,3.76-1.44-.37-1,1.11-1.61,1.62-1.24.16-.6-1.56-1.61-1.62C203.83,85,204.14,84.27,203.87,81.32Z" transform="translate(0 0)"/><path class="cls-1" d="M95.3,84.55c-1.33,1.26-3-.14-3.23-1.62A2,2,0,0,1,95.3,84.55Z" transform="translate(0 0)"/><path class="cls-1" d="M123.25,91c.16-.72,1.34-.44,2.15-.53C125.25,91.7,124,91.69,123.25,91Z" transform="translate(0 0)"/><path class="cls-1" d="M105.51,93.15a7.89,7.89,0,0,1-5.37,2.68C101.14,94.31,102.94,91.38,105.51,93.15Z" transform="translate(0 0)"/><path class="cls-1" d="M117.34,94.76c.08-.63,1-.46,1.61-.54v1.61C117.76,96.13,118.18,94.8,117.34,94.76Z" transform="translate(0 0)"/><path class="cls-1" d="M96.38,101.74c-1.46,3-5.6,3.37-6.45,7C88.75,105.5,93.27,100.71,96.38,101.74Z" transform="translate(0 0)"/><path class="cls-1" d="M143.13,104.43c-.79,2.26-3.26,2.83-5.37,3.76C138.83,106.21,141.11,105.45,143.13,104.43Z" transform="translate(0 0)"/><path class="cls-1" d="M136.68,108.73c-.46.79-.8,1.71-2.15,1.61C135,109.56,135.34,108.64,136.68,108.73Z" transform="translate(0 0)"/><path class="cls-1" d="M134.53,113c.88-.15.93.51,1.62.54-.94,2.28,1.23,3.13,0,4.84A3.83,3.83,0,0,1,134.53,113Z" transform="translate(0 0)"/><path class="cls-1" d="M138.84,120c1.84,2.07,1.93,1.06,4.29,0-1.51,1.63-1.57,2.65-1.07,5.37C140.55,124.21,138.47,121.35,138.84,120Z" transform="translate(0 0)"/><path class="cls-1" d="M116.26,143.67V139.9C119.28,138.85,119.28,144.72,116.26,143.67Z" transform="translate(0 0)"/><path class="cls-1" d="M110.89,146.35c.14-1.26,2.36-.31,2.69,0,1.45.34,4.26-.68,4.83.54H113C112.07,147,111.9,146.23,110.89,146.35Z" transform="translate(0 0)"/><path class="cls-1" d="M96.91,150.12A1.48,1.48,0,0,1,98,151.73,1.49,1.49,0,0,1,96.91,150.12Z" transform="translate(0 0)"/><path class="cls-1" d="M109.28,150.65c.09,1.17-1.91.25-2.69.54C106.64,149.82,108.59,149.92,109.28,150.65Z" transform="translate(0 0)"/><path class="cls-1" d="M99.6,151.19c2.69.07,2.87.65,5.91,1.08C104.22,153.35,99.86,152.92,99.6,151.19Z" transform="translate(0 0)"/><path class="cls-1" d="M96.38,152.27c1.24.6,1.43-.12,2.68,1.07C98.67,154.54,96,153.6,96.38,152.27Z" transform="translate(0 0)"/><path class="cls-1" d="M107.12,152.27a3.47,3.47,0,0,1,2.69.53C109.91,153.68,106.3,153.89,107.12,152.27Z" transform="translate(0 0)"/><path class="cls-1" d="M120.56,157.1c-3,.8-7.71-1.24-12.36-.53C110,155.56,118,154.87,120.56,157.1Z" transform="translate(0 0)"/><path class="cls-1" d="M97.45,157.1c.09,1.17-1.91.25-2.69.54C94.82,156.27,96.76,156.37,97.45,157.1Z" transform="translate(0 0)"/><path class="cls-1" d="M144.75,156.57h2.68c.56,1.8-1.67.83-2.68,1.07Z" transform="translate(0 0)"/><path class="cls-1" d="M159.8,158.18c-1.85,1.43-5.83,1.08-9.14.54C152.22,156.26,156.32,159.12,159.8,158.18Z" transform="translate(0 0)"/><path class="cls-1" d="M122.71,158.72c-4.55,1.49-10-.78-15.58,0C109.27,157.33,118.32,158.63,122.71,158.72Z" transform="translate(0 0)"/><path class="cls-1" d="M135.07,159.79c.55,1.81-1.67.84-2.69,1.08C132.46,159.69,133.74,159.71,135.07,159.79Z" transform="translate(0 0)"/><path class="cls-1" d="M129.7,160.33C128.52,162,126.26,159.71,129.7,160.33Z" transform="translate(0 0)"/><path class="cls-1" d="M84.55,162.48c3.13-1.69,7,.56,10.21.54C91.67,164.66,88.11,162.16,84.55,162.48Z" transform="translate(0 0)"/><path class="cls-1" d="M107.12,163c.74-1.38,3.3-.11,4.3,0C110.56,164.52,109,162.26,107.12,163Z" transform="translate(0 0)"/><path class="cls-1" d="M147.43,164.63c-.23,1.2-2.65.21-3.76.53C143.68,163.6,146.71,163.9,147.43,164.63Z" transform="translate(0 0)"/><path class="cls-1" d="M84,165.16c3.14-1.68,6.95.57,10.22.54C91.13,167.35,87.57,164.84,84,165.16Z" transform="translate(0 0)"/><path class="cls-1" d="M100.14,164.63C99,166.27,96.69,164,100.14,164.63Z" transform="translate(0 0)"/><path class="cls-1" d="M107.12,166.24c-.09-1.17,1.91-.24,2.69-.54C109.9,166.87,107.91,166,107.12,166.24Z" transform="translate(0 0)"/><path class="cls-1" d="M129.7,166.24c-3.17,2.49-8.9-.42-14,.54C118.68,164.27,124.71,167.27,129.7,166.24Z" transform="translate(0 0)"/><path class="cls-1" d="M92.08,167.85c-3.42,1.61-7.48-.76-11.29-.54C82.1,165.52,89.31,167.84,92.08,167.85Z" transform="translate(0 0)"/><path class="cls-1" d="M133.46,167.31c2-1.24,6.26-.18,9.14-.53C141.54,168.73,135.37,167.94,133.46,167.31Z" transform="translate(0 0)"/><path class="cls-1" d="M98.53,168.93c-.57-1,9.86,0,7,.53-3,.53-.08.52-3.76,0C102,169.49,98.76,169.33,98.53,168.93Z" transform="translate(0 0)"/><path class="cls-1" d="M128.09,169.46c-4.26,1.54-11.18.6-16.13,0-5.69-.68,3.77-1.05,0-.53C116.19,168.35,122.18,169.76,128.09,169.46Z" transform="translate(0 0)"/><path class="cls-1" d="M80.25,170c10.28-1.67,19,2.91,30.1,2.15C100.73,173.17,89.33,171.31,80.25,170Z" transform="translate(0 0)"/><path class="cls-1" d="M95.3,174.3c-2.63.13-13.22-.85-14-1.61C84.91,172.25,91.79,172.91,95.3,174.3Z" transform="translate(0 0)"/><path class="cls-1" d="M112,172.69c1-1,10-.69,13.44,0h11.83C129.68,174,119.68,173,112,172.69Z" transform="translate(0 0)"/><path class="cls-1" d="M105.51,174.84c-2,1.56-4.6-.76-7.52,0C97.46,173.85,104.2,174.17,105.51,174.84Z" transform="translate(0 0)"/><path class="cls-1" d="M79.18,174.84c12.22.67,22.83,3,35.47,3.22A186.26,186.26,0,0,1,84,176.45C82.58,176.24,79.92,176.44,79.18,174.84Z" transform="translate(0 0)"/><path class="cls-1" d="M132.92,175.38c-1.25,1.81-5.84,1.24-9.13,1.07-4.42-.22-8.16-1.34-13.44-1.07C114.47,174.24,125.29,176,132.92,175.38Z" transform="translate(0 0)"/><path class="cls-1" d="M135.07,180.75c-2.29,2.4-5.88.66-8.6.54-16.35-.74-32.25-.34-47.29-2.69.08-.63,1-.45,1.61-.54,4.68-2,9.07,1,14,1.62C107.18,181.25,121.15,180.07,135.07,180.75Z" transform="translate(0 0)"/><path class="cls-1" d="M116.8,178.6a52.31,52.31,0,0,1,16.66,0C128.83,179.82,122.72,177.88,116.8,178.6Z" transform="translate(0 0)"/><path class="cls-1" d="M90.46,181.83c-3.62,1.64-8.15-.44-12.36,0C80.76,179.3,87.11,181.55,90.46,181.83Z" transform="translate(0 0)"/><path class="cls-1" d="M126.47,184h6.45c5.49.36-.14.45-3.22.53-8.94.24-14.75-.58-23.11-.53-2.66,0-10.56-.93-14-1.08-4.61-.2,8-.05,9.14,0C109.63,183.24,118,182.77,126.47,184Z" transform="translate(0 0)"/><path class="cls-1" d="M133.46,187.2c-2.18.55-7.5-.37-11.29,0C124.83,186.17,130.74,186.5,133.46,187.2Z" transform="translate(0 0)"/><path class="cls-1" d="M113.57,193.11c4.62-1.26,16.53-.29,22.58.54-3.82-.3-8.88.64-11.82-.54C121,194.54,117.65,192.58,113.57,193.11Z" transform="translate(0 0)"/><path class="cls-1" d="M157.11,193.65C152,195.51,154,192.56,157.11,193.65Z" transform="translate(0 0)"/><path class="cls-1" d="M76,194.19c4.83,0,10-.29,13.44,1.07-.74,1-2.6.09-4.84,0C81.61,195.15,77.21,196.22,76,194.19Z" transform="translate(0 0)"/><path class="cls-1" d="M110.89,196.34c-2.84,1.28-7,.15-10.22,0-2.09-.1-7.79.82-8.59-.54-.22-.37.84-.55,1.07-.53C95.8,195.4,105.07,196,110.89,196.34Z" transform="translate(0 0)"/><path class="cls-1" d="M113,196.34c6.08-1.24,13.6.72,21,0,4.65.71-4.08.51-5.91.54A133,133,0,0,1,113,196.34Z" transform="translate(0 0)"/><path class="cls-1" d="M155,195.8c-1.93,2.82-6.82-.21-10.22.54C145,195.17,152,196.1,155,195.8Z" transform="translate(0 0)"/><path class="cls-1" d="M89.39,201.71c-1.75,1.69-13.07.39-13.44,0C80,200.15,84.89,202,89.39,201.71Z" transform="translate(0 0)"/><path class="cls-1" d="M110.89,201.71c5.37,0,10.85-1,16.12-.54,1.33.11,4.08,0,4.84,1.62C124.82,201.94,116.78,202.36,110.89,201.71Z" transform="translate(0 0)"/><path class="cls-1" d="M107.66,202.25c-3.1,1.29-10,.13-3.22,0C105.72,202.22,106.44,202.27,107.66,202.25Z" transform="translate(0 0)"/><path class="cls-1" d="M74.34,203.32c7-.38,12.77.5,18.81,1.08-3.33,1.68-11.13,1.34-15.59.54C76.24,204.7,74.35,204.34,74.34,203.32Z" transform="translate(0 0)"/><path class="cls-1" d="M121.1,205.47c-.09-1.16,1.91-.24,2.69-.53C123.88,206.1,121.88,205.18,121.1,205.47Z" transform="translate(0 0)"/><path class="cls-1" d="M133.46,206h-5.37C128,204.57,133.62,204.1,133.46,206Z" transform="translate(0 0)"/><path class="cls-1" d="M95.84,206c-.09-1.17,1.9-.24,2.69-.54C98.61,206.64,96.62,205.71,95.84,206Z" transform="translate(0 0)"/><path class="cls-1" d="M140.45,206c3.59-1.25,9.49-.18,14-.54C151.6,206.69,144,206,140.45,206Z" transform="translate(0 0)"/><path class="cls-1" d="M106.59,208.7c-4,1.17-11.07-.43-14.51,0-.15-1,.5-1.11.53-.54A84.2,84.2,0,0,1,106.59,208.7Z" transform="translate(0 0)"/><path class="cls-1" d="M74.34,208.16c2.68.14,5.38-.18,8.06,0,2.22.15,5.47.06,6.45,1.61-3-.22-6.6.31-9.67,0C77.45,209.61,74.74,209.73,74.34,208.16Z" transform="translate(0 0)"/><path class="cls-1" d="M115.72,208.7c.24-1.21,2.65-.22,3.77-.54C119.26,209.36,116.84,208.38,115.72,208.7Z" transform="translate(0 0)"/><path class="cls-1" d="M125.94,208.7c.26-.75,4.84-1.31,4.3.54C128.69,209.17,126.72,209.53,125.94,208.7Z" transform="translate(0 0)"/><path class="cls-1" d="M111.42,211.39c.23-1.2,2.65-.22,3.77-.54C115,212.05,112.54,211.07,111.42,211.39Z" transform="translate(0 0)"/><path class="cls-1" d="M152.81,211.39c0-.82,4-1.18,3.22.53C154.71,212,153.44,212,152.81,211.39Z" transform="translate(0 0)"/><path class="cls-1" d="M94.76,212.46c.59-1,9.28-1.27,9.68,0Z" transform="translate(0 0)"/><path class="cls-1" d="M108.74,211.39C107,213,104.72,210.74,108.74,211.39Z" transform="translate(0 0)"/><path class="cls-1" d="M150.12,213h2.69c.55,1.8-1.67.83-2.69,1.07Z" transform="translate(0 0)"/><path class="cls-1" d="M76,213.54c5.77.14,12.24-.41,17.2.53C89.55,215.35,78.64,216.54,76,213.54Z" transform="translate(0 0)"/><path class="cls-1" d="M95.84,214.07c4.54.52,7.5.3,12.9.54-1.35.9-4.27.59-7,.54C99.72,215.11,96.21,216,95.84,214.07Z" transform="translate(0 0)"/><path class="cls-1" d="M126.47,214.61c-.21-1,2.45-.79,1.62.54H127C127.11,214.69,126.8,214.64,126.47,214.61Z" transform="translate(0 0)"/><path class="cls-1" d="M127.55,216.76h2.15c.54,1.62-1.2,1-2.15,1.07Z" transform="translate(0 0)"/><path class="cls-1" d="M157.65,217.3c3.09-.94,9.78-.84,12.89,0C167.45,218.23,160.76,218.14,157.65,217.3Z" transform="translate(0 0)"/><path class="cls-1" d="M96.38,217.3C95.19,218.94,92.93,216.68,96.38,217.3Z" transform="translate(0 0)"/><path class="cls-1" d="M103.9,217.83c-1.47,1.61-3.55-.71-5.91,0C97.24,216.63,102.67,217.54,103.9,217.83Z" transform="translate(0 0)"/><path class="cls-1" d="M107.66,217.3c-.49.94-1.68,1.18-3.22,1.07C104.5,217,106.24,217.31,107.66,217.3Z" transform="translate(0 0)"/><path class="cls-1" d="M110.35,217.83c.16-.73,1.34-.44,2.15-.53C112.33,218,111.15,217.74,110.35,217.83Z" transform="translate(0 0)"/><path class="cls-1" d="M91,220.52c-4.61-.44-8.74-.31-14.51-.53-.91.19-1-.42-1.08-1.08,1.93-.81,4.84-.67,7.53-.53C86,218.52,90,218.57,91,220.52Z" transform="translate(0 0)"/><path class="cls-1" d="M126.47,220.52c0-.82,4-1.18,3.23.54C128.05,221.45,127.74,220.51,126.47,220.52Z" transform="translate(0 0)"/><path class="cls-1" d="M96.38,221.06c3.22-1.25,8.77-.18,12.89-.53C106,221.77,100.5,220.71,96.38,221.06Z" transform="translate(0 0)"/><path class="cls-1" d="M101.21,224.29c.07-1.19,2.28-.24,3.23-.54C104.37,224.93,102.16,224,101.21,224.29Z" transform="translate(0 0)"/><path class="cls-1" d="M107.66,224.29c.66-1.63,2,.37,2.69.53,2.25.27,8.45-.59,8.06.54h-9.14A1.47,1.47,0,0,0,107.66,224.29Z" transform="translate(0 0)"/><path class="cls-1" d="M128.09,223.75c1.07-.19,1.68.11,1.61,1.07h-1.61Z" transform="translate(0 0)"/><path class="cls-1" d="M119,228.05c.22-1.83,3,.81,2.69-.54C123.27,229.23,120.11,228.13,119,228.05Z" transform="translate(0 0)"/><path class="cls-1" d="M133.46,229.66c-2.55.22-3.7-1-6.45-.54C127.46,227,133,228.28,133.46,229.66Z" transform="translate(0 0)"/><path class="cls-1" d="M99.6,228.59h1.07v1.07H99.6Z" transform="translate(0 0)"/><path class="cls-1" d="M101.21,229.66c.4-1.21,3-.21,4.3-.54A4,4,0,0,1,101.21,229.66Z" transform="translate(0 0)"/><path class="cls-1" d="M109.81,229.13C108.63,230.77,106.37,228.51,109.81,229.13Z" transform="translate(0 0)"/><path class="cls-1" d="M82.4,229.66c4.78.41,11.49-1.1,14,1.62C91.67,230.78,84.73,232.53,82.4,229.66Z" transform="translate(0 0)"/><path class="cls-1" d="M113.57,230.2c.93-1.23,4.11-.2,5.92-.54C118.57,230.89,115.38,229.86,113.57,230.2Z" transform="translate(0 0)"/><path class="cls-1" d="M122.17,229.66c.55,1.62-1.2,1-2.15,1.07C120.15,229.79,121,229.51,122.17,229.66Z" transform="translate(0 0)"/><path class="cls-1" d="M99.06,231.27c2.6-.34,3.8.71,5.38,0C104.5,232.72,98.9,233.19,99.06,231.27Z" transform="translate(0 0)"/><path class="cls-1" d="M129.16,231.27c1.08-.18,1.68.11,1.61,1.08h-1.61Z" transform="translate(0 0)"/><path class="cls-1" d="M105.51,232.35c.24-1.2,2.65-.22,3.77-.54C109,233,106.62,232,105.51,232.35Z" transform="translate(0 0)"/><path class="cls-1" d="M110.89,232.35c-.09-1.17,1.91-.24,2.69-.54C113.67,233,111.67,232.05,110.89,232.35Z" transform="translate(0 0)"/><path class="cls-1" d="M123.25,232.89c-1.32,1.62-3.5-.41-5.38,0C117.59,232,122.07,231.58,123.25,232.89Z" transform="translate(0 0)"/><path class="cls-1" d="M130.23,234h-6.44C124,232.45,130.15,232.06,130.23,234Z" transform="translate(0 0)"/><path class="cls-1" d="M133.46,232.89c-.08,1.17-1.35,1.15-2.69,1.07C130.22,232.15,132.44,233.13,133.46,232.89Z" transform="translate(0 0)"/><path class="cls-1" d="M110.35,235c.74-1.22,3.74-.2,5.37-.53C115,235.72,112,234.7,110.35,235Z" transform="translate(0 0)"/><path class="cls-1" d="M120,235c.57-1.22,3.38-.2,4.84-.53C125.11,236.55,120.66,235.52,120,235Z" transform="translate(0 0)"/><path class="cls-1" d="M105,237.19c.07-1.19,2.29-.23,3.23-.54C108.13,237.83,105.92,236.87,105,237.19Z" transform="translate(0 0)"/><path class="cls-1" d="M117.87,237.19C116.69,238.83,114.43,236.56,117.87,237.19Z" transform="translate(0 0)"/><path class="cls-1" d="M130.77,238.8a49.49,49.49,0,0,0-10.21-.54c-1,.15-1.1-.51-.54-.54C122.36,237.32,130.12,235.76,130.77,238.8Z" transform="translate(0 0)"/><path class="cls-1" d="M104.44,239.87c.57-1.22,3.37-.21,4.83-.54C108.7,240.56,105.89,239.54,104.44,239.87Z" transform="translate(0 0)"/><path class="cls-1" d="M104.44,242c.08-.15,1.15-1,1.61-.54S103.93,243,104.44,242Z" transform="translate(0 0)"/><path class="cls-1" d="M106.59,242c-.09-1.17,1.9-.24,2.69-.54C109.37,242.65,107.37,241.73,106.59,242Z" transform="translate(0 0)"/><path class="cls-1" d="M121.1,242.56c-1.6-.22-6.94.52-5.91-.54C116.07,241.53,121.1,240.48,121.1,242.56Z" transform="translate(0 0)"/><path class="cls-1" d="M122.17,242c1.08-.18,1.68.11,1.62,1.07h-1.62Z" transform="translate(0 0)"/><path class="cls-1" d="M127,242h2.69c.55,1.81-1.67.84-2.69,1.07Z" transform="translate(0 0)"/><path class="cls-1" d="M103.9,243.1c7.65.06,13.46,2,21,2.15-3.18,2.56-10,.1-13.44-.54C108.57,244.52,104.85,245.19,103.9,243.1Z" transform="translate(0 0)"/><path class="cls-1" d="M121.64,243.63c1.07-.18,1.68.11,1.61,1.08h-1.61Z" transform="translate(0 0)"/><path class="cls-1" d="M125.4,244.17h5.37v1.07C129.14,244.73,125.32,246.39,125.4,244.17Z" transform="translate(0 0)"/><path class="cls-1" d="M113.57,249.55c.89-1.93,10.19-1.62,10.75.53A62.42,62.42,0,0,0,113.57,249.55Z" transform="translate(0 0)"/><path class="cls-1" d="M153.88,248.47c.21,2.18-3.35.59-4.83,1.08C148.84,247.37,152.4,249,153.88,248.47Z" transform="translate(0 0)"/><path class="cls-1" d="M117.34,268.36v-1.08H119v1.61c-.87.16-.93-.5-1.61-.53Z" transform="translate(0 0)"/><path class="cls-1" d="M109.81,268.36c2.29,1.06,2.73,5.62,0,6.45C108.87,272.91,109.39,270.38,109.81,268.36Z" transform="translate(0 0)"/><path class="cls-1" d="M108.2,276.42c.22,1.29-1,1.17-.54,2.69-1.22-.39-2.74-.48-3.76-1.08C104.19,276.35,107,277.21,108.2,276.42Z" transform="translate(0 0)"/><path class="cls-1" d="M112.5,277c.24,1.68-1.15,1.72-2.69,1.61C110.3,277.63,110.81,276.7,112.5,277Z" transform="translate(0 0)"/><path class="cls-1" d="M108.2,279.64c.39,1.53-1.08,4.13.54,6.45-.71-.19-.85-.94-1.62-1.07-1.75.89,1,2.92-.53,3.76C102.25,287.38,107.17,282.18,108.2,279.64Z" transform="translate(0 0)"/><path class="cls-1" d="M115.72,290.39c1.15-.25,1,.77,1.08,1.62-.43-.1-.54-.54-1.08-.54Z" transform="translate(0 0)"/><path class="cls-1" d="M120,307.59c1.09.44-.34,2.84-.53,3.77-1.37-.82-2.47-1.52-4.3-.54a3.52,3.52,0,0,1,.53-2.69C117.07,309.29,119.26,309.48,120,307.59Z" transform="translate(0 0)"/><path class="cls-1" d="M117.87,311.89c.9,2.17-3,4.11-4.83,5.37-.52,1.46-.24,3.71-2.69,3.23-.49-2.64,2.25-2.05,2.15-4.3-.17-.73-1.35-.45-2.15-.54C111.66,313.09,116.6,315.39,117.87,311.89Z" transform="translate(0 0)"/><path class="cls-1" d="M130.23,317.8c2.11.08,5.77,6.89,1.08,7C132.42,321.47,131.39,320.48,130.23,317.8Z" transform="translate(0 0)"/><path class="cls-1" d="M227.51,57.14c2.37-.7-.95,3.18,1.08,3.76.91-1.07.59-3.36,1.07-4.84-5.65,2.58-10.86,5.62-16.12,8.6-.56,5.94-.26,13.84-2.69,18.81a27.16,27.16,0,0,1-4.3,5.38C205,90,200.81,91.74,199,91.53c-6.13-.7-8.48-11.26-5.91-18.81-9.14.19-14.43,4.2-22,5.91C167,85,163.51,89.57,155,90.46c-3,.3-6.39-.59-8.6,1.07,7.22,1.19,14.47,2.22,15.58,9.68,1.19,8-2,20-7.52,23.11-2.1,5.21-5.53,12.64-11.83,10.75-5-1.51-.89-10-7-11.29-1.85,4.4-2,11.63-2.15,16.13-2.7-1.28-1.86-5.27-1.62-8.07.28-3.17,2-6.91,1.62-9.67-1.94,4.79-2.67,12.09-2.69,17.2-2.88-.2-1.81-4.21-1.61-6.45a36.42,36.42,0,0,1,3.22-11.29c.06-2-2.49-3.15-1.07-4.84,2.29.48,2.19,2.63,3.76,4.3,2.82,3,6.88,4.06,6.45,10.75,5.8,5.58,8.71-3.35,12.36-8.06,3.21-4.13,7.79-13,5.92-22.57-1.06-5.44-5.35-7-11.29-8.06.77,1.29-3.5,1.54-4.84.53.15-2.72,3.08-2.65,3.77-4.83,9.74,1.43,18.64-2.45,21-10.22-3.73-2-10.34,5.45-11.29,0-5.14-1-5.46,2.79-8.6,3.77,5.66-9.57,15-15.45,23.65-22,4.36,1,7.32-2.73,12.9-2.15-2.28,1.85-6.26,2-8.6,3.76a170.45,170.45,0,0,0,23.65,1.08c1.9-.06-1.15-1.78.53-1.61,3.19-.33,4.8.94,8.07.53a11.84,11.84,0,0,0-5.91-1.07c2.43-2.31,6.47-.13,10.21-.54-2.86,3.18-8.84,3-15.59,3.23-2.79.11-5.87,1.08-8.06,1.07-8.21,0-16.62-2.43-23.65,1.61,1,1.2,3.56-.7,5.91,0-1.27,1.6-4.7,1-7,1.62.07,1.18,2.28.23,3.23.53-1.5,1.46,1.31,1,1.61,2.15,8.17-.07,16.81.33,21-3.76h5.91c-1.33,1.65-2.18.43-4.3,1.08.09.63,1,.45,1.62.53-7.61,5.89-25,.83-35.48,4.3-.51,2,2.12.75,3.23,1.08-1.81,1.41-4.78,1.67-7,2.69-.07,1.4,3-.07,3.76.53.13.11-.13,1.59,0,1.62,2.64.5,4.53-2,8.07-2.15,1.45-.07,3.16,1.18,4.3,1.07,4.13-.39,9-4.66,14.51-5.37,4.68-.62,8.22,0,10.75-3.23,9.91.05,16-4.46,23.11-8.6,5.07-3,12-8.62,20.42-5.91-5.17-3.22-13.26-6.9-20.42-4.84,2.77,2-8.21,1.17-6.45-1.07-1.75-.31-2.5.36-3.77.54,3.5,1.64,10.56,4.19,16.67,3.22-.56,2-3.36,1.12-4.31,1.08-4.19-.22-8.54-2.22-12.89-2.15-2.77,0-6.39,1.94-10.22,1.61,1.56-2.38,7-.87,8.6-3.23-5-1-9.64,2.89-15.05,3.23,1.31,1.44,4.29,0,5.92,0-.82,2.18-4.26.79-6.45,1.07s-3.35,1.16-4.84,1.08c9.33-.61,22.66,4.39,28.48-1.08h5.92c.28,1.06-3.17,1.44-.54,1.62-11.84,5.45-33.08-4-44.61,4.29-1.37,0-.65-.39-.53-1.07-14.76,8-27.08,18.42-34.94,33.32,3-.44,3.68-7.78,8.06-8.6a88.35,88.35,0,0,0-5.37,9.14c1.48,3.6,4.33,2.74,8.06,4.3-.33,1.15-3.31.5-3.76,0a8.89,8.89,0,0,0-1.61,2.15c5.09-2,10.57,2.88,12.89,7-2.67.16-4.17-5.49-8.06-5.91-2,1.32,1.9,4.12-2.68,4.3,3.62,1.93,7.66,3.45,8.6,8.06-2.39-1.55-3.83-4.06-6.45-5.37-1.29,1.09,2.19,4.63-.54,5.37,1.52,1.53,3.23,2.87,3.76,5.38-.77-1.55-2.79-1.87-3.76-3.23,0,1.81-.12,5.23-1.61,7-.23,1.51,2-1.35,2.15.54,1.19,1.35-1.36,2.22-2.69,2.68a18.4,18.4,0,0,1-1.07,7.53c-2.25-4.4-.08-9.78,0-14.51s-.87-8.41-.54-12.9c-.12-.78-1.6-.19-1.61-1.08.76-2.59-.55-8.47-3.23-10.74-3.31,4.21-3.18,8.23-9.14,11.28-1.14,3.48,4,3.3,1.08,5.38-1.31-.33-1-3-3.23-3.77v-2.68c-4.34,3.28,2.38,7.5,2.69,11.28-3.34,6.7-5.12,15-5.91,24.19-.67,1.27-2.85,2.8-1.62,4.3,0-2.63,2.08-1.8,3.23-4.3,1.84.92.12,3.41,2.15,4.84,1.19-.07.23-2.28.54-3.23,1.45.21,4.31,3.45,3.22,0,2.43-.25,1.47,2.52,1.07,3.76,4-1.94-.3-6.4-.53-9.13,2.2-.41,1.85,1.73,2.15,3.22,2.45.27,3-.93,4.83,0-2,1.81-4.06,3.46-4.3,7-5.43.06-9.46-1.29-15.05-1.08,3.28-1.53-2-2.83,2.15-3.76-.12-.94-.92-1.22-2.15-1.07-.35-9.38-3.35-17.21-5.91-25.26-.43-1.35.43-3.82-1.61-4.3-1.22,2.31,1.52,5.27,2.15,7.52-.63-.09-1,.12-1.08.54,1.58,2.9.38,8.58,3.23,10.21-2.27,2.06,1.58,1.82-.54,3.22,1.8,3,.19,5.71,3.23,9.68-.52,1.46-.24,3.71-2.69,3.22,2.33-3.83-.45-8.3-5.91-7.52-.33-2.12,3-.63,4.3-1.07-1.55-8.49-2.68-17.39-5.38-24.73-3.89,1.12-5.69,4.35-9.14,5.91-2.67,5.93-12.62,14-19.34,7.53,1.37-5.62.78-10.19,1.61-15,1.54-9,10.12-11.13,14.51-17.2-1.38-.9-2.56.13-4.84-.54a17.36,17.36,0,0,1-4.3-8.06c-3.39,0-6.89.09-7.52-2.69C91.69,85.3,98.82,76.89,98,66.27c3.93.73,3.47,5.84,7,7,.3,2.75,2.49,3.6,2.69,6.45-.78.29-2.78-.63-2.69.53,2.08,1.16,3.33.35.54,1.62,1.11,1.75,2.78-.4,3.76-.54-.2,1.82.93,2.29,1.61,3.22,3.3-2.6-4-7.33-1.07-9.67,1.91-.83.32,1.83,1.61,1.61-1.12-3.24-.54-5.41-3.22-6.45-2,1.2,1.36,1.45.53,3.23-2.93-1-3.9-4-5.37-6.45a71.45,71.45,0,0,0-12.9-14c-3.37-2.88-6.83-5.59-10.21-8.6,4-.69,5.4,5.17,9.67,5.91C86.83,44,86.28,35.63,79.71,31.87c-1.39.13.74.93,0,2.15-2.37-3.36-6.51-5-10.75-6.45,2.5,3.06,8.06,7.71,10.21,12.9-1.27-.33-2.5-.72-2.68-2.15-1.74-.66-.42,1.74-2.15,1.08-1.17-2.06-3.92-2.53-5.38-4.3-.79.47-1.7.8-1.61,2.15-2.44-2.22-6.72-2.6-10.21-3.76.06-1.19,2.28-.23,3.22-.54-.48-2.56-3.73-2.36-5.37-3.76,2.42-.44,6.51,2.08,8.06,4.3,4.43-.8,7,.82,10.21,1.07-1.94-4.15-5.55-6.63-9.67-8.6,10,.2,20.86,4.22,23.11,14,.63-.09.45-1,.53-1.62,1.67,1.39,2.43,3.67,2.69,6.45-1.26-.17-.52-2.34-1.61-2.68.67,5.24,4,12.51,9.14,15,.51-.39-.35-3.92,0-5.92-3.79-2.17-7.54-7.09-7.53-11.28a10.63,10.63,0,0,1,1.62,3.76c.72-.17.44-1.35.53-2.15,1.61,2,1.87,5.29,3.23,7.52C97,44.92,94,40.75,93.69,35.64c1,2.41,2.52,4.27,2.68,7.52,2.23.12,1.58,3.44,3.77,2.15.33,3.85,6.72,8.56,1.61,11.29.18-1.56-.68-3.5-.54-5.92-1.29-.68-2.8-1.13-2.15-3.76-1.56,4.51-1.37,11.65,1.61,14.51,1.27,0,1.59-.92,3.23-.53,2.55-3.08,2.56-7.61,1.61-11.29-.37-1.45-2.07-3-2.69-4.84-.32-1,.26-2,0-2.69a20.6,20.6,0,0,0-5.91-8.59V30.8c-.79-.77-1.7-.41-1.61,1.07-1.44-.35-2-1.54-3.23-2.15-7.07-.25-11.72-3-19.34-3.76-11.29-1.11-23.09-8.08-34.94-4.3C34.36,22.75,30.21,25.56,26,27c-6.26,2.18-10.49,2.66-14.52,6.46C9.59,35.25,7.67,39,5.54,42.08c-2.25,3.3-4.49,6.63-4.83,9.68-.44,3.89,1,8.15,0,12.9,3.71-6.26,10.4-13.1,19.34-14.51,6.42-1,11.52,1.87,18.28,2.68,6.91.83,14.52-1,18.81,2.15,3.89,2.89,3.6,8,7,11.29,2.6,2.55,7.42,3.21,8.6,6.45,1.64-.39,2,.55,3.22.54a15.32,15.32,0,0,0,3.23,4.84c-1.52,1.3-3.45-1.55-3.77-3.23-3.43-.48-5-3-8.06-5.37-1.85-1.47-4.79-2.88-5.91-4.3-2.85-3.62-2.37-9.35-8.6-10.75-3.1-.7-8.09.49-12.9,0-9-.93-12.86-4.49-21-2.69-2.81,1-1.39,6.13-3.22,8.06-1-.6-2.65,0-4.3-1.07-1.13.89-2.61,3,.53,2.68-.16.73-1.34.45-2.14.54.21,1.94,2.66,1.64,3.76,2.69C10.18,66.28,8,62.06,5.54,60.9,7.47,60.72,9,60,8.77,58.21c2.39-.42,3.23.71,5.37.54,1.33-.72-.61-2.84,0-3.77C9.19,54.87,7.52,58,5,60.36c.77,1.73.51,4.51.53,7-1.19-1-1.95-2.35-1.61-4.84-.64,1.68-1.47,3.18-2.15,4.84.16,1.89,1.46-1.9,1.61,0,.43,1.84-.5,2.77-1.61,1.61-.64,2.63.55,2.53,1.61,2.69.47.06,2,1.55,4.3,1.07,3.8-.79,6.55-6.45,7.53-9.14.32-1.93-1.64-1.58-1.61-3.22,2.54-.41,2.65,2.75,2.68,3.76.17,5.48-9,12.92-15,9.14C-.06,67.88.31,64.18.17,59.82-.09,52-.5,48.93,2.86,43.16c2.85-4.89,5.21-8.92,9.67-12.36,4-3.06,9.25-3.92,14.51-5.91,7.34-2.78,12-6.55,23.11-5.38,5.79.61,12.35,3.86,18.81,4.84,3,.45,6,0,8.6.54,1.58.34,2.76,1.75,4.3,2.14,4.22,1.08,8.6.06,11.83,2.15,1-.68-1.75-2.15-2.15-3.22-.3-3.72-.88-7.3-2.69-9.14-2.34-2.37-6.46-6.13-9.14-6.45C70.18,9.23,63.63,25.05,56.6,17.9,55.34,8.27,65,3.12,74.88,1.24,80.36.2,85.85,3,90.46.17a43.72,43.72,0,0,1,18.28,2.15c3.57,1.2,6.56,4.47,10.21,5.91s7.45,1.12,10.21,4.3c2.59-2.35,5.9-5.36,10.21-6.45,4.75-1.21,11.55-.75,18.28-1.61,7.68-1,14-6.36,21-3.77,2,.76,4.36,2.59,7,3.76,5.52,2.47,10.57,4.32,12.37,10.22a2.45,2.45,0,0,0-.54,1.61c-5,3.37-13.65.29-17.74-2.15-2.84.38-2.94,3.5-3.76,5.91-4.5,1.27-4,7.75-4.84,14,11.89-4.47,25.94-.78,31.71,7,5.39-.37,10.56,5.41,17.74,6.45,5.2.75,8.33.36,12.9,2.15,8.84,3.47,18.44,10.55,8.6,17.74q-11.92-1-17.74-8.07c2-.76,3.53,1.14,3.22-2.14Zm16.13,6.44c-.07-1,1.52-2,1.07-4.83-1.25,0-3-2.29-4.29-.54.68.75,2.63.23,2.68,1.61-1.9,2.13-3.27-.85-5.37,1.08.16-1.06-.73-1.07-1.08-1.61.95-.31,3.16.65,3.23-.54-1.93-.26-3.11-.88-4.84,0-.62-2.06-2.47-2.9-4.84-3.23.32,3.39-1.39,5.16.54,7,.24-1-.73-3.24,1.07-2.69.6,2-1.42,3.36.54,3.76.06-.65.16-1.27,1.07-1.07,0,3.58,5.13,2,7,3.76-.14-1.75,2.09-1.14,2.15-2.69-1.34.07-1.69,1-2.15-.53C242.06,62.66,242.37,63.6,243.64,63.58ZM124.32,16.29c2.19,1.32,1.66-1,3.23-1.61C125.8,10,116.8,9.06,113,6.61c-5.37-3.49-18.92-8.47-25.79-3.22a25.92,25.92,0,0,0-9.68-1.08c-4.8.54-11.13,2.22-12.9,4.84,14.86-1,27.06,5.15,28.49,19.35,4.71,1.76,5.61,9.5,9.67,10.21-1.61-.54-.95,1.2-1.07,2.15,1.63,1.12,2.62.5,4.3,2.15a3.09,3.09,0,0,1-1.61,3.76c1.45.16,1,2.26,2.15,2.69,0-3.25,1.57-4.88,2.14-7.52-2.22-.65-4.66-1.07-5.37-3.23,2.55.13,3.3,2.07,5.91,2.15,2.5-.36,1.2-4.53,4.84-3.76.83-2.26-2.78-.09-2.69-1.61,1-.31,3.16.64,3.23-.54-1.23.15-2-.13-2.15-1.08.78,0,4.39.21,2.68-.53-6.59,0-12.46,1.41-15.58-2.69,3.23,1.42,7.37,1.94,12.36,1.61,1-.13-.31-.89.54-1.08,1.4-.44,2.94,1.63,3.76,0-.93-.86-3.32-.25-3.76-1.61,1.9-.47,2.76,1.38,3.22-.54-1.9-.78-5-.34-6.45-1.61,2.29-.32,3.56.39,5.38.54-.79-3.72-7,.56-8.07-2.15,1.46-.33,4.27.68,4.84-.54-2.61-1.51-7.81-.43-10.21-2.15,1.85-.84,4.49-.88,6.45-1.61-2.45-.42-5.19-.54-5.91-2.69,2.2-.05,4.4-.1,5.91.54-.84-2.68-4.81-1.18-7.53-1.61-.18,0-.18-.95-1.07-1.08-1.41-.2-4.47,1-4.84-1.07,1.73-.12,2.28,1,4.3.54.56-3.07-3.53-1.49-2.69-4.84-2.37-.14-4.15-.86-7-.54,2.72-2.23-1.94-2.42-2.15-4.84,7.84-.59,13.25,5.68,18.81,9.14.31-.94-.65-3.16.54-3.22,1.12,5,4.29,7.88,7.52,10.75-.28-3.95.65-6.12,0-9.14C112.24,9.38,109.2,9,108.2,6.61c-1.65-.39-2,.55-3.23.54.62-1.69-.84-1.31-1.07-2.15,5.83-.28,8.64,2.47,11.28,5.37-1.19,4.18.71,9.18,0,11.83-.4,1.52-1.77.27,0,1.07,1.4.63.82,5.77,4.3,4.84,3-2.52,4.44-6.67,4.84-11.82Zm-17.19,2.15c.32.15,2.06,1.33,2.15,0C108.76,17.54,107.49,16.76,107.13,18.44ZM89.39,5V6.08c2.65,0,4.91,3.31,7,2.15-1.07-2-5.15-1-5.38-3.77A2.56,2.56,0,0,0,89.39,5ZM170,29.19c.37-5.68,4.71-8.59,5.37-14C178.63,10.94,185,9.8,192,9.3c-4.77-2.06-11.19-7-16.66-7.52-6.15-.6-12.11,3.61-18.27,4.3-1.1.12-2.76-.55-3.76-.54-8.34.1-18.45,3.25-22.58,7-3,2.73-3.89,7.27-5.91,10.75-1,1.72-3.82,1.81-2.69,4.29-2.7,2.14-5.5,4.18-6.45,8.07-6,3-9.75,12.13-7.52,19.88-3.91,6.83-.59,15.64,6.45,15,2.35-.2,2.43-2.33,5.37-2.69,1.07-1.08-.29-4.58,2.69-3.76-.11,3.09-1.49,6.63-2.15,10.21-.63,3.4-2.1,8.13.54,10.22.15-5.21.61-11.2,2.15-15.59.68-1.94.33-5.26,3.76-4.3-.62,1.52-2.15,2.15-2.68,3.76,1.92-.31,2.6.63,3.76,1.08,1.56,7.26,13.11,8.75,18.27,3.76,1.09-1.6-.48-5.86,2.69-5.38-.6,2.34-1,5.94.53,7.53,4.66-3.76,9.53-7.32,13.44-11.83a67.59,67.59,0,0,0,12.9-7.52c5.18-.63,9.88-4.38,15.59-5.91,1.81-.49,4.14-.09,6.45-.54,2-.39,3.95-1.37,5.91-1.61,5.06-.61,10.36.63,12.9-1.08-4.62-1.47-9.15-3-13.44-4.83-1.9,1.23-4.47.19-7.52.53-4.45.5-9.59,2.35-14,2.69-1.38.95-2.18,2.48-4.3,2.69-5.16-1.94-8.45-.3-13.44,2.15-5.84,2.87-11.59,5.92-11.83,12.36-2.28,1.38-2,4.78-4.3,4.84,1.27-1.59,2.95-5.07,1.62-7.53,4.64-4,7.58-9.61,15-10.75,4.62-4.58,3.18-11.9,4.83-19.34-.16-.64-2.84-1.36-1.07-2.15C169.41,27.63,168.77,29.35,170,29.19ZM69.5,8.23c-.32-.31-2.55-1.26-2.68,0C67.14,8.53,69.36,9.48,69.5,8.23Zm-3.22,3.22c-1.8-.49-.47-1.2,0-2.15-2.16.11-2.41-.14-1.08-1.07-1.32-.46-3.65-.54-3.76,1.61.8.09,2-.19,2.15.54-1.11.32-3.53-.67-3.76.53.53,1.14,3.38-1.15,4.3.54-2,.35-4.11.55-5.38,1.61,2.66.13,6.2-1.83,5.91,2.15,4.58-1,5.43-5.68,11.29-5.37C73.74,6.58,67.4,8.8,66.28,11.45ZM105,14.14c-2.53-.88-3.58-3.22-6.44-3.77C99.7,12.26,103.1,14.74,105,14.14Zm79.55-1.61c-.71,0-.49-.95-1.08-1.08.24,1.48-2,.51-2.15,1.61,4.1,1.29,7.26,3.49,12.37,3.77C192.27,13.56,187.85,9.09,184.52,12.53Zm11.28,1.61c-.54-1.63-3.1-4-4.83-2.69C192.69,11.9,194.51,15,195.8,14.14ZM59.83,19a10.07,10.07,0,0,0,4.83-2.69c-2.21-1.35-1.78,1.33-3.76,1.61,0-.71-.94-.49-1.07-1.07-.17-1.25,1.55-.6,1.61-1.62-1.86-.43-2.27,1-3.23,0A7.75,7.75,0,0,0,59.83,19Zm48.37,1.61c1.37-.42,2.47,2.1,3.23.53-1-.22-.43-2.08-2.15-1.61C109.27,20.22,108.33,20,108.2,20.59Zm60.73,23.65c2.65-2.26,3.81-8.64,7.52-8.07-2.94,2.9-3.64,4.78-5.91,8.07,2.93-.12,4.06-2,7-2.15,1.55-3.12,3.38-8.8,8.06-7-2.91,1-5.25,2.63-5.91,5.91,5.23-.86,8.83-3.35,15-3.22-3.66-6.41-17.48-4.34-24.19-2.15-.17,2.88-1.45,7.48-1.61,8.6Zm26.34-5.92c-7.35,2.22-15.16,4.92-20.43,8.07,7.61-1.29,14.2-4.39,22-5.38,1.5-.19,2.9.56,4.3-.54-1.69-.55-4-2.72-5.91-2.15ZM170,46.39c2.59-.28,4.21-1.52,5.91-2.69C173.83,44.48,171.63,45.14,170,46.39Zm45.68,2.68C219.19,50.83,217.87,47.54,215.69,49.07Zm17.74,6.45c3-.53,6.15,1.71,8.06.54C239.67,55.57,233.61,54.12,233.43,55.52Zm-129,10.21c-.22-1.29,1-1.16.53-2.68-.41-.12-1,0-1.07-.54.3,0,.61-.43,0-.54C103,62.82,103.75,64.85,104.44,65.73Zm94.05,5.92c1.11-.33,3.74.86,3.23-1.08-1.72-1.19-4.1,1.28-5.91-.54-.14.76-1.18.61-1.62,1.08v4.3c1.26.18,2.32.55,2.69,1.61-.47.79-.8,1.71-2.15,1.61.07-1.34,1-1.68-.54-2.15.31,2.46-.95,3.35-.53,5.92a3.8,3.8,0,0,1,1.61,1.07c-2,1.21,2.45,4,2.69,6.45,3.57-.37,6.59-1.29,8.6-3.22.76-3.12-2.05-5.46-.54-7.53-.13,2.28,1.41,2.89,1.08,5.38,3.33.41,2.54-4.31,3.22-7,1-4.07,4-8.76,1.07-12.36-.49.94-1.88,1-2.68,1.61-.32,1,.64,3.16-.54,3.23-.88-1.12-2.62-2.52-3.76-.54.5.57,2,.16,1.61,1.61-1.44,0-1.17-1.7-2.69-1.61,1,3.78.6,9.13-1.61,11.28,1,3.19-2.88,9.62-3.77,5.92,0-.22,2.88-1.29,0-1.62,0-1.8,2.13-1.45,3.23-2.15-.09-1.52-1-2.24-1.07-3.76,1.6-.74,2.58-4.92,1.61-6.45.71,3.35-3.93.79-2.69,2.69,0-.3.43-.61.54,0-2,1.59-2.84-2.72-1.08-3.76ZM119,70c.69,0,.75.69,1.61.54-.08-.63.09-1.53-.54-1.61C120,69.67,119.08,69.45,119,70ZM99.6,72.18c-.84-.14-.37-1.17,0-1.61C96.93,69.88,98.63,74,99.6,72.18Zm24.19-.53c-.27,2.08,3.55,2.86,4.83,1.61-1-1-3.85-.09-4.3-1.61.78-.3,2.78.62,2.69-.54-1.3.22-1.17-1-2.69-.54C124.2,71,124.31,71.63,123.79,71.65Zm-6.45,0C120.88,73,119.78,69.85,117.34,71.65Zm-3.77,3.76c-.21-2,.43-3.15,2.15-3.23-.3,1.55,4.25,2.8,3.77,1.08A11.25,11.25,0,0,0,112,71.65C112.54,73.35,111.66,74.38,113.57,75.41Zm-12.36-2.15h1.08V72.18h-1.08Zm1.08,2.15h2.15C104.55,73.65,101.92,73.29,102.29,75.41ZM130.77,77c-3,1-7.36-1.68-7.52,0,.47,2,4.82.2,5.91,1.61-1.53,2.34-6.16-1.72-5.91.54.82,1.69,4.12.89,6.45,1.08.71-1.44,1.15-3.15,3.76-2.69-.51,1.79-1.57,8.24.54,9.14,1.21-2,0-6.42,1.61-8.07,3.34-.29,5,1.09,8.06,1.08,1.1-.29,3.86-3.6,1.08-4.3.22,2.63-1.63,1.28-3.77,2.15.85,0,1.87-.07,1.61,1.07-7.18-.69-12.26-3.5-18.8-4.83C123.41,77.57,129.79,74.6,130.77,77Zm-12.36,3.76c.1-2.88-.67-3.29.54-4.83-.15-1.11-1.44-1.08-2.15-1.62C117.73,75.68,115.35,80.4,118.41,80.78Zm28.49-1.61a4.93,4.93,0,0,0,2.15-2.69c-.93-.51-1.09-1.78-2.15-2.15C148.47,75.77,146.24,80.6,146.9,79.17ZM97.45,76.48c1-.12,2.69.54,2.15-1.07H97.45Zm16.12,5.38c.4-2.72-.71-4-1.61-5.38C110.93,78,113,80.17,113.57,81.86ZM100.68,78.1c-.72-.9-3.05-.18-3.77-1.08C96.74,78.49,100,79.22,100.68,78.1Zm4.83,1.07c.15-1.22-.13-2-1.07-2.15A2.35,2.35,0,0,0,105.51,79.17Zm-1.07,4.3c-.77-2.1-1.29-4.45-2.69-5.91.4,3.23-3.91.93-5.38,1.07-.52,2.14,3,.23,2.69,2.15-2,.42-2.57-.65-4.3-.53-.37,2.16,2.68.91,3.23,2.15-3.5,0-4.29-1.74-7,0,.46,5.8,4.24,9.95,10.75,8.06,1-2.34,3.38-4.12,1.07-7-1.69.09-3.24,0-3.76-1.07,2.84,1.21,2.35-.35,3.23-2.15C103.7,80.63,102.8,83.31,104.44,83.47Zm31.71,4.3c1.72.08,2.35,2.87,3.76,1.61.93-3.1-2.09-5.87-2.15-9.67h-1.61Zm3.76-7.52c-.09,2.41.43,4.22,1.61,5.37.94-1.53,5-5.2,3.76-5.37A10.53,10.53,0,0,1,139.91,80.25Zm-17.2,2.15c1.08-.9,4,0,4.84-1.08-1.12-.85-3.57-.37-4.84-1.07Zm4.84.53c-1,1.16-4.86-.56-4.84,1.62.85,2.37,6,.45,8.6,1.07C131,84,132,81,130.77,80.25A5.81,5.81,0,0,1,127.55,82.93Zm-13.44,0c1.07,0,.68,1.47,2.15,1.08.23-2.69.95.41,2.15,0,.47-1.73-.83-1.68-1.61-2.15C116.19,83.69,114.72,81.69,114.11,82.93Zm-8.06.54c-.12,1,.6,1.19.54,2.15,1.2-.23,1.71-1.15,2.69-1.61-.42-.12-.63-.45-.54-1.08C107.22,82.49,107.34,83.69,106.05,83.47ZM105,84.55C105.75,89.71,105,82.25,105,84.55Zm16.13,1.07c-7.08-1.93-14.76-.27-18.28,5.38,3.09.11,4.8-3.81,8.07-4.3s6.39,1,9.13,2.68c-3.1,1.23-4.6-2.6-9.13-1.61-1.1,2-1.85,1.28-3.23,3.23,6,1.63,9.74.48,14-1.62,1.56-.77,3.3-1.43,4.29-2.68-2-.38-2.3.91-4.29.53A2.56,2.56,0,0,0,121.1,85.62Zm9.14,10.75c-.15-7.05-5.1-9.48-8.07-5.91,1.31,2.46,3.41.39,4.84,1.07-.49.94-1,1.87-2.68,1.62.28,2.5,1.93,5.37-.54,7,.23-4.53-1.06-7.54-4.3-8.6-4.47,1.25-2.87,6.23-1.61,9.68-.85.05-.43,1.37-1.62,1.07a8.23,8.23,0,0,0-2.68-7c.66,3.45-.23,4.14-2.15,5.91-.09-1-1.83-.33-2.15-1.08-.24,3.35,0,7.2-2.15,8.6v-5.91c-1.7-.89.47,4.3-1.08,4.3-2.38,0,2-5.57-1.07-4.3-.27.11,0,4.44-.54,4.84-.35.27-2-2-2.69-.54-1.16,1.89-.41,5.68-2.15,7-.32-1.12.67-3.54-.54-3.77.14,1.76-.64,2.59-2.15,2.69.1-1.58,1.45-3.33.54-4.3-2,.28-1.62,2.9-1.07,4.3-1.79,1.26-2.13,4-3.23,5.91-.84-.77-.42-2.8-2.15-2.68-.75,1.54,1.46,2.72,0,3.22-.94-2.79-2.34,1.94-3.22.54,3-5.41,6.9-9.94,10.74-14.51-2.37-.39-4.17,2.6-5.37,1.61.71-1.82,3.47-3.78,5.91-2.15,1.82-2.84,5.07-4.25,6.45-7.52-4.27-1-6.81,2.49-9.14,1.61,2-2.32,6.72-3.44,10.75-2.15,1.57-.58,2-2.28,4.3-2.15-.11.67-.83,1.1.54,1.07,1.57-4.52-5.58-4.26-10.21-4.3C99.66,93,98.39,95,96.38,96.91s-4.95,3.18-6.45,4.84c-4.53,5-4.37,14.46-5.38,22,3.93,4,8.83.73,12.9-2.69,2.43-2,4-5.37,6.45-7.52a27.81,27.81,0,0,1,10.75-5.38c2.6-.6,4.73.07,6.45-.53s3.27-3.3,5.91-3.77c.42-5.16,11.72-6.67,11.29-11.82-.21-2.38-3-3.79-6.45-4.3-1.9.16,1.89,1.45,0,1.61-2.49.41-.75-2-1.62-2.15-.66,1.65-2.1-2.26-2.68.54C130.77,87.7,132.65,94.34,130.24,96.37Zm-24.73,4.84c2.28.67,1.44-1.79,2.69-2.15.69,1,4.1-2.15,1.61-2.69C108.05,97.66,105.62,98.27,105.51,101.21Zm25.26,1.07c2.22.94,4.62-2,5.37-4.3C134.18,99.24,131.25,99.53,130.77,102.28Zm16.13.54c-.17-1.24,1.55-.6,1.61-1.61-1.58.14-1.65-1.22-3.23-1.08C145.46,101.39,145.84,102.45,146.9,102.82Zm-43,2.69c0-.79.2-4.4-.54-2.69C103.37,103.61,103.16,107.22,103.9,105.51Zm-3.76,1.61c.15-.33,1.33-2.07,0-2.15C100.65,106,98.53,106.76,100.14,107.12Zm26.33,15.59v1.61c0,.56.69.42.54-.54.26-5.42,5.1-10.68,0-14-.13,1,.54,2.69-1.07,2.15-.34-2.8,1.24-4.37-.54-5.92C123.41,110.64,125.35,117.94,126.47,122.71Zm-3.22,15c1.86-.42,1.39-3,1.61-4.29,1-5.77-.16-10.25-1.07-15.59-.57-3.34-.73-7.34-2.69-9.14H120C122.37,119.19,122.52,126.72,123.25,137.75ZM117.87,113c.8,3.53,2.22,9.66,3.23,11.29-1.17-3.13-.53-8.68-1.61-11.83-.45-1.31-1-3.9-3.23-3.22C116,111.35,117.63,111.48,117.87,113Zm30.64,4.3a1.48,1.48,0,0,0-1.08-1.61A1.49,1.49,0,0,0,148.51,117.33Zm-54.28-4.84c-.7.72-.71,2,.53,2.15C94.67,113.84,95,112.66,94.23,112.49Z" transform="translate(0 0)"/><path class="cls-1" d="M165.17,20.05V19c-4.23.91-8.93,1.27-11.82,3.22-1.75,1.18-2.16,3.12-3.76,4.3,4.22.63,9.15-2.66,14-3.23,1,1.93-2.73,3.71-5.38,3.77.13-.95.93-1.23,2.15-1.08-5.13-.65-10.21,3.4-15.05,4.84q.25,3.48-3.22,3.22c.19.71.95.85,1.07,1.62,4.11-.55,12.24-5.49,13.44-2.15,1.42.17-.5-3,1.61-2.15-.09-.63-1-.46-1.61-.54.08-1.54,2.24-1,3.76-1.08-.31-1.77-2-.77-3.22-.53.26-2.43,4.06-1.33,5.91-2.15a2.35,2.35,0,0,1-2.15,1.07c-.08.88,3.31.88,3.23,0,.6,1.34-3.3,2.78-4.3,4.3,0,1.66,2.1-1.66,2.15,0-.27,1.52-1.53,2.05-2.69,2.69-.2.91.42,1,1.07,1.07a14.21,14.21,0,0,1-11.28,4.3c2.43-1.87,7.16-1.43,9.13-3.76-1.4-.66-4.08,2-7,1.61.89-1.25,2.92-1.38,4.3-2.15-.06-1-1.8.63-3.23,0,.31-1.3,2-1.19,3.23-1.61-.33-.48-.65-1,0-1.08-6.82.71-14.49,5.22-19.89,9.14,2.88-.34,4.12-2.33,7.52-2.15-1,1.84-4.22,1.52-5.91,2.69-.09,1.17,1.91.24,2.69.54-.79,2.61-4.71,2.09-5.38,4.83,4.9-3.12,12.57-3.28,19.89-5.91a21.12,21.12,0,0,0,7.53-4.3c1-1,2.74-4.63,5.37-3.22-4.43,2-6.37,6.53-11.29,8.06.49,1.12,3,.19,3.23,1.61-1.81,4.47-7.82,4.72-12.9,5.91,1-1.1,2.69-1.6,4.84-1.61-.92-1.69-3.78.6-4.31-.54.94-3.36,5.83-2.77,8.61-4.3-9.16.52-19.48,4.53-26.34,9.14,1.46,2.71,3.3-1.57,6.45-.54-2.54,1.59-6.55,1.7-7.53,4.84-.57,2,2,.85,1.62,2.69-3.25-.44-1.51,3.29-4.84,3.76,1-8.84,5.34-14.37,8.06-21.5,1.79-.54,1.68-3,4.3-2.69,0-1.07-1.47-.68-1.07-2.15,1.12-.23,1.42.37,2.15.54.66-1.74-1.74-.41-1.08-2.15,2.17-.88,2.44-3.65,5.38-3.76.05-4.25,4-4.61,4.83-8.06,6-3.1,12.08-6.2,19.89-7.53-.62,2.61-2.06,4.39-5.37,4.3.49-.93,1.68-1.18,3.22-1.07ZM155,45.85a1.49,1.49,0,0,0,1.61-1.08A1.48,1.48,0,0,0,155,45.85Zm-21,0c-.48-1.73,1.77-.74,1.61-2.15C134,43,132.56,45.22,134,45.85Zm18.81,0c-.05,0,0,.48,0,.54C149.86,48.48,156.61,44.58,152.81,45.85Z" transform="translate(0 0)"/><path class="cls-1" d="M171.08,20.59c-1,1.55-.87,1.68-.53,3.76-1.53-.44-1.4.76-2.69.54.8-.81,1-2.26,2.15-2.69.23-.87-2-1.81-2.15-.54C166.29,20.74,169.7,20.33,171.08,20.59Z" transform="translate(0 0)"/><path class="cls-1" d="M166.24,22.2Z" transform="translate(0 0)"/><path class="cls-1" d="M98,65.2c-1.65-.39-1.58.92-3.23.53.17-1.26,1.67-1.2,2.15-2.15-6.15.13-9.24,8-15,10.22-3.86-3-8.44-2.56-11.28-5.92,0,0,.68-1.13.54-1.61-.37-1.22-3.29-1-2.69-2.69a26.43,26.43,0,0,0,18.81-6.45c2.57-.2,2.23,2.82,4.3.54-2.4-1.5-5.53-.17-7.53-2.15.46-1.16,2.77-.45,3.23-1.61C85.6,52.13,84.76,55.7,82.4,55c.06-1,1.78-.37,1.61-1.61-.48-1.3-1.58,1.22-3.22.54.47-1.5,2.16-1.78,3.76-2.15-7-.14-12.21,6.06-21,5.91-.09-1.17,1.91-.24,2.69-.54-3.73-1.29-6.67-3.36-10.75-4.3.23-1.12-.37-1.42-.54-2.15-3.87-.18-9.61.27-11.82,0-3.17-2.74-10.25-1.57-14-3.76-2.71.46-3,.15-5.91,0-.09-3.15,3.8-1.53,5.91-1.07,2.39-.48,3.54-2.2,5.91-2.69-.07,2.08-2.18,2.12-2.68,3.76a39.93,39.93,0,0,0,4.83-2.15c2,6,8.36,2,12.37,2.15-.06,1.34-1,1.67,0,2.69,9.1,1.15,14.64-4.27,23.64-4.84-1.61-2.76-4.35.92-7.52,0,.92-1.05,2.78-1.16,4.84-1.07-2.1-2.86-5.79.66-8.6.53.8-1.52,2.78-1.87,4.83-2.15-2.48-1.38-5.73,1.07-7.52,2.15-1.65-.52.62-1.43.54-2.15-1-.43-1.82,1.19-2.69,1.08-.67-.09-.43-1.23-1.61-1.08-4.86.66-8.8,4.78-14,5.92,4.05-4,10.4-5.73,16.13-8.06,1.69-.27,1.89,1,3.76.53-4.21-3.35-7.88.77-12.36,1.62.19-.71.94-.85,1.07-1.62a9.29,9.29,0,0,1-3.76.54s.7-.94.54-1.07C46,39.2,42.5,42,43.17,38.32c-4.06.07-8.88-.63-9.68,2.69-.73.47-4.06.08-5.37-.54-3.19.82-4.58,5.46-8.07,4.3.34-1.63,2.9-1.05,3.23-2.68-4,1.51-8.61,2.49-10.21,6.44-1.91-1-2.35.77-3.76,1.62-.46-1.35,1.29-3,2.15-3.76,4-3.42,11.41-5.29,16.66-7.53.78-.33,1.68-.13,1.61-1.61,7.59-.47,13.71-2.41,22-2.15C50,33.81,47,32.2,44.24,33.49c-2.59-3.86-10.73-2.17-16.12-3.23,2.59-2.09,6.14-.93,9.67-.54,3.85.43,7,1.65,10.21,2.69,2.91.94,5.54,2.8,8.6,3.76,2.48.78,5.48.27,8.06,1.08.71.22,2.25.52,4.3,1.07A51.14,51.14,0,0,1,74.88,41c1,.5,2.93,1.5,3.22,2.69C68,39.42,55.79,34.52,41,36.71,57,37.18,68.4,40,78.1,45.85c-.81.8-2.36.86-3.76,1.07,1.31,1.45,4.29,0,5.91,0C86.78,52.39,94.9,56.28,98,65.2Zm-9.14-4.3c-.57-.5-.17-2-1.61-1.62-3.61,3.2-10,3.57-14,6.45,2.33,0,3.56-1.12,4.3,1.08-1.86.11-2.86,1.08-4.3,1.61,1.39,1.28,4.83-2.11,6.45-.54C80,70,76.59,68.35,76.49,70c2.39.43,3.22-.71,5.37-.53,0,1.07-1.46.68-1.07,2.15,6.83-1.41,9.61-6.87,14.51-10.21-1.57.15-1.85-.13-1.08-1.08-1.8-.68-2.84,2.1-3.76.54.48-1.32,3-.58,2.69-2.69C90.73,58.12,90.76,60.47,88.85,60.9Zm-44.61-22c1-.24,3.24.73,2.69-1.07A2.63,2.63,0,0,0,44.24,38.86ZM48,39.4c1-.3,2.24-.28,2.69-1.08C49.62,37.2,48.4,38.31,48,39.4Zm2.69.54c1.67-.31,4.09.14,4.3-1.62C52.87,38.18,51.25,38.53,50.69,39.94Zm-17.2.53a1.48,1.48,0,0,0-1.07-1.61C31.65,39.65,31.63,40.94,33.49,40.47Zm-4.3,0H30.8c.07-1-.53-1.25-1.61-1.07ZM64.66,55.52c8.1.4,11.6-3.81,18.28-4.84-.49-1.48-2-1.89-3.76-2.14C78,49,76,51.4,74.88,50.15c.06-1,1.77-.38,1.61-1.61-2.56.44-3.88,1.73-5.38-.54,1-1.36,3.53-1.13,4.3-2.69-6,2.37-13.34,2.14-18.27,6.45,1.31,1.36,1.14-1.13,3.22-.54.5,1.69,1.7,2.29,3.23,1.62C62.21,54.17,64,54.75,64.66,55.52Z" transform="translate(0 0)"/><path class="cls-1" d="M122.71,33c2.47,1.75,2.41,7.34,5.38,7,.13,2.62-.12,4.42.53,5.37C126.57,43.41,122.91,38.49,122.71,33Z" transform="translate(0 0)"/><path class="cls-1" d="M128.62,38.32C127,35.5,131.08,42.56,128.62,38.32Z" transform="translate(0 0)"/><path class="cls-1" d="M125.4,44.77c-2.23,2.5-2.82-2,0-2.15-.86,2.35,1.86,2,.54,3.23C125.42,45.83,125.52,45.19,125.4,44.77Z" transform="translate(0 0)"/><path class="cls-1" d="M182.91,47.46c-.76,2.47-3.34,3.12-4.3,5.37C177.71,50.85,180.6,48,182.91,47.46Z" transform="translate(0 0)"/><path class="cls-1" d="M159.8,48c-1.61,1.91-9,3.56-11.29,3.76-1.26.11-1.66.79-.54-.54C153.08,51.32,155.48,48.7,159.8,48Z" transform="translate(0 0)"/><path class="cls-1" d="M174.84,51.22c-.88,1.58-3.76,1.86-4.83.54a4.94,4.94,0,0,0-1.61,3.76c-.63-.08-.46-1-.54-1.61-6.46.62-.68,7.44-5.38,9.14,2.12-4.4-.4-10.1,4.3-11.83.41,1.66-1.47,1-1.07,2.69.72-.68,1.06-1.62,2.15-.54.8-.23-.21-.69,0-1.61C170.89,51.12,171.63,51.51,174.84,51.22Z" transform="translate(0 0)"/><path class="cls-1" d="M139.91,98.52c-.15,1.1-1.44,1.07-2.15,1.61-.25,1.69,1.45,1.42,1.61,2.69s-1,1.17-.54,2.69C136.41,104.69,136.41,98.09,139.91,98.52Z" transform="translate(0 0)"/><path class="cls-1" d="M142.06,114.64c-.9,1.61-2.46,2.56-3.76,3.77C137.51,117.24,140,114.75,142.06,114.64Z" transform="translate(0 0)"/><path class="cls-1" d="M98.53,149c-3-.16-4.12,1.61-6.45,2.15,0,2.27,3.74.91,3.22,3.76a11.74,11.74,0,0,0-5.37-2.15c-.49.73,1.42,2.16-2.15,1.62.08.62,1,.45,1.61.53-.15,2.8-3.59-.5-4.3,1.08,0,1.83,2,1.59,3.76,1.61.49,1.47-4.11-.27-5.91,0,2.41,3.05,9.56,2.7,13.44,2.69-1.52,2-6.24.63-9.68,0-2-.36-4-1.57-5.91-1.08,0,1.63,1.88,1.34,3.22,1.62-1.22,1.53-3.15-.76-5.37,0,.49,1.3,2.16,1.42,3.76,1.61-1.27,1.8-4-1.21-5.37.54,1.27.87,3.25,1,4.83,1.61-1.88,1.55-5-1.45-7,0-.52,2,2.32.54,2.68,1.61-.51,1.33-2.06-.74-3.76,0-.08,1.51,1.32,1.55,2.69,1.61-.88,1.75-2.92-1-3.76.54,1.39,2,5,1.84,7.52,2.69-2.27,1.58-6.4-2-8.6-.54.5,2,3.8,1.22,5.38,2.15-1.35,1.83-4.93-1.47-6.45.54,1,2.2,4.61,1.83,7.52,2.15-1.11,1.87-6.16-.3-8.6-.54-.91,4.32,6,.85,6.45,3.76-1.21-.13-5.57-1.39-7.52-.53,1,2.79,6.14,1.38,8.6,2.68-2.66,1.57-6.06-.74-9.14-.53.61,2.42,3.57,1.2,5.38,1.61,1.58.36,3.29,1.42,4.83,1.61,2.31.29,4.8-.19,7,0s4.22,1.35,6.45,1.61c9.43,1.13,19.47.31,27.95,1.61-17.11.8-37.34-2.79-52.67-3.76,6.73,3.3,17.17,2.89,25.79,4.3-7,1.84-14.81-.87-20.42-2.15-1.76-.4-4.33.89-5.37-1.07-1.51,3.13,5.82,3.92,8.59,4.3,14.31,1.95,27.86.83,44.61,1.61,5.54.26,12.68-.63,17.74,0,3.41.42-4,.81-6.45.53-12.54.9-26.91-1.62-39.77-1.07-1.34.06-2.46.92-3.77,1.07-8.31,1-15.11-3.63-22-2.68.21,2.14,2.87,1.21,4.3,1.61,7.95,2.22,23,2.65,33.86,3.76,1.73-.22,7.07.11,4.83.54a41.81,41.81,0,0,1-7.52,0c-11.36-.52-28.17-1.93-36-3.23,1.91,2.57,7.54,1.42,10.75,2.69-3.27,2-8.4-1.61-11.29,0,1,3.48,9.17-.21,10.22,3.22,13,.08,23.51,2.65,36,3.23-11.29-.77-23.23.93-35.48,0,2.7-2.08,9.52.33,14.51-.54-4-2.14-9.55-.79-14.51-1.61-1.9-.31-8.79-3.59-11.28-1.07a29.85,29.85,0,0,0,9.67,1.07c-1.45,3.49-8.33-1.76-9.67,1.61.94,3.18,9.51-1.27,9.67,2.69-3.82.42-6-.81-9.67-.54.58,3.36,7.32.56,9.67,2.15-1.15,2.28-7.15.18-9.67,1.08,1.9,1.42,5.14,1.55,7.52,1.61,6,.14,12.47-.37,18.81.54-1.77,2.43-7.85.67-10.75.53a136.8,136.8,0,0,0-15,0c2.29,1.12,6.6.21,9.14,1.08-1.81,2.67-7.59-.28-9.67,1.07,9,2.23,20.72,1,29,2.15-7.46,2.11-19-.64-28.49,0,1,2.56,7.49-.32,8.6,2.15-2,1.44-5.75,0-8.06,0,.94,2.83,4.52,1.26,7,1.61,6.71,1,15,1.4,19.88,1.61-.51,2.49-3.76.58-5.91.54-7.46-.12-13.91-.64-19.88-1.07,1.54,1.32,5.15.58,7,1.61-1.27,1.24-4.82.19-7,.54,2,1.18,5.91.53,8.06,1.61-1.45,1.24-5.19.19-7.53.54,5.54,2.48,14.19-.34,22,.53,1.24.14,3.81.06,4.3,1.61-9.7-.06-16.84.23-25.8,0,8.55,2.13,21.39-.64,30.64,1.08-8.9,2.41-19.4-.07-29.57,1.07,9.61,1.54,20.31.08,30.64,1.62-1.41,2.52-4.53.59-6.45.53-7.21-.21-15.27.07-23.11,0,8.12,1.85,16.75,0,25.8,1.08-1.32,2-4.37,1.06-6.45,1.07a153.55,153.55,0,0,1-18.27-.54c1.13,2.41,8.57.3,9.13,1.62-1,2.56-5-.5-8.06.53,7.12,2.94,17.62-.17,26.34,1.61.15.87-.51.93-.54,1.62,2.7.14,6.75-1.63,7,.53-1.58.1-4,.53-7,.54,2.14,2,5.19.22,7,1.07-1.47.61-4.68,1.38-5.92.54,0,1.07,1.47.69,1.08,2.15-1.79-.08-3.59.11-5.38,0-2.21-.13-5.52-.08-6.45-1.61h9.68c-2.92-1.92-10.86,1.19-12.9-1.61H91c-1.06-1.28-3.57-1.1-5.91-1.08-.43-2,2.54-.68,3.76-1.07-2.89-1.62-6.81.35-10.21,0,.4,1.74,5.25-.95,4.83,1.61h-8.6c2.16,1.61,7.72-.19,9.14,2.15H76.49c1.48,2.82,9.35-.75,10.75,2.15H79.17c7.1,2.31,13.21-.63,21.5,0-.1,1.77,1.15,1.09,1.62,3.22-2.9,0-1.54,0-1.08,1.62-3.8-1.2-10,0-14.51-.54-1.11-.14-3.69-.14-3.76-1.61,4.67,0,9.61.29,12.9-1.08-3.32-.34-10.44,1.46-15,0,.59,4.15,5.84,2.95,10.75,3.23,5.85.33,11.66,1.55,17.19,1.07-2.16,2.45-6.36.7-9.67.54-4.9-.23-10.41-.5-14.51,0,4.3,2.1,15.38-.21,21,2.15-5.39,1.26-12.5-.4-18.27-.54,4,2.1,10.73,1.45,16.66,1.62-2.68,2.83,4.33,2,7.52,2.14-.87-1.63-6,.94-5.37-2.14,6.41.93,13.48,1.2,20.42,1.61-1.13,2-4.17,1.13-6.45,1.07-2.46-.06-5.57-1.07-8.06-.54,12.16,2,25.07.25,38.7,1.08.09-1.53-3.52.65-2.69-1.61,2.54.21,3.69-1,6.45-.54,1.25-3-2.38-1.2-2.15-3.23,4.42,1,5.46-1.34,8.06-2.14-.87-1.42-3.71,1.28-3.76-1.62h5.91c-.71-1.8-6,1-5.91-1.61,2.62-.25,6.3.56,8.06-.54-2.17-.55-7.5.37-11.29,0,0,1.64,1.94,1.29,1.62,3.22a44.18,44.18,0,0,1-8.07.54c-2.44,0-6,.89-7-1.07h7.52c-1.47-2.82-9.55.95-10.21-2.69a39.58,39.58,0,0,0,8.6.54c-.13-1.66-4.43.84-3.77-1.61,8.67.06,17.31.1,24.73-1.08-8.69.22-19.38.46-30.1,0-1.3-.05-3.81.95-4.3-1.07,12.7.41,24.59.79,36-1.08-6.08-.7-14,1.36-22,.54,2.79-3.06,10.45-1.3,16.12-1.61,2.4-.13,4.42-1,6.45-.54-3.43-1.09-8.6.16-14,0-1.64-.05-4.79.94-5.37-1.07,6.45-.9,14.75.06,21-1.07-4.45-.15-13.14.1-19.35,0-.07-2.23,3.74-.56,5.37-1.08-1.13-1.37-4-1.05-6.44-1.07.46-2.77,7.15.7,7-2.69,6.74.65,11.21-1,17.2-1.07-.6-1.38-4.16.21-4.84-1.08,1.52-.81,3.71-.95,5.92-1.07-1.57-.83-7.19-1.12-6.45,2.15-2.57-.27-5.48.67-8.07.53-1.85-.09-4.63-.05-5.37-1.61h12.36c-1.95-1-5.32-.48-8.6-.53-2.64-.05-6.52.91-7.52-1.08,2.82-.27,8.28.62,7-2.15,6.16.25,11.57-.25,17.2-.53-2.87-1.13-7.67.15-12.37,0-1.68-.06-4.52.9-4.83-1.08h8.6c-1.63-1.24-5.55-.19-8.06-.53.85-1.54,4-1.45,5.91-1.62,4.88-.4,10.47.58,13.43-1.61-1.38-1-4.43.92-7,.54,1-2,4.66-1.44,7-2.15-2.53-.4-7.69.69-12.89.53-1.7-.05-4.9.92-5.38-1.07,6.7-.11,13.31-.31,18.81-1.61-5.51-1-12.27,1.34-19.35.53,2.57-3.23,14.69-.65,19.89-2.68-2.65-1-6.62.47-10.21.53-3.05.06-7,.08-8.07-1.61a176.61,176.61,0,0,0,18.81-.54c-6.28-1.08-14.38.67-22,0-.43-2,2.54-.68,3.76-1.07.16-1.41-2.09-.42-1.61-2.15,6.69-.11,12.74-.87,19.88-.54-4-1.45-9.48-.41-15.58-.53-2.26-.05-5.38.94-6.45-1.07h9.14c-.91-1.79-5.51.12-5.92-2.15h19.35c-1.9-2.47-5.83-.69-9.13-.54a33.46,33.46,0,0,1-9.68-.54c1.19-1.55,4.21-.42,6.45-.54,3.22-.17,8.42.27,12.36-.53-2.8-1.62-13,.05-19.35-.54.12-1.67,2.68-.9,4.3-1.07-.06-1.19-2.28-.23-3.22-.54,3.92-3.49,13-.59,18.27-1.61-1.46-2.54-4.49-.59-7-.54-4,.08-8.53-.42-12.36-.54,6.19-3,13.76.54,19.34-1.61-5.74-1.62-12.16.73-18.8,0,3.73-3.44,13.55.94,18.27-2.15-2.4-2.06-15.08.88-19.35-.53,1.2.39,1.42-1.11,4.83-.54,4-1.53,11.22.33,14.51-.54-4.58-3.14-13.52-.05-21-1.07,4.8-2.37,13.87-.46,20.43-1.07-1-1.63-4-1.56-5.92-1.62-3.4-.1-7.4,1.16-11.28.54-1.12-.32-3.53.66-3.77-.54h3.77c4.59-1.14,11.2-.26,16.66-.54-.88-1.49-3.51-1.54-5.38-1.61-4.2-.15-9.69,1.23-14.51.54,1.26-2.26,4.69-.88,7.53-1.07,4-.28,7.09-1.51,11.82,0,.51-1.95-2.12-.75-3.22-1.08.48-1.13,3-.19,3.22-1.61-1.28-2.29-4.43.25-7.52-.54.33,1.28,3.31-.08,3.76,1.08-4.76,1.32-12.31-.13-17.2,1.07.51-1.46,2.72-1.23,4.3-1.61-1.7-1.32-5.6-.25-7.52,0,.75-3.63,5.61.18,8.06-1.61-.19-2.14-4.9.24-4.83-2.15,3.9.87,6.4-.08,10.74,0,.87,2.11-2.32.18-2.15,1.61a19.56,19.56,0,0,0,11.29,0c-.4-1.92-5.29.24-8.06-.54.25-2.06,6,1,7-1.61-6.08-.52-15.4.35-23.1,0,5.49-2.39,15.32-.44,22.57-1.07-.85-2.57-4.06-.51-5.92-.54-5.29-.09-13.06-.22-18.81,0,6.26-2.92,16.19-.25,23.65-1.61-1.62-1.24-5.54-.19-8.06-.54.61-1.71,5.42.37,7-1.61-6.8-1.15-13.54,1.79-21,.53,5.79-1.19,13-.93,19.35-1.61-.3-2.69-3.58-.63-5.92-.54-3.7.16-8.76-.11-12.36,0-.78-.29-2.78.63-2.69-.53h8.6c3.37-.75,7.78-.47,11.29-1.08-.53-3-4.4-.71-7-.54-3.17.22-6.73-.16-9.67,0h-4.84c5.33-1.84,14-.32,19.89-1.61-2.56-2.92-10.57.75-16.66-.54h-2.69c-1.33.07-.91-.65,0-.53H155c3.51-1.15,9.55.23,12.36-1.62-20.81,1.14-44.43-.49-65.57-2.15-1.09.32-4.23-.36-1.61-.53,12.48-.2,24,2.45,35.47,1.61,1.53-.38-1.83-3.09-.54-3.23,2.37-.75,1.46,1.77,1.62,3.23a269,269,0,0,0,29.56,0c-1.29-3.41-5.57.72-9.68-.54.76-2.11,5.1-.63,7.53-1.07-1.23-2.9-5.39-2.86-9.68-2.69-1.3-1,3.54-.36,4.84-.54.08-2.84-2.42-.32-4.84-1.07-1.64-.83,2.33-.48,3.23-.54-1.81-3-6.92.66-11.83-.54,1.38,1.49,6.11-.37,7.53,1.08-5.34,1.41-9.27,0-14,.53-1.25.16-1,1.24-2.15,1.62-.38.12-.51-1.08-1.07-1.08s-.42,1-1.07,1.08a32.5,32.5,0,0,1-4.84,0c-.76,0-3.55.91-3.76-1.08h7c-3.58-.9-8.3-.65-12.36-1.07,3.74-2.55,7.41.25,12.9-.54-.57-2.52-3.91-.79-4.3-1.08-1.92-4,5.64-2.86,7-5.37,3.59.65,7.63-1.28,9.14.54-1-3.12-7.72,0-11.82-1.07,1.17-1.7,4.78-1,4.3-4.3,11.87,3.35,20.57,9.87,29.56,16.12.77,2.64,2.82,4,4.84,5.37,6.5,10.78,10.65,19.84,9.67,37.09a65,65,0,0,1-8.6,28.48,54.63,54.63,0,0,1-5.37,8.07,69.34,69.34,0,0,1-15.59,13.43c-7,4.57-17.86,6.82-27.41,9.68a3.52,3.52,0,0,1-.54,2.69c3,1,4.68,3.2,6.45,5.37-1.31,4-.09,5.49,0,8.06-2.39-.12-1.44-3.58-3.22-4.3-.29-1.91,1.9-1.32,1.61-3.22-.43-2.79-3.3-3.15-5.37-4.3.86,3.92,2.93,6.56,1.61,11.28-1.75.14-1.14-2.08-2.69-2.15-.14-1.75,1.68-1.55,2.15-2.69-.35-3.31-3.3-3.45-5.37-3.76a22.17,22.17,0,0,1,1.61-6.45c-.75-1.22-3.74-.2-5.37-.53.74,1.22,4,0,3.22,2.68-.25.72-.26,1.43-2.69,1.07-1.19,2.44.29,1.82,1.08,3.77.34.85-.82,1.21-.54,2.15.07.22,1.61.92,1.61,1.07,0,1.32-1.16.18-1.61,1.07-.73,1.47.42,2.51-.54,3.77-.25,2.21,1.45-.52,1.62,1.61-3.07,2.94-2.11,7.89-3.23,11.82.24,2.27,2.44,2.58,3.76,3.77.62-2.61-1.42-3.87-1.61-5.91-.54-5.86,4.15-11,2.69-18.82,4,3.64.11,11.9-1.08,15.59,1.54,4.11,6.81,3.73,9.14,7,1.69,2.35.52,5,3.22,7-.08,1.18-1.35,1.16-2.68,1.08-1.08,6.81,3,8.45,4.83,12.36,4.58-.46,6.78,1.46,8.06,4.3-3.61-.69-4.44-4.15-9.13-3.76-1.24-1.08-1.4-3.65-3.23-5.37-1.28-.22.3,2.44-1.61,1.61-2.11-4.29.2-10.55-2.15-14.51-1.24-2.1-3.2-2-5.37-3.77a11.14,11.14,0,0,0,3.76,8.6c-.58,5.79,4.41,8.14,2.15,15.05-.53,1.64-2.22,2.26-2.69,3.77-1.47,4.73,1.38,9.11,1.08,13.43-.27,3.69-5.22,8.37,1.61,9.14-.37,1.68-1.44.7-2.69.54.15,2.53,4.5.88,3.76,4.3-3.61-.69-5.54-3.06-5.91-7-.47-1.59-.8,1.25-2.15.54a12.64,12.64,0,0,1,1.07-3.23c-3.85-.44-2.06,4.75-5.91,4.3.84-3.71,7-4.72,4.84-9.67-2.63,2.1-4.67,7.41-8.6,6.45,3.22-3.65,8.59-6,7.52-12.36-.45-1.58-1.73.32-2.68,0-.15-2,2.35-1.23,3.22-2.15.8-1.64-.18-2.1.54-3.23,1.28.57,4.71-4.55,4.84-7,.22-4.57-5.19-7.54-7.53-12.9-1.66-3.82-.71-7.14-3.76-8.6,1.19-6.77,4.12-14.41,3.22-21.5-1.85,1.31,1.06,4.2-.53,5.37-2.48,0,.28-5.3-3.23-4.3.44-.39,1.44-3.72-.54-3.22.57-1.89,2-3.49,1.08-5.38-11.51-5.41-22.79-8.81-31.17-17.2-4.71-4.71-7.85-10.58-12.9-15-.28-2.59-.93-4.8-2.69-5.91C63.51,216.5,63.23,206.74,62,198c2.8-10.07,4-19.34,8.06-27.41,7.65-15,23.85-24.23,44.07-27.41.73-2.54-1.12-5.29-.54-5.91,2.33-.18,3.32,6.12,1.08,7,3.36,1.67,7.58,0,10.75,1.07-7,1.26-13.7-.43-20.42,1.08,4.24,3.83,13.43-.23,17.19,3.22-7.24,1.69-17.87-.75-23.11-1.07,1.4,2,6.11,1.13,7,2.15-2,1.07-6.2-.25-7.52-1.63Zm37.08,1.61c1.68.18,2.07,1,2.69,1.08-.63,0-1.63-1.58-.54-1.62.21,0,2.83,3.89,2.15,1.08-.42-.12-1.06,0-1.07-.54s.43-.64.53-1.07C137,150.05,136.4,149.11,135.61,150.65Zm5.91-4.83C138.08,145.2,140.34,147.46,141.52,145.82ZM105,147.43c-1.29.22-1.16-1-2.68-.54C102.08,148.56,104.88,149.08,105,147.43Zm44.08,2.15C146.87,147.69,147.78,151.31,149.05,149.58Zm.54,2.15c.77-.29,2.77.62,2.68-.54C151.59,150.46,149.64,150.36,149.59,151.73Zm1.07,1.61h3.76C154.55,151.08,151.1,152.78,150.66,153.34Zm-12.36,1.08c-.13-2.47-1.5,1.37-2.15-1.08-.13.77-.89.91-1.07,1.61,2.16-.34,5.71.7,7-.53-3.69-.59,2.44-1.25.54-1.62h-3.76C138.75,153.44,138.93,154.33,138.3,154.42ZM148,152.8c-.78.3-2.78-.62-2.69.54C146.06,153.05,148.06,154,148,152.8Zm22,26.88C163.45,179.05,165.37,181.27,170,179.68Zm10.75,17.2c-2.36-.92-7.58.46-9.14.53C173.69,197.88,179.58,198.94,180.76,196.88Zm-10.75.53C166,196.77,168.27,199.06,170,197.41Zm10.21,5.38c-2.88.35-7.16-.71-9.14.53C174,203,178.24,204,180.22,202.79Zm-10.21.53C166.56,202.71,168.83,205,170,203.32Zm9.67,3.77c-3.87.21-6.94-1.31-9.67.53C172.77,207.33,179.57,208.25,179.68,207.09ZM170,220c2.6-.27,6.49.75,7.52-1.08C175,218.85,170,219.26,170,220Zm-5.38,3.22c-3.36.44-2.87.32,0,.54,3.75.28,9.59-.26,10.75-1.08-4.56.51-8.89.3-10.75.54Zm-2.15,7c2.45-.61,8.05-.29,10.75-2.15C170.16,229.27,164.5,227.91,162.48,230.2Zm3.76.53c-2.79.61,6,1.28,5.92-.53C169.94,230.13,168.79,231.13,166.24,230.73Zm-90.83,2.16c-.68,0-.74-.7-1.61-.54C75.32,234.64,80.56,233.09,75.41,232.89Zm16.66,16.66c-3.68-.23,8.73,3.47,9.14,1.07C98.61,250.29,92.5,249.57,92.07,249.55Zm4.84,4.3c4-4.21,10.87,3.8,12.9-1.62-4.21.94-10.49-1-15,.54C95.71,252.9,97.45,252.23,96.91,253.85Zm19.89-1.08c-1.11.32-3.53-.66-3.76.54C114.15,253,116.57,254,116.8,252.77Zm1.07,1.08c5.41.27,10.55-.06,15.59,0,2.2,0,5.43-1,7,1.07-3.85-.44-6.55.25-8.06,2.15,2.92,1.18,4.57-.35,6.45-1.61,4.32.55,5.83-1.69,9.14-2.15-9.49.33-23.57-.67-30.1.54Zm-17.2,1.61c.35.16,3,1.92,3.77,0C101.91,255.44,98.61,254.48,100.67,255.46Zm19.89,2.15c.07-1.54,3.69.46,3.76-1.08-2.48,0-5.25.24-7-.53C116.84,258.1,120.17,256.39,120.56,257.61Zm-11.28-.54c-1.12.32-3.54-.66-3.77.54C106.62,257.29,109,258.27,109.28,257.07Zm1.61,2.15c4,1.95,11.7,2.18,15,0,.78-.29,2.77.63,2.68-.54H125.4c-1.56,1.86-8.55,1.11-10.21,1.08-1.11-2.23,4.68-.27,2.69-1.62a16.49,16.49,0,0,0-7,1.08Zm11.82,7.52c.4-.72,1.2-3.75.54-3.76C123,263.83,121.18,265.86,122.71,266.74Zm-8.06.54c.14-.73-.33-2.1-.54-1.07C114,266.94,114.45,268.3,114.65,267.28Zm11.29,25.8c-.73-2.5-4.15-2.3-5.92-3.76C120.88,291.68,124,291.81,125.94,293.08Zm2.15,3.76a5.34,5.34,0,0,0-1.62-3.22A5.34,5.34,0,0,0,128.09,296.84Zm-2.69,15.05c.54-6-4.49-7.11-3.76-11.82-.06.84.07,1.86-1.08,1.61-.18-3.23-1.44-5.37-3.76-6.45,1.76,6.67,6.54,10.3,8.6,16.66Zm-4.3,20.43c-.07.7-.08,3.88.54,2.14-.22-5.12-1.31-9.87-1.08-14-1.86,3.17-1.19,9.13.54,11.83Z" transform="translate(0 0)"/><path class="cls-1" d="M132.38,164.63c0,.52-.65.41-1.07.53a2.35,2.35,0,0,1-2.15-1.07c-5.68.31-10.37-.38-15.58-.54C117.06,162.21,127.67,163.15,132.38,164.63Z" transform="translate(0 0)"/><path class="cls-1" d="M123.79,211.92c.22-1.08,3.9,0,6.44-.53C129.48,214.1,125.93,211.3,123.79,211.92Z" transform="translate(0 0)"/><path class="cls-1" d="M126.47,222.67c.65-.75.21,0,0,.54-.48-.33-1-.65-1.07,0C124.12,222.91,126,221.59,126.47,222.67Z" transform="translate(0 0)"/><path class="cls-1" d="M146.9,248.47c-13.3-1.59-23.31-.5-36.55-1.07,3.29-3.25,12.09,1.82,15.59-1.62a22.15,22.15,0,0,1,8.06,1.08c1.24.16.6-1.55,1.61-1.61h16.12c.43,2-2.54.68-3.76,1.07a16.7,16.7,0,0,1-1.07,3.22h-6.45c0,1.61,4-.75,3.22,1.62-2.65,0-6,0-9.13,0-2.7,0-6.34.92-7.53-1.08h11.83c-2.16-1.24-6.63-.18-9.68-.53,1.31-2,5.2-1.06,8.06-1.08,3,0,6.09,0,8.6,0Zm-4.3-2.15c-1.81.34-5-.69-5.91.54C138.49,246.52,141.68,247.55,142.6,246.32Z" transform="translate(0 0)"/><path class="cls-1" d="M131.85,316.73c-1-.07-1.14.66-2.15.54-.3-1.32-2.08-1.15-1.61-3.23,1.83-.39,4.33,2.7,7.52,2.69-3.3.36-.51,3-2.15,3.22C133.48,318.32,132.33,317.86,131.85,316.73Z" transform="translate(0 0)"/></svg>