<svg id="Layer_1" data-name="Layer 1" xmlns="http://www.w3.org/2000/svg" viewBox="0 0 325.31 300.08"><defs><style>.cls-1{fill:#fff9d4;}</style></defs><path class="cls-1" d="M134,298.48c-5.77-1-10.25-3.12-15.77-7.35A50.58,50.58,0,0,0,100,282.41c-15.87-4.25-18.72-6.84-28.75-26.11a69.66,69.66,0,0,1-6.87-21.64c-2.48-15.71-3.7-17.24-10.75-13.46-6.69,3.59-8.62,3.58-17.11-.06-4.65-2-8.55-2.67-12.21-2.1-4.61.71-6.47,0-13-4.77C7.13,211.2,3,207.34,2.08,205.7,0,201.82-.76,182.48.94,175c1.43-6.31,4.82-11.31,8.65-12.78,3.48-1.33,2.77-31.53-.94-40-1.89-4.31-2.74-11.1-3.21-25.64-.58-17.8-.35-20.3,2.29-24.91,1.61-2.82,4.44-8,6.28-11.41,3.54-6.63,7.41-8.62,13.7-7,3.59.9,3.67.75,3.68-7.53,0-12.29,5-22,14.87-29.33C59.32,6.72,62.42,5.6,75.18,5.87c9.87.21,12.12-.22,16-3.07C94.82.09,96.91-.38,102.5.25c3.76.42,8.6,2.07,10.76,3.66S123.34,8.25,130.87,10c13.79,3.24,20.64,6.37,20.69,9.44a7.82,7.82,0,0,0,1.14,3.43c1.38,2.18,10.36-.54,14.67-4.44,6.33-5.73,32.1-7.78,38.9-3.1,1.54,1.06,4.76,1.55,7.42,1.11,7.42-1.2,25.77,6,32.26,12.63l5.38,5.51L256.75,32c3-1.44,10-3,15.67-3.56,9.82-.89,10.56-.73,17.25,3.74C298.36,38,303.92,47,303.92,55.37c0,7.62,3,15.11,8.79,21.65,2.42,2.76,4.4,6,4.4,7.27s1.63,5,3.63,8.44c2.88,4.92,3.77,8.84,4.33,19.14.8,14.65,0,17.07-9.4,27.91-3.23,3.73-6.31,8.56-6.85,10.74-2,8.1-9,16.42-20.05,23.95-.85.58-.45,3.32,1,7,2.84,7.08,3,13.14.54,16.27-3.9,4.88-10.47,8.76-14.84,8.76-3.31,0-5.72,1.27-8.58,4.52-4.18,4.76-15.73,29-15.73,33,0,5.68-5,12.64-11.26,15.68a23.21,23.21,0,0,0-9.89,9,88.94,88.94,0,0,1-11,13.51c-9.22,9.29-20.62,13.62-35.23,13.38-5.9-.1-11.69.76-15.2,2.25-6.34,2.7-21.47,3-34.62.63Zm36.35-5.35c2-1.11,7.56-1.72,13.92-1.52,14.2.45,20.89-1.93,30.64-10.91,7.2-6.62,14.31-15.94,14.33-18.76,0-2.39-30.14-17-31.76-15.39-.25.25,3.45,2.26,8.22,4.46,11.27,5.2,13.64,7.85,6.27,7-5.1-.6-5.28-.48-3.22,2.11s2,2.65-2.22,0-4.38-2.75-1.83.15c1.41,1.6,2.24,3.24,1.83,3.64s.25,4,1.45,7.94a58.19,58.19,0,0,1,2.15,8.67c-.06,2.87-4.42-4.39-5.87-9.78-1.58-5.89-7.26-13.51-11.92-16-2.67-1.43-2.75-1.29-1.07,1.86a17.8,17.8,0,0,0,4.39,5.24c2.41,1.71,8.18,16,6.95,17.23-.3.3-2.08-3.37-3.93-8.17s-4-8.34-4.73-7.89-1.34.26-1.34-.44a10.77,10.77,0,0,0-2.11-4.11c-1.22-1.65-.61,1.47,1.46,7.41,4.44,12.76,4,15.54-.59,3.92-1.88-4.73-4.84-10.21-6.58-12.19s-2.72-2.89-2.18-2c1.93,3,7.35,18.58,6.69,19.23-.36.37-2.39-3.19-4.5-7.9s-5.12-9.72-6.69-11.14c-2.54-2.3-2.46-1.63.82,6.47,2,5,3.38,9.31,3.05,9.64s-2.33-2.53-4.45-6.36l-3.86-7,.79,5.86a100.42,100.42,0,0,0,3,13c1.2,3.91,1.86,7.44,1.47,7.83-1.42,1.42-8.82-12.25-11.54-21.32-1.53-5.11-3-9.06-3.27-8.79s0,4.79.5,10c1.15,11.11-2,29.17-4.61,26.55-1.1-1.11-1.06-2.67.16-5.34,2-4.46,2.26-9.49.42-9.49-1.64,0-3.4-11.46-3.36-22,0-6.85-.2-7.51-1.46-4.4-.81,2-1.5,8.28-1.53,13.92,0,10.75-2,8.67-2.68-2.93l-.37-5.86-1,6.6c-1,6.16-1,6.25-1.25,1.48l-.22-5.1-2.71,5.1a81.64,81.64,0,0,0-4.55,10.7c-2.68,8.24-3.08,5.94-.71-4.14a93.4,93.4,0,0,0,2-10.24c0-2.1-4.2,7.4-7.36,16.85l-2.7,8.06.86-7.33a57.35,57.35,0,0,1,2.87-12.27c3.25-8,2.2-7.4-2.38,1.28-2.34,4.43-4.34,9.38-4.44,11s-.52,2.1-.93,1.09c-.75-1.85,5.66-19.9,9.49-26.73,2-3.5,1.94-3.54-.37-.73a134.69,134.69,0,0,0-8.25,13.55c-3.21,5.84-6.13,10.62-6.49,10.62-1.21,0,7.11-18.27,11-24.17,6-9.09,6.46-10.73,1.44-5.13a122.57,122.57,0,0,0-10.53,15c-3.25,5.44-6.18,9.89-6.5,9.89-1.1,0,3.93-11,8.23-17.95,2.36-3.83,4-7,3.65-7s-4.36,4.94-8.91,11-8.5,11-8.78,11c-1,0,6-11.24,12.16-19.47,4.87-6.51,5.51-7.93,2.78-6.14-2,1.29-4,3.33-4.42,4.54s-1.46,1.82-2.22,1.35a1.86,1.86,0,0,0-2.43.87c-.71,1.14-.42,1.32.86.53s1.56-.61.91.44a2.55,2.55,0,0,1-3,.86c-2.18-.84-7.46,5.46-12.4,14.8-1.7,3.21-3.1,4.86-3.11,3.66,0-1.91-.21-1.91-1.6,0s-1.44,1.75-.71-.48a19.76,19.76,0,0,0,.87-3.39c0-.38.58-.34,1.29.1s2.18-1.33,3.25-3.94,4.54-7.55,7.69-11,5.25-6.23,4.67-6.23c-2.41,0-10.12,6.64-14.1,12.14-2.35,3.24-4.28,5.29-4.3,4.57s-1.37.33-3,2.34l-3,3.66,2.94-6c1.61-3.32,6.43-9.18,10.7-13,5.66-5.11,6.57-6.39,3.37-4.73a47.59,47.59,0,0,0-9.16,7c-2.62,2.58-4.76,4.06-4.76,3.28s1.32-2.6,2.94-4.07,2.65-2.95,2.3-3.3c-.92-.92-13.63,8.06-14.52,10.25-.43,1.07-.79.7-.86-.87-.12-2.76,10.69-14.52,14.61-15.91,1.17-.41,1.66-1.25,1.09-1.86s-3.26.2-6,1.8l-9.22,5.47c-2.88,1.72-1.88.28,3.06-4.41,5.86-5.57,6.59-6.75,3.66-5.87-2,.61-6.92,4.16-10.9,7.91l-7.24,6.8,4.29-5.86a84.37,84.37,0,0,1,8-9.33l3.68-3.46-4.39,2.56A61,61,0,0,0,77.71,240c-3.66,3.33-4,3.43-2.61.72.89-1.72,4.11-5.21,7.15-7.77,4.81-4,5.06-4.52,1.88-3.68a24.34,24.34,0,0,0-7.92,4.84c-4.55,4.13-3.85,1.64,1.07-3.82,3.53-3.93,2.37-4.23-3.09-.81l-4,2.49,3.64-4,3.64-4.05-4,1.52c-5.38,2-5,.76.76-3,4.31-2.76,4.42-3,1.1-2.37a41.46,41.46,0,0,0-6.6,1.88c-2.69,1.1-2.75,1-.73-1.52s1.95-2.63,0-2c-3.64,1.24-.91,21.15,4.26,31.08,1.63,3.14,2.7,6.15,2.37,6.69-1.2,1.94,12.76,17.93,17.3,19.82,9.89,4.1,11.16,3.67,15-5.11,1.92-4.44,3.49-7.07,3.49-5.86a15.53,15.53,0,0,1-2.08,5.86c-3.4,5.94-2.53,7.8,5.91,12.69,7.76,4.5,8,4.54,8,1.47a11.26,11.26,0,0,1,1.53-5.37c1.07-1.57,1.24-.29.57,4.53-.88,6.43-.73,6.81,3.43,8.53,10,4.13,35.23,4.32,42.52.32Zm-15.42-6.79c0-4,.3-5.5.64-3.27a26.69,26.69,0,0,1,0,7.32c-.35,1.81-.63,0-.62-4.05Zm-6,1.47c0-2.42.27-3.59.67-2.59a8.28,8.28,0,0,1,.06,4.39C149.25,291,148.92,290.23,148.89,287.81ZM170.7,285c-.07-1.54.28-2.41.77-1.92a3,3,0,0,1,.11,2.81c-.46,1.16-.81.82-.88-.89Zm16.91-.18a12.43,12.43,0,0,1-.82-4.09c.05-.94.73-.13,1.5,1.8s1.14,3.77.82,4.09S188.12,286.13,187.61,284.82Zm-42.49-1.46a26.39,26.39,0,0,1-.74-7.76c.16-5,.27-4.8,1.39,1.91,1.25,7.48,1,10.05-.65,5.85Zm-28.75-2.79c0-2,.54-3.91,1.2-4.32s.91,1.2.56,3.58c-.77,5.23-1.76,5.65-1.76.74Zm-5.66-2.29a16.21,16.21,0,0,1,1.26-5.12c.79-1.85,1.26-2.12,1.26-.74a16.19,16.19,0,0,1-1.26,5.13C111.18,279.4,110.71,279.67,110.71,278.28Zm49.77-19.09c-1.31-3.28-1.4-3.14-1,1.51,1.13,12.06,1.28,12.64,1.85,7.28a22,22,0,0,0-.89-8.79Zm85.67-11a27.84,27.84,0,0,0,2.13-7.61c0-3.29,12.53-28.38,15-30.1,2.22-1.56-4.51.17-7.7,2-1.79,1-1.65,1.28.73,1.46q2.94.23-1.34,1.14c-4.85,1-6.89,4.5-2.81,4.77,1.49.09.73.67-1.71,1.29s-3.24,1.19-1.83,1.29,2.56.88,2.56,1.74-1.29,1.16-3.29.53c-3.19-1-3.18-.92.36,2.15l3.67,3.17-5.68-2.24c-8-3.15-10-2.68-3.48.78,3,1.6,5.49,3.59,5.49,4.42s-.66,1.11-1.46.61-1.47-.21-1.47.64-2.31.61-5.92-.83c-3.26-1.31-6.27-2-6.69-1.6s1.52,1.52,4.33,2.45,5.49,2.71,6,4c.57,1.49.23,2-1,1.54-7.07-2.89-7.43-3-6.36-1.23s-2.64,1.41-9.36-.74c-5.43-1.74,1,1.93,8.47,4.82,8.71,3.38,6.61,4.57-3.22,1.84-3.91-1.08-6-1.11-6.64-.07s-1.72,1-3.09.15a8.41,8.41,0,0,0-3.62-1.33c-.81,0,.36,1,2.59,2.24s4.81,1.74,5.73,1.18,1.25-.37.56.74,0,1.68,2.34,1.47a36.27,36.27,0,0,1,6.36,0c2.28.27,2,.64-1.38,1.64s-5.93.56-10.81-1.6c-9.76-4.32-10.82-3.43-2,1.64,4.3,2.47,7.46,4.87,7,5.32s-2.55-.31-4.66-1.69-4.12-2.23-4.46-1.88,1.85,2.29,4.88,4.32l5.53,3.7,7.07-3.56c5-2.54,7.66-5,9.15-8.56Zm-77.61,5.56c-.49-.49-.84.38-.77,1.92.07,1.71.42,2.06.88.89A3,3,0,0,0,168.54,253.77Zm-16.12-2.93c-.49-.49-.83.38-.77,1.92.07,1.71.42,2.06.88.89a2.93,2.93,0,0,0-.11-2.81Zm48.93,1.85c0-.37-1.48-1.4-3.29-2.28-3.17-1.53-3.19-1.5-.46.69C200.59,253.49,201.35,253.81,201.35,252.69Zm-46.17-8.37c3.77-1.71,3.75-1.74-4-5.07-4.26-1.84-9.05-3.37-10.64-3.4-2.71-.06-2.68.08.37,2.22,1.79,1.26,3.26,3.56,3.26,5.13,0,3.34,5,3.85,11,1.12Zm45.44-1.2a3.41,3.41,0,0,0-2.65-1.45c-1.05,0-.87.59.45,1.45C201.24,244.94,201.75,244.94,200.62,243.12ZM112,237.85c0-.29-1.65.22-3.66,1.14s-3.67,2.24-3.67,2.93,1.65.18,3.67-1.14S112,238.14,112,237.85Zm61.51,1.57c-1-1.23-1.34-2.71-.71-3.3s1.44-.24,1.8.77a2.62,2.62,0,0,0,2.05,1.83c.84,0,.79-1.12-.12-2.83-2.56-4.78-1.69-6.48,1.44-2.83l2.95,3.46-2.41-6.29c-1.32-3.45-2.08-6.61-1.68-7s1.57,1.44,2.62,4.09c2.09,5.27,5.59,9.94,7.47,9.94.66,0-.44-3.07-2.43-6.82s-3.58-7.86-3.53-9.15c.07-1.62.49-1.37,1.37.8a10.2,10.2,0,0,0,3,4.2c1.29.8,1.31.32.1-1.95a13.65,13.65,0,0,1-1.52-5.67c.07-2,.46-1.75,1.54,1,1.19,3,1.7,3.23,2.82,1.46s1.37-1.73,1.39-.17a1.32,1.32,0,0,0,2,1.24c1.06-.41,2.73.54,3.71,2.1s2.42,2.45,3.2,2,1.81.1,2.27,1.3c1.41,3.69,4.77,4.09,3.93.46L204,224.8l2.45,3.3c1.35,1.81,3,3.29,3.69,3.29s.9-1.48.47-3.29c-.77-3.27-.76-3.27,1.68-.37s2.45,2.9,1.56-.34a8.86,8.86,0,0,1,.53-5.82c1.28-2.29,1.63-2.14,3.26,1.43,1,2.2,2.37,4,3,4,1.79,0,1.43-1.81-1-5-3.66-4.85-2.26-6.21,1.61-1.56l3.64,4.4-2.23-5.45c-2.86-7-2.78-9,.13-3.58,3.11,5.72,3.79,4.26,1.29-2.75-3.11-8.74-2.47-11.27.76-3,1.55,4,3.47,7.86,4.28,8.67s.17-1.94-1.41-6.11S225.4,205,226.11,205s1.7,1.57,2.18,3.5a7,7,0,0,0,3.46,4.48c2.06.79,2.21.62.74-.86a7.75,7.75,0,0,1-1.83-4.78c0-2.17,1-1.4,3.83,3,3,4.65,4.74,5.91,8.06,5.91,4.87,0,5.06-.35,2-3.45-3.38-3.38-1.19-4.3,2.51-1.06,3.06,2.69,3.15,2.69,2.19.08-.74-2-.44-2.52,1.17-1.9a4.2,4.2,0,0,0,4.05-1A7.64,7.64,0,0,1,257,207c6.26-.52,23.85-5.8,27.46-8.24,5.77-3.91,6.44-7.41,3.05-16.06-1.22-3.12-2-3.68-3.51-2.46a3.57,3.57,0,0,0-1.12,3.69c.44,1.15,0,2.09-.9,2.09s-1.31.66-.81,1.47-.1,1.46-1.33,1.46c-1.52,0-1.93.82-1.28,2.57.85,2.25.66,2.32-1.54.52s-2.39-1.73-1.49.62c.8,2.08.48,2.45-1.43,1.72-1.35-.52-2.45-.3-2.45.48a1.41,1.41,0,0,0,1.39,1.42c2.24,0,9.37-3.31,12.16-5.64,3-2.47,3.44-.46.74,3.08-2.48,3.24-16.58,8.64-23.88,9.14A115.89,115.89,0,0,0,248,205c-7.17,1.61-8.63,1.54-11.62-.56-3.51-2.45-12.47-3.19-15.39-1.27a9.58,9.58,0,0,0-2.67,4.39c-2,6.55-10.72,8.94-25,6.89a105.77,105.77,0,0,0-10.63-1.15c-1,.06-4,.19-6.73.29-6.08.22-11.59,4.55-9.67,7.59,2.15,3.4,1.59,8.45-1.12,10-1.76,1-5.35.37-12.26-2.12-9.69-3.5-23.33-4.77-23.33-2.17,0,1.71,9.46,4.88,14.49,4.85a10.73,10.73,0,0,1,5.69,1.49c1,.83,2.29,1.09,2.81.57s2.19.18,3.72,1.56c2.39,2.17,3,2.22,4.12.37.87-1.37,1.37-1.5,1.38-.36,0,1,1.33,2.48,2.92,3.33,2.46,1.32,2.75,1.17,1.91-1s-.25-2,3.17.7c4.81,3.79,6.36,4.22,3.71,1Zm64.45-27.31c-1.67-3.28-1.63-3.32.9-.9,1.45,1.39,2.24,2.93,1.75,3.42s-1.68-.64-2.65-2.52ZM132.81,232.86c-3.23-2-7.38-2.93-12.73-2.93-4.37,0-8.35-.66-8.84-1.47s-2.52-1.46-4.49-1.46-3.57-.66-3.57-1.47-1-1.46-2.22-1.46a12.25,12.25,0,0,1-4.76-1.36,39.39,39.39,0,0,0-5.44-2.28c-2.41-.76-2.53-1.14-.73-2.28,1.58-1,.84-1.37-2.78-1.39-4.23,0-4.68-.34-3.12-2.22s1.26-2.22-1.65-2.37a39.15,39.15,0,0,0-5.51.11c-1.23.18-1.71-.56-1.21-1.87.67-1.73-.77-2.14-7.49-2.13-4.58,0-10.56.94-13.31,2.06s-5.27,1.76-5.62,1.41c-1.5-1.5,7-5.3,14.33-6.41s7.58-1.29,3.19-2c-2.83-.45-8.2.37-13,2-10,3.39-11.6,2.59-3.14-1.6,5.81-2.88,6-3.11,2.21-3.11a23.3,23.3,0,0,0-17,8.24c-3.19,4.13-3.24,4.14-2.28.55a20.11,20.11,0,0,1,4-7c4-4.33.73-4.43-6.28-.2l-5.13,3.1,3.58-3.87a21.29,21.29,0,0,1,8.06-5.16c5.92-1.72.71-1.84-7.9-.18l-6.51,1.25,3.58-2.82,3.58-2.82-4.39,1a71,71,0,0,0-9.32,3c-2.7,1.13-5.23,1.73-5.61,1.35-.92-.92,12.42-6.8,15.48-6.83,2,0,2.05-.22.25-1.36-2.48-1.58-9.38-.51-15,2.33-5.84,2.93-7,2.37-1.84-.92a55.11,55.11,0,0,1,12.46-5l8-2.15-9-.09c-6.84-.08-9.84.59-12.68,2.83-5.26,4.14-6.38,3.65-1.66-.73,2.17-2,5.46-3.66,7.31-3.66s3.82-.73,4.37-1.63,0-1.33-1.75-.8c-1.51.45-4.72,1.29-7.14,1.87-4,.94-4.2.81-2.38-1.4A8.18,8.18,0,0,1,12.87,177c2.51-.14,2.61-.3.54-.84-4.52-1.18-1.14-3.39,5.23-3.41,4.51,0,5.56-.4,3.95-1.44-1.21-.78-1.59-1.43-.85-1.44s-.17-1.65-2-3.63c-3.12-3.33-3.68-3.44-7.36-1.54C5.09,168.47,3.2,173.29,3,188.58l-.19,13.9L10.09,209c6.7,6,7.77,6.49,13.2,5.74a21.44,21.44,0,0,1,12.29,2c8.16,3.65,12.61,3.6,18-.21A36.12,36.12,0,0,1,63,212.13c4.47-1.24,6.43-.81,14.67,3.21a97.29,97.29,0,0,1,17.06,11.08c7.34,6.26,7.84,6.44,17.89,6.53a107.1,107.1,0,0,1,16.21,1.29c8.92,1.85,9.16,1.76,4-1.38ZM19.65,208.13c0-.71,1.1-2.19,2.44-3.3,2.21-1.82,2.28-1.7.68,1.29-1.81,3.41-3.12,4.25-3.12,2ZM15.9,200c1.57-1.25,3.49-2.28,4.28-2.28,1.86,0,1,.68-3.46,2.82-3.45,1.64-3.5,1.61-.82-.54Zm-1-31.09a5.76,5.76,0,0,1,3.67,0c1,.41.18.74-1.84.74S13.88,169.29,14.89,168.88Zm214.3,65.45a9.72,9.72,0,0,0-4.39-1.42c-2,0-2,.15,0,1.42a9.65,9.65,0,0,0,4.39,1.42C231.15,235.75,231.15,235.59,229.19,234.33Zm-36.13-3.73c-.47-1.24-1.18-1.95-1.56-1.56s-.26,1.4.27,2.26c1.44,2.34,2.29,1.88,1.3-.7Zm51.52.8a3.22,3.22,0,0,0-2.37-1.47c-.81,0-1.06.66-.56,1.47a3.2,3.2,0,0,0,2.37,1.46C244.82,232.86,245.08,232.2,244.58,231.4Zm-5.13-2.05c0-.31-1-1-2.28-1.44s-1.89-.26-1.37.57c.86,1.39,3.65,2.06,3.65.87Zm-74.73-3.82c0-3.24-2.87-3.87-5.53-1.21-1.31,1.32-2.61,1.32-5.49,0a18.81,18.81,0,0,0-6.27-1.68c-4,.06,8.81,5.58,13.26,5.71,3.09.09,4-.57,4-2.82Zm29.81.67c-.48-1.24-1.18-1.94-1.57-1.56s-.26,1.4.27,2.26c1.45,2.34,2.29,1.89,1.3-.7Zm-31.78-12.78c-.4-1-.71.17-.68,2.59s.36,3.23.73,1.8a8.29,8.29,0,0,0-.05-4.39Zm72.81,4c-.48-1.24-1.18-1.94-1.57-1.56s-.26,1.4.27,2.26c1.44,2.34,2.29,1.88,1.3-.7Zm-169.75-.67c.5-.8.24-1.46-.56-1.46a3.21,3.21,0,0,0-2.37,1.46c-.5.81-.25,1.47.56,1.47A3.22,3.22,0,0,0,65.81,216.74Zm47.48-6.22c-5.77-7.53-8.1-10.05-6.42-7,1.8,3.32,9.64,13.18,10.47,13.18.4,0-1.42-2.8-4-6.22Zm23.59,5.64c0-.32-2.64-2-5.87-3.64-7-3.67-7.79-2.77-1.09,1.31,4.56,2.78,7,3.58,7,2.33ZM107,207.6c-3.64-6.11-6.72-8.71-6.72-5.68,0,1.53,8.5,11.89,9.76,11.89.37,0-1-2.79-3-6.21Zm53.19.72c-.17-5.4-.19-5.42-1.21-1.1-1,4.16-.7,6.59.73,6.59.36,0,.57-2.47.48-5.49Zm-43.61.71c-1.44-1.44-1.61-1.27-.82.82.55,1.44,1.37,2.25,1.82,1.8s0-1.63-1-2.62Zm50.85-15.27c-.26-5.09-.06-9.26.45-9.26s1.61,4.46,2.45,9.9c1.43,9.31,1.49,8.86,1-7.7-.38-13.24-.21-15.59.7-9.52a197.31,197.31,0,0,1,1.45,20.51c.2,10.13.53,11.77,1.76,8.8.89-2.13,1.25-10.41.88-19.79-.62-15.57-.58-15.78.95-6.33,1.57,9.63,3.54,14.41,3.74,9.06.41-11.2-.09-15.51-2.18-18.69a11.64,11.64,0,0,1-1.8-7c.56-3.23.64-3.25,1.8-.45a25.37,25.37,0,0,0,3.49,5.58c2.52,2.92,3,14.24,1.28,30.32-.77,7.14-.67,8.24.36,4.39a130.26,130.26,0,0,0,2.37-16.85c.54-6.44,1.85-12.72,2.91-13.95a24.83,24.83,0,0,0,3.38-5.86l1.45-3.63.26,3.66a45.08,45.08,0,0,0,.6,5.13,52.28,52.28,0,0,1,.56,6.09c.19,3.82.72,4.5,3.09,3.88s3-2.34,3.47-9c.33-4.55.43-2,.22,5.64-.31,11.32-.09,13,1.14,9.16.84-2.62,2-4.76,2.59-4.76s1.53-3.79,2.1-8.42c1.66-13.4,3.91-16.07,2.91-3.46a62.48,62.48,0,0,1-4.45,18.94c-4.51,10.21-4,12.46,1.13,4.6a38.66,38.66,0,0,0,4.92-13.59c.91-6.77,3.46-14.29,3.57-10.52.07,2.3-3.88,21.65-5.09,24.91-1,2.74-.93,2.73,1.24-.17,3.31-4.42,8.25-17.48,9.87-26.13A62.07,62.07,0,0,1,225.65,157a45.52,45.52,0,0,0,3.12-10l.83-5.15L225.37,146a30.51,30.51,0,0,1-10.11,6.08c-5.24,1.69-7.37,1.51-19.61-1.65-10.85-2.8-15-3.27-19.77-2.23-3.32.73-13.29,1.81-22.15,2.4-15.2,1-16.78,1.43-27.55,7.24-6.28,3.39-13.06,6.16-15.07,6.16a16.49,16.49,0,0,0-7.48,2.51c-2.11,1.38-7.19,3-11.3,3.6-13.44,2-17.66,2.9-22.35,5-5.45,2.46-11.32,2.67-15.26.56s-3.57-1.18,1.54,4.62c2.71,3.07,4.39,4.12,4.42,2.76,0-1.95.2-1.95,1.46,0,1.94,3,1.83,4.79-.22,3.52-1.08-.66-1.3-.4-.59.75.61,1,1.47,1.42,1.92,1s1.81,0,3,1c1.8,1.49,1.75,1-.23-2.87-3-5.72-3.15-10-.22-4.83C67.11,183.85,68,184.4,68,183c.07-1.21,1.73.89,3.69,4.66s4.3,7.31,5.18,7.86.56-1.06-.74-3.56a80.17,80.17,0,0,1-3.75-8.58c-1.18-3.42-1.11-3.62.4-1.35,4.89,7.33,5.55,7.78,4.62,3.17l-.89-4.4,3,4.4c3.35,4.82,3.84,4.4,1.65-1.37-.79-2.07-1.11-3.76-.72-3.76s1.77,2.66,3.07,5.9,3.59,6.57,5.1,7.37,2.62,2,2.46,2.53c-.6,2.3,2,7.43,4.24,8.28,4,1.53,3.62.08-1.72-6.92-5.21-6.82-8.07-12.68-8.07-16.52,0-4.09,2.25-2,5.5,5.06,1.81,3.95,4.35,7.58,5.65,8.08,1.81.69,2.12.3,1.33-1.67-2.56-6.37-2.11-6.49,1.4-.39,3.74,6.5,3.76,3,0-4.39a38.46,38.46,0,0,1-2.73-8.8c-.81-4.66-.66-4.53,1.66,1.47,4.57,11.77,9.07,19,11.8,19a7,7,0,0,1,4.35,1.74c1,1,.38-.86-1.28-4-2.45-4.69-2.86-7.41-2.17-14.5.47-4.8,1.57-9.41,2.46-10.25,1.16-1.11,1.32.59.59,6.11-.61,4.58-.35,9.64.64,12.64,1.91,5.79,7.47,11.51,8.45,8.7a52.47,52.47,0,0,1,4.16-7c2.55-3.75,3.86-8.37,4.71-16.53l1.18-11.33,1.94,9.88c1.07,5.43,2.53,9.51,3.24,9.07s1.3.55,1.3,2.21-1,3-2.19,3a2.09,2.09,0,0,0-2.2,1.94c0,3.64,4.6,15.46,6.7,17.2,2.7,2.24,2.67.18-.11-6.46a25.29,25.29,0,0,1-2-8.6c.11-2.18.39-2.51.81-1,.78,2.92,9.17,19.94,9.23,18.72a88.23,88.23,0,0,0-2.84-9.52,82.11,82.11,0,0,1-2.93-10.08c-.08-3,4.06,4.72,6.64,12.42,3.48,10.38,4.38,6.34,1.32-5.94-4.62-18.56-6.59-28.32-6-29.87.31-.86,1,1.08,1.62,4.3s2.26,9.82,3.75,14.65,3.06,10.11,3.48,11.73.44-1.16.06-6.14a83.25,83.25,0,0,0-4.39-18.87c-2-5.39-3.32-10.17-2.87-10.62,1.28-1.28,3,1.37,5.78,8.89,1.41,3.84,3.2,6.58,4,6.1s.89-1.53.07-2.57c-1.79-2.27-5.21-17-4.18-18.06.44-.44,1.64,3.22,2.66,8.14,1.94,9.43,4.19,11.91,4.19,4.64,0-2.37.76-4.78,1.69-5.36,1.21-.75,1.43.28.76,3.63a36,36,0,0,0,.49,11.59,161,161,0,0,1,3.05,25.95c.28,6,.45,6.43.95,2.3a108.11,108.11,0,0,0,.13-14.29Zm-61-1.7a24.81,24.81,0,0,1-1.86-12.82l.66-7.19,1.19,8.79A87.52,87.52,0,0,0,109,193.66c2.07,6,.32,4.89-2.58-1.6Zm12.37.45c-.5-1.31-.82-5.46-.7-9.22.21-6.7.24-6.65,1.21,2,1.07,9.39,1,11.07-.51,7.27Zm4.4-7.33c-.51-1.31-.84-5.13-.74-8.49.18-5.85.24-5.77,1.35,1.95,1.21,8.3,1,10.7-.61,6.54Zm43.33-5.8c0-2.42.27-3.59.67-2.59a8.39,8.39,0,0,1,.06,4.39c-.38,1.43-.7.62-.73-1.8Zm-64.53-.73c0-2,.33-2.84.74-1.84a5.76,5.76,0,0,1,0,3.67c-.41,1-.74.18-.74-1.83Zm23.44-2.94c0-2,.34-2.83.74-1.83a5.63,5.63,0,0,1,0,3.67c-.4,1-.74.18-.74-1.84Zm15.1-3.57c-.54-3.57-.63-7.36-.21-8.42s.82.17.89,2.74a30.42,30.42,0,0,0,1.54,8.43c.84,2.2.87,3.76.09,3.76s-1.78-2.93-2.31-6.51Zm77.27-3c0-2.42.28-3.58.68-2.59a8.4,8.4,0,0,1,0,4.39c-.37,1.43-.7.62-.73-1.8Zm1.3-7.2c-.07-1.55.28-2.41.77-1.93a3,3,0,0,1,.11,2.81c-.46,1.17-.81.82-.88-.88Zm-52.53-3.79c0-2.82.3-4,.67-2.56a12,12,0,0,1,0,5.13C166.82,162.11,166.52,161,166.52,158.13Zm4.17.86c-.06-1.55.28-2.41.77-1.93a3,3,0,0,1,.12,2.81c-.47,1.17-.82.82-.89-.88ZM200,159c-.07-1.55.28-2.41.77-1.93a3,3,0,0,1,.11,2.81c-.46,1.17-.81.82-.88-.88Zm2.93,0c-.06-1.55.28-2.41.77-1.93a2.93,2.93,0,0,1,.11,2.81c-.46,1.17-.81.82-.88-.88Zm-17.59-1.47c-.06-1.54.29-2.41.77-1.92a3,3,0,0,1,.12,2.81c-.47,1.16-.81.82-.89-.89Zm7.33-1.46c-.06-1.55.28-2.41.77-1.93a3,3,0,0,1,.12,2.81c-.47,1.17-.82.82-.89-.88Zm10.44,54.53c-1.37-1.37-2.15-1.37-3.52,0s-1,1.76,1.76,1.76,3.12-.39,1.76-1.76Zm8.49-1.17a1.47,1.47,0,1,0-1.46,1.46A1.47,1.47,0,0,0,211.6,209.42Zm-79.15-5.95q-3.48-12.16,2.32-1c2,3.82,3.82,7,4,7s-.93-4.23-2.59-9.39c-2.88-8.94-3.15-9.27-5.72-7-4.12,3.67-5.63,7.34-4.49,10.92,1,3.14,1.06,3.15,2.1.31s1.2-2.65,2.95,1.1c2.49,5.33,3.18,4.36,1.38-1.92Zm64.51-.69c1-3.65,1.44-7.06.93-7.57s-.94.33-.95,1.87a19.35,19.35,0,0,1-2.2,7c-2.54,4.88-2.62,5.33-.91,5.33.7,0,2.11-3,3.13-6.64Zm19,3c0-1.31-.86-1.82-2.19-1.31s-1.82,1.43-1.38,2.15c1.28,2.07,3.57,1.53,3.57-.84Zm-53.53-22.72c-.95-6.47-1-6.51-3-2.93-2.35,4.24-2.66,6.34-.77,5.17.73-.46,1.89,4.28,2.56,10.53l1.23,11.37.46-8.79a93.4,93.4,0,0,0-.51-15.35Zm29.35,5.67c2.87-11.95,2.27-18.19-1.39-14.39-1.33,1.38-2.19,6.68-2.51,15.54-.55,15.08,0,14.91,3.9-1.15ZM248,200.64c.27.13.93-.25,1.47-.84s-1.2-.65-3.86-.14-4.48.35-4-.39-.51-1-2.12-.53-2.94,1.29-2.94,1.93c0,2,3.5,2.53,7.33,1.11a14.7,14.7,0,0,1,4.15-1.14Zm-159.43-1.4a12.08,12.08,0,0,0-3.13-3.84c-.89-.55-.48.73.91,2.85,2.93,4.47,4.45,5.15,2.22,1Zm91.36-1.91c.57-2.39.36-4-.53-4s-1.49,2.09-1.49,4.64c0,5.33.64,5.14,2-.61Zm15.77-10.52-1.47-3-.1,3.12c-.06,1.71-.44,5.34-.85,8.06l-.74,4.94,2.32-5c1.7-3.67,1.92-5.83.84-8.06Zm43.75,9.36a71.39,71.39,0,0,1,13.92-1.39c11.32-.08,18.11-3.87,27-15,3.69-4.64,9.49-10.4,12.88-12.8,5.57-3.92,12.14-14.23,12.14-19,0-.86,2.51-4.36,5.57-7.77,10-11.12,10.88-13.36,10.76-27.11-.08-10.66-.61-13.24-3.65-17.76A35.53,35.53,0,0,1,313.59,86c-.51-2.2-2.75-6.15-5-8.79C303.17,70.81,301,65.42,301,58.41c0-8.95-5.09-18.18-12.85-23.32-6.34-4.2-12-5.76-12.12-3.34,0,.6-1.73,3.08-3.79,5.5-2.55,3-3.23,3.37-2.14,1.18a12.64,12.64,0,0,1,3.06-4.12,3.22,3.22,0,0,0,1.46-2.41c0-1.94-11-.18-16.53,2.65-4.06,2.08-4.14,5.83-.1,4.28,1.17-.45,1.76-.21,1.3.53a1.69,1.69,0,0,0,.65,2.27c.82.5,1.49-.07,1.49-1.28A4,4,0,0,1,263,37.21c1-.62,1.18.42.53,3-1.17,4.68,2.4,8.14,4.07,3.94.74-1.86,1-1.49,1.1,1.43.15,5.85,2.25,6.1,4.27.52,1-2.7,2.8-5.75,4.06-6.79,1.59-1.33,1.33-.08-.9,4.19-3.89,7.47-3.49,13.84.44,6.93L279,46l-.86,4.39c-.48,2.42-1.12,5.22-1.43,6.23-1.3,4.24,1.76,1.3,4.23-4.07,1.48-3.2,3.28-5.82,4-5.82s0,2.14-1.58,4.76-2.91,6-2.91,7.44c0,2.12.78,1.74,3.79-1.83,2.08-2.48,4.5-4.51,5.38-4.51s.24,1.48-1.4,3.3c-5.38,5.92-7.88,10.86-6.85,13.54.84,2.18,1.44,1.8,3.79-2.36,1.53-2.73,2.34-3.64,1.8-2-2.11,6.21-3.39,13.13-2.57,13.87.47.43,1.11.05,1.43-.85a23.33,23.33,0,0,1,2.68-4.39c1.33-1.76,1,.18-.88,5.29l-3,8,4.52-5.12,4.53-5.13-5.13,9.59c-2.82,5.28-5.42,11.87-5.79,14.65a42,42,0,0,1-1.65,7.63c-.54,1.41-.64,2.56-.22,2.56s1.59-2.44,2.57-5.43c3.57-10.8,16.11-26.8,21-26.8,2.5,0,.15,2.87-5.72,7-3.63,2.56-6.6,5.69-6.6,7s.7,1.89,1.67,1.29-.5,3-3.14,8-5.29,9-5.89,9-1.41,1.68-1.8,3.72c-.45,2.37-.11,3.5.93,3.12a2.05,2.05,0,0,0,1.26-2.29c-.2-.92,2.27-5,5.5-9.11,6.91-8.73,7.75-8.22,1.47.9-2.41,3.51-4.39,6.78-4.39,7.26,0,1.82,9.75-4.14,15-9.19,3-2.89,5.49-4.57,5.49-3.72s-1.32,2.72-2.93,4.18c-3.52,3.19-4,6.35-.49,3.48,1.9-1.57,2.3-1.6,1.8-.1-.34,1.05-6.83,6.65-14.4,12.45s-14.05,11.54-14.38,12.75c-.37,1.36-.13,1.61.62.65,1.93-2.46,12.2-8.34,12.2-7,0,.68-1.3,2.05-2.89,3-1.77,1.1-2.55,2.7-2,4.11.73,1.91,1.67,1.56,5.45-2A35.09,35.09,0,0,1,307,124.38c6.26-1.8,6.35.69.1,2.91a61.41,61.41,0,0,0-12.34,7c-3.82,2.77-7.56,4.65-8.33,4.18a1.7,1.7,0,0,0-2.31.63,3.36,3.36,0,0,1-2.53,1.49c-.88,0-.41-1.32,1.05-2.93,2-2.22,2.15-2.92.59-2.88-1.13,0-4.23,2.83-6.88,6.23-5.76,7.38-16.07,25.35-13.7,23.88,2.56-1.58,2,.43-1.48,5.32-1.74,2.43-6.15,6.33-9.81,8.65s-5.81,4.22-4.77,4.22c2.19,0,10.27-5.43,13-8.74,1-1.24,6.81-9.31,12.87-18,10.26-14.62,13.84-18.88,13.84-16.45,0,.54-2.38,4.37-5.3,8.51l-5.29,7.52,5.35-6.14c5.25-6,22.08-16.6,21-13.18-.3,1-4,3.58-8.11,5.84-8.07,4.38-15.89,12.92-20.1,22-1.42,3.05-5.54,8.84-9.17,12.87-9.64,10.73-6.34,10.67,4-.07,4.86-5,8.83-8.44,8.83-7.54,0,2.24-21.08,23.62-23.29,23.62-1,0-1.34-.73-.8-1.61.73-1.18.18-1.18-2,0a15.14,15.14,0,0,1-3.93,1.61c-.5,0-.47-.73.08-1.61.67-1.09-.06-1.05-2.24.11-1.77,1-3.58,1.38-4,.94s-2.85.31-5.37,1.65a30.41,30.41,0,0,1-5.55,2.51,4.31,4.31,0,0,0-2.2,1.38c-.72.77.3.88,2.44.26s6-1.64,8.79-2.38Zm28.44-11.46c3-3.35,3.8-3.79,3.8-2,0,.61-1.48,2-3.3,3.14-3.28,2-3.28,2-.5-1.11Zm25.36-27.85c6-5.93,9.21-7.51,9.21-4.59,0,.81-1,1.47-2.15,1.47s-4.64,2.06-7.69,4.58c-5.24,4.34-5.21,4.26.63-1.46Zm-23.15-3.49c5.61-7.91,10.74-14,10.12-12-.86,2.79-12.17,18.22-13.36,18.24-.64,0,.82-2.78,3.24-6.21Zm20.47-2.63c5.15-4.8,10.42-8.73,11.71-8.73s-1.11,2.32-5.32,5.16-8.73,6.79-10,8.79-3.13,3.61-4,3.57,2.55-4,7.69-8.79Zm9-29.1c2.79-2.34,5.4-3.93,5.8-3.53.9.88-7.49,7.77-9.47,7.78-.77,0,.88-1.91,3.67-4.25ZM279,44.93c0-.4,1-1.55,2.19-2.56s2.2-1.49,2.2-1.09-1,1.56-2.2,2.56S279,45.33,279,44.93Zm-8.8,152.76a1.5,1.5,0,0,0-1.55-1.46c-.85,0-1.14.65-.64,1.46s1.19,1.47,1.55,1.47S270.21,198.5,270.21,197.69ZM227,196.24c.51-.83-.08-1.07-1.38-.57-2.54,1-3,2-.9,2a3.11,3.11,0,0,0,2.28-1.45Zm6.85-12.36c19.1-18.75,34.92-46.07,34.92-60.32,0-2.58,2.38-9.71,5.3-15.85,7-14.73,8.14-26.45,3.59-36.83C272,58,271.06,56.66,263,49.83c-4.4-3.7-11.42-10.26-15.59-14.57-6.55-6.78-9.26-8.4-19.84-11.85-6.74-2.2-13.28-3.73-14.54-3.41s-3.5,2.85-5,5.62-3,4.73-3.41,4.35.39-2.34,1.7-4.35c3-4.61,3-4.8-.51-6.68-10.34-5.54-25.1-4-40.32,4.29C154.77,29,149.23,34,145.53,41.21c-3.21,6.23-3.36,7-1.33,7,1.86,0,7.32-5.41,7.32-7.26a20,20,0,0,1,1.72-5.17c1.25-2.73,2-3.25,2.91-1.9a7.73,7.73,0,0,1,1.19,3.34c0,.81-.56.59-1.24-.49-1-1.56-1.42-1.47-2.16.44-.53,1.41-.31,2,.53,1.51s1.51,1.16,1.6,3.95l.15,4.85,1.27-5.13c.69-2.82,1-6,.58-7.07-.79-2.28,1.77-7.58,3.66-7.58,2.14,0,3.06,4.86,1.81,9.55a25.74,25.74,0,0,0-.19,9.5c1,5,1,4.95,1.17-1.62.38-13.23,5.93-21.28,6.15-8.92l.1,5.41,1.88-7c1-3.84,2.27-7.38,2.76-7.86,1.14-1.15,3,6.23,2,7.87a3.6,3.6,0,0,0,.45,3.23c.81,1.31,1.79-.8,2.94-6.3.94-4.55,2-8.27,2.25-8.27s.28,4.45,0,9.89-.23,8.57.18,7c1.95-7.58,5.3-16.88,6.3-17.5.6-.37-.08,2.75-1.53,6.94a55.73,55.73,0,0,0-2.5,17.16l.13,9.52,1.1-7.49c1.11-7.57,4.23-15.27,4.39-10.83,0,1.21,1.13.06,2.42-2.56s2.87-4.76,3.5-4.76-.05,2.48-1.52,5.52c-2.44,5-3.45,9.21-5.22,21.58-.51,3.58-.38,3.86.73,1.47a21.09,21.09,0,0,0,1.46-6.93c.1-4,4.41-16.36,5.36-15.41.27.27-.47,3.7-1.65,7.62a46,46,0,0,0-2,10.92c.07,2.75.6,2,1.91-2.79,2-7.24,6.63-16.53,6.72-13.47,0,1.05.72,1.51,1.53,1,1.91-1.18,1.86-.78-.75,6.64-3.08,8.71-1.45,9.22,2.21.69,1.65-3.86,3.33-6.68,3.73-6.28s-.93,4.28-2.95,8.63c-2.11,4.52-3.64,10.41-3.59,13.76.08,5.5.27,5.24,3-4.21,1.58-5.54,3.84-11.45,5-13.14,2.74-3.91,2.8-1.27.1,4.31a42.07,42.07,0,0,0-2.88,10.85L207.3,68l2-6c2.63-7.92,6.25-14.81,8.53-16.21,1-.63.56.81-1,3.2-3.08,4.71-7.26,20.26-5.09,18.91a3.81,3.81,0,0,0,1.34-3c0-2.76,7.29-17.24,8.21-16.32.39.38-.65,3-2.29,5.76-1.8,3-3.28,8.8-3.73,14.47l-.74,9.41,2.1-9.11c1.16-5,2.84-10.28,3.74-11.72,1.51-2.41,1.58-2.39.94.31-.38,1.62-1.08,5.9-1.55,9.53l-.86,6.59L222.57,66c3.88-8.29,4.63-17,2.34-26.92-.7-3-.73-5.49-.07-5.49,2.13,0,3.45,6.33,3.06,14.6l-.38,8,3.19-2.89,3.19-2.88-3,5.13c-3.41,5.85-9.11,27-8.94,33.21.06,2.58,1.12.26,2.77-6.11,4.42-17,5.63-19,14.16-23.34,4.26-2.16,8.59-3.75,9.64-3.53s3.38-.44,5.19-1.44c5-2.77,4-1.46-3.66,4.82-4.3,3.52-5.61,4.2-3.41,1.78,4.4-4.87,3.42-4.91-5.77-.26-4.09,2.08-8.14,5.42-9.3,7.7C229.18,73.12,225.85,87.88,227,89c.42.42.76-.23.76-1.44,0-3.16,8.43-19.6,11.25-21.94,1.32-1.1.39,1.59-2.1,6.08-4,7.28-10.18,27.3-8.8,28.68.31.3,2.08-4.21,4-10,3.85-12,7.25-19.3,8.47-18.08.46.45.22,1.67-.53,2.7-2.85,3.88-12.83,39.13-11.47,40.49.82.82,1.38-1,5.11-16.35,3.87-15.92,8-25.41,11.87-27.5,2.63-1.4,2.82-1.27,1.58,1.08a40.37,40.37,0,0,0-2.45,9.27c-1,6.22-.91,6.43,1.3,3.67s2.28-2.72.87,1.46l-1.48,4.4,3.08-3.67c8.15-9.69,16.23-17.82,17-17.08.46.45-.24,1.89-1.55,3.2-2.69,2.69-3.37,13.21-.75,11.59.89-.55.56.62-.74,2.6-2.09,3.19-2.82,11.42-1,11.42.39,0,2.69-1.82,5.13-4,3.42-3.13,3.19-2.63-1,2.2-3,3.43-5.44,7.68-5.44,9.46,0,2.85.77,2.47,6.59-3.24,3.63-3.56,6.59-5.82,6.59-5s-3,4.23-6.59,7.65-6.59,7-6.59,7.88.94.87,2.56-.52c5.84-5,6.6-4.26,1.46,1.47-3,3.38-5.49,6.93-5.49,7.9,0,1.36.4,1.36,1.76,0a5.87,5.87,0,0,1,3.1-1.75c.74,0-1,2.62-3.92,5.82-4.54,5-8.33,11.67-9.64,16.89a4.72,4.72,0,0,1-1.34,2.2,59.12,59.12,0,0,0-5.17,7.19,67,67,0,0,1-8,10.09c-3.34,3.15-3.42,3.41-.6,1.94,4-2.08,18.87-21.77,18.35-24.28-.21-1,1.11-3.06,2.93-4.6,3.3-2.8,3.3-2.8.74.25-3.23,3.83-3.26,5.19-.1,4,1.35-.52-2,4.94-7.54,12.14-7.53,9.85-8.63,11.81-4.47,7.95,3.35-3.12,4.92-4,4-2.2a43.07,43.07,0,0,1-6.67,7.87c-2.82,2.72-4.8,5.8-4.4,6.85s-.69,2.67-2.44,3.6-2.77,2.09-2.3,2.57-.95,2.07-3.17,3.54S226.18,186,227,186s-.5,1.67-2.89,3.62c-3.6,2.94-3.81,3.42-1.22,2.74,1.73-.45,6.65-4.27,11-8.49ZM246.77,80.93c0-2.58,14.65-18,17.1-18,1.18,0-.76,2.47-4.31,5.49a71.84,71.84,0,0,0-9.63,9.87c-1.74,2.41-3.16,3.61-3.16,2.68Zm3.66-15.05c4.89-5.94,10.14-10.23,12.46-10.19,1.62,0,1.46.5-.62,1.79a103.28,103.28,0,0,0-8.79,6.85c-3.72,3.18-4.87,3.76-3,1.55ZM240.18,45.3c1.45-1.61,3-2.93,3.38-2.93s-.46,1.32-1.92,2.93-3,2.93-3.38,2.93S238.72,46.91,240.18,45.3Zm-11-5.63c0-.68,1.42-2.5,3.15-4l3.16-2.79-2.59,4c-2.68,4.15-3.72,4.94-3.72,2.79Zm-18.51-6.92c2-4.08,4.83-8.35,6.3-9.49,2.54-2,2.55-1.93.29.82A21.42,21.42,0,0,0,214,29.92,25.38,25.38,0,0,1,210,36.51c-2.53,3.11-2.43,2.54.65-3.76ZM217.46,37c0-.78,1-2.71,2.28-4.27,2.15-2.68,2.18-2.64.54.82-2.14,4.48-2.82,5.32-2.82,3.45Zm-19.05-2.36c0-.4,1-1.55,2.2-2.56s2.2-1.49,2.2-1.09-1,1.56-2.2,2.56S198.41,35.07,198.41,34.67ZM58.17,187.8a26.13,26.13,0,0,0-5-5.82c-1.33-1-3.43-4.32-4.67-7.41S45.23,168.08,44,167c-2.69-2.23-3.17-.07-.56,2.54,1.37,1.37,1.35,1.76-.09,1.76-1,0-1.38.75-.78,1.71.73,1.19.22,1.39-1.67.67-2.64-1-2.64-1,0,2,1.49,1.65,3.76,3,5,3.11,1.53.07,1.7.37.49.86a1.56,1.56,0,0,0-.88,2.29c.64,1-.35,1.23-2.92.58-5.74-1.44-4.72,0,2.35,3.22,15.62,7.2,16.61,7.36,13.24,2.09Zm77.7-1.46c.35-.61.17-2.4-.41-4-.93-2.57-1.13-2.45-1.81,1.1s.71,5.49,2.22,2.89Zm122.67-5.69c7.19-6.72,16.07-18.68,16.07-21.63,0-.84-3.56,3.41-7.91,9.44s-10.44,12.77-13.54,15-4.78,4-3.74,4,5.13-3.05,9.12-6.78ZM38.16,178.28a11.6,11.6,0,0,0-1.42-3.67c-.63-1-.66-1.83-.07-1.83s-.28-1.48-1.94-3.3-5.11-7.58-7.68-12.82-5.27-10.15-6-10.91a5.82,5.82,0,0,1-1.32-3.67c.06-3.2,3.46,1.4,8.88,12,2.37,4.63,4.64,8.42,5.05,8.42s-.31-2-1.59-4.53-2-4.86-1.61-5.27,2.09,1.92,3.75,5.17,3.68,6.31,4.5,6.82c2.2,1.36,1.83,0-1.6-5.78-1.69-2.87-2.76-6.05-2.37-7.06s-.5-6.45-2-12.08A110.38,110.38,0,0,1,30,115.64c-.1-12-1.33-22.08-5.28-43.23-.62-3.3-.45-3.82.66-2.1,2.28,3.55,6,23.07,6.25,32.87l.23,8.79,1-7.32c.9-6.6,1-6.1,1.23,5,.13,6.79.66,11.91,1.18,11.39s.94-8.71.92-18.19.27-16.1.63-14.69c1.13,4.47,4.81-.88,5-7.22l.14-5.6,1.37,4.76c1.85,6.42,3.33,6.06,2.09-.51-.74-4-.54-5,.8-4.17s1.59-1.51.93-10.2c-.47-6.21-1.48-12.09-2.26-13S43,46.43,42.41,41.54s-1.54-9.75-2.2-10.82c-2.13-3.45-5,4.33-5.83,16.05l-.81,11-6.89-.5-6.9-.49-3.15,6.72c-1.74,3.7-3.7,6.72-4.35,6.72-5.35,0-5.83,41.57-.59,51.29,2.23,4.14,2.71,7.88,2.51,19.49L14,155.35l7.38,8.35c7.51,8.5,15.48,16.41,16.53,16.41.32,0,.46-.83.3-1.83Zm-5.81-28.45a5.32,5.32,0,0,1-.93-3.3c0-1.91.32-1.84,1.6.35,1.58,2.72,1.12,4.73-.67,3ZM30,141.4c-.06-1.55.29-2.41.77-1.92a2.93,2.93,0,0,1,.12,2.8c-.47,1.17-.82.83-.89-.88ZM21.38,136c-1.06-1.7-1.65-3.37-1.31-3.71,1-1,4.3,3.6,3.74,5.27C23.53,138.42,22.44,137.72,21.38,136Zm-1.73-9.28a19.71,19.71,0,0,0-.83-4.76c-.46-1.47.17-1,1.41,1,2.65,4.33,2.89,5.86.89,5.86-.81,0-1.47-.93-1.47-2.08Zm2.57-7.36c-2.22-2.78-4-5.91-4-7,.06-2.64,8.75,7.13,8.75,9.83C27,125.23,26.8,125.12,22.22,119.38ZM20,100.91c-.94-5.11-1.47-9.54-1.16-9.85.92-.91,4.2,15.21,3.51,17.26-.34,1-1.4-2.31-2.35-7.41Zm-4,4.47c-.55-1.74-.67-3.48-.27-3.89s1.18.69,1.73,2.42.67,3.48.27,3.89S16.54,107.11,16,105.38Zm7.46-8.06c-.69-6.45-1.87-13.37-2.62-15.39-1-2.57-.9-3.21.19-2.13,2.13,2.11,4.77,17.17,4.17,23.8-.35,3.86-.85,2-1.74-6.28ZM31.6,84.86c0-2,.34-2.84.74-1.83a5.6,5.6,0,0,1,0,3.66C31.94,87.7,31.6,86.88,31.6,84.86Zm3-9.52a90.54,90.54,0,0,0-1.05-11l-.75-3.66,1.57,3.6c.86,2,1.33,6.93,1,11l-.52,7.39-.29-7.33Zm-5.13-2.77c-.58-4.75-.76-8.93-.4-9.29,1-1,2.72,12,2,15.18C30.76,80,30,77.32,29.43,72.57Zm9.5-6c-.14-2.42-.58-7-1-10.26l-.71-5.86,1.54,4.91a30.48,30.48,0,0,1,1,10.25c-.5,4.74-.6,4.85-.83,1Zm214.44,107.7c.5-.81.25-1.47-.56-1.47a3.2,3.2,0,0,0-2.37,1.47c-.5.8-.25,1.46.56,1.46a3.21,3.21,0,0,0,2.37-1.46ZM68,172.78c.69,0,1-2.14.8-4.76s-.16-3.44.21-1.83c1,4.12,2.32,5.21,4.71,3.73q2.07-1.28,2.07-9.46c0-4.51.59-8.19,1.31-8.19s.9-.66.4-1.47-.14-1.46.8-1.46,1.33-1,.87-2.2-.21-2.2.57-2.2,1.42-1,1.42-2.26,1.65-3.92,3.66-5.93,3.67-4.15,3.67-4.74,1.32-2,2.93-3.19,2.93-2.92,2.93-3.9,1.46-2.82,3.25-4.07,2.71-2.28,2-2.28.83-1.92,3.33-4.26,4.56-4.69,4.56-5.23c0-1.72,4-5.06,5-4.12.5.5.91-.23.91-1.62s.66-2.12,1.46-1.63,1.47-.1,1.47-1.33c0-1.48.82-1.92,2.44-1.3s2.09.37,1.37-.78-.14-1.71,1.23-1.71,2.28-.77,2.28-1.71.42-1.3.92-.79,2.73,0,4.94-1.17,4.44-1.66,4.95-1.16.92.11.92-.88.56-1.45,1.24-1,2.66-.56,4.4-2.17,3.17-2.42,3.21-1.78,1.07-.72,2.31-3c1.57-2.89,3.09-4,5-3.46s2.47.1,1.83-1.58-.24-2,1.74-1.28,2.39.43,1.8-1.13.77-2.65,4.23-3.79c2.78-.92,5.05-2.36,5.05-3.2s1.06-.67,2.48.48c1.68,1.37,2.12,1.43,1.38.18-1.35-2.24.82-2.43,3-.25,1.12,1.12,1.57.48,1.57-2.22s-.93-4-3.77-4.74c-2.24-.56-4-.29-4.3.67a1.89,1.89,0,0,1-2.58.83c-3.39-1.3.8-4.47,5.08-3.85,2.06.3.42-.71-3.64-2.24s-9-3.62-10.87-4.65c-4.6-2.46-17.48-1.09-27.94,3-14.54,5.65-17.71,7.27-16.89,8.6.44.72-.36,1-1.78.63-3.06-.79-13.13,5.56-12.07,7.61.78,1.48,3.92,1.48,14.66,0,3.62-.5,7.56-.26,8.75.54,3.23,2.17.77,3.57-2.87,1.62-2.43-1.3-4.55-1.22-9.28.34a24.7,24.7,0,0,1-12.64.87c-5.81-1-7.26-.69-13.44,3.28s-14.23,11.3-9,8.15c2.87-1.73,2.15-.2-1.35,2.87q-3.18,2.79-2.08.6c.61-1.21-.62-.32-2.73,2-4.46,4.85-3.37,7.35,4.64,10.7,4,1.66,5.94,1.65,12.46-.07,10.34-2.73,10.27-2.72,13.48-2.52,3.63.22,1.83,2-2.45,2.49a85.85,85.85,0,0,0-9.88,2.13,42.4,42.4,0,0,1-9.76,1.63c-3.12-.16-3.13-.07-.84,6a38.59,38.59,0,0,0,4.5,8.76c1.92,2.28,1.89,2.57-.21,2.57-2.87,0-5.41-4.35-5.41-9.25,0-2.11-2.36-6.15-5.79-9.9l-5.79-6.34-1.34,3.59c-.74,2-1.79,5.23-2.33,7.24l-1,3.67,2.15-3.67c2.09-3.54,2.13-3.46,1.34,2.57-.88,6.63.22,7.83,3.38,3.66,1.68-2.21,1.76-1.9.61,2.28-.74,2.67-.94,5.91-.44,7.2q.9,2.35-.81,1.3c-.94-.58-1.79-2.51-1.88-4.27-.12-2.28-.36-2.51-.82-.77a5,5,0,0,1-2.48,3.14c-1.29.5-1.7-.67-1.37-3.9.3-3-.24-2.12-1.59,2.63-1.13,4-1.73,8.11-1.32,9.16s.07,1.91-.74,1.91-1.46,3.75-1.44,8.43l0,8.43,1.65-5.38c2.29-7.44,3.87-8.54,2.31-1.61a23.07,23.07,0,0,0,0,10C56,158.8,56,158.78,56.36,153c.21-3.78.52-4.56.87-2.2.68,4.63,3.59,19.14,4.36,21.77a2.05,2.05,0,0,0,2.89,1.1,13.22,13.22,0,0,1,3.56-.89Zm-4.9-4.23a49,49,0,0,1-.82-9.51c.12-3.15.58-2.1,1.5,3.4C65.28,171.24,64.7,176.38,63.14,168.55Zm3.77-12.94c-1-.38-1.83-3.17-1.83-6.59,0-5.91-4.11-14.75-8.54-18.35-1.23-1-1.83-2.22-1.33-2.72.82-.82,3,1.22,10.75,10.14l2.68,3.08,1-3.61c.93-3.3,1-3.21,1.16,1.11.11,3.62-.37,4.52-2,3.87-2.67-1-3.07,5.37-.62,10,1.77,3.31,1.48,4.08-1.22,3.12ZM65.08,130c0-3.35.4-5.71.88-5.22,1.32,1.32,1.54,11.33.25,11.33-.62,0-1.13-2.75-1.13-6.11ZM83.4,108.31c-.5-.81-.21-1.47.64-1.47a1.52,1.52,0,0,1,1.56,1.47c0,.81-.29,1.46-.65,1.46S83.9,109.12,83.4,108.31Zm-11-11.64a3.1,3.1,0,0,1,1.45-2.27c.83-.51,1.07.07.57,1.38-1,2.54-2,3-2,.89Zm35.43-7.73c-2-2-2.26-4.08-.42-4.08,1.34,0,3.55,4.42,2.66,5.32C109.8,90.45,108.8,89.9,107.84,88.94Zm51-23.12-3.66-1.18,4-.14c2.21-.08,4,.51,4,1.32s-.17,1.4-.37,1.31-2-.67-4-1.31Zm-23.1-4.4c-1-1.61-2.82-2.93-4-2.93s-2.19-.66-2.19-1.47c0-1.8,1.54-1.84,4.27-.11,2.52,1.6,9.22-1.14,7.93-3.24-.56-.9.44-1.13,2.61-.59,1.93.48,5.49,1.29,7.91,1.79,6.33,1.33,8.56,2.14,7.86,2.84-.34.34-3.49,0-7-.82-8.5-1.91-16.28.44-15.19,4.59,1,3.68.14,3.65-2.18-.06Zm11-1a8.42,8.42,0,0,1,4.4-.06c1.43.38.61.7-1.8.73s-3.59-.27-2.6-.67ZM41.63,170.84a25,25,0,0,0-3.91-4l-3.91-3.55,2.81,4C39,170.62,41.63,172.51,41.63,170.84Zm16.51-6.48c-.41-2.74-1.59-4.77-2.75-4.77s-2,.66-2,1.47a1.47,1.47,0,0,0,1.46,1.46c.81,0,1.47,1.21,1.47,2.69,0,2.42,1.47,5.2,2.27,4.27a20.79,20.79,0,0,0-.42-5.12Zm28.53-12.3c.85-.84,1.11,1.74.7,6.75s-.1,8.11.83,8.11,1.2-1.19.82-2.64.31-5.52,1.53-9.06,1.82-7.12,1.34-8c-.58-1.06-.3-1.05.87,0s1.32,2.68.21,5.59a27.77,27.77,0,0,0-1.42,8.66c.08,3.87.46,3.31,2.24-3.31,2.84-10.57,3.52-10.88,2.52-1.17-.54,5.2-.25,8.37.82,9s1.73-1,1.88-5.29c.21-5.4.33-5.62.83-1.55.35,2.83,1.43,4.76,2.65,4.76s1.72-.89,1.24-2.14c-1-2.53,1.94-12.07,4.1-13.4.94-.59.9.19-.11,2.08-2,3.76-2.11,10.53-.15,10.53.81,0,1.48-1.49,1.49-3.3a11.54,11.54,0,0,1,1.53-5.49c1.12-1.65,1.33-1,.83,2.56-.86,6.22,2.85,6.55,4.21.38.53-2.4,1.53-4.73,2.22-5.15s.69,1.19,0,3.64c-1.66,5.79-.7,5.69,13.53-1.43,6.44-3.23,13.24-5.86,15.1-5.86,2.35,0,3.59-1,4-3.3l.63-3.3.2,3.27c.3,4.83,6.06,5.6,19.28,2.59,9.41-2.15,12.59-2.32,18.07-.94,8.95,2.26,9,2.24,6-2.35l-2.59-4,3.15,2.79c1.74,1.53,3.16,3.68,3.16,4.76a2.19,2.19,0,0,0,2.34,2c2,0,1.89-.77-.79-5.31-1.72-2.93-2.83-5.62-2.46-6s2.21,2,4.09,5.3c4.45,7.79,6.58,7.79,2.61,0-1.68-3.3-2.73-6.34-2.33-6.74s2.44,2.62,4.53,6.73c3.61,7.14,6.84,9.28,8.92,5.92.53-.86-.65-4.81-2.62-8.79s-3.1-7.24-2.5-7.24,1.5,1.09,2,2.41,1.3,2,1.77,1.56c1.94-1.94-3.47-6.2-8.43-6.63-4.33-.37-5.89.28-8.42,3.5-1.72,2.17-3.12,3.26-3.12,2.4s1.62-3.47,3.6-5.81c3.38-4,3.45-4.42,1.09-6.88s-2.33-2.53.44-1c1.62.9,4.52,2.78,6.46,4.16,3.48,2.48,3.5,2.47,1.78-.74-2.58-4.82-8-7.81-17.71-9.85-7.62-1.59-9.37-1.5-14.37.74a21,21,0,0,0-8.93,8c-1.79,3-3.65,5.09-4.15,4.59s.08-2.06,1.3-3.48a19.88,19.88,0,0,0,3.12-5.13c.5-1.41,3.88-4,7.53-5.78,5.9-2.87,7.57-3.06,15.43-1.76,4.84.8,8.81,1.42,8.81,1.38s-1.32-3.54-2.93-7.78-2.93-8.92-2.93-10.41-1.88-5.28-4.17-8.45c-5.55-7.66-7.94-12.26-6.38-12.26.71,0,2,1.64,3,3.66,1.4,3.09,2.64,3.65,7.92,3.61,6.17,0,6.21-.08,2.6-2.15a16.86,16.86,0,0,0-6.31-2.14c-1.57,0-2.24-.72-1.65-1.68,1.4-2.27-2.13-4.19-7.75-4.21-6.5,0-18.53,5.55-30.59,14.19-5.56,4-13.41,8.44-17.44,9.9-5.76,2.09-10.55,5.93-22.44,18C101,122.22,94.57,129.5,95,130s1.8-.42,3-2,2.15-2.06,2.18-1.12-2.59,5-5.82,9.11-5.86,8.1-5.86,8.93a1.49,1.49,0,0,1-1.46,1.51c-2.12,0-1.81-1.79,1-5.78,1.35-1.93,1.67-3,.72-2.43-2.11,1.3-7.57,11.73-7.54,14.37,0,1.4.37,1.34,1.35-.2.84-1.34,1.13,1.32.77,7.32l-.55,9.43,1.26-7.85c.69-4.31,1.87-8.46,2.62-9.21ZM120.76,154a11,11,0,0,1,2.06-4c1.93-2.63,2-2.56,1.29,1.19C123.43,154.76,120.76,157,120.76,154Zm-20.47-1a8.79,8.79,0,0,1,1.42-3.66c.78-1.21,1.42-1.54,1.42-.74a8.83,8.83,0,0,1-1.42,3.67C100.93,153.48,100.29,153.81,100.29,153Zm27.91-2.81c-.06-1.54.28-2.41.77-1.92a3,3,0,0,1,.12,2.81c-.47,1.17-.82.82-.89-.89Zm80.85-9.09c-1.77-3.85-3-7.26-2.63-7.58.91-.91,6.89,11.45,6.34,13.1-.27.81-1.94-1.68-3.71-5.52Zm-96.16,3.63c-1.5-.88-5.91-1.29-9.8-.92s-7.69.29-8.47-.19,1.15-5.4,4.4-11.13,5.39-8.75,4.87-6.91a57.14,57.14,0,0,1-4.48,9.52c-4.07,7.13-4.36,8.59-1.49,7.49,1.13-.44,2.42-2.23,2.86-4a19.26,19.26,0,0,1,3.14-6.12c2.14-2.7,2.14-2.55.06,1.75-3.06,6.33-3.07,6.3,3.51,6.3,3.17,0,6.18.66,6.68,1.47s3.34,1.48,6.31,1.49c4,0,4.85.38,3.21,1.44-2.88,1.86-7.38,1.77-10.8-.21ZM189,141c-.79-2.08-.63-2.25.82-.82,1,1,1.45,2.18,1,2.63s-1.27-.36-1.82-1.81Zm-81.42-2.45c0-1.57,4.36-9.7,5.21-9.7.4,0-.36,2.15-1.69,4.76C108.37,138.93,107.57,140.05,107.57,138.52Zm8.2-4.57c1.32-2,2.64-3.66,2.93-3.66s-.22,1.65-1.14,3.66-2.23,3.66-2.93,3.66S114.45,136,115.77,134Zm5,2.38c0-.71,1.1-2.19,2.44-3.3,2.21-1.82,2.27-1.7.68,1.29-1.82,3.41-3.12,4.25-3.12,2Zm71.61-13c-1.82-2.33-1.77-2.38.56-.56s3.21,3.12,2,3.12c-.31,0-1.46-1.15-2.57-2.56Zm-62.82-7.61a1.52,1.52,0,0,1,1.47-1.55c.8,0,1.46.29,1.46.65s-.66,1.05-1.46,1.55S129.55,116.57,129.55,115.72Zm-6.69-1.39c1-1.69,6.69-5.1,6.69-4,0,.33-1.73,1.74-3.84,3.13s-3.4,1.79-2.85.91Zm-5.76-3.09c1.46-1.61,3-2.93,3.38-2.93s-.46,1.32-1.92,2.93-3,2.93-3.38,2.93S115.64,112.85,117.1,111.24ZM173.49,104a21,21,0,0,0-8.06-3.4c-3.65-.54-3.38-.68,1.6-.86,4.65-.18,6.73.59,9.41,3.44,4,4.29,2.33,4.77-2.95.82Zm2.95-19c0-.73,1.32-1,2.93-.56s2.93,1,2.93,1.33-1.32.56-2.93.56S176.44,85.73,176.44,85Zm57.13,76.13c2-1.54,3.32-3.12,2.93-3.5s-2.69.88-5.11,2.82c-5.17,4.15-3.16,4.77,2.18.68Zm.3-7c2.59-3,4.52-6.23,3.74-6.23-.3,0-2.44,2-4.75,4.4s-3.53,4.39-2.7,4.39,2.5-1.15,3.71-2.56Zm9.75-5.5,3.23-5.86-3.7,4.11c-2,2.26-3.7,5.18-3.7,6.48,0,2.8,0,2.76,4.17-4.73Zm-26-6.11c-1.73-3-2.14-2-.73,1.66.5,1.31,1.22,2.07,1.6,1.7s0-1.89-.87-3.36ZM240,138.62c.67-2.71.24-2.52-2.78,1.19-2,2.42-3.58,5-3.58,5.72,0,2.4,5.54-3.64,6.36-6.91Zm-17.31,2.29a14.94,14.94,0,0,0-2.28-5.35c-.72-.73-.56,1.08.35,4,1.91,6.23,3.4,7.25,1.93,1.32Zm3-4.36c-1.49-1.49-2.72.75-1.49,2.73.92,1.49,1.26,1.49,1.76,0a3,3,0,0,0-.27-2.73Zm28.87-8.94c.84-4.36-.54-2.78-5.53,6.34l-4,7.33,4.45-5.13c2.44-2.82,4.73-6.66,5.09-8.54Zm-16.81,6c1.52-3,4.83-12.08,7.36-20.14,4.27-13.57,7.48-21.09,7.5-17.59a86.16,86.16,0,0,1-2.77,10.63c-1.53,5-2.53,9.15-2.22,9.15s1.94-2.47,3.61-5.49,2.78-4.51,2.44-3.3c-1.29,4.65-5.75,19-7.52,24.18-.55,1.61.31.57,1.92-2.3a31,31,0,0,1,5.49-7.33c2.26-1.83,2.43-1.82,1.35.1-.86,1.55-.75,1.77.36.74,2.27-2.1,3.51-30.35,1.27-29.1-1.06.6-1,.22.14-1s1.83-4.59,1.83-7.8V78.49l-3.66,3.44c-2,1.89-3.33,3.75-2.94,4.15s.09,1.46-.67,2.38c-2,2.41-13.24,36.68-13.24,40.36,0,2.07-.62,2.75-1.84,2.05-1-.58-1.38-.55-.82.06s.4,2.7-.33,4.63c-2.06,5.41-.33,4.17,2.74-2Zm-16.61-4.76c-1.32-2.57-2.75-4.32-3.18-3.9s.42,2.77,1.87,5.22c3.41,5.78,4.45,4.75,1.31-1.32Zm23.34-1.46c.68-2.55.57-3-.38-1.47a27.45,27.45,0,0,0-2.33,5.86c-.68,2.55-.57,3,.38,1.47a27.45,27.45,0,0,0,2.33-5.86Zm-16.74,4.52c0-2-7.73-13.4-8.53-12.6s6,13.94,7.43,13.94a1.24,1.24,0,0,0,1.1-1.34Zm11.14-16.82a170,170,0,0,1,6-16.08c1.38-2.72,1.63-4.7.7-5.62-1.24-1.24-6.67,12.72-9.52,24.47a83.52,83.52,0,0,1-3.11,8.79c-2,4.77-2,5.35-.21,3.09,1.21-1.53,4-8.12,6.11-14.65Zm-205,10.47c-.41-1-.74-.19-.74,1.83s.33,2.84.74,1.83A5.6,5.6,0,0,0,33.82,125.53ZM216.75,120c1-9-1.13-18.36-3.87-16.67-.73.45-3.29-.83-5.68-2.84-4.42-3.72-9.91-6.16-11.12-4.94-1.83,1.82,6.56,20.6,11.87,26.55,3.22,3.62,6.29,6.62,6.82,6.66s1.41-3.89,2-8.76Zm-7.35-4.35c-2.31-2.41-3.78-4.38-3.27-4.38,1.54,0,8.93,7.3,8.17,8.06C213.91,119.68,211.71,118,209.4,115.62Zm.82-5.71c-.89-1.67-3.64-4.08-6.11-5.36-5.29-2.73-4.84-4.29.63-2.21,3.86,1.47,9.4,8.32,7.92,9.8-.44.45-1.54-.55-2.44-2.23ZM290.74,120c2-1.55,2.94-2.84,2.05-2.87-2.36-.07-13.77,8.49-13.77,10.33,0,.86,1.81.17,4-1.54l7.69-5.92Zm-251-6.22c-.33-2.62-.59-.47-.59,4.76s.26,7.39.59,4.77A47.42,47.42,0,0,0,39.77,113.8Zm183,.56c-3-3-3.79-3.28-3.79-1.34a4.38,4.38,0,0,0,1.55,3.4c.86.53,2.29,2.71,3.19,4.85l1.64,3.89.6-3.5c.41-2.36-.63-4.74-3.19-7.3ZM45.45,119c-.49-.49-.83.38-.77,1.92.07,1.71.42,2.06.88.89A2.93,2.93,0,0,0,45.45,119Zm234.74-5.56c-.45-.45-1.27.36-1.82,1.8-.8,2.09-.63,2.26.82.82,1-1,1.45-2.17,1-2.62Zm20.8-1.79c0-.4-1,.09-2.2,1.09s-2.2,2.16-2.2,2.56,1-.09,2.2-1.09S301,112,301,111.61Zm-65.22-4.4c2.91-8.2,6.5-22.15,6.51-25.28,0-4.75-3,3-6.53,17.1-4,15.81-3.87,15.14-3,15.14.33,0,1.71-3.13,3.06-7Zm-12.67,1.91c-.9-2-2.54-3.93-3.65-4.35s-.69,1,1.21,3.58c3.91,5.29,4.59,5.51,2.44.77ZM45.45,105.77c-.49-.48-.84.38-.77,1.93.07,1.7.41,2,.88.88A3,3,0,0,0,45.45,105.77Zm-2.86-6.65c-.4-1-.7.18-.67,2.59s.35,3.23.73,1.81a8.42,8.42,0,0,0-.06-4.4Zm10.48-14.9c-.46-13.59-.18-19.61.91-19.42,2.59.46,2.71-18.51.17-27.06-1.24-4.19-2.22-9.32-2.16-11.39.1-3.47.21-3.53,1.48-.83,1,2.16,1.18,1.4.6-2.93-.5-3.8-.32-5.09.54-3.67.72,1.21,1.77,7.7,2.34,14.42C58.52,52.05,59.11,57.41,59.66,58c.28.28,2.08-2.62,4-6.44,2.74-5.46,3.61-9.93,4.07-20.87.32-7.66,1.24-14.58,2-15.39,1-1,1.12,2.1.43,9.16-.56,5.84-.46,10.62.22,10.61,1.7,0,7.83-9.18,7.9-11.8a15.59,15.59,0,0,1,2.28-5.77l2.23-3.66-1,4.39a90.16,90.16,0,0,0-2.11,16.12l-.29,4.4-1-4.4-1-4.4-4.16,6.51c-3.09,4.82-4.48,9.35-5.4,17.5-.68,6-1,11.24-.69,11.54s1.37-4.09,2.39-9.76,2.32-10,2.91-9.63c.91.56-.67,11.48-3.71,25.61-.59,2.76-.44,3.09.62,1.36,1.43-2.33,1.82-3.78,4.48-16.63Q76.63,43,77,52.75l.18,5,1.5-6.23c.82-3.43,2-6.23,2.6-6.23s.48,2.75-.27,6.1-1.14,7.15-.85,8.43,1.3-1.18,2.26-5.46,1.4-9.23,1-11a17.48,17.48,0,0,1,.6-7.6c1.31-4.24,1.37-4.26,1.66-.74.17,2,.31,5.15.33,7,0,3.91,2.06,4.4,3,.74.36-1.41.38.73,0,4.76-.56,6.62-.42,7,1.44,4.39C95.56,44.61,96.72,35,93.87,23.5a12,12,0,0,1,1.23-7.32c2.05-3.77,2.1-3.7,2.18,3.48.11,10.58,1.8,12.39,5.93,6.36,5.41-7.89,9.53-11.23,15.18-12.29,5.16-1,7.61,1.06,3.28,2.72-1.1.43-2.51,3.3-3.11,6.39s-1.42,4.75-1.8,3.71c-.54-1.5-1.48-1.39-4.35.49l-3.67,2.4.92-4.89.91-4.89L108,23.32a68.23,68.23,0,0,1-5.83,7,18.73,18.73,0,0,0-4.08,8.79l-.86,5.5,2.14-4.4c2.59-5.35,2.83-3.59.9,6.63C98,58.39,99.52,57.23,102.51,45c1.44-5.88,2.91-9.83,3.26-8.77s-.12,4.92-1,8.59c-2.71,10.78-.55,9.05,2.9-2.31s5.18-13.59,3.79-4.91c-.87,5.47-.85,5.46,2.65-1.83,1.94-4,3.58-6.62,3.64-5.74s1.11,1.58,2.32,1.58,2.25-.71,2.3-1.58.67-.27,1.37,1.34,1.3,2.11,1.36,1.1a1.79,1.79,0,0,1,1.52-1.83c.78,0,1,1,.54,2.29s1.35.25,4.08-2.25,6.6-5,8.62-5.45,4.14-1.63,4.74-2.51c.69-1,1.09-.83,1.12.59,0,1.95.22,1.95,1.62,0s1.44-1.75.71.49a17.73,17.73,0,0,0-.87,4.11c0,.79-.6,1.07-1.33.61s-1,.56-.53,2.24c.8,3,.82,3,3.69.17,2.6-2.6,2.68-3.31.88-7.09-2.67-5.57-15.93-11.83-28.29-13.36a24.42,24.42,0,0,1-9.67-3.58C106.7,3.08,97,1.82,94.25,4.62c-3.74,3.73-8.5,5.61-12,4.73-11.13-2.79-19-.92-30.79,7.34-5.28,3.69-9.87,7.5-10.19,8.47-.6,1.8-.19,3.51,3.91,16.48,2.72,8.59,5.24,27.89,6.26,48,.4,7.85,1.09,14.28,1.52,14.28s.48-8.86.12-19.69ZM61,31.87c-.16-6.18-.67-12.45-1.13-13.92-.79-2.5-.73-2.51.79-.14,1,1.51,1.44,7.16,1.14,13.92l-.5,11.37L61,31.87ZM47.83,35c0-2.82.3-4,.67-2.56a12,12,0,0,1,0,5.13C48.13,39,47.83,37.86,47.83,35Zm43.85-5.86c0-2,.33-2.84.74-1.83a5.6,5.6,0,0,1,0,3.66C92,32,91.68,31.2,91.68,29.18Zm-5.86-1.46c0-2,.33-2.84.74-1.84a5.63,5.63,0,0,1,0,3.67C86.15,30.55,85.82,29.73,85.82,27.72Zm39.46-4.4a9,9,0,0,1,1.34-4.4c1.73-2.67,1.73-.36,0,3.67-.83,1.93-1.29,2.18-1.34.73ZM87.42,18.19c0-3.22.27-4.71.64-3.31a15.94,15.94,0,0,1,0,5.86C87.74,22.56,87.44,21.42,87.42,18.19ZM102.15,16c0-4.43.27-6.24.61-4a32.93,32.93,0,0,1,0,8.06C102.42,22.24,102.15,20.43,102.15,16ZM224.22,98.45c-.49-.49-.84.38-.77,1.92.07,1.71.41,2,.88.89a3,3,0,0,0-.11-2.81Zm68-2.39c0-1.86-.68-1-2.81,3.46-1.65,3.45-1.62,3.5.53.81,1.25-1.56,2.28-3.48,2.28-4.27Zm-83.09,1.33c-1.44-2-5.6-4.92-9.22-6.55s-5.41-3-4-3a19.28,19.28,0,0,1,7,2.19c2.38,1.23,4.34,1.72,4.37,1.1s1,.14,2.2,1.71c1.85,2.45,2.15,2.5,2.15.39,0-1.46-1.63-2.85-4-3.43a24.17,24.17,0,0,1-7.52-3.7,13.73,13.73,0,0,0-6.92-2.7h-3.41l3,5.13c2.1,3.54,4.09,5.12,6.47,5.12,1.89,0,5.28,1.63,7.55,3.62,5.19,4.58,5.63,4.6,2.34.12Zm8.87-.14c-.48-1.24-1.19-1.94-1.57-1.56s-.26,1.4.27,2.26c1.44,2.34,2.29,1.89,1.3-.7ZM207.21,86.48c0-2.17-8.35-10.42-10.48-10.33-1.14,0-.59,1,1.32,2.37s3.3,2.91,3.3,3.65c0,1.67,3.27,5.49,4.76,5.57a1.15,1.15,0,0,0,1.1-1.26ZM48.38,79.4c-.48-.49-.83.38-.77,1.92.07,1.71.42,2.06.89.89A3,3,0,0,0,48.38,79.4ZM57.3,72c-.37-1.41-.67-.26-.67,2.57s.3,4,.67,2.56A12,12,0,0,0,57.3,72Zm8.67,0c-.49-.49-.84.38-.77,1.92.07,1.71.41,2.06.88.89A3,3,0,0,0,66,72.07Zm13.64-7.72c0-1.45-.51-1.2-1.34.73-1.73,4-1.73,6.34,0,3.66a9.06,9.06,0,0,0,1.34-4.39ZM201,58.49l0-3.67-1.18,3.67a31.18,31.18,0,0,0-1.14,8.06l0,4.39,1.12-4.39A41.23,41.23,0,0,0,201,58.49Zm-22.19,8.06c-.47-1.21-.16-2.2.68-2.2s.53-1-.67-2.2A7.3,7.3,0,0,0,174.72,60c-1.43,0-1.36.39.26,1.42a5.29,5.29,0,0,1,2.38,2.9c.1.84.27,2.18.37,3s.58,1.46,1.07,1.46.51-1,0-2.19ZM76.68,61.42c-.05-1.45-.51-1.2-1.34.73-1.73,4-1.73,6.34,0,3.66a9.09,9.09,0,0,0,1.34-4.39Zm13.94-2.93,1-3.67-2.21,3.67c-2.46,4.08-3.1,7.29-1,5a14.74,14.74,0,0,0,2.26-5ZM85.1,56.66c-.41-1-.74-.19-.74,1.83s.33,2.84.74,1.83A5.6,5.6,0,0,0,85.1,56.66Zm10.44-2.77c-.36-1.1-1-.43-1.55,1.55-.63,2.44-.44,3,.64,1.92a3.73,3.73,0,0,0,.91-3.47Zm15,1.67c.86-1.62,1.23-2.93.83-2.93s-1.44,1.31-2.3,2.93-1.24,2.93-.84,2.93S109.64,57.17,110.51,55.56Zm87.33-1.07c-.48-.49-.83.38-.77,1.92.07,1.71.42,2.06.89.89a3,3,0,0,0-.12-2.81Zm-19.05-2.93c-.48-.49-.83.38-.76,1.92.07,1.71.41,2.05.88.89a3,3,0,0,0-.12-2.81ZM86.56,47.84c-.4-1-.71.17-.68,2.59s.36,3.23.73,1.8A8.4,8.4,0,0,0,86.56,47.84Zm42.24-2.49c3.72-7.36,4.9-12.14,2.33-9.5-1.5,1.55-7.49,16.78-6.59,16.78.31,0,2.23-3.28,4.26-7.28Zm74-2.78c0-1.32-1-.18-2.2,2.53-2.8,6.45-2.75,9.46.07,4.06a18.26,18.26,0,0,0,2.13-6.59Zm-106,4.59c-.49-.49-.83.38-.77,1.92.07,1.71.42,2.06.89.89a3,3,0,0,0-.12-2.81Zm18.6-4.79.83-5.13-2,4.4c-2.31,5-2.85,9.39-.89,7.25.7-.77,1.64-3.7,2.09-6.52Zm64,3.58c0-1.26-.66-1.88-1.47-1.38a3.13,3.13,0,0,0-1.46,2.28,1.43,1.43,0,0,0,1.46,1.38C178.72,48.23,179.38,47.2,179.38,46Zm-44.07-7.24c0-.81-.94.18-2.09,2.19A16.28,16.28,0,0,0,131.13,46c0,.81.94-.18,2.09-2.2A16.16,16.16,0,0,0,135.31,38.71Zm26.56-8.56c-1.31-1.3-1.48-1.09-.74.86.54,1.41.31,2.57-.51,2.57s-1.1,1.46-.63,3.26c.81,3.11.91,3.07,2.23-.86.95-2.86.84-4.65-.35-5.83ZM120.19,34c-.49-.48-.84.38-.77,1.93.07,1.7.41,2.05.88.88a3,3,0,0,0-.11-2.81Zm22.32-7c0-.8-.91.52-2,2.93a21,21,0,0,0-2,6.6c0,1.21.93-.11,2-2.93A31.54,31.54,0,0,0,142.51,27Zm-6.21,5.53c-.48-.49-.83.38-.77,1.92.07,1.71.42,2.06.89.89a3,3,0,0,0-.12-2.81Zm32.24,0c-.49-.49-.83.38-.77,1.92.07,1.71.42,2.06.89.89a3,3,0,0,0-.12-2.81Zm7.33-2.93c-.49-.49-.84.38-.77,1.92.07,1.71.42,2.06.88.89A3,3,0,0,0,175.87,29.58ZM118.25,19c.43-1.64.23-3-.45-3-2,0-5.83,4.44-5.83,6.75,0,3.18,5.29,0,6.28-3.77Z" transform="translate(0.01 0)"/></svg>