<svg id="Layer_1" data-name="Layer 1" xmlns="http://www.w3.org/2000/svg" viewBox="0 0 379.87 481.3"><defs><style>.cls-1{fill:#e4dd99;}</style></defs><path class="cls-1" d="M95.29,480c-.54-1.8,1.78-10.2,3-10.75,1.84-.88,9.61-14.42,10.15-17.69.35-2.23.28-2.27-3.42-2.14s-5.13.92-6.37,3.58-.78,4,1.42,5.07c1.49.7,1.78.57,2.57-1.16a10.31,10.31,0,0,0,.81-4.1c-.12-2.64.59-3.14.9-.63s-.7,6-2,7-3.67.14-5-1.68c-1.09-1.45-.14-5.19,1.83-7.2l1.51-1.57-2.89-1.18c-4.18-1.72-5.53-2.52-5.25-3.12.14-.3,2.3.3,4.8,1.31,4.53,1.84,4.58,1.84,8.6.28a16.53,16.53,0,0,0,4.3-2.11,7,7,0,0,1,1.16-1.44c.54-.54-.21-.47-1.83.17s-3.14.91-3.63.68.43-.9,2.41-1.69c3.8-1.48,7.09-4.94,7.84-8.21s.6-3.42-1.71-2.88-4.42-.18-5.44-2.17c-.68-1.35-.58-1.37,1.34,0,2.93,2,5.65,1.54,6.92-1.18.8-1.71,1.89-9.27,1.52-10.53,0-.2-1.26,0-2.68.52s-2.66.63-2.77.33c-.29-.78,3.8-3,5.21-2.78,1,.13,1.47-.55,3.73-6.13,1.65-4.09,2.56-7.29,2.6-9.17.09-6.14,2.25-13,6.23-19.81a14.52,14.52,0,0,0,2-6.72,21.67,21.67,0,0,1,2.2-7.68,17.44,17.44,0,0,0,1.8-4.89,26.61,26.61,0,0,1,2-5.88c1.14-2.7,3.23-7.82,4.63-11.37s3.27-8.24,4.15-10.44a67.8,67.8,0,0,0,2.8-9.88,44.92,44.92,0,0,1,3.28-10.11,44.27,44.27,0,0,0,3-7.93,21,21,0,0,1,3.17-7.18,14.44,14.44,0,0,0,2.75-6.55c1-6.54,4.86-12,9.83-13.72,3.61-1.25,5.44-3.13,9.13-9.42,1.34-2.28,2.68-4,3-3.89.57.27,5-9.78,15.17-34.06,5.56-13.32,7.26-19.1,6.74-22.85a28.69,28.69,0,0,1,.21-5.56,19.7,19.7,0,0,0,.21-4.6,3.25,3.25,0,0,1,.27-1.92,9.2,9.2,0,0,0,.37-3.5,12.84,12.84,0,0,1,.33-3.71c.48-1.35.16-13.44-.44-17.48-.4-2.66-.92-2.38-4.35,2.39-3,4.11-9.49,9.84-10.32,9-.41-.39.11-2.09,1.55-5.13l2.12-4.53-1.78.27a7.77,7.77,0,0,1-2.1.13c-.9-.43,1.22-2.9,4.88-5.73,2.21-1.75,4.08-3.29,4.14-3.43a12.14,12.14,0,0,0-3.56-.05c-5.74.3-5.06-1.15,2.25-4.83a31.2,31.2,0,0,0,11.36-10.56c2.08-3.07,7.94-8,9.75-8.2a1.41,1.41,0,0,0,1-.65c.56-1.21-1.36-1.18-5,.09s-4,1.23-7.25-.2a15.59,15.59,0,0,0-5.17-1.45c-2.44.14-2.43-.76,0-2.11,2.94-1.57,2.87-1.84-.3-1.72-4.27.12-5.38-2-1.51-3a57,57,0,0,1,13.68-2c3.66,0,4.8.35,9.73,2.79,3.07,1.51,5.77,3.11,6,3.54a4.51,4.51,0,0,0,2.1,1.37c1.94.69,1.89,1.76-.23,4.79-1.2,1.71-1.22,2-.21,2.19,2,.39,1.65,3.13-1,7.83-1.69,2.94-2.19,4.25-1.68,4.35.76.17-3,8.43-4.91,10.83-.55.69-.67,1.32-.29,1.49s1.41-1.28,2.75-4.17c3.42-7.32,4.77-4.09,2.1,5-2.16,7.3-1.94,8.89.43,2.75a28,28,0,0,0,1.79-6.22,5.25,5.25,0,0,1,.23-1.89c.6-1.28,1.29-.1,2,3.44.41,2,.93,3.56,1.13,3.49.44-.16.44-7,0-10s.77-3,2.55.61c.89,1.75,1.87,3.65,2.17,4.23.93,1.74-.26-4.17-1.92-9.23-1.81-5.58-2.16-9.55-.85-10,.58-.2.91.22,1,1.26.11,1.94,3.13,5.87,5.25,6.86,1.36.63,1.21.15-1-3.56-1.41-2.36-2.52-4.68-2.45-5.15.13-1,2.23-.17,2.71,1.15a3.06,3.06,0,0,0,1.86,1.4c1.05.31.3-.64-2.33-3a28.27,28.27,0,0,1-5.1-6c-3.39-6.69-3.17-6.4-3.39-4.72-.39,3-1.19.86-1.7-4.69-.45-4.85-.85-6.09-2.7-8.2-2.8-3.21-7.91-6.22-10.39-6.11s-6.93,2.81-9.14,5.41c-2.48,3-7.16,7.22-7.67,7-.23-.11-.18-1.12.09-2.25l.5-2.06-3.91,2.39a65.21,65.21,0,0,1-7.34,3.9l-3.3,1.4,3.07,3.06a48.19,48.19,0,0,1,5.51,7c1.35,2.16,2.53,3.77,2.62,3.57.29-.62-1.77-4.29-4.74-8.47-1.59-2.23-2.45-3.87-1.92-3.62,1.35.63,6.83,8.24,7.85,10.94a49.86,49.86,0,0,0,2.74,5.59c2.14,3.78,2.13,4.89-.07,3.28l-1.48-1.12.83,1.93c1.08,2.43.23,2.78-1.68.7a14.31,14.31,0,0,0-4.77-2.82c-2.77-1-4.1-1-8-.15-2.54.57-5,1.46-5.44,1.95s-1.05.79-1.33.65c-.91-.42-3.81,3.14-3.72,4.61.15,2,3.33,8.66,6.31,13,2.67,3.87,4.1,7.77,3.05,8.44-.89.58-3.41-.83-4.89-2.75-2.46-3.19-1.63-1.24,1.93,4.55,4.19,6.81,6.13,11,5.6,12.15s-1.06.78-2.83-1c-2.33-2.4-2.14-1.24.71,4.35a38.45,38.45,0,0,1,2.87,6.58c.14,1.74-1.46,2-2.63.47-.72-1-1.26-1.23-2.12-1a1.73,1.73,0,0,1-2-.89c-1.48-2-2.1-1.93-2.62.18-.6,2.46-1.47,2.14-3.22-1.22-.89-1.69-1.39-5-1.54-10-.24-8.5-.48-9.78-1.46-7.66-1.81,3.89-.48,13.89,3.08,23.34,2.41,6.64,2.67,9.17.6,8.17-1.32-.62-5.09-5-5.82-6.74-.33-.8-.52.35-.45,2.92.1,4.68-1.66,13.24-2.81,13.66s-3.26-5.25-3.27-9.25l0-3.73-1.29,1.69c-2.63,3.43-4.15,1.38-2.75-3.57a14.17,14.17,0,0,0,.56-4.29,14.47,14.47,0,0,1,.74-4.75c1.43-4.78,1.07-4.92-2.39-1-1.93,2.16-3.53,3.43-4,3.2-1.39-.65-.37-5.48,2.56-12.18,2.46-5.57,3.14-6.71,5.41-8.51a23,23,0,0,0,3.87-4l1.29-1.93-1.54,1.5a13.11,13.11,0,0,1-2.69,2,7.65,7.65,0,0,0-2.09,1.57,13.36,13.36,0,0,1-3.21,2.15L160,184.27l.11-2.6c.1-2.79,1.56-5,6.91-10.4,1.92-1.94,2-2.17,1.05-2.25-1.88-.13-1-2.08,1.72-4,3.25-2.26,4.83-4.37,5.56-7.41l.54-2.27L173.3,157c-3.84,2.54-9.46,4.67-10.73,4.08a1.14,1.14,0,0,0-1.54.38c-.26.55-1.88.9-3.85.85a20.12,20.12,0,0,0-5.68.66,7.65,7.65,0,0,1-3.77.26,41.08,41.08,0,0,0-6.25-.79c-5-.34-7.94-1.28-7.44-2.36a10.52,10.52,0,0,1,3.17-2.07l2.86-1.4-2-.66c-4-1.29-10.12-4.13-10.37-4.83-.52-1.41,2.08-2.1,5.62-1.57s3.63.53,2.08-.72c-2.18-1.77-6.25-7.89-5.62-8.51.27-.3,1.67-.26,3.09.07,2.24.51,3.28,1.32,7.63,5.92,5.84,6.19,8.68,8,3.56,2.33-3.62-4.07-4.28-6.41-1.78-6.92a1.7,1.7,0,0,0,1.4-1.33,1.2,1.2,0,0,1,.87-1.17c.56-.06.76-.57.64-1.57s.28-2,1.95-4c1.18-1.36,2.56-3.11,3.1-3.85l1-1.37-1.79.77a28.76,28.76,0,0,0-5.58,4.68c-6.54,6.72-7.85,7.26-7.77,3.23l0-2.16-3.92,1.31a36.78,36.78,0,0,1-8.44,1.53,40.3,40.3,0,0,0-6,.63c-1.1.32-1.58.17-1.85-.57-.55-1.5,4.31-4.07,10.49-5.56a38.93,38.93,0,0,0,5.3-1.48c.06-.12-.68-.32-1.69-.36-2.81-.2-6.59-2.17-6.12-3.17s7.27-2.44,14-2.78c6-.32,6.35-.75.43-.63s-7.75-2.51-1.93-3c2.77-.21,3-.35,2.37-1.48-.88-1.6-.48-1.71,4.77-1.24,4,.36,4.28.29,3.38-.92-2.48-3.36.51-3.46,11-.45,3,.86,6.21,1.7,7.13,1.89l1.67.32-2,.54c-2.32.59-5.08,0-10.08-2a16,16,0,0,0-4.89-1.33c-1.36.1-1.38.15-.49,1a18.63,18.63,0,0,0,4.93,2.3c2.22.77,3.93,1.61,3.81,1.88s-2.82-.12-6-.84a44.39,44.39,0,0,0-7.61-1.23c-1.83.08-1.84.1-.53.73,1.81.85,1.23,1.79-1.27,1.94-2.71.16-2,.49,1.35.63,2,.08,2.78.36,3,1.1.45,1.25-1.93,1.77-8.92,2a40.51,40.51,0,0,0-8.56,1.2l-3.36,1,2.1.57a25,25,0,0,0,7.38-.26c3-.47,5.39-.49,5.54-.05.56,1.51-1.2,2.75-4.18,3-3.76.27-14.83,3.26-16.94,4.58l-1.57,1,3.7-.12c5.12-.16,11.53-1.78,14.3-3.6,3-2,4.17-1.47,2.56,1.13s-.36,3.14,1.51.55c3.29-4.69,9-8.39,11.17-7.37,1.28.6.17,3.53-2.31,6.07s-1.89,3.42,1.25,1.48c2.42-1.47,3.3-2.48,4.72-5.39,1-2.15,2.06-3.53,2.54-3.48s.49.78,0,1.8l-.79,1.69,1.55-1.09a7.93,7.93,0,0,0,2.17-2.3,4.25,4.25,0,0,1,2.31-1.77,4.3,4.3,0,0,0,2.32-1.87c.93-2,4.9-4.75,9.33-6.47a24.59,24.59,0,0,1,4.18-1.36c.76.36-.54,1.31-3.72,2.68-3.6,1.58-7.52,4.29-7.31,5,.08.2.84-.26,1.68-1,2-1.83,5.91-3.19,5.28-1.85a2.8,2.8,0,0,1-1.67,1.23,15.48,15.48,0,0,0-4,3.1c-3,2.94-4.44,6.34-3.23,7.59.55.58.29,1.13-1.6,3.44-1.25,1.51-3.17,4-4.23,5.53-1.76,2.49-1.81,2.7-.58,2,1.46-.77,3.33-2.91,5.85-6.56,1-1.49,1.73-1.92,2.51-1.55s1.57-.21,3.51-3c4.28-6.25,9.45-9.71,9.91-6.65.16,1.09-.94,3-2.68,4.71-.64.61-.65.95,0,1.09,1,.23.43,1.69-3,7.31-1.22,2-2,3.78-1.73,4.13.51.79,1.93-1,6-7.64,4.45-7.17,5.18-6.7,2.84,1.82a5,5,0,0,0-.25,2c.25.7,3.08-4.08,4.78-8.1,1.34-3.18,1.66-3.56,2.49-3s1.16.27,1.67-.82a2.82,2.82,0,0,1,1.37-1.57,3.78,3.78,0,0,0,1.69-1.26c1-1.18,1-1.19-.79-.26s-1.8.92-3.47-1.11c-.93-1.12-2-2-2.38-2-1,.12-9.59-6.21-11-8.07-1.79-2.31-1.68-3.31.44-3.84,1.73-.43,1.8-.53.93-1.36-6.34-6.08-8.5-11.33-4.52-11,1.45.11,1.46.08.75-2.54-.42-1.48-1.1-2.83-1.56-3a1,1,0,0,1-.42-1.3c.85-1.81,3.36.47,5.9,5.3A51.1,51.1,0,0,0,181.1,99c.71.33-.49-6-2.15-11.25-1.87-5.9-1.76-8.76.32-7.8a5.38,5.38,0,0,1,1.87,2c.78,1.36.87,1.1,1.37-4.14.64-6.1.77-6.82,1.64-6.41,1.35.62,2.68,5.57,2.81,10.4l.13,5.16,1.46-3.14c.81-1.73,1.74-3,2.06-2.87,1,.46.83,5.62-.26,9.13-.56,1.82-.83,3.73-.57,4.25.39.85.46,3.53.19,9.62l-.08,1.78.89-1.79a6.61,6.61,0,0,1,2.19-2.53c1.21-.67,1.33-.49,1.44,2.42a35.72,35.72,0,0,1-.75,7.37c-.49,2.33-.94,5.09-1,6.15l-.13,2,2.36-1.81a13,13,0,0,0,3.14-3.35c.81-1.61,5.62-3,11.92-3.58,3.61-.32,2.41-1.09-2.71-1.86-3.71-.53-7.79-2.21-7.95-3.27,0-.37.75-1.1,1.78-1.61l1.85-1-4.3-3.57a42.39,42.39,0,0,0-6-4.34c-2.11-1-2.1-3,0-3.41a6.78,6.78,0,0,1,4,1.08c2.17,1.22,2.61,1.21,3.45.19,1.13-1.39,2.41-1,4.8,1.69,2.54,2.78,2.81,2.67,1.26-.51-3.87-8.11,3.39-2.13,8,6.6a23.82,23.82,0,0,0,2.57,4.21c.25.12,1-.45,1.59-1.27s2-2.45,3.15-3.66l2-2.19L221,98.4a8.48,8.48,0,0,1-3.08.42c-2.39-1.12,8-8.72,13.64-9.95a15.31,15.31,0,0,0,4.57-2l1.94-1.3-3.8.44c-4.54.52-7.85-.67-7-2.52.38-.81,1.73-1.33,4.12-1.54A44.19,44.19,0,0,0,238,80.77a28.71,28.71,0,0,1,4.49-1c1.21-.07,1-.26-1.2-.94-1.48-.46-2.58-1.09-2.44-1.39.72-1.55,5.66-2.66,10.34-2.3,2.81.21,5.43.19,5.8-.08s.23-.48-.67-.5a16.13,16.13,0,0,1-3.59-.74l-2.23-.7L251.2,72c1.51-.64,3.39-1.36,4.18-1.59,1.29-.4,1.27-.67-.71-3.57-3.39-5-2.34-7.44,2.13-4.94,1.82,1,4.33,3.61,8,8.23a92.77,92.77,0,0,0,6.05,7.24,3.53,3.53,0,0,1,1.12,1.44,4,4,0,0,0,1.87,1.65c1.45.68,1.47.61.05-1.6A10.4,10.4,0,0,1,272.4,76c0-.31-.47-.78-1-1.06A3,3,0,0,1,270,73.16a2.68,2.68,0,0,0-.92-1.53,42.45,42.45,0,0,1-4.29-5,60.41,60.41,0,0,0-5.32-6.09c-.86-.72-2.58-2.31-3.8-3.57-1.89-1.91-2.87-2.44-6.62-3.49-7.06-2-12.41-1.37-19.24,2.06a34.73,34.73,0,0,1-24,2.26c-2.3-.64-2.69-.59-1.92.21a16.77,16.77,0,0,1,2.2,4.57c1.5,4.37,2.18,4.79,2.3,1.42a5.59,5.59,0,0,1,.7-3c.83-.54,5.2,8.32,5.06,10.24-.19,2.77,3.12,10.28,6,13.64,2.74,3.18,3.86,5.38,2.9,5.77-.27.1-1.32-.9-2.3-2.18a14.6,14.6,0,0,0-2.45-2.64,22.82,22.82,0,0,1-3.09-3.2,29.68,29.68,0,0,0-4.7-4.4c-1.44-1-.73,0,2.05,2.71,5.26,5.27,9.26,10.26,9.09,11.44-.09.61-.77.09-2.08-1.59A44.38,44.38,0,0,0,215,86a23.4,23.4,0,0,1-3.57-3.87c-1.2-2-5.41-3.38-9.51-3.26a21.82,21.82,0,0,1-5.22-.58c-2-.5-2.33-.79-2-1.57s-.08-1.22-1.36-1.81S191.69,73.8,192,73.2s-.33-1.26-2.75-2.39c-1.74-.81-3.33-1.9-3.51-2.43-.39-1.06-5.26-1.17-7.4-.14-1.61.76-1.05,1,2.61.9,3.94,0,4.2.67.27.81a28.82,28.82,0,0,0-5.82.93c-2.79.82-2.84.89-4.25,5a23,23,0,0,0-1.19,9.31c.21,4.74-.76,11.87-2,14.58-.39.84-.78.9-1.61.21s-1.16-.7-1.51.85c-1.64,7.45-3.63,9.94-3.67,4.61,0-3.14-.71-3.64-1.84-1.2-.93,2-2.81,2.33-3.41.61-.22-.56.4-3.51,1.36-6.56L159,92.77l-4,8.71c-2.9,6.37-4.37,9-5.44,9.75s-1.47.79-1.58.11-.91-.42-2.38.62c-2.28,1.57-3.48,1.69-3.3.25a61.2,61.2,0,0,1,4.84-7.41,75.83,75.83,0,0,0,4.61-6.89,16.5,16.5,0,0,0-3.1,2.68,17.15,17.15,0,0,1-4.59,3.44c-1.51.47-1.6.43-1.52-.71,0-.66,1.55-2.95,3.33-5.06,3-3.64,3.18-3.91,2.21-4.37s-.82-.76.71-2.76c2.12-2.75,6.14-6.24,11.32-9.81a33.07,33.07,0,0,0,4.88-3.95c.59-.72,1.43-1.13,1.9-.91s1.2-.41,2.1-2.33l1.27-2.72-2.2.35c-2,.37-4.51,1.42-11.07,4.67a34.38,34.38,0,0,0-10.21,7,37.21,37.21,0,0,1-4.76,3.91,8.21,8.21,0,0,0-1.94,1.37,14.74,14.74,0,0,1-4.52,1.75c-3.25.83-4.55.74-10.09-.74-4.38-1.18-7.38-1.57-9.65-1.26a13.68,13.68,0,0,0-3.41.69c-.07.15,1.16.39,2.74.55,3.87.37,5.48,1.16,4.43,2.16-.54.54.79.68,4.1.42,2.7-.2,4.8-.14,4.67.13-.36.79-13.73,2.6-15.7,2.12s-2-1.13.31-2.46c1.53-.92,1.54-1,.07-.85a7.29,7.29,0,0,1-3-.62c-1.3-.6-1.36-1-.49-2.82.6-1.27,1.4-2.1,2-2.06a2,2,0,0,0,1.61-1.21,24,24,0,0,1,3.27-4l2.66-2.76-2.45,1.06c-3.09,1.39-9.77,3-10.68,2.59a.86.86,0,0,1-.3-1.16c.38-.81,6.21-4.53,9.31-5.93,2.87-1.3,3.45-1.91,1.72-1.81s-4.72-1.1-4.36-1.87c.13-.28,1.65-.73,3.37-1,2.78-.42,3.11-.64,2.93-2-.22-1.9.49-2.21,6.2-2.53,5.11-.28,6.27-1.12,3.43-2.45a7.32,7.32,0,0,1-2.82-2.29A11.58,11.58,0,0,0,123.2,58c-2.06-1.65-1.36-2.41,1.48-1.61,3.67,1,3.95,1,2.18-.37-3.3-2.58-5.09-4.7-4.71-5.51s1.33-.49,4.95,1.21a35.85,35.85,0,0,1,6,3.37l1.51,1.29-1.14-2.48c-2-4.39.59-3.63,5.89,1.74,2.34,2.36,2.4,2.38,1.91.89-1.48-4.77,4.81,1.14,8.24,7.72,2.76,5.3,4.2,6.9,6.79,7.58,2.06.51,2.28,1.75.29,1.62-3.3-.24-4.8-1.85-9.64-10.42a25.06,25.06,0,0,0-2.55-3.81c-.95-1-.95-1-.39.84a13.38,13.38,0,0,0,1.81,3.45c.69.88,1.13,1.87,1,2.2-.53,1.14-2.06-.3-4.59-4.35C138,54.54,133,50.86,136.46,57c1,1.78,1.69,3.48,1.55,3.78-.35.74-.1.92-4.39-3.21-3.35-3.25-8.19-6.31-9.32-5.89-.24.08,1.47,1.58,3.78,3.34,5.93,4.45,6.14,4.79,2.59,4.05-4.62-1-4.86-.38-.66,1.58a17.45,17.45,0,0,1,5.35,3.68c1.31,1.59,3.07,2.53,9.77,5.42,7.47,3.17,9.51,4.43,6.76,4.25a43.8,43.8,0,0,1-5.71-1.76c-6-2.17-6.79-1.86-10.67,4.53A30.08,30.08,0,0,1,131,82.89c-2.86,2.09-4.34,2.59-5.15,1.73-.66-.67-.42-1.47,1.29-4.58A18.06,18.06,0,0,0,129,76.18a30.74,30.74,0,0,0-4.18,3,57.28,57.28,0,0,1-7.28,4.86l-3.33,1.76,1.71.44a10.19,10.19,0,0,0,3.21.21,17.73,17.73,0,0,1,5.62,1.22C130.23,89.61,133.09,90,136,89s4.34-1.94,5.86-4.36c1.78-2.84,8.57-8.15,10.41-8.12a7.16,7.16,0,0,0,3.48-1.41,6.44,6.44,0,0,1,2.93-1.4c1.46.1,1.71-1.09.35-1.72-2.07-1-.82-1.65,2.35-1.31,2.11.22,5.17-.44,10-2.18a43.9,43.9,0,0,1,11-2.62c4.79-.07,7.69.44,7.3,1.29-.16.33-.82.52-1.48.41-.95-.17,10.73,5.09,18.24,8.21,4.42,1.84-2.73-2.61-8.47-5.26l-6.76-3.15c-1.26-.67.44-1.3,1.8-.66,2.54,1.18.83-.34-3.5-3.13-6.19-4-8.45-6-7.95-7a.93.93,0,0,1,1.17-.55c.41.19.26-.72-.35-2-.92-1.94-.9-2.34,0-2.48a2.74,2.74,0,0,1,2,.53c.44.38,2.27,1.7,4.14,3a37.4,37.4,0,0,1,6.06,5.39,34.08,34.08,0,0,0,3.13,3.34c.22.1-.45-1.82-1.48-4.27-1.31-3.08-1.61-4.55-1-4.8s1.28.15,2.19,1.32l1.28,1.7-.28-1.92c-.37-2.38-.22-2.67,1.08-2.1.58.27,4.34.4,8.35.31,7.28-.2,7.28-.2,5-1.47-3.17-1.81-2.28-3.27,1.52-2.48l2.93.6-1.72-1.5c-1.92-1.67-2.18-3.51-.38-2.67,2.11,1,2.28.15.43-2.16-2.4-3-1.87-4.1,1.1-2.35a12.31,12.31,0,0,0,5.81,1.47,18.1,18.1,0,0,1,5.28.84c1.64.77,1.67.72.57-.45-1.42-1.51-.25-3.43,1.53-2.48.76.36,1.26.29,1.31-.23.1-1.59,1.42-1,5.38,2.35,2.53,2.15,4.63,3.48,5.85,3.72,1.73.33,1.83.25,1.21-.88s-7.46-5.55-13.8-9c-5-2.77-13.77-5.32-15.65-4.49-2.64,1.12-7.31,5.33-8.41,7.57-1.32,2.81-6,7.84-7.07,7.73s-.79-3.24.58-6.35l1.17-2.5-2.16,2.64c-3.83,4.67-9.75,9.64-10.87,9.12-.43-.21-.7-1.18-.57-2.18.2-1.81.2-1.81-2.08.14s-3.89,1.81-2.54-.48c.72-1.25.59-1.26-1,0-2.37,1.79-6.19,3.3-7.17,2.85s-.18-2.22,2.17-4.36c2.61-2.36,1.56-2.59-2.68-.55-5.17,2.49-8.92,1.9-5.37-.84,1.45-1.11,1.71-1.6,1.44-2.63s-.54-1.07-1.81.26c-.81.85-1.79,1.47-2.14,1.39s-1.82,1.28-3.26,3-2.86,3.07-3.18,2.93-.16-2,.46-4.2c.79-3.06.78-3.69-.05-2.94-2.42,2.18-10.48,7.25-12,7.48-2.62.47-3.44-.19-2.18-1.74.87-1.08.85-1.35-.07-1.41-1.71-.12-.81-1.32,2.72-3.65,3.92-2.58,4-2.84,1.14-2.31a7.19,7.19,0,0,1-3.54-.05c-1-.45-1.61,0-3.52,2.66-3,4.11-6,5-4.37,1.36.39-.85-.27-.6-2,.82-3.41,2.74-4.85,2.15-3-1.31l1.32-2.53-2.24.91c-1.24.53-2.51.63-2.84.29s-2.78,1-6.18,3.59c-3.07,2.34-5.77,4.14-6,4-1.2-.56,1.94-7.6,4.72-10.57.74-.76.73-.88-.13-.39A22.61,22.61,0,0,0,118,43.74c-5.48,5.82-7.66,7.71-8.48,7.33-.59-.27-.53-1.09.19-2.63l1-2.23L108,47.85c-3.11,1.94-8,3.93-8.64,3.61s1.87-5.5,3.93-7.82A18.24,18.24,0,0,1,109,40c5.18-2.1,5.55-2.85,1.35-2.69-1.55.06-2.38-.19-2.6-.8s2.51-1.85,8.52-3.89c4.86-1.65,9.54-3.12,10.41-3.27,1.49-.26,1.52-.33.84-1.58-1-1.95.94-2.94,4.55-2.29a25.9,25.9,0,0,0,4.65.46,2.79,2.79,0,0,1,2.11.54c.23.35.66.12,1-.51a3.07,3.07,0,0,1,1.79-1.49c2.51-.64,1.55-1.23-4.1-2.54-6.63-1.52-10-3.39-9.68-5.44a2.61,2.61,0,0,1,1.26-1.86c.88-.42.66-.85-1.2-2.38-3.92-3.19-4.11-3.41-3.74-4.21.72-1.53,2.8-1.48,5.45.14,2.41,1.47,2.55,1.48,2.15.13-.63-2.07,0-3,1.55-2.22s10.54,8,12.74,10.24,2.74,2.23,2.15.33c-.29-.94-.27-1.78,0-1.89.61-.23,7,4.84,9.35,7.42,2,2.16,8,5.08,9.45,4.57.57-.21,1.13-.08,1.28.29.49,1.33-2.92,1.26-5.88-.13a35.86,35.86,0,0,1-7-5.13c-2.2-2-4.26-3.6-4.56-3.47s-.25.51.06.84A1.12,1.12,0,1,1,149.51,21a24.84,24.84,0,0,1-4.06-3.39c-3.68-3.57-11.69-10-12.23-9.79-.22.09.75,1.92,2.17,4.08s2.48,4.16,2.36,4.41c-.31.67-1.11.29-1.52-.71S130.38,9.89,128.5,9c-4.07-1.9-.79,2.06,4.58,5.51,2.89,1.87,2.56,2.3-1.33,1.8-6-.77-2.26,2.25,5.45,4.31a70.7,70.7,0,0,0,7.49,1.73c2.56.29,5.49,1.65,5.14,2.4-.15.31-1.38.57-2.73.58a14.84,14.84,0,0,0-4.48.82l-2,.81,2.52.43a21.65,21.65,0,0,0,5,.11,8.47,8.47,0,0,1,3.4.18,2.86,2.86,0,0,0,2.13-.11,6.59,6.59,0,0,1,3.47.06,43.92,43.92,0,0,0,6.57.86c4.4.28,6.61.88,6.19,1.78-.93,2-4,3.86-8.9,5.31-10.71,3.2-15.09,4.74-14.4,5.08.39.18,2.86-.34,5.5-1.18,3.45-1.08,4.9-1.23,5.15-.55s-.55,1.51-2.85,2.91c-3.42,2.1-4,2.77-3,3.26.36.16.31.63-.13,1-2.69,2.51-2.66,2.45-1.15,2.08,1.84-.46,9.09-5.69,11.13-8,2.53-2.88,2.89-1.64,1,3.35l-1.8,4.61,1.85-2a41.09,41.09,0,0,0,4-5.78c3.89-6.67,8-10.75,12.62-12.55a30,30,0,0,1,6.76-1.79c1.45-.11,3.83-.42,5.29-.7a24.43,24.43,0,0,1,6.22-.08,14.43,14.43,0,0,0,5.16-.18,5.34,5.34,0,0,1,4.15.57,24.37,24.37,0,0,0,4.87,1.6c5.26,1,7.2,1.74,6.78,2.64-.49,1.06-2,.76-8.81-1.79-3.17-1.18-5.38-1.72-5.32-1.29s1.09,1.12,2.33,1.59c3.4,1.3,2.74,2.29-1.27,1.93-2.73-.25-3.61-.06-3.78.83s-1.85,1.17-8.08,1.18c-8,0-13.55,1.18-11,2.35a16.72,16.72,0,0,0,5.23.37c3.74-.18,5.56.39,5,1.49-.22.47-11.42,3.63-16.52,4.68-1.69.31-2.44.79-2.12,1.28s-.22,1.16-1.85,2.27c-2.85,2-2.22,2.41.82.62s9.17-3.9,9.43-3.2c.11.32-1.11,1.89-2.73,3.48-3.45,3.45-3.56,3.64-2.29,3.73.54,0,2-1,3.32-2.25,4.42-4.37,7.89-5.58,5.28-1.86-.9,1.29-.18.92,2.58-1.35,2.54-1.94,4.23-2.88,4.85-2.59.91.42.79.68-1.14,2.85a20.18,20.18,0,0,0-2.7,3.67c-.54,1.16-.45,1.18,1,.17a67.29,67.29,0,0,0,6.21-6.2c4.67-5.14,7.16-7.22,8.1-6.78.28.13-.59,1.61-1.93,3.29a19.38,19.38,0,0,0-3,5.21c-.58,2.18-.58,2.18,1,1.29.85-.49,2.71-2.78,4.12-5.1,2.15-3.51,3.07-4.45,5.68-5.75,5.74-2.84,7-3.14,9.7-2.37l2.65.76-1.36-1.57a35.19,35.19,0,0,0-5.61-4.27c-4-2.54-4.47-3.08-6.33-7.16-1.08-2.41-1.78-4.48-1.51-4.59a8.05,8.05,0,0,1,3,1.11l2.47,1.27-2-1.94c-1.1-1.06-2.66-2.45-3.47-3.07-1-.76-1.31-1.51-.94-2.3A3.65,3.65,0,0,0,206.45,7c-.92-1.53-.91-1.78.17-2s1.17-.42.53-1.82c-1.86-4.18,4.2-1.42,7.71,3.45l1.94,2.71L216,5.43c-.43-2.13-.61-4.31-.36-4.84.84-1.81,2.86.11,4.3,4.09.82,2.26,1.6,3.54,1.83,3.06.67-1.44,2.52-.06,3.33,2.48A34.52,34.52,0,0,1,226.3,16c.36,3.23.54,3.1,1.09-.77s4.36,2.49,4.88,8.16a39.44,39.44,0,0,0,2,7.78c1.61,4.27,2,4.75,5.15,6.64A96.13,96.13,0,0,1,252,47.45c.46.48.69.44.64-.08a5,5,0,0,0-1.79-2.14c-2.36-1.79-8.41-8.54-9-10-.36-.91-.21-1.32.61-1.71,1.5-.71,1.05-1.49-1.59-2.72-3.34-1.55-4.88-3.43-6.33-7.72-2-5.8-.24-5.82,5-.09,3,3.26,1.54.4-1.73-3.4a19.66,19.66,0,0,1-3.29-5.81c-1-3.26-.79-4.93.43-3.67,1.07,1.11,1.28.15.39-1.8-.69-1.51-.63-1.73.59-2.17s1.57-.17,3.54,2.75A19,19,0,0,0,241.71,12c.06-1,.07-2.05,0-3.07-.12-5.67,2.36-3.8,4.54,3.44l1.35,4.46,1-3c.54-1.65,1.2-2.9,1.48-2.77,1.26.59,3.34,9.39,3.35,14.32.06,7.54,1.23,8,3.64,1.32,1-2.75,2-4.88,2.32-4.74.78.36,1.1,6.22.57,10.46-.36,3.14-.31,3.59.55,2.62.57-.64,1.21-1.07,1.44-1,.9.43.82,6.16-.09,8.12-1.43,3.05-2.09,8.71-1.35,11.5.65,2.42.47,4-.42,3.56a3,3,0,0,1-.64-1.75c-.25-2.08-.93-2.28-1.75-.51-.52,1.1-.32,1.71.85,2.6a21,21,0,0,1,3.06,2.9l3.14,3.67c.91,1.06,2.35,2.88,3.21,4,2.07,2.83,3,3.26,1.49.7-1.84-3.14-6.31-8.72-7.34-9.2a1,1,0,0,1-.48-1.33c.23-.5.58-.84.76-.75.7.32,7.18,8.87,9.82,12.88a13,13,0,0,0,2.27,2.47,18,18,0,0,1,3.15,5.2,24.28,24.28,0,0,0,2.21,4.34c1,.46,1.13-2.78.2-3.9a2.41,2.41,0,0,1-.56-2.32c.58-1.25-2.85-11.26-4.06-11.82a23.65,23.65,0,0,1-3.55-3.86,23.73,23.73,0,0,0-3.46-3.83c-1.09-.5-3.25-5.8-3.35-8.18-.11-2.6,0-2.83,1.09-2.33s1.06.79.91-3.51.48-6,2.08-5.27c1.32.61,5.6,6.76,5.25,7.52-.13.26.11.82.52,1.25s.79.65.86.52c.21-.46-7.82-17.86-8.36-18.11a.63.63,0,0,1-.28-.83,11.55,11.55,0,0,0-.2-3.47,9,9,0,0,1,.89-5.81c.74-1.59,1.53-2.83,1.75-2.72a12.63,12.63,0,0,1,1.32,3.53c.51,1.83,1.25,3.49,1.6,3.65.53.24.59.12.22-.47-.8-1.25-.79-10,0-10.79,1.16-1.12,3.37,2.23,4.07,6.2.32,1.84.69,4,.83,4.81.24,1.21.51.85,1.9-2.57,1.7-4.21,2.11-4.54,2.89-2.36.62,1.69.58,11.81,0,13.14a35.8,35.8,0,0,0-1.18,5.51c-.39,2.46-.86,5.23-1,6.14a11.55,11.55,0,0,0,.28,4.18l.66,2.51.44-4.21c.43-4.15,3.5-12.49,5.26-14.29.75-.76.94-.58,1.33,1.58.62,3.27-.28,9.46-2.63,18.2-1.05,3.92-1.7,6.72-1.43,6.25a51.47,51.47,0,0,1,5.53-8.33l1.25-1.23.42,2c.48,2.25-.08,4.5-3.14,12.58L286,67.54l2-3c2.34-3.51,7.07-7.73,8.13-7.24.41.19.58,1.13.4,2.1-.51,2.63-5,10.32-7.73,13.11a27.2,27.2,0,0,0-6.63,14.91c-.18,2.22-.19,8.26-.05,13.42.28,9.57.08,12.52-1.06,16.29a10,10,0,0,0-.56,2.48c.07.18,1.71-1.29,3.55-3.34a76.15,76.15,0,0,1,7.5-6.86,62.09,62.09,0,0,0,5.24-4.47c1.69-1.89,2.1-6.87.84-11.56-.68-2.6-.76-4.34-.22-4.93s.28-2.31-1-5.64c-1-2.59-1.65-5.08-1.46-5.51a12.91,12.91,0,0,0,.26-3.67c-.14-3.8.25-4.5,1.83-3.35,1.27.92,1.32.86,2.75-3,.81-2.16,1.64-3.85,1.84-3.76a11.5,11.5,0,0,1,1.69,2.17c1.53,2.28,2.3,6.2,2.06,10.43-.08,1.6.08,3,.39,3.16.85.4,1.36-3.12.9-6.2a10.72,10.72,0,0,1-.17-3.39c.43-.9-.95-7.42-1.55-7.24-.82.3-1.5-1.91-1.4-4.53.15-3.24,2.28-9.25,3.57-10,.83-.5,1.15-.29,2.15,1.31,1.58,2.53,1.78,3.75,1.41,8.3a23.32,23.32,0,0,0,.35,6.35l.64,2.5.61-2.26a56,56,0,0,0,1.08-7.52c.64-7.84,2-15.4,2.94-16.28,1.15-1.1,2.43.67,2.68,3.73l.23,2.32,1.64-2.75c4.23-7,4.45,2.29.38,13.76l-2.56,7.18,2.81-4.15a42.27,42.27,0,0,1,4.89-6c3.35-3,3.34-.82,0,6.07-2.56,5.27-4.24,7.63-10.57,14.93-.43.51-.49,1-.2,1.19.71.33,3-2.09,5.22-5.58,2.41-3.75,4.58-5.87,5.54-5.42.58.27.51,1.1-.2,2.63l-1,2.23,2.25-1.29c2.46-1.43,3.38-1.42,2.7,0-.8,1.73-7.72,8.65-11.76,11.79-5.7,4.42-5.54,5.87.22,2.06,2.6-1.73,5.13-3.12,5.6-3,2.58.33-4.93,9.17-10.75,12.64-2.71,1.62-10,9.21-9.67,10.08.06.2,1.46-.29,3.08-1.09a17.45,17.45,0,0,1,6.28-1.49c1.82,0,3.45-.3,3.6-.63A7,7,0,0,1,319.31,98c5.4-2,7.37-4.28,15.89-18.68,1.18-2,2.05-2.86,2.58-2.61.79.37.49,5.3-.52,8.49-.49,1.57-.48,1.58,1.41.17a7.55,7.55,0,0,0,2.81-4.28c1.85-6,6.44-10.45,5.51-5.36-.3,1.6.16,1.28,3.66-2.62a38,38,0,0,1,4.67-4.65c2.11-.73.14,5.07-3.32,9.85a13,13,0,0,0-1.69,2.7,31.82,31.82,0,0,0,4.7-3.27c5-3.82,9.47-6,10.93-5.3,1.18.55.82,1.33-1.43,3.08-1.73,1.33-1.75,1.39-.36,1.56q3,.39-2.41,4.19a55,55,0,0,1-11.52,6.35l-3.69,1.47,3.37-.75c6.05-1.33,12.92-.59,12,1.3-.19.41-2.89,1.72-6,2.93-5.26,2-7.56,2.27-13.42,1.39-.52-.07-.86.11-.75.41s1.59.74,3.28,1c5.68.94,3.91,2.93-3.06,3.41a27,27,0,0,1-7-.39,11.18,11.18,0,0,0-5.85.32A10.92,10.92,0,0,0,326,100a11.85,11.85,0,0,0,3.15.69l9.19,1.34c13.88,2.06,18.84,1.52,25.44-2.72a10.67,10.67,0,0,1,3.31-1.68c.23.11.15,1-.16,1.92-.47,1.4.17,1,3.17-2.08a34,34,0,0,0,4.44-5.21c.93-2,5.22-7,6.32-7.38.64-.24,1,0,1.29.7s.72.93,1.87.58c3.7-1.15,2.42,2.84-2.18,6.7l-3,2.65,3.79-1.33c2.08-.72,4.11-1.18,4.51-1,.91.42.77.71-1.47,2.45a21.55,21.55,0,0,0-3.15,3,29.79,29.79,0,0,1-2.27,2.49c-.85.79-.48.88,2.59.58,2-.18,3.65-.15,3.73.09s-1.4,1.63-3.29,3.11a32.59,32.59,0,0,1-17.85,6.27l-5.38.25-.21,3.91-.2,3.91,1.49-2.06c.83-1.17,1.74-1.84,2.05-1.54.87.8-.42,11.16-1.73,14-.65,1.38-1,2.77-.77,3.1.54.83,2.86-3.18,3.68-6.42,1.17-4.51,5.46-10.28,9.66-13,2.22-1.43,2.67-.74,1.4,2.11l-1.14,2.56,1.84-1.69c4-3.66,7-5,5.87-2.61-.37.8.08.75,1.74-.21,2.88-1.66,3.38-1.39,2.17,1.19-1.08,2.32-8.53,11.56-10.5,13.06l-1.28,1,2.31-.47c1.23-.27,3.23-.7,4.36-1,2-.48,3.74-.21,3.41.49a47.93,47.93,0,0,1-4.13,3.52c-2.17,1.76-3.74,3.3-3.5,3.41a13.11,13.11,0,0,0,3.36-.26,17.67,17.67,0,0,1,3.17-.34c.69.32-.92,2.35-2.92,3.69-2.43,1.61-2.44,1.41.22,5.41.65,1,1.54,2.38,1.93,3.1.6,1.09,1.12,1.1,3.86,0,1.74-.71,3.56-1,4.07-.65s1.43.1,2.49-1c1.5-1.59,7.07-4.16,8-3.71.81.37-1.37,4.34-3.38,6.14-3.59,3.26-1.64,2.55,3-1.1,5.79-4.58,9.4-6.35,10-5,.33.69.7.87,1.16.54a5.87,5.87,0,0,1,2.21-.53c1.46-.08,1.46,0-.11,2.31a22.35,22.35,0,0,1-4,4.3c-1.9,1.5-2.08,1.79-1.14,1.86,1.57.11.92,1.13-1.61,2.55l-2.09,1.25,3.08-.5c5.72-.92,5.19.5-1.17,3.15-4.61,1.91-5.5,2.76-2.75,2.6,1.81-.09,4.06.86,3.72,1.6a2.57,2.57,0,0,1-1.5.84c-1.75.47-1.91,1.23-.33,1.51.93.17,1.19.56.89,1.21s-.69.86-1,.73a16.71,16.71,0,0,0-4.55.79c-2.25.58-4.46.87-4.95.63a7.65,7.65,0,0,0-3.3,0c-2.31.37-2.32.39-.78.9,1.13.36,1.41.74,1,1.31s.72.34,2.3-.19a10,10,0,0,1,3.45-.76c.27.13-.12,1.17-.88,2.32-1.36,2-1.36,2.07.22,1.14,2.78-1.63,16.25-4.09,16.66-3,.08.21-.35.76-1,1.2s-2,1.53-3.05,2.39L409,172.76l2.66-.46c1.46-.25,3.72-.72,5-1.06,1.55-.38,2.49-.31,2.71.25,1.34,3.71-13.71,9-22.09,7.73a16.2,16.2,0,0,0-3.4-.33c-.12.26,5.88,2.67,9.8,3.94,2.21.71,6.28,1.08,11.15,1,5.62-.1,8.6.23,11.11,1.16l3.42,1.3-2.78.6a8.75,8.75,0,0,1-3.6.21,6.37,6.37,0,0,0-2.37-.3c-2.27.14-1,1.58,1.92,2.2s7.1,2.48,8.19,3.61a1.61,1.61,0,0,1,.4,1.63c-.42.91-3.37.55-4.5-.63s-4.29-1.69-3.62-.66c.91,1.38-.84,1.81-3.13.74-3.43-1.52-1.12.58,3.86,3.56,4.59,2.73,4.94,4,1.14,4.19a5.41,5.41,0,0,0-2.39.4,10.19,10.19,0,0,0,2,2.77c1.17,1.35,2,2.75,1.88,3.08-.43.91-7.61-3.54-9.65-6-1.62-2-1.69-2-1.9-.82-.35,1.92-2.17,1.34-4.71-1.5l-2.35-2.57,1.5,3.46c.82,1.9,1.31,3.53,1.08,3.61a23.55,23.55,0,0,1-4.76-2.32c-3.41-2-4.66-3-5.82-5.1-1-1.72-1.79-2.51-2.35-2.3a4.57,4.57,0,0,1-2.65-.62c-1.38-.72-1.45-.85-.32-.57,2.06.52,2.23-.39.49-2.6a19.69,19.69,0,0,1-2.24-3.71c-.63-1.4-1.75-2.33-5.62-4.34s-4.6-2.25-3.52-1.12c.74.77,1.22,1.68,1.12,1.91-.27.58-3.11-1.75-6.53-5.34-2.75-2.91-3.59-3.08-1.92-.4.63,1,1.93,3.56,2.89,5.64,1.8,4,1.83,3.8-1.59,8.33-1,1.33-1.15,1.81-.5,1.74a1.61,1.61,0,0,0,1.17-.73,29.93,29.93,0,0,1,4.52-3.49c5.63-3.84,12.13-4.71,7.34-1a22.37,22.37,0,0,0-3.39,3.35L385.23,193l3-1.29a11.33,11.33,0,0,1,3.38-1.09c.22.1,0,1.08-.58,2.25-.79,1.7-.71,2.39.42,3.84,2.07,2.65,2.46,2.42,1.09-.6-.68-1.49-1-2.8-.69-2.91.52-.19,3.68,5.37,4,7s-1.27,1.23-3.3-.77c-1.16-1.12-2.16-1.89-2.25-1.7A12.35,12.35,0,0,0,391,201c.79,2.7.57,4.91-.42,4.41a35,35,0,0,1-3.31-4.07l-3-3.85-3.14,1.1c-3.12,1.1-3.12,1.11-1.3,1.48,2.6.52,1.87,1.43-2.53,3.23-2.06.84-3.21,1.57-2.57,1.62s1.1.21,1,.37c-.48,1-4.49,4.52-6.33,5.55-3.62,2-2.12,2.32,3.52.75,6.08-1.66,11.88-2.64,12.12-2.07.08.23-.94,1-2.28,1.74a9.82,9.82,0,0,0-2.71,1.9,6.21,6.21,0,0,1-2.33,1.51c-1.77.77-1.82.82-.33.43a5.47,5.47,0,0,1,2.16-.26,8.15,8.15,0,0,0,2.6-.24,14.4,14.4,0,0,1,5.11.29,29.59,29.59,0,0,0,4.18.78c2.33.09.69,1.37-4,3.13l-4.64,1.74,4.33,1.66c3.78,1.46,4.65,2.07,7,4.91A20,20,0,0,1,396.9,231c0,.36-1,.69-2.34.74-2,.09-3.38-.47-7.78-2.85-5.52-3-6.58-3.29-4.46-1.13,1.78,1.85,5.87,10.14,5.45,11.05-.23.49-1.07.47-2.19-.05-1.33-.62-1.8-.56-1.85.24-.14,2.15-3-.47-7.18-6.66l-1.71-2.46.47,2.5a7.92,7.92,0,0,1,0,3.46c-.49,1.07-2.1.59-2.26-.66a14.81,14.81,0,0,0-2.5-3.72,38.25,38.25,0,0,1-4.65-8.69c-1.24-3.17-2.58-5.91-3-6.08s-.38.17,0,.78a2.26,2.26,0,0,1,.39,1.9,3.36,3.36,0,0,0,.65,2.44c1.27,2,1.47,4.71.44,5.08s-6.72-7.1-8.82-11.84-4.07-7.33-6.32-8.38c-.85-.4-1.42-1-1.27-1.32s-.16-.8-.69-1,.46,3.74,2.45,9.56c1.86,5.49,3.26,10.35,3.11,10.68s-2-4.23-4-10.09-3.61-11-3.47-11.31c.57-1.22,3-1,5.39.42,1.53.94,2.57,1.27,2.76.87s.84-.57,1.53-.48a15.92,15.92,0,0,0,4.76-1.09c3.77-1.35,7.58-4.9,14.53-13.53,4.25-5.27,4-4.77,2.91-5.26a8.52,8.52,0,0,1-2.14-2c-2.78-3.51-5-5.65-6.43-6.31-.81-.38-1.34-1-1.19-1.28s-.13-.79-.63-1c-1-.47-1.18-.24-1.88,2.69l-.52,2.08,4.22,1.48c4.57,1.6,5.3,2.47,3.2,4.07-1,.74-1,1-.25,1.36,1.52.7-.16,2.35-2,2A21,21,0,0,1,365,184.9c-3.69-2.26-4.26-1.61-2.79,3.17,1.15,3.74,1,4.72-.73,3.93-.91-.42-1.64,0-3,1.67a19.7,19.7,0,0,1-8.63,6.3c-3.61,1.2-3.82,0-.24-1.32,2.66-1,6.91-3.79,7.41-4.86.11-.24-1.11,0-2.74.57-1.92.67-3,.73-3,.15a1.57,1.57,0,0,1,1-1.37c1.31-.62,4.68-6.28,4.43-7.45a19,19,0,0,0-1.58-3.27L353.64,180l.63,2.9c1.08,4.8-.57,6.28-2.56,2.35-1.21-2.4-1.72-2.25-2,.6-.49,4.79-1.44,4.41-1-.42a26.76,26.76,0,0,0-.22-7.26,6.59,6.59,0,0,1-.28-2.68,4.16,4.16,0,0,0-.81-2.16c-.56-.93-1.16-1.41-1.31-1.09a1.51,1.51,0,0,0,.2,1.29c.27.4.46,3.1.43,6a26.31,26.31,0,0,0,.36,5.88,4.54,4.54,0,0,1,0,2.48,8.5,8.5,0,0,0,0,3.1c.56,1.91-1.63,9.29-3,10.36-1.09.81-1.23.77-2-.7-.47-.86-2-3.3-3.31-5.42s-3.14-5-4-6.32c-1.66-2.73-5.63-7.78-6.34-8.09-.25-.11.73,1.45,2.22,3.43a110.72,110.72,0,0,1,10.55,18.16c1.37,3.39,1.36,3.82-.09,7.69-1.38,3.7-3.76,7.89-7.76,13.71L332,225.73l1.76-1.39a10.74,10.74,0,0,0,2.39-2.77c.47-1,.91-1.18,1.41-.65.84.87,1.29.08,2.33-4.07.38-1.51.84-2.53,1.05-2.25a8.28,8.28,0,0,1-.54,3.35,8.3,8.3,0,0,0-.5,3.44,22.29,22.29,0,0,1,.62,5,28.62,28.62,0,0,0,1.43,7.38l1.21,3-.43-2.56a12.45,12.45,0,0,1,.06-4.39,8.38,8.38,0,0,0-.21-3.92c-1.47-4.61-1.27-11.63.43-16.89.47-1.46.69-1.64,1-.8a3,3,0,0,0,1.33,1.5c1,.48,4.79,10.62,5.46,14.74.41,2.4,1.81,4,2.41,2.76.48-1,2,.14,4.83,3.71a16.46,16.46,0,0,0,10.8,6.49c3.2.5,12.89,4.91,13.31,6.05s-2.92,2.44-4.54,1.68c-.67-.31-1.33-.28-1.48,0s.46.95,1.36,1.37a55.14,55.14,0,0,1,5.92,3.86c2.35,1.69,4.37,3.14,4.51,3.21s.06.51-.18,1-1,.64-1.92.21c-2.2-1-2.27.15-.11,1.7s5.65,6.15,6.13,8-2.47,1.68-5.23-.09L384.35,263l1.36,3.83c1.47,4.16,1.07,5.06-1.23,2.81-1.34-1.3-1.49-1.31-1.72-.07s-.41,1.2-1.47.23c-1.55-1.41-3.55-5-5.39-9.73l-1.45-3.63.16,3.16c.09,1.74-.11,3.26-.47,3.36-1.26.46-4.7-3.57-6.35-7.46-1.1-2.58-2-3.85-2.34-3.45-.95,1-3.44-2.4-6.19-8.4a34.75,34.75,0,0,0-2.78-5.39c-.23-.11-.16,1.31.15,3.16.75,4.52,1.46,19.43.9,19.65-.23.09-.55-1.48-.72-3.49s-.44-5.2-.62-7.09-.36-4.91-.37-6.72a23.73,23.73,0,0,0-.79-5.62c-.74-2.27-.56-4.26.29-3,1.19,1.82.33-1.54-.9-3.5-2.43-3.88-3.69-3.61-2.38.5a23.63,23.63,0,0,1,.91,4.94c.09,1.54.4,2.3.79,1.92s.68.91.62,2.76a13.18,13.18,0,0,0,.34,4c.63,1-.93,11.07-2.66,16.69-2.07,6.81-6.13,12.59-12.56,18-6,5.1-7.08,4.57-3.43-1.74l2.73-4.73-1.8.55c-2.26.69-2.58,0-.74-1.58a7,7,0,0,0,2-3.72c.68-2.88.53-2.54,2.2-4.88,1.07-1.5,1.1-1.85.18-2.12-1.43-.4-.2-2.95,2.87-5.93,1.43-1.38,2.13-2.52,2.09-3.38a44.73,44.73,0,0,1,1.48-7,33.28,33.28,0,0,0,1.11-12c-.22-3.47-.07-7.12.32-8.1.5-1.25.13-3.68-1.25-8.22-1.08-3.54-2.17-6.53-2.41-6.64s-.87,1.55-1.41,3.76a20.55,20.55,0,0,0,0,9c1.09,5.85,1.11,13,0,14.65-.66,1-.89.75-2.21-2.37l-1.46-3.48,0,4.26a73,73,0,0,0,.72,9.33,25.7,25.7,0,0,1,.24,7.22c-.58,2.4-1,2.19-3.8-1.77-.77-1.13-1.48-1.9-1.56-1.72s-.24,3.33-.34,7a40.34,40.34,0,0,1-1.44,10.36c-1.23,3.57-1.29,3.64-2.2,2.45a11.25,11.25,0,0,1-1.44-3.49c-.43-1.91-.5-2-.48-.51.13,7.51-2.86,18.41-4.79,17.51-.43-.2-1-2.52-1.25-5.12l-.47-4.74-1.65,3.55c-1.74,3.72-5.79,9.32-6.48,9-.23-.1-.08-1.41.33-2.89l.74-2.7-1.68,1.25c-4.48,3.43-1.48-5.16,5-14.28,5-7,5.73-9.47,1.78-5.74-2.54,2.42-5.46,3.86-5.82,2.88-.48-1.33,4.47-10.41,7.28-13.25,3-3,9-13.32,7.67-13.17a5.9,5.9,0,0,0-2.11,2.16,20.51,20.51,0,0,1-5.05,4.38,23,23,0,0,0-3.87,2.79c-.12.27-.38.26-.58,0s.62-2.35,1.81-4.55c1.95-3.63,2.06-4.12,1.12-4.9-.67-.56-1.07-3.12-1.14-7.36-.11-7.22-1-7.21-2.11,0a94.45,94.45,0,0,0-1,16.46c0,6.32-.75,7.92-2.58,5.42-1.11-1.49-1.49-.94-1.36,2,.12,2.65-.21,3.4-1.68,3.78-.94.25-1.33-.62-2.07-4.33-.5-2.55-1-4-1-3.25-.16,1.13-.37,2.24-.64,3.35a46.8,46.8,0,0,0-.54,7.29c-.06,5.69-.77,11.54-1.6,13.31s-1.73.78-1.94-1.75c-.23-2.82-.85-3.21-1.46-.9-.55,2.1-2.21,4.27-3,3.91s.27-7.47,1.87-13.47c.68-2.58,1-4.65.69-4.61-1.23.15-3.53,4.55-3.72,7.14-.22,3-3.55,14.69-5.11,18.05-1.41,3-2.95,4.72-3.63,4.08-.31-.3-.41-2.29-.21-4.44.4-4.23.2-5.87-.4-3.5-.44,1.76-7.85,10-8.64,9.64-.31-.14-.63-1-.63-1.92a12.74,12.74,0,0,0-.67-3.29c-.51-1.27-.33-2.05.78-3.62s1.22-2,.28-1.65c-1.85.61-2.3,0-1.12-1.63,3-4,4.7-5.9,7.26-7.83a24.49,24.49,0,0,0,4.81-5.35,17.46,17.46,0,0,1,3.39-4.12,14.83,14.83,0,0,0,3-3.66l1.77-2.81-2.49,1.81c-3.37,2.49-6.73,4-7,3.31a10.84,10.84,0,0,1,1.25-3.72,15.56,15.56,0,0,1,5.17-6l3.7-2.88-3,.49c-4.26.68-4.57.34-2.54-2.88,1.92-3,4.29-4.76,7-5.16a8.44,8.44,0,0,0,3.4-1.52,19.26,19.26,0,0,1,2.93-1.89c2.22-1.06,9.51-16.44,7.37-15.57a17.19,17.19,0,0,0-3,4c-1.21,2-2.5,3.67-2.86,3.63s-.94.53-1.28,1.27c-.75,1.6-5.94,4.95-6.94,4.48-.52-.24,0-1.88,2-5.93,2.47-5,2.6-5.57,1.46-5.19a8.09,8.09,0,0,1-3.14,0c-2.84-.55-1.63-2.07,5.32-6.68,3.37-2.22,6.75-4.88,7.51-5.93l1.39-1.89-2.26,1.3c-2.77,1.59-3.38,1.4-2.44-.76,1.69-3.87,1.06-4.3-2.64-1.83-1.94,1.3-4.11,2.28-4.82,2.17s-1.42.08-1.55.37-.67.37-1.17.13c-1.09-.5-.18-1.77,4.6-6.49,1.75-1.73,3.23-3.24,3.28-3.34a5.08,5.08,0,0,0-2-.11,8.28,8.28,0,0,1-2.8-.25.91.91,0,0,0-1.16.56c-.79,1.68-2.55-.09-3.26-3.26l-.73-3.17-1.78,4.37c-1.26,3.09-1.62,4.76-1.2,5.74A53.14,53.14,0,0,1,298,212.35c.13,2.27-1.26,2.9-2.58,1.12-1.21-1.61-1.29-1.37-1.13,3.29.19,5.41-.59,12.58-1.38,12.67-.36,0-.7-1-.73-2.36-.07-2.65-2.28-8.22-3.61-9.1a5.9,5.9,0,0,1-1.53-2.22l-.71-1.68-.46,3.36a53.46,53.46,0,0,1-1.05,5.62,7.51,7.51,0,0,0-.17,3.43,3.81,3.81,0,0,1-.17,2.47c-.94,2-.73,8.23.46,13.52,1.25,5.64.64,12-1.14,11.91-.68-.06-1.62-1.5-2.57-4l-1.49-3.89.13,5.16c.24,8.94-2.13,16.06-4.6,14a3.33,3.33,0,0,0-1.08-.73c0,.06-.23,1.9-.44,4.07-.44,4.39-1.52,7.21-3.28,8.53-2.07,1.55-2.84.25-2.29-3.85l.63-3.83-2.29,4a20.64,20.64,0,0,1-6,6.86c-2,1.55-3.9,2.59-4.11,2.22s.3-2.15,1.13-4c1.34-3,1.35-3.2.16-1.69-1.36,1.7-6.42,5.18-7.1,4.86-.31-.14,2.2-4.7,5.65-10.25a13.08,13.08,0,0,1,3.25-3.22c2.35-1.56,3.24-2.75,1.6-2.16s-2.66-.23-2-1.69a68.67,68.67,0,0,1,4.91-6.62c2.35-2.9,4.34-5.42,4.41-5.58a8.85,8.85,0,0,0-2.47,1.2c-2.34,1.32-5.06,1.73-5.39.79s5-6.4,8.82-9.26,4.33-3.49,7.12-9c2.22-4.41,3.28-6,4.19-6.14a3.06,3.06,0,0,0,1.85-1.6c.62-1.34.62-1.33-1.75-.4-1.95.8-2.77,1.68-4.55,4.89-2.42,4.34-4.53,5.73-4.31,2.84l.12-1.67-1,1.34c-.57.74-1.84,2.61-2.83,4.2a27.65,27.65,0,0,1-3.6,4.47c-1.72,1.57-1.83,1.57-2.37.13-.41-1.17-.08-2.44,1.5-5.58l2-4.09L264,235c-1,.15-1.83,0-1.88-.45-.11-.91,4.63-6.67,6.37-7.72,4.42-2.74,8.24-7.19,11.59-13.52,4.16-7.85,7.13-16.71,6.8-20.2-.14-1.44.09-2.57.47-2.63,1.3-.15,2.59,3.28,3.43,9.08.44,3.11,1.19,5.83,1.65,6a10.06,10.06,0,0,1,2.32,3.38c.81,1.65,1.67,2.92,1.92,2.83.8-.29-1.45-8.23-3.16-11.16-1.88-3.23-3.48-8.17-3-9.25.18-.38.9.95,1.61,3a14.48,14.48,0,0,0,1.74,3.89c1.09.51,2.87-3.29,3.41-7.31.66-4.94.77-5.29,1.56-4.92.33.15.63,1.56.69,3.14.13,3.37,1.26,8,2.09,8.35,1.22.57,1.28-4.74.18-14.42-.4-3.56-.58-6.83-.37-7.27.76-1.63,2.69.38,3.46,3.58,1,4.43,1.63,4,1-.82a10.25,10.25,0,0,0-3.05-6.79c-1.46-1.61-2.35-3.16-2-3.46.76-.74-6.52-10.14-8.13-10.53-.86-.2-.08,1,2.27,3.4,3.24,3.38,3.65,4.14,4.46,8.6,1.13,6.21,1.26,10.74.38,12.46-.67,1.31-.68,1.3-.44-.36.52-3.71-.35-11.08-1.36-11.55-.26-.12-1.09,1.05-1.81,2.61a40,40,0,0,1-3.85,6,21.7,21.7,0,0,0-2.43,3.43c.2.54,2.53-1,4.24-2.73,1-1,2.16-1.83,2.57-1.78,1,.11-.55,3.56-2.11,4.69a21.77,21.77,0,0,0-3.13,3.77l-2,2.93,1.45-3.3c1.41-3.18,1.39-3.27-.09-2.42a3.54,3.54,0,0,1-2,.67c-1.05-.49-.25-2.21,3.08-6.61,3.8-5,6.64-10.36,6-11.35a65.09,65.09,0,0,0-8.24-8.11,2.79,2.79,0,0,1-1.29-1.38c-.07-.41-1.12-1.15-2.33-1.66-2.12-.89-2.58-2-.8-1.93.49,0,0-.4-1.18-1a7.46,7.46,0,0,0-3.24-.84c-.84.12-.56.32.94.7,3.83,1,1.72,1.59-3.38,1a25.72,25.72,0,0,0-17.71,4.24,39.55,39.55,0,0,0-4.51,3.2c-.09.19-2.25,2.09-4.8,4.2-6.38,5.27-8.24,7.61-18.68,23.48-4.56,6.95-4.68,7.19-10.95,21.1-4.77,10.59-4.93,11-2.13,6.28a39.7,39.7,0,0,1,4.14-6.13,28.91,28.91,0,0,0,3.46-4.85c1.62-2.68,2.86-4.06,4.06-4.49a3.16,3.16,0,0,0,2.17-2.3,13,13,0,0,1,2.53-4c1.16-1.3,3.16-3.83,4.44-5.66a20,20,0,0,1,4-4.33,55.29,55.29,0,0,0,6.15-5.7,64.81,64.81,0,0,1,19.08-13.43c4.36-1.83,11.67-2.78,11.82-1.52,0,.38-1.7.85-3.89,1-6.86.53-12.23,2.87-18.45,8-11.31,9.32-21.61,20.31-23.93,25.65-1,2.25-.61,1.92,2.83-2.44,2.2-2.77,5.06-6.12,6.32-7.45a20.6,20.6,0,0,0,2.75-3.29c.7-1.5,6.7-6.67,12.54-10.81,5.51-3.91,13.15-7.1,18.07-7.6,3.48-.37,1.72.8-2.78,1.79a32.44,32.44,0,0,0-7.21,2.63c-7.25,4-13.54,8-14.48,9.25-.56.75-2.33,2.87-3.95,4.72-8.07,9.23-11.26,13.11-14.3,17.35-4.2,5.88-13.26,21.53-14.58,25.2-7.14,19.73-10.65,28.22-15,36.3-6.62,12.28-9.85,19.95-9,21.31,4.88,7.35,5.05,10.46,1.29,19.16-5,11.38-7.21,15.87-9.11,18.32a73.07,73.07,0,0,0-5.31,9.86c-2.83,6.05-3.32,7.62-2.8,8.37.83,1.15.43,2.31-.48,1.37-.51-.52-1.33.72-3.77,5.73q-2,4.23-4.45,8.26c-1.4,2.24-2.69,4.56-3.86,6.93-1.39,2.79-2.8,5.6-3.14,6.26s-1.63,3.48-2.93,6.28a30.66,30.66,0,0,1-3.76,6.43c-.76.75-3.14,4.73-5.23,8.85a134.75,134.75,0,0,1-8,13.2c-2.24,3.16-5.35,8.1-6.92,11A98.08,98.08,0,0,1,130,426.38l-5.09,6.35,1.19,2.38c4,8.09,2.8,12.23-2.87,9.58a8.67,8.67,0,0,0-4.19-.85c-1.39.25-1.68.15-1.39-.49.63-1.33,4.81-1.4,6.51-.1,2,1.55,3.95.74,3.57-1.46a19.69,19.69,0,0,0-3.31-7c-.69-.68-1.32-.16-3.74,3.05-6.88,9.18-7.22,9.87-6.73,14a37.31,37.31,0,0,1,.15,5.79c-.2,3.21-2.79,9.46-4.34,10.46-.59.38-.2-.69,1-2.82a17.25,17.25,0,0,0,2.43-11.26c-.28-2.64-1.9-3.45-2.84-1.42-.3.64-.27,1.13,0,1.13s-1.59,4.38-4.28,9.82c-4.66,9.43-4.86,10-4.29,12,.44,1.42.8,1.88,1.25,1.47.71-.65,1.9-.38,1.54.36a4,4,0,0,1-1.11,1c-1.48.94-3.16-1.27-3.12-4.16l0-2.64-1.4,2.51a14.6,14.6,0,0,0-1.62,4.66c-.27,2.58-1.52,3.26-2.15,1.21Zm13.22-32.66c.18-.39-.25-.57-1.22-.52s-1.62.35-1.77.68.26.57,1.22.51,1.62-.35,1.77-.67Zm8.63-7.57c.38-.81.46-1,3.5-4.31a15.8,15.8,0,0,0,3-4.69c.29-1.15.61-1.55.89-1.11.6.91,3.59-2.18,3.28-3.39s8.17-18.1,10.92-21.52c1.88-2.35,2.64-2.84,3.95-2.57,1.61.32,1.61.32.17-1.58A16.16,16.16,0,0,0,138,397l-3.43-1.68,2.83.58a7.68,7.68,0,0,1,4.89,2.73c1.12,1.18,2.35,2.05,2.65,1.89.85-.37,7.76-12.15,9.3-15.87,1.73-4.2,1.55-4.74-2.27-6.52-1.81-.85-3-1.7-2.72-1.91,1-.65-2.55-2.54-4.4-2.39-3.65.26-3.41-1,.31-1.52,2.73-.4,7.39.72,8.68,2.06a3.59,3.59,0,0,1,.69,2.42c-.13,1.88,2.4,4,3.51,2.95a44.13,44.13,0,0,0,3.18-6.83c1.37-3.35,2.78-6.13,3.15-6.17s1.28-1.42,2.05-3.07c.84-1.81,1.1-2.95.62-2.9s-.58-.32-.34-.84c.4-.85-.15-1.54-1.51-1.91a2.73,2.73,0,0,1-1-1.5,2.47,2.47,0,0,0-1.61-1.54,46.2,46.2,0,0,1-5-1.58l-3.9-1.38.84-1.82c.6-1.28,1-1.58,1.52-1.08a1.15,1.15,0,0,0,1.38.26c1.41-.92,5.31,1.64,7.36,4.83a21.54,21.54,0,0,0,2.37,3.32c.21.09,1.39-2,2.61-4.73,1.64-3.65,2.57-5,3.54-5.4a6.58,6.58,0,0,0,2.52-2.88,24.14,24.14,0,0,1,1.86-3.19c.35-.43.44-1,.26-1.15a8.09,8.09,0,0,1-1-2.12,4.91,4.91,0,0,0-2.05-2.4,14.08,14.08,0,0,1-3-2.21,7.78,7.78,0,0,0-4.24-2.06c-2.88-.55-3.15-1-.94-1.45s7.48,2.25,9.63,5c1.46,1.87,2,2.28,2.69,1.85s.59-1,.21-1.69a1.62,1.62,0,0,1,.21-1.94,4.61,4.61,0,0,0,1-2.59c.11-1.41.48-1.89,2-2.39s2-1.17,2.49-3c.83-3,.33-4.26-2.79-6.89-1.82-1.55-2.09-2-.94-1.54a15.4,15.4,0,0,1,3.63,2.67c2,1.92,2.07,2,3.08.9a39.2,39.2,0,0,0,3.45-6.12c2.75-5.75,2.85-8.6.41-10.49a21.42,21.42,0,0,1-3.08-3.09,13.74,13.74,0,0,0-3.36-2.95c-1-.52-3.46-2-5.44-3.29l-3.65-2.32,5.06,1.88a30.1,30.1,0,0,1,6.65,3.24c1.75,1.54,4.16,2.21,4.6,1.29.15-.33.75-.21,1.33.26.87.73,1.19.56,1.88-.92.6-1.28,1.22-1.72,2.18-1.54,1.55.28,2.07-.53,1.61-2.56a2.12,2.12,0,0,0-1.93-1.76c-1.19-.23-2.22-1.3-3.86-3.95-1.27-2-1.84-3.48-1.33-3.28,1.61.65-1.86-2.92-3.74-3.83a4.93,4.93,0,0,1-2.18-1.91c-.3-.81-.67-.66-1.65.67-.72,1-1.65,1.56-2.13,1.34s-.56-.59-.21-.83.11-.68-.54-1a2.26,2.26,0,0,0-1.85-.13,8.12,8.12,0,0,1-3.6-.15,9.24,9.24,0,0,0-4,0c-2.72,1.28-7.09,13-5.17,13.88,1.35.63.29,1.59-1.6,1.46-1-.06-1.76.21-1.72.6a26.73,26.73,0,0,1-1.69,5.22c-2.2,5.59-2.68,8.53-1.43,8.73a24.82,24.82,0,0,1,2.85.74c1.92.61,1.92.61.18,1.1a31,31,0,0,1-3.56.78c-1.54.24-2.07.8-3.38,3.52a47.3,47.3,0,0,0-2.62,7.68c-.9,3.78-.88,4.44.18,4.58,1.39.17,1.23,1.35-.16,1.25-.63-.05-1.44,1.25-2.75,4.43-1,2.48-2.83,6.51-4,9a67.81,67.81,0,0,0-3.5,9.88c-1,3.74-1.68,5.55-2.35,5.87a2.87,2.87,0,0,0-1.24,2c-.27,1.49-.27,1.5,1.53.94a16.11,16.11,0,0,1,9.76.36c2.47.78,3.17,1.19,2.6,1.53a2,2,0,0,1-1.76,0c-1.47-.69-8.32-1.09-10.76-.6-1.6.3-2.23.8-2.64,2.18a16.45,16.45,0,0,1-2.35,4.11,8.66,8.66,0,0,0-2.07,5.22,13.25,13.25,0,0,1-2.11,5.85c-1,1.63-1.65,3-1.41,3.17a12,12,0,0,0,3.26-.42,10.64,10.64,0,0,1,5.86.46c3.62,1.28,3.64,2.59,0,1.65-2.58-.68-6.18-.46-5.89.35.1.26-.74,1-1.87,1.65-2.33,1.32-3.21,3.56-4.71,11.86a155.38,155.38,0,0,1-3.65,15.4c-.54,2-1.23,5.24-1.55,7.29A45.07,45.07,0,0,1,119,431c-2.11,4.53-2.91,6.83-2.47,7s.32.64-.1,1.05-.51.87-.19,1a.67.67,0,0,0,.86-.33Zm11.27-35.57c1.25-.46,2.16-.38,2.78.25.8.85.71,1-1,1.08-3,.21-4-.53-1.79-1.32Zm27.89-64c.32-.69,2.11-.53,4,.36.91.43,1.24.83.76,1C159.92,341.88,156,340.77,156.3,340.16Zm9.2.08c-1.08-.9-.48-1.81,1.34-2,1.54-.2,2.71,1.87,1.63,2.9-.75.75-1.24.53-3-.86ZM164.65,316a9.73,9.73,0,0,1,4.12.82c1.22.57,2.49.83,2.82.62,1-.63,7.48,1.71,8.09,3,.8,1.71-1.18,2.24-3.09.82-1.64-1.22-9.45-4.23-12.16-4.68l-1.69-.29,1.92-.21Zm9.42-16.37a2.2,2.2,0,0,1,1.86.1c.63.29,1.29.27,1.44-.06.35-.75,3.17.52,3.28,1.48.09.77-.9.68-4.78-.38-1.67-.5-2.25-.86-1.79-1.18ZM184,279.22c.06-.13-.23-.58-.64-1s-.86-.5-1-.18.14.77.63,1,1,.27,1,.15Zm9.78,1.57c1.82-2.14,15.15-28.18,17.9-35,5-12.24,4.3-12.73-1.31-1-2.82,5.89-6.34,12.6-7.84,14.91s-3.78,6.07-5.1,8.35-2.61,4.06-2.86,3.94-1,.3-1.54.93a8.43,8.43,0,0,1-2.19,1.7,8.74,8.74,0,0,0-2.39,2.1c-1.5,1.88-1,2.86,2.15,4.14,1.68.67,2.51.64,3.16-.14ZM183,275.34a2.28,2.28,0,0,0,1.82-.88,2.76,2.76,0,0,1,1.63-1.13,2,2,0,0,0,1.42-1.44c.26-1.83,3.66-10.76,5.9-15.52C203.45,235.8,206.37,230,206.49,231c.07.63.29,1.05.5,1,1-.47,8.22-22.65,8-24.62a21.06,21.06,0,0,1,1.26-4.28c.72-2,1.52-4.46,1.76-5.48a69,69,0,0,1,2.52-6.83c2.5-6,5.41-13.52,7.13-18.51l1.25-3.65-2,.64c-3.16,1-3.29-.23-.54-4.88,2.27-3.83,2.33-4,1-3.71-2.25.59-2-1.18.54-4.33a34,34,0,0,0,5.46-9.15c.83-2,.8-2.3-.16-2a5.8,5.8,0,0,0-2.41,1.92c-1.35,1.75-3.14,2-3.65.5-.25-.68.44-1.65,2.41-3.4a13.85,13.85,0,0,0,3.31-4.14l.56-1.68-3.65,1.24c-5,1.71-6.29,3.76-7.74,12-1.24,7.15-3.2,14.4-4,14.95-1.17.77-2.38-2.22-2.33-5.81l0-3.73L213,162.86c-1.5,3.22-2.94,6-3.23,6.07-.62.22-.3,4.46.36,4.76,1.2.57.55,21.16-1,30.08-2,11.62-4.49,21.86-6.43,26a38.84,38.84,0,0,0-2,5.87c-1.38,5.59-12.66,29.17-15.72,32.84-2.53,3.06-4.47,6.43-3.83,6.73a6.56,6.56,0,0,0,1.77.08Zm26-56.28c.55-3.54,1.15-7.07,1.36-7.83a9.57,9.57,0,0,0,.21-2.82c-.08-.78.3-5.82.82-11.22a118.08,118.08,0,0,0,.78-12.47c-.11-1.49-.27-4.82-.36-7.4a36.65,36.65,0,0,0-.71-6.52c-.34-1.14-.25-1.85.26-1.91.89-.11,2,4.67,2,8.57,0,1.36,0,5,0,8a93.94,93.94,0,0,1-.41,9.64c-.26,2.29-.69,7.48-1,11.55-.48,7.39-2.16,16.23-3.4,17.95-.36.49-.18-2,.37-5.53Zm-7.25,33.75c2.23-4.77,5.09-11.46,6.41-14.85s4.32-10.66,6.71-16.16,4.69-11.16,5.13-12.6c1.34-4.37,13.43-25.23,19.23-33.18,3.71-5.09,11.61-13.76,13.27-14.55a27.31,27.31,0,0,0,3.95-3.07c1.54-1.39,3-2.42,3.28-2.3s1.33-.48,2.36-1.26c2-1.61,7.87-3.25,13.67-3.8,2.42-.23,3.16-.52,2.35-.9-3.62-1.69-15.41,1.75-20.61,6-1.42,1.16-2.81,2-3.08,1.87-.49-.23,1.52-2.88,2.85-3.74a22.35,22.35,0,0,0,2.71-4.4c2.83-5.49,8.9-13.51,14.68-19.38a23.4,23.4,0,0,0,3-3.56c.42-.91,10.7-10.92,14.17-13.81,2-1.67,3.23-1.69,2.47,0-.43.9-.3.91,1,.26s1.43-.68.74.8a41.87,41.87,0,0,1-2.77,4.53c-4,5.8-5.83,9.2-4.76,8.82a5.55,5.55,0,0,0,2-2.64c.89-2.2,3.93-4.27,5.24-3.66.25.12-1.31,3.73-3.48,8-2.49,4.94-3.49,7.34-2.72,6.56a19.93,19.93,0,0,0,2.61-4.06c1.43-2.89,2.67-3.36,2.32-.91-.1.76.13,1.35.49,1.33s.72.52.79,1.26.27,1.08.44.77,1.08-1.62,2-2.89,1.46-2.42,1.13-2.57-.15-.71.35-1.25c1-1.07,1.1-5.35.17-5.78s-.84-3.28,0-4.12c.66-.64,1-.42,2.31,1.5,2.11,3.08,2.28,3,1.42-.54a13.79,13.79,0,0,0-3-5.47c-2.07-2.23-2.36-2.37-3.76-1.94-2.84.88-2-.67,1.48-2.63,1.87-1,2.94-1.93,2.37-2-.86-.06-.64-1,1.54-5.68a128.46,128.46,0,0,0,5.2-14.21c2.61-8.72,6.13-17.33,5.37-13.15-.21,1.11-2.11,7-4.22,13.1s-3.6,11-3.29,11a13.55,13.55,0,0,0,3.06-2.89,13.53,13.53,0,0,1,4.11-3.37c1.87-.6,7-4.85,8.92-7.29l1.23-1.63-1.91.93A28.9,28.9,0,0,0,316,86.58c-1.51,1.3-2.87,2.44-3,2.52s-.52-.37-.83-1c-.84-1.81,1.13-5.27,4.28-7.49,3-2.08,9.34-8.06,9.15-8.58-.05-.16-.78.21-1.6.81s-1.8,1-2.18.81-1.64.86-2.82,2.28-2.5,2.56-3,2.52c-2.86-.29-1.78-3.61,3.06-9.35,3.33-4,8.76-13,7.47-12.48-1,.43-5.17,6.18-6.49,9-.58,1.24-1.37,2.29-1.74,2.34-1.58.18-1.21-2.85,1.08-9,2.37-6.32,3.73-12.38,3.31-14.79-.15-.84-.7.17-1.92,3.52-.93,2.56-1.77,4.92-1.86,5.23a1,1,0,0,1-1,.48c-.48-.05-.74-.34-.55-.75.42-.91.28-10.21-.19-10s-2.07,9.15-2.71,16.18c-.57,6.11-1.91,9.79-3.51,9.6-1.05-.13-2.14-7.84-1.69-11.92.38-3.19-.36-5.87-1.17-4.43-2,3.5-2.22,6.69-1,11.82.77,3.22,1.11,12.29.55,14.82-.42,2-1.91,3.11-2.9,2.08-.4-.42-.76-3.21-.79-6.22s-.42-5.82-.86-6.28c-2.92-3-4,4.74-1.48,10.27.51,1.11.62,2.13.22,2.31-.76.28-1-.14-3.29-4.78s-2.47-2.38-.25,3.31c3,7.73,4.29,15.6,2.82,17a7.51,7.51,0,0,0-.91,3.33c-.36,3.77-1.75,6.54-3.92,7.79-3,1.77-11.43,9.29-15.83,14.23-2.28,2.53-4.41,4.93-4.77,5.32-1.39,1.55-.9-.42,1.47-5.51a55.18,55.18,0,0,0,3.12-8.26c1.11-5.23.38-23.46-1.13-27.85-.94-2.71-1.58-3.72-2.05-3.25s-.3,1.34.2,2.15c1.44,2.4.13,2.1-2.58-.59-3.59-3.6-4.55-3.46-8.22,1.22-4.51,5.73-8.05,9.28-8.87,8.9s-.61-4,.24-5.81c.29-.62.29-1.22,0-1.35s-1.68,1.55-3.14,3.73-3,4.11-3.5,4.27c-1.48.54-1.85-1-.81-3.32l1-2.21L249.77,91c-.93,1-1.94,1.59-2.24,1.38s-1.69,1.25-3.13,3.23-3.1,3.8-3.75,4c-1.33.48-3-.85-2.53-2,.17-.37-1,.49-2.54,1.94-3.71,3.43-4.7,3.25-3.56-.65.89-3,.87-3-.46-1.53-.73.85-2,2.27-2.8,3.11-1.42,1.54-1.39,1.82.54,6.8,2.71,7,3.7,7.67,1.35,1-1-2.92-1.59-5.15-1.26-5s1.67,3.52,3,7.49c3.21,9.53,3.47,10.45,4.24,15.75.69,4.73,1.57,6.25,1.83,3.17a11.52,11.52,0,0,1,.79-3.21c.93-2,1-7.49.18-12.63-.65-4.13-.39-8.76.62-10.94.9-1.92,2.24-.06,2.88,4l.66,4.13,1.58-4.35c2.5-6.85,7.23-11,6.71-5.86l-.22,2.25,1.52-.9c2.28-1.32,2.6,0,.73,3.17l-1.61,2.8,2.2-1.31c1.3-.79,3.63-3.34,5.69-6.26,3.91-5.53,6-7.76,6.88-7.35s.17,3.24-1.57,6.18a12.07,12.07,0,0,0-1.38,2.67c.08,0,2.65-1.36,5.68-3.11a46.9,46.9,0,0,1,6.31-3.33c1.27-.15-2.9,7.06-5,8.69-1.28,1-1.68,1.65-1.44,2.33.39,1.08-3.84,4.31-6.86,5.25-2.31.71-2.74,1.64-.71,1.52,2.39-.13,2.58,1.34.4,3a64.89,64.89,0,0,1-9.38,4.45c-7.39,3-9.94,4.75-11.58,8.28-.35.74-.87,1.22-1.16,1.09s-.86.56-1.25,1.54c-.76,1.85-.17,5.08,1.11,5.68a1.33,1.33,0,0,1,.67,1.25c0,.74,3.12,3.88,8.7,8.66,2,1.66-.58,4-2.61,2.42-1.61-1.28-1.39,0,.44,2.59s1.93,3.11.3,3.72-4.52-1.06-6.51-3.71l-1.79-2.38,1.67,5.06a71,71,0,0,1,2.07,7.38l.44,2.34,2.56-3.86c1.41-2.11,5.54-8.36,9.18-13.87s8.79-13,11.45-16.62C276,118,278.91,109.33,278.28,96.27c-.13-2.87,0-5.3.25-5.41s.55.62.61,1.59c.28,3.79,0,13.92-.47,14.85a8.76,8.76,0,0,0-.36,3.14c.12,3-4,14.23-6.58,17.89-10.18,14.51-15.39,21.81-16.77,23.46-3.37,4.05-4.91,6.09-8.58,11.3a43.08,43.08,0,0,1-4,5.23,21.59,21.59,0,0,1-1.71-2.6,8.13,8.13,0,0,0-1.76-2.4c-.46.17-.51,6,0,6.26a.59.59,0,0,0,.73-.38.72.72,0,0,1,.95-.29c.43.2.24.83-.5,1.77-1.78,2.21-7.57,12.1-11.13,19a51.59,51.59,0,0,1-4.65,7.71c-1.74,1.84-10.13,19.55-10.88,22.93-.39,1.8-13.24,29.5-19.44,41.89-1.86,3.73-1.7,4,1,1.57,2.33-2.09,3.19-3.5,6.7-11.07Zm55.79,22.07c1.81-2.67,4.27-4.29,4.75-3.07.12.33-.6,2.19-1.59,4.12s-1.69,3.63-1.5,3.72a9.85,9.85,0,0,0,2.78-1.76c2.65-2.08,6.12-8.41,7.53-13.63,1.33-5,1.72-2.41.75,4.9-.91,6.95-.45,8.93,1.25,5.28a39,39,0,0,0,1.52-7.79c.39-3.33,1-7.16,1.33-8.5.92-3.55,2-2.55,2,1.83,0,2,.2,3.54.42,3.51.95-.35,2-6.48,1.94-11.06-.09-5,.57-9,1.49-9.14.29,0,1.12,2,1.83,4.52s1.53,4.69,1.82,4.82c1.13.53,1.08-5.85-.07-9.5a31.56,31.56,0,0,1-1.22-7.84l0-4.16-3.11,5.58c-3.91,7-6.22,9.81-7.82,9.51-1.19-.21-7.61,5.35-7.27,6.3.08.22,1.83-.85,3.88-2.41,3.87-2.91,4.87-3.34,6.26-2.72,1.06.5-2,5.48-6.14,10.13a35,35,0,0,0-3.22,4c-.5,1.06,2.74-1.37,3.32-2.54s1.76-.84,1.66.71-3.47,5.48-8.15,9.22c-3.17,2.56-7.73,7.9-8.64,10.13-.5,1.23,2.73-2,4.21-4.17Zm26.64,8.29a13.12,13.12,0,0,0,3.77-6c.73-2.25,1.46-3.5,2.24-3.87,1.84-.87,2.1-.32,1.2,2.58a25.09,25.09,0,0,0-.9,5.58c-.09,2.54,0,2.73.82,1.57,1.32-1.93,4.19-11.57,3.62-12.12-.27-.26,0-1.47.51-2.68a27.88,27.88,0,0,0,1.55-4.79c.61-2.83,3.39-7.25,5-7.77s1.74,1.35-.19,9.21a65,65,0,0,0-1.69,8.14c.29.79.87-.81,1.92-5.32s2.15-5.53,2.2-1.87a27.41,27.41,0,0,0,.48,4.43l.46,2,.6-2.72a40.7,40.7,0,0,0,.43-7.8c-.23-6.6,1.49-15.91,3.14-17.29,1.08-.91,1.19-.64,1.18,3,0,4.39.58,9.1,1.05,8.11.59-1.26.89-8,.42-10.35-.78-4.2.6-3.12,1.94,1.53.71,2.43,1.48,4.34,1.71,4.27s.39-2.73.35-5.89a48.38,48.38,0,0,1,.24-6.91,35.43,35.43,0,0,0,.49-4.49,35.38,35.38,0,0,1,2.69-12.17l1.18-2.53.47,2a6.3,6.3,0,0,1,.17,2.73c-.7,1.5.09,12.67.89,13.05,1.52.71,2.45-2.75,2-7.31s.17-5.52,1.87-3.25,1.68,1.14.23-2.85a15.46,15.46,0,0,1-1.26-4.41,9.49,9.49,0,0,0-.35-3.22c-.6-2.77.29-7.59,1.31-7.11a14.17,14.17,0,0,1,2.07,4.13,16.12,16.12,0,0,0,2.61,4.78c1,.87,1.08.72.57-2.35a19,19,0,0,0-2.9-8,37.29,37.29,0,0,1-2.3-4.21l-1.46-3-1.16,6.14c-1.58,8.28-2.63,11.7-3.46,11.31-.36-.16-.29-1.1.18-2.12.79-1.69,3.43-14.27,3.16-15.07-.07-.2-1.06,1.28-2.19,3.29-2.37,4.14-4.76,6.26-12.75,11.32a41.47,41.47,0,0,0-5.93,4.15c-.31.67,3.76-1,6.36-2.55s2.41,0-.74,3.95a39.67,39.67,0,0,0-4.1,6.18c-1,2.19-1,2.49.06,2.24a2.71,2.71,0,0,0,1.58-1,13.18,13.18,0,0,1,2.62-2.49,14,14,0,0,0,3.73-4.87c.8-1.73,1.81-3.18,2.23-3.22a3.18,3.18,0,0,0,1.53-1.7,6.35,6.35,0,0,1,1.74-2.24c3-1.92,1.57,6.83-2.25,13.87-3.14,5.77-7,9.23-13.45,11.92-3,1.25-5.62,2.8-5.93,3.45s-.4,1.24-.23,1.32c.91.43,4.45-.57,5.88-1.67a13.59,13.59,0,0,1,3-1.75c1.51-.55,3.27-.05,2.87.8a72.89,72.89,0,0,1-6.86,5.26c-6.41,4.56-9.9,8.13-8.51,8.78.35.17,2.26-1,4.24-2.57,4-3.23,6.32-4.58,6.56-3.92.1.24-1.27,2.72-2.94,5.49s-3.86,6.32-4.78,7.9c-2.41,4-6.22,8.32-8.94,10a44.91,44.91,0,0,0-3.77,2.66c-1.37,1.11-1.37,1.12.11.41.85-.41,2.16-1.09,2.91-1.51,2.3-1.29,2,.23-1,4.76-2.49,3.75-4.12,7.64-3,7.25a30.93,30.93,0,0,0,3-2.8Zm24.15-41.43c1.27-2.2,3.32-5.67,4.56-7.7l2.24-3.69-1.7,3.62a55.73,55.73,0,0,1-4.55,7.71l-2.93,4.1Zm-104.59-2c.53-1.46,0-.51-1.26,2.13s-1.67,3.82-1,2.66a33,33,0,0,0,2.23-4.79Zm59.5,24.09c1.09-.59,1.15-.74.44-1.07-.46-.22-1.17.15-1.49.84s-.55,1.16-.49,1a11.45,11.45,0,0,1,1.49-.84Zm-90.63-48.1a53.1,53.1,0,0,0-.2-10.47c-.43-3.8-.51-7-.25-7.21.77-.5,2,1.51,2.34,3.95a17,17,0,0,0,4.26,8.51l1.85,2-.55-2a24.9,24.9,0,0,0-1.51-3.86c-2.9-5.85-4.43-14.94-3.7-21.95.39-3.67.71-4.75,1.56-5.05,1.72-.63,2.89,3.25,2.84,9.44,0,5.6.71,10.53,1.63,11s1.24-4,.46-7.16c-.89-3.64-.82-3.93.74-3.21a3.23,3.23,0,0,1,1.27,2.8,8.26,8.26,0,0,0,.25,2.32c.09.05,1.59,1.56,3.32,3.36l3.16,3.29-1.28-2.74c-.7-1.51-2.26-4.61-3.48-6.9s-2-4.62-1.75-5.23c.6-1.29,1-1.1,3.32,1.41a6.44,6.44,0,0,0,2.14,1.84c.38-.14-3.15-6.61-5.62-10.28a49.68,49.68,0,0,1-3.1-5.57c-1.19-2.58-1.24-3.2-.29-3.56s1.59.19,3.76,3.16a21.87,21.87,0,0,0,3.33,3.92c1.4.65-.34-3.21-2.9-6.46a30.93,30.93,0,0,1-3.65-6c-1.32-3.28-2.09-3.82-2.54-1.79-2,9.23-2.36,10.2-4.52,13.53a34.85,34.85,0,0,1-4,5.07c-1.15,1.07-2.74,3.93-5,9-1.88,4.22-3.52,7.27-3.83,7.13s-.75.14-1,.64-.19,1,.09,1.15c.82.38,7.56-8.06,9.53-11.94,1-1.94,2-3.28,2.2-3s.81.12,1.29-.41c1.27-1.3-1.46,9.63-2.81,11.26-1,1.26-4.18,10.89-4.55,14-.17,1.36.12,1.06,1.33-1.44,1.94-4,2.63-3.43,2.52,2.22a54.16,54.16,0,0,0,.47,7.85c.48,3.08.65,3.33,1.38,2.22a16.2,16.2,0,0,0,1.36-4.82Zm40.69,15.15a6.58,6.58,0,0,0,.82-2.69c-.1-.29-.78.74-1.53,2.36s-1.11,2.79-.83,2.7a6.69,6.69,0,0,0,1.56-2.39ZM316.71,276c1.83-3.73,2.34-2.66.83,1.77-1.87,5.64-.11,3.85,3.8-3.85,3.33-6.56,5.29-8.57,3.88-4-.9,2.95-1.11,8.87-.35,10,.4.6.83-.08,1.83-2.87,1.38-3.85,1.58-5.16,1.58-10.49,0-5.11.54-9.12,1.23-9.19.35-.05.95,2.21,1.32,5s.92,5,1.15,4.95c.88-.32,1.82-7.36,1.59-11.91a18,18,0,0,1,.06-4.51,10.62,10.62,0,0,0,.54-3.51c.21-3.51,1-5.25,2.13-4.72.3.14.51,1.27.44,2.48-.1,2.31,1.22,6.31,2.23,6.78.32.15.4-.21.19-.79a3.33,3.33,0,0,1,.15-2.2c.29-.62.21-2.81-.17-4.85a71.86,71.86,0,0,1-.74-16.45c.14-2.14.07-3.15-.15-2.28s-1.11,3.6-2,6a58.07,58.07,0,0,0-2.18,8.08c-.67,4-5.63,17.11-6.15,16.32-.19-.27.75-2.84,2-5.67a31.63,31.63,0,0,0,2.43-6.66c0-1.35,0-1.35-.64-.07a34.91,34.91,0,0,1-5,5.31c-5.76,5.26-7.45,7.21-8.57,9.66-1.53,3.27-1,4.49,1.15,2.81a9.18,9.18,0,0,0,2.25-2.36c.61-1.29,3.63-3,4.48-2.64,1.07.5-1.44,5.76-4.76,10s-9.29,15.42-7.21,13.55a14.46,14.46,0,0,0,2.57-3.72Zm-98.37-48.56c2.25-5.9,2.27-6,.28-2-1.81,3.67-3.51,8.56-2.87,8.24A54.57,54.57,0,0,0,218.34,227.47Zm-2.07-.79c0-.49-.28-.22-.66.61s-.4,1.21,0,.88a2.62,2.62,0,0,0,.7-1.49Zm55.43,24.53c1.08-.7.59-1.09-.7-.57-.65.26-.9.61-.58.76a1.53,1.53,0,0,0,1.28-.19Zm75.52,18.54c2.1-3,2.7-4.47,3.7-8.89.64-2.89,1.49-6.44,1.87-7.86a14.34,14.34,0,0,0,.53-4.17c-.15-1.3-.35-1.05-1.25,1.63-2.2,6.59-5.53,15.59-5.8,15.68s.67-3.66,3.25-11c2.69-7.66,3.1-11.09.72-6.29A50.83,50.83,0,0,1,342,259.57c-.8.74-.81.9,0,.63a10.24,10.24,0,0,0,2.9-2.25c2.11-2.15,4.32-2.58,2.55-.48-3.59,4.25-7.82,10.7-7.81,12,0,1.09.38.7,1.58-1.47,1.72-3.12,3.24-4.23,3.45-2.51.11,1.07-1.55,4.47-5.29,10.77L337.17,280l3.75-3.3a45.67,45.67,0,0,0,6.28-6.9Zm-79.47-31.37c3.13-5.09,6.62-8.85,7.27-7.84.22.32,1-.18,1.62-1.11,1.71-2.32,2-3.15.95-2.45-.54.33.71-2.68,3-7.33,3.2-6.45,3.53-7.31,1.76-4.69a37.76,37.76,0,0,1-5.92,6.33,31.31,31.31,0,0,0-5.09,5.2c-.74,1.15-1.54,2-1.77,1.9-.58-.27-3.12,2-3.71,3.22-.26.56.71.11,2.12-1s2.95-2,3.41-1.93c1.13.15.12,2.26-2,4.21-3.47,3.15-7.66,11.45-5.37,10.62.41-.15,2.1-2.48,3.74-5.16Zm-43.22-45.54a53.3,53.3,0,0,0,2.82-8.14,18.07,18.07,0,0,1,1-3.76,5,5,0,0,0-.06-3.2l-.65-1.82-1.53,4.28c-.84,2.35-3,8.06-4.81,12.67a97.8,97.8,0,0,0-3.83,11.68l-.59,3.27,2.6-4.61c1.43-2.54,3.69-7.19,5-10.36Zm-59.87-13.58a39.91,39.91,0,0,1,3.36-2.58,32.7,32.7,0,0,0,3.58-3c1.27-1.2,2.22-1.63,2.64-1.2s.92-.67,1.77-5.11c.62-3.17.88-5.88.6-6-.9-.42-3.16,3.13-2.43,3.89.5.52-.06,1.3-2.51,3.42-5.8,5-11.57,12.37-9.53,12.11a7.94,7.94,0,0,0,2.52-1.6Zm66.72,24.22c-.11-.29-.42,0-.68.63s-.22.93.19.53a1.32,1.32,0,0,0,.49-1.16ZM144.94,161a4.59,4.59,0,0,0,3.34-1.29c1.23-1.5,2.08-1.24,2.3.59.13,1.25.23,1.28,1.58.58a8.6,8.6,0,0,1,3.43-.71c1.77,0,1.5-.19-2.67-2.18-2.95-1.38-4.41-2.39-4-2.66s2.61.49,5,1.61,4.62,1.94,4.91,1.82,0-2.48-.75-5.26c-1.37-5.22-3-9-3.45-8.05-.34.72.77,6.41,1.56,8.09a3,3,0,0,1,.2,2.17c-.65,1.4-3-.91-5.26-5.12s-4.76-7.65-5.37-7.4c-.24.08,0,.72.46,1.39s.79,1.53.63,1.88c-.29.62-1.76-.3-3.7-2.31-.52-.54-.83-.59-.78-.13s1.65,2.39,3.54,4.39c2.59,2.72,3.31,3.89,2.91,4.75-.94,2-3.53.47-8.71-5.27-3.82-4.23-6.93-6.42-7.48-5.25-.36.78,2.67,4.2,6,6.74,1.51,1.15,2.74,2.38,2.7,2.79s-2.44.25-5.37-.3l-5.35-1,3.43,1.82a18.84,18.84,0,0,0,6.74,2.13c3.25.29,5.2,1.32,4.62,2.54-.15.33-1,.63-1.94.66-2,.08-5.43,1.1-5.73,1.74s4,1.33,7.11,1.31Zm137.64,63.37c1.08-1.46,1.93-7.25,1.12-7.63-.24-.11-1.32,1.6-2.43,3.81-1.78,3.59-1.9,4.07-.88,4.64.78.44,1.43.18,2.19-.82Zm43.83,15.31a8.82,8.82,0,0,1,4.58-3.38c3.1-1.12,4.27-2.57,4.89-6,.25-1.44,0-1.39-2.46.54a15.88,15.88,0,0,0-3.1,3c-.22.47-.66.73-1,.58-.83-.39-3.51,1.86-5.32,4.44-.84,1.21-2,2.8-2.53,3.55l-1,1.35,2.19-.9a10,10,0,0,0,3.69-3.17Zm54,26.3c.1-1.39,1.67-1.43,2.31,0,.3.63.76,1.07,1,1,.69-.25-2.17-5.94-3.26-6.45s-1.86-2.21-1.48-3,1.95.23,3.34,2c1.72,2.21,7,5.55,7.36,4.68s-4-6.12-6.8-8.06c-4.76-3.33-4.85-5.5-.14-3.3,5.31,2.48,2.84.11-4.37-4.18-3.77-2.24-7.36-4.54-8-5-1.4-1.1-.82-3,.59-2s7.25,2.58,8.51,2.42c1.65-.19-1.16-2.24-4.47-3.25-1.49-.47-4.2-1.32-6-1.91-4.4-1.45-5.74-.79-3.29,1.59,3.48,3.38,8.24,9.21,8,9.79-.14.31-.53.27-.86-.12-2.45-2.91-13.81-14.87-14.4-15.17a.73.73,0,0,0-1,.19c-.3.65.55,3.22,1.16,3.51a33.2,33.2,0,0,1,2.58,5.62c2,4.9,2.86,6.36,3.26,5.5a22,22,0,0,0-1.07-4.15c-.68-2.12-1-3.93-.76-4,.81-.3,3.14,4.31,5,9.94,1.64,4.91,3.86,9,4.77,8.71,1.14-.41-.54-8.09-1.92-8.74-.82-.38-.71-1.22.23-1.57s4.38,4.8,6.73,10.73c2.5,6.32,2.93,7.09,3,5.39ZM203.2,170.93a59.49,59.49,0,0,0,4.23-7c.82-1.75,1.72-3.09,1.95-3s.09,1.73-.29,3.6c-1.2,5.89,1,3,4.66-6,2.79-6.92,3.28-7.82,4.11-7.43.62.29.65,1,.12,2.1-1.14,2.44-1.59,7.77-.81,9.63.64,1.52.7,1.53,1.2.44a70,70,0,0,0,1.74-7.85,94.16,94.16,0,0,1,2.16-9.37c.5-1.47.7-2.77.45-2.88s-2.64,1.47-5.3,3.53c-5.47,4.28-4.3,2.13,1.33-2.47l4.25-3.48c.84-.71-3.82,1.6-5.9,2.94a25.84,25.84,0,0,0-4.67,5c-3.78,5.06-7.19,8.32-10.6,10.05-4.53,2.3-4.79,2.61-2.21,2.51a12.11,12.11,0,0,0,4.68-1.52c4.41-2.62,3.36.9-1.2,4-3.92,2.7-8.45,6.54-7.6,6.44a22.39,22.39,0,0,0,4.12-2.54c1.89-1.33,3.53-2.27,3.62-2s-1.33,2.18-3.11,4.31a37.63,37.63,0,0,0-4.67,6.8l-1.39,3,3.23-2.5a36.51,36.51,0,0,0,5.92-6.25ZM293,216.42a23.23,23.23,0,0,0-1.45-6.94,21.69,21.69,0,0,1-1.53-6.34c-.48-4.84-1.14-8.43-1.44-7.79-.82,1.76-1.18,6.42-.52,6.73,1,.45,1.11,3.3.35,7.63-.42,2.51-.36,3.15.53,2.93s1.09.14,1.13,1.43c.07,1.77,2.41,7.6,3,7.41a20.89,20.89,0,0,0,0-5.06Zm-125.69-58.1a19.72,19.72,0,0,0,4.85-2.65,13.64,13.64,0,0,1,3.56-2.2,8,8,0,0,0,3-2c.21-.45,2.27-1.84,4.6-3.11,5.25-2.86,10.47-3.37,14.72-1.43l2.91,1.36-1.08-2.27c-.6-1.24-1.3-2.23-1.57-2.2-.46.05-1.42-1.33-3.58-5.16a27.69,27.69,0,0,0-3.69-4.39c-1.48-1.45-2.57-2.9-2.42-3.23a1.88,1.88,0,0,0,0-1.28c-.14-.39-.74.7-1.33,2.41-1.22,3.51-5.34,9.58-6.63,9.78-1.54.25-2.28-.48-2.1-2.08.14-1.28-.14-1.09-1.62,1.11-1.87,2.8-3.51,4-4.77,3.37-.91-.42,0-4.53,1.36-6,.51-.56.63-1.12.27-1.29a.67.67,0,0,0-.91.3h0c-.16.33-.93.3-1.7-.07-1.36-.63-1.53-.46-4.07,4.33-1.89,3.53-3.06,5.12-4.11,5.5-1.74.63-2,.09-1.35-2.68l.5-2.1L159.57,144l-2.67,1.63,2.14,6.61c1.2,3.64,2.66,6.83,3.3,7.13s2.87-.2,5-1.09ZM327.7,233.25c.34-.71-1.47-4.65-2.3-5-.19-.09-.33,1.3-.3,3.1,0,2.56.29,3.22,1.15,3a2.49,2.49,0,0,0,1.47-1.07ZM153.32,148.17c-.51-3.94.05-6.25,1.24-5,.51.52,1.26.09,2.64-1.52,2.28-2.65,3-4.1,5.43-11,2.08-5.88,1.37-6.46-2.34-1.86a11.49,11.49,0,0,1-3.27,3.06,13.12,13.12,0,0,0-3.42,2.6,17.44,17.44,0,0,1-4.39,3.14c-3.63,1.48-3.65,1.92-.21,6.91a40,40,0,0,1,3.5,5.78c.69,2.64,1.26,1.2.84-2.08Zm80.77,29.33c1.62-4,1.79-5.08,1.21-7.31l-.71-2.65-.79,1.7a156.47,156.47,0,0,0-4.8,16.18c-.24,2.1,3.28-3.33,5.12-7.9ZM287,208.31c.19-1.8.06-3-.29-2.58-.87.9-1.44,6-.67,5.92C286.4,211.61,286.8,210.09,287,208.31Zm43.9,22.52a2.2,2.2,0,0,1,1.26-1.24,3.38,3.38,0,0,0,1.5-1.9l.8-1.83-1.95,1.3c-2.11,1.41-4,1.06-3.23-.59a38.39,38.39,0,0,1,3.07-4.21,56.82,56.82,0,0,0,5.3-9c2.4-5.15,2.6-5.87,1.68-6.31a3.5,3.5,0,0,1-1.22-2.63c-.1-1.17-1.66-4.74-3.49-7.94s-3.23-6.29-3.12-6.91c.17-1-4.52-7.62-5.28-7.32-.21.06-.26,1.29-.16,2.69a60.29,60.29,0,0,1-.31,8.5c-.58,6.18-.46,6.63,3.51,13.58a21.2,21.2,0,0,1,2.53,7.16,12.37,12.37,0,0,0,1,4.27c.4.55.39,1.21,0,1.47-1.34.88-3.59-.81-4.82-3.6s-2.31-3.86-2.77-2.89c-.34.74,4,18,4.63,18.31.29.14.78-.26,1.08-.91ZM166.29,140.34c2-4.68.68-4.33-1.51.4-1.33,2.85-1.58,3.86-.88,3.41a10.85,10.85,0,0,0,2.38-3.8Zm23.84,8.46a18.38,18.38,0,0,1,6.57-.32c2.25.56,2.29.54.62-.3-3-1.52-8.85-1.1-12.71.92-1.91,1-3.68,2.25-3.92,2.75s.84.24,2.4-.61A31.4,31.4,0,0,1,190.13,148.8Zm147.4,75.08c-.11-.3-.42,0-.68.63s-.22.92.19.53a1.37,1.37,0,0,0,.53-1.14ZM138.14,129.37c.07-.17-.41-.19-1.12,0a3,3,0,0,0-1.39.62c-.07.16.4.18,1.12,0A3.78,3.78,0,0,0,138.14,129.37Zm171.35,73.56c2.18-1.57,3.92-3.2,3.9-3.61a3.55,3.55,0,0,1,1.58-2c2-1.45,1.95-1.43-1.06,4.76-2.18,4.5-2.2,4.73-.86,4.21,4-1.39,12.64-20.33,10.35-22.51-.33-.3-.89.18-1.33,1.11-1.26,2.72-7.64,3.74-10.38,1.63-1.3-1-1.32-1-.61.4A5.33,5.33,0,0,0,313.2,189c1.22.57,1.24.84.22,2.1a15.67,15.67,0,0,1-4.43,3c-3.39,1.65-3.47,2.13-.29,1.87,3.8-.33,3.52.54-1.73,5.26-4.5,4-4.92,4.71-2.91,4.6.81,0,3.24-1.37,5.44-3Zm-78.67-38.16c.49-2,.45-2.21-.16-1-.77,1.47-1.26,4-.73,3.75a11.18,11.18,0,0,0,.89-2.71Zm143.35,67.39c-.08-1.37-1.49-4.77-3.52-8.5-.9-1.65-.9-1.66.35-1.1.7.32,2.67,2.77,4.36,5.49,2.72,4.37,5.8,8.67,6.42,8.95a10.69,10.69,0,0,0-.93-2.55c-1.51-3.53-.54-3.7,1.85-.31a14.32,14.32,0,0,0,2.74,3.12c1.56.72.26-2.09-3.27-7.17-1.88-2.68-3.3-5.1-3.17-5.38.35-.75,2.81-.1,6.48,1.72a36,36,0,0,0,6.19,2.32l3,.73-1.43-1.91c-1.81-2.42-7.12-4.95-10.2-4.87-2.56.07-6-1.64-5.85-2.9,0-.44,1.24-.81,2.6-.84a26.15,26.15,0,0,0,5.75-.94l3.22-.92-2.68-.7a18.4,18.4,0,0,0-7.64.36c-2.89.63-5.6.78-6.48.37-1.51-.71-1.5-.7,1.71-1.93s6.84-3.55,6.13-3.88a51.75,51.75,0,0,0-6.52,1.62c-6.64,1.91-6.83,2.34-2,4.57a3.75,3.75,0,0,1,2,1.67c.15,1.28-4.05-1.05-12.12-6.76a74.66,74.66,0,0,0-8-5.22c-.19.06.05.66.48,1.32a45.14,45.14,0,0,1,2.81,5.44c2,4.41,3.29,6.38,5.47,8.32,1,.93.94.35-.33-3A17.19,17.19,0,0,0,359.4,215a.63.63,0,0,1-.25-.85c.15-.33,1.34-.1,2.62.5,2.44,1.13,3.41,2.62,6.18,9.5,1.27,3.15,5.39,9.75,6,9.59.15,0,.24-.73.2-1.53ZM176,133.36c2-1.87,2.24-2.17,1.61-2.47-.27-.12-1.48.8-2.75,2-2.58,2.54-1.58,2.92,1.14.44Zm135,57.58c.45-1-3.24-7-3.7-6.06-.54,1.16-1.48-.09-3-4-.86-2.21-1.73-3.94-1.94-3.86s0,2.69.34,5.8.74,7.12.75,8.92l0,3.26,3.55-1.59c2-.88,3.73-2,3.95-2.5Zm12.77,6.13c.9-3.29,1.58-10.79.93-10.09a3.19,3.19,0,0,0-.43,2,16.19,16.19,0,0,1-1.6,5.08c-1.35,2.9-1.5,3.71-.75,4.33.51.43,1,.84,1.06.92a7.7,7.7,0,0,0,.81-2.27Zm41.57,16.32c-.51-.81-.39-1.14.59-1.73,3.28-1.95,6.76-4.47,6.65-4.8s-2.81.2-6.07.88c-3.47.72-6.53.95-7.41.54-2.5-1.17-1.22.48,2.36,3,4.44,3.17,4.61,3.25,3.88,2.1Zm-213.67-108c.13.36,1.84-2.8,3.82-7s3.41-7.62,3.21-7.54-3,4-6.25,8.67-6.26,9-6.69,9.61.59-.16,2.38-1.64,3.35-2.44,3.52-2.07ZM317.13,186c1.51-.4,2.87-.71,3.06-.78a26.51,26.51,0,0,0,2.51-5,1.9,1.9,0,0,0-.56-1.91,2.76,2.76,0,0,1-.73-2.21c.2-1-.26-1.56-1.9-2.32-1.34-.63-2-1.25-1.66-1.65s0-1-.63-1.39c-1.1-.74-1.1-.74-.17.37,1.31,1.54-.38.79-2.66-1.24s-12.24-6.88-13.58-6.75c-.68.09-.71.51-.13,1.52s1.78,1.74,5.28,2.89c6.35,2.09,15.39,7.62,14.74,9-.15.34-.75.16-1.37-.42a15,15,0,0,0-3.61-2c-2.61-1-2.89-1.18-9.42-4.55-2.17-1.12-4-1.88-4.17-1.59s.94,1.87,2.34,3.61c2,2.5,2.55,3.8,2.58,6.29,0,1.82.46,3.34,1,3.61a17.16,17.16,0,0,1,3,2.48c2.71,2.7,3,2.78,6.12,2Zm27.79,10.19a33.62,33.62,0,0,0,.16-11.92,9.42,9.42,0,0,1-.07-2.95c.31-2.06-.2-3-2-3.85a2.22,2.22,0,0,1-1.23-2.33c.17-2.12-1.79-5.75-4.56-8.65s-3.55-3.18-5.66-1.47c-2.41,2-7.2,4.23-7.46,3.52-.11-.31,1.22-1.14,2.95-1.86,4-1.67,4-2.69,0-1.42-5.91,1.86-6.62,2-9.2,2-1.87,0-2.28.17-1.39.62,2.07,1.07,6.81,7.35,7.79,10.33.52,1.6,1.09,2.59,1.27,2.23.48-1,3.45,0,5.57,1.84a29.94,29.94,0,0,1,4.08,5.1,19,19,0,0,0,2.77,3.67,22.76,22.76,0,0,1,2.83,4.55c1.24,2.35,2.52,4.18,2.85,4.06s1-1.68,1.4-3.48Zm-134.2-59.59a16.74,16.74,0,0,0,5.37-1.14c1.69-.66,3.42-1,3.86-.84,1.17.55.63,1-1.6,1.57A4.33,4.33,0,0,0,216,137.3c-.17.35,1.21.16,3.05-.41,3.71-1.14,7.3-1.45,8.79-.76,1,.48,3.78-.26,3.53-.94a35,35,0,0,0-5.41-3c-4.89-2.44-5.6-2.62-10.06-2.49a38.19,38.19,0,0,0-8.16,1.13l-3.37,1,4.93,0c3.77,0,5,.19,5.3,1s-.05,1-1.43.9c-1.69-.13-4.71,1.11-5.21,2.17-.29.63.07.75,2.73.83Zm153,70.37a11.71,11.71,0,0,0,3.08-.78c1.23-.53.36-.63-3.27-.42a32.43,32.43,0,0,0-5,.47c-.15.32,3.52.85,5.17.75ZM203.18,122a20,20,0,0,0,4.2-3.63,1.9,1.9,0,0,1,1.25-1c.54-.06.06,1.19-1.46,3.83l-2.25,3.92L207,123.5a18.86,18.86,0,0,0,3.6-3.65c1.72-2.43,7.64-6.36,10-6.59a13.21,13.21,0,0,1,4.77,1.24l3.18,1.4-2.48-1.79c-9.2-6.72-10.32-7.8-12.27-11.83-2-4.25-3-5.66-5.14-7.91-1-1-.84-.26.52,3.08,1,2.43,1.58,4.51,1.29,4.61s-1.89-1.38-3.54-3.33-3.53-4-4.18-4.56c-1.94-1.7-1.83,0,.16,2.37,2.25,2.66,2.06,3.78-.33,1.92-4.21-3.26-6.73-4.79-7.49-4.53-.51.17-.37.49.33.83a30.79,30.79,0,0,1,4.44,3.54,27.77,27.77,0,0,0,6.52,4.37,11.81,11.81,0,0,1,3.44,1.9c.38,1.05-1.1,1.29-3.57.55s-4.13-.39-3.76.62c.09.26,2.28.81,4.9,1.19,4.79.77,10.23,3.34,9.68,4.52-.15.33.27.45,1,.28a2.23,2.23,0,0,1,1.83.27c.34.31-2.06,1.25-5.34,2a57.53,57.53,0,0,0-9.82,3.38c-3.9,1.95-5.08,2.85-10,7.68L192,127.61l3.69-1.59a46.78,46.78,0,0,0,7.49-4.23Zm22.45,18.11c.16-.34-.07-.56-.49-.51a1.47,1.47,0,0,0-1,.69c-.15.32.07.56.5.5A1.42,1.42,0,0,0,225.63,140.1Zm149.06,62.53,4-1.32-3.61.26c-2,.17-3.71,0-3.81-.27s3.54-1.83,8.11-3.4,8.83-3.44,9.44-4.16c.88-1,.14-.9-3.45.53-2.53,1-4.65,1.63-4.74,1.39a57,57,0,0,1,7.13-7.53c.34-.22.42-.52.14-.64-.48-.23-8.62,5-12.24,7.93-2.61,2.1-3.55,1.43-1.8-1.2,4-6,4.67-7.06,4.13-6.9a23.91,23.91,0,0,0-3.62,3.77c-1.65,2-4,4.57-5.2,5.78-1.61,1.61-2.07,2.39-1.71,2.94a.88.88,0,0,1-.25,1.22.85.85,0,0,1-1.18-.22h0c-.26-.4-.42-.34-.36.12s-1.07,1.21-2.5,1.68a8.13,8.13,0,0,0-2.82,1.33c-.46,1,10.44-.05,14.34-1.34ZM150.4,97.09c1.43-1.55,4.07-4.27,5.88-6.09a43,43,0,0,0,5.14-6.29c1-1.66,2.18-3.07,2.56-3.12.8-.12,3-3,2.46-3.27s-16,12.22-16.36,13.05c-.15.32,1,0,2.51-.65,2.54-1.15,2.73-1.13,2.14.15a10.94,10.94,0,0,1-2.81,3.1c-1.89,1.48-3.7,3.44-6.91,7.48-1.58,2,2.84-1.53,5.46-4.36Zm47.69,21.62c1.76-1.2,3.41-2.09,3.66-2a50.59,50.59,0,0,0,7.51-2.33c5.42-2,6.76-2.67,5.86-3.1-.68-.31-1.43-.19-1.64.28s-1.45.72-2.7.58c-3.08-.33-7.11.5-7.23,1.55-.05.46-1,1.19-2,1.6-2.09.83-8,4.8-8.43,5.65s1.82,0,5-2.22ZM269,149.18c5.64-1.31,10.43-.65,16.64,2.18l5,2.34.94-2.87a17,17,0,0,0,.6-6l-.32-3.16-.89,1.9a11.76,11.76,0,0,1-1.74,2.72c-.74.71-.64.81.64.75s2.14.52,1.72,1.43c-.3.64-3.86.4-4.3-.26-.24-.36.43-2,1.6-3.89a15.56,15.56,0,0,0,2.32-6l.3-2.67-1.44,1.73c-1,1.23-1.72,1.55-2.39,1.09s-.55-1.54,1.26-5.79l2.17-5.13-2.05,1.37c-4.39,2.93-4.7-1.09-.72-8.47l2.56-4.72-2.53,2c-5.7,4.8-19,20.12-24.16,27.78-4.91,7.3-4.93,7.38-1.94,5.86a36.68,36.68,0,0,1,6.7-2.26ZM160.79,98c.26-2.54.79-3.75,1.51-3.41.3.14.36,1.07.14,2.08-.42,1.89.07,7,.56,5.89.16-.33.77-3.41,1.35-6.85,1-5.89,1.85-7.88,2.73-6.45a8.35,8.35,0,0,1-.17,3.55,9.17,9.17,0,0,0-.09,4c.85,1.8,1.92-5.45,1.79-12.13-.12-6.12-.19-6.2-2.72-2.88-1.41,1.83-8.78,20.24-8.63,21.54.2,1.71,3.27-2.89,3.55-5.26Zm30.67,20.5c-.7-1.91-.49-5.17.58-8.74a12.2,12.2,0,0,0,.57-4.45c-.27-1.3-.46-1.15-1.62,1.3a16.7,16.7,0,0,0-1.38,5.34c-.14,3.51-.51,4.08-1.55,2.49-.76-1.16-.51-4.65,1.05-14.08.1-.65-.07-1.31-.42-1.47s-.55.1-.49.54a4.08,4.08,0,0,1-1,2.19c-2,2.49-2.17-.64-.24-5.73,2.13-5.63,3-8.79,2.47-9-.21-.09-.92,1-1.57,2.36-1.82,3.92-2.89,2.56-2.45-3.14.55-7.12-.22-12.24-1.43-9.58-.48,1-.45,8.05.07,10.76.37,2.06-.08,4.37-.79,4a16.31,16.31,0,0,1-1.36-3.58c-1.23-4-2.83-6.6-2.69-4.36a18,18,0,0,0,1.17,4.06c1.09,2.72,3,13.76,2.55,14.74-.56,1.2-2.56-.74-4.51-4.38a45,45,0,0,0-2.29-4c-.12-.05-.08.78.07,1.86s.48,2,.77,2.16.33.65.1,1.15c-.31.68-.84.59-2.19-.37-1.65-1.19-1.75-1.17-1.28.19a28.48,28.48,0,0,0,4.15,5.61q8.13,9.21,2,6.44c-2-.93-2.15-.9-1.37.22,1.48,2.14,6,5.43,9.88,7.21,3.38,1.58,3.68,1.57,3.17.29ZM122,80c1.72-1.33,4.23-3.44,5.6-4.7s2.89-2.12,3.44-1.86c1.07.5,1,.78-1.43,5.42-1.2,2.33-1.51,3.43-1,3.36,1.08-.13,3.46-3.08,6.22-7.72a17.45,17.45,0,0,1,3.78-4.68l1.56-1-3.39-1.06a19.88,19.88,0,0,0-4.65-1,5.55,5.55,0,0,1-2.06-.31c-1.31-.61-9.71.06-9,.72a4,4,0,0,0,2.62.3c3.49-.5,2.55.84-1.36,1.95s-4.14,1.37-1.23,1.63,1.94,1.47-2.43,3.15a63.63,63.63,0,0,0-7.39,3.46c-2.94,1.68-3.11,1.93-1.67,1.84,2.62-.15,8.59-2.51,12.47-5,5.07-3.15,4.77-1.39-.52,2.9a72.08,72.08,0,0,0-5.64,5l-1.13,1.29,2-.65A22,22,0,0,0,122,80ZM359.63,190.56c.14-.29-.32-.9-1-1.34-1-.69-1.4-.54-2,.78-.72,1.54-.67,1.6,1,1.35a3.24,3.24,0,0,0,2-.76ZM235.57,128.93c-.58-1.47-.6-1.46-.54.2,0,1,.34,1.65.6,1.53s.27-.88-.06-1.73ZM305.35,163a11.34,11.34,0,0,0-3-1.4c-1-.29-.43.11,1.22.88S306,163.47,305.35,163Zm56,26.27a35.1,35.1,0,0,0-1.75-5.15c-1-2.68-1.62-5-1.33-5a9.88,9.88,0,0,1,3.29,1.88,34.91,34.91,0,0,0,5.9,3.46l3.14,1.38-1.95-1.68c-2.16-1.85-2.23-3-.15-2.05a5.28,5.28,0,0,0,2.54.43c.84-.15.17-.52-2.32-1.27a40.75,40.75,0,0,1-5.84-2.31,105.15,105.15,0,0,1-13.64-8.27c-3.53-2.63-3.7-2.7-2.72-1.13a89.32,89.32,0,0,1,3.71,8.59c2.83,7.18,4,9.18,2.83,4.69-1-3.57-1-6.77-.12-6.86.4,0,1.82,2.35,3.16,5.32,2.9,6.39,4.69,9.16,5.21,8Zm28.82,13.14c.37-.79-1.84-5.27-2.84-5.74-1.81-.84-1.92.57-.19,3.13,2,3,2.62,3.49,3,2.64ZM307,162.11c4.54,1.86,9.2,3.4,10.36,3.46a28,28,0,0,0,6.35-1.09c4-1.11,5.89-2.37,11.24-7.53,2.54-2.47,4.62-7.85,5.44-14,.74-5.85,1.06-6.84,2.43-7.69.74-.48,1.06-.11,1.61,1.85l.63,2.4.75-3c.4-1.62,1.43-4.85,2.23-7.14s1.28-4.33,1-4.47a8,8,0,0,1-1.56-2.49l-1.05-2.27-.57,1.88c-.48,1.65-.73,1.78-2.06,1.16-1.94-.9-3.15-2.15-2.8-2.89.15-.34.95-.06,1.9.65,2,1.52,2.4.83,1.51-2.34-.52-1.84-.83-2.19-1.45-1.63-1.29,1.28-6.15,8.05-5.88,8.18a11.85,11.85,0,0,0,2.77-.5c2.83-.75,3.63-.51,3.55.89-.07,1-6.73,6-8.89,6.71-.58.18-2.66.82-4.63,1.4-4.07,1.2-4.09,1.4-.15,1.27,2.78-.11,7.75.88,8.09,1.56a.9.9,0,0,1-.33.88,8,8,0,0,0-1.16,2.11c-.5,1.26-1.78,2-5.62,3.21-4.47,1.41-9.1,3.57-9.48,4.4-.08.17.67.92,1.77,1.7,1.66,1.19,1.76,1.46.73,1.95-2.09,1-6.83.45-11.75-1.33s-4.82-1.74-8.57,0a23.59,23.59,0,0,0-8.25,6.08c-.81.89-.75,1.3.24,2a6.3,6.3,0,0,0,2.29,1c.58.06,4.76,1.62,9.31,3.47Zm-12.17-9.86c3.38-4.1,3.51-4.2,3.42-2.6,0,.78.08,1.14.33.69s2.32-1.44,4.69-2.29c4.25-1.53,4.38-1.53,9.18.23,5.84,2.15,9.25,2.59,8.15,1.07-.67-.92-3.37-1.74-7.92-2.38-1.3-.18-1.47-.41-.9-1.18.42-.57,2.12-.84,4.26-.67,3.46.28,7.94-.85,7.56-1.9-.1-.28-.91-.42-1.84-.42-2.63.14-5.52-.46-5.6-1.18s3.07-1.39,7.91-1.47c3.8-.06,10.84-2.31,9.93-3.18s-9.81-.56-12,.35-5.87.57-5.39-.46c.7-1.5,2.14-2.23,6-3,6.34-1.23,13.1-3.63,15.49-5.5a16.21,16.21,0,0,0,2.33-2.05c.09-.19-2.68.31-6.18,1.09-5.67,1.3-8.09,1.43-7.62.44a8.54,8.54,0,0,1,2.68-1,16.86,16.86,0,0,0,10.23-7.37c1.79-2.91,1.89-3.29.81-3-1.53.39-7.78,4.1-12.12,7.17a46,46,0,0,1-5.89,3.51c-2.91,1.33-2.71,1,1.87-3.61a23.72,23.72,0,0,0,4.12-5.72l1.4-3-3.22,2.5a54.23,54.23,0,0,0-7.36,7.86c-6.76,8.74-12.08,11.7-6,3.3a39.15,39.15,0,0,0,3.76-6.6c1.26-3,1.27-3.35.15-2.69a16.73,16.73,0,0,0-5.25,6.08c-.42.91-1,1.42-1.17,1.1a4,4,0,0,1,.51-2.54,12.63,12.63,0,0,0,1-3.71c.23-3.51-2.58,1.67-4.06,7.45a40.65,40.65,0,0,1-3.84,9.82c-3.45,6.22-4.09,7-5.39,6.38-2-.95-1.93-3,.57-8.91,1.31-3.16,2.14-5.85,1.85-6s-.89.5-1.3,1.41a29.76,29.76,0,0,1-2.16,3.7,11,11,0,0,0-1.62,4.24c-.36,3.15-1.53,3.51-1.74.51l-.18-2.56-.6,2.27a15.19,15.19,0,0,0-.18,5.12,22.45,22.45,0,0,1-.77,7.11c-.63,2.34-.87,4.23-.55,4.15a10.57,10.57,0,0,0,2.67-2.58Zm14.3-13.4c9.26-7.62,15.83-12.2,15.06-10.51a5.83,5.83,0,0,1-2.38,2.21c-1,.5-5.48,3.76-10,7.26-10.54,8.15-12,8.74-2.7,1.06Zm-149-47.94c-.11-.3-.42,0-.68.64s-.22.91.19.52a1.35,1.35,0,0,0,.54-1.14ZM242.1,126.5c1.48-3.18,4.33-4.94,11.66-7.27,4.09-1.3,7.45-3.22,6.45-3.68-.42-.2-2.89.48-5.49,1.51-4.3,1.7-4.65,1.73-4,.34.46-1,3-2.59,7.59-4.72,3.78-1.76,6.83-3.36,6.77-3.55s-1-.2-2.12,0c-3.66.5-3-1,1.08-2.61,4.66-1.77,7.62-3.94,8.29-6.06.42-1.3-.22-1.11-4.54,1.38-2.77,1.6-5.22,2.65-5.5,2.32s.44-2.28,1.49-4.4c3-5.9,1-3.7-6.36,7-.68,1-1.56,1.64-2,1.45s-1.93,1-3.44,2.62c-3.24,3.66-3.43,4.06-1.84,3.64,2.19-.57,1.72.54-1.21,2.84a50.08,50.08,0,0,0-5.29,5c-2.78,3.12-5.14,7.53-3.45,6.45a6.62,6.62,0,0,0,1.8-2.33Zm-8-4.75a11.38,11.38,0,0,0-.6-3.28l-.78-2.83-.57,1.68c-.63,1.85-.64,1.76.58,3.48,1.07,1.48,1.12,1.52,1.35.94Zm12.59-4.42c.45-.29.4-.58-.11-.7-1-.24-.24-2,2.85-6.84,1.48-2.32,1.68-2.9.83-2.34-2,1.28-2.35.29-.93-2.76.76-1.62,1.21-3.21,1-3.51-.52-.8-3.3,4-5.37,9.27-1,2.51-2,4.33-2.3,4.2s-.53-1.55-.51-3.13a13.47,13.47,0,0,0-.68-4.5c-.68-1.6-.71-1.59-1.11.36a21.93,21.93,0,0,0,.14,5.89c1,6.67,1.07,8,.61,9.18-.27.58.73-.2,2.17-1.78a35.63,35.63,0,0,1,3.38-3.35Zm97.79,52.94a4.09,4.09,0,0,1-.14-2.27c.18-.39-.38-1-1.25-1.44-1.55-.72-1.54-.71-.17,2.13,1.59,3.2,2.26,3.88,1.54,1.57Zm63.27,30.3c.12-.24-.79-2.17-2-4.25s-2-4.2-1.82-4.67c.56-1.19,1-.88,3.55,2.53a61.21,61.21,0,0,0,3.94,4.8c1.63,1.76,1.62,1.65-.16-2.47-1.36-3.12-1.6-4.34-.87-4.42s1.5.7,2.26,1.91c3.3,5.35,9.88,12.41,10.45,11.18a11.86,11.86,0,0,0-1.53-3c-.91-1.53-1.4-2.86-1-3.14a.75.75,0,0,1,1,.19c.58.87,3.33,1.12,3,.28-.16-.4-2-1.72-4.15-2.95a42.43,42.43,0,0,1-6.87-5.07c-2.61-2.48-3.61-3-7.87-4.41a28.92,28.92,0,0,0-5.34-1.39c-.25.09,1.23.94,3.27,1.9,2.33,1.08,3.48,1.89,3.08,2.16-1,.65-6.13-2-8.55-4.36a8.59,8.59,0,0,0-2.46-2c-.5.19,3.67,8,5.58,10.42a11.4,11.4,0,0,0,2.94,2.77,3,3,0,0,1,1.42,2.11c.17,1.48,1.75,2.87,2.17,1.92ZM229.06,111.7c-3.41-8-3.45-8-7.15-6.41l-3.18,1.41,1.41,1.15c.8.65,3.21,2.4,5.42,3.92s4.08,3.09,4.09,3.42a1.36,1.36,0,0,0,.76,1c.37.18-.25-1.82-1.35-4.44ZM357.58,173l2.74-.45L357.84,171a35.54,35.54,0,0,0-10.12-4c-1.25-.27-.58.47,2.64,2.92,2.36,1.81,4.32,3.34,4.38,3.41A16,16,0,0,0,357.58,173Zm5.15,3c1.37-1.32,1.63-2.45.68-2.89-1.17-.55-3.36,1.5-2.71,2.54s1.15,1.21,2,.36Zm-19.43-11.5a31,31,0,0,1,7.79,1.78c6.88,2.52,13.21,4.18,13.51,3.54.15-.31-.47-.76-1.39-1-2.25-.57-1.19-1.54,1.37-1.26,5.12.59,11.24-4.06,14-10.63.92-2.2,2-4.82,2.46-5.82.78-1.84.74-1.86-2.61-3.42l-3.39-1.58,1.66,4.9c1.94,5.78,1.05,9.82-1.22,5.52-.93-1.75-1.85-2.31-1.56-.94.33,1.65-.47,6.54-1.29,7.66-1.37,1.9-2.3.37-2.54-4.17-.21-4-.42-4.61-2.23-5.64a7,7,0,0,1-2.6-2.6c-.34-.79-.75-1.15-.92-.79s-1.47.8-3,1c-3.26.38-4.05,1.42-1.42,1.87,4.18.73,6.69,1.56,7.21,2.39.36.59.27.93-.29,1a82.06,82.06,0,0,1-10.47,1.54l-7.4.25a34.11,34.11,0,0,0-8.61,1.5L336.57,161l1.37,1.54c1.81,1.95,1.64,1.94,5.38,2ZM396,188.37c.33-.72-2.06-6.12-2.93-6.63a13.23,13.23,0,0,0-1.75-.82,5.28,5.28,0,0,1-2-1.64c-1.42-1.89.1-2.22,6.94-1.49A26.85,26.85,0,0,0,407.7,177c5.58-1.5,9.53-3.28,9.22-4.07-.11-.26-3,.12-6.54.83s-7.14,1.34-8.1,1.39c-3.17.16-2.15-.86,2.13-2.2,3.85-1.15,6.75-3.06,5.56-3.61-.86-.41-7.17,1.06-12.48,2.93-6.61,2.35-8.35,2-3.88-.7,2.33-1.43,2.79-2.07,1.54-2.16a11.77,11.77,0,0,0-3.83,1.83c-1.6,1.05-3.32,1.76-3.74,1.56a1.54,1.54,0,0,0-1.55.39c-.95.92-5.45,1.45-6.84.81-1.7-.79-.79-1.47,1.68-1.25a10.76,10.76,0,0,0,4.83-1.05c2.47-1.23,2.51-1.3,1.09-1.57a13,13,0,0,0-4.31.43,8.29,8.29,0,0,1-4,.2,7.65,7.65,0,0,0-3.56-.07l-2.43.46,2.33,1.9a8.35,8.35,0,0,0,3.46,1.9,2.24,2.24,0,0,1,1.71.86,25.67,25.67,0,0,0,4.92,3.4c2.38,1.42,4.57,2.76,4.88,3s1.12.7,1.82,1.09a6.85,6.85,0,0,1,2.19,3c.94,2.31,1.74,3.12,2.18,2.18ZM301.13,141a2,2,0,0,0,.4-2.29c-.38-.72,0-2.62,1-5.37,2.07-5.65,2.08-6.64.2-10.41-1.53-3-1.59-3.09-1.3-1.08.16,1.18.6,2.08,1,2,1.52-.19,1.19,4.08-.68,8.67-2.69,6.64-3.24,8.82-2.33,9.25C299.79,142,300.6,141.6,301.13,141Zm-193.6-94.4a45.43,45.43,0,0,0,5.85-4.09c1.08-1,2.14-1.69,2.37-1.59.41.19-1.78,3.82-3.8,6.25-2.28,2.77.75.59,3.72-2.69C120,39.66,124,36,126,35a93,93,0,0,1,9.19-3A80.65,80.65,0,0,0,143,29.52c.64-.59-4.41-2.2-6.63-2.11a19.11,19.11,0,0,1-4.58-.53c-3.94-1-4.3.1-.48,1.35,1.82.61,3.1,1.28,2.88,1.51s-5.21,1.53-11,2.9c-12.94,3-13.54,3.23-8.12,3,2.36-.13,4.37.1,4.37.45s-1.25,1.24-2.86,1.81c-4.59,1.67-12.9,7.94-14.28,10.79-.46,1,1.41.23,5.24-2ZM223,103a24,24,0,0,0,7.59-7.2c1.6-2.37,3.92-4,5-3.48.28.14,0,1.3-.59,2.6-1.17,2.49-.85,4.18.48,2.64.43-.51,1.67-2.31,2.74-4,2.45-3.88,4.13-5.55,4.89-4.83.39.37-.14,2-1.56,4.78-1.18,2.34-1.9,4.35-1.59,4.49.64.3,4.63-4.92,6-7.79,1.43-3.08,3.08-5,5.1-6l1.88-.92-1.57,2.58c-1.53,2.52-1.53,2.53.08,1.31,2.45-1.85,3-1.06,1.2,1.73-2.71,4.19-.95,4,2-.26,2.32-3.33,6.1-7.08,7.78-7.77.22-.1.45.31.52.92a3.08,3.08,0,0,1-1.5,2.34c-2,1.51-2.6,2.8-2.91,5.82l-.23,2.3,2.53-2.4c3.18-3,8-9.65,7.28-10s-5.45-.14-12.62.74c-3.6.43-7.83.76-9.44.78a35.51,35.51,0,0,0-3.75.14l-7.23,1c-3.57.54-6.35,1.13-6.27,1.35.36,1,3.69,1,8.11,0,2.93-.67,4.86-.77,5.05-.26.42,1.15-5.56,5.21-9.91,6.73-3.51,1.22-10,4.94-9.81,5.58.07.18,1.23-.27,2.57-1a7.44,7.44,0,0,1,2.89-1c1.11.52.13,2.57-2,4.07-2.38,1.72-6,6-5.37,6.32a6.74,6.74,0,0,0,2.6-1.14Zm121.54,50.33c.75.35,1.81-.8,6.07-6.53,2.07-2.77,3.71-5.4,3.66-5.84s.24-.5.62-.13c1.16,1.1-.13,3.61-4.49,8.67-2.27,2.64-4.06,5-4,5.23s.88.3,1.79.13,1.55-.5,1.46-.77c-.31-.86,3.33-3.25,4.73-3.05a2.81,2.81,0,0,0,2-.49,8.25,8.25,0,0,1,3.58-.9c2.43-.18,8.19-2.8,7.2-3.26s-5.86-.25-8.65.38c-2.21.53-3.36.49-3.58-.12-.6-1.64,2.95-3.54,9.1-4.83,6.75-1.43,15.23-4.26,15-5-.1-.25-1.11-.45-2.26-.43-1.39,0-2.19.44-2.44,1.28-.3,1-.4,1-.55.08s-1-.88-5,.54c-2.66,1-4.91,1.45-5,1.11-.4-1.09,2.69-3.15,6.37-4.21,3.93-1.15,9.32-4.48,9.48-5.86.09-.8-1.21-.4-9.46,3a12.62,12.62,0,0,1-4,1.16c-.63-.3.6-1.29,5.83-4.77a19,19,0,0,0,4.63-4,48.14,48.14,0,0,1,4-5.08c3.07-3.45,3.11-3.53,1.5-3a6.9,6.9,0,0,0-2.53,1.46c-1.5,1.64-2.17.52-.83-1.39,1.18-1.65,1.19-1.72-.12-.61-.77.65-2.92,2.91-4.8,5-4.69,5.31-5.6,4.92-2.31-1,1.44-2.57,2.46-4.74,2.26-4.83s-1.79,1.47-3.61,3.43c-2.31,2.57-3.41,4.3-3.84,6-1.51,6.08-5.26,12.26-7,11.47-.42-.2-.71-.51-.62-.7.66-1.42,3.27-14.1,3.23-15.54-.07-1.8-.12-1.79-1.82.78-1,1.45-1.94,2.55-2.17,2.45s-.13-1.68.2-3.48a17.36,17.36,0,0,0,.32-4.77c-.27-1.31-.34-1.26-.76.85a48,48,0,0,0-.68,5.2c-.3,4.06-.78,4.9-1.63,2.88-1.12-2.73-1.21-1-.17,3.69a16.22,16.22,0,0,1,.19,7.43c-1.17,4.52-4,7.79-5.88,6.89-.71-.33,0-6.39,1.28-10.84a5.79,5.79,0,0,0,0-3.3c-.51-1.06-.67-.92-1.22,1.34-.36,1.4-1.26,4.1-2,6a24.22,24.22,0,0,0-1.5,5.42c-.17,2.37-2.11,6.74-2.84,6.4-.29-.13-.2-1.38.2-2.78a10.24,10.24,0,0,0,0-4.92c-.91-2.79-.86-2.89-2.22,6.22-.58,3.61-1.38,6.66-2.12,7.75-3.6,5.35-3.65,5.27.72,2.54,2.28-1.44,4.38-2.51,4.66-2.38Zm28,20.35a1.66,1.66,0,0,0-2.4-1.11c-.36.24,0,.74.92,1.15s1.55.46,1.49,0Zm6.53-9.09c5.84-3.89,11.05-7.13,11.56-7.07s.6.28.06.64c-1.05.69,5.62-.36,10.81-1.7,4.55-1.19,5.93-2.57,1.62-1.62-3.12.68-4.1,0-2-1.36,1.21-.79,1.19-.85-.29-.76-2.55.13-2.2-.87.74-2.05q7.17-2.88,9.18-5.78l1.31-1.88-3.69,1.59c-2,.86-3.51,1.19-3.32.73.75-1.61-1.82-.29-5.75,3-2.14,1.81-4.1,3.19-4.37,3.06s-.87.26-1.34.83-1.19.91-1.56.73c-.8-.37,1.31-3.54,3.95-6a11.66,11.66,0,0,0,2.3-2.84c.53-1.13.44-1.25-.77-.93-2,.51-6,4.21-7.64,6.9s-6.65,8.4-7.48,8.3c-.33,0,.52-2.47,1.89-5.43,2.46-5.26,2.49-5.33.85-4.76-1.92.7-4,4.05-4.26,7-.34,3.43-8.29,12.69-11.88,13.87-1.57.5-2.21,1.91-1.13,2.41.25.11,5.27-3.06,11.11-7ZM421,191.25c.2-1-.34-1.51-2.47-2.5-3.25-1.52-4-3-1.69-3.09.89,0,1.56-.28,1.48-.52s-2.42-.3-5.18-.13a26.57,26.57,0,0,1-8.61-.84c-2.62-.81-.92.14,6.35,3.6C420.21,192.22,420.78,192.4,421,191.25ZM381.09,169a4.58,4.58,0,0,0,2.59-.12,20,20,0,0,1,3.92-.69c3.4-.2.67-1.2-2.94-1.07-1.65.06-3.09-.14-3.21-.39-.31-.87,1.8-1.95,3.06-1.57a5.41,5.41,0,0,0,2.53-.06,38.41,38.41,0,0,1,6.24-.57,42.37,42.37,0,0,0,6.83-.59c1.92-.47,1.87-.48-1.07-.43-3.45.06-3.84,0-3.51-.74.13-.28,2.2-.83,4.6-1.24s4.3-.91,4.22-1.13c-.36-1-3.57-.66-8.24.82-5.12,1.63-7.5,1.29-6.21-.87.64-1.1.62-1.11-.79-.37a33.64,33.64,0,0,0-3.79,2.57,68.22,68.22,0,0,1-5.71,3.78c-4.16,2.47-4.65,3.27-1.6,2.72a7.28,7.28,0,0,1,3.15,0ZM122.64,46.1a60.38,60.38,0,0,0,7.52-6.87c2.05-2.25,4.17-4.53,4.73-5.07.9-.85.73-.89-1.32-.26-3.7,1.12-12.45,8.55-14,11.9a8.42,8.42,0,0,0-1,2.92,22.77,22.77,0,0,0,4.08-2.64ZM429.45,193a5.69,5.69,0,0,0-4.77-2.23c-.84.12-.23.6,2.11,1.69s3.12,1.24,2.66.54ZM175.84,69.64c1.22-.79-.42-.93-2.13-.16s-1.73.75-.11.68a6,6,0,0,0,2.28-.51Zm117.62,54c0-.49-.31-.07-.76.92s-.47,1.39-.05.88a3.84,3.84,0,0,0,.85-1.81Zm66.59,32.59c3.11-.36,2.56-1.38-1-1.8-2.37-.28-3.05,0-2.63,1.2.32.88.67.93,3.62.58Zm30.74,13.68c.16-.35-.05-.59-.48-.54a1.3,1.3,0,0,0-.89.35c-.07.15.15.39.47.54a.68.68,0,0,0,.88-.36Zm-18.38-11.62a31.9,31.9,0,0,0-.26-5.78c-.52-3.33.49-3.43,2.22-.23,2.08,3.84,2.52,4.23,2,1.76a41.2,41.2,0,0,0-2.67-7c-1.22-2.54-2.14-4.86-2-5.13.36-.77,2.79.67,4,2.36s4,3.28,4.94,2.67c.36-.23.41-.54.11-.68a5.77,5.77,0,0,1-1.38-2.12c-1.37-3.08-2.84-3.81-6.25-3.14-4.42.93-15,3.6-15.08,3.89a14.42,14.42,0,0,0,3.77.11c6.78-.24,10.57,1.34,6.92,2.88-1.73.73-2.12,1.41-1.61,2.82.29.79.67.91,1.83.59s1.51-.22,2.07,2.31a11.7,11.7,0,0,1,.4,3.18c-.23.48.25,4.19.59,4.35a8.84,8.84,0,0,0,.42-2.89ZM202,77.5h2.91l-2.83-1.32c-2.46-1.15-2.9-1.21-3.39-.17-.66,1.42-.46,1.52,3.29,1.54ZM138.88,41.31c1.75-2.49,2.81-2.27,1.58.38a7.4,7.4,0,0,0-.75,3c.19,1.46,1.79-.57,3.75-4.76,2.12-4.53,7.53-10.25,9-9.56a4.18,4.18,0,0,0,2.27-.15c2.57-.76,1.29.48-2.23,2.27-3.32,1.65-6.49,4.43-6.63,5.9-.06.45,4.77-.9,10.7-3S167.29,31.3,167.18,31c-.27-.71-12-2.28-13.61-1.84a3.85,3.85,0,0,1-2.28-.08c-.54-.25-3.11.35-5.73,1.33-3.42,1.27-4.47,1.92-3.7,2.28,1.81.84,1.37,2-1.56,4.1-1.56,1.12-2.27,1.89-1.58,1.71,1-.27,1.16-.12.69.88a12.56,12.56,0,0,1-2.47,2.92,11.76,11.76,0,0,0-2.34,2.82c-.63,1.55,2.54-1.22,4.33-3.79ZM124.63,38.1c.16-.33-.17-.32-.72,0a4,4,0,0,0-1.28,1.24c-.15.33.17.32.72,0A4,4,0,0,0,124.63,38.1Zm72.31,35.78a1.34,1.34,0,0,0-1.18-.48c-.29.1,0,.41.65.67S197.31,74.3,196.94,73.88Zm-60.6-33.94c1.2-.91,1.19-.91-.7-.33a11.73,11.73,0,0,0-3.09,1.48c-1.18.9-1.18.9.71.33A11.48,11.48,0,0,0,136.34,40ZM139.09,36c2.75-1.89,2.19-2.85-1-1.76-2,.65-6.38,4.45-7.21,6.22C130.66,40.91,137,37.43,139.09,36Zm169.44,85.44c1.91-4.11,5.71-6.06,5.28-2.72-.16,1.22.14,1.17,2.31-.55,1.37-1.08,2.76-1.85,3.08-1.7s0,2.31-.71,4.77c-1.13,3.89-1.14,4.28,0,2.9l3.22-4c2.15-2.69,10.67-9.57,11.42-9.23.27.13-.08,1.19-.78,2.36s-2.21,3.83-3.35,5.9c-2,3.66-2,3.73-.36,2.45.95-.71,4-2.57,6.7-4.15,8-4.56,10.29-5.25,9.12-2.75-.33.72-.2,1.2.36,1.27s1.59,1.32,2.48,2.87c2.51,4.48,2.74,4.74,2.65,3.06-.14-2.55-2.73-7.82-4.77-9.72-2.64-2.46-2.85-2.82-1.82-3.19.58-.2,2.07.66,4.4,2.56,1.95,1.57,3.71,2.84,4,2.71,1.06-.38-1.89-3.57-5.09-5.49-4.36-2.62-4.22-4,.15-1.51,3.49,2,7.72,7,7.1,8.31-.24.51-1.25.61-2.54.23l-2.13-.63.9,2.24a32.15,32.15,0,0,1,1.31,16.92c-1,5.66-.79,7.5.62,4.9,2.69-4.91,3-7.51,1.74-12.71-1.25-4.9-1.21-5.22.61-5.88,1.11-.41,1.31-.89,1.58-3.81.28-3.18.18-3.48-3-6.7-1.83-1.84-3.23-3.58-3.1-3.87s2.15.36,4.55,1.47a18.52,18.52,0,0,0,8.66,2.1c6.06.16,12-1.15,15.81-3.49,5.51-3.37,4.57-4.26-2.16-2-2.5.83-5,1.3-5.54,1-1.41-.65-1-1,1.77-1.8a20.65,20.65,0,0,0,4.87-2.23c2.5-1.63,6.4-5.91,5.69-6.24-.53-.24-5.47,2.25-8.1,4a6.34,6.34,0,0,1-2.42,1.24c-1.1-.51-.26-1.52,4.34-5.17,5.28-4.23,8.06-7.27,6.94-7.79-.33-.16-1.65.7-2.92,1.94-2.61,2.54-3.17,2.2-1.53-1,.78-1.52.32-1.12-1.56,1.32-1.46,1.92-4.39,5.31-6.49,7.53-5.08,5.36-10.47,8.27-7.44,4l1.26-1.77-2.94,1.74c-3.35,2-11.78,4-14.2,3.39a33.43,33.43,0,0,0-3.74-.58c-1.15-.11-3.6-.47-5.45-.8s-5-.7-6.89-.82a28.73,28.73,0,0,1-3.82-.38c-.63-.39-5.55-.78-5.42-.43a4,4,0,0,0,2.15.52c2.81.21,7.4,2.42,8.65,4.17,1.87,2.64,4.8,8.22,4.56,8.75-.35.75-1,.22-2.2-1.71l-2.68-4.4c-2.23-3.66-3.5-4.53-7.75-5.32-5.67-1-13.55.06-20,2.82-3.1,1.32-5.77,2.69-5.94,3.06s.54,1.49,1.59,2.5c1.72,1.68,4.58,8.45,4,9.61-.13.26.32.73,1,1,.91.42,1.38.16,2-1.15Zm-95-43.88c-.22-2.52-2.51-11.18-3.06-11.44s-.62.44.05,3.85c.29,1.54.16,2.28-.49,2.54-1,.36-2.34-2-5-8.86-.86-2.22-1.68-3.81-1.8-3.54s-.69-.26-1.25-1.16c-1.59-2.56-1.83-2.27-1,1.16.42,1.74.49,3.25.17,3.39s-.18.92.28,1.75c.72,1.24.67,1.67-.21,2.11-1.53.71-2.37.14-6.2-4.19-3.67-4.2-6.91-7-6.78-5.89a2.15,2.15,0,0,0,1.24,1.23,1.17,1.17,0,0,1,.74,1.45c-.34.72-.89.58-2.79-.67-1.29-.87-2.26-1.3-2.13-1,.29.91,9.57,7.07,16.31,10.82a39.69,39.69,0,0,1,6.34,4.06,21.72,21.72,0,0,0,3,2.93c1.35,1.15,2.51,2.16,2.6,2.25s.12-.26.06-.79ZM395,160.11c3.51-1.37,3.24-1.6-.94-.78a4.32,4.32,0,0,0-2.57,1.21C391,161.65,391.09,161.64,395,160.11ZM249.54,78.06c1.76-.61,3.38-.82,3.62-.45a.82.82,0,0,0,1.13.21h0c.48-.32.82-.16,1.14.53s1.34.81,3.69.36a52.62,52.62,0,0,1,6.74-.74l3.51-.12-1.76-2.28c-1-1.26-2.66-3.53-3.74-5.06-3.82-5.25-8.85-9.11-9.66-7.38-.35.76,4.2,6.37,5.76,7.1,1.81.84,3.46,2.78,3.06,3.63-.15.32-1.73-.1-3.52-.94-2.72-1.27-3.68-1.38-5.65-.76s-2.1.8-1,.91c3.67.38,5.94.91,6.13,1.44.35,1-5.42,2.15-9.34,1.83-5.24-.4-8-.23-8.38.51-.69,1.47,5.08,2.25,8.31,1.1ZM308,103.89c.31-.67-1.08-.6-1.8.09s-.63.74.42.47a3.52,3.52,0,0,0,1.37-.56ZM171.5,40.7c.15-.32,1.24-.63,2.43-.68a31.54,31.54,0,0,0,6.15-1.34l4-1.25-3.42-1.35c-1.87-.73-3.33-1.55-3.16-1.92.62-1.32,9.55-3.52,13.46-3.32l4.17.23-1.73-1.91c-1.65-1.77-2-1.85-5.06-1.56a45.88,45.88,0,0,0-7.68,1.65c-3.54,1.07-4.37,1.58-4.32,2.64s-1.62,3.66-5.28,7.6c-.64.7-.8,1.26-.41,1.44a.68.68,0,0,0,.91-.28Zm37.69,16.38a24.93,24.93,0,0,0,9.31.29c4.48-.72,6.13-1.31,13.63-4.58a23.82,23.82,0,0,1,14.29-1.5,19.57,19.57,0,0,0,4.18.49c1.19-.43-5.4-2.81-7.28-2.63s-2.38,0-6.13-3.14c-3.09-2.55-4-3.08-3.75-2.2A3.29,3.29,0,0,0,235,45.58c1.56.73,3.2,4.07,2.31,4.66-.4.26-2.57-.64-5.73-2.39C227.2,45.43,226.05,45,223,45a17.12,17.12,0,0,1-4.39-.52c-.84-.4-.89-.32-.35.55.35.55,2.71,2,5.26,3.17,4,1.88,4.56,2.3,4.13,3.23-.59,1.27-5.46,1.68-10.21.84l-3.37-.59L216.89,53c2.79,1.37,3.36,2.73,1.05,2.49-4.7-.5-15.16-.28-13.93.29.26.13,2.62.7,5.23,1.27ZM319.81,101c-.05-.43,1.5-1.39,3.45-2.15,6.57-2.57,13.35-6.11,16.41-8.59,1.73-1.33,3.3-2.34,3.53-2.24.67.32-.18,1.94-1.56,3s-1.2,1.16,3.79,1.77c4.48.51,6.29.21,10.84-1.78,3-1.3,3-1.39,1.4-1.56a22.13,22.13,0,0,0-4.74.21l-5.06.8c-2.55.39-3.61-.07-3.51-1.5.05-.74,1.85-1.76,5.48-3.08,5.12-1.88,11.2-5.09,11.73-6.22.13-.29-.3-.38-1-.22-2.14.57-2.25-.89-.2-2.74,3.68-3.35-.15-1.27-6.29,3.43-7.3,5.56-8.06,5.07-3.35-2.29,1.81-2.8,3.21-5.34,3.1-5.62s-1.66,1.21-3.52,3.29-3.65,4.15-4,4.56c-.56.6-.82.35-1.22-1.23l-.5-2L342.73,81c-1.52,3.56-2.3,4.65-4.68,6.48-3.77,2.93-5.24,2.62-3.35-.72a12.85,12.85,0,0,0,1.52-4.16c.1-1.33-.73-.34-4,4.76-4.54,7.13-7.76,10.14-13.7,12.82a13.88,13.88,0,0,1-5.66,1.35A4.49,4.49,0,0,0,310,102c-.38.36,1.67.46,4.57.21s5.22-.81,5.17-1.23Zm-19.92-7a12.6,12.6,0,0,0-1.1-2.72c-.5-.23.94,4.73,1.45,5,.31.14.15-.87-.34-2.3Zm-23.32-14.8a5.2,5.2,0,0,0-1.36-2.43c-.35-.16-.16.77.46,2,1.42,3,1.84,3.15.9.43ZM223.46,51.1l2.63-.17-2.17-1a13.48,13.48,0,0,0-4.53-1.13c-2-.08-2.24.06-1.34.74,1.84,1.5,2.74,1.77,5.4,1.6ZM291,67.52a14.93,14.93,0,0,0,2.93-5.19l.64-2.45-2.18,1.9a26.56,26.56,0,0,0-4.24,5.15c-2.21,3.54-2.79,4-3.83,2.92-.52-.54.09-2.55,2.53-8.34,2.22-5.3,3.09-8.07,2.84-9-.31-1.25-.8-.67-3.57,4.68-3.19,6.06-3.21,6.11-3.23,12a36.32,36.32,0,0,1-.46,6.83,7.13,7.13,0,0,0-.51,2.13c-.05.8,1.15-.4,3.33-3.3,1.88-2.49,4.44-5.76,5.71-7.27Zm67.22,43.82c-.31-.83-1.88-.44-1.77.44.06.52.4.67,1,.47s.84-.59.74-.88Zm-20-14.82a.51.51,0,0,1,.72,0,.36.36,0,0,1,.07.1,4.06,4.06,0,0,0,2.37.62c2,.08,2,.07-.77-1.69-2.41-1.53-3-1.67-4.42-1a5.63,5.63,0,0,0-1.84,1.2c-.29.61,3.29,1.31,3.87.77ZM281.6,68.38a25,25,0,0,0-.91-9.15c-.81-2.76-.3-3.82.63-1.36.35.9.6.52,1.43-2.06,2.21-7,4.95-21.35,4.13-21.73s-4,9.54-4.09,12.2c-.09,3-.94,4.38-2.41,3.69-.79-.36-.92,0-.83,2.61.2,5.69-.72,1.78-1.45-6.2s-.65-10.65.22-6.86c.44,1.86.52,1.94,1,.84a31.18,31.18,0,0,0,1-6.07,60.85,60.85,0,0,1,.8-6.15,24,24,0,0,0,.38-4.55l0-3.3-1.41,2.87a16.3,16.3,0,0,0-1.48,5.3c-.05,1.35-.38,2.49-.72,2.53-.86.1-1.37-2-1.75-7.18-.36-4.76-1.36-9.17-2.17-9.55s-.76,4.74.08,8.61c.76,3.5.52,5.41-.76,5.88-.33.12-1.36-1.82-2.27-4.3-1.69-4.54-2.87-5.22-3.13-1.79a5.51,5.51,0,0,0,1.46,3.61,16.66,16.66,0,0,1,2.64,5.64c.58,2.14,1.93,6.14,3,8.91,1.81,4.75,2.69,10.51,1.64,10.89-.5.18-.56.1-4.4-7.13-2.56-4.87-3.23-5.61-3.87-4.24s.86,5.77,3.38,9.31c4.24,6,5.41,10.92,1.37,5.74-1.9-2.44-6.05-6-6.33-5.35a6.89,6.89,0,0,0,.48,2.28c.53,1.59.89,1.91,2.07,1.76s2,.49,4.3,3.46a53.42,53.42,0,0,0,4,4.55A13.7,13.7,0,0,1,280,66.47,28.33,28.33,0,0,0,281.33,70a4.07,4.07,0,0,0,.29-1.69Zm-82-37.94c.86-.14.64-.3-.82-.62-2.43-.54-3.1-.43-1.53.28a4.68,4.68,0,0,0,2.34.34Zm.94-1.76c1.14-.07,1.43-.3,1-.9-.65-1-3.33-1.49-6.41-1.23l-2.21.2,3,1A16.72,16.72,0,0,0,200.52,28.68Zm56.06,26.24c.28-.59-2-3.84-3-4.31-.31-.14-1,.22-1.49.82-.67.79-.63,1.1.11,1.15a4.14,4.14,0,0,1,2.09,1.23c1.48,1.57,1.91,1.79,2.25,1Zm2.12-4A16,16,0,0,0,259,48a24.68,24.68,0,0,1,1.21-4.95c1.32-3.94,1.48-6.15.42-5.77-.55.21-1.84,4.73-2.46,8.68-.33,2-1.39,1.45-1.38-.79,0-1,.53-5.07,1.16-9.1,1.73-10.8.68-11.21-2.07-.82l-.69,2.59L254.35,36c-.49-1-.73-1.31-.54-.64.44,1.42-.4,3.46-1.23,3.07-.55-.25-.61-1.91-.57-14.09a33,33,0,0,0-.84-7.67l-.83-2.94-.91,2c-1,2.18-1.09,5.46-.15,9.06.36,1.27.34,2.54,0,2.78-1,.65-2.28-3.11-3.12-8.85a45.15,45.15,0,0,0-2-8.2l-1.24-3.13.09,3a13.75,13.75,0,0,0,.68,4.26,8.63,8.63,0,0,1,.67,2.63c.14,2.5-1.35.86-4.33-4.72-1.58-2.94-3.07-5.26-3.41-5.15-.68.25,1.57,5.29,3.06,6.89.6.63,1,1.46.78,1.83s-.67.32-1.1-.13a21,21,0,0,0-2.21-1.89c-1.41-1.06-1.42-1-.25,1.65a11.85,11.85,0,0,0,2.37,3.68c1.51,1.24,6,8.31,5.64,9-.44,1-3-.77-6.07-4.06a17.41,17.41,0,0,0-3.37-3.16c-.18.05.16,1.37.74,2.9.9,2.35,1.74,3.24,5.24,5.51,4.13,2.7,8.35,7,7.87,8.08-.31.67-.58.54-3.14-1.46-4.64-3.63-1.23,1.35,5,7.31a24.6,24.6,0,0,1,4.29,5.64c1.75,3.64,2.74,4.18,3.24,1.76Zm-13.56-7.54a62.38,62.38,0,0,0-5.64-4.19c-6.4-4.45-7.2-5.85-8.7-15.1-.5-3.13-1.18-5.83-1.49-6s-.63-.16-.69,0a17,17,0,0,0,.11,6,1.22,1.22,0,0,1-.2,1.72,1.24,1.24,0,0,1-1.27.15c-1.45-.68-1.92-2.42-2.31-8.44a29.89,29.89,0,0,0-1-6.65c-.72-1.7-.72-1.69-.79.44a15.28,15.28,0,0,0,.28,3.44,4,4,0,0,1-.13,2.31c-.87,1.87-2.13.22-2.67-3.46s-2.38-10-3-10.32c-.18-.08,0,1.62.45,3.76.72,3.65.45,6.12-.58,5.64a20.78,20.78,0,0,1-2.55-3.07c-1.17-1.56-2.2-2.68-2.29-2.5s-.86-.52-1.65-1.52l-1.52-1.81,1,2.16c1.21,2.61,1,3.2-.76,2.4-1.25-.58-1.3-.52-.67.68a10.71,10.71,0,0,0,3,2.84,12.6,12.6,0,0,1,3.32,3.39,27.15,27.15,0,0,0,2.89,3.86c2.86,3.13,1.39,3.69-3.26,1.24-2.38-1.27-4-1.86-4.17-1.45-.42.9,1,2,7.52,5.41,6,3.19,8.38,5.17,7.13,6-.47.31.15.69,1.94,1.18,3.49,1,5.06,2.43,4,3.72-.77.93-.44,1.17,5.16,3.71,3.27,1.52,6.06,2.95,6.2,3.26a3,3,0,0,0,1.38,1.1c.67.31,1.15.39,1.07.19ZM229.36,34.2a5.75,5.75,0,0,0-3-1.39c-1.67-.24-1.54-.09,1,1.12,2.29,1.07,2.77,1.16,1.93.29ZM269.53,49c.06-.13-.23-.6-.63-1s-.72-.46-.68,0c.1.72,1.1,1.53,1.33,1Zm54.43,20c-.11-.29-.42,0-.69.65s-.22.91.2.52a1.31,1.31,0,0,0,.48-1.17ZM61.73,212.66c0-.52,1.67-2.6,3.63-4.61a35.08,35.08,0,0,0,4-4.67,13.82,13.82,0,0,1,3.17-3l2.7-2-2.68-.59a9.6,9.6,0,0,1-3.35-1.27c-1.13-1.17.06-2.49,2.41-2.57a12,12,0,0,0,4.78-1.64c3.28-2,10.2-3.54,11.23-2.49a3.26,3.26,0,0,0,2.61.44c1.84-.37,1.84-.38-.42-1-3.27-.9-9-3.49-9.54-4.32-.32-.5,0-1,1.13-1.68,1.56-1,3.08-.91,12.08.48,5.15.79,5.93.56,3.57-1.13-4.09-2.92-2.37-5.63,2.59-4.08,2.43.74,3.51.25,7.62-3.47.26-.23-.21-.38-1-.33-1.44.08-2.11-.54-1.66-1.51.38-.8,6-3.07,8.51-3.41,2.17-.29,2.23-.34.67-.66-.91-.19-3.49-1-5.72-1.78-3.5-1.24-4.18-1.7-5-3.36-1.12-2.35-.52-2.62,4.19-1.53,3.66.85,3.72.83,2-.46-1-.74-1.65-1.55-1.52-1.82.29-.63,2.14-.45,3.89.37.91.43,1.6.33,1.87-.23a2.45,2.45,0,0,1,2-1c1.51-.09,1.51-.18.09-2.57-2.85-4.77-1.15-4.4,8.25,1.78a82.26,82.26,0,0,1,8.22,6c1.77,1.64,2.77,2.2,3.87,2.14,2.14-.11,3,.45,2.08,1.35-1.19,1.15-.86,2.32.53,1.95,2.2-.57.49,1.33-1.86,2.16s-5.22,2.71-5.75,3.93,8.29-2.69,11.6-5.1c2.75-2,4.27-2.42,3.61-1-.55,1.16-7.16,5-13.84,7.95-3.65,1.62-6.56,3.24-6.45,3.55s1.25.07,2.47-.56l3.28-1.58c1.91-.94,1.68.71-.3,2.07s-9,9.49-8.75,10.15,5.87-4.35,7.22-6.15c1.59-2.13,2.35-1.38,1.37,1.36l-.84,2.34,1.62-1.45a46.22,46.22,0,0,0,3.75-4c3.14-3.82,3.8-3.1,1.36,1.5l-2.08,4,1.93-1.65c5.25-4.49,13-15.06,11.49-15.75-.31-.14-1.58.72-2.83,1.93-3.25,3.15-11.5,9.14-11.4,8.27.07-.64,4-4.2,12.75-11.59a11.71,11.71,0,0,1,3.45-2.24,13.78,13.78,0,0,0,3.65-2c2.87-2,5.24-2.88,5.52-2.09.11.26-1.89,1.69-4.41,3.19-4.59,2.74-5,3.17-5.83,6.72l-.44,1.92,2.65-1.62c5.71-3.5,10.4-8.08,10.88-10.53.3-1.65,1.47-1.23,1.65.6.11,1.15.2,1.13.66-.17.28-.82.87-1.46,1.29-1.42,1,.09-2.07,8.51-4.56,12.54a14.72,14.72,0,0,0-2.25,6.68c-.42,3.69-2.49,9-4.12,10.6s-3,0-2.85-3.21l.19-3-.73,2.21c-2,6.09-4.63,12.18-5.52,12.71s-1.17.37-1.79-.57-1-1-2.69,1a14,14,0,0,1-4.19,3.25c-1.93.85-2.32.81-2.47-.18a11.27,11.27,0,0,1,1.18-4.18l1.4-3-2,1.21c-4.5,2.41-3.53-.09,2.21-5.72,3.19-3.13,3.25-3.24,2.64-4.79s-.69-1.53-2.48.09a14,14,0,0,0-2.18,2.3c-.45,1-2-.06-2.1-1.4-.08-1-.38-.93-1.71.31a3.49,3.49,0,0,1-2.93,1.06c-.81-.23-2.37.36-4,1.61-3,2.3-5.43,3.44-5.86,2.78-.55-.83,1.69-5.21,3.94-7.73,2.88-3.2,2.83-3,.91-3.88-1.32-.61-1.5-1-.9-1.83s-.46-.69-3.79.44c-3.82,1.24-4.54,1.29-4.67.27s-.48-1.16-2.94-.8a9,9,0,0,1-3.79,0,14.74,14.74,0,0,0-4.18-.51,14.85,14.85,0,0,1-4.54-.66c-.76-.36-1.35-.29-1.3.13s1.7,1.52,3.64,2.43c2.62,1.22,3.46,1.87,3.17,2.48-.47,1-5,.9-14.18-.35-3.87-.53-7-.65-6.94-.28s.76.72,1.66.78A25.81,25.81,0,0,1,90.48,187c3.55,1.41,3.64,1.49,3,2.93-.51,1.09-1.45,1.53-3.67,1.69a51.79,51.79,0,0,0-8.09,1.74A43.52,43.52,0,0,1,74.57,195c-1.12,0-2.16.32-2.3.62-.32.68,1.89,1,6.23.85,3.93-.12,4.6.52,1.92,1.88a5.86,5.86,0,0,0-2.28,1.82A6.18,6.18,0,0,1,75.81,202c-2,1-7,6.22-6.67,7,.18.51,8.33-3.66,9.57-4.92.48-.47,1.14-.73,1.49-.57.79.37.88.22-2.22,3.44a45,45,0,0,0-4.6,5.79c-3.64,5.71.25,2.69,8.54-6.61,4.29-4.81,8.93-9.68,10.27-10.86l4.43-3.75c2.4-2,17.72-7.76,19-7.15s-.56,1.78-4.53,2.62c-5.1,1.07-14.93,5.18-14.37,6,.34.52-.88,2.52-4.29,7-5.78,7.67-9.71,15.62-8,16.41,1.11.52,8.83-9.23,17.7-22.32,2.57-3.78,4.33-4.75,6.31-3.45,1.06.69.94,1.11-2,6.88a53.4,53.4,0,0,1-6.22,9.82c-3.26,3.81-4.75,6.35-4.37,7.4.26.72,3.83-3.12,4.79-5.13.37-.79,1-1.17,1.54-.92s.51,1.25-.84,4.16a27,27,0,0,0-2,7.26l-.3,3.51,1.69-3.63a34.53,34.53,0,0,0,2.37-7.27c1.13-6.47,2.14-7,2.29-1.05.2,9,2.12,5.85,4.64-7.58a74.32,74.32,0,0,1,3.31-12.29c1.43-3.06,5.33-7.82,7-8.51s1,1-2,4.11a28.23,28.23,0,0,0-4.06,5.25,108.94,108.94,0,0,0-3,12.22c-2.68,12.85-4,17.06-5.34,16.43-.53-.25-1.18-1.65-1.41-3.2l-.44-2.74-1.24,3.38c-1.45,3.9-3.75,7.38-4.63,7s-.61-4.34.38-8.74l.77-3.47-1.59,2c-3.48,4.32-4.25-.81-.92-6.11,1-1.54,2.76-4.65,4-6.89s3-5.44,4-7.11c1.47-2.4,1.68-3.06.95-3.15-.5-.05-1.39.63-1.91,1.56-4.77,8.11-19.48,26.17-20.81,25.55-.9-.42-.45-3.76,1-7.79a47.69,47.69,0,0,1,7.59-12.77c.71-.77.71-.83-.27-.23S76,214.34,75.52,215.27s-4.29,2.84-5,2.53c-.39-.18.27-2,1.81-4.93,1.34-2.57,2.18-4.5,1.91-4.4-11.87,5.94-12.7,6.22-12.55,4.22Zm4.71-3c.15-.32-.17-.31-.72,0a4.06,4.06,0,0,0-1.28,1.23c-.15.32.17.32.72,0a4,4,0,0,0,1.27-1.21Zm72.33-6.84a17.48,17.48,0,0,0,3.61-4.63c2.33-4,4.2-4.84,3.37-1.46-.27,1.1-.14,2,.28,1.92.77-.1,1.68-2.53,4.16-11.06.95-3.28,1.69-4.86,2.73-5.87,2-1.83,2.3-1,1.55,3.66-.83,5.22-.6,6.83.65,4.51,1.58-2.95,2.08-4.68,2.63-9.21a15.73,15.73,0,0,1,2-6.71c1.46-2.25,1.42-2.25-1.2.41-4.14,4.14-4.13,4.13-4.24,3.75s1.32-2.14,3.11-4.3q5.87-7.1,1.67-3.19a65.88,65.88,0,0,1-7,5.09c-4.86,3.11-8,5.67-7.73,6.33.06.18.88-.13,1.82-.71,3.91-2.42,5.29,1.66,1.45,4.29-3.25,2.23-5.53,5.08-4.46,5.58s.11,2.7-1.71,4.47-5.3,7.54-4.74,7.8a3.17,3.17,0,0,0,2-.71Zm-25-23.58,3.38-1-3.77.27c-4.77.32-5.67.59-4.19,1.25.65.3,2.71.07,4.57-.49Zm-1.43-2.1a40.12,40.12,0,0,0,8.38-2,43.88,43.88,0,0,1,6-1.77c.69.32-.53,1.83-2.18,2.7-1,.51-2.89,1.7-4.28,2.66l-2.52,1.73,3.58-1.19c2-.66,3.67-.93,3.79-.61.26.73,2.68-1,4.31-3.24a15.34,15.34,0,0,1,3.64-3.07,7.45,7.45,0,0,0,2.17-1.56c-.13-.07-3.11.19-6.6.56s-6.76.46-7.25.22-.22-.56,1.05-.78c8.74-1.5,12.19-2.47,11-3a7.55,7.55,0,0,1-2.29-1.92c-1-1.26-10.81-8.52-13-9.57-.6-.28-1-.17-1,.24.13,1,6.41,6.64,8.57,7.65,1.13.52,1.59,1.11,1.31,1.71-.51,1.09-1.86.83-9-1.72-3.87-1.38-5.27-1.66-4.48-.93,1.93,1.82.63,2.65-2.6,1.67-4.74-1.42-6-1.58-5.92-.74.12,1,5.58,2.83,11.62,3.84,4,.67,4.62.91,4.27,1.66-.23.49-1.47,1-2.7,1.06-3.58.24-9.4,1.58-9.7,2.23-.15.32,1.07.5,2.65.48,4.38-.17,4.79.44,1.28,1.85-1.73.7-3.77,1.63-4.55,2.06-1.35.77-1.35.79.22.38A27.31,27.31,0,0,1,112.35,177.14ZM141.8,191.7c.15-.33-.16-.31-.72,0a4,4,0,0,0-1.27,1.23c-.15.33.16.31.71,0a3.65,3.65,0,0,0,1.27-1.23ZM336.33,322.49c.38-.83.43-1.62.1-1.78a.67.67,0,0,0-.88.32c-.63,1.35-2.11-.41-1.92-2.3a4.22,4.22,0,0,0-.41-2.66c-.41-.42-.09-1.59.93-3.45l1.55-2.81-1.89.94c-1.6.8-1.92.76-2.09-.25-.25-1.67,2.61-7.41,4.7-9.45,3.81-3.74,3.81-3.73,1.4-2.65l-2.25,1.07.36-1.86A17.56,17.56,0,0,1,338,293c1-1.61,1.48-2.89,1.16-3-.8-.38,1.42-4.92,3-6.08s5.07-6.37,9.11-13.77c2.81-5.15,3.31-6.47,3.24-8.63-.08-2.74.75-3.77,1.2-1.49a2.73,2.73,0,0,0,.74,1.63c1,.48,1.94,9.79,1,10.15-.27.09-.82,1.6-1.2,3.34a85.82,85.82,0,0,1-3.31,9.61c-2.48,6.17-2.75,6.58-6.6,10.16-2.22,2.07-4.24,3.66-4.5,3.54-.71-.33-4.78,4.12-6.88,7.51-3,4.93-1.12,4,5.28-2.43,4.42-4.47,6.57-4.76,4.63-.62a32.61,32.61,0,0,1-3.65,5.45,33.33,33.33,0,0,0-4,6.48l-1.63,3.65,1.93-2.32c2.75-3.28,3.95-2.87,2.35.79-.74,1.6-.9,2.45-.44,1.86a5.2,5.2,0,0,1,1.66-1.36c1.14-.46,5.58-10.18,4.81-10.54-.5-.23.6-2.5,1.74-3.6a5.54,5.54,0,0,0,.63-1.35c.62-1.8,2.14-.44,1.69,1.51-.25,1-.76,3.13-1.12,4.77-.9,3.75-1,5.37-.18,5.73,1,.46,3.85-10,4.89-17.91.31-2.43,1.52-1.27,1.48,1.42a20.31,20.31,0,0,0,.48,4.4c.7,2.74,1.45,1.21,1.24-2.52a11,11,0,0,1,.5-4.18,12.68,12.68,0,0,0,.15-5.06c-.45-3.52-.33-5,.41-4.65s4.83,9,4.55,9.62c-.15.34,0,.52.29.41.9-.34-.15-5.58-2.81-13.78-1.53-4.72-2.14-7.62-1.6-7.56,2.1.24,7.87,24.11,6.1,25.27-.8.53-2.37-1.58-3.85-5.11a7.13,7.13,0,0,0-1.26-2.31c-.23-.11-.61,2.35-.87,5.46-.71,8.5-2.68,11.78-4,6.68l-.72-2.74-.34,2.38a37.25,37.25,0,0,1-2.86,10.56c-1.12,2.41-1.47,2.77-2.26,2.25a5.94,5.94,0,0,1-1.33-3.18l-.4-2.51-2,3.56c-3.58,6.23-10.26,13-8,8.08Zm4.7-16.31a8.47,8.47,0,0,1,1.44-2.06c.5-.51.63-.81.34-.74-1,.32-3.44,3.42-2.83,3.71.31.14.8-.26,1.1-.89Zm.32-11.59a12.42,12.42,0,0,0,2.63-2.54,22.78,22.78,0,0,1,3.75-3.46c3-2.36,3.57-3.19,5-6.78,1.75-4.5,3.11-10.05,2.92-11.88-.09-.78-.41-.34-1,1.36-.83,2.33-3,5-8.12,10-3,2.92-3.22,4-.44,2.14a22.38,22.38,0,0,1,3.13-1.85c1.17-.39-2.25,4-5.53,7.12-6.13,5.8-7.84,10.1-2.3,5.77ZM80.74,145.69a36.71,36.71,0,0,1,2.33-6l2.28-4.89-2.85,1.39a9.14,9.14,0,0,1-3.44,1.14c-1.07-.5,1.17-5.84,3.81-9.05,2.9-3.53,5.28-5.26,8.15-6a10.38,10.38,0,0,0,3.15-1.45l1.28-1-2,.58a15.42,15.42,0,0,1-4.28.43,8.83,8.83,0,0,0-3.35.37c-2.22,1.05-2.31,0-.28-3.51s4.52-5.61,6.56-5.45,9.89-2.27,10.34-3.23c.35-.74,0-.8-1.49-.3-2.35.76-5.75.24-5.26-.81a6.72,6.72,0,0,1,2.2-1.76c3.23-1.89,3.27-2.05.47-2-4.25,0-5.82-.33-5.39-1.26.32-.7,10.48-5.91,11.51-5.94,1.57,0,15-1.51,15.33-1.67,1.23-.61,7.31-1.75,7.9-1.47,2.92,1.36-9,3.77-20.48,4.14-3.27.09-11.84,4.08-10.28,4.8.48.23,3.06-.2,5.75-1a26.94,26.94,0,0,1,5.33-1.15c.61.29.07,1.31-.75,1.41-1.17.15-8.44,5.35-7.57,5.44.47.06,4-1.32,7.8-3,7.51-3.41,9.53-3.87,10-2.39.24.65,1.73,0,5-2.15,9.35-6.18,13.18-8.35,12.93-7.3a4,4,0,0,1-1.76,1.9,2.59,2.59,0,0,0-1.49,2.06,36.06,36.06,0,0,1-1.23,5.8c-.7,2.56-1,4.92-.66,5.27s.41,2,.17,3.59a34.79,34.79,0,0,0-.27,6l.16,3,1.67-3.1a11.74,11.74,0,0,0,1.62-6.2A14.87,14.87,0,0,1,134,107c.53-1.14,2.07,0,1.88,1.37-.16,1.21,1,4.9,1.34,4.21s.33-5.82-.05-9.16c-.66-5.68.13-8.77,3.12-12.43a58.28,58.28,0,0,1,6.31-6.26c6.25-5.23,14.85-10.16,13.8-7.91a37.26,37.26,0,0,1-4.79,3.19,105.07,105.07,0,0,0-8.84,6.1c-3.83,3-4.47,3.8-6.49,8.11-2.11,4.53-2.23,5.13-1.88,10.54.42,6.7-.18,11.24-1.53,11.73-.62.23-1.09,0-1.47-.86-.5-1.06-.79-.66-2.67,3.37-1.27,2.72-2.36,4.42-2.73,4.24s-.78-1.83-1-3.76a12.39,12.39,0,0,0-.67-3.62c-.18-.09-.73.53-1.2,1.37-1.17,2.06-2.84,2.81-3.44,1.56-.29-.62.67-3.6,2.83-8.7,2.08-4.91,3.23-8.42,3.14-9.57-.13-1.87-.14-1.86-1.9.58-1.88,2.61-2.68,4.62-6.94,17.5-1.49,4.51-3,8.81-3.35,9.56-1.18,2.52-2.73,1.45-4.19-2.86-1.16-3.43-1.22-4.77-.37-8.46.55-2.4,1.12-4.64,1.22-5s-.2-.3-.74.08c-1.74,1.21-5.38,7.93-6.19,11.46a88.85,88.85,0,0,1-3,9.27c-2.12,5.54-2.33,5.87-3.38,5.33-2.34-1.21-3.63-4.16-3.22-7.29a13,13,0,0,1,1.29-4.3c.47-.68.63-1.35.41-1.45-.78-.36-4.27,5.8-6.13,10.78-2,5.44-3.89,7.59-8.86,10.08-3.1,1.55-3.82,1.53-3.7-.15ZM88,141.85c1.63-1.45,3-3.61,5.45-8.73,3.57-7.45,8.14-14.08,10.23-14.83,1.18-.43,1.14-.08-.43,3.29-2.08,4.46-3.23,10.73-2.41,13.14.57,1.68.6,1.67,1.83-1a79.34,79.34,0,0,0,2.91-8.44,58.87,58.87,0,0,1,3.59-9.36c3.07-5.67,9.22-10.29,10.67-8.06.19.3-.72,2.45-2,4.77a18.91,18.91,0,0,0-2.77,7.68c-.43,3.61.47,7.88,1.43,6.86a78.14,78.14,0,0,0,3.31-9.32,143.1,143.1,0,0,1,5.35-14.26l2.59-5.54-3.47,2.21c-1.91,1.22-5,3.38-6.93,4.8s-3.72,2.36-4,2.07-2,.33-3.74,1.38a43.14,43.14,0,0,1-8.48,3.39c-2.92.85-6.21,1.87-7.34,2.35-2.19.94-6.69,4.26-6.5,4.8.31.86,5.5,0,9.42-1.51,2.82-1.1,4.35-1.38,4.28-.78-.11.94-4.63,4.58-8.39,6.76a21.84,21.84,0,0,0-7.35,6.12,13.3,13.3,0,0,1-3,3c-.9.57-1.29,1.15-1,1.55.59.89,5.09-1.6,6.6-3.66.88-1.2,1.61-1.56,2.39-1.2,1.33.62,1,1.56-1.17,3.1-1,.73-2.48,2.95-4.22,6.69l-2.63,5.63,1.81-.55a13.57,13.57,0,0,0,4-2.4Zm40.85-31.33c-.09-1-.6-.28-2,2.85l-1.9,4.21,2-2.85Q129,111.88,128.84,110.52Zm140.69,104a25.4,25.4,0,0,1,2.4-7.16c1.27-2.72,2.09-4.64,1.83-4.35s-1.61,1.85-3,3.5c-3.86,4.5-4.45,3.33-1.23-2.4,1.48-2.62,3.32-5.76,4.12-7l1.44-2.24-1.92,2c-3.67,3.81-6.39,5.39-8.08,4.6a12.93,12.93,0,0,1,.83-3c.76-2.28,2-3.94,5.16-7.23a56.1,56.1,0,0,1,5.54-5.14,17.23,17.23,0,0,0,3.39-3.69c1.88-2.66,2-3,1.47-6.87a34.31,34.31,0,0,0-1.21-6c-1.25-3.39,1.91-5,10.27-5.22,4.47-.12,4.62-.06,4.13.93-.19.41-1.46.76-2.76.81s-3.78.14-5.51.22l-3.14.15,1.13,2.44c1.25,2.69,2.51,8.38,2.07,9.34-.16.34-.74-.89-1.3-2.72l-1-3.32.24,2.65c.23,2.72-1.56,12.17-2.36,12.46-.25.09-.13-1,.27-2.46,1-3.54.38-4.11-1.47-1.39a36.6,36.6,0,0,1-5.54,5.59,57.57,57.57,0,0,0-5.94,5.64c-2,2.43-3.17,5.86-1.76,5.36s6.42-6,7.29-7.9,1.68-1.87,2.18.06c.24.89-.39,2.55-2.16,5.72-1.89,3.36-2.17,4.12-1.12,3.09,3.31-3.29,3.31,1.55,0,6a12.83,12.83,0,0,0-2.5,5l-.3,2.07,1.06-1.33a40.28,40.28,0,0,0,2.64-4.18c1.95-3.51,3.71-3.79,2.19-.36a11.47,11.47,0,0,0-1,3.77c0,3,3.38-7.25,3.62-10.9.27-4.42.73-5.63,1.93-5.07.73.34,1-.43,1.32-4.29a37.81,37.81,0,0,1,1.21-6.85c.94-2.63,2.63-2.72,2-.09s-1.3,5.94-1.92,9.75c-.45,2.73-.7,3.27-1.57,3.37s-1.1.7-1.39,3.5a45.15,45.15,0,0,1-2.57,9.07c-1.94,4.95-2.36,5.63-3.18,5.25a1.88,1.88,0,0,1-1-1.21c-.15-1.25-1.18-1.38-1.72-.22a4.81,4.81,0,0,1-1.81,1.8c-1.2.67-1.27.52-1.19-1.58ZM52.06,100.12a8,8,0,0,1,3.5-3.6,25.9,25.9,0,0,0,2.5-1.46A7.14,7.14,0,0,0,56,94.75c-2.77-.19-2.88-.92-.47-2.74a7.55,7.55,0,0,0,2.06-2c.15-.88,2.3-2.24,8.67-5.61l6-3.15-4.21-3.3c-5.17-4.08-6-5.35-4.26-6.19,2.35-1.11,9.14-1.25,11.31-.24,1.16.54,2.09,1.27,2.06,1.62s1.8,2,4.1,3.48c3.49,2.39,4.5,2.85,6.28,2.82,3.5-.06,3.49-1-.08-3.21S80.19,71,79.71,69.94c-.64-1.41,4.14-1.3,8.14.2l4.06,1.52L90,69.15c-2.09-2.79-2.51-4.9-1.16-5.8.73-.47,1.6.16,4.69,3.42,3.49,3.71,3.9,4,5.6,3.72a3.37,3.37,0,0,0,2.07-.82c.15-.31,2.33-1.39,4.85-2.38,4.28-1.75,6.57-1.93,5.91-.49-.16.34.71.56,2,.5,3.6-.15,3,.68-1,1.34-5.9,1-9.07,4.4-16.09,17.28-3.83,7-5.45,9.13-7.14,9.34-1.16.11-1.45-.22-1.79-1.8l-.43-2-1.39,1.85c-2,2.65-6.32,6.45-7,6.13-.33-.15-.47-.89-.34-1.65.24-1.26.1-1.27-1.71-.07-2.42,1.62-3.13,1.34-2.86-1.12.19-1.78,0-1.7-2.25,1.32-4.06,5.31-9.56,9.12-10.69,7.4-.25-.37.26-2.21,1.11-4.09l1.59-3.4L61.32,99.2c-3,1.56-9.26,3.69-9.92,3.38-.24-.12,0-1.23.62-2.48Zm7.19-1.46C64.21,96,72.85,88.75,72,88c-.32-.3.75-.61,2.38-.68,3.82-.16,8.09-1.57,13-4.29,5.12-2.82,6.27-3.69,3.44-2.65-3.2,1.22-6.8.72-8.12-1.11-1.69-2.33-10.7-6.09-14.2-5.88l-2.89.14,1.25,1.28A32.14,32.14,0,0,0,77.52,81.5c2.92,1,3.17,1.17,2.52,2.08-.4.55-2.36,1.33-4.34,1.72-6.77,1.33-12.34,3.26-15.54,5.37-3.43,2.26-3.36,3.19.14,1.92,2.5-.9,5.51-1.49,6.17-1.18.9.42-.33,1.83-2.09,2.34-2.26.66-10.2,4.93-10.54,5.65-.69,1.49,1.95,1.11,5.42-.78Zm7.26,3.49A65.17,65.17,0,0,0,71.86,96a56.22,56.22,0,0,1,5.93-6.6l1.73-1.34-2.68.26c-1.47.15-2.85.74-3.11,1.3a39.52,39.52,0,0,1-4.58,5.09c-4.57,4.57-7.32,9.22-5.14,8.64a8.62,8.62,0,0,0,2.45-1.21ZM83,89.89c.84-1.81,2.12-2.88,2.84-2.54.37.17,0,1.07-.86,2.32-2.47,3.44-4.43,7.12-3.58,6.82A21.36,21.36,0,0,0,85,92.76c5.71-7,10.4-11.89,11.09-11.57.39.18,2.21-1.43,4-3.57s3.19-4,3-4.11c-.53-.25-7.25,4.56-7.69,5.5-.19.41-2.74,2.22-5.64,4C85,85.91,82.06,88.72,77.74,94.38c-.57.74.25.31,1.83-1a16.74,16.74,0,0,0,3.5-3.58Zm10.56-.78c3.31-5.08,3.42-5.3,2.5-5.74-1.43-.66-7.3,7.75-6.66,9.54.42,1.15,1.62,0,4.15-3.81Zm3.72-13.35a61.51,61.51,0,0,1,5.22-3.57L104.59,71l-3.27.83a11.45,11.45,0,0,1-3.94.54,30.19,30.19,0,0,1-3.63-3.52c-5-5.43-5.87-4.69-1.41,1.24,1.48,2,2.46,3.83,2.17,4.14s-2.49-.37-5.65-1.84c-4.7-2.19-6.72-2.65-6.28-1.45a39.38,39.38,0,0,0,5.54,3.58c3,1.71,5.53,3.22,5.71,3.36s1.72-.81,3.46-2.1Zm67.81-51.89c-3.91-2.06-7.23-4.05-7.37-4.43s.31-1.06,1-1.5c1.57-1,1.43-1.17-3.11-4.77a22,22,0,0,1-4.48-4.35c-.76-1.46-.76-1.46.83-1.76s3,.17,4.68,1.83c.88.84,1.79,1.64,2.75,2.39L161,12.54l-1.28-2c-2.24-3.47-3.28-6.77-2.26-7.15,1.85-.68,6,3.5,11,11L169.55,16l-.74-2.49c-1.12-3.83-1.42-6.79-.6-6.41,1.94.9,6.08,7.11,7.77,11.71,1.13,2.92,2.22,5.32,2.52,5.46a.63.63,0,0,1,.26.85c-.63,1.35-1.72-.35-4.28-6.66-1.49-3.65-3.32-7.06-4-7.6-1.2-.86-1.19-.56,0,3.17,2.29,6.91.44,7.09-3.51.42-2.62-4.38-5.12-7.43-6.73-8.18-1.82-.84-.53,1.87,2.81,6.13,1.72,2.16,2.94,4.31,2.73,4.78a6.77,6.77,0,0,0-.49,2c-.05.83-.42.9-1.57.37a9.33,9.33,0,0,0-2.62-.79c-2.77-.19-1.07,1.22,5.3,4.38,4.87,2.41,6.87,3.68,6.83,4.29s-.32.69-.55.51S169,25.92,165.09,23.87Zm-4.4-9.23c-.48-1.09-4.76-4.7-5.32-4.49s.18,1,5.37,5c.15.07.08-.17-.09-.58Zm229.87,87.15c.29-.62.57-.92.68-.63a1.33,1.33,0,0,1-.49,1.16C390.34,102.71,390.26,102.5,390.56,101.79Zm4.31-7.51c.46-1,.8-1.41.77-.92a3.69,3.69,0,0,1-.84,1.81c-.42.52-.4.12,0-.87Zm5.82-12.74a3.85,3.85,0,0,1,1.21-1.06c.8-.51.88-.37.39.72-.35.74-.9,1.22-1.22,1.07a.58.58,0,0,1-.37-.74Z" transform="translate(-51.31 0.09)"/></svg>