<svg id="Layer_1" data-name="Layer 1" xmlns="http://www.w3.org/2000/svg" viewBox="0 0 386.43 500.58"><defs><style>.cls-1{fill:#e4dd99;}</style></defs><path class="cls-1" d="M201.55,499.83c-1.25-1.4-2.7-10-1.86-11,1.3-1.57,2.62-17.13,1.72-20.32-.62-2.17-.7-2.18-4-.49s-4.26,3-4.26,5.93,1,4,3.43,4c1.65,0,1.85-.24,1.84-2.14a10.42,10.42,0,0,0-1-4.06c-1.22-2.34-.79-3.09.55-.95s1.89,5.71,1.09,7.2-3.26,1.68-5.26.6c-1.6-.85-2.32-4.64-1.39-7.29l.71-2.06-3.12.15c-4.52.21-6.08.05-6.08-.61,0-.33,2.21-.7,4.91-.84,4.88-.25,4.93-.27,7.91-3.38a16.59,16.59,0,0,0,3-3.73,7.25,7.25,0,0,1,.44-1.8c.27-.72-.38-.34-1.58.93s-2.46,2.15-3,2.15,0-1,1.47-2.55c2.81-2.95,4.33-7.47,3.63-10.75s-.9-3.36-2.77-1.89-4.08,1.7-5.84.33c-1.19-.94-1.11-1,1.2-.59,3.51.6,5.77-1,5.77-4,0-1.88-2.21-9.2-3.07-10.18-.13-.16-1.13.56-2.21,1.6s-2.15,1.7-2.37,1.47c-.59-.58,2.19-4.29,3.54-4.72,1-.32,1.1-1.12.79-7.13-.23-4.41-.76-7.69-1.52-9.41-2.51-5.61-3.45-12.73-2.73-20.59a14.52,14.52,0,0,0-1-6.95,21.68,21.68,0,0,1-1.25-7.89,17.34,17.34,0,0,0-.44-5.19,26.87,26.87,0,0,1-.69-6.16c-.11-2.93-.38-8.46-.61-12.27s-.52-8.85-.65-11.21a68.16,68.16,0,0,0-1.64-10.14,44.53,44.53,0,0,1-1.3-10.55,45,45,0,0,0-.67-8.44,20.77,20.77,0,0,1-.16-7.84,14.48,14.48,0,0,0-.28-7.1c-1.9-6.33-.67-12.92,3.11-16.59,2.74-2.66,3.6-5.14,4.29-12.4.25-2.63.72-4.78,1.06-4.78.62,0,.43-11-.66-37.28-.59-14.42-1.49-20.38-3.55-23.56a29,29,0,0,1-2.16-5.13,19.65,19.65,0,0,0-1.75-4.26,3.23,3.23,0,0,1-.57-1.85,9.34,9.34,0,0,0-1.14-3.33,12.36,12.36,0,0,1-1.27-3.5c-.14-1.42-5.54-12.25-7.79-15.65-1.49-2.24-1.84-1.77-2.93,4-1,5-4.44,12.93-5.54,12.55-.53-.18-.78-1.94-.76-5.31l0-5-1.49,1a7.77,7.77,0,0,1-1.85,1c-1,0-.12-3.14,2-7.25,1.26-2.52,2.3-4.71,2.3-4.86a12.31,12.31,0,0,0-3.25,1.46c-5.07,2.7-5.07,1.1,0-5.33a31.2,31.2,0,0,0,5.83-14.37c.59-3.66,3.82-10.6,5.37-11.56a1.36,1.36,0,0,0,.62-1c0-1.34-1.73-.5-4.46,2.18s-3.11,2.81-6.66,2.88a15.4,15.4,0,0,0-5.3.88c-2.15,1.15-2.52.33-.85-1.93,2-2.67,1.82-2.88-1-1.44-3.82,1.92-5.74.42-2.63-2.06a56.79,56.79,0,0,1,11.56-7.57c3.33-1.53,4.5-1.72,10-1.59,3.42.07,6.54.38,6.93.67a4.52,4.52,0,0,0,2.48.36c2.05-.2,2.46.79,1.82,4.43-.36,2.06-.26,2.34.74,2.08,2-.51,2.81,2.14,2.36,7.53-.29,3.38-.19,4.78.32,4.66.76-.17.86,8.9.13,11.88-.21.86-.05,1.48.37,1.48s.73-1.76.73-4.94c0-8.08,2.59-5.73,4,3.62,1.13,7.53,2,8.88,1.55,2.31a27.9,27.9,0,0,0-1-6.39,5.09,5.09,0,0,1-.59-1.81c0-1.41,1.12-.64,3.29,2.26,1.22,1.63,2.35,2.83,2.5,2.68.33-.33-2.54-6.48-4.24-9.08s-.55-3,2.57-.52c1.55,1.21,3.24,2.52,3.76,2.91,1.58,1.19-2-3.66-5.64-7.55-4-4.29-6-7.74-5-8.7.44-.43.91-.19,1.4.73.92,1.72,5.32,4,7.66,4,1.5,0,1.16-.38-2.41-2.8-2.28-1.54-4.26-3.18-4.4-3.63-.32-1,1.95-1.1,2.94-.11a3,3,0,0,0,2.28.48c1.08-.16,0-.7-3.39-1.76a27.94,27.94,0,0,1-7.17-3.29c-5.9-4.64-5.58-4.46-5.07-2.85.93,2.92-.71,1.28-3.52-3.53-2.46-4.21-3.35-5.16-5.91-6.29-3.9-1.73-9.8-2.29-12-1.15s-5.1,5.48-6,8.77c-1,3.72-3.43,9.57-4,9.57-.25,0-.64-.94-.87-2.08l-.42-2.08L147,134a65.47,65.47,0,0,1-5,6.64l-2.4,2.66,4.07,1.48a48.06,48.06,0,0,1,7.95,4c2.13,1.38,3.88,2.34,3.88,2.12,0-.68-3.42-3.14-7.87-5.67-2.39-1.35-3.86-2.47-3.27-2.47,1.49,0,9.67,4.58,11.74,6.6a49.84,49.84,0,0,0,4.84,3.91c3.54,2.52,4,3.53,1.32,3l-1.81-.39,1.57,1.39c2,1.75,1.38,2.43-1.23,1.35a14.35,14.35,0,0,0-5.52-.54c-2.93.25-4.15.79-7.26,3.22-2.06,1.6-3.91,3.44-4.11,4.07s-.62,1.16-.93,1.16c-1,0-2.12,4.45-1.42,5.75,1,1.79,6.68,6.43,11.2,9.08,4.06,2.38,7,5.31,6.33,6.36-.56.9-3.44.69-5.59-.42-3.58-1.85-2-.44,3.67,3.3,6.68,4.4,10.21,7.39,10.21,8.65,0,1.1-.63,1.15-3,.25-3.13-1.19-2.47-.22,2.48,3.64a39.25,39.25,0,0,1,5.38,4.75c.87,1.52-.47,2.45-2.18,1.54-1.07-.58-1.66-.58-2.34,0a1.74,1.74,0,0,1-2.22.05c-2.17-1.16-2.72-.86-2.3,1.27.5,2.49-.42,2.56-3.43.26-1.52-1.16-3.36-3.92-5.62-8.41-3.81-7.61-4.57-8.66-4.56-6.33,0,4.29,5.43,12.79,12.65,19.85,5,5,6.3,7.18,4,7.15-1.46,0-6.73-2.39-8.12-3.65-.64-.58-.32.54.82,2.84,2.07,4.2,4.1,12.7,3.23,13.57s-5.17-3.38-6.87-7l-1.61-3.37-.45,2.08c-.93,4.22-3.18,3-4-2.08a14.16,14.16,0,0,0-1.31-4.12,14.89,14.89,0,0,1-1.34-4.62c-.72-4.93-1.1-4.91-2.6.08-.83,2.77-1.74,4.6-2.28,4.6-1.54,0-2.66-4.81-2.83-12.12-.13-6.09,0-7.41,1.3-10a22.84,22.84,0,0,0,1.81-5.28l.35-2.29-.76,2a13,13,0,0,1-1.57,3,7.64,7.64,0,0,0-1.23,2.31,13.35,13.35,0,0,1-2,3.3l-1.6,2-1-2.4c-1.08-2.57-.69-5.17,1.87-12.34.92-2.57.92-2.83,0-2.49-1.76.68-1.82-1.44-.14-4.36,2-3.42,2.53-6,1.91-9.06l-.47-2.29-1.61,2.62c-2.41,3.92-6.6,8.23-8,8.23a1.15,1.15,0,0,0-1.24,1c0,.6-1.32,1.6-3.13,2.39a20.61,20.61,0,0,0-4.87,3,7.65,7.65,0,0,1-3.3,1.83,41,41,0,0,0-6,1.93c-4.72,1.82-7.74,2.2-7.74,1a10.54,10.54,0,0,1,2-3.21l2-2.48-2.13.27c-4.18.52-10.92.53-11.44,0-1.07-1.06,1-2.78,4.43-3.8s3.51-1.05,1.58-1.53c-2.73-.68-9-4.51-8.69-5.34.12-.38,1.4-.93,2.83-1.24,2.25-.48,3.53-.19,9.42,2.14,7.9,3.14,11.26,3.62,4.21.61-5-2.16-6.59-4-4.54-5.52a1.71,1.71,0,0,0,.7-1.8,1.22,1.22,0,0,1,.3-1.43c.48-.29.45-.83-.09-1.69s-.6-1.95.09-4.43c.49-1.73,1-3.9,1.18-4.8l.29-1.65-1.29,1.46a28.17,28.17,0,0,0-3.08,6.6c-3.09,8.85-4.05,9.9-5.68,6.21L92.61,170l-3,2.85a37,37,0,0,1-7,4.95,39.71,39.71,0,0,0-5.17,3.11c-.87.75-1.36.82-1.92.26-1.13-1.13,2.18-5.51,7.16-9.47a40.41,40.41,0,0,0,4.18-3.58c0-.14-.76,0-1.69.39-2.63,1-6.89.82-6.89-.29s5.56-5.28,11.51-8.44c5.35-2.84,5.44-3.36.13-.75s-8.08,1-3-1.86c2.42-1.36,2.57-1.58,1.53-2.34-1.48-1.08-1.16-1.35,3.79-3.14,3.81-1.38,4-1.55,2.68-2.26-3.67-2-1-3.36,9.77-5.06,3.09-.49,6.35-1.08,7.26-1.3l1.65-.42L112,144c-1.86,1.51-4.6,2.17-10,2.41a15.85,15.85,0,0,0-5,.86c-1.19.67-1.19.72,0,1.16a18.46,18.46,0,0,0,5.44,0c2.34-.24,4.25-.2,4.25.09s-2.6,1.09-5.77,1.77a45.15,45.15,0,0,0-7.42,2.1c-1.63.85-1.63.87-.17.89,2,0,1.87,1.1-.33,2.29-2.39,1.3-1.61,1.3,1.49,0,1.83-.76,2.67-.84,3.22-.29.94.95-1,2.42-7.22,5.61a40.87,40.87,0,0,0-7.25,4.71l-2.61,2.34,2.14-.37a25.17,25.17,0,0,0,6.58-3.35c2.54-1.71,4.68-2.73,5-2.39,1.14,1.13.07,3-2.52,4.48-3.3,1.84-12.06,9.23-13.42,11.32l-1,1.56,3.3-1.67c4.57-2.31,9.7-6.49,11.44-9.31,1.91-3.08,3.16-3.1,2.8-.06s1,3,1.6-.14c1-5.64,4.58-11.4,7-11.4,1.42,0,1.65,3.13.48,6.48s-.27,3.89,1.76.81c1.57-2.36,1.94-3.65,2-6.88,0-2.38.37-4.07.82-4.23s.78.5.79,1.62l0,1.87.94-1.65a7.88,7.88,0,0,0,1-3,4.23,4.23,0,0,1,1.34-2.58,4.28,4.28,0,0,0,1.32-2.68c0-2.2,2.43-6.37,5.72-9.8a23.75,23.75,0,0,1,3.21-3c.84,0,.06,1.41-2.24,4-2.59,2.95-5,7.07-4.52,7.6.16.15.65-.59,1.09-1.65,1-2.49,4-5.39,4-3.91a2.78,2.78,0,0,1-1,1.82,15.7,15.7,0,0,0-2.36,4.52c-1.47,3.93-1.34,7.63.29,8.25.74.29.74.9,0,3.79-.49,1.9-1.16,5-1.5,6.8-.54,3-.5,3.21.33,2.07,1-1.32,1.79-4.05,2.53-8.42.31-1.79.75-2.47,1.62-2.47s1.33-.85,1.89-4.23c1.24-7.48,4.46-12.8,6.17-10.22.61.92.43,3.15-.44,5.4-.32.82-.18,1.13.44,1,1-.21,1.1,1.35.41,7.87-.25,2.33-.17,4.26.18,4.48.8.5,1.33-1.73,2.22-9.47,1-8.38,1.86-8.26,3.34.45a5.12,5.12,0,0,0,.6,1.88c.53.53,1.07-5,.91-9.36-.13-3.45,0-3.93,1-3.76.84.14,1.16-.25,1.16-1.45a2.8,2.8,0,0,1,.58-2,3.86,3.86,0,0,0,1-1.86c.38-1.48.37-1.48-.83.1s-1.24,1.59-3.61.46c-1.32-.62-2.65-1-3-.79-.81.51-11.31-1.57-13.4-2.65-2.6-1.34-2.92-2.29-1.23-3.66,1.39-1.13,1.41-1.24.27-1.63-8.32-2.83-12.49-6.68-8.75-8.06,1.37-.51,1.36-.54-.39-2.62-1-1.16-2.19-2.1-2.7-2.1a1,1,0,0,1-.93-1c0-2,3.24-1,7.59,2.31a51.77,51.77,0,0,0,4.63,3.29c.78,0-3-5.28-6.71-9.29-4.18-4.56-5.29-7.2-3-7.2a5.41,5.41,0,0,1,2.53,1c1.28.9,1.25.63-.51-4.33-2-5.8-2.18-6.51-1.22-6.51,1.48,0,4.78,3.92,6.94,8.24l2.3,4.62v-3.46c0-1.91.3-3.47.65-3.47,1.08,0,3.13,4.74,3.62,8.38.26,1.89.83,3.73,1.28,4.1.71.6,1.91,3,4.24,8.63l.68,1.65.05-2a6.68,6.68,0,0,1,.92-3.22c.81-1.11,1-1,2.33,1.59a36,36,0,0,1,2.43,7c.54,2.31,1.3,5,1.68,6l.71,1.83,1.37-2.64a13,13,0,0,0,1.43-4.36c.06-1.8,3.8-5.14,9.29-8.29,3.14-1.81,1.72-2-3.24-.54-3.59,1.09-8,1.3-8.59.4-.19-.32.22-1.31.93-2.21l1.28-1.64-5.41-1.42a43.57,43.57,0,0,0-7.25-1.41c-2.33,0-3.16-1.8-1.41-3.1a6.75,6.75,0,0,1,4.09-.72c2.48.19,2.88,0,3.21-1.28.44-1.74,1.78-1.88,5.07-.5,3.47,1.45,3.67,1.23.92-1-6.94-5.71,2.17-3.36,10.05,2.6a24.1,24.1,0,0,0,4.11,2.73c.28,0,.68-.82.9-1.82s.81-3.09,1.31-4.65l.9-2.84-2,1.69a8.39,8.39,0,0,1-2.61,1.68c-2.64,0,3.58-11.29,8.15-14.78A15.28,15.28,0,0,0,163,84.06l1.21-2-3.26,2c-3.9,2.4-7.4,2.72-7.4.67,0-.89,1-1.93,3.08-3.13a44,44,0,0,0,5.45-3.84A29.6,29.6,0,0,1,165.74,75c1.07-.58.78-.65-1.48-.35-1.54.21-2.8.1-2.8-.23,0-1.71,4-4.8,8.4-6.45,2.63-1,5-2.13,5.22-2.52s0-.54-.82-.17a16.51,16.51,0,0,1-3.57.84l-2.31.31,2-2.22c1.09-1.22,2.49-2.67,3.11-3.21,1-.91.87-1.14-2.15-2.94-5.19-3.1-5.27-5.75-.16-5.37,2.09.16,5.45,1.44,10.69,4.09a91.22,91.22,0,0,0,8.55,4,3.56,3.56,0,0,1,1.62.84,4,4,0,0,0,2.39.7c1.61,0,1.59-.07-.63-1.47a10.68,10.68,0,0,1-2.53-2c-.12-.28-.75-.51-1.4-.51a3,3,0,0,1-2-1,2.63,2.63,0,0,0-1.48-1,43.62,43.62,0,0,1-6-2.71A60.37,60.37,0,0,0,173,50.36c-1.09-.29-3.31-1-4.95-1.63-2.52-.93-3.64-1-7.48-.36-7.24,1.18-11.83,4-16.56,10a34.8,34.8,0,0,1-20.82,12.2c-2.35.39-2.69.6-1.65,1a16.81,16.81,0,0,1,3.93,3.21c3.21,3.33,4,3.42,2.68.32-.54-1.3-.82-2.64-.62-3,.52-.84,8.23,5.34,8.91,7.14,1,2.59,7.17,8,11.21,9.83,3.82,1.72,5.77,3.24,5.06,4-.2.2-1.57-.26-3-1a14.6,14.6,0,0,0-3.34-1.36,23,23,0,0,1-4.15-1.59,29.38,29.38,0,0,0-6.12-2c-1.72-.28-.68.28,3,1.59,7,2.55,12.73,5.38,13.07,6.52.18.59-.65.41-2.55-.56a43.56,43.56,0,0,0-6.12-2.42,23.81,23.81,0,0,1-4.87-2c-1.91-1.26-6.33-.78-10,1.07A22.08,22.08,0,0,1,123.66,93c-2,.38-2.45.27-2.45-.6s-.59-1.06-2-1.06-2-.33-2-1-.83-1-3.5-1c-1.92,0-3.82-.32-4.21-.72-.8-.8-5.26,1.16-6.77,3-1.13,1.37-.54,1.31,2.75-.28,3.55-1.72,4.09-1.17.59.61a28.87,28.87,0,0,0-4.88,3.31c-2.19,1.92-2.2,2-1.75,6.3a23,23,0,0,0,2.85,8.94c2.2,4.2,4.33,11.08,4.35,14.06,0,.93-.33,1.15-1.38.87-1.21-.32-1.34-.14-1,1.41,1.66,7.45.91,10.54-1.38,5.73-1.35-2.84-2.18-3-2.18-.31,0,2.18-1.56,3.3-2.83,2-.43-.42-1.12-3.36-1.54-6.52L95.63,122l.09,9.57c.07,7-.15,10-.8,11.14s-1,1.33-1.39.77-1,0-1.89,1.56c-1.4,2.39-2.44,3-2.89,1.63A61.9,61.9,0,0,1,90,137.9a76.32,76.32,0,0,0,1.27-8.19,16,16,0,0,0-1.67,3.74,17.3,17.3,0,0,1-2.71,5.06c-1.17,1.06-1.27,1.06-1.68,0-.24-.62.16-3.33.88-6,1.22-4.58,1.23-4.89.16-4.89s-1.07-.34-.53-2.8c.76-3.39,2.93-8.26,6.11-13.68a33.23,33.23,0,0,0,2.76-5.64c.23-.9.82-1.63,1.33-1.63s.92-.88.92-3v-3L95,99.11c-1.69,1.2-3.49,3.2-8.06,8.92a34.38,34.38,0,0,0-6.28,10.69A35.83,35.83,0,0,1,78,124.28a8.6,8.6,0,0,0-1.18,2.06,14.86,14.86,0,0,1-3.35,3.5c-2.6,2.13-3.82,2.59-9.46,3.59-4.47.79-7.35,1.7-9.28,2.94a13.66,13.66,0,0,0-2.8,2.07c0,.16,1.22-.14,2.72-.66,3.66-1.3,5.45-1.27,4.93.08-.27.72,1,.28,3.89-1.35,2.36-1.32,4.29-2.16,4.29-1.86,0,.87-11.35,8.16-13.34,8.56s-2.29-.17-.76-2.36c1-1.48,1-1.51-.29-.8a7.47,7.47,0,0,1-3,.72c-1.43,0-1.63-.29-1.63-2.35,0-1.41.37-2.5.92-2.71a2,2,0,0,0,.95-1.77,24.05,24.05,0,0,1,1.27-5l1.25-3.63-1.77,2c-2.22,2.57-7.59,6.86-8.59,6.86a.85.85,0,0,1-.76-.92c0-.9,3.71-6.73,5.93-9.31,2.05-2.39,2.32-3.19.79-2.37s-4.74,1-4.74.15c0-.31,1.19-1.36,2.64-2.32,2.34-1.55,2.55-1.89,1.83-3-1-1.63-.49-2.21,4.55-4.91,4.51-2.42,5.21-3.67,2.07-3.67a7.39,7.39,0,0,1-3.52-.89,11.34,11.34,0,0,0-3.12-1.33c-2.56-.63-2.25-1.61.66-2.09,3.76-.63,4-.77,1.82-1.26-4.08-.94-6.6-2.1-6.6-3,0-.76,1-1,5-1a36.52,36.52,0,0,1,6.85.53l1.91.53L56,97.54c-3.71-3.11-1-3.53,6.07-.91,3.12,1.15,3.18,1.15,2.11,0-3.36-3.7,4.84-1,10.73,3.51,4.74,3.64,6.72,4.48,9.36,4,2.08-.41,2.8.63.94,1.35-3.09,1.18-5.13.35-13.14-5.37a25.12,25.12,0,0,0-3.92-2.37c-1.27-.49-1.27-.48,0,.92a13.3,13.3,0,0,0,3.1,2.36c1,.51,1.82,1.22,1.82,1.58,0,1.26-2,.6-6-2-6.7-4.34-12.71-5.6-7-1.46,1.66,1.19,3,2.44,3,2.78,0,.81.3.87-5.33-1.06-4.41-1.53-10.09-2.25-10.94-1.4-.18.18,2,.82,4.84,1.43,7.25,1.53,7.59,1.75,4.06,2.58-4.6,1.07-4.57,1.71.07,1.71a17.41,17.41,0,0,1,6.4,1.07c1.86.89,3.85,1,11.15.78,8.11-.28,10.49,0,7.92,1a44.23,44.23,0,0,1-5.92.82c-6.39.58-6.94,1.18-7.75,8.61a30.18,30.18,0,0,1-1.56,7.45c-1.71,3.1-2.84,4.18-3.94,3.75-.88-.33-1-1.16-.76-4.7a18.09,18.09,0,0,0,.05-4.29,31.54,31.54,0,0,0-2.52,4.5,57.72,57.72,0,0,1-4.54,7.48l-2.27,3,1.73-.32a10.34,10.34,0,0,0,3-1.17,17.94,17.94,0,0,1,5.61-1.27c5.83-.59,8.57-1.48,10.78-3.54s3.12-3.59,3.47-6.43c.41-3.32,4.32-11,6-11.75a7.14,7.14,0,0,0,2.56-2.76,6.47,6.47,0,0,1,2.06-2.5c1.37-.53,1.09-1.71-.41-1.71-2.28,0-1.44-1.15,1.58-2.18,2-.69,4.5-2.58,8.18-6.22,3.15-3.12,6.71-5.93,8.81-7,4.31-2.09,7.16-2.86,7.16-1.92,0,.37-.52.82-1.16,1-.94.25,11.87.07,20-.27,4.78-.2-3.58-1.21-9.9-1.19-3.62,0-7,0-7.46,0-1.43-.07-.15-1.36,1.35-1.36,2.8,0,.61-.66-4.49-1.35-7.3-1-10.18-1.83-10.18-3a.94.94,0,0,1,.83-1c.45,0-.07-.76-1.16-1.66-1.65-1.37-1.81-1.74-1-2.27a2.78,2.78,0,0,1,2-.35c.55.16,2.77.58,5,.93a37.83,37.83,0,0,1,7.77,2.33,34,34,0,0,0,4.25,1.7c.24,0-1.18-1.46-3.15-3.24-2.49-2.24-3.38-3.45-2.92-3.94s1.23-.41,2.55.27l1.88,1-1.07-1.62c-1.34-2-1.33-2.33.09-2.36.64,0,4.1-1.47,7.7-3.25C130,63,130,63,127.42,62.81c-3.64-.3-3.45-2,.33-2.89l2.9-.7-2.19-.63c-2.44-.7-3.46-2.26-1.47-2.26,2.33,0,2.13-.83-.52-2.14-3.45-1.71-3.43-2.92,0-2.59a12.37,12.37,0,0,0,5.89-1.13A18.24,18.24,0,0,1,137.5,49c1.81,0,1.82-.05.32-.65-1.92-.77-1.67-3,.34-2.89.84,0,1.27-.27,1.09-.76-.58-1.49.86-1.53,5.87-.15,3.2.88,5.67,1.2,6.87.9,1.71-.43,1.77-.55.73-1.31s-9.11-1.87-16.33-2.35c-5.72-.39-14.72,1-16.08,2.55-1.92,2.13-4.37,7.92-4.42,10.41,0,3.11-2.11,9.64-3.14,10s-2.08-2.61-2.15-6l0-2.76-.84,3.3c-1.5,5.85-4.76,12.86-6,12.86-.48,0-1.13-.77-1.44-1.73-.58-1.73-.58-1.73-1.82,1-1.31,2.91-2.76,3.29-2.51.65.13-1.44,0-1.4-.91.4-1.39,2.62-4.22,5.61-5.3,5.61s-1.1-1.93.13-4.87c1.36-3.24.32-3-2.66.64-3.64,4.44-7.28,5.49-5.22,1.51.84-1.62.87-2.18.19-3s-.94-.74-1.53,1c-.38,1.12-1,2.09-1.35,2.17s-1.11,1.93-1.67,4.13-1.3,4-1.65,4-1-1.78-1.36-4c-.57-3.11-.85-3.67-1.28-2.64-1.27,3-6.44,11-7.75,11.87-2.18,1.53-3.2,1.28-2.72-.66.34-1.34.21-1.58-.65-1.25-1.6.62-1.3-.85.92-4.45,2.46-4,2.46-4.29.06-2.58A7.25,7.25,0,0,1,62,81.4c-1.05,0-1.44.72-2.06,3.9-1,5-3.31,7.12-3.39,3.08,0-.94-.49-.43-1.49,1.6-1.93,3.93-3.48,4-3.3.1l.13-2.86L50.24,89c-.9,1-2,1.63-2.45,1.46s-2.09,2.1-4.08,5.87c-1.79,3.41-3.48,6.19-3.75,6.19-1.33,0-1.46-7.7-.19-11.57.35-1,.29-1.11-.29-.3a23.13,23.13,0,0,0-1.8,4.28c-2.5,7.59-3.68,10.23-4.58,10.23-.65,0-.94-.77-.94-2.46v-2.46l-1.74,2.62c-2,3.07-5.55,6.92-6.31,6.92s-.63-5.77.26-8.75A18.18,18.18,0,0,1,28,95.34c3.81-4.09,3.83-4.93.09-3-1.38.71-2.24.83-2.7.37s1.49-2.74,6.08-7.13c3.71-3.55,7.33-6.86,8.05-7.36,1.24-.87,1.24-.94.1-1.79-1.78-1.32-.39-3.06,3.15-4a25.09,25.09,0,0,0,4.41-1.55,2.81,2.81,0,0,1,2.14-.4c.36.22.65-.17.65-.87a3.07,3.07,0,0,1,1-2.1c2-1.64.88-1.77-4.79-.57-6.65,1.42-10.45,1.13-11.07-.84a2.62,2.62,0,0,1,.35-2.22c.62-.75.24-1.05-2.09-1.65C28.47,61,28.2,60.88,28.2,60c0-1.69,1.91-2.53,5-2.18,2.8.31,2.93.26,2-.79-1.45-1.61-1.27-2.68.46-2.67s12.93,2.78,15.88,3.9c2.77,1.06,3.43.86,2.09-.61-.66-.73-1-1.5-.8-1.72.46-.46,8.38,1.44,11.61,2.78,2.71,1.12,9.42,1.21,10.49.14.43-.43,1-.55,1.29-.28,1,1-2.12,2.38-5.39,2.37a36,36,0,0,1-8.54-1.67c-2.86-.91-5.39-1.46-5.61-1.22s0,.57.42.74A1.1,1.1,0,0,1,56.67,61a25.55,25.55,0,0,1-5.11-1.36c-4.85-1.68-14.82-4.11-15.23-3.7-.16.17,1.5,1.42,3.7,2.78s4,2.72,4,3c0,.74-.88.73-1.68,0S34.63,59,32.55,59c-4.49,0,.16,2.2,6.49,3.06,3.4.47,3.29,1-.45,2.19-5.75,1.84-1.1,3,6.76,1.61a71.26,71.26,0,0,0,7.52-1.6c2.44-.82,5.67-.83,5.67,0,0,.34-1,1.1-2.22,1.68a14.72,14.72,0,0,0-3.72,2.64l-1.49,1.59,2.46-.68a21.44,21.44,0,0,0,4.54-2,8.6,8.6,0,0,1,3.16-1.27,2.85,2.85,0,0,0,1.88-1,6.51,6.51,0,0,1,3.17-1.41,44.44,44.44,0,0,0,6.32-2c4.11-1.61,6.36-2,6.36-1C79,63,77,66,73.18,69.38c-8.35,7.43-11.67,10.68-10.9,10.69.43,0,2.45-1.52,4.49-3.39,2.67-2.44,3.92-3.19,4.43-2.68s.14,1.6-1.35,3.84c-2.22,3.35-2.49,4.22-1.34,4.22.4,0,.55.44.33,1-1.38,3.41-1.38,3.35-.17,2.37,1.48-1.2,5.84-9,6.72-11.93,1.08-3.68,1.93-2.71,2.29,2.63L78,81.07l.81-2.64A41.81,41.81,0,0,0,80,71.5c.7-7.69,2.7-13.12,6.13-16.71a30.18,30.18,0,0,1,5.37-4.48c1.27-.71,3.29-2,4.49-2.87a24.23,24.23,0,0,1,5.61-2.7,14.48,14.48,0,0,0,4.6-2.35,5.39,5.39,0,0,1,4-1.24,24.49,24.49,0,0,0,5.09-.6c5.18-1.33,7.26-1.47,7.26-.48,0,1.17-1.45,1.52-8.74,2.1-3.37.27-5.6.72-5.37,1.09s1.47.55,2.79.45c3.63-.26,3.45.92-.34,2.29-2.58.92-3.3,1.47-3.07,2.35s-1.19,1.84-6.83,4.48c-7.29,3.41-11.78,6.8-9,6.8a16.8,16.8,0,0,0,4.9-1.88c3.31-1.75,5.2-2,5.2-.78,0,.52-8.82,8.12-13,11.22-1.4,1-1.88,1.75-1.38,2.06S88,71.4,87,73.09c-1.75,3-1,3.12,1,.21s6.66-7.41,7.19-6.88c.24.24-.2,2.18-1,4.31-1.67,4.58-1.69,4.8-.5,4.34.51-.19,1.44-1.74,2.06-3.44,2.16-5.83,4.79-8.39,4-3.92-.27,1.55.22.91,1.76-2.31C103,62.57,104.13,61,104.82,61c1,0,1,.28.17,3.07a20.05,20.05,0,0,0-.9,4.46c0,1.28.09,1.26,1-.27a67.16,67.16,0,0,0,3-8.25c2.06-6.63,3.44-9.57,4.48-9.57.31,0,.14,1.71-.36,3.8a19.12,19.12,0,0,0-.53,6c.39,2.22.39,2.22,1.41.76.57-.8,1.28-3.66,1.58-6.36.46-4.09.9-5.33,2.72-7.61,4-5,5-5.8,7.78-6.25l2.73-.43L126,39.5A35.62,35.62,0,0,0,119.11,38c-4.69-.61-5.35-.9-8.76-3.81-2-1.73-3.51-3.31-3.31-3.52a8,8,0,0,1,3.15-.25l2.78.11-2.64-.91c-1.45-.5-3.45-1.09-4.45-1.31-1.23-.27-1.82-.82-1.82-1.69a3.66,3.66,0,0,0-1.72-2.42c-1.49-1-1.58-1.23-.69-1.88s.88-.87-.29-1.87c-3.45-3,3.21-3.06,8.45-.13l2.9,1.63-2.34-3.2C109.08,17,108,15.1,108,14.52c0-2,2.64-1.11,5.63,1.88,1.7,1.71,2.95,2.54,2.95,2,0-1.58,2.26-1.11,4.07.84A36.44,36.44,0,0,1,124.15,24c1.69,2.77,1.79,2.58.66-1.16s5,.42,7.87,5.34a39,39,0,0,0,5.14,6.18c3.26,3.19,3.81,3.47,7.47,3.84a97.21,97.21,0,0,1,15.39,3.45c.62.24.82.11.55-.34a4.93,4.93,0,0,0-2.53-1.18c-2.89-.63-11.23-4.19-12.36-5.28-.71-.68-.75-1.11-.17-1.81,1.06-1.28.32-1.79-2.59-1.79-3.68,0-5.87-1.05-9-4.33-4.25-4.41-2.68-5.17,4.49-2.19,4.08,1.7,1.57-.29-3-2.35a19.59,19.59,0,0,1-5.44-3.88c-2.27-2.53-2.8-4.13-1.16-3.5,1.44.55,1.22-.41-.41-1.8-1.26-1.08-1.3-1.3-.38-2.22s1.35-.81,4.37,1a19.41,19.41,0,0,0,3.35,1.85,29.66,29.66,0,0,0-1.27-2.8c-2.5-5.09.54-4.44,5.57,1.2l3.11,3.47-.4-3.13c-.21-1.73-.14-3.14.17-3.14,1.39,0,7,7.1,9.09,11.56,3.24,6.81,4.47,6.69,3.85-.34-.26-2.91-.21-5.28.1-5.28.86,0,3.63,5.18,4.94,9.24,1,3,1.24,3.38,1.61,2.14.24-.82.64-1.48.89-1.48,1,0,3.35,5.23,3.35,7.39,0,3.37,1.79,8.78,3.64,11,1.61,1.91,2.11,3.4,1.13,3.4-.27,0-.87-.6-1.32-1.32-1.11-1.78-1.81-1.67-1.81.28,0,1.22.44,1.68,1.87,2a21.2,21.2,0,0,1,4,1.33l4.4,2c1.27.58,3.35,1.62,4.62,2.32,3.07,1.68,4.13,1.66,1.65,0-3-2.07-9.41-5.24-10.54-5.24a1,1,0,0,1-1-1c0-.55.17-1,.37-1,.77,0,10.26,5,14.35,7.52a12.52,12.52,0,0,0,3.1,1.28,18.13,18.13,0,0,1,5.05,3.38,23.68,23.68,0,0,0,3.84,3c1.09,0-.15-3-1.47-3.62a2.41,2.41,0,0,1-1.49-1.86c0-1.38-7.34-9-8.67-9a23.13,23.13,0,0,1-4.85-2,24,24,0,0,0-4.76-2c-1.2,0-5.4-3.89-6.49-6-1.2-2.31-1.19-2.57,0-2.57s1.29.26-.66-3.57-2.11-5.66-.34-5.66c1.45,0,7.93,3.76,7.93,4.6,0,.29.45.7,1,.91s1,.26,1,.11c0-.51-14.63-12.88-15.23-12.88a.62.62,0,0,1-.6-.63,11.44,11.44,0,0,0-1.65-3.06,9,9,0,0,1-1.65-5.64c0-1.76.19-3.21.43-3.21a12.56,12.56,0,0,1,2.69,2.64c1.24,1.45,2.61,2.64,3,2.63.58,0,.58-.13,0-.51-1.26-.8-4.95-8.74-4.55-9.79.58-1.51,4,.6,6.31,3.9,1.07,1.53,2.32,3.33,2.79,4,.73,1,.82.56.63-3.13-.23-4.53,0-5,1.63-3.36,1.27,1.27,5.52,10.46,5.52,11.93a35.72,35.72,0,0,0,1.25,5.49c.69,2.39,1.44,5.1,1.66,6A11.47,11.47,0,0,0,186.21,29l1.66,2-1.38-4c-1.37-3.94-2.11-12.8-1.28-15.18.36-1,.61-.92,1.88.87,1.94,2.71,3.74,8.7,5.31,17.61.7,4,1.3,6.81,1.34,6.27a52.81,52.81,0,0,1,1.49-9.89l.62-1.64,1.21,1.61c1.39,1.83,1.83,4.11,2.47,12.72l.46,6.11.53-3.55c.63-4.17,3.13-10,4.3-10,.45,0,1,.78,1.25,1.73.65,2.6-.2,11.48-1.46,15.15a27.23,27.23,0,0,0,.29,16.32c.78,2.09,3.32,7.57,5.63,12.18,4.3,8.56,5.37,11.31,5.93,15.21A9.6,9.6,0,0,0,217,95c.14.14,1-1.89,1.8-4.52a77.3,77.3,0,0,1,3.9-9.39,62.54,62.54,0,0,0,2.86-6.27c.73-2.42-1-7.11-4.13-10.83-1.71-2.07-2.52-3.61-2.28-4.37s-.72-2.21-3.28-4.69c-2-1.93-3.65-3.91-3.65-4.38a13.09,13.09,0,0,0-1.32-3.44c-1.73-3.38-1.68-4.18.24-3.81,1.54.3,1.56.23,1.23-3.88-.18-2.3-.15-4.18.07-4.18a11.18,11.18,0,0,1,2.45,1.25c2.35,1.42,4.71,4.65,6.28,8.58.6,1.49,1.35,2.7,1.69,2.7.94,0-.09-3.4-1.81-6a10.62,10.62,0,0,1-1.58-3c0-1-4-6.32-4.47-5.91-.62.62-2.17-1.09-3.18-3.51-1.24-3-1.85-9.35-1-10.58.54-.8.92-.75,2.5.28,2.5,1.62,3.2,2.64,4.79,6.92a23.24,23.24,0,0,0,3,5.61l1.64,2-.4-2.31A57.43,57.43,0,0,0,220.15,24c-2.74-7.38-4.69-14.81-4.22-16,.57-1.48,2.48-.42,4,2.25l1.19,2,.33-3.18c.85-8.17,5,.19,6.16,12.31l.71,7.59.79-4.95A41.59,41.59,0,0,1,231,16.49c1.77-4.12,2.68-2.16,2.54,5.51-.1,5.86-.62,8.71-3.27,18-.18.64,0,1.16.32,1.16.78,0,1.8-3.14,2.37-7.26.6-4.42,1.67-7.26,2.73-7.26.64,0,.93.78.93,2.47v2.46l1.49-2.12c1.63-2.33,2.47-2.71,2.47-1.11,0,1.9-3.34,11.1-5.68,15.66-3.3,6.41-2.54,7.66,1.07,1.77,1.63-2.67,3.33-5,3.79-5.12,2.48-.8-.59,10.39-4.4,16-1.77,2.61-5.16,12.57-4.5,13.22.14.15,1.2-.88,2.33-2.29a17.36,17.36,0,0,1,5.06-4c1.64-.8,3-1.74,3-2.1A6.93,6.93,0,0,1,243.1,59c4.06-4.07,4.87-7,6.51-23.65.23-2.29.64-3.46,1.23-3.46.87,0,2.68,4.6,3.12,7.92.22,1.63.23,1.63,1.35-.45a7.53,7.53,0,0,0,.73-5.06c-.85-6.21,1.42-12.19,2.73-7.19.41,1.58.69,1.09,2.21-3.92A38,38,0,0,1,263.25,17c1.6-1.55,2.27,4.53,1.15,10.33a13.39,13.39,0,0,0-.39,3.16,31.14,31.14,0,0,0,2.88-4.95c2.92-5.58,6.05-9.42,7.67-9.42,1.3,0,1.3.86,0,3.39-1,1.94-1,2,.33,1.57,1.92-.61,1.78,1-.41,4.82a55.2,55.2,0,0,1-7.75,10.62L264,39.41l2.74-2.1c4.92-3.77,11.46-6,11.44-3.9,0,.45-1.89,2.78-4.19,5.18-3.9,4.07-5.89,5.26-11.57,6.94-.5.15-.73.46-.51.68s1.76,0,3.41-.44c5.55-1.55,4.78,1-1.33,4.38a26.5,26.5,0,0,1-6.46,2.59,11.19,11.19,0,0,0-5.17,2.76A11.28,11.28,0,0,0,250,58a11.64,11.64,0,0,0,3.15-.7l8.89-2.67c13.45-4,17.72-6.59,21.91-13.22a10.47,10.47,0,0,1,2.29-2.92c.25,0,.55.82.66,1.81.17,1.46.57.81,2-3.23a34.33,34.33,0,0,0,1.82-6.6c0-2.19,1.77-8.54,2.6-9.36.48-.49.92-.46,1.47.09s1.05.54,1.94-.27c2.87-2.6,3.39,1.56.86,7L296,31.59l2.87-2.8c1.58-1.54,3.23-2.81,3.67-2.81,1,0,1,.32-.3,2.84a21.92,21.92,0,0,0-1.57,4.09,28.89,28.89,0,0,1-1,3.22c-.44,1.07-.07,1,2.59-.57,1.71-1,3.25-1.68,3.42-1.5s-.58,2.07-1.67,4.21A32.55,32.55,0,0,1,290.49,51.5L285.71,54l1.47,3.63,1.47,3.63.48-2.5c.26-1.41.8-2.4,1.21-2.26,1.12.36,4.33,10.29,4.36,13.46,0,1.52.28,2.93.61,3.13.85.53,1.25-4.09.63-7.37-.85-4.58.6-11.63,3.27-15.84,1.41-2.23,2.1-1.8,2.16,1.32l.05,2.8.95-2.31c2.07-5,4.22-7.5,4.22-4.84,0,.88.39.64,1.49-.93,1.9-2.72,2.47-2.69,2.47.16,0,2.56-2.85,14.09-4,16.28l-.75,1.41,1.89-1.4c1-.77,2.63-2,3.54-2.73,1.59-1.27,3.3-1.77,3.3-1a47.77,47.77,0,0,1-2.25,4.94c-1.23,2.51-2,4.57-1.74,4.57a13,13,0,0,0,2.94-1.65,16.77,16.77,0,0,1,2.73-1.65c.76,0,.16,2.52-1.09,4.58-1.52,2.48-1.61,2.3,2.49,4.8,1,.62,2.4,1.51,3.06,2,1,.73,1.48.52,3.49-1.65,1.27-1.38,2.8-2.42,3.41-2.31s1.34-.52,1.82-2c.69-2.07,4.65-6.76,5.72-6.76.89,0,.59,4.51-.47,7-1.87,4.47-.41,3,2.23-2.26,3.32-6.6,5.84-9.73,7-8.74.59.49,1,.5,1.28,0a5.94,5.94,0,0,1,1.78-1.41c1.29-.69,1.33-.6.87,2.14A22.52,22.52,0,0,1,346,65.83c-1.09,2.16-1.13,2.5-.25,2.16,1.47-.56,1.31.64-.38,3L344,73l2.58-1.75c4.8-3.26,4.92-1.74.27,3.35-3.37,3.68-3.82,4.82-1.39,3.52,1.6-.85,4.05-.94,4.05-.13a2.61,2.61,0,0,1-1,1.4c-1.39,1.16-1.22,1.92.33,1.51.92-.24,1.32,0,1.32.72,0,.59-.26,1.07-.58,1.07a17.16,17.16,0,0,0-3.79,2.64C344,86.81,342.12,88,341.57,88a7.64,7.64,0,0,0-3,1.36c-1.94,1.32-1.94,1.34-.33,1.15,1.18-.15,1.59.07,1.43.78-.11.55.79,0,2-1.15A10,10,0,0,1,344.48,88c.3,0,.38,1.11.18,2.47-.37,2.43-.36,2.45.68.94,1.83-2.65,13-10.57,13.83-9.77.16.16,0,.84-.39,1.51s-1.16,2.22-1.76,3.45l-1.08,2.24,2.21-1.54c1.22-.84,3.07-2.23,4.12-3.09,1.25-1,2.13-1.34,2.56-.92,2.79,2.79-8.63,13.92-16.75,16.34a16.55,16.55,0,0,0-3.22,1.14c0,.29,6.46-.06,10.55-.57,2.3-.29,6.15-1.68,10.53-3.81,5.05-2.46,7.89-3.43,10.56-3.64l3.65-.27-2.27,1.72a8.81,8.81,0,0,1-3.18,1.71,6.21,6.21,0,0,0-2.27.73c-2,1.09-.27,1.87,2.67,1.18s7.48-.75,8.95-.19a1.61,1.61,0,0,1,1.05,1.31c0,1-2.82,1.92-4.34,1.33s-4.61.28-3.56.93c1.4.87,0,2-2.53,2-3.75.07-.77,1,5,1.59,5.32.54,6.19,1.57,2.81,3.32a5.46,5.46,0,0,0-2,1.37,10.09,10.09,0,0,0,3,1.66c1.63.73,3,1.63,3,2,0,1-8.39,0-11.29-1.39-2.3-1.1-2.38-1.1-2.07.06.49,1.89-1.4,2.13-4.9.63L365,111.11l2.82,2.5c1.55,1.37,2.68,2.64,2.51,2.81a23.54,23.54,0,0,1-5.3-.09c-3.91-.32-5.5-.78-7.43-2.16-1.61-1.14-2.68-1.52-3.1-1.09a4.57,4.57,0,0,1-2.66.56c-1.56-.07-1.68-.16-.53-.38,2.08-.4,1.85-1.3-.66-2.56a19.63,19.63,0,0,1-3.6-2.42c-1.16-1-2.57-1.37-6.93-1.56s-5.11-.09-3.66.48c1,.38,1.82,1,1.82,1.25,0,.64-3.56-.27-8.17-2.08-3.72-1.47-4.56-1.27-1.91.45,1,.66,3.25,2.41,5,3.89,3.31,2.83,3.27,2.67,2.08,8.23-.35,1.63-.28,2.12.28,1.78a1.61,1.61,0,0,0,.76-1.15,29.44,29.44,0,0,1,2.62-5.08c3.48-5.86,9-9.39,6.23-4a22.84,22.84,0,0,0-1.66,4.47l-.51,2.26,2.16-2.43a11.49,11.49,0,0,1,2.6-2.42c.24,0,.43,1,.43,2.29,0,1.87.36,2.47,2,3.3,3,1.53,3.25,1.16.73-1-1.24-1.07-2.08-2.12-1.85-2.35.39-.39,5.6,3.31,6.57,4.67s-.63,1.65-3.32.7c-1.52-.53-2.76-.8-2.76-.59a12.8,12.8,0,0,0,2,2.63c1.86,2.12,2.6,4.21,1.49,4.17a34,34,0,0,1-4.72-2.29L344,121.68,341.62,124c-2.36,2.32-2.36,2.33-.56,1.89,2.58-.63,2.31.51-.92,4-1.51,1.63-2.25,2.78-1.65,2.55s1.09-.27,1.09-.1c0,1.14-2.15,6-3.38,7.71-2.45,3.32-.95,3,3.5-.81,4.81-4.08,9.65-7.41,10.11-7,.17.17-.43,1.31-1.33,2.54a9.59,9.59,0,0,0-1.65,2.87,6.27,6.27,0,0,1-1.48,2.35c-1.28,1.45-1.3,1.52-.11.53a5.39,5.39,0,0,1,1.84-1.15,8.19,8.19,0,0,0,2.26-1.31,14.29,14.29,0,0,1,4.75-1.9,30.66,30.66,0,0,0,4.12-1.06c2.15-.9,1.21.95-2.3,4.53l-3.47,3.53,4.62-.32c4.05-.28,5.09-.09,8.42,1.49a20.12,20.12,0,0,1,4.15,2.35c.18.31-.63,1.05-1.81,1.66-1.75.91-3.26,1-8.26.71-6.28-.42-7.35-.21-4.52.86,2.4.92,9.61,6.7,9.61,7.71,0,.54-.77.88-2,.88-1.47,0-1.87.25-1.58,1,.78,2-2.92.84-9.32-3L349.16,155l1.48,2.07a7.88,7.88,0,0,1,1.47,3.13c0,1.18-1.66,1.43-2.33.36a15,15,0,0,0-3.84-2.32,38.36,38.36,0,0,1-7.89-5.9c-2.46-2.35-4.83-4.27-5.27-4.26s-.27.32.37.69a2.25,2.25,0,0,1,1.15,1.56c0,.48.73,1.36,1.63,1.94,2,1.3,3.32,3.64,2.54,4.42s-9.09-3.6-13-7-6.79-4.93-9.27-4.93c-.94,0-1.71-.3-1.71-.66s-.48-.66-1.07-.66,2,3.2,6.27,7.63c4,4.19,7.33,8,7.33,8.36s-3.56-3-7.91-7.44-7.92-8.44-7.92-8.78c0-1.35,2.29-2.21,5.06-1.9,1.78.2,2.86.06,2.86-.38s.53-.87,1.19-1.08a15.94,15.94,0,0,0,3.85-3c2.85-2.82,4.8-7.65,7.45-18.4,1.62-6.58,1.58-6,.42-6a8.8,8.8,0,0,1-2.8-.92c-4-2-6.93-3-8.49-3-.89,0-1.62-.3-1.62-.66s-.45-.66-1-.66c-1.11,0-1.17.29-.57,3.24l.41,2.1,4.45-.44c4.82-.48,5.85,0,4.62,2.34-.58,1.08-.51,1.33.35,1.33,1.67,0,.85,2.2-1,2.63a20.33,20.33,0,0,1-5.11,0c-4.3-.48-4.54.35-1.19,4.06,2.62,2.9,2.87,3.87,1,3.87-1,0-1.48.71-2.05,2.8a19.69,19.69,0,0,1-5.16,9.35c-2.76,2.62-3.45,1.63-.77-1.09,2-2,4.66-6.36,4.66-7.54,0-.26-1,.49-2.24,1.68-1.46,1.42-2.39,1.91-2.69,1.42a1.57,1.57,0,0,1,.3-1.66c.93-1.12,1.59-7.67.87-8.62a19.31,19.31,0,0,0-2.82-2.3l-2.3-1.6,1.8,2.36c3,3.89,2.13,5.93-1.33,3.21-2.11-1.66-2.51-1.31-1.56,1.39,1.58,4.55.56,4.6-1.12.06a26.66,26.66,0,0,0-3.27-6.49A6.72,6.72,0,0,1,302,117c0-.29-.74-1-1.64-1.61s-1.65-.79-1.65-.44a1.54,1.54,0,0,0,.73,1.09c.41.25,1.72,2.61,2.92,5.25a26,26,0,0,0,2.82,5.18,4.56,4.56,0,0,1,1.09,2.22,8.25,8.25,0,0,0,1.31,2.81c1.31,1.5,2.45,9.11,1.61,10.68-.64,1.2-.78,1.22-2.12.22-.79-.58-3.17-2.16-5.29-3.51s-4.95-3.17-6.27-4.05c-2.66-1.77-8.39-4.67-9.17-4.65-.27,0,1.28,1,3.46,2.17a110.29,110.29,0,0,1,17.24,12c2.68,2.49,2.85,2.88,3.17,7,.31,3.94-.07,8.74-1.23,15.71l-.39,2.31,1-2a10.53,10.53,0,0,0,1-3.53c0-1.11.32-1.45,1-1.18,1.13.43,1.21-.47.39-4.67-.29-1.53-.31-2.65,0-2.48a8.11,8.11,0,0,1,.93,3.26c.25,1.63.71,3.13,1,3.33a21.87,21.87,0,0,1,2.65,4.22,28.52,28.52,0,0,0,4.42,6.08l2.37,2.23-1.47-2.14a12.67,12.67,0,0,1-1.8-4,8.35,8.35,0,0,0-1.85-3.47c-3.28-3.55-6.07-10-6.75-15.48-.19-1.53-.07-1.78.56-1.15a3,3,0,0,0,1.84.8c1.14,0,8.83,7.6,11.18,11.05,1.39,2,3.35,2.9,3.35,1.48,0-1.14,1.89-.72,5.94,1.32a16.49,16.49,0,0,0,12.54,1.32c3.11-.9,13.76-1,14.62-.15s-1.62,3.45-3.41,3.45c-.73,0-1.32.3-1.32.66s.82.66,1.81.66a55.68,55.68,0,0,1,7,1c2.84.54,5.29,1,5.44,1s.27.44.27,1-.62,1-1.65,1c-2.43,0-2,1.1.62,1.59s7.72,3.19,8.93,4.65-1.53,2.57-4.78,2.13l-2.63-.35,2.85,2.9c3.09,3.15,3.11,4.13.07,3.07-1.76-.62-1.9-.56-1.58.66s.13,1.26-1.24.83c-2-.63-5.35-3.07-9-6.54l-2.85-2.68,1.48,2.8c.82,1.54,1.28,3,1,3.24-.95.95-5.77-1.25-8.91-4.07-2.09-1.88-3.4-2.67-3.58-2.14-.44,1.3-4.13-.72-9.16-5a34.94,34.94,0,0,0-4.8-3.71c-.25,0,.41,1.26,1.47,2.8,2.59,3.78,9.54,17,9.13,17.43-.17.18-1.13-1.11-2.13-2.86s-2.6-4.52-3.56-6.16-2.4-4.3-3.18-5.93a23.33,23.33,0,0,0-3.09-4.76c-1.63-1.75-2.31-3.63-1-2.84,1.85,1.15-.35-1.53-2.3-2.79-3.84-2.49-4.87-1.71-1.94,1.46a23.61,23.61,0,0,1,2.91,4.09c.73,1.36,1.34,1.92,1.53,1.41s1,.54,1.73,2.24a13.38,13.38,0,0,0,2,3.49c1,.65,3.84,10.43,4.65,16.25,1,7.05-.24,14-3.76,21.65-3.31,7.17-4.49,7.13-3.85-.13l.48-5.44-1.4,1.26c-1.76,1.58-2.35,1.08-1.34-1.12a7,7,0,0,0,.24-4.21c-.6-2.9-.59-2.53-.07-5.36.34-1.81.22-2.14-.73-2-1.47.25-1.43-2.58.09-6.58.71-1.86.87-3.19.47-3.95a44.68,44.68,0,0,1-1.64-7,33.24,33.24,0,0,0-4.08-11.39c-1.67-3.05-3.08-6.42-3.14-7.47-.07-1.35-1.43-3.39-4.6-6.92-2.48-2.75-4.73-5-5-5s-.13,1.77.32,4a20.47,20.47,0,0,0,3.81,8.15c3.46,4.85,6.51,11.33,6.23,13.26-.17,1.19-.49,1.06-3-1.21l-2.8-2.53,1.76,3.87a73.71,73.71,0,0,0,4.6,8.15,25.54,25.54,0,0,1,3.27,6.45c.49,2.41,0,2.41-4.19,0-1.18-.7-2.14-1.1-2.14-.9s1.19,3.12,2.66,6.5a40.36,40.36,0,0,1,3.07,10c.4,3.76.37,3.85-.95,3.15a11.24,11.24,0,0,1-2.78-2.55c-1.2-1.55-1.3-1.59-.65-.26,3.29,6.75,5.19,17.89,3.06,17.89-.48,0-2-1.85-3.3-4.11l-2.43-4.1v3.92c0,4.1-1.3,10.89-2.07,10.89-.25,0-.67-1.25-.92-2.77l-.47-2.76-1,1.85c-2.61,5-3.52-4.05-1.52-15.05,1.53-8.45,1.19-11-.81-5.95-1.28,3.26-3.32,5.81-4.06,5.07-1-1-.35-11.33,1-15.09,1.41-4,2.49-15.86,1.38-15.18a6,6,0,0,0-1,2.86,20.66,20.66,0,0,1-2.72,6.1,22.57,22.57,0,0,0-2.33,4.16c0,.3-.24.4-.55.21s-.43-2.39-.28-4.89c.23-4.11.13-4.6-1.05-4.91-.85-.22-2.29-2.38-4.15-6.19-3.15-6.49-4-6.09-1.92.87a94.17,94.17,0,0,0,6.09,15.32c2.67,5.72,2.66,7.49-.05,6-1.64-.88-1.75-.22-.4,2.36,1.23,2.35,1.24,3.17.07,4.14-.74.62-1.46,0-3.7-3.05-1.53-2.1-2.58-3.22-2.33-2.5a32.63,32.63,0,0,1,.84,3.3,45.86,45.86,0,0,0,2.59,6.84c2.35,5.18,4.18,10.78,4.18,12.74s-1.24,1.44-2.5-.77c-1.4-2.46-2.13-2.55-1.7-.2.39,2.14-.2,4.81-1.06,4.81s-2.91-6.88-4-13c-.47-2.62-1.06-4.63-1.32-4.47-1.06.66-1.28,5.62-.36,8.05,1.08,2.82,3,14.81,3,18.52,0,3.33-.67,5.52-1.56,5.23-.41-.14-1.34-1.91-2.07-3.94-1.43-4-2.3-5.4-1.84-3,.34,1.78-2.88,12.39-3.76,12.39-.34,0-1-.67-1.38-1.48a12.51,12.51,0,0,0-2-2.69c-1-.94-1.16-1.72-.82-3.62s.28-2.29-.44-1.61c-1.42,1.34-2.1.95-1.71-1,1-4.86,1.77-7.34,3.27-10.17a24.2,24.2,0,0,0,2.1-6.88,17.34,17.34,0,0,1,1.33-5.17A14.76,14.76,0,0,0,289.7,211l.41-3.3-1.49,2.7c-2,3.68-4.38,6.51-4.94,5.95a10.66,10.66,0,0,1-.44-3.9,15.54,15.54,0,0,1,2.16-7.6l2.13-4.17-2.5,1.7c-3.57,2.42-4,2.24-3.52-1.53.46-3.55,1.87-6.13,4.2-7.66a8.47,8.47,0,0,0,2.44-2.81,18.89,18.89,0,0,1,1.85-2.95c1.57-1.9,1.67-18.92.1-17.23a17.15,17.15,0,0,0-1,4.85c-.24,2.35-.72,4.38-1.06,4.5s-.63.88-.63,1.69c0,1.77-3.28,7-4.39,7-.57,0-.75-1.73-.65-6.24.13-5.58,0-6.15-.87-5.33a8,8,0,0,1-2.83,1.37c-2.81.7-2.35-1.19,2-8.31,2.11-3.43,4.05-7.27,4.3-8.54l.46-2.31-1.5,2.14c-1.84,2.61-2.47,2.7-2.53.34-.11-4.22-.86-4.34-3.17-.54-1.21,2-2.76,3.8-3.45,4s-1.25.68-1.25,1-.45.61-1,.61c-1.2,0-.92-1.53,1.42-7.83.86-2.31,1.56-4.3,1.56-4.41s-.82.21-1.82.73a8.34,8.34,0,0,1-2.64.95.92.92,0,0,0-.82,1c0,1.86-2.35,1-4.33-1.57l-2-2.57.23,4.71c.17,3.34.55,5,1.34,5.71a53.41,53.41,0,0,1,6.67,8.47c1.07,2,.08,3.16-1.87,2.11-1.78-.95-1.75-.7.37,3.45,2.46,4.83,4.78,11.65,4.1,12.07-.31.19-1.06-.63-1.66-1.83-1.18-2.37-5.54-6.49-7.11-6.72a5.83,5.83,0,0,1-2.33-1.37l-1.35-1.22,1,3.24a56.53,56.53,0,0,1,1.43,5.54,7.5,7.5,0,0,0,1.29,3.18,3.75,3.75,0,0,1,.89,2.31c0,2.22,2.82,7.76,6.13,12.06,3.52,4.58,5.67,10.63,4,11.27-.64.24-2.1-.67-4-2.51l-3-2.89,2.3,4.62c4,8,4.86,15.45,1.76,14.64a3.55,3.55,0,0,0-1.29-.21c0,.07.59,1.82,1.32,3.88,1.46,4.16,1.67,7.17.63,9.11-1.22,2.28-2.47,1.43-3.7-2.52L270,236.1l-.37,4.62a20.54,20.54,0,0,1-2.55,8.75c-1.19,2.27-2.44,4-2.78,3.75s-.64-2.07-.68-4.13c-.05-3.26-.13-3.47-.57-1.6-.51,2.12-3.63,7.41-4.38,7.41-.34,0,0-5.19.79-11.68a12.91,12.91,0,0,1,1.58-4.29c1.47-2.41,1.77-3.86.54-2.63s-2.51.91-2.5-.7a68.45,68.45,0,0,1,1.65-8.08c.9-3.62,1.64-6.74,1.64-6.92s-.78.78-1.74,2.13c-1.56,2.19-3.85,3.71-4.55,3s1.86-7.93,4.08-12.12,2.45-5,2.65-11.17c.15-4.93.46-6.78,1.2-7.33a3.08,3.08,0,0,0,1-2.24c0-1.47,0-1.46-1.75.38-1.43,1.55-1.8,2.69-2.06,6.36-.36,4.95-1.68,7.1-2.71,4.39l-.59-1.56-.37,1.65c-.2.91-.56,3.14-.79,5a27.5,27.5,0,0,1-1.37,5.57c-.9,2.15-1,2.2-2.09,1.12-.87-.88-1.11-2.18-1-5.69l.09-4.56-1.51,1c-.86.56-1.68.73-1.9.38-.48-.78,1.38-8,2.51-9.68,2.85-4.36,4.43-10,4.79-17.16.45-8.87-.6-18.16-2.38-21.18-.73-1.24-1-2.37-.68-2.58,1.11-.68,3.73,1.88,6.94,6.78,1.72,2.63,3.55,4.78,4.06,4.78a10.2,10.2,0,0,1,3.53,2.09c1.43,1.15,2.75,1.94,2.94,1.75.6-.6-4.8-6.85-7.59-8.78-3.07-2.13-6.6-5.93-6.6-7.12,0-.43,1.22.47,2.71,2a14.82,14.82,0,0,0,3.22,2.79c1.21,0,1.21-4.2,0-8.07-1.49-4.76-1.53-5.12-.66-5.12.36,0,1.23,1.15,1.95,2.55,1.54,3,4.51,6.69,5.42,6.69,1.35,0-.84-4.84-5.93-13.14-1.87-3.06-3.41-5.95-3.41-6.44,0-1.79,2.6-.79,4.65,1.79,2.82,3.57,3.16,2.92.6-1.19a10.22,10.22,0,0,0-5.64-4.86c-2-.85-3.46-1.87-3.31-2.27.38-1-10.2-6.44-11.82-6.11-.86.18.33.9,3.5,2.12,4.36,1.69,5.05,2.21,7.67,5.91,3.65,5.15,5.69,9.2,5.62,11.13-.06,1.47-.07,1.46-.56-.14-1.09-3.58-5-9.89-6.11-9.89-.29,0-.54,1.41-.54,3.13a39.14,39.14,0,0,1-.94,7.09,21.81,21.81,0,0,0-.75,4.13c.41.41,1.89-1.94,2.69-4.26.47-1.36,1.18-2.57,1.58-2.7.91-.31,1,3.46.07,5.14a21.56,21.56,0,0,0-1.25,4.74l-.58,3.51-.08-3.61c-.07-3.47-.12-3.55-1.1-2.15-.57.81-1.28,1.47-1.58,1.47-1.16,0-1.16-1.9,0-7.29,1.33-6.14,1.63-12.2.63-12.82a66,66,0,0,0-10.9-3.87,2.79,2.79,0,0,1-1.75-.7c-.24-.34-1.5-.57-2.81-.52-2.3.09-3.2-.74-1.54-1.41.45-.19-.21-.35-1.48-.38a7.36,7.36,0,0,0-3.3.61c-.71.46-.37.53,1.15.24,3.88-.75,2.23.71-2.64,2.33A25.74,25.74,0,0,0,215,137.57a39.24,39.24,0,0,0-2.73,4.8c0,.22-1.16,2.85-2.58,5.84-3.55,7.47-4.25,10.38-7,29.18-1.19,8.22-1.2,8.49-1,23.75.15,11.61.2,12.09.72,6.59a40.72,40.72,0,0,1,1.16-7.31,28.86,28.86,0,0,0,1.09-5.86c.33-3.11.88-4.88,1.78-5.78a3.17,3.17,0,0,0,1-3,12.77,12.77,0,0,1,.59-4.72c.5-1.66,1.24-4.8,1.63-7a19.77,19.77,0,0,1,1.78-5.61,55.65,55.65,0,0,0,3.17-7.77c2.43-7.07,7.19-15.36,11.61-20.23,3.18-3.51,9.4-7.46,10.07-6.38.2.33-1.18,1.49-3.09,2.57-6,3.38-9.87,7.77-13.34,15.05-6.31,13.23-11,27.54-10.85,33.36.05,2.46.27,2,1.54-3.41.82-3.44,2-7.68,2.58-9.42a20.64,20.64,0,0,0,1.1-4.14c0-1.66,3.25-8.88,6.79-15.1,3.34-5.87,8.92-12,13.16-14.53,3-1.8,1.9,0-1.76,2.8a32.35,32.35,0,0,0-5.42,5.43c-4.89,6.67-8.88,13-9.21,14.51-.19.91-.9,3.58-1.59,5.94-3.41,11.78-4.66,16.64-5.62,21.77-1.32,7.11-2.91,25.12-2.56,29,1.87,20.9,2.28,30.08,1.74,39.25-.81,13.92-.49,22.24.9,23.09,7.53,4.6,9,7.34,9.27,16.82.29,12.42.17,17.43-.51,20.45a73.81,73.81,0,0,0-.65,11.18c0,6.68.22,8.31,1,8.77,1.24.69,1.37,1.91.15,1.45-.68-.26-.9,1.21-1,6.78a92.49,92.49,0,0,1-.54,9.37,77.67,77.67,0,0,0-.56,7.91c-.08,3.12-.18,6.26-.21,7s0,3.84,0,6.93a30.26,30.26,0,0,1-.68,7.42c-.38,1-.85,5.61-1,10.23a135.85,135.85,0,0,1-1.63,15.33c-.7,3.81-1.43,9.6-1.64,12.86a97.78,97.78,0,0,1-2.29,13.86l-1.92,7.91,2.08,1.65c7.08,5.63,7.71,9.9,1.45,9.9a8.64,8.64,0,0,0-4.16,1c-1.15.81-1.46.84-1.46.14,0-1.47,3.76-3.3,5.85-2.84,2.48.55,3.9-1,2.62-2.83a19.52,19.52,0,0,0-5.94-4.91c-.91-.33-1.27.41-2.1,4.34-2.36,11.23-2.37,12-.16,15.57a38.47,38.47,0,0,1,2.58,5.18c1.18,3,1.47,9.76.49,11.32-.38.59-.47-.54-.24-3a17.27,17.27,0,0,0-2.56-11.23c-1.37-2.28-3.18-2.33-3.18-.09,0,.71.24,1.14.53,1s.41,4.65.27,10.71c-.23,10.52-.18,11.12,1.17,12.66,1,1.1,1.52,1.36,1.75.8.37-.89,1.56-1.15,1.55-.33a4,4,0,0,1-.58,1.39c-.94,1.48-3.4.18-4.58-2.45l-1.09-2.41-.21,2.87a14.71,14.71,0,0,0,.5,4.91c.85,2.45,0,3.6-1.44,2Zm-1.83-35.19c0-.43-.47-.41-1.32.05s-1.32,1-1.32,1.36.47.41,1.32-.05S199.72,465,199.72,464.64Zm4.62-10.51c0-.89,0-1.08,1.35-5.38a15.66,15.66,0,0,0,.78-5.54c-.22-1.17-.1-1.66.34-1.38.93.57,2.33-3.5,1.54-4.46s-.25-19.86.8-24.12c.71-2.92,1.19-3.69,2.49-4,1.59-.39,1.59-.39-.51-1.5a16.08,16.08,0,0,0-5.94-1.19l-3.82-.08,2.81-.67a7.67,7.67,0,0,1,5.58.41c1.52.59,3,.86,3.2.59.62-.69,1.9-14.29,1.72-18.31-.2-4.54-.59-4.95-4.81-4.95-2,0-3.47-.26-3.27-.58.6-1-3.39-1.22-5-.31-3.2,1.78-3.5.56-.36-1.51,2.3-1.51,7-2.47,8.73-1.8a3.61,3.61,0,0,1,1.65,1.9c.68,1.76,3.88,2.63,4.43,1.19a43.88,43.88,0,0,0,0-7.53c-.18-3.62-.07-6.73.24-6.92s.56-1.83.56-3.65c0-2-.25-3.14-.66-2.89s-.66-.05-.66-.62c0-.94-.79-1.33-2.18-1.09a2.74,2.74,0,0,1-1.55-.94,2.48,2.48,0,0,0-2.11-.71,48.42,48.42,0,0,1-5.21.69l-4.12.39v-2c0-1.42.26-1.87.92-1.62a1.15,1.15,0,0,0,1.36-.35c.89-1.43,5.5-.76,8.71,1.27a21.2,21.2,0,0,0,3.55,2c.23,0,.4-2.42.36-5.39-.05-4,.2-5.65.93-6.39a6.58,6.58,0,0,0,1.07-3.67,24.08,24.08,0,0,1,.33-3.68c.14-.54,0-1.06-.25-1.15a8.58,8.58,0,0,1-1.81-1.49,4.85,4.85,0,0,0-2.87-1.32,13.84,13.84,0,0,1-3.65-.73,7.78,7.78,0,0,0-4.72-.07c-2.84.72-3.26.45-1.46-.92s7.73-1.12,10.84.46c2.11,1.08,2.81,1.2,3.22.54s.11-1.15-.52-1.62a1.62,1.62,0,0,1-.64-1.85,4.56,4.56,0,0,0-.21-2.75c-.5-1.33-.36-1.92.76-3s1.3-1.89,1-3.73c-.5-3.05-1.5-4-5.44-5.07-2.3-.63-2.73-.91-1.5-1a15.51,15.51,0,0,1,4.42.89c2.58.91,2.7.9,3.17-.49a39.21,39.21,0,0,0,.54-7c.06-6.37-1.06-9-4.07-9.68a20.67,20.67,0,0,1-4.09-1.5,13.79,13.79,0,0,0-4.29-1.25c-1.12-.06-4-.37-6.32-.68l-4.29-.56,5.37-.44a29.89,29.89,0,0,1,7.4.13c2.24.65,4.71.24,4.71-.78,0-.36.6-.51,1.32-.32,1.1.29,1.32,0,1.32-1.63,0-1.42.37-2.08,1.32-2.32,1.53-.4,1.65-1.36.38-3a2.13,2.13,0,0,0-2.5-.78c-1.17.29-2.56-.24-5.17-1.95-2-1.29-3.13-2.38-2.59-2.41,1.74-.09-2.92-1.86-5-1.89a4.87,4.87,0,0,1-2.79-.81c-.61-.61-.88-.31-1.21,1.31-.23,1.2-.83,2.11-1.36,2.11s-.76-.3-.54-.66-.19-.66-.91-.66a2.26,2.26,0,0,0-1.73.66,8.18,8.18,0,0,1-3.32,1.39,9.15,9.15,0,0,0-3.67,1.65c-1.92,2.31-.93,14.77,1.18,14.77,1.49,0,.94,1.32-.83,2-.92.36-1.51.93-1.3,1.27a27.29,27.29,0,0,1,.67,5.44c.37,6,1.18,8.87,2.4,8.52a24.23,24.23,0,0,1,2.89-.53c2-.27,2-.27.63.92a33.55,33.55,0,0,1-2.9,2.21c-1.29.86-1.54,1.6-1.57,4.62a47,47,0,0,0,.87,8.06c.78,3.81,1.08,4.4,2.1,4.08,1.33-.43,1.68.7.38,1.2-.59.22-.77,1.74-.62,5.18.12,2.68.19,7.09.17,9.81a66.75,66.75,0,0,0,1,10.43c.71,3.8.82,5.74.35,6.31a2.89,2.89,0,0,0-.29,2.3c.38,1.47.39,1.48,1.78.21a16.08,16.08,0,0,1,9-3.8c2.57-.34,3.38-.26,3,.29a2,2,0,0,1-1.59.76c-1.62,0-8,2.53-10,4-1.33.95-1.68,1.67-1.47,3.09a16.5,16.5,0,0,1-.39,4.72,8.63,8.63,0,0,0,.33,5.61,13.28,13.28,0,0,1,.56,6.19c-.23,1.91-.21,3.47.06,3.47a11.72,11.72,0,0,0,2.78-1.76,10.68,10.68,0,0,1,5.5-2.06c3.82-.37,4.4.81.73,1.48-2.63.48-5.8,2.2-5.19,2.81.2.2-.25,1.23-1,2.29-1.55,2.18-1.41,4.58.75,12.74,1.17,4.39,1.75,7.24,3.2,15.5.34,2,1.1,5.26,1.68,7.26a45.19,45.19,0,0,1,1,11.05c0,5,.25,7.42.74,7.42s.56.45.35,1-.09,1,.26,1a.66.66,0,0,0,.64-.66Zm-4.82-37c.94-.94,1.8-1.25,2.62-.94,1.09.43,1.05.56-.44,1.39-2.64,1.47-3.85,1.22-2.18-.44Zm-1.78-69.78c0-.76,1.69-1.37,3.81-1.37,1,0,1.47.23,1.1.57-.9.83-4.91,1.48-4.91.8Zm8.37-3.81c-1.36-.36-1.2-1.44.35-2.42,1.32-.83,3.25.55,2.71,1.94-.36,1-.9,1-3.06.48Zm-11-21.58a9.66,9.66,0,0,1,4.08-1c1.34,0,2.61-.3,2.82-.63.64-1,7.5-1.62,8.58-.73,1.45,1.21-.12,2.53-2.45,2.05-2-.41-10.35.16-13,.9l-1.65.45,1.65-1Zm1.62-18.82a2.21,2.21,0,0,1,1.72-.7c.7,0,1.28-.3,1.28-.66,0-.83,3.09-.87,3.6-.05.41.66-.53,1-4.49,1.68C197.11,303.66,196.43,303.58,196.72,303.1Zm.36-22.73c0-.14-.45-.43-1-.64s-1-.09-1,.26.45.64,1,.64S197.08,280.51,197.08,280.37Zm9.53-2.71c.74-2.71,1.82-31.94,1.44-39.25-.68-13.19-1.48-13.35-1.6-.33-.07,6.53-.42,14.1-.8,16.82s-.86,7.1-1.09,9.73-.65,4.78-.93,4.78-.73.67-1,1.49a8.58,8.58,0,0,1-1.27,2.47,8.68,8.68,0,0,0-1.28,2.91c-.56,2.34.33,3,3.7,2.84,1.81-.1,2.54-.48,2.81-1.46Zm-12.13-.35a2.29,2.29,0,0,0,1.28-1.57,2.76,2.76,0,0,1,1-1.72,2,2,0,0,0,.68-1.9c-.54-1.77-1.24-11.3-1.22-16.56.12-22.75.31-29.26.85-28.39.33.54.71.83.86.66.72-.86-2.13-24-3.16-25.7a21.48,21.48,0,0,1-.67-4.41c-.19-2.11-.51-4.68-.72-5.71a67.91,67.91,0,0,1-.6-7.25c-.26-6.47-.82-14.54-1.37-19.79l-.41-3.84-1.53,1.43c-2.42,2.27-3.08,1.18-2.55-4.2.44-4.43.4-4.66-.67-3.78-1.79,1.49-2.34-.21-1.34-4.15A34,34,0,0,0,186,139.87c-.08-2.14-.25-2.43-1-1.77a5.9,5.9,0,0,0-1.38,2.76c-.48,2.16-2,3.14-3.09,2-.51-.51-.3-1.68.74-4.1a13.69,13.69,0,0,0,1.25-5.15l-.2-1.76-2.78,2.67c-3.78,3.64-4.11,6.06-1.93,14.17,1.9,7,3.19,14.4,2.67,15.25-.74,1.19-3.1-1-4.57-4.28l-1.54-3.4,0,6.45c0,3.55-.14,6.64-.36,6.86-.47.47,1.61,4.17,2.34,4.17,1.33,0,9.44,18.94,11.85,27.66,3.13,11.36,5.17,21.71,5.17,26.3a38.87,38.87,0,0,0,.71,6.14c1.12,5.65.86,31.79-.36,36.41-1,3.84-1.33,7.72-.63,7.72a6.57,6.57,0,0,0,1.64-.68Zm-.24-62c-1-3.44-1.94-6.89-2.08-7.67a9.66,9.66,0,0,0-1-2.64c-.4-.67-2.18-5.4-4-10.51a118.39,118.39,0,0,0-4.56-11.64c-.73-1.3-2.29-4.25-3.46-6.55a35.6,35.6,0,0,0-3.4-5.61c-.79-.89-1-1.57-.57-1.84.76-.47,3.77,3.4,5.41,6.93.57,1.24,2.11,4.49,3.41,7.21a94.2,94.2,0,0,1,3.7,8.91c.73,2.18,2.54,7.07,4,10.88,2.69,6.9,4.91,15.62,4.51,17.7-.12.6-1-1.72-2-5.17Zm7.7,33.65c0-5.26-.23-12.53-.47-16.16s-.59-11.49-.75-17.48-.47-12.1-.68-13.59c-.63-4.53,1.51-28.54,3.4-38.2,1.21-6.18,4.71-17.38,5.88-18.8a27.49,27.49,0,0,0,2.28-4.45c.81-1.91,1.72-3.47,2-3.47s1-1,1.6-2.14c1.12-2.29,5.77-6.27,10.79-9.22,2.09-1.23,2.64-1.81,1.75-1.81-4,0-13.23,8.1-16.15,14.14-.8,1.65-1.7,3-2,3-.54,0,.16-3.25,1-4.6a21.94,21.94,0,0,0,.6-5.13c.24-6.17,2.35-16,5.11-23.77a23.24,23.24,0,0,0,1.23-4.5c0-1,5.08-14.42,7-18.51,1.12-2.36,2.22-2.9,2.22-1.08,0,1,.12.95,1-.17s1-1.22,1,.41a41.38,41.38,0,0,1-.59,5.28c-1.17,6.94-1.4,10.8-.59,10a5.54,5.54,0,0,0,.66-3.22C228.12,93.16,230,90,231.45,90c.27,0,.38,3.93.23,8.74-.17,5.53-.06,8.13.31,7.09a19.86,19.86,0,0,0,.65-4.78c.07-3.22,1-4.17,1.72-1.81.23.73.68,1.17,1,1s.88.17,1.25.81.7.87.73.51.29-1.92.59-3.46c.33-1.69.3-2.81-.07-2.81s-.43-.58-.21-1.28c.44-1.38-1.26-5.31-2.29-5.31s-2.14-2.62-1.7-3.75c.33-.86.71-.8,2.72.38,3.22,1.9,3.35,1.77,1.06-1.09a13.81,13.81,0,0,0-5-3.7c-2.82-1.14-3.14-1.15-4.23-.17-2.2,2-2.06.23.23-3,1.26-1.74,1.85-3,1.31-2.8-.8.31-1-.65-1-5.8a129.28,129.28,0,0,0-1.3-15.08c-1.32-9-1.77-18.29-.69-14.18.28,1.09,1.05,7.23,1.71,13.65s1.41,11.54,1.68,11.37a13.73,13.73,0,0,0,1.55-3.91A13.34,13.34,0,0,1,234,55.83c1.44-1.34,4.33-7.38,5-10.38l.43-2-1.34,1.65a28.59,28.59,0,0,0-2.83,4.94c-.82,1.82-1.57,3.42-1.67,3.56s-.63-.12-1.18-.57c-1.53-1.28-1.2-5.25.71-8.59,1.8-3.14,5.06-11.26,4.67-11.65-.12-.12-.62.52-1.11,1.42s-1.22,1.65-1.63,1.65-1.13,1.47-1.59,3.26-1.19,3.38-1.61,3.53c-2.72.95-3.14-2.52-1.18-9.77,1.34-5,2.43-15.51,1.49-14.47-.75.83-2.07,7.79-2.07,10.92,0,1.37-.27,2.66-.59,2.86-1.35.83-2.3-2.07-2.81-8.58-.52-6.73-1.85-12.79-3.25-14.8-.49-.7-.56.45-.25,4,.24,2.72.48,5.21.53,5.53s-.27.71-.73.87-.82,0-.82-.45c0-1-4.06-9.37-4.41-9s2,9.17,4.39,15.81c2.06,5.78,2.4,9.68.87,10.18-1,.33-5.25-6.2-6.57-10.08-1-3.06-2.8-5.17-2.93-3.52-.3,4,.82,7,4.09,11.13,2.06,2.59,6.2,10.67,6.77,13.2.46,2-.42,3.62-1.75,3.11-.54-.21-2.05-2.59-3.35-5.3s-2.84-5.1-3.43-5.33c-3.92-1.5-1.66,6,3,9.93.93.79,1.46,1.67,1.17,2-.57.58-1,.31-5-2.94s-3.24-1.11,1.17,3.11c6,5.73,10.49,12.32,9.76,14.24a7.43,7.43,0,0,0,.58,3.4c1.27,3.57,1.18,6.67-.26,8.72-2,2.88-6.43,13.25-8.33,19.58-1,3.26-1.91,6.34-2.07,6.84-.61,2-1,0-1-5.61a54.34,54.34,0,0,0-.67-8.81C213,84.21,204.63,68,201.41,64.66c-2-2.06-3-2.7-3.24-2.08s.3,1.34,1.1,1.87c2.32,1.56,1,1.85-2.59.55-4.77-1.74-5.59-1.21-6.94,4.58-1.66,7.1-3.37,11.82-4.27,11.82s-2.24-3.35-2.24-5.37c0-.68-.25-1.23-.55-1.23s-.87,2.12-1.27,4.71-1,5-1.37,5.35c-1.11,1.11-2.09-.12-2.13-2.67l0-2.44-.78,2.31c-.44,1.27-1.09,2.26-1.45,2.19s-1,1.85-1.47,4.25-1.2,4.76-1.69,5.25c-1,1-3.09.5-3.13-.71,0-.41-.68.86-1.48,2.83-1.91,4.67-2.89,4.93-3.5.91-.47-3.1-.5-3.13-1.06-1.19-.31,1.08-.87,2.91-1.23,4-.63,2-.49,2.24,3.37,5.94,5.4,5.16,6.59,5.39,1.63.31-2.16-2.22-3.62-4-3.25-4s3,2.48,5.92,5.5c6.93,7.28,7.56,8,10.5,12.48,2.62,4,4.06,5,3,2.1a11.14,11.14,0,0,1-.64-3.24c0-2.18-2.27-7.21-5.18-11.53-2.34-3.46-4.06-7.77-4.06-10.17,0-2.12,2-1,4.29,2.39l2.34,3.46-.41-4.61c-.63-7.26,1.92-13,3.61-8.15l.75,2.14,1-1.46c1.51-2.16,2.35-1.1,2,2.56l-.28,3.22,1.44-2.12c.85-1.26,1.88-4.56,2.51-8.07,1.21-6.67,2.15-9.57,3.13-9.57s1.53,2.86,1.19,6.26a12.1,12.1,0,0,0-.12,3c.09,0,1.82-2.35,3.83-5.22A47.79,47.79,0,0,1,203,75.13c1.09-.67.36,7.62-.88,10-.74,1.44-.83,2.21-.32,2.72.81.81-1.66,5.53-4,7.66-1.79,1.62-1.79,2.64,0,1.68,2.11-1.13,2.9.12,1.64,2.56a65.29,65.29,0,0,1-6.62,8c-5.44,5.82-7,8.51-7,12.4,0,.82-.27,1.48-.59,1.48s-.54.87-.48,1.92c.1,2,2,4.68,3.41,4.68a1.35,1.35,0,0,1,1.14.85c.26.69,4.46,2.2,11.54,4.17,2.48.68,1.18,3.9-1.34,3.3-2-.48-1.25.62,1.49,2.16s3.07,2,1.85,3.24-4.55.95-7.47-.61l-2.63-1.4,3.65,3.88c2,2.13,4.27,4.75,5,5.81l1.39,1.94.69-4.58c.38-2.51,1.48-9.92,2.45-16.45s2.47-15.49,3.35-19.9c3-15.22,2-24.31-4.09-35.88-1.33-2.54-2.26-4.79-2.06-5s.76.33,1.23,1.18c1.85,3.31,5.85,12.63,5.85,13.65a8.78,8.78,0,0,0,1,3c1.37,2.65,2.38,14.59,1.6,19-3.09,17.45-4.73,26.27-5.28,28.35-1.34,5.09-1.88,7.59-3,13.86a43.6,43.6,0,0,1-1.41,6.43,20.2,20.2,0,0,1-2.65-1.63,8.19,8.19,0,0,0-2.61-1.43c-.35.35,2.09,5.68,2.6,5.69a.59.59,0,0,0,.5-.65.71.71,0,0,1,.74-.66c.47,0,.57.65.29,1.81-.67,2.76-1.74,14.17-2.06,21.91a51.45,51.45,0,0,1-.95,8.95c-.8,2.4-.92,22-.17,25.38.41,1.8.47,32.33.09,46.18-.11,4.17.14,4.33,1.57,1,1.23-2.88,1.41-4.52,1.39-12.86Zm59.89-3.58c.51-3.18,2.06-5.69,3-4.79.25.25.39,2.24.31,4.41s0,4,.21,4a9.62,9.62,0,0,0,1.77-2.77c1.53-3,2-10.21,1.07-15.53-.91-5.09.54-2.92,2.75,4.12,2.11,6.68,3.36,8.28,3.36,4.26a39.42,39.42,0,0,0-1.91-7.71c-1.06-3.18-2.13-6.9-2.39-8.26-.67-3.61.75-3.17,2.59.81.84,1.81,1.67,3.13,1.86,3,.71-.71-.91-6.72-2.92-10.84-2.18-4.46-3.3-8.43-2.51-8.91.25-.16,1.86,1.33,3.57,3.32s3.37,3.6,3.69,3.6c1.24,0-1.5-5.76-4.08-8.58a31.7,31.7,0,0,1-4.43-6.59L266,195.2l-.46,6.38c-.58,8-1.49,11.51-3.07,11.92-1.16.31-4.63,8.07-3.92,8.78.17.17,1.3-1.54,2.5-3.82,2.27-4.27,3-5.09,4.52-5.11,1.17,0,.53,5.8-1.28,11.77a34.87,34.87,0,0,0-1.25,4.95c0,1.17,1.91-2.4,1.94-3.7,0-1.46,1.24-1.51,1.8-.06s-.83,6.43-3.48,11.8c-1.8,3.66-3.67,10.43-3.55,12.83.06,1.33,1.64-2.94,2.05-5.56Zm27.65-3.75a13.15,13.15,0,0,0,.89-7c-.29-2.35-.16-3.79.39-4.45,1.3-1.57,1.77-1.18,2.18,1.82a24.94,24.94,0,0,0,1.54,5.44c1,2.34,1.19,2.46,1.41,1.08.38-2.31-1.09-12.26-1.84-12.52-.36-.12-.66-1.31-.67-2.64a27.87,27.87,0,0,0-.62-5c-.65-2.82,0-8,1.22-9.14s2.14.49,3.72,8.43a63.78,63.78,0,0,0,1.91,8.09c.59.59.44-1.1-.51-5.64s-.39-5.91,1.2-2.62a26.38,26.38,0,0,0,2.31,3.81l1.27,1.64-.61-2.72a40.78,40.78,0,0,0-2.9-7.25c-3-5.88-5.38-15.05-4.47-17,.6-1.28.81-1.08,2.34,2.23,1.83,4,4.38,8,4.39,6.91,0-1.39-2.56-7.59-4-9.56-2.48-3.48-.78-3.08,2.41.57,1.67,1.9,3.17,3.31,3.35,3.14s-.8-2.64-2.17-5.48a48.81,48.81,0,0,1-2.71-6.36,34.48,34.48,0,0,0-1.45-4.28,35.31,35.31,0,0,1-2.71-12.17v-2.79l1.29,1.65a6.35,6.35,0,0,1,1.31,2.4c0,1.66,5.44,11.45,6.32,11.45,1.68,0,1.06-3.53-1.31-7.45s-2.18-5.08.32-3.74,2,.33-1-2.68a15.19,15.19,0,0,1-3-3.46,9.83,9.83,0,0,0-1.68-2.77c-1.72-2.26-2.95-7-1.82-7,.35,0,2,1.29,3.62,2.87a16.16,16.16,0,0,0,4.39,3.23c1.31.35,1.28.19-.48-2.37a19,19,0,0,0-6-6,37,37,0,0,1-3.86-2.84l-2.6-2.12,1.54,6.05c2.07,8.18,2.57,11.72,1.65,11.72-.4,0-.73-.88-.73-2,0-1.87-2.93-14.38-3.51-15-.15-.15-.42,1.61-.6,3.91-.39,4.76-1.66,7.69-6.77,15.65a41.32,41.32,0,0,0-3.61,6.27c0,.74,3-2.46,4.68-5,1.76-2.66,2.19-1,1,3.89a39.72,39.72,0,0,0-1.1,7.34c0,2.41.14,2.68,1,2a2.69,2.69,0,0,0,1-1.59,13.19,13.19,0,0,1,1.32-3.36,14,14,0,0,0,1.32-6c0-1.9.3-3.64.66-3.86a3.13,3.13,0,0,0,.67-2.18,6.33,6.33,0,0,1,.63-2.77c1.9-3,4.31,5.53,3.82,13.52-.4,6.56-2.47,11.34-7.14,16.49-2.16,2.38-3.92,4.91-3.92,5.63s.16,1.3.35,1.3c1,0,3.79-2.4,4.62-4a13.69,13.69,0,0,1,2-2.87c1.13-1.13,2.94-1.42,2.94-.48a73.83,73.83,0,0,1-4,7.66c-3.88,6.85-5.53,11.56-4,11.56.39,0,1.63-1.86,2.76-4.12,2.3-4.64,3.79-6.83,4.29-6.33.19.18,0,3-.34,6.22s-.83,7.36-1,9.18c-.47,4.68-2.12,10.17-3.86,12.86a44.41,44.41,0,0,0-2.3,4c-.77,1.59-.76,1.6.28.33.59-.73,1.49-1.9,2-2.6,1.53-2.14,1.87-.62,1.07,4.75-.67,4.45-.5,8.67.32,7.85a30.49,30.49,0,0,0,1.58-3.82Zm4.37-47.75c.22-2.54.61-6.55.87-8.91l.47-4.29,0,4a56.19,56.19,0,0,1-.87,8.91l-.92,4.95Zm-95.63,42.4c-.14-1.55-.25-.45-.25,2.46s.11,4.17.25,2.82a33.21,33.21,0,0,0,0-5.28ZM262.33,233c.74-1,.73-1.16-.05-1.16-.51,0-1,.63-1,1.39s0,1.29,0,1.16.55-.76,1-1.39Zm-102.46-5.28a53.6,53.6,0,0,0-4.61-9.4c-2-3.26-3.44-6.16-3.27-6.43.48-.78,2.41.54,3.78,2.59a17,17,0,0,0,7.46,5.91l2.51,1-1.32-1.54a25.88,25.88,0,0,0-3-2.86c-5.11-4.08-10.34-11.67-12.64-18.33-1.2-3.49-1.36-4.6-.72-5.23,1.29-1.3,4,1.72,6.57,7.35,2.34,5.08,5.09,9.24,6.11,9.24s-.57-4.14-2.61-6.68c-2.35-2.92-2.41-3.22-.69-3.22.78,0,1.71.8,2.33,2a8.4,8.4,0,0,0,1.21,2c.1,0,2.1.74,4.43,1.64l4.25,1.64-2.31-1.94c-1.27-1.07-4-3.22-6.07-4.78s-3.78-3.34-3.8-4c0-1.42.46-1.43,3.6-.13a6.43,6.43,0,0,0,2.72.77c.29-.29-5.65-4.66-9.44-6.94a49.69,49.69,0,0,1-5.16-3.74c-2.17-1.84-2.48-2.38-1.77-3.1s1.52-.51,4.74,1.27a21.84,21.84,0,0,0,4.68,2.14c1.54,0-1.66-2.76-5.36-4.63a30.58,30.58,0,0,1-5.85-3.89c-2.58-2.41-3.5-2.58-3.05-.55,2.06,9.23,2.17,10.24,1.62,14.18a34.7,34.7,0,0,1-1.46,6.27c-.59,1.46-.82,4.72-.72,10.23.09,4.62-.11,8.08-.45,8.08s-.62.44-.62,1,.26,1,.57,1c.9,0,3.44-10.5,3.59-14.85.07-2.17.4-3.81.73-3.63s.79-.23,1-.92c.6-1.71,2.75,9.35,2.21,11.4-.41,1.58.82,11.63,1.79,14.59.42,1.3.55.91.59-1.87.06-4.47.94-4.22,3.23.95a53.9,53.9,0,0,0,3.74,6.91c1.74,2.59,2,2.75,2.19,1.43a16.37,16.37,0,0,0-.8-4.94Zm43.28-3.47a6.64,6.64,0,0,0-.4-2.79c-.21-.22-.39,1-.39,2.79s.18,3,.39,2.8A6.66,6.66,0,0,0,203.15,224.22ZM316,221.42c.08-4.15,1-3.4,1.5,1.26.69,5.9,1.53,3.53,1.82-5.1.24-7.35,1.17-10,1.84-5.23.43,3.06,2.74,8.51,3.92,9.24.62.38.72-.42.45-3.38-.38-4.07-.75-5.34-3-10.17-2.16-4.63-3.37-8.49-2.78-8.85.3-.19,1.8,1.6,3.33,4s2.95,4.16,3.13,4c.66-.66-1.46-7.44-3.59-11.46-1.21-2.27-2-4.12-1.85-4.12s-.27-1.53-1-3.4c-1.29-3.28-1.31-5.18-.06-5.18.33,0,1,.93,1.45,2.06.88,2.13,3.77,5.2,4.88,5.2.35,0,.28-.36-.16-.79a3.31,3.31,0,0,1-.79-2.06c0-.69-1-2.64-2.21-4.32a71.8,71.8,0,0,1-7.62-14.6c-.78-2-1.27-2.89-1.1-2s.51,3.73.75,6.27a58.27,58.27,0,0,0,1.44,8.24c1.08,3.91,2.13,17.89,1.32,17.39-.28-.17-.52-2.89-.54-6a32,32,0,0,0-.62-7.06c-.53-1.24-.57-1.23-.61.2a35.24,35.24,0,0,1-2.28,6.93c-3,7.2-3.71,9.68-3.69,12.38,0,3.61,1,4.49,2.23,2.06a9.29,9.29,0,0,0,1.05-3.09c0-1.43,2-4.29,2.94-4.29,1.18,0,1.13,5.83-.09,11.06s-1.91,17.9-.81,15.32a14.64,14.64,0,0,0,.76-4.45ZM206.32,219c-.45-6.3-.47-6.39-.57-1.9-.09,4.09.44,9.24.88,8.68.09-.1,0-3.16-.31-6.78Zm-2.21.16c-.19-.45-.34-.08-.34.83s.15,1.27.34.82a2.59,2.59,0,0,0,0-1.65Zm60.61-1.2c.68-1.09.07-1.24-.88-.22-.47.51-.56.93-.2.93a1.51,1.51,0,0,0,1.08-.71ZM341,202.83c.62-3.63.55-5.19-.41-9.61-.64-2.9-1.37-6.47-1.63-7.92a13.92,13.92,0,0,0-1.28-4c-.69-1.12-.76-.81-.44,2,.79,6.91,1.58,16.47,1.37,16.67s-.94-3.61-1.71-11.35c-.8-8.08-1.88-11.36-2-6a51.16,51.16,0,0,1-2.94,13.2c-.41,1-.35,1.15.27.57a10.32,10.32,0,0,0,1.68-3.27c1-2.84,2.82-4.16,2.1-1.51-1.45,5.37-2.56,13-2,14.17.45,1,.64.48.81-2,.24-3.55,1.15-5.2,2.06-3.73.56.92.49,4.71-.24,12l-.43,4.29,2-4.57a45.53,45.53,0,0,0,2.78-8.91ZM255.72,208c.68-5.93,2.25-10.82,3.27-10.18.33.2.78-.56,1-1.69.57-2.82.51-3.71-.18-2.62-.34.53-.49-2.73-.35-7.92.18-7.2.11-8.12-.39-5a37.4,37.4,0,0,1-2.69,8.24,31.31,31.31,0,0,0-2.41,6.86c-.19,1.36-.55,2.48-.8,2.48-.64,0-2,3.1-2,4.48,0,.62.69-.2,1.49-1.81s1.83-3.05,2.28-3.19c1.09-.34,1.06,2-.07,4.68-1.81,4.32-2.11,13.61-.38,11.89.31-.31.86-3.13,1.21-6.26ZM197.3,185a53.4,53.4,0,0,0-.89-8.57,18.25,18.25,0,0,1-.65-3.84,5,5,0,0,0-1.4-2.88L193,168.33l.42,4.53c.23,2.49.7,8.57,1,13.52a97.63,97.63,0,0,0,1.46,12.2l.85,3.21.41-5.27c.22-2.91.3-8.08.16-11.51Zm-60,13a40.6,40.6,0,0,1,1.95-3.75,34,34,0,0,0,2-4.2c.64-1.62,1.32-2.42,1.88-2.2s.55-1-.55-5.38c-.79-3.14-1.69-5.7-2-5.7-1,0-1.54,4.17-.56,4.55.67.26.49,1.2-.83,4.16-3.13,7-5.26,16.1-3.52,15a7.71,7.71,0,0,0,1.61-2.51ZM208,191.75c-.22-.22-.38.17-.35.86s.19.93.4.4a1.32,1.32,0,0,0-.05-1.26Zm-96.28-1.94a4.62,4.62,0,0,0,2.48-2.58c.48-1.88,1.36-2,2.33-.44.65,1.08.75,1.07,1.68-.14a8.5,8.5,0,0,1,2.81-2.09c1.62-.72,1.27-.81-3.35-.85-3.25,0-5-.3-4.74-.72s2.57-.66,5.21-.66,5-.19,5.22-.42-1.08-2.23-2.91-4.45c-3.44-4.15-6.53-6.92-6.53-5.84,0,.8,3.41,5.49,4.84,6.67a3,3,0,0,1,1.1,1.89c0,1.54-3.13.45-6.93-2.42s-7.55-4.92-8-4.44c-.18.18.29.66,1,1.07s1.37,1.05,1.37,1.44c0,.68-1.72.47-4.33-.53-.7-.27-1-.19-.76.21s2.5,1.47,5.06,2.48c3.5,1.37,4.65,2.13,4.65,3.08,0,2.23-3,1.91-10.12-1.1-5.25-2.22-9-2.89-9-1.6,0,.87,4.19,2.68,8.31,3.57,1.86.4,3.49,1,3.63,1.38s-2.11,1.26-5,2l-5.28,1.32,3.88.2a18.78,18.78,0,0,0,7-.92c3.07-1.11,5.27-1,5.27.35,0,.36-.67,1-1.48,1.42-1.81.93-4.46,3.29-4.46,4s4.17-.48,7-1.82Zm151.52-.76c.36-1.78-1.31-7.38-2.21-7.38-.26,0-.52,2-.59,4.48-.1,4,0,4.49,1.16,4.57.89.07,1.38-.44,1.64-1.67Zm46.19-4.65a8.88,8.88,0,0,1,2.73-5c2.33-2.32,2.78-4.14,1.88-7.52-.38-1.41-.55-1.28-2,1.53a15.72,15.72,0,0,0-1.55,4c0,.52-.29.94-.64.94-.92,0-2.4,3.17-2.95,6.27-.25,1.45-.61,3.38-.79,4.29l-.34,1.65,1.6-1.74a9.94,9.94,0,0,0,2-4.44Zm60.06,1c-.5-1.3.91-2,2.08-1,.54.44,1.14.65,1.33.46.52-.52-4.48-4.46-5.68-4.46s-2.62-1.22-2.62-2.11,1.87-.62,3.89.43c2.49,1.28,8.65,2.09,8.65,1.13s-6.23-3.85-9.57-4.43c-5.72-1-6.72-2.93-1.52-2.93,5.86,0,2.62-1.1-5.73-1.94-4.36-.44-8.59-1-9.41-1.15-1.73-.41-2-2.35-.33-2.11s7.66-.73,8.74-1.4c1.41-.87-2-1.54-5.43-1.06-1.55.21-4.36.58-6.26.81-4.59.55-5.53,1.71-2.3,2.83,4.58,1.59,11.36,4.87,11.36,5.5,0,.35-.37.47-.83.26-3.45-1.6-18.8-7.64-19.46-7.66-.45,0-.82.26-.82.59,0,.72,1.86,2.69,2.53,2.69a33.63,33.63,0,0,1,4.72,4c3.89,3.6,5.28,4.56,5.28,3.61a22.21,22.21,0,0,0-2.73-3.31c-1.51-1.63-2.58-3.13-2.39-3.32.61-.61,4.67,2.58,8.75,6.89,3.56,3.76,7.3,6.52,8,5.88.86-.86-3.91-7.11-5.43-7.11-.91,0-1.16-.81-.46-1.52s6,2.5,10.64,6.88c4.94,4.67,5.65,5.18,5,3.61ZM168.7,174.16a60.32,60.32,0,0,0,.9-8.09c0-1.94.25-3.53.5-3.53s.81,1.53,1.26,3.39c1.4,5.84,2.2,2.28,1.67-7.45-.4-7.45-.33-8.47.58-8.47.69,0,1,.61,1,1.86,0,2.69,1.85,7.71,3.34,9.06,1.22,1.11,1.28,1.1,1.27-.1a69.83,69.83,0,0,0-1.74-7.85,93.34,93.34,0,0,1-2-9.41c-.17-1.54-.54-2.8-.82-2.8s-1.77,2.45-3.3,5.44c-3.15,6.19-3,3.75.16-2.8,1.14-2.36,2.21-4.58,2.38-4.95.46-1-2.79,3.07-4.11,5.16a26.15,26.15,0,0,0-2.13,6.47c-1.29,6.18-3,10.58-5.36,13.59-3.13,4-3.24,4.39-.94,3.2a12,12,0,0,0,3.6-3.35c2.88-4.24,3.42-.6.62,4.17-2.41,4.1-4.9,9.5-4.17,9.05a21.89,21.89,0,0,0,2.66-4.05c1.15-2,2.24-3.54,2.43-3.36s-.28,2.54-1,5.22a37.46,37.46,0,0,0-1.35,8.14V186l1.87-3.63a36.29,36.29,0,0,0,2.72-8.17Zm100.65,3.25a23.15,23.15,0,0,0-4.25-5.68,21.52,21.52,0,0,1-4.06-5.1c-2.48-4.18-4.6-7.15-4.6-6.45,0,1.94,1.64,6.32,2.37,6.32,1.08,0,2.4,2.52,3.55,6.77.67,2.45,1,3,1.71,2.43s1.05-.33,1.63.82c.81,1.57,5.4,5.87,5.83,5.46a20.78,20.78,0,0,0-2.18-4.57Zm-138.47.48a19.87,19.87,0,0,0,3.28-4.45,13.39,13.39,0,0,1,2.3-3.5,8,8,0,0,0,1.89-3.06c0-.49,1.28-2.63,2.85-4.76,3.55-4.81,8.07-7.48,12.74-7.52l3.21,0L155.21,153c-1.07-.87-2.12-1.47-2.35-1.33-.4.24-1.85-.6-5.43-3.16a27.2,27.2,0,0,0-5.2-2.42c-1.95-.69-3.55-1.54-3.55-1.9a1.92,1.92,0,0,0-.52-1.18c-.29-.29-.37.95-.19,2.75.38,3.7-.78,10.94-1.87,11.67-1.29.87-2.27.53-2.78-1-.41-1.22-.59-.93-1,1.69-.51,3.33-1.51,5.07-2.9,5.07-1,0-1.89-4.12-1.3-6,.23-.73.1-1.29-.3-1.29a.68.68,0,0,0-.7.66c0,.37-.71.66-1.57.66-1.5,0-1.58.23-1.86,5.64-.21,4-.6,5.93-1.39,6.72-1.31,1.31-1.79.93-2.36-1.86l-.44-2.11-1.72,2.6-1.73,2.61,4.74,5.08c2.62,2.8,5.29,5.07,6,5.07s2.52-1.4,4.1-3.12Zm177,.12c0-.79-3.3-3.59-4.22-3.59-.21,0,.26,1.32,1.05,2.94,1.11,2.3,1.62,2.79,2.3,2.23A2.48,2.48,0,0,0,307.9,178Zm-194-3.39c-2.13-3.35-2.6-5.68-1-5.08.68.26,1.18-.45,1.75-2.49.94-3.37,1-5,.27-12.26-.6-6.21-1.49-6.43-2.91-.69a11.43,11.43,0,0,1-1.67,4.15,13.37,13.37,0,0,0-2,3.8,17.46,17.46,0,0,1-2.65,4.71c-2.66,2.87-2.49,3.28,2.73,6.35a40,40,0,0,1,5.62,3.75c1.74,2.1,1.65.56-.12-2.24Zm85.6-7.56c-.22-4.29-.53-5.36-2-7.14l-1.76-2.1v1.87a155.52,155.52,0,0,0,2.49,16.7c.67,2,1.56-4.41,1.3-9.33Zm61,5.54c-.59-1.71-1.2-2.71-1.36-2.22-.4,1.19,1.24,6.06,1.9,5.65.28-.17,0-1.72-.54-3.43Zm49.3,1.85a2.19,2.19,0,0,1,.62-1.66,3.42,3.42,0,0,0,.56-2.35l-.06-2-1.21,2c-1.32,2.17-3.22,2.67-3.18.83a39,39,0,0,1,1-5.11,56.07,56.07,0,0,0,1-10.39c0-5.69-.12-6.43-1.14-6.44-.64,0-1.63-.84-2.22-1.86s-3.51-3.6-6.52-5.72-5.59-4.34-5.75-4.94c-.27-1-7.31-5-7.88-4.41-.16.15.31,1.28,1,2.51a61.21,61.21,0,0,1,3.31,7.83c2.08,5.85,2.38,6.21,8.92,10.82a21.34,21.34,0,0,1,5.32,5.42,12.29,12.29,0,0,0,2.74,3.44c.59.33.86.93.61,1.34-.84,1.36-3.6.78-5.89-1.23s-3.73-2.52-3.73-1.45c0,.82,11.26,14.64,11.93,14.64.33,0,.6-.57.6-1.28Zm-187.46-12.4c-.14-5.1-1.21-4.22-1.2,1,0,3.14.2,4.16.65,3.46a11.06,11.06,0,0,0,.55-4.45Zm25.18-2.42a18.28,18.28,0,0,1,5.82-3.06c2.28-.45,2.31-.48.44-.54-3.34-.12-8.49,2.75-11.13,6.21-1.31,1.72-2.39,3.59-2.39,4.15s.86-.14,1.92-1.57a31.56,31.56,0,0,1,5.34-5.19Zm165.32,5.73c-.22-.22-.38.17-.35.86s.19.93.4.4a1.35,1.35,0,0,0,0-1.26ZM92.17,164c0-.18-.45,0-1,.49a3,3,0,0,0-1,1.15c0,.18.44,0,1-.49s1-1,1-1.15Zm186.39-5.77c1.31-2.35,2.2-4.56,2-4.92a3.55,3.55,0,0,1,.59-2.49c1.16-2.14,1.16-2.12,1.05,4.76-.08,5,0,5.22,1,4.18,3-2.93,2.86-23.77-.14-24.77-.42-.14-.73.53-.73,1.56,0,3-5.35,6.62-8.72,5.87-1.6-.36-1.62-.34-.39.62a5.35,5.35,0,0,0,2.81,1c1.35,0,1.48.23,1.09,1.81a15.72,15.72,0,0,1-2.73,4.62c-2.38,2.93-2.25,3.4.52,1.82,3.31-1.9,3.42-1,.66,5.5-2.37,5.56-2.47,6.35-.69,5.4.71-.38,2.36-2.61,3.67-5Zm-87.43-1.33c-.39-2-.53-2.19-.59-.87-.07,1.66.54,4.12.93,3.71a11.49,11.49,0,0,0-.34-2.84Zm158.4.48c-.65-1.21-3.37-3.7-6.79-6.22-1.51-1.11-1.51-1.12-.14-1.15.77,0,3.59,1.39,6.27,3.14,4.31,2.81,8.92,5.4,9.6,5.4a10.53,10.53,0,0,0-1.92-1.92c-2.86-2.56-2.05-3.13,1.55-1.07a14.08,14.08,0,0,0,3.8,1.67c1.72,0-.65-2-6-5.11-2.83-1.64-5.14-3.23-5.14-3.54,0-.83,2.5-1.27,6.6-1.18a35.84,35.84,0,0,0,6.59-.51l3-.6-2.11-1.12c-2.66-1.43-8.54-1.48-11.3-.1-2.29,1.14-6.13,1.05-6.53-.16-.14-.42.78-1.26,2-1.86a26.44,26.44,0,0,0,4.82-3.28l2.53-2.2-2.73.5a18.35,18.35,0,0,0-6.77,3.56c-2.35,1.79-4.74,3.07-5.71,3.07-1.67,0-1.66,0,.73-2.47s4.7-6.11,3.91-6.11a52.22,52.22,0,0,0-5.22,4.23c-5.21,4.54-5.2,5,.08,5a3.78,3.78,0,0,1,2.51.67c.68,1.1-4.11.76-13.84-1a76.52,76.52,0,0,0-9.42-1.37c-.15.14.32.58,1,1a45.31,45.31,0,0,1,4.84,3.74c3.67,3.15,5.68,4.39,8.48,5.23,1.33.4,1-.08-1.56-2.55a17.09,17.09,0,0,0-3.79-3.05.63.63,0,0,1-.59-.66c0-.36,1.17-.66,2.59-.66,2.69,0,4.2.94,9.62,6,2.48,2.32,9,6.56,9.45,6.17.12-.1-.09-.76-.47-1.47ZM128.19,151.6c1.06-2.55,1.11-2.91.41-2.91-.29,0-1,1.35-1.63,3-1.26,3.39-.2,3.31,1.22-.08Zm146.69-4.89c0-1.07-5.91-5-5.91-3.93,0,1.28-1.38.55-4.39-2.33-1.71-1.64-3.23-2.84-3.39-2.68s1.09,2.46,2.76,5.11,3.68,6.15,4.45,7.77l1.41,2.94,2.55-2.94c1.4-1.63,2.53-3.4,2.52-3.94Zm14.17.16c-.58-3.36-3.13-10.45-3.43-9.54a3.27,3.27,0,0,0,.46,2,16,16,0,0,1,.7,5.27c0,3.21.21,4,1.15,4.25.64.17,1.24.34,1.35.38a7.65,7.65,0,0,0-.23-2.4Zm44.57-2.79c-.8-.51-.84-.86-.2-1.81,2.15-3.16,4.24-6.91,4-7.16s-2.46,1.36-5.13,3.36c-2.84,2.12-5.52,3.62-6.49,3.62-2.76,0-.9.95,3.41,1.73,5.37,1,5.56,1,4.41.26Zm-239.3-7.54c.27.27.49-3.32.49-8s-.13-8.34-.28-8.19-1.06,4.88-2,10.5-1.86,10.81-2,11.54S91,142,92,139.9s2-3.63,2.31-3.36Zm184,3.11c1.2-1,2.3-1.86,2.44-2s.3-2.93.15-5.63a1.92,1.92,0,0,0-1.32-1.5,2.72,2.72,0,0,1-1.59-1.69c-.25-1-.9-1.3-2.71-1.3-1.48,0-2.3-.3-2.2-.79s-.43-.87-1.16-1c-1.31-.2-1.31-.2,0,.41,1.84.84,0,.88-2.93,0s-14-1.06-15.16-.37c-.58.36-.43.76.53,1.43s2.34.82,6,.38c6.64-.79,17.17.4,17.17,1.94,0,.37-.61.46-1.42.2a15.18,15.18,0,0,0-4.12-.3c-2.81.16-3.12.15-10.46-.14-2.44-.1-4.45,0-4.45.32s1.64,1.3,3.64,2.29c2.89,1.41,3.92,2.36,5,4.61.79,1.63,1.83,2.83,2.46,2.83a17,17,0,0,1,3.73,1c3.6,1.3,3.88,1.26,6.39-.77Zm29.49-2.51a33.54,33.54,0,0,0-4.89-10.88,9,9,0,0,1-1.31-2.64c-.59-2-1.45-2.62-3.47-2.63a2.22,2.22,0,0,1-2.1-1.59c-.74-2-4.05-4.46-7.79-5.91-3.91-1.51-4.56-1.39-5.75,1.06-1.35,2.8-4.74,6.87-5.27,6.34-.23-.23.62-1.55,1.88-2.93,2.95-3.22,2.48-4.13-.64-1.27-4.57,4.19-5.15,4.63-7.48,5.73-1.7.79-2,1.12-1,1.15,2.33.09,9.28,3.78,11.43,6.07,1.15,1.23,2.08,1.89,2.09,1.48,0-1.13,3.11-1.49,5.83-.68a29.48,29.48,0,0,1,5.85,2.89,19.25,19.25,0,0,0,4.06,2.16,22.49,22.49,0,0,1,4.49,2.93c2.12,1.6,4.05,2.72,4.3,2.47s.16-1.93-.2-3.75ZM161,139.86a16.73,16.73,0,0,0,4.39-3.3c1.25-1.31,2.66-2.39,3.14-2.39,1.29,0,1,.66-.79,2.1-.91.72-1.65,1.61-1.65,2s1.17-.37,2.6-1.66c2.88-2.6,6-4.4,7.64-4.4,1.13,0,3.32-1.84,2.8-2.35a35.74,35.74,0,0,0-6.19-.47c-5.46-.14-6.18,0-10.16,2a38.36,38.36,0,0,0-6.92,4.47l-2.64,2.33,4.45-2.13c3.4-1.63,4.63-1.95,5.22-1.36s.37.93-.92,1.42c-1.59.6-3.8,3-3.8,4.17,0,.7.38.65,2.82-.4Zm168.45-.93a11.82,11.82,0,0,0,2.46-2c.89-1,.06-.73-3.14,1a31.9,31.9,0,0,0-4.35,2.55c0,.35,3.55-.72,5-1.51ZM148,129.82a20.19,20.19,0,0,0,2.27-5.07,1.91,1.91,0,0,1,.69-1.48c.46-.28.55,1.06.29,4.09l-.38,4.51,1.26-2.31a19.1,19.1,0,0,0,1.72-4.83c.53-2.93,4.24-9,6.24-10.18a13,13,0,0,1,4.85-.9l3.47-.07-3-.58c-11.18-2.2-12.65-2.71-16.12-5.53-3.62-3-5.09-3.87-8-5-1.32-.5-.88.12,1.77,2.57,1.93,1.78,3.34,3.42,3.12,3.64s-2.3-.46-4.62-1.52-4.89-2.13-5.71-2.37c-2.48-.72-1.66.79,1.14,2.08,3.17,1.46,3.47,2.55.51,1.88-5.19-1.18-8.12-1.5-8.7-.94-.39.37-.13.6.65.61a30.88,30.88,0,0,1,5.52,1.33,27.85,27.85,0,0,0,7.76,1.21,11.68,11.68,0,0,1,3.92.27c.79.79-.45,1.63-3,2s-3.91,1.39-3.15,2.16c.19.19,2.41-.24,4.94-1,4.67-1.32,10.69-1.3,10.69,0,0,.37.43.3,1-.15a2.19,2.19,0,0,1,1.77-.53c.44.14-1.34,2-4,4.06a57.19,57.19,0,0,0-7.47,7.22c-2.71,3.41-3.4,4.73-5.85,11.2l-1.3,3.43,2.67-3a47.07,47.07,0,0,0,5-7Zm28,6.92c0-.37-.3-.48-.66-.26a1.47,1.47,0,0,0-.66,1.07c0,.36.3.48.66.25A1.44,1.44,0,0,0,176,136.74Zm161.52-6.35,3.07-2.89-3.16,1.77c-1.74,1-3.35,1.58-3.57,1.36s2.44-3.15,5.92-6.51,6.54-6.85,6.79-7.76c.37-1.29-.25-.88-2.9,1.94-1.86,2-3.53,3.44-3.71,3.26s2.39-8.39,3.28-9.83c.22-.35.16-.65-.14-.65-.53,0-5.68,8.23-7.74,12.37-1.48,3-2.62,2.79-2.14-.33,1.12-7.12,1.25-8.37.82-8a23.75,23.75,0,0,0-1.68,4.95c-.66,2.48-1.68,5.82-2.27,7.43-.78,2.14-.87,3.05-.31,3.39a.88.88,0,0,1,.29,1.21.85.85,0,0,1-1.17.3c-.41-.25-.53-.13-.28.26s-.46,1.55-1.55,2.58a8,8,0,0,0-2,2.4c0,1.07,9.44-4.46,12.43-7.28Zm-247.88-.83c.64-2,1.88-5.58,2.75-8a42.79,42.79,0,0,0,2-7.87c.23-1.94.68-3.71,1-3.91.68-.45,1.45-4,.85-4s-9.33,17.83-9.31,18.74c0,.35.88-.39,2-1.65,1.81-2.12,2-2.18,2-.77a11.06,11.06,0,0,1-1.23,4c-1.09,2.14-1.9,4.68-3.1,9.7-.59,2.48,1.92-2.59,3.1-6.26ZM142,129c1.09-1.83,2.2-3.34,2.47-3.35a50.88,50.88,0,0,0,5.82-5.29c4.09-4.06,5-5.28,4-5.28-.75,0-1.37.43-1.37.94s-1,1.27-2.2,1.67c-2.93,1-6.23,3.46-5.89,4.46.15.44-.37,1.48-1.16,2.31-1.54,1.63-5.24,7.74-5.25,8.68,0,1.09,1.64-.8,3.62-4.14Zm77.14-2.36c4.56-3.58,9.18-5,16-5.06h5.52l-.36-3a17.21,17.21,0,0,0-2-5.71l-1.63-2.72v2.09a11.62,11.62,0,0,1-.43,3.21c-.37.95-.23,1,.9.4s2.16-.43,2.16.57c0,.71-3.33,2-4,1.59-.37-.23-.46-2-.2-4.21a15.48,15.48,0,0,0-.42-6.38l-.85-2.55-.58,2.18c-.4,1.55-.9,2.13-1.7,2s-1.15-1.16-1.31-5.78l-.2-5.56-1.28,2.1c-2.74,4.51-4.72,1-4.23-7.37l.32-5.36L223.42,90c-3.13,6.76-8.73,26.27-10.15,35.39-1.36,8.69-1.35,8.77.72,6.13a36.48,36.48,0,0,1,5.12-4.88ZM99.44,126c-.84-2.41-.87-3.73-.07-3.73.33,0,.78.82,1,1.83.42,1.89,3,6.27,3,5.1,0-.37-.75-3.42-1.67-6.78-1.58-5.77-1.66-7.92-.26-7a8.35,8.35,0,0,1,1.35,3.29,9.15,9.15,0,0,0,1.6,3.63c1.53,1.27-.57-5.75-3.51-11.75-2.69-5.49-2.79-5.53-3.68-1.46-.5,2.26.6,22.06,1.28,23.17.91,1.47,1.74-4,1-6.26Zm36.46,5.61c-1.44-1.44-2.63-4.48-3.17-8.16a12.08,12.08,0,0,0-1.37-4.28c-.79-1.06-.9-.85-.91,1.86a16.55,16.55,0,0,0,1,5.43c1.36,3.24,1.27,3.91-.35,2.91-1.18-.73-2.43-4-5-13.2-.18-.64-.62-1.16-1-1.16s-.46.32-.22.7a4,4,0,0,1,0,2.41c-.78,3.12-2.23.34-2.64-5.09-.45-6-1-9.23-1.58-9.23-.23,0-.42,1.26-.42,2.8,0,4.32-1.54,3.54-3.55-1.81-2.51-6.69-5.37-11-5.35-8.08,0,1.14,3,7.48,4.61,9.72,1.21,1.71,1.78,4,1,4a16.84,16.84,0,0,1-2.75-2.67c-2.82-3.13-5.35-4.79-4.28-2.82a17.83,17.83,0,0,0,2.78,3.19c2.13,2,8.54,11.2,8.54,12.28,0,1.32-2.63.41-5.94-2.06a42.8,42.8,0,0,0-3.76-2.64c-.13,0,.26.74.85,1.65S113.69,119,114,119s.58.44.58,1c0,.74-.51.88-2.14.58-2-.37-2.08-.32-1.08.72a28.62,28.62,0,0,0,6.13,3.33c7.51,3.27,9,4.94,4.51,5-2.2,0-2.33.1-1.15.78,2.25,1.31,7.73,2.39,12,2.36,3.73,0,4-.13,3-1.08Zm-79.21-5.51c1-1.93,2.38-4.91,3.09-6.63s1.72-3.14,2.33-3.14c1.18,0,1.23.29,1,5.52-.1,2.62.08,3.74.56,3.44.92-.57,1.83-4.25,2.37-9.62a17.56,17.56,0,0,1,1.45-5.84l1-1.55-3.52.47a20.63,20.63,0,0,0-4.64,1.06,5.37,5.37,0,0,1-2,.59c-1.44,0-8.77,4.16-7.86,4.47a4,4,0,0,0,2.5-.84c2.95-1.93,2.67-.32-.41,2.34s-3.17,3-.42,2,2.38.51-.87,3.88a63.92,63.92,0,0,0-5.24,6.26c-1.95,2.77-2,3.07-.73,2.37,2.31-1.24,6.72-5.9,9.21-9.75,3.26-5,3.73-3.28.75,2.84a73.3,73.3,0,0,0-3,6.91l-.48,1.65,1.57-1.45a22.38,22.38,0,0,0,3.36-5Zm262.08-.28c0-.32-.67-.68-1.48-.79-1.23-.18-1.49.1-1.49,1.56,0,1.7.07,1.73,1.49.79C318.1,126.87,318.77,126.17,318.77,125.85Zm-138.49-3.4c-1.14-1.09-1.16-1.07-.4.4.43.85,1,1.36,1.19,1.14s-.13-.91-.79-1.54Zm77.64,1.36a11.74,11.74,0,0,0-3.3,0c-1,.15-.34.28,1.48.28s2.63-.12,1.82-.28Zm61.84.15A35.67,35.67,0,0,0,316,120c-2.06-2-3.57-3.82-3.34-4s1.92-.08,3.78.32a35.38,35.38,0,0,0,6.81.64l3.43-.08-2.48-.7c-2.74-.76-3.29-1.77-1-1.79a5.22,5.22,0,0,0,2.48-.69c.7-.49-.06-.54-2.64-.17a40.21,40.21,0,0,1-6.27.38,104.84,104.84,0,0,1-15.86-1.73c-4.3-.89-4.49-.88-2.94.13a89.72,89.72,0,0,1,7,6.21c5.6,5.31,7.53,6.62,4.54,3.06-2.39-2.83-3.8-5.7-3-6.17.34-.21,2.64,1.36,5.11,3.48,5.33,4.57,8.12,6.32,8.12,5.09Zm31.67-.28c0-.87-3.9-4-5-4-2,0-1.5,1.33,1.15,2.92C350.65,124.4,351.43,124.62,351.43,123.68Zm-92.36-1.37c4.9-.24,9.78-.81,10.85-1.25a28.18,28.18,0,0,0,5.3-3.67c3.17-2.71,4.33-4.64,7-11.58,1.26-3.31.87-9.06-1-15-1.8-5.62-1.93-6.65-1.05-8,.47-.75.92-.55,2.25,1L284,85.69l-.57-3c-.32-1.64-.76-5-1-7.42s-.67-4.46-1-4.46a8,8,0,0,1-2.47-1.6l-1.91-1.61.28,1.94c.26,1.7.09,1.93-1.38,1.93-2.14,0-3.76-.62-3.76-1.44,0-.37.84-.46,2-.21,2.42.54,2.53-.27.38-2.76-1.25-1.45-1.68-1.64-2-.87-.63,1.71-2.17,9.9-1.87,9.9A12.1,12.1,0,0,0,273,74.47c2.24-1.88,3.07-2,3.59-.7.35.92-3.56,8.29-5.22,9.84-.45.41-2.07,1.87-3.61,3.23-3.18,2.81-3.11,3,.4,1.21,2.48-1.27,7.4-2.48,8-2a.9.9,0,0,1,.07.93,8.21,8.21,0,0,0-.16,2.41c.08,1.35-.77,2.55-3.74,5.28-3.45,3.17-6.73,7.08-6.73,8,0,.19,1,.55,2.33.79,2,.38,2.21.58,1.48,1.46-1.47,1.79-6,3.29-11.21,3.76-5.09.45-5.1.46-7.76,3.63a23.59,23.59,0,0,0-4.91,9c-.35,1.15-.13,1.5,1.08,1.73a6.23,6.23,0,0,0,2.5-.05c.55-.19,5-.54,9.9-.79Zm-15.2-3.79c1.33-5.15,1.41-5.3,2-3.81.3.73.56,1,.59.49s1.5-2.29,3.29-4.06c3.2-3.18,3.32-3.24,8.41-3.67,6.2-.52,9.48-1.56,7.84-2.48-1-.55-3.79-.15-8.18,1.19-1.26.39-1.51.26-1.32-.68.14-.7,1.57-1.66,3.58-2.41,3.25-1.21,6.84-4.13,6.05-4.92-.21-.21-1,0-1.85.4-2.32,1.24-5.19,1.91-5.57,1.3s2.2-2.56,6.55-4.68c3.42-1.66,8.84-6.68,7.65-7.08s-9.13,3.64-10.77,5.41-5.08,3-5.08,1.86c0-1.65,1-2.92,4.19-5.22,5.22-3.79,10.33-8.82,11.71-11.53a16.77,16.77,0,0,0,1.25-2.84c0-.21-2.31,1.41-5.14,3.6-4.6,3.57-6.73,4.71-6.73,3.62a8.55,8.55,0,0,1,2-2.06,16.84,16.84,0,0,0,6.16-11c.39-3.4.32-3.78-.54-3.07-1.22,1-5.32,7-7.95,11.62a47,47,0,0,1-3.86,5.67c-2.07,2.43-2.05,2,.17-4.06a23.7,23.7,0,0,0,1.32-6.93v-3.3l-1.86,3.63a54.2,54.2,0,0,0-3.35,10.23c-2.43,10.78-6,15.71-4,5.51a39.29,39.29,0,0,0,.61-7.57c-.13-3.27-.26-3.57-1-2.5a16.55,16.55,0,0,0-2.18,7.73c0,1-.28,1.69-.6,1.49a4,4,0,0,1-.61-2.52,12.67,12.67,0,0,0-.65-3.79c-1.27-3.28-1.63,2.61-.52,8.47a41.55,41.55,0,0,1,.67,10.52c-.5,7.1-.76,8.06-2.19,8.06-2.24,0-3-1.87-3.25-8.32-.15-3.41-.54-6.2-.86-6.2s-.59.82-.58,1.82a29.5,29.5,0,0,1-.39,4.27,11,11,0,0,0,.32,4.53c1,3,.1,3.82-1.36,1.19l-1.24-2.24.41,2.31a15.44,15.44,0,0,0,2,4.72,22.37,22.37,0,0,1,2.31,6.76c.42,2.39,1,4.21,1.26,4a10.61,10.61,0,0,0,1.32-3.47Zm7.3-18.19c5.17-10.82,9.19-17.75,9.2-15.89a5.77,5.77,0,0,1-1.22,3c-.68.87-3.38,5.73-6,10.81-6.11,11.85-7.19,13-2,2.11ZM95.86,119.84c-.22-.22-.38.17-.35.87s.19.92.4.39a1.35,1.35,0,0,0,0-1.26Zm89.31-2.39c0-3.5,1.84-6.3,7.5-11.51,3.16-2.91,5.39-6.07,4.29-6.07-.47,0-2.42,1.66-4.34,3.69-3.18,3.36-3.48,3.54-3.48,2,0-1.09,1.66-3.63,4.88-7.48,2.68-3.2,4.77-5.94,4.64-6.08s-1,.24-1.94.85c-3.11,2-3.2.34-.13-2.82,3.47-3.58,5.24-6.8,4.95-9-.17-1.36-.67-.91-3.53,3.17-1.83,2.62-3.61,4.61-4,4.43s-.57-2.26-.51-4.62c.18-6.6-.69-3.76-2.79,9.07-.2,1.18-.72,2.14-1.17,2.14s-1.32,1.72-2,3.83c-1.39,4.69-1.4,5.13-.13,4.08,1.74-1.45,1.78-.24.1,3.08a49.8,49.8,0,0,0-2.68,6.78c-1.2,4-1.47,9-.4,7.3a6.54,6.54,0,0,0,.65-2.87Zm-9.26-.92a11.3,11.3,0,0,0-1.93-2.72l-1.9-2.23.19,1.76c.22,1.94.17,1.87,2,2.91,1.6.89,1.66.9,1.62.28Zm9.55-9.33c.28-.45.12-.69-.4-.58-1,.2-1.07-1.73-.31-7.41.36-2.73.3-3.34-.24-2.47-1.26,2-2,1.25-2-2.11,0-1.79-.26-3.42-.57-3.61-.81-.5-1.31,5-.95,10.67.17,2.7,0,4.78-.31,4.78s-1.14-1.18-1.79-2.62a13.5,13.5,0,0,0-2.51-3.79c-1.3-1.16-1.32-1.14-.86.8a22.06,22.06,0,0,0,2.62,5.28c3.7,5.63,4.37,6.84,4.43,8.06,0,.64.58-.49,1.22-2.53a35.05,35.05,0,0,1,1.64-4.47Zm111,6.64a4.16,4.16,0,0,1-1.09-2c0-.43-.78-.77-1.74-.77-1.71,0-1.7,0,.75,2C297.17,115.3,298.07,115.63,296.44,113.84Zm70.15.71c0-.27-1.64-1.63-3.63-3s-3.62-2.94-3.62-3.46c0-1.31.51-1.21,4.28.79,1.81,1,4.33,2.18,5.6,2.69,2.22.9,2.17.81-1.19-2.17-2.55-2.26-3.28-3.26-2.65-3.64s1.65,0,2.85.78c5.25,3.45,14.2,7.06,14.2,5.71a12,12,0,0,0-2.66-2.08c-1.47-1-2.48-2-2.27-2.41a.75.75,0,0,1,1-.26c.9.55,3.49-.39,2.82-1-.31-.3-2.56-.71-5-.92a43,43,0,0,1-8.37-1.69c-3.42-1.15-4.56-1.24-9-.67a28.9,28.9,0,0,0-5.43,1c-.19.18,1.51.33,3.77.33,2.57,0,3.95.25,3.7.66-.61,1-6.39.79-9.59-.34a8.7,8.7,0,0,0-3.06-.75c-.38.38,6.68,5.66,9.46,7.08a11.4,11.4,0,0,0,3.83,1.27,3,3,0,0,1,2.18,1.31c.78,1.27,2.8,1.86,2.78.83Zm-199.51-5c-6.47-5.81-6.53-5.83-9.19-2.78l-2.28,2.62,1.76.44c1,.25,3.92.82,6.57,1.27s5,1.07,5.15,1.37a1.4,1.4,0,0,0,1.09.54c.41,0-1-1.55-3.1-3.46Zm142.39,1.24,2.3-1.56-2.93-.41a35.45,35.45,0,0,0-10.85.69c-1.24.28-.32.67,3.63,1.53,2.9.64,5.33,1.2,5.41,1.24a16.2,16.2,0,0,0,2.44-1.49Zm5.93.52c.68-1.78.44-2.91-.61-2.91-1.29,0-2.41,2.78-1.38,3.45s1.55.61,2-.54Zm-22.47-2.21a31,31,0,0,1,7.81-1.68c7.3-.62,13.74-1.8,13.74-2.5,0-.35-.75-.49-1.68-.31-2.28.43-1.73-.9.71-1.72,4.89-1.63,8.47-8.44,8.2-15.56-.09-2.38-.2-5.22-.23-6.31-.07-2-.11-2-3.81-2h-3.74l3.58,3.74c4.2,4.42,5.1,8.45,1.22,5.52-1.58-1.19-2.65-1.31-1.81-.19,1,1.35,2.34,6.12,2.07,7.48-.44,2.3-1.93,1.31-4.06-2.7-1.89-3.55-2.33-4-4.41-4.17a7.11,7.11,0,0,1-3.46-1.26c-.64-.57-1.16-.72-1.16-.33s-1,1.35-2.3,2.14c-2.8,1.72-3.07,3-.5,2.29,4.1-1.1,6.72-1.41,7.54-.88.58.38.64.73.18,1.06A83.79,83.79,0,0,1,302,97.54l-6.6,3.35a34.1,34.1,0,0,0-7.17,5l-2.88,2.85,1.89.81c2.47,1,2.31,1.07,5.75-.41Zm57.83-.63c0-.79-4.45-4.67-5.46-4.77a12.86,12.86,0,0,0-1.93,0,5.41,5.41,0,0,1-2.52-.63c-2.09-1.12-.85-2.06,5.66-4.29a26.84,26.84,0,0,0,10.05-5.6c4.42-3.72,7.25-7,6.63-7.59-.2-.19-2.7,1.39-5.57,3.52s-5.9,4.23-6.75,4.68c-2.81,1.49-2.32.13,1-2.89,3-2.67,4.82-5.63,3.51-5.63-.95,0-6.05,4-10.07,7.94-5,4.92-6.72,5.34-3.82,1,1.51-2.28,1.66-3.05.49-2.61a11.92,11.92,0,0,0-2.7,3.28c-1,1.63-2.26,3-2.73,3a1.54,1.54,0,0,0-1.24,1c-.47,1.24-4.33,3.62-5.86,3.63-1.87,0-1.33-1,1-1.84a10.76,10.76,0,0,0,3.93-3c1.72-2.16,1.73-2.24.33-1.88A13.17,13.17,0,0,0,331,98a8.17,8.17,0,0,1-3.53,1.87,7.7,7.7,0,0,0-3.26,1.44l-2,1.44,2.91.74a8.28,8.28,0,0,0,3.94.26,2.23,2.23,0,0,1,1.91.06,26.4,26.4,0,0,0,5.9,1c2.76.28,5.31.57,5.68.63s1.31.16,2.11.22a6.79,6.79,0,0,1,3.23,1.75c1.83,1.7,2.9,2.09,2.9,1.06Zm-106-2.88a2,2,0,0,0-.61-2.24c-.65-.49-1.15-2.35-1.4-5.27-.51-6-.92-6.9-4.22-9.52-2.67-2.12-2.75-2.13-1.63-.43.64,1,1.42,1.63,1.73,1.44,1.3-.81,2.8,3.2,3.05,8.15.37,7.15.79,9.36,1.8,9.36.49,0,1.07-.67,1.28-1.49Zm-215.36-3.7A46.2,46.2,0,0,0,33,95.71c.56-1.34,1.22-2.44,1.47-2.44.45,0,0,4.21-.8,7.26-.9,3.48.93.22,2.23-4,1.92-6.16,4-11.18,5.34-12.89a92.69,92.69,0,0,1,7.06-6.6c3.25-2.82,6-5.34,6.09-5.59.33-.81-4.92-.13-6.9.89a18.69,18.69,0,0,1-4.37,1.45c-4,.75-3.86,1.91.14,1.43,1.9-.22,3.35-.15,3.24.15s-4.07,3.59-8.79,7.3c-10.45,8.2-10.9,8.65-6.1,6.11,2.08-1.11,4-1.75,4.15-1.43S35.15,89,33.93,90.2c-3.45,3.45-8.33,12.64-8.38,15.81,0,1.09,1.38-.39,3.88-4.07Zm128.5,2.38a23.89,23.89,0,0,0,3.83-9.73c.45-2.83,1.87-5.27,3.07-5.27.31,0,.56,1.17.56,2.6,0,2.75,1,4.15,1.55,2.19.18-.64.54-2.8.79-4.79.58-4.55,1.4-6.78,2.39-6.45.51.17.71,1.86.61,5-.08,2.61.12,4.74.46,4.74.7,0,2.11-6.42,2.11-9.59,0-3.39.68-5.83,2.09-7.58l1.32-1.63-.34,3c-.32,2.93-.31,2.94.63,1.16,1.44-2.72,2.27-2.23,1.82,1.06-.68,4.94.82,4,1.72-1.09.7-4,2.54-9,3.77-10.34.15-.18.54.1.86.62a3.06,3.06,0,0,1-.37,2.75c-1.14,2.2-1.18,3.64-.18,6.51l.76,2.18,1.28-3.24c1.61-4.09,3.19-12.14,2.37-12.14s-5,2.17-11.12,6c-3.08,1.91-6.78,4-8.23,4.7s-3,1.45-3.34,1.71l-6.11,4c-3,2-5.28,3.71-5.11,3.88.74.73,3.75-.7,7.33-3.48,2.37-1.84,4.08-2.75,4.46-2.37.87.87-2.83,7.07-6.13,10.29-2.67,2.59-7,8.72-6.53,9.2.14.13,1-.76,1.9-2A7.42,7.42,0,0,1,158.32,94c1.23,0,1.2,2.27-.06,4.52-1.44,2.56-2.94,8-2.2,8a6.84,6.84,0,0,0,1.87-2.14Zm131.42-5.77c.82,0,1.3-1.49,2.74-8.48.7-3.39,1.08-6.47.85-6.84s0-.55.5-.38c1.52.5,1.41,3.33-.4,9.75-.94,3.36-1.57,6.25-1.4,6.43s.93-.11,1.68-.64,1.19-1.11,1-1.32c-.65-.65,1.64-4.35,3-4.76a2.81,2.81,0,0,0,1.61-1.3,8.19,8.19,0,0,1,2.86-2.32c2.13-1.19,6.24-6,5.15-6s-5.42,2.25-7.68,4c-1.78,1.41-2.84,1.86-3.29,1.4-1.24-1.23,1.18-4.45,6.2-8.22,5.51-4.15,12-10.3,11.51-10.84-.2-.19-1.2.06-2.23.56-1.25.61-1.8,1.33-1.67,2.2.16,1.06.08,1.12-.47.3s-1.3-.36-4.3,2.6c-2,2-3.84,3.39-4.09,3.14-.82-.82,1.11-4,4-6.51,3.07-2.71,6.55-8,6.11-9.32-.26-.76-1.27.15-7.33,6.68a12.49,12.49,0,0,1-3.15,2.75c-.69,0,0-1.42,3.27-6.78a19.17,19.17,0,0,0,2.49-5.61,47.15,47.15,0,0,1,1.52-6.32c1.32-4.42,1.32-4.51.07-3.38a6.86,6.86,0,0,0-1.67,2.39c-.67,2.12-1.75,1.39-1.34-.91.37-2,.35-2.06-.37-.5-.42.91-1.42,3.87-2.23,6.57-2,6.8-3,6.83-2.51.08.22-2.93.23-5.33,0-5.33s-1,2.09-1.82,4.64c-1,3.3-1.27,5.34-.92,7.09,1.2,6.15.41,13.34-1.46,13.34-.47,0-.86-.16-.86-.37,0-1.57-3-14.16-3.64-15.45-.83-1.6-.87-1.57-1.32,1.48-.26,1.72-.68,3.13-.93,3.13s-.83-1.46-1.29-3.24a17.45,17.45,0,0,0-1.73-4.45c-.8-1.08-.84-1-.33,1.09a49,49,0,0,0,1.58,5c1.45,3.8,1.37,4.77-.26,3.3-2.16-2-1.5-.37,1.41,3.41a16.24,16.24,0,0,1,3.31,6.66c.86,4.59-.28,8.73-2.41,8.73-.79,0-2.7-5.8-3.43-10.37a5.72,5.72,0,0,0-1.36-3c-.91-.75-1-.55-.54,1.73.26,1.42.59,4.25.72,6.28a24.43,24.43,0,0,0,.94,5.55c.84,2.22.93,7,.13,7-.32,0-.77-1.17-1-2.6a10.1,10.1,0,0,0-2.11-4.45c-2-2.15-2-2.26.62,6.57,1,3.52,1.57,6.62,1.36,7.92-1,6.37-1.08,6.32,1.72,2,1.46-2.27,2.91-4.13,3.22-4.13Zm34,6.6a1.69,1.69,0,0,0-1.32-.66,1.72,1.72,0,0,0-1.32.66c-.23.37.34.66,1.32.66S323.62,105.52,323.38,105.15Zm2.08-11c3.64-6,7-11.14,7.48-11.3s.67,0,.33.56c-.66,1.07,4.94-2.71,9.08-6.12,3.62-3,4.29-4.83.78-2.15-2.54,1.94-3.71,1.75-2.37-.39.76-1.23.72-1.27-.58-.57-2.26,1.2-2.36.14-.2-2.17q5.28-5.64,5.88-9.12l.39-2.25-2.67,3c-1.47,1.63-2.68,2.56-2.7,2.06,0-1.78-1.77.51-3.93,5.19-1.17,2.54-2.36,4.62-2.66,4.62s-.68.6-.87,1.32-.69,1.32-1.1,1.32c-.88,0-.31-3.77,1.06-7.07a11.63,11.63,0,0,0,.89-3.54c0-1.25-.14-1.32-1.1-.52-1.56,1.29-3.68,6.37-4,9.48s-2.48,10.43-3.27,10.69c-.32.11-.58-2.46-.58-5.72,0-5.81,0-5.89-1.25-4.67-1.44,1.44-1.87,5.34-.89,8.15,1.14,3.25-2.15,15-4.91,17.59-1.21,1.12-1.19,2.66,0,2.66.27,0,3.48-5,7.12-11Zm49.24,6.41c-.25-1-.95-1.22-3.3-1.22-3.59,0-4.92-1-2.84-2.08.79-.43,1.3-.92,1.12-1.1s-2.32.75-4.75,2.07a26.52,26.52,0,0,1-8.15,2.88c-2.72.37-.78.52,7.27.58,10.36.08,10.95,0,10.65-1.13Zm-45.57-3.31A4.51,4.51,0,0,0,331.39,96a19.48,19.48,0,0,1,3.26-2.28c3-1.62.1-1.37-3.11.27-1.47.75-2.86,1.18-3.08,1-.65-.65.81-2.52,2.11-2.71a5.45,5.45,0,0,0,2.27-1.13A38.48,38.48,0,0,1,338.25,88a43.15,43.15,0,0,0,5.94-3.42c1.55-1.24,1.49-1.23-1.15.06-3.1,1.51-3.49,1.6-3.49.81,0-.31,1.64-1.68,3.64-3.06s3.51-2.65,3.35-2.81c-.74-.74-3.51.91-7.12,4.22-3.95,3.64-6.25,4.34-6,1.84.12-1.27.1-1.27-.87,0a34.87,34.87,0,0,0-2.35,3.93c-.74,1.43-2.35,4.06-3.57,5.84-2.73,4-2.83,4.93-.31,3.14a7.33,7.33,0,0,1,2.84-1.37ZM42.92,95.09a60.2,60.2,0,0,0,3.92-9.4c.9-2.91,1.86-5.87,2.14-6.6.45-1.15.28-1.11-1.31.33C44.79,82,40,92.43,40,96.13a8.35,8.35,0,0,0,.3,3.08,23.25,23.25,0,0,0,2.58-4.12Zm340.17,3.46a5.74,5.74,0,0,0-5.27,0c-.71.46.05.64,2.63.64S383.8,99,383.09,98.55Zm-282-4.62c.77-1.23-.78-.66-2,.76s-1.25,1.41.19.66a5.84,5.84,0,0,0,1.85-1.42Zm129.4-.83c-.18-.45-.31.07-.3,1.16s.16,1.46.33.82a3.85,3.85,0,0,0,0-2Zm74.12,1.39c2.67-1.64,1.74-2.34-1.65-1.22-2.26.75-2.75,1.32-1.87,2.2.66.66,1,.56,3.52-1Zm33.64-.6c0-.38-.29-.51-.66-.29s-.66.54-.66.7.3.29.66.29A.68.68,0,0,0,338.23,93.89Zm-21.56-2.76A31.92,31.92,0,0,0,314,86c-1.87-2.8-1-3.31,1.92-1.14,3.51,2.6,4.07,2.76,2.57.74a41.85,41.85,0,0,0-5.36-5.17c-2.18-1.79-4-3.5-4-3.79,0-.86,2.81-.58,4.61.45s5,1.28,5.61.33c.23-.36.14-.66-.19-.66a5.75,5.75,0,0,1-2.14-1.34c-2.55-2.21-4.19-2.26-7-.2C306.41,77.93,298,84.8,298,85.11a13.9,13.9,0,0,0,3.46-1.49c6.05-3.08,10.15-3.25,7.49-.31-1.26,1.39-1.32,2.17-.27,3.23.6.6,1,.54,1.91-.24,1-.94,1.28-.84,2.85,1.22a11.64,11.64,0,0,1,1.71,2.71c0,.54,2,3.7,2.38,3.7a8.65,8.65,0,0,0-.85-2.8ZM128.12,90l2.64-1.23-3.13,0c-2.71,0-3.14.13-3.14,1.28,0,1.57.23,1.57,3.63,0Zm-72.5-6.11c.53-3,1.58-3.25,1.59-.33a7.41,7.41,0,0,0,.57,3c.79,1.24,1.38-1.27,1.39-5.9,0-5,2.49-12.47,4.11-12.47a4.1,4.1,0,0,0,2-1.09c2-1.78,1.37-.11-1.07,3-2.31,2.9-4,6.76-3.51,8.15.14.43,3.94-2.83,8.43-7.24s8-8.2,7.78-8.41c-.54-.53-11.82,3-13.11,4.08a3.9,3.9,0,0,1-2.1.9c-.59,0-2.67,1.63-4.63,3.62-2.56,2.6-3.24,3.63-2.39,3.63,2,0,2.08,1.22.32,4.38-.94,1.67-1.26,2.67-.71,2.22.82-.68,1-.6,1,.5a12.68,12.68,0,0,1-1,3.69,11.35,11.35,0,0,0-.93,3.54c.08,1.68,1.78-2.17,2.32-5.26ZM41.35,87c0-.37-.29-.22-.64.33A3.94,3.94,0,0,0,40.07,89c0,.36.29.21.64-.33A4,4,0,0,0,41.35,87ZM122,88.86a1.33,1.33,0,0,0-1.27.06c-.22.22.17.37.87.34s.92-.18.4-.4ZM52.74,83.72c.7-1.33.69-1.33-.78,0a11.52,11.52,0,0,0-2.17,2.64c-.69,1.32-.69,1.32.78,0a11.49,11.49,0,0,0,2.17-2.63ZM53.57,79c1.69-2.87.78-3.5-1.67-1.16C50.35,79.28,48,84.57,48,86.52,48,87,52.26,81.17,53.57,79ZM243.24,84.8c0-4.53,2.62-7.9,3.64-4.69.37,1.17.62,1,1.86-1.48.79-1.56,1.72-2.84,2.08-2.84s1,2.08,1.37,4.62c.62,4,.77,4.36,1.2,2.64.26-1.09.81-3.32,1.21-5,.81-3.35,5.63-13.19,6.45-13.19.3,0,.43,1.11.29,2.47s-.38,4.4-.54,6.76c-.29,4.17-.27,4.24.71,2.37.56-1.05,2.5-4,4.32-6.59,5.29-7.5,7.1-9.11,7.1-6.35,0,.79.33,1.17.86,1s2,.52,3.46,1.55c4.17,3,4.49,3.14,3.7,1.65-1.21-2.25-5.78-5.93-8.43-6.79-3.43-1.11-3.78-1.35-3-2.12.44-.43,2.15-.28,5.07.46,2.43.6,4.56,1,4.74.78.8-.8-3.22-2.44-6.93-2.83-5.06-.53-5.52-1.84-.5-1.43,4,.33,9.94,3.05,9.94,4.53,0,.57-.87,1.08-2.2,1.28l-2.2.33,1.76,1.65a32.14,32.14,0,0,1,8.35,14.78c1.46,5.56,2.45,7.13,2.63,4.18.36-5.59-.42-8.09-3.8-12.25-3.2-3.92-3.3-4.22-1.93-5.59.83-.84.81-1.36-.18-4.12-1.09-3-1.31-3.23-5.57-4.8-2.44-.89-4.44-1.88-4.44-2.19S276.36,53,279,53a18.62,18.62,0,0,0,8.74-1.76c5.56-2.42,10.38-6.12,12.85-9.85,3.57-5.38,2.34-5.79-2.81-.92-1.92,1.81-4,3.3-4.58,3.3-1.55,0-1.36-.52.85-2.38a20.85,20.85,0,0,0,3.47-4.08c1.57-2.54,3.3-8.06,2.51-8.06-.58,0-4,4.35-5.63,7.09a6.33,6.33,0,0,1-1.66,2.15c-1.22,0-.88-1.27,1.74-6.52,3-6.07,4.23-10,3-10-.37,0-1.2,1.34-1.82,3-1.3,3.4-1.95,3.33-1.8-.22.07-1.71-.18-1.16-.85,1.85-.52,2.36-1.74,6.67-2.7,9.57-2.34,7-6,11.92-5.06,6.76l.39-2.14-1.93,2.82c-2.2,3.2-9,8.57-11.43,9.08a33.45,33.45,0,0,0-3.63,1.05c-1.09.39-3.46,1.1-5.28,1.58s-4.78,1.46-6.59,2.17a27.62,27.62,0,0,1-3.63,1.27c-.73-.09-5.35,1.64-5.09,1.9a4,4,0,0,0,2.17-.43c2.64-1,7.73-.94,9.6.12,2.81,1.6,7.83,5.42,7.83,6,0,.83-.83.63-2.71-.62l-4.29-2.86c-3.57-2.37-5.09-2.62-9.27-1.54-5.58,1.46-12.26,5.78-16.91,11-2.25,2.5-4.09,4.88-4.09,5.28s1.12,1.13,2.5,1.6c2.27.79,7.72,5.72,7.72,7,0,.29.6.53,1.32.53,1,0,1.32-.44,1.32-1.88Zm-104.63.39c-1.27-2.19-7-9.07-7.61-9.07s-.38.66,1.67,3.47c.92,1.27,1.11,2,.63,2.51-.77.76-2.94-.78-8.31-5.9-1.72-1.65-3.13-2.75-3.13-2.45s-.73.06-1.62-.52c-2.52-1.65-2.62-1.29-.43,1.48,1.11,1.4,1.82,2.74,1.58,3s.23.91,1,1.47c1.17.82,1.31,1.23.7,2C122,82.47,121,82.31,115.7,80c-5.1-2.25-9.23-3.43-8.64-2.47a2.16,2.16,0,0,0,1.65.59,1.17,1.17,0,0,1,1.28,1c0,.8-.56.91-2.81.57-1.54-.24-2.6-.22-2.35,0,.64.7,11.66,2.36,19.35,2.91a39.61,39.61,0,0,1,7.46,1A22.42,22.42,0,0,0,135.58,85c1.71.47,3.19.89,3.31.93s0-.28-.28-.74Zm199.33-1.91c2.6-2.73,2.26-2.82-1.18-.31-1,.72-1.82,1.71-1.82,2.18C334.94,86.38,335.05,86.32,337.94,83.28ZM171.44,70.41c1.33-1.3,2.72-2.17,3.09-1.94a.81.81,0,0,0,1.11-.29c.3-.49.68-.49,1.26,0s1.56.17,3.5-1.23a50.62,50.62,0,0,1,5.79-3.52l3.13-1.59-2.56-1.33c-1.41-.73-3.9-2.07-5.53-3-5.68-3.14-11.87-4.51-11.87-2.61,0,.84,6.5,4,8.22,4,2,0,4.31,1.06,4.31,2,0,.35-1.61.64-3.59.64-3,0-3.92.3-5.44,1.7s-1.56,1.61-.53,1.25c3.48-1.21,5.77-1.69,6.16-1.29.75.77-4,4.24-7.69,5.61-4.92,1.85-7.38,3.19-7.38,4,0,1.63,5.56-.11,8-2.51Zm63.89-1.3c0-.74-1.24-.09-1.6.84s-.25.94.59.25a3.49,3.49,0,0,0,1-1.09Zm-150.41.43c0-.35.86-1.09,1.92-1.64a31.38,31.38,0,0,0,5-3.81l3.06-2.81-3.67.22c-2,.13-3.67,0-3.67-.4,0-1.46,7.16-7.23,10.79-8.7l3.88-1.56-2.38-1c-2.24-.9-2.55-.85-5.24.73a46.75,46.75,0,0,0-6.27,4.74c-2.75,2.47-3.29,3.28-2.79,4.22s.07,4-1.57,9.12c-.29.91-.2,1.48.23,1.48a.68.68,0,0,0,.71-.64ZM126,68.45a24.6,24.6,0,0,0,8.56-3.67c3.76-2.55,5-3.78,10.42-9.91a23.78,23.78,0,0,1,12.31-7.4,20.1,20.1,0,0,0,4-1.32c.89-.9-6.08-.27-7.71.69s-2.16,1-6.88-.26c-3.88-1-4.91-1.1-4.33-.4a3.3,3.3,0,0,0,2.17.94c1.72,0,4.62,2.33,4.06,3.24-.25.41-2.6.51-6.2.26-5-.34-6.21-.21-9,1A17.26,17.26,0,0,1,129.2,53c-.93,0-.94.09-.08.65.54.35,3.29.65,6.1.65,4.45,0,5.11.16,5.11,1.18,0,1.4-4.24,3.83-8.9,5.08l-3.3.89,3.13.06c3.11.06,4.2,1.05,2,1.81-4.47,1.54-13.85,6.16-12.5,6.16.29,0,2.67-.48,5.28-1.07Zm118.8-7c-.23-.37.77-1.9,2.21-3.41,4.87-5.1,9.52-11.18,11.25-14.72,1-1.94,2-3.52,2.25-3.52.74,0,.65,1.83-.16,3.34s-.6,1.56,4.18,0c4.27-1.43,5.79-2.47,9.07-6.2,2.13-2.42,2.16-2.54.61-2A22.66,22.66,0,0,0,270,37.13L265.75,40c-2.14,1.43-3.3,1.46-3.81.12-.27-.69.93-2.38,3.66-5.11,3.85-3.87,8-9.34,8-10.59,0-.32-.43-.22-1,.22-1.7,1.42-2.41.15-1.34-2.4,1.92-4.59-.67-1.08-4.25,5.77-4.26,8.13-5.16,8-4-.66.46-3.3.65-6.19.44-6.4s-1,1.8-1.8,4.47-1.56,5.3-1.74,5.84c-.25.78-.59.66-1.62-.6l-1.3-1.6.16,4.65c.13,3.87-.12,5.19-1.5,7.86-2.18,4.25-3.64,4.58-3.34.76a12.83,12.83,0,0,0-.38-4.41c-.47-1.25-.81,0-1.6,6-1.11,8.38-2.75,12.47-7,17.41a13.88,13.88,0,0,1-4.56,3.61,4.51,4.51,0,0,0-2.43,1.61c-.19.49,1.71-.29,4.23-1.74s4.39-2.94,4.17-3.3Zm-21,2.1a13,13,0,0,0-2.15-2c-.55,0,2.85,3.89,3.43,3.92.34,0-.23-.85-1.28-1.94ZM196.41,60a5.26,5.26,0,0,0-2.26-1.63c-.39,0,.18.76,1.27,1.65,2.54,2.08,3,2.07,1,0Zm-60-3,2.31-1.26-2.4,0a13.46,13.46,0,0,0-4.58.89c-1.81.76-2,1-.9,1.24,2.3.58,3.23.44,5.57-.84Zm68.15-13.67a15,15,0,0,0,.46-5.94l-.46-2.49-1.17,2.64A27,27,0,0,0,201.72,44c-.5,4.14-.84,4.8-2.23,4.27-.7-.27-1-2.35-1.24-8.63-.22-5.74-.61-8.62-1.25-9.4-.81-1-1-.27-1.25,5.75-.33,6.84-.33,6.89,2.14,12.24a35.74,35.74,0,0,1,2.47,6.38,7.36,7.36,0,0,0,.44,2.15c.29.74.87-.85,1.62-4.4.65-3.05,1.59-7.1,2.1-9ZM284,54.63c-.63-.63-1.89.39-1.42,1.14.28.45.65.44,1.12,0s.52-.89.3-1.11Zm-24.35-5a.51.51,0,0,1,.77-.23,4,4,0,0,0,2.41-.44c1.85-.77,1.84-.78-1.41-1.2-2.83-.37-3.45-.24-4.44.94a5.66,5.66,0,0,0-1.16,1.87c0,.67,3.54-.21,3.83-.94ZM196.4,48.08a25,25,0,0,0-4.69-7.9c-1.9-2.16-1.89-3.34,0-1.5.69.67.76.21.42-2.47-.94-7.24-4.54-21.44-5.44-21.44s.41,10.33,1.45,12.78c1.19,2.78,1,4.37-.63,4.37-.87,0-.82.42.35,2.71,2.59,5.07.1,1.92-3.93-5s-5.09-9.38-2.7-6.31c1.18,1.5,1.29,1.53,1.29.32a30.64,30.64,0,0,0-1.65-5.93A60,60,0,0,1,179,11.8a23.65,23.65,0,0,0-1.58-4.29l-1.36-3L176,7.7a16.34,16.34,0,0,0,.89,5.43c.53,1.25.71,2.42.42,2.6-.73.45-2.09-1.25-4.62-5.77-2.34-4.16-5.11-7.73-6-7.73S168,6.84,170.4,10c2.17,2.84,2.76,4.68,1.8,5.64-.25.25-2-1.07-3.88-2.93-3.45-3.4-4.81-3.52-3.59-.3a5.51,5.51,0,0,0,2.85,2.65,16.85,16.85,0,0,1,4.78,4c1.43,1.69,4.34,4.75,6.47,6.81,3.65,3.54,6.88,8.39,6.09,9.18-.37.37-.46.32-7-4.61-4.38-3.33-5.3-3.71-5.3-2.2s3.22,4.86,7,7c6.37,3.64,9.52,7.61,3.67,4.63-2.76-1.41-8-2.84-8-2.18a6.63,6.63,0,0,0,1.4,1.87c1.15,1.22,1.61,1.35,2.62.72s2-.39,5.36,1.31a52.29,52.29,0,0,0,5.5,2.46,13.82,13.82,0,0,1,3.93,3,28.91,28.91,0,0,0,2.75,2.63,4.11,4.11,0,0,0-.45-1.65Zm-90.37.3c.72-.49.45-.55-1-.22-2.43.54-3,.92-1.27.9a4.74,4.74,0,0,0,2.26-.68Zm.11-2c1-.54,1.17-.87.55-1.25-1-.61-3.64.06-6.33,1.6l-1.92,1.11,3.16-.36a16.46,16.46,0,0,0,4.54-1.1Zm61.9.08c0-.65-3.4-2.65-4.51-2.65-.34,0-.78.61-1,1.37-.27,1-.11,1.27.58,1a4.07,4.07,0,0,1,2.42.23c2,.8,2.48.81,2.48,0Zm.25-4.47a16.56,16.56,0,0,0-.93-2.8,24.78,24.78,0,0,1-1-5c-.47-4.13-1.26-6.2-2.06-5.4-.41.42.34,5.06,1.44,8.9.57,2-.65,1.9-1.58-.13-.4-.89-1.66-4.82-2.8-8.74-3-10.52-4.12-10.45-2.22.13l.47,2.64-1.58-1.3c-.87-.72-1.22-.88-.76-.36,1,1.11,1.1,3.31.18,3.31-.6,0-1.36-1.48-6.47-12.53a33.46,33.46,0,0,0-4-6.6l-2-2.31L145,14c0,2.4,1.32,5.41,3.7,8.27.86,1,1.38,2.16,1.16,2.52-.6,1-3.38-1.85-6.57-6.7a45.17,45.17,0,0,0-5.25-6.6l-2.45-2.31,1.35,2.68a14.2,14.2,0,0,0,2.42,3.58,8.47,8.47,0,0,1,1.72,2.1c1.18,2.2-.86,1.35-5.92-2.45-2.67-2-5-3.47-5.27-3.23-.51.52,3.66,4.14,5.69,4.95.81.32,1.48.92,1.48,1.33s-.47.57-1.05.35a23,23,0,0,0-2.8-.78c-1.73-.36-1.73-.34.47,1.6a11.74,11.74,0,0,0,3.7,2.34c1.89.48,8.92,5,8.92,5.77,0,1.05-3.05.57-7.22-1.12a17.56,17.56,0,0,0-4.39-1.44c-.14.13.72,1.18,1.9,2.32,1.8,1.75,2.94,2.2,7.08,2.78,4.88.7,10.54,2.85,10.54,4,0,.73-.3.73-3.46,0-5.74-1.33-.55,1.74,7.62,4.51a24.47,24.47,0,0,1,6.27,3.3c3.13,2.56,4.25,2.63,3.68.22Zm-15.48-1.1a61.27,61.27,0,0,0-6.88-1.42c-7.68-1.33-9-2.25-14.27-10-1.78-2.63-3.53-4.79-3.88-4.79s-.64.12-.64.25a17.06,17.06,0,0,0,2.62,5.36,1.22,1.22,0,0,1-.54,2.31c-1.6,0-2.77-1.38-5.66-6.67a30,30,0,0,0-3.74-5.59c-1.37-1.24-1.37-1.23-.53.73a15.54,15.54,0,0,0,1.71,3,4,4,0,0,1,.86,2.14c0,2.07-1.84,1.11-3.88-2s-6.4-8.08-7.1-8.08c-.19,0,.72,1.45,2,3.22,2.2,3,3,5.35,1.86,5.35A20.46,20.46,0,0,1,111.13,23c-1.72-.92-3.13-1.5-3.13-1.3s-1-.11-2.14-.68l-2.14-1,1.81,1.54c2.2,1.86,2.28,2.47.33,2.5-1.38,0-1.4.08-.32.9a10.81,10.81,0,0,0,3.89,1.32,12.58,12.58,0,0,1,4.44,1.66,27,27,0,0,0,4.25,2.28c3.92,1.63,2.82,2.76-2.43,2.5-2.69-.14-4.39,0-4.39.45,0,1,1.76,1.37,9.1,1.73,6.82.33,9.78,1.14,9,2.43-.29.48.43.56,2.26.25,3.57-.61,5.61.06,5.19,1.68-.31,1.17.1,1.25,6.24,1.18,3.61,0,6.74.12,7,.34a3.12,3.12,0,0,0,1.72.41c.73,0,1.2-.13,1.05-.28Zm-18.2-1.7a5.81,5.81,0,0,0-3.29,0c-1.62.49-1.43.57,1.42.58,2.52,0,3-.12,1.87-.56Zm42.66-3.56c0-.14-.46-.44-1-.65s-.85-.12-.62.26c.39.62,1.64.92,1.64.39Zm57.8-4.84c-.22-.22-.38.17-.35.87s.19.92.4.39a1.32,1.32,0,0,0-.05-1.26Zm-176.93,241c-.19-.49.41-3.07,1.34-5.72a36,36,0,0,0,1.68-5.93,13.77,13.77,0,0,1,1.59-4.09l1.58-3-2.68.6a9.48,9.48,0,0,1-3.57.27c-1.52-.59-1-2.29,1.1-3.35a12.11,12.11,0,0,0,3.63-3.51c2.12-3.21,7.75-7.52,9.13-7a3.28,3.28,0,0,0,2.55-.71c1.51-1.11,1.51-1.12-.8-.72-3.34.57-9.62.64-10.47.12-.5-.32-.41-.93.31-2,1-1.54,2.41-2.13,11.15-4.67,5-1.46,5.61-2,2.76-2.53-4.94-.92-4.53-4.1.62-4.8,2.52-.35,3.29-1.25,5.44-6.36.14-.32-.35-.26-1.07.13-1.27.68-2.14.41-2.14-.66,0-.89,4.17-5.34,6.27-6.69,1.84-1.18,1.87-1.25.33-.88-.91.21-3.58.58-5.94.8-3.7.36-4.51.23-5.94-.93C73,208.5,73.43,208,78.16,207c3.67-.78,3.72-.82,1.64-1.28-1.18-.26-2.15-.7-2.15-1,0-.69,1.75-1.31,3.69-1.31,1,0,1.59-.38,1.59-1a2.46,2.46,0,0,1,1.39-1.7c1.34-.72,1.3-.8-1-2.36-4.6-3.12-2.9-3.51,8.23-1.88a81.36,81.36,0,0,1,10,2c2.3.74,3.44.82,4.41.3,1.9-1,2.92-.86,2.46.35-.59,1.54.2,2.46,1.31,1.54,1.75-1.45,1,1-.78,2.74s-3.58,4.66-3.55,6,6.38-5.95,8.36-9.53c1.63-3,2.84-4,2.84-2.44,0,1.28-4.39,7.52-9.18,13.06-2.62,3-4.57,5.7-4.34,5.94s1.16-.47,2-1.55l2.3-2.82c1.34-1.66,1.83-.07.61,2s-4.14,12.4-3.64,12.9,3.48-6.43,3.94-8.63c.54-2.6,1.55-2.24,1.82.66l.23,2.47.85-2a44.1,44.1,0,0,0,1.69-5.24c1.23-4.79,2.13-4.42,1.87.78l-.22,4.46,1.06-2.31c2.86-6.29,5.38-19.13,3.75-19.13-.34,0-1.13,1.32-1.75,2.94-1.61,4.23-6.56,13.15-6.83,12.32-.21-.61,1.84-5.5,6.65-15.9a11.69,11.69,0,0,1,2.18-3.48,14,14,0,0,0,2.47-3.35c1.77-3,3.53-4.83,4.12-4.23.2.19-1,2.33-2.65,4.75-3,4.43-3.2,5-2.44,8.56l.41,1.93,1.72-2.59c3.69-5.59,6-11.72,5.4-14.14-.42-1.63.82-1.74,1.75-.16.59,1,.66.94.53-.43-.09-.86.17-1.69.57-1.83.93-.34,1.72,8.58,1.17,13.29a14.7,14.7,0,0,0,.78,7c1.18,3.53,1.56,9.24.75,11.35s-2.77,1.26-3.94-1.7l-1.1-2.8.28,2.31c.78,6.35.95,13,.37,13.85s-.91.83-1.87.24-1.3-.45-2,2.08a13.85,13.85,0,0,1-2.42,4.72c-1.39,1.58-1.76,1.71-2.31.88a11.12,11.12,0,0,1-.7-4.29l0-3.3L119.14,228c-3.06,4.09-3.24,1.42-.42-6.11,1.57-4.19,1.58-4.31.37-5.46s-1.27-1.1-2.21,1.13a13.52,13.52,0,0,0-1,3c0,1.07-1.85.8-2.5-.37-.49-.86-.74-.69-1.42,1a3.49,3.49,0,0,1-2.2,2.2c-.84.13-2,1.33-2.92,3.13-1.77,3.37-3.47,5.42-4.14,5-.85-.52-.67-5.43.31-8.67,1.25-4.12,1.29-3.93-.82-3.9-1.45,0-1.77-.24-1.59-1.28s-.71-.43-3.25,2c-2.93,2.74-3.57,3.09-4.12,2.22s-.92-.85-3,.52a8.85,8.85,0,0,1-3.45,1.56,14.67,14.67,0,0,0-4,1.31,14.81,14.81,0,0,1-4.4,1.32c-.84,0-1.34.31-1.12.67s2.18.66,4.33.66c2.89,0,3.92.24,3.92.91,0,1.12-4.17,2.94-13,5.68-3.73,1.15-6.61,2.36-6.41,2.68s1,.33,1.84,0a26,26,0,0,1,5.42-.8c3.81-.22,3.93-.18,3.93,1.4,0,1.21-.67,2-2.61,3.09a50.92,50.92,0,0,0-6.6,5,43.86,43.86,0,0,1-5.79,4.43c-1,.51-1.82,1.2-1.82,1.53,0,.75,2.13.09,6-1.86,3.52-1.77,4.39-1.47,2.54.89a5.89,5.89,0,0,0-1.3,2.61,6.1,6.1,0,0,1-1.33,2.65c-1.36,1.73-3.67,8.58-3.09,9.16.38.39,6-6.84,6.59-8.5.24-.63.73-1.15,1.11-1.15.87,0,.89-.17-.56,4.06a44.93,44.93,0,0,0-1.72,7.19c-.88,6.71,1.37,2.33,4.95-9.6,1.85-6.17,4-12.55,4.71-14.19l2.43-5.27c1.32-2.84,12.78-14.52,14.23-14.52s.24,1.85-3,4.29c-4.17,3.12-11.34,11-10.49,11.51.53.33.27,2.65-.92,8.16-2,9.4-2.2,18.27-.33,18.27,1.22,0,4.1-12.1,6.6-27.71.73-4.51,1.92-6.14,4.26-5.8,1.25.18,1.32.61,1.13,7.07a53.49,53.49,0,0,1-1.48,11.53c-1.34,4.83-1.62,7.76-.83,8.55.53.54,2.15-4.45,2.17-6.67,0-.88.41-1.49,1-1.49.77,0,1,.92,1,4.13a26.9,26.9,0,0,0,1.27,7.42l1.21,3.3,0-4a34.43,34.43,0,0,0-.93-7.59c-1.71-6.34-1-7.21,1.63-1.92,4,8.1,4.4,4.41,1-8.83A74.1,74.1,0,0,1,96.13,231c0-3.37,1.52-9.34,2.71-10.65s1.28.5-.07,4.57a28.29,28.29,0,0,0-1.46,6.47,108.92,108.92,0,0,0,2.44,12.34c3,12.78,3.59,17.15,2.1,17.15-.58,0-1.76-1-2.62-2.3l-1.56-2.3.3,3.59c.34,4.14-.28,8.27-1.25,8.27s-2.38-3.67-3.35-8.08l-.77-3.47L92,259.06c-1.33,5.38-4.19,1.06-3.41-5.15.23-1.81.53-5.38.66-7.91s.43-6.21.66-8.16c.32-2.79.23-3.48-.47-3.25-.48.16-1,1.16-1.07,2.22-.9,9.36-6.6,31.95-8.06,31.95-1,0-2-3.22-2.4-7.48a47.56,47.56,0,0,1,1.48-14.78c.32-1,.29-1.05-.34-.09s-7.31,20.88-7.31,21.91-2.69,4.39-3.42,4.39c-.43,0-.59-1.91-.44-5.24.13-2.89.07-5-.13-4.79-8.25,10.4-8.88,11-9.59,9.13Zm3-4.71c0-.36-.29-.21-.64.33a4,4,0,0,0-.64,1.65c0,.36.29.22.64-.33A4,4,0,0,0,61.14,267.1Zm62.65-36.78a17.39,17.39,0,0,0,1.32-5.72c.41-4.63,1.76-6.16,2.44-2.75.22,1.11.7,1.84,1.06,1.62.66-.41.46-3-.91-11.78-.52-3.37-.52-5.12,0-6.47,1-2.49,1.66-1.88,2.95,2.66,1.45,5.08,2.34,6.44,2.49,3.81.19-3.34-.09-5.12-1.51-9.46a15.88,15.88,0,0,1-1-6.93c.37-2.66.34-2.64-.91.88-2,5.5-2,5.49-2.26,5.19s.29-2.5,1-5.21q2.31-8.92.17-3.6a66.19,66.19,0,0,1-4.21,7.58c-3.09,4.87-4.84,8.51-4.33,9,.14.14.75-.49,1.35-1.41,2.52-3.85,5.5-.74,3.13,3.27-2,3.4-2.86,6.94-1.68,6.94s1.24,2.4.34,4.78-1.62,9.07-1,9.07c.32,0,1-.67,1.51-1.49Zm-32.61-10.8,2.64-2.34L90.52,219c-4.19,2.31-4.89,2.93-3.27,2.9.71,0,2.48-1.08,3.93-2.37ZM89,218.2a40.09,40.09,0,0,0,6.74-5.36,43.12,43.12,0,0,1,4.66-4.12c.76,0,.29,1.88-.84,3.37-.66.87-1.9,2.76-2.75,4.22l-1.55,2.63L98,216.35c1.5-1.43,2.93-2.4,3.17-2.16.55.55,2-2.07,2.54-4.75a15.4,15.4,0,0,1,2-4.33,7.3,7.3,0,0,0,1.31-2.33c-.15,0-2.74,1.49-5.75,3.3s-5.93,3.28-6.47,3.26-.44-.41.62-1.15c7.29-5.05,10-7.39,8.66-7.39a7.37,7.37,0,0,1-2.89-.77c-1.4-.74-13.4-3.15-15.83-3.18-.66,0-1,.28-.8.64.54.87,8.61,3.31,11,3.31,1.24,0,1.91.34,1.91,1,0,1.2-1.34,1.54-8.91,2.25-4.08.39-5.47.72-4.45,1.05,2.52.84,1.7,2.14-1.65,2.62-4.89.71-6.13,1.11-5.68,1.83.54.87,6.26.2,12.16-1.44,3.91-1.08,4.57-1.12,4.57-.29,0,.54-.92,1.49-2,2.1-3.14,1.73-7.85,5.4-7.85,6.12,0,.35,1.18,0,2.61-.69,3.9-2,4.53-1.62,1.94,1.14-1.27,1.36-2.73,3.07-3.25,3.79-.9,1.27-.89,1.28.36.25A26.2,26.2,0,0,1,89,218.2Zm32.84.74c0-.36-.28-.21-.64.33a4,4,0,0,0-.63,1.65c0,.37.28.22.63-.33A3.8,3.8,0,0,0,121.83,218.94Zm231.58,36.29c0-.91-.29-1.65-.66-1.65a.67.67,0,0,0-.66.66c0,1.49-2.09.52-2.71-1.27a4.27,4.27,0,0,0-1.5-2.24c-.55-.21-.75-1.4-.61-3.52l.21-3.2-1.31,1.65c-1.12,1.4-1.42,1.5-2,.66-.93-1.41-.77-7.82.26-10.55,1.87-5,1.88-5,.15-3L343,234.69l-.46-1.83a17.56,17.56,0,0,1-.08-5.06c.23-1.89.12-3.25-.24-3.25-.88,0-.79-5.06.12-6.76,1-1.86,1.9-7.92,2.44-16.33.37-5.86.26-7.27-.71-9.19-1.23-2.45-.92-3.74.45-1.86.46.64,1.07,1.16,1.36,1.16,1.15,0,5.9,8.06,5.17,8.79-.2.2-.06,1.8.33,3.54a85.12,85.12,0,0,1,1.06,10.1c.36,6.64.29,7.13-1.68,12-1.14,2.81-2.3,5.11-2.59,5.11-.78,0-2.59,5.76-3.06,9.72-.67,5.75.7,4.13,3.76-4.44,2.12-5.92,3.94-7.09,3.93-2.52a31.91,31.91,0,0,1-1,6.48,33.18,33.18,0,0,0-.92,7.58l.06,4,.77-2.92c1.11-4.13,2.37-4.27,2.47-.27,0,1.76.22,2.6.39,1.87a5.16,5.16,0,0,1,.92-1.94c.84-.89.76-11.58-.09-11.58-.55,0-.52-2.52.05-4a5.29,5.29,0,0,0,0-1.49c-.2-1.89,1.76-1.3,2.17.66.2,1,.64,3.15,1,4.79.77,3.78,1.41,5.27,2.26,5.27,1.1,0-.73-10.67-3.14-18.3-.74-2.33.85-1.79,1.94.66a20.55,20.55,0,0,0,2.3,3.79c1.79,2.19,1.83.48.06-2.81a11,11,0,0,1-1.32-4,12.63,12.63,0,0,0-2-4.65c-1.9-3-2.41-4.39-1.59-4.39s8.19,6.15,8.19,6.8c0,.37.19.48.43.25.68-.69-2.49-5-8.37-11.3-3.38-3.63-5.16-6-4.64-6.18,2-.67,17.32,18.53,16.21,20.32-.51.82-2.82-.43-5.65-3a7.31,7.31,0,0,0-2.12-1.56c-.25,0,.44,2.39,1.52,5.32,2.95,8,2.55,11.8-.81,7.74l-1.81-2.18.7,2.31a37.65,37.65,0,0,1,1.87,10.77c0,2.66-.16,3.14-1.1,3a5.93,5.93,0,0,1-2.55-2.32l-1.42-2.11-.35,4.09c-.61,7.16-3.79,16.13-3.79,10.69Zm-2.63-16.77a8.66,8.66,0,0,1,.43-2.47c.24-.67.23-1,0-.81-.81.73-1.68,4.55-1,4.55.34,0,.62-.57.62-1.27Zm-4.61-10.63a12.65,12.65,0,0,0,1.31-3.42,22.87,22.87,0,0,1,1.93-4.72c1.69-3.39,1.89-4.4,1.64-8.24-.32-4.82-1.43-10.43-2.37-12-.41-.67-.52-.14-.34,1.65.24,2.46-.59,5.82-3.11,12.54-1.47,3.91-1.22,5,.51,2.13a23.26,23.26,0,0,1,2.05-3c.9-.85-.33,4.61-2,8.79-3.1,7.85-2.83,12.46.36,6.2ZM47.06,203.06a35.79,35.79,0,0,1-.43-6.43l0-5.39-2,2.47A9.1,9.1,0,0,1,42,196.19c-1.18,0-1.41-5.79-.38-9.81,1.14-4.43,2.56-7,4.86-8.88a10.3,10.3,0,0,0,2.24-2.64l.74-1.43L47.9,174.8A15.15,15.15,0,0,1,44.2,177a9,9,0,0,0-2.88,1.75c-1.57,1.89-2.11.95-1.74-3.06s1.73-7,3.65-7.71,8-6.24,8-7.3c0-.82-.29-.75-1.48.36-1.81,1.68-5.11,2.65-5.11,1.49A6.81,6.81,0,0,1,45.89,160c2.13-3.08,2.1-3.24-.41-2-3.84,1.83-5.42,2.16-5.42,1.14,0-.77,7-9.79,7.92-10.25,1.41-.69,12.93-7.7,13.19-8,.85-1.07,5.88-4.67,6.53-4.67,3.23,0-6.53,7.21-16.81,12.41-2.92,1.47-9,8.7-7.28,8.7.53,0,2.69-1.48,4.81-3.29a26.61,26.61,0,0,1,4.34-3.3c.68,0,.62,1.16-.08,1.59-1,.64-5.39,8.42-4.56,8.14.45-.15,3.05-2.88,5.78-6.06,5.37-6.26,7-7.53,8.09-6.41.49.49,1.57-.72,3.62-4.06,5.86-9.55,8.42-13.14,8.63-12.08a4,4,0,0,1-.79,2.47,2.6,2.6,0,0,0-.48,2.49,36.63,36.63,0,0,1,1.34,5.78c.45,2.61,1.18,4.88,1.63,5.05s1.2,1.6,1.67,3.18a35.28,35.28,0,0,0,2.27,5.51l1.41,2.64.2-3.51a11.72,11.72,0,0,0-1.15-6.31A15,15,0,0,1,79,145.51c0-1.26,1.86-.9,2.28.45.37,1.16,3,4,3,3.24s-2.16-5.41-3.92-8.28c-3-4.87-3.59-8-2.43-12.58A58.83,58.83,0,0,1,81,120c3.46-7.38,9.17-15.49,9.17-13a37.56,37.56,0,0,1-3,4.91,107,107,0,0,0-5.43,9.27c-2.2,4.35-2.44,5.33-2.45,10.09,0,5,.15,5.59,2.75,10.35,3.21,5.89,4.59,10.26,3.57,11.28-.46.47-1,.42-1.69-.16-.9-.75-1-.27-1,4.18,0,3-.27,5-.68,5s-1.48-1.33-2.47-3a12.48,12.48,0,0,0-2.14-3c-.2,0-.43.79-.5,1.75-.2,2.36-1.39,3.75-2.46,2.87-.53-.44-.92-3.55-1.12-9.08-.19-5.33-.63-9-1.2-10-.9-1.64-.91-1.63-1.47,1.32-.6,3.17-.48,5.33,1.11,18.8.55,4.72,1,9.25,1,10.08,0,2.78-1.86,2.47-5-.82-2.51-2.62-3.13-3.81-3.92-7.51-.51-2.41-.94-4.68-1-5.05s-.31-.19-.64.39c-1.07,1.83-1.52,9.46-.77,13a88.44,88.44,0,0,1,1.17,9.68c.42,5.92.37,6.31-.81,6.26-2.63-.1-5.05-2.23-6-5.24a12.85,12.85,0,0,1-.65-4.44c.14-.82,0-1.49-.24-1.49-.86,0-1.42,7.06-1,12.36.49,5.77-.32,8.52-3.77,12.88-2.15,2.72-2.82,3-3.42,1.43ZM52,196.51c.87-2,1.19-4.54,1.25-10.21.09-8.26,1.42-16.2,3-17.77.89-.89,1-.55,1,3.17,0,4.92,1.61,11.09,3.37,12.92,1.23,1.29,1.25,1.27,1.25-1.65a77.48,77.48,0,0,0-.93-8.88,58.61,58.61,0,0,1-.7-10c.38-6.43,4-13.22,6.26-11.81.3.19.38,2.52.18,5.18a18.93,18.93,0,0,0,.73,8.13c1.14,3.45,3.76,6.94,4.2,5.61a79.34,79.34,0,0,0-.94-9.84,142.15,142.15,0,0,1-1.18-15.19l0-6.11-2.21,3.47c-1.21,1.91-3.12,5.18-4.25,7.28s-2.37,3.71-2.77,3.57-1.66,1.14-2.8,2.83a43.27,43.27,0,0,1-6.25,6.66c-2.29,2-4.84,4.32-5.66,5.23-1.59,1.78-4.27,6.69-3.86,7.1.64.65,5-2.29,7.9-5.35,2.09-2.19,3.35-3.09,3.54-2.52.3.9-2.26,6.11-4.74,9.67a22.09,22.09,0,0,0-4.08,8.66,13.31,13.31,0,0,1-1.4,4c-.57.89-.68,1.58-.27,1.83.91.56,3.94-3.6,4.44-6.11.29-1.45.8-2.09,1.66-2.09,1.46,0,1.54,1,.25,3.3-.63,1.1-1,3.72-1,7.85l0,6.21,1.41-1.26A13.53,13.53,0,0,0,52,196.52Zm23.78-45.66c-.52-.89-.67,0-.63,3.44l.06,4.62.63-3.44c.42-2.3.4-3.83-.06-4.62Zm171.47,34.8a25.57,25.57,0,0,1-.85-7.5c0-3-.07-5.09-.18-4.72s-.68,2.36-1.26,4.45c-1.59,5.71-2.62,4.9-2.12-1.65.23-3,.57-6.63.77-8.08l.36-2.64-.89,2.64c-1.71,5-3.51,7.58-5.37,7.58a12.91,12.91,0,0,1-.54-3.1c-.27-2.39.1-4.4,1.62-8.74a56.79,56.79,0,0,1,2.85-7,17.24,17.24,0,0,0,1.51-4.78c.58-3.2.49-3.58-1.57-6.85a35.21,35.21,0,0,0-3.61-4.88c-2.57-2.54-.38-5.32,7.1-9.07,4-2,4.16-2,4.13-.9,0,.45-1,1.31-2.15,1.9s-3.37,1.73-4.9,2.53l-2.79,1.46,2.06,1.73c2.27,1.91,5.82,6.54,5.82,7.6,0,.37-1.05-.5-2.33-1.92l-2.32-2.58,1.33,2.3c1.36,2.37,3.74,11.69,3.13,12.29-.19.19-.54-.86-.79-2.34-.61-3.62-1.4-3.89-1.92-.64a37,37,0,0,1-2.66,7.41,57.59,57.59,0,0,0-3,7.62c-.82,3.06-.39,6.65.67,5.6s3.27-8.19,3.27-10.24.73-2.4,2-.87c.59.71.72,2.48.46,6.1-.29,3.84-.22,4.65.29,3.28,1.61-4.39,3.66,0,2.56,5.44a13,13,0,0,0-.14,5.61l.6,2,.4-1.65a39.93,39.93,0,0,0,.63-4.91c.28-4,1.76-5,1.83-1.25a11.5,11.5,0,0,0,.67,3.85c1.27,2.7,0-8-1.33-11.41-1.62-4.12-1.72-5.41-.39-5.41.8,0,.69-.8-.62-4.45a38.39,38.39,0,0,1-1.8-6.71c-.26-2.79,1.24-3.58,1.76-.93s1.33,5.94,2.38,9.65c.75,2.67.75,3.26,0,3.72s-.7,1.1.22,3.76a45,45,0,0,1,1.51,9.31c.33,5.3.24,6.1-.67,6.1a1.87,1.87,0,0,1-1.45-.66c-.66-1.07-1.65-.75-1.65.53a4.81,4.81,0,0,1-.88,2.4c-.81,1.11-.93,1-1.75-.93ZM1.8,173.88a8,8,0,0,1,1.65-4.74,25.86,25.86,0,0,0,1.65-2.38,7.25,7.25,0,0,0-2,.59c-2.59,1-3,.39-1.58-2.28a7.58,7.58,0,0,0,1-2.72c-.24-.86,1.14-3,5.48-8.75l4.11-5.39L6.9,147c-6.41-1.51-7.74-2.29-6.48-3.81,1.66-2,7.76-5,10.15-5,1.28,0,2.43.27,2.55.6s2.46,1,5.19,1.42c4.17.69,5.28.68,6.88-.1,3.15-1.54,2.74-2.38-1.43-2.88s-8.78-1.63-9.66-2.39c-1.18-1,3.2-2.92,7.46-3.25l4.32-.34-2.78-1.48c-3.08-1.64-4.35-3.37-3.5-4.76.46-.74,1.51-.53,5.69,1.12,4.73,1.88,5.24,2,6.65,1,.84-.55,1.53-1.28,1.53-1.62s1.52-2.24,3.39-4.21C40,117.91,42,116.78,42,118.36c0,.38.89.21,2-.38,3.2-1.66,3-.64-.35,1.65-4.93,3.39-6.36,7.82-7.28,22.46-.5,8-1.08,10.58-2.53,11.48-1,.59-1.4.42-2.38-.87l-1.22-1.6-.48,2.26c-.69,3.25-3,8.52-3.77,8.52-.36,0-.8-.61-1-1.35-.32-1.24-.45-1.19-1.58.66-1.51,2.49-2.27,2.54-3.07.2-.58-1.7-.67-1.57-1.48,2.14-1.43,6.53-4.81,12.31-6.56,11.23-.38-.23-.7-2.11-.72-4.18l0-3.75-1.78,2.31c-2.07,2.68-6.83,7.25-7.56,7.25-.27,0-.49-1.13-.49-2.51Zm5.9-4.36c3.35-4.54,8.13-14.73,7.07-15.09-.42-.14.42-.87,1.87-1.63,3.39-1.75,6.67-4.84,10-9.39,3.45-4.73,4.12-6,2-3.86-2.38,2.46-5.86,3.53-7.83,2.43-2.51-1.4-12.27-1-15.35.67L2.9,144l1.67.63A32.2,32.2,0,0,0,17,146.25c3.06-.36,3.37-.28,3.16.82-.13.67-1.57,2.2-3.2,3.39-5.57,4.07-9.81,8.17-11.82,11.44-2.15,3.49-1.69,4.31.94,1.68,1.89-1.88,4.37-3.68,5.09-3.68,1,0,.48,1.8-.9,3-1.77,1.56-7.16,8.78-7.16,9.58,0,1.64,2.23.18,4.58-3Zm8.05.1A64.16,64.16,0,0,0,18,161.79a56.48,56.48,0,0,1,2.59-8.49l1-1.94-2.32,1.37C18,153.48,17,154.6,17,155.22a39.93,39.93,0,0,1-2,6.55c-2.21,6.07-2.73,11.45-1,10a8.8,8.8,0,0,0,1.71-2.13Zm9.76-18.08c0-2,.71-3.51,1.5-3.51.41,0,.49.95.2,2.47-.78,4.16-1,8.32-.36,7.69a21.07,21.07,0,0,0,1.66-4.89c2.22-8.76,4.4-15.17,5.16-15.17.43,0,1.4-2.23,2.16-4.95s1.19-5,1-5c-.58,0-4.64,7.2-4.64,8.23,0,.46-1.55,3.18-3.43,6-3.08,4.66-4.59,8.46-6.12,15.42-.2.91.36.17,1.25-1.65a16.83,16.83,0,0,0,1.66-4.73Zm9.24-5.18c.86-6,.86-6.25-.16-6.25-1.57,0-3.34,10.1-2,11.45.87.87,1.49-.64,2.15-5.2Zm-2.27-13.67c1-1.91,2.47-4.36,3.22-5.44l1.37-2-2.61,2.14a11.35,11.35,0,0,1-3.34,2.15,30.64,30.64,0,0,1-4.78-1.65c-6.86-2.79-7.3-1.77-.75,1.72,2.18,1.16,3.85,2.43,3.72,2.83s-2.42.72-5.9.72c-5.19,0-7.21.44-6.31,1.34a38.46,38.46,0,0,0,6.54.9c3.41.3,6.37.59,6.59.64s1.22-1.47,2.25-3.37ZM72,57c-4.42-.21-8.27-.61-8.56-.9s-.16-1.09.27-1.78c1-1.56.8-1.66-4.84-3a22.16,22.16,0,0,1-5.89-2.05c-1.31-1-1.31-1,0-1.95C54.35,46.3,55.81,46.19,58,47a34.79,34.79,0,0,0,3.5,1l2,.46-2-1.26C58,45,55.66,42.45,56.43,41.68c1.39-1.4,6.94.62,14.64,5.32l1.65,1L71,46.06c-2.64-3-4.16-5.56-3.26-5.56,2.14,0,8.52,3.88,12,7.33C82,50,84,51.71,84.33,51.71a.63.63,0,0,1,.59.66c0,1.49-1.71.41-6.69-4.22-2.89-2.68-6-5-6.87-5.19-1.45-.27-1.31,0,1.35,2.87,5,5.29,3.4,6.24-3,1.87-4.23-2.87-7.78-4.57-9.56-4.57-2,0,.31,1.92,5.14,4.36,2.47,1.24,4.49,2.67,4.49,3.18a6.77,6.77,0,0,0,.4,2c.3.78,0,1-1.27,1a9.4,9.4,0,0,0-2.71.4c-2.59,1-.45,1.55,6.66,1.72,5.43.13,7.78.43,8,1s0,.77-.28.7S76.36,57.23,72,57ZM64.11,50.5c-.9-.79-6.3-2.25-6.72-1.82s.61.87,7,2.3c.16,0,0-.18-.33-.48ZM309.27,32.3c0-.69.13-1.08.35-.86a1.35,1.35,0,0,1,.05,1.26c-.21.53-.37.37-.4-.4Zm.73-8.63c0-1.09.13-1.61.31-1.16a3.72,3.72,0,0,1,0,2c-.16.65-.31.28-.33-.81Zm-.11-14a3.85,3.85,0,0,1,.65-1.48c.51-.8.64-.71.65.49,0,.82-.29,1.49-.65,1.49S309.88,9.93,309.89,9.65Z" transform="translate(0.01 0)"/></svg>