<svg xmlns="http://www.w3.org/2000/svg" viewBox="0 0 297.61 322.06"><defs><style>.cls-1{fill:#7a7a7a;}.cls-2{fill:#404041;}.cls-3,.cls-5,.cls-6,.cls-7{fill:none;stroke-miterlimit:10;}.cls-3,.cls-6,.cls-7{stroke:#8f9194;}.cls-3{stroke-width:6.23px;}.cls-4{fill:#8f9194;}.cls-5{stroke:#523434;}.cls-5,.cls-6{stroke-width:5.53px;}.cls-7{stroke-width:5.55px;}</style></defs><g id="Layer_2" data-name="Layer 2"><path class="cls-1" d="M183.41,206.37h4.06a4.81,4.81,0,0,0,0-9.62h-4.06a4.81,4.81,0,0,0,0,9.62Z" transform="translate(-138.2 -72.27)"/><path class="cls-1" d="M267.73,381.33a116.24,116.24,0,0,0,113.68-92.68h22.72A22.87,22.87,0,0,0,427,265.81V233.62a22.87,22.87,0,0,0-22.85-22.84H383.77v-9.22a4.81,4.81,0,0,0-4.81-4.81H200a4.81,4.81,0,0,0,0,9.62h174.2v58.92a106.42,106.42,0,1,1-212.83,0V206.37h9a4.81,4.81,0,0,0,0-9.62H156.51a4.81,4.81,0,0,0-4.81,4.81v63.73A116.17,116.17,0,0,0,267.73,381.33ZM404.13,220.4a13.24,13.24,0,0,1,13.23,13.22v32.19A13.24,13.24,0,0,1,404.13,279H383a117.49,117.49,0,0,0,.81-13.74V220.4Z" transform="translate(-138.2 -72.27)"/><path class="cls-1" d="M227.94,352.14a3.61,3.61,0,0,0,4.83-1.65,3.62,3.62,0,0,0-1.65-4.83,84.41,84.41,0,0,1-13.74-8.46A3.61,3.61,0,1,0,213,343,91.81,91.81,0,0,0,227.94,352.14Z" transform="translate(-138.2 -72.27)"/><path class="cls-1" d="M206.59,336.25a3.61,3.61,0,0,0,2.53-6.18A83.11,83.11,0,0,1,184,270.39V249.72a3.61,3.61,0,0,0-7.22,0v20.67a90.26,90.26,0,0,0,27.31,64.83A3.57,3.57,0,0,0,206.59,336.25Z" transform="translate(-138.2 -72.27)"/><path class="cls-1" d="M431,384.71H399.41a4.81,4.81,0,1,0,0,9.62H431a4.81,4.81,0,0,0,0-9.62Z" transform="translate(-138.2 -72.27)"/><path class="cls-1" d="M384.78,384.71h-2a4.81,4.81,0,0,0,0,9.62h2a4.81,4.81,0,0,0,0-9.62Z" transform="translate(-138.2 -72.27)"/><path class="cls-1" d="M367.94,384.71H143a4.81,4.81,0,0,0,0,9.62H367.94a4.81,4.81,0,1,0,0-9.62Z" transform="translate(-138.2 -72.27)"/><path class="cls-2" d="M210.71,184.33" transform="translate(-138.2 -72.27)"/><path class="cls-3" d="M273.22,171.52c-.58.27-1.36,2-2,2.26-18.64,7.7-31.37-1.59-33-2.72-29.09-20.48-39.54-79.78-20-92.82,14.59-9.74,45.28,6.71,62.37,30.4" transform="translate(-138.2 -72.27)"/><path class="cls-3" d="M292.43,136.16" transform="translate(-138.2 -72.27)"/><path class="cls-4" d="M230.75,99.51c6.67,8.95,13.8,18.89,20.19,28.09,1.64,2.37,3.38,4.67,5.08,7a82.83,82.83,0,0,1,8.5,15.05,62.23,62.23,0,0,1,3.08,8.27l-.5.31A82,82,0,0,1,251,137.74c-2.32-4.44-5.87-10.7-8.39-15.11-4.07-7.33-8.52-15.43-12.4-22.8l.5-.32Z" transform="translate(-138.2 -72.27)"/><path class="cls-5" d="M303,133.26" transform="translate(-138.2 -72.27)"/><path class="cls-5" d="M304.69,115.56" transform="translate(-138.2 -72.27)"/><ellipse class="cls-6" cx="304.69" cy="130.45" rx="52.83" ry="32.21" transform="matrix(0.59, -0.81, 0.81, 0.59, -118.08, 228.11)"/><path class="cls-7" d="M332.15,89.77" transform="translate(-138.2 -72.27)"/><path class="cls-7" d="M318.14,117" transform="translate(-138.2 -72.27)"/><path class="cls-7" d="M299.61,133.51" transform="translate(-138.2 -72.27)"/><path class="cls-7" d="M292.43,142.5" transform="translate(-138.2 -72.27)"/><path class="cls-4" d="M327.24,86.47c2.52,13.27-5.59,26.15-14.64,35.12a72.15,72.15,0,0,1-10,8.61c-3.52,2.44-6.74,4-9.25,7.39a20.67,20.67,0,0,0-4.8,10.26c-.55,4.15-1.48,8.88-3.45,12.71a51.3,51.3,0,0,1-7.34,10.75l-.05.05-.78.45-.15-.2h0l.08,0,.1-.05.19-.11.39-.22-.31.32-.16.16-.08.08,0,0,0,0h0l-.15-.2.64-.62c2.59-5.33,5.57-11.31,6.22-17.44.5-4.81.22-10.24,2.75-14.77.48-.86,1.2-2.19,1.76-3a24.3,24.3,0,0,1,5.94-6.54c1.93-1.4,3.68-2.44,5.35-3.61a88.27,88.27,0,0,0,9.53-7.8c9.1-8.26,17.39-18.7,18.27-31.38Z" transform="translate(-138.2 -72.27)"/></g></svg>