<svg id="Layer_1" data-name="Layer 1" xmlns="http://www.w3.org/2000/svg" viewBox="0 0 319.5 513.17"><defs><style>.cls-1{fill:#e9d000;fill-rule:evenodd;}</style></defs><path class="cls-1" d="M226.42,38.36c-.78,3.53-2.49,8.41-5.27,9.47a61.73,61.73,0,0,0,4.36-7.23c.34-.75.34-1.65.91-2.24Z" transform="translate(51.23 -10.12)"/><path class="cls-1" d="M155.18,54.58c-.71,1.5-2.74,4.83-2.74,7.7-.8-1,.06-3.71.78-5.28A6.88,6.88,0,0,1,155.18,54.58Z" transform="translate(51.23 -10.12)"/><path class="cls-1" d="M160.57,150.9a20.47,20.47,0,0,1-.69,5.8A16.63,16.63,0,0,1,160.57,150.9Z" transform="translate(51.23 -10.12)"/><path class="cls-1" d="M159.29,161.28c.44,2.15-.38,5-.7,7.55A43.12,43.12,0,0,1,159.29,161.28Z" transform="translate(51.23 -10.12)"/><path class="cls-1" d="M253.09,235.66c-.83.52-1.09-.14-1.84-.54-6.08-2-10.79-1.56-16.11-2.2a17.07,17.07,0,0,1,5,0c3.84.27,9.24.36,12.94,2.78Z" transform="translate(51.23 -10.12)"/><path class="cls-1" d="M143.57,324c.23,1.37-1.17,2.8-1.35,4.61C141.67,327.76,143.18,325.31,143.57,324Z" transform="translate(51.23 -10.12)"/><path class="cls-1" d="M140.75,331.88c.24.13,0,.5.33.59a32.58,32.58,0,0,0-1.71,5C139.24,335.94,140.39,333.69,140.75,331.88Z" transform="translate(51.23 -10.12)"/><path class="cls-1" d="M138.27,340.4c0,2.08-1.34,4.86-1.86,7.21C136,345.68,137.49,342.42,138.27,340.4Z" transform="translate(51.23 -10.12)"/><path class="cls-1" d="M135.88,347.71c.18.16.36.32.33.59a19.57,19.57,0,0,0-1.08,3.69c-.2,1.12-.57.44-.16-.3a16.31,16.31,0,0,1,.91-4Z" transform="translate(51.23 -10.12)"/><path class="cls-1" d="M-18.48,425.16c.18-.49,1,.19,1.45.18a6.85,6.85,0,0,1,2.47,1l3,.87c1.8.61-2.24-.14-2.66-.28C-15.78,426.42-17.26,425.23-18.48,425.16Z" transform="translate(51.23 -10.12)"/><path class="cls-1" d="M223.44,249c-2.26,2-2.94,5-4.19,7.52-3.81,7.69-8.13,15.58-12.26,23.18-10.81,19.84-23.59,37.89-35.86,56-.76,1.13-1.69,2.12-2.46,3.29-2.14,3.24-4.54,6.65-6.91,10-1.61,2.25-3,4.56-4.53,6.93s-3.17,4.19-4.61,6.4-2.62,4.6-4,6.84a53.52,53.52,0,0,0-4,6.83c1,.42,1.79-.79,2.38-1.3,2.23-1.95,4.22-4.28,6.66-6.56,2.19-2,4.42-4.64,6.57-7.08a87.61,87.61,0,0,0,10-13.82c1.37-2.44,2.29-4.89,4.32-6.24,1.3-4.82,3.79-7.46,5.74-11.08,0-1.3,1.23-.33,1.55-1.05a77.48,77.48,0,0,1,6.18-9.19c4-2.33,7.33-5.94,10.74-9.37,3.35.14,6.45-2,9.8-1.89a9.33,9.33,0,0,1,3.75.85c.87.49,1.46,2.1,2.26,3.4a20.52,20.52,0,0,1,2,3.35c.63,2,.1,4.33.82,5.74-2,3.08-3.23,7.53-5.3,10.45-.68,1.21.69,1.3,0,2.51-1.89,2.08-2.59,4.51-4.16,6.53s-4.51,3.3-5.15,6.5c-3.56,2.16-6.61,5-10.19,7.53-.54.37-1.28.56-1.79,1s-.87,1.24-1.46,1.58c-1.06.61-3.12,1.08-4.49,1.69-2.73,1.2-5.43,2.61-8.2,4.1-1.44.78-2.88,1.1-4.26,1.76-2.7,1.28-5.55,2.8-8.27,4.34-1.25.7-2.47,1.85-3.77,2.65s-2.91,1.2-4.1,2.05c-2.58,1.83-5.11,4.46-7.72,6.75-5.28,4.62-9.33,10-13.81,16.47a56.36,56.36,0,0,0-5.86,9.79,114.78,114.78,0,0,0-6.38,20.14c-.45,2.12-.53,4.31-1,6.72-.15.87-.7,1.88-.8,2.77-.73,6,1.32,10.9,4,15.41,2-6.68,4.12-13.55,8-17.92,1.3-1.47,2.82-2.74,4.17-4,.55-.52.74-1.23,1.23-1.64,1.19-1,2.9-1.78,4.3-2.75s2.79-2.11,4.07-2.81,2.67-.95,4-1.59c2.46-1.21,4.74-2.94,7.28-4.38,1.24-.7,2.62-1.18,3.8-1.89s2.23-1.77,3.47-2.48,2.52-1.25,3.81-1.89c2.69-1.34,5.28-3.24,7.6-3.79.71-.16,1.57,0,2.28-.08,2.68-.43,5.12-1.69,7.66-2.27s5.21-.82,7.75-1.73c4.54,1.09,10-.23,15.82.61a19.34,19.34,0,0,1,3.53.78c.72.27,1.18.84,1.94,1.07,2.17.67,4.55.63,6.88,1.26,2.62.7,6.62,2.18,8.65,3.77a31.11,31.11,0,0,0,3.71,1.84c.78.39,1.42,1,2.11,1.36,2,1,4.61,1.79,5.68,3.66.29.51,0,1.5.48,2.64.61,1.49,2.44,2.91,3,4.37a10.15,10.15,0,0,1,.13,7.28c-1.3,3.2-4,3.82-6.53,6.1-1,1.44-1.47,2.53-2.69,3.21-1.65.93-5.12,1.07-7.49.82-2.08-.22-4.24-1.48-5.7-.17-2.67-.54-5.62-.06-8.6-.51s-6.08-1.57-8.61-.51c-1.74-.46-3.34-.15-5.1-.49-3.28-.63-6.41-2.38-9.91-2.89-1.3-.19-2.74.24-4,.08-6.85-.87-13.37-3.51-19.69-4.5a63.26,63.26,0,0,0-12.69-.2A39,39,0,0,0,148,434a34.84,34.84,0,0,0-4.79,1.85,15.86,15.86,0,0,0-8,9.41c-1,3.21-.77,7.19-.29,10.42,1.3,8.91,8.51,16.46,15.86,21.88,2.64,1.95,5.35,3.79,8,5.85,3.7,2.82,7.26,6,11.36,9.06,2.49,1.88,5.42,3.6,8.11,5.62,1.23.92,2.11,2.26,3.31,3.22,3.18,2.53,6.8,4.41,9.69,7.07,1.28,1.19,2.57,2.79,3.8,4.11,2.39,2.59,4.8,5.26,5.19,8.77-1.7-1.74-2.49-4.48-4.12-6.45-.61-.75-1.84-1.68-2.75-2.56-1.23-1.18-2.93-2.92-4.5-4.31-1.32-1.17-2.68-2.13-4.07-3.19-4-3.05-7.47-6.15-11.81-9.2-1.36-1-2.5-2.05-3.84-3.12s-3.07-1.74-4.44-2.79-2.55-2.58-3.93-3.65-2.89-2.21-4.3-3.25c-3.26-2.42-6.73-3.78-10.62-5.6-3.38-1.59-6.76-3.55-9.83-4.87-7-3-16.88-5.79-25.9-8.06,1.27,1.71,3.63,1.83,5.49,2.6,3.21,1.34,6.37,3.05,9.44,4.51,13.54,6.43,24.76,16.17,36.32,24.6,2.87,2.09,5.36,4.62,8.3,6.67a202,202,0,0,1,17,12.95,27.32,27.32,0,0,1,3.71,3.59c.91,1.13,2.22,2.49,2.28,4.16-1.59.2-1.92-1.67-2.52-2.48a42.61,42.61,0,0,0-8.43-8c-4.16-3.21-8.37-6.42-12.67-9.7-4.11-3.15-8-6.86-12.37-9.86-1.17-.82-2.47-1.45-3.58-2.3-2.58-2-5.34-3.59-8.28-5.91-.4-.32-.67-1-1.11-1.33-2.19-1.55-4.78-2.86-7.23-4.36-1.23-.75-2.33-1.53-3.58-2.29s-2.56-1.2-3.94-1.9c-3.52-1.8-6.88-4.12-10.55-5.83-1.87-.87-3.8-1.8-5.72-2.67s-3.7-1.93-5.49-2.61a43.9,43.9,0,0,0-6.82-1.49c-6.2-1.22-13.33-3.77-19.91-6.31-2.09-.8-4.09-2.09-6.18-2.8-3.75-1.27-7.37-1.33-10.77-1.64-1.23-.12-2.43-.5-3.59-.55s-2.55.35-3.86.37c-2.48,0-5.26-.38-7.91-.31-1.24,0-2.46.38-3.63.44-1.37.08-2.7-.23-4-.15-2.37.15-4.76.48-7.26.88-3.94.63-8,1-12,2.51-1.8.69-3.75,1.23-5.32,1.94s-3.08,1.95-4.83,2.84-4.25,2-5.32,1.95a6.36,6.36,0,0,1-2.3-.67c-5.66,2-13.68-.23-20.28.08-1.24,0,0-1.44-1.34-1.39-4.83-1.31-10.8-1.89-15.64-3.81-.93-.38-1.87-1.14-2.79-1.57-1.41-.66-2.8-.87-3.79-1.6a8.34,8.34,0,0,1-1.67-2c-3.45-2.37-6.7-4.84-9-7.86-.86-3.48.22-9,1.72-12.75s4.68-5.7,7.3-7.87c2.27-1.89,4.65-2.48,5.56-5.38,2.65-.51,5.32-1.33,8.06-1.9,2.13-.44,4.21-.17,5.78-1.81,6.71.12,13.09-.36,20.79,1.57,1.06-.16,1.41-1,2.32-1.08,1.38-.18,3.84.68,6.19,1.06,2,.32,4.12.32,5.8.69,2.7.6,5,1.46,7.6,2.22a168.52,168.52,0,0,1,18.26,6.83c5.68,2.42,10.31,5.92,15.61,9.05a64.59,64.59,0,0,0,10.12,4.71A70.43,70.43,0,0,0,71.66,441c5.24,1.42,10.42,3.37,15.24,5.19,12.79,4.84,24.19,11.36,35.87,16.72-2.63-5-7.92-8.76-9.88-14.13-2-5.6-2-14.73-2-21.34,0-15.68,1.28-30.34,2.21-46.11.69-11.75,1.45-22.88,1.21-34.15a93.45,93.45,0,0,0-.56-10.91,118.24,118.24,0,0,0-4.18-20,157.93,157.93,0,0,0-7.37-18.4c-.7-1.49-1.11-3.06-1.92-4.56s-1.73-2.79-2.52-4.24c-1.54-2.82-2.91-6-5.09-8.23-1.57-1.63-3.49-2.54-5.39-3.83a47.9,47.9,0,0,1-4.56-4.08,93.52,93.52,0,0,1-8.52-8.49c-.45-.46,0-1.43-.16-2-5.35-4.78-9.67-10.15-14.71-15.55a70.82,70.82,0,0,0-8.59-8.25c-.65-.51-1.44-.82-2.1-1.37-4.51-3.74-10.09-8.55-15.79-11.86-4.24-2.46-8.17-4.45-5.16-9.75,1-1.76,1.77-3,3.36-3.77,2.19-1.06,5.53-.91,7.94-.68.91.11,1.06-1.14,2-.91a64.21,64.21,0,0,1,11.28,5c1,.51,1.13-.77,2.28-.09,3.62,2,6.41,5.35,9.45,7,2.79,3,6.52,6.13,9.77,9.35a43.56,43.56,0,0,0,4.17,3.72c2.19,1.73,4,4.33,5.79,6.69.84,1.12,1.94,2.17,2.79,3.31s1.3,2.66,2.19,3.64c.59.66,1.52.95,2,1.6,1.23,1.56,2.19,4.35,3.29,6.71,3,6.42,5.53,14,8.59,20.25,1.15,2.35,2.46,4.29,3.36,6.49a84.68,84.68,0,0,1,4.34,14.26c.51,2.38.84,5.06,1.57,7.46.34,1.11,1.14,2.11,1.56,3.21a56.14,56.14,0,0,1,2.08,6.6c1.36,5.42,2.19,12,3.85,17.63,1.48-5.26,2.54-11.08,3.69-16.92s3.09-11.8,3.89-17.62c.18-1.3,0-2.83.22-4.18.72-4,1.8-7.39,2.18-10.87.7-6.46-1.26-11.81-2.64-17.52-2-8.17-3.44-17.08-4.7-25.87-.63-4.38-1.23-8.62-1.87-13.3a76.64,76.64,0,0,1-.73-11.21c.07-6.4-.29-13.72.22-20.44a257,257,0,0,1,4.42-29.71c.74-3.85.92-7.91,1.75-12,1.11-5.5,3.2-11,4.61-16.66.57-2.32,1-4.71,1.55-7,.8-3.63,1.63-7.07,2.41-10.79,1.45-7,2.91-14.07,2.49-20.53-.12-1.84-1-3.56-.67-5.44a12.46,12.46,0,0,1,5.31,5.8c2,.54,2,2.13,3.08,3.15,2.77-9.27,4.89-17.88,7.34-26.86.57-2.09,2-5,1.56-7-.31-1.4-2.48-2.45-3.11-3.91-1.31-3,0-8,2-10.4s4.87-2.53,7.3-3.62c5.46.93,7.59,5.72,6.7,10.45a12.2,12.2,0,0,1-4.06,7.07c-1.43,1-3.33.87-4.33,2-2.12,2.34-5.18,15.48-6.65,21.06-1.28,4.87-1.78,8.61-2.74,12a46.15,46.15,0,0,0-1.28,6.12c-.26,1.5-.91,3.36-.82,4.51.12,1.57,1.38,2.56,1.73,3.51.8,2.21.94,5.77,1.17,8.84.07.95.4,2.07.41,2.87,0,4.19-1.48,6.86-2.63,10.73-.37,1.24-.26,2.72-.69,4.05-1.31,4.12-4.21,7.89-6.32,11.41a23,23,0,0,0-2.07,3.65,24.49,24.49,0,0,0-.48,3.36c-.53,2.76-1.35,5.55-1.73,8.49-.18,1.39-.29,2.71-.45,4.12-.6,5.16-1.92,12-2.31,17.33-.17,2.31-.09,4.62-.27,6.92s-.43,4.8-.56,7.08.57,3.65-.37,6.4c.67,4.21-.44,8.36-.27,12.92.05,1.31.54,2.57.6,3.93s-.22,2.61-.15,4c.14,2.82.34,6.59.37,9.86,0,4.28.15,8.68.49,12.89.46,5.74-.25,11.44.79,17A98.19,98.19,0,0,0,138.53,259c.82-2.79,1.44-5.69,2.26-8.59,2.19-7.79,4-15.93,5.93-23.77.46-1.85,1.3-3.69,1.62-5.53s-.22-3.92-.07-5.77c.21-2.62,1.23-5.15,1.76-7.73.72-3.5,1.13-7.14,1.64-10.77.63-4.47.89-9.14,1.46-13.58.45-3.42.29-6.89.69-10,.14-1.16.64-2.32.77-3.52.19-1.73,0-3.53.1-5.47.09-1.77.06-3.73.1-5.48.08-3.83.38-7.2-.17-10.55-1.14-6.9-2.43-13.48-3-19.86,1.67-3.68.31-8.29,1.49-12.81.21-.8.83-1.33,1.14-2.17,1.17-3.22,1.42-7.14,2.72-10.21a48.27,48.27,0,0,1,4.5-7.69c2.61.1,4.47,2.77,6.57,3.17.73,2.63,2.51,4.66,3.16,7.17.26,1,0,2.09.35,3.1s1.22,2,1.56,3.21c1,3.36.14,8.46-.2,12.69-.07.76-.32,1.44-.38,2.14s.2,1.55.09,2.28c-1.21,7.62-4.95,15.24-7.39,23.59-1.13,3.87-2,8-2.74,12-1.26,6.62-2.94,12.93-4.13,19.29-.44,2.35-1,4.7-.5,6.85,2.47-4.94,3.28-10.36,5-15.53,2.45-7.2,5.21-14.34,8-21.41s5.36-14.24,8.16-21.12c4.15-10.21,8.71-20.26,13.06-30.19,1.73-3.94,3-8,4.72-11.88,6.35-14.34,14.13-27.45,19.75-42,0-1.37-1.32-1.88-.57-3.17.06-.39-.58-.29-.86-.5-.79-.61.1-1.53-1.44-1.92.41-1.18-.15-2.31-.28-3.33a25.08,25.08,0,0,0-.27-3.33,13.14,13.14,0,0,0-1-2.55c-1.73-2.91-5.27-4.73-4.6-9.09-.66-1.83-2-3.26-2.77-5.06a10.6,10.6,0,0,1-5.59-3.13c.48-2.07,2.65-1.06,4-1.59.09-1.6-1.08-2.51-.77-4.23,1.3-.36,2.13,1,2.79,1.57.8-.5.18-1.39.67-2.31,1.4.47,1.9,1.42,2.89,2.1.86.27.54-1.62,1.4-1.35,1.73.6,2.23,1.87,3.14,2.92.81,0,.82-1.56,1.86-1.21.85,1.23,3.82.26,4.34,2.27,3.71-1.07,5.34,3,6.49,5.15,1.42-.47,2.58-1.43,4.2-1.53,1.4,1.11,1.44,3,1.92,4.56,1.88,0,3-1.39,4.89-1.32,1.15.46.27,2,1.23,2.61,1.06.05,1.91-.3,3.2.18.29,1.26-.41,3.06-.88,4.74,1.39.72,3.7.22,5.24,0,2.65,1.28,4.58-.53,6.88,1.26.64,1.31-1,2-1.31,3.62a13.92,13.92,0,0,1,5.67,1.15c.5.8-.85,1.41-.38,2.15.63.55,1.73.85,2.34,1.43,1.09.25-.59.92.05,1.51.36.45,1.25.61,1.71,1-1.28,1.65.9,1.93,1,3.3-.35,1-1.42.7-2.09,1.15-.67.77,1,1.73.35,3.1-4.93-.28-11.4-3.38-15.58-2.3L242.43,46c-1.6.56-3.38.12-4.92.57-.93.27-1.4,1-2.15,1.37-.35.19-.92-.06-1.29.13s-.55.91-.79,1-1.11.12-1.59.29-1,.49-1.42.59c-1.35.32-2.81-.07-4.32.24-1,.19-2,1.09-3.07,1.1-5.18,5.19-7.75,12.16-11.49,19.65-3.22,6.46-7.08,13.84-10.43,21.2-2.28,5-4,10.36-6.26,15.43-1.29,2.93-3.15,5.71-4.3,8.75-1.63,4.33-2.57,8.23-4.39,12.46-.9,2.1-2.14,4-3,6.12-3,6.95-5.29,14.72-8.21,22.11-1.4,3.56-2.51,7.24-3.91,10.85a227.56,227.56,0,0,0-7.58,22.54c1.24-.65,1.93-2.1,2.69-3.21,4.61-6.75,8.85-15.57,13.74-22.24,2.46-3.36,4.84-6.66,7.28-10.38,1.46-2.23,3-3.61,4.64-5.64,2.62-3.33,5.79-8.22,8.87-10.67.71-.57,1.84-.82,2.67-1.47s1.33-1.46,2.13-2.13a63.14,63.14,0,0,1,6.49-5.1c1.45-.89,4.24-1.3,6.24-1.68,1.62-.31,3.3-.42,4.91-.57-3.5,1.63-7.49,1.23-10.89,3.07a25.19,25.19,0,0,0-3,2.39c-2,1.57-3.72,3-5.9,4.78-1,.79-2.28,1.33-3.11,2.1-2.81,2.59-5.32,6.23-7.83,9.71-1.79,2.48-4.06,4.65-5.88,7.28-.69,1-1,2.06-1.63,3-.55.8-1.55,1.33-2.12,2.13-.93,1.29-1.69,2.66-2.66,4a94.93,94.93,0,0,0-7.43,12.59c3.09-2.62,5-7.43,8.3-9.58,2.49-5.12,6.2-8.25,9.89-11.62,6.56-6,13.11-11.78,20.34-16.56-2.57,3.26-6.67,5-10,7.82a32.63,32.63,0,0,1-2.42,2.29c-.38.27-.38.5-.73.79-4.45,3.78-9.21,7.41-12.82,12.26.93.84,1.76-.63,2.31-1.08a42.46,42.46,0,0,1,7.12-4.67,35.06,35.06,0,0,0,7.67.24c1.78-.22,3.38-1.38,5.39-2.18a28.93,28.93,0,0,0,2.77-.94c.84-.43,1.56-1.16,2.45-1.53s2-.47,3-.88,2.26-1.3,3.57-1.95,2.82-1.06,3.5-1.73.73-1.58,1.44-2.33c.91-1,2.27-1.57,3.24-2.56a15.09,15.09,0,0,0,2.76-3.44c.32-.69.1-1.6.44-2.37s1.5-1.43,2-2.43c.7-1.55.66-2.92,1.34-4.61-1.77-3-7.4-3.46-10.86-3.92,2.82-1.3,9.5,1.29,11.82,3.2-.73,2-1,4.07-1.68,5.76-.29.71-1,1.17-1.3,1.87s-.28,1.62-.67,2.3a23.59,23.59,0,0,1-3.78,4.4c-2.62,2.68-4.06,4.66-7.13,6.42-.55.32-1.33.35-1.94.68a39.54,39.54,0,0,1-4.7,2.38,86.11,86.11,0,0,0-8.59,3.75c4.47,2.55,11.34,1.27,15.3,5-1.28,1.11-2.83.18-4.32.24a24.34,24.34,0,0,0-9,2.39c-.87.46-1.66,1.41-2.58,2s-2,.84-2.91,1.4a39.05,39.05,0,0,0-5.17,4,54.2,54.2,0,0,0-6.93,7.48c-.69.86-1.76,1.65-2.19,2.36-.85,1.41-1.28,3.13-2.1,4.63s-1.45,3-2.27,4.34c-.52.86-1.37,1.38-1.89,2.2s-.52,1.59-.9,2.24c-1,1.67-2.66,2.72-3.78,4.39-.85,1.27-1.58,3.12-2.34,4.57-5.33,10.28-9.76,22.57-15.87,32.12-2.45,3.83-4.52,7.31-7.84,9.72-4,7.51-8.15,17.65-9.75,27.4,9.77-11.36,23.2-18.72,36.22-26.43a149.31,149.31,0,0,1,19.74-10.24c6.93-2.82,14.43-5.9,22.45-4.95,2.24.27,4,1.16,6.16.3,2.39-3.92,3.57-8,5.74-12.82.55-1.22,1.42-2.2,2-3.42.37-.79.37-1.71.74-2.54.26-.58,1-1,1.23-1.64.41-.94.44-2,.87-3,2.66-6.12,5.48-13.81,8.19-20.36,1-2.41,2.85-5.82,3.91-9.11.54-1.67,1.44-4,1.32-5.37-.15-1.63-2.09-2.29-3.34-4-3.93-5.29-.42-15.89,4.79-19.86.47-.44,1.44,0,2.05-.15,2.59-1.51,5.59-3.66,8.78-2.69,3.35,1,3.69,4.8,5.07,7.48-.07.81,1.51.72,1.57,1.46.57,7.11-2.42,16-8.27,18.09-1.24.43-2.8,0-3.93.6-3,1.61-4.26,8.44-6.2,12.69-2.73,6-5.25,12.05-7.89,18.45-.68,1.66-1,3.53-1.77,5.23-.53,1.19-1.45,2.21-2,3.42-.8,1.75-1.19,3.63-2.08,5.4-1.84,3.68-4,7.32-5.27,11.21,1.2,1.13,2.23-.17,3.66.32-2.81.52-4.21.65-5.69,4.08a6.51,6.51,0,0,0-1,2.47c0,.09.29.66.32.6-.2.45-1,.85-1.39,1.34a34.55,34.55,0,0,0-3,6.12c3.15,2.19,8.88,3.86,13.16,4.59,3.75.63,7,2.44,10.73,2.63,1,0,2.06-.4,3.1-.35,2.58.15,4.81,1.13,7,.8.78-.12,1.44-.63,2.24-.84,1.95-.53,4.47,0,5.72-1.59.78-1-.43-1.34.51-2.6,0-.55-1.58-2.52-.46-1.88-.09.87,2,3.18.73,5.21-.36.57-6.57,2.31-7.73,2.5-1.83.29-4.78-.52-7.15-.34a31.4,31.4,0,0,1-7.15-.34c-2.55-.51-4.45-1.63-6.45-1.88-.68-.08-1.62.2-2.28.09-1.54-.26-2.86-1.15-4.47-1.81-2.44-1-5.16-1.4-7.77-2.51Zm-8-224.36c.73,1.88,1.15,4.14,2.84,4.83a11.79,11.79,0,0,0,.19-4.94c-.17-1.56-.48-3.51-.79-5-.41-1.89-1.19-4.34-2.94-5.36C212.07,18.77,214.31,21.79,215.42,24.65ZM213,20.19c.3-1.58,0-2.83.29-4.42-1.06-1.16-1-2.91-2.95-3.61-.86,2.94-.47,6.83,1.4,8.91l-.27.92a10.23,10.23,0,0,1,1.11,3.08c.33,1,.58,2.5,1.47,2.67C216.37,25.21,213.5,22.41,213,20.19Zm5.88-1.29c.87-2.28.21-3.73-1.69-4.49A5.79,5.79,0,0,0,218.85,18.9Zm4.65,10.61c1.14-5.71,3.27-11.64-2-13.59l-.46-.14c-3,7.31-1.81,14,1.31,18.64C223.72,33.4,223.13,31.37,223.5,29.51Zm-15.19-7.93a16.47,16.47,0,0,0,4.09,5.69c-.49-4.76-3.63-8.07-3.38-13.23-.82-.59-1-1.53-2.2-1.9C205.64,15.32,207,18.86,208.31,21.58Zm23,3.46c.29-1.82,0-5-1.65-5.48-1.16-.32-3.28,1.55-3.71,2.42a11.19,11.19,0,0,0-.38,2.14c-.68,3.1-2.15,7.35-1.17,9.16,1,.09,1.81,0,2.74,0A18.48,18.48,0,0,0,231.31,25ZM203.68,13.48c1.22,3.33,1.59,7.13,4.46,9.55-.57-3.36-2.55-6-2.71-9.54-.76,0-.26-.76-1-.8l-.46-.13-.27.92Zm24.68,20c1,1,1.75-.25,3.13.41,2.56-1.52,7.46-7.73,4.9-10.81-4.58,0-5.53,6.61-8,10.4Zm10.1-8c-1.24,1.77-2,3.87-3.13,5.58s-3,2.8-3.33,4.54c1.47.19,2.47-1.3,3.64-2.19,2.27-1.74,4.79-3.62,5-7.79C239.67,25,239.25,25.52,238.46,25.38Zm-37.77-8.52c.14.77,2.18,1.27,2.93,1.1C204.74,16.09,201,15.33,200.69,16.86ZM246,30.33c-1.8-.78-4.61-.35-6.8,1-1.18.74-1.81,1.86-3.08,2.85-1.88,1.47-4.46,1.84-3.25,4.3.49.78,1.44,0,1.61.47-.23.41-.78.23-.8,1,1.91.79,2.31.24,3.8-.14.75-.2,1.6,0,2-.16a36.53,36.53,0,0,0,4.93-2.31c3.2-1.65,6-2.8,7.35-6.35-1.67-.7-2.74-.29-4.12-.46C244.52,33.74,241.39,37,237,38,240,35.56,244.87,34.87,246,30.33Zm9.79,5.86c-5.4-2.51-9.52,1.35-13.4,3.09-1.26.56-3.11.3-3.34,2,2.77,0,5-1,7.62-1.27-.16.53-2.14.71-1.09,1.18,1.1.14,1.9-.7,3-.87,2.85-.45,6.21.46,8.55-1-3-2.29-6.33.6-9.4.51,2.57-1.43,6.08-1.14,8.06-3.65Zm-2.56,4.5c-3.62.21-7.28.93-9.48,2.49,3.46.14,6.91-1.32,10.3-1,1.93.19,3.32.51,4.61-.4-1.41-2.05-3.42-1.2-5.43-1.09Zm-38.93-7.11c.29,2.71.21,5.18.88,7.26,1.32-2.23,1-5.17.87-7.25,1.65,2.71-.51,5.77-.28,8.67.15,1.87,1.93,3.62,1.88,5.55-.1,3.83-3,8.34-5.21,12.73-1.89,3.76-3.61,7.79-5.41,11.67-1.46,3.15-3.55,6.42-4.53,8.68-1.91,4.37-3.7,7.74-5.34,11.44-.33.74-.36,1.54-.68,2.3-.64,1.57-1.76,3-2.33,4.57-.47,1.27-.64,2.56-1.08,3.69-.55,1.42-1.53,2.67-2.19,4.11-3.43,7.46-6.33,15.71-10,23.84-1.67,3.73-2.8,7.85-4.19,11.78s-3.46,7.83-4.88,11.58c-1.56,4.11-2.56,8.24-4.26,12-.33.75-1.07,1.33-1.36,2.1-.75,2-1,4.77-1.85,7.21-2.91,8-5.78,16.92-8.75,25.7-1.37,4-2.88,8.75-2.24,11.09.48.58,0,1.7,1.21,1.86,3.27-10.58,6.48-21,9.77-30.9,4.43-13.39,9.27-25.68,14.19-38.36,1.86-4.78,3.71-9.59,5.69-14.34s3.83-9.44,5.62-14.12,4.1-9.16,6-13.74c2.71-6.51,5.3-12.62,7.81-18.22,3.16-7,6.24-13.51,9.51-19.73.66-1.26,1.75-2.36,2.3-3.58,2.6-5.79,5-10.35,9.56-12.21,4.73.83,6.61-4.64,10.74-5.11,1.8-.21,3.85,1.28,5.05-1-1.67-.9-3.27-1-5.46-1.84-3.13.87-5,4-7.68,5.76-.73.43-1.89,2-2.61,1.23,2.09-2.77,6.18-3.13,7.1-7.18.4-1.77-1.08-5.51-2.21-6.14a9.37,9.37,0,0,0-3.66-.32c-3.57.17-4.54,2.59-5.9,6.53-.71,2-.62,4.19-1.88,4.7.58-3.6,3.29-7.1,2.8-10.43s-4.27-4-6.1-6.53c-1.37,2-1.13,3.25-.95,5Zm-1.54-.7c.34-2.83-1.78-4.32-3.79-5.86C209.16,29.57,211.22,31.08,212.77,32.88Zm44.51,10.24c-3.52.1-6.56.26-9.4.51-1.32.12-2.9-.21-3.69.67,2.89.78,6.05-.19,9.19.18,2.5.3,5.36,1.63,7.29-.12-.71-1.77-1.89-1.28-3.39-1.24Zm.94,2.78c-3.1.22-7.08-1.15-9.89-.39,3.57.63,7.78,2.42,10.87,2.17C259.37,46.82,258.72,46.4,258.22,45.9Zm-26.15,1.36c-.55.46-1.85.72-1.46,1.58,2.07-1.88,5.18-1.85,7.31-3.62C235,44.07,233.64,46,232.07,47.26Zm-74.6,5.48c0-.46.72-1.29-.13-1.28-5.44.62-10,13.22-3.08,14.85.41-1.71.15-4.08,1.38-5.6-.7,2.38-1.14,4.63-.3,6.16a6.88,6.88,0,0,0,5.64.4c4-1.84,7-11.43,2.58-14-1.62,1.64.54,3.81-.78,5.27C163.31,55.15,161.29,50.33,157.47,52.74Zm-2.63,15c-2.58,10.06-5.37,21-8.65,32.22-.91,3.11-2.93,7.3.15,8,3.66-13.31,5.95-27.1,11.27-39.46A10.85,10.85,0,0,0,154.84,67.73Zm2.29,120.67c.42-3.23,1-6.66,1.67-10,1.27-6.64,2.79-13.59,4.47-20.45,2.56-10.47,5.93-17.83,8.16-27.12a40.74,40.74,0,0,0,.87-7.25c.46-5.47,1.08-11.15-1.67-14,.16-4-1.93-6.82-3-10.14-2.2-.8-2.67-2.54-5.36-3.06a.65.65,0,0,0-.66.55c-1.36,1.25-2.18,4.31-2.9,5.66a15.79,15.79,0,0,0-1.77,3.48c-.71,2.46-1,5.4-2,8.43-.45,1.45-1.25,2.57-1.44,4.08-.21,1.69.28,3.51.2,5.31,0,.7-.35,1.36-.37,2.14,0,.58.29,1.26.22,1.81-.11.82-.57,1.35-.61,2.08-.14,2.82.45,5.82.71,8.7s1.21,5.43,1.83,8.29c1.19,5.4.63,11.14.63,16.68,0,2.8.31,5.54.32,8.35,0,1.43-.2,3-.29,4.41s-.41,2.86.31,4.09c.14-.33.16-.87.5-.85-.2.94-.49,1.7-1.07,1.94,1.3,1.6-.58,4.66-.8,7-.19,2.09.09,4.25-.07,6.23-.18,2.36-.92,4.43-.43,6.63,2.29-4.19,1.94-8.37,2.55-13ZM150.72,266a57.77,57.77,0,0,0-11.38,12.43c-1.78,2.52-3.16,5-4.79,7.86-1.5,2.59-2.88,5.52-4.69,8.38-2.48,3.89-2.46,8.33-3.61,13.2-.85,3.62-2,7.39-2.76,11.19-.74,4-1.45,7.87-2.15,11.63-.5,2.75-1.15,5.59-1.36,8.1a34.37,34.37,0,0,0,.46,6.13c.21,2.08,0,4.51,1,6,2.63-14.4,4.85-29.48,9.32-44.78,5.3-18.16,12.69-31.25,23.36-38.94,2.87-2.06,5.94-4.19,9.33-6.27,4.78-2.93,10-5.21,14.75-7.7,5-2.64,10.07-4.48,15.47-6.74,7.73-3.23,15.3-5,25.42-.58,1.27-1.2,1.8-3.78,3-5.12.45-.89-.18-1.19-.52-1.65,1.88-.11,2.46-2.58,3.16-4.83-1.4-.54-3-.12-4.41-.29a32.11,32.11,0,0,0-5.11-.49c-1.56.05-3.27-.1-4.78.1-3.29.44-6.95,2.4-10.34,3.74a112.28,112.28,0,0,0-14.61,7.23c-3.28,1.85-6.69,3.13-9.69,4.92a19.84,19.84,0,0,0-4.14,3c2.23-.76,4.67-3,6.65-3.06-9.84,5.29-19.09,9.76-27.56,16.45Zm-16.66,19.39c1.53-2.7,3.73-5.64,4.63-8.15.81-2.24,1-4.75,1.49-6.81.62-2.57,1.57-4.82,2.31-7.08,1.45-4.36,2.33-8.77,4.76-12.86a41.69,41.69,0,0,1,3.62-4.69c1.16-1.43,2.66-2.79,3.78-4.4.66-.94,1-2.22,1.7-3.25s1.46-1.89,2.09-2.89c4.2-6.6,6.59-13.77,10.15-21-1.68.57-1.69,2.52-2.37,3.81s-1.71,2.54-2.36,3.81c-3,5.94-5.37,11.33-8.8,16.43a62.43,62.43,0,0,1-5.11,7.26c-.8.87-1.86,1.36-2.65,2.23a30.79,30.79,0,0,0-2.53,3.51,73.74,73.74,0,0,0-4.63,8.15c-.74,1.48-1.72,3-2.26,4.34-2.16,5.4-3.53,12.57-5.18,17.74-.24.73-.64,2-1.43,2.33,1-2.66,1-4.83,1.92-7.44-3.2-10.62-6.42-21.3-8.06-32.35-.44-2.95-.51-5.9-.94-8.78-.14-.92-.63-1.78-.71-2.71-.17-2-.22-4.07-.46-6.13-.47-4.17-.4-8.18-.62-12.43-.1-2-.55-4.14-.46-6.14.11-2.39.6-4.8.63-7.31.15-10.76,1.3-23.09,6.3-34.42.81-1.84,2-3.52,2.83-5.42,2.23-5.35,3.8-10.75,6.25-15.43.51-1,1.34-1.54,1.73-2.49s.23-1.89.58-2.83c.23-.63.94-1.17,1.3-1.88a52.17,52.17,0,0,0,3.07-7.1,28.33,28.33,0,0,0,1.46-7.57c-.05-.85-.64-1.76-.71-2.71-.26-3.3.82-7.17.36-10.65-2.1-2.53-1.59-6.48-3-9.38-2.8-1.17-2.61-4-5.21-5.27-.32,1.83.11,3.65.13,5.54a43,43,0,0,1-.29,6.16c-.57,4.35-1.13,8.92-2.16,13.38-.23,1-.87,1.92-1.1,2.93-.43,1.88-.27,3.86-.69,5.79-2.36,10.8-6.35,21-8.06,31.9-.66,4.2-1.55,8.31-2.12,12.39-.18,1.32,0,2.69-.15,4-.75,5.2-1.72,10.81-1.93,15.19-.06,1.14-.39,2.23-.48,3.36-.5,6.27-.07,12.75-.21,18.69-.19,8.5,1.33,16.13,2.34,23.68,1,7.26,2.13,15.3,3.89,22.64,1.83,7.61,4.39,15.19,3.83,22.87-.27,3.72-1.87,7.37-2.1,10.63-.19.39.65,1.07.69.21.14,0,.28,0,.29-.17,1.64-2.85,3.07-6.29,4.67-9.14Zm12.56-168.09c.06.87-.38,1.48-.38,2.14,0,1,.79,2,.88,3,.22,2.58-.81,7.07-1.91,9.94s-3.06,5.45-3.93,8.35c-1.19,3.95-1.07,8.52-2.12,12.39,1.45-.72,2.47-2.49,3.42-4a52.35,52.35,0,0,0,2.83-5.42c.34-.83-.75-.87-.22-1.81,1.95-4.29,4.74-11.06,3.09-14.86a37.55,37.55,0,0,0-.84-10c-.29-.1-.23-.39-.62-.43Zm104.89,36.36c1.42-.08,2.48-2.11,3.84-2.88.71-.39,2.44-.49,1.62-1.27C255.06,150.75,252.66,151.08,251.51,153.69Zm7.24,2.62a12.62,12.62,0,0,1,1.13-2.17c.46.13.11.71.79.73.39-.36.6-1,1.42-.59.4-1.25.53-2.36-.41-2.87-.51.42-.61.3-1.22-.11C259.18,152.22,257.08,154.81,258.75,156.31Zm1.45-5.83c-.83.15-2.91.93-1.89,2.2C259.24,152.49,259.75,151.55,260.2,150.48Zm5.73,6.92c.66-2.56-.64-4-1.88-5.55C263.44,153.63,265,155.81,265.93,157.4ZM252.43,154c-.5.66-1.47,2.14-.64,3.06,2.26-1.87,4.2-4.34,6.36-6.39.25.06.27-.24-.16-.3C256.66,151.11,253.38,152.72,252.43,154Zm11.06,3.23c.68-1.21.62-3.35-.54-4.16C263,154.51,262.33,156.34,263.49,157.19Zm-14.1,4.63c.82-3.09.33-5.47,1.27-8.63-1.6.73-3,2.7-3.85,4.63s-2,6.09-1.76,7.74c.6,4.37,2.53,7.25,7.4,8.91a8.12,8.12,0,0,0,9.24-2.55c1.36-1.53,2-3.28,3-5.13.22,2.23-2.26,4.31-2.44,5.79,2.15-1.9,4.68-6.65,5.37-10.69.19-1.15.34-2.84-.44-3.62-.63,1.44-1.39,5.65-2.09,7.14a27,27,0,0,0,.05-8.74c-3.4,1.32-5,6-7.07,9.69.19-2.3.26-4.53.5-6.86a9.32,9.32,0,0,1-1.06-5.81c-.29-.09-.23-.38-.62-.43-2.77,2.36-5.57,4.67-7.5,8.56Zm9.49,0c2-.58,4.55-5,2.48-6.78C258.46,155.82,258.37,159.3,258.88,161.85Zm-49.08-.58c-2.34-1.51-4.14.9-6.43.62-1.36,1.45-3.74,2.09-5.33,3.7s-2.49,3.65-3.82,5.38-3.54,3.4-3,5.89c6.05-6.31,12.77-12.05,21.27-13.79,1.45-.3,3,.17,4.3-1a8.24,8.24,0,0,0-7-.8ZM193,159.63c-2.75,2-5.78,3.57-7.95,6.68a2.89,2.89,0,0,0-2.18.61c-1.6,3.2-3.37,6.1-4.48,10.19-.4.8-1.24.81-1.69,1.51-3.73,7.52-4,14.89-6,23.24-1,4-2.87,8.08-3,11.13,5.05-12.85,10.46-23.56,17.07-32.77,4.11-5.75,9-10.44,12.91-16,1.69-.12,2.61-1.56,3.94-2.35s3.2-.82,4.16-2.28C201.38,158,197.25,159.78,193,159.63Zm57.17,15.68c-.58,1.56-.61,3.13-1.11,4.68-1,3-2.46,6.19-3.68,9.17-.66,1.62-1,3.22-1.64,4.78s-1.66,2.74-2.2,4.1c-2.16,5.43-4.44,10.69-6.69,16.05-2.17,5.2-4.83,10.21-7,15.46-4.23,10.21-9.92,19.77-14.74,29.95-4.54,9.58-10.26,19.06-15.39,28.76-2.66,5-6.45,10.8-9.15,15.08-2.46,3.89-4.7,8.61-7.23,11.89-3.08,4-5.63,8.24-8.8,12.18-1.59,2-2.72,4.18-4.32,6.24-3.17,4.09-6.12,8.19-8.81,12.18-1.43,2.13-2.71,4.33-4.15,6.54s-3,4.06-4.32,6.24-2.54,4.77-4.07,7.06c-5.44,8.16-10.58,18-15.72,28.16a150.38,150.38,0,0,0-6.84,15.76c-2.19,5.93-4.84,12.15-5.64,17.6a40.4,40.4,0,0,0-.07,6.23,16.53,16.53,0,0,0,.83,5.74c1.36-20.58,11.6-38.05,19.2-54.65,2.55-5.59,6-10.64,9-15.61s6.32-9.65,9.48-14.48,6.17-9.81,9.48-14.49c5-7.05,10.15-13.79,14.62-21,2.36-3.78,4.88-7,7.18-10.9,3.8-6.39,7.95-12.09,11.68-18.6,2.33-4.06,4.71-8.21,6.69-11.79,5.28-9.55,10-18.84,14.8-28.44a660.52,660.52,0,0,0,30.87-71.49c.16-.43,1.47-1.66.53-1.84a4.58,4.58,0,0,0-1.93-1.07,1.28,1.28,0,0,0-.9.49Zm-112.06-27.2c-1.9,2.92-2.17,6.43-3,10.13-1.51,7-3,14.28-4,21.34-.62,4.66-1,9.21-1.53,13.81s-.42,8.92-.64,13.31-.62,8.94-.63,13.32.17,8.6.26,12.82c.08,4.39-.35,8.78,0,13,.47,6.57,0,14.3,2.26,19.66.23.56.55,2.19,1.11,1.33,0-9.83-.54-19.57-.66-29.45,0-2.43,0-4.83-.12-7.28s0-5-.06-7.52c-.11-3.66-.51-7.25-.33-10.85.07-1.43.63-2.8.75-4.28.13-1.63-.12-3.32,0-5A245.83,245.83,0,0,1,134.29,175c.58-3.7.84-7.51,1.55-11.29,1-5.19,2.3-10.35,3.12-15.84,0-.15,0-.29-.16-.3a.65.65,0,0,0-.66.56ZM172,205.23c1.4,0,1.5-2.44,2.62-3a233.69,233.69,0,0,0,15.88-27.87c0-.14.05-.28-.16-.3A104,104,0,0,0,172,205.23Zm-2.46-20.72c-1.41,1.9-2.63,4.45-4.16,6.54s-3.73,4.15-4.55,6.17a28.1,28.1,0,0,0-.64,3.07c-.23.89-1.25,1.74-.51,2.6a153.77,153.77,0,0,1,10.44-15.21c1.29-1.65,3-2.86,3.85-4.62.92-2,1.1-4,2-6.16.52-.7,1.44-.67,1.92-1.44-.05-1.5,1.83-2.86.85-3.75C175.83,175.48,172.93,179.94,169.51,184.51Zm-43-5.28c2.38-6.56,7.21-12.22,6.94-19.48C131.16,164.51,126.74,172.78,126.55,179.23Zm28.26-6c-.71,7.5-1.74,15-2.5,22.27-.27,2.55-.3,5.1-.7,7.55-.68,4.07-2.28,8.63-2.19,12.61,0,1.09.42,2,.35,3.1-.23,3.76-1.8,7.32-2.7,11-.75,3-.79,6.16-1.7,9.25-1.61,5.47-3.44,10.92-4.61,16.66,1.57-.86,1.81-2.89,2.79-4.44,1.13-1.78,2.45-3.24,3.2-5.81,2.67-9.15,4.91-20.5,7.82-30.22,0-.81-.89-.34-1.32-.64-1.5-1.07-.72-3.21-.43-5.37.84-6.14,1.37-12.3,1.69-17.76.36-6.28,1.16-13.31.89-18.49-.29-.1-.23-.39-.62-.44-.05.29-.23.65,0,.76Zm-24.5.85a83.82,83.82,0,0,0-5,14.55c-2.67,10.6-2.39,20.09-1.94,28.93a232.74,232.74,0,0,0,4.42,34.54c.72-3,0-6-.11-9-.11-3.21.08-6.48.08-9.73s-.24-6.37-.21-9.56c.19-16.53.9-32.83,3.42-50.25-.34,0-.41.43-.66.55Zm37.74,18c-1.22,1.66-2.8,3.32-4,5.09-8.35,12.44-12,31.63-16.4,48.46,1.59-.28,2.53-2,3.45-3.24a103.14,103.14,0,0,0,13.49-24.81c1.51-4,3.12-8,4.26-12,1.79-6.28,2.17-12.93,4.06-19.07-.29-.1-.23-.39-.62-.43-1.54,1.95-2.75,3.95-4.26,6Zm1.1,21.07c.68-1,2.14-2.45,1.9-3.94C170.66,210.74,169.13,212.06,169.15,213.16Zm33.68,31.08c-4.86.83-10.18,3.67-15.42,5.75a140.11,140.11,0,0,0-14.78,6.94c-8.67,4.64-19.89,10.93-26.78,18.93-3.87,4.51-6.76,10.48-9.46,17A113.36,113.36,0,0,0,129.18,321c1.71-2.61,2.45-5.59,4.26-7.76.61-.72,1.48-1.24,2.06-1.9,2.49-2.82,4.48-5.84,7.36-8.1,1.63.59,3.47-.79,5.51-.89,1.77-.08,5.54.15,6.56.66,2,1,2.17,3.13,3.23,5.2,2.69,1.06,2.41,3.71,2.28,5.91-.09,1.43-.82,2.94-.82,4.52,0,1.34.8,1.86.81,3.23a24.21,24.21,0,0,1-.63,5.57c-.55,2.12-2.08,4-2.87,6.41-.32,1-.26,2-.64,3.06-1.22,3.21-4.11,5.85-6,9.27-.5.93-.58,2-1.1,2.92a36.92,36.92,0,0,1-3.49,4.24c-3.54,4.35-7.34,8.57-10.36,13.23a76,76,0,0,0-5.73,11.07c-4,9.15-6.3,19.1-8.11,28.64-.74,3.92-1.91,8-1.65,12.52,2.46-6.7,4-12.42,6.73-18.79.73-1.69,1.89-3.27,2.7-5,9.55-19.83,20.44-36.76,31.65-52.77,3.11-4.43,6.22-9.08,9.14-13.33,1-1.51,2.26-2.81,3.26-4.3.57-.86.71-1.82,1.26-2.63.44-.64,1.25-1,1.76-1.74,2.2-3,4.12-6.2,5.89-9,5-8,10.05-15.56,14.67-23.72,7.35-13,14.58-26.34,21.86-40.63-4.77-2.39-11.66-3.39-16-2.66ZM106.3,286.32c-1.33-1.39-1.55-3.27-2.31-4.92s-2-3.12-2.85-4.83c-.45-.95-.62-2-1.1-3.08-2.87-6.21-5.33-12.79-8.3-18.67-.53-1-.84-2.39-1.33-3.14s-1.51-1.35-2.13-2.12c-1.86-2.27-3.44-4.79-5.21-7-2.48-3.13-5.11-6.37-8.75-8.55-3.33-4.24-9.19-9-13.71-13-1.66-1.47-3.5-3.26-5.31-4.06-.69-.3-1.57-.17-2.38-.44s-1.87-1.12-3-1.63-2.51-.82-3.62-1.31c-1.54-.68-3-2.14-4.24-1.74-2.13.72-4.89-.27-7.52.06a10.75,10.75,0,0,0-3.9,1.36c-3.29,2.38-3.65,7-1.17,9.16s6.36,2,10,3.42c7.14,2.73,14.22,7.24,20.28,11.92,2.16,1.66,4.33,3.74,6.2,5.31.68.57,1.57,1.08,2.26,1.66,4.26,3.56,7.22,7.87,10.39,11.53,1.14,1.31,2.48,2.49,3.64,3.81,5.72,6.57,10.55,13.83,15.8,20.37,1,1.19,2.49,3,2,4.33-3.69-4.66-7.19-9.52-10.8-14.41-1.78-2.41-3.49-5-5.36-7.31s-4.17-4.51-6.26-6.83c-7.15-7.91-14.9-15.86-24.24-22.32-1.18-.83-2.76-2.26-4.4-2a81.57,81.57,0,0,0,6.76,6c1.57,4.69,5.65,8,9.09,11.66.21,2.33,2.15,3.48,3.54,5,2.59,2.9,4.84,6.31,7.92,8.81.13.71.27,1.41.39,2.12,2.24,2,4,4.56,6.09,6.53.73.67,1.57,1.55,2.36,2.18,2.05,1.64,4.69,2.61,6.77,4.23a35.42,35.42,0,0,1,4.2,4.47,21.83,21.83,0,0,1,3.59,4.81c1.72.86,2.49,2.24,4.37,3a47.05,47.05,0,0,0,2.71,5.29c1,1.76,1.5,3.88,3.23,5.19-.32-5.43-2.9-9.63-3.67-14.82ZM36.84,227.05c3.36,2.06,6.34,4.69,9.46,7,3.7,2.75,6.52,6,9.74,8.59,1,.82,2.06,2.57,3.12,2.16-1.44-.89-2-2.36-3.18-3.67-.84-1-2.29-1.54-3-2.63-.48-.74-.28-1.73-.78-2.47a14.87,14.87,0,0,0-2.59-2.26,34,34,0,0,0-2.89-2.09c-3.26-2.11-5.92-4.18-10.16-5.47-.2.44.18.55.26.83Zm138.09,136.8c4.41-3.12,9.56-4.9,14.54-7,.49-.65,1.13-1,1.53-1.81a31.17,31.17,0,0,0,9.89-7.36c3.54-4.19,7.8-7.51,10.3-13,.46-.84-.9-.68-.29-1.59,2.37-3.81,3.67-7.41,5.87-11.54-.9-1.68-.19-3.95-.83-5.74-.2-.57-1.07-1.34-1.6-2.22-.87-1.44-1.23-2.76-2.25-3.4-4.25-2.66-8.63.9-12.87,1.24-2.47,2.6-5.11,4.78-7.56,7.05a45.46,45.46,0,0,0-4.4,4,26.25,26.25,0,0,0-4.59,7.16c-2.71,2-5,5.66-6.48,9.36a19.79,19.79,0,0,1-.81,2.77c-.5.84-1.75,1.28-2.35,2.06-1.39,1.81-2.18,4.16-3.27,6.05A42.56,42.56,0,0,1,166,355c-2.63,3.32-4.91,6.9-7.9,9.95s-5.73,5.83-8.49,8.52-6.25,5.16-8.1,8.89c2.15-2,4.46-4.21,6.83-6.26s4.53-4.6,6.92-5.73c-4.68,4.55-9.64,9.09-13.89,14.2-2.14,2.57-4.67,5-5.29,8.7,10.91-13.51,23.78-23.46,38.84-29.42Zm-43.53,7.8c3.11-6.87,7.9-11.59,11.76-16.32.79-1,1.39-2.3,2.23-3.35s2-1.78,2.55-2.75.66-2.22,1.17-3.16c1.81-3.31,4.92-5.59,6.12-9,.25-.71,0-1.61.21-2.44a27.84,27.84,0,0,1,1.84-3.72,29,29,0,0,0,1.67-4,18.27,18.27,0,0,0,.81-4.51c0-.78-.85-2-.87-3-.06-3.06,1.65-6.08.42-9.13-1.7-.82-2-2.31-2.82-4.07a5.05,5.05,0,0,0-1.76-2.51,14.27,14.27,0,0,0-3.59-.55c-3.74-.36-5.53,1-8.38,1.3-1.49,1.49-3.1,3.17-4.75,5.12-.72.85-1.28,1.9-2.09,2.89S134.1,314,133.43,315c-1.7,2.46-2.75,5.35-4.16,8.29-.47,1-1.22,1.89-1.57,2.79-.74,1.88-.84,4.62-1.56,7a25.73,25.73,0,0,0-1,4.45c-.12.89-.51,2-.51,2.6,0,.87.63,1.61.77,2.48.51,3-.28,6.19.42,8.87l-.54,1.84a18.25,18.25,0,0,1,.83,4c.1,2.26-.58,3.86-1,6.19-.6,2.92-.74,6.15-1.41,9.09-.78,3.45-2,6.86-2.66,10-.18.82-1,2,0,2.74,6.9-18.92,12.31-41.89,19.68-58,.5-1.1.59-2.84,1.93-3.19-5.34,10.65-9.13,25.66-13.46,37.57-1.88,5.16-3.41,11.05-5.14,16.76-1.78,5.87-4.37,11.62-5.5,17.14-1.73,8.37-4.16,17.57-4.87,26.08-.13,1.68.15,3.49,0,5.24-.18,1.92-.62,3.74-.62,5.57s.3,3.41.27,5.08c-.08,3.53-.25,5.31.45,7.88,1.18,4.35,3.43,7.48,6.1,10.78a33,33,0,0,1,2.81,4.08,18,18,0,0,0,1.21,1.85,52.05,52.05,0,0,0,7.71,7c1.16-.6,2-1.82,2.36-3.81-2.65-3.93-6.6-6.65-9.2-10.44-2.33-3.39-5-7.69-5.93-12.23-.23-1.1-.21-2.52-.38-3.86a64.49,64.49,0,0,1-.39-12.36c.42-5.76,1.23-11.88,2.21-17.86s2-12.37,3.41-18.51,2.68-12.47,5.24-18c-.82,3.93-3.09,8.93-2.8,12.18,1.85-4.49,3.64-8.7,5.44-12.66Zm-28.07-73.44a170.31,170.31,0,0,1,8.28,22.16c3,10.26,4,21.43,3.7,33.59-.15,6-.64,12-.83,18.25-.37,12.2-1.68,24.48-2.25,36.85-.29,6.29-.83,12.42,0,18,.8-6,1.28-12.05,2.27-18.09.82-4.93,2.19-9.92,3-14.39.28-1.57.7-3.22.89-4.74.55-4.35.08-8.9.64-13.31.28-2.28.6-4.44.73-6.79s.74-4.74.79-7a33.49,33.49,0,0,0-.37-3.86c-.11-1.32,0-2.67-.07-4a167.08,167.08,0,0,0-3.15-26.92c-.52-2.53-.93-5-1.34-7.39a50.13,50.13,0,0,0-3.21-10.44,62.79,62.79,0,0,0-2.76-6.81c-.6-1.09-1.59-2-2.32-3.17s-1-2.45-1.73-3.51-1.85-2-2.62-3-1.59-2.1-2.32-3.18l-.69-.2c.73,2.93,2.23,5.33,3.41,8Zm16.74,83.13c2.28-5.51,2.89-10.73,4-16.32.6-3,1.55-6.09,1.27-8.63-.12-1.11-.76-2.15-.8-3.24,0-.74.38-1.4.37-2.14,0-1.83-.31-4.65-.46-6.14-2.89,12.94-3.69,24.73-4.39,36.47Zm41.77,40.2c-3.29-.87-7.54,1-9.8,1.89A43.16,43.16,0,0,0,143.7,428c-6.22,4-12.44,10.62-14.68,19.46a32.21,32.21,0,0,0-.56,5.34c-.08,1.46-.45,3.81,0,5,.41,1,1.71,1.62,2.53,2.49s1.33,2.34,2.75,2.55c.42-7.23-1.66-14.15,2.16-21.12,1.93-3.5,6.41-6.19,9.74-7.66,2.36-1,4.43-1.19,7.23-1.64a49.78,49.78,0,0,1,16.94.2c4.27.92,7.59,1.77,11.26,2.53,2.25.47,4.48,1.37,6.59,1.43,1,0,2.46-.59,3.63-.44,3.22,1.27,9,4,12.67,3.69,1-.09,1.62-.9,2.47-.77,2.38.45,5.19,1.12,7.81,1.52s4.88-.08,7.58-.28c5.73-.44,10.95,2.27,15-.11,1.84-4.65,7.82-4.95,8.79-10.44.21-1.15-.56-1.67-.05-3.26-.27-2.09-2.51-4.58-3.36-6.48-.4-.92-.25-1.75-.77-2.48-1.11-1.54-2.87-2-4.9-2.93-1-.46-2-1.12-3-1.63-2.51-1.21-5.15-3-7.82-4-3.67-1.36-7.33-1.63-11.2-2.77-1.41-.42-2.68-1.15-4.08-1.44-6.05-1.25-11.79.68-16.81-.66-5.92,1.67-11.75,3.51-18.22,4.19-7.69,3.53-15.59,8.93-23.05,13-2.64,1.44-5.65,2.37-8.13,3.88-.9.54-2,1.79-3.31,2.78a53.18,53.18,0,0,0-9.62,8.94c-1.89,2.47-4.62,10.22-5.35,14.94-.24,1.54-.42,3.12,1.43,3.67.6-4.83,1.12-9.34,3.11-14.09,3.11-7.47,10.54-12.81,16.24-16.26a24.29,24.29,0,0,1,6.88-3,121.49,121.49,0,0,1,23.49-3.39c1.49-.06,2.9.32,4.42.29,1.27,0,2.62-.55,3.92-.61a22.77,22.77,0,0,1,7.41,1.17c1.44.39,3.26.36,4.81.65,1.77.33,3.51,1,5.14,1.25,5.31.85,10.58.69,15.48,1.77-4.94-.42-10.16-.43-15.62-1.31-3-.49-6.07-1.76-9.25-1.7,1.09,2.31,4.92,3.11,6.5,5.14a63.05,63.05,0,0,1-6.31-4.09,16,16,0,0,0-2-1.59c-1.72-.72-4.88-.43-7.38-.4-3.89,0-7.77.16-10.85.33-3.74.2-7.9-.05-10.5,1.69,4.71,2.52,8.06,5.78,12.55,8.41-5.88-1.93-7.69-6.67-13.6-8.22ZM31.61,430c8.6,3.81,18.64,5.85,27.94,7.91-.15-.6-1.1-1.2-1.57-1.46-.81-.44-1.62-.79-2.4-1.2-3.22-1.7-6.16-3.46-8.78-5.06a104.81,104.81,0,0,0-14.46-7c-3.5-1.46-6.89-3.09-10.27-4.24s-7-1.55-9.35-2.23c-.81-.23-1.44-.73-2.23-.9-1.89-.4-3.31,0-4.95-.2-1.45-.13-2.84-.68-3.82-.61s-1.65.8-2.77.94c-7.57-2-13.94-1.89-20.1-1.37-.79-.25-.55,1.37-1.33,1.12-4.42-.3-7.9,1.12-11.78,1.81-2.21,2.21-5.81,4.1-8.34,6.31-1.92,1.68-5,4.33-5.91,6.53a33.41,33.41,0,0,0-1.85,7.21c-.75,5.29,2.71,7.29,6.3,10.09a18,18,0,0,0,4.6,3.09c.65.49.26,1.54,1.21,1.85,7,3.48,15.07,5.13,22.32,5.77,1,.26.15,1.59,1.51,1.69,6.49-.17,13.86,1.28,19.26-.88,1.14.08.49,1.15,1.64,1.23,3.7-3.14,8.6-4.07,12.5-6.85,4.46-.46,8-3.76,12.49-5.11,2.47-.75,5.42-.75,8.54-1,2.9-.24,5.82-.83,8.55-1a57.67,57.67,0,0,1,7.35-.36c2.28.19,4.15,1.39,6.42,1.13A18.94,18.94,0,0,0,64,448.48c11.51,4.19,23.19,9.87,36,12.76,3.58.81,7.25.85,10.77,1.65,5.41,1.22,12.22,3.68,16.75,5.14.23-1.26-1.26-1.4-2-1.83-3.62-2.21-6.74-3.85-10.55-5.83-1.35-.7-2.66-1.81-4.05-2.43-9.8-4.34-19.9-10.1-32-12.08.39-.7,1.81.47,2-.68-7.46-2.39-15.09-5.39-22.74-6.89-2.56-.5-5.86-.85-8.8-1.56-1.38-.34-2.54-.88-3.68-1.08-4.68-.83-7,1.67-10,3.34,1.75-1.75,4-2.6,5.93-4-5.89-2.18-10.65-1.39-16.34-2.27a72.4,72.4,0,0,0-16-.92c-2.12.14-4.45,0-5.83.3-5,1.23-7.16,7.21-11.36,8.94,2.9-2.6,5.65-5.47,8.42-8.3-5.16-.11-10.1,1.13-15,1.86s-10,1.79-15,1.63c7-1,14.34-2.26,21-3.37,2.37-.4,4.91-.16,6.94-1.48-2.77-1.19-6.3-2-8.19-3.64,4,1.44,7.3,3.67,11.61,3.89,2.42.12,5.21-.6,7.72-.75A115.72,115.72,0,0,1,31,432.11c1.32.17,2.88.84,4.25,0-2.47-1.53-5.9-2.86-8.74-4.31-2.08-1.06-4-2.34-6.05-3.26-.73-.32-2.11-.1-2.4-1.2,4.87,1.43,8.67,4.54,13.55,6.7ZM132.75,469.8c4.73,1.6,7.83,4.1,12.6,5.68-1.43-2.62-3.91-4.6-5.73-6.93a26.29,26.29,0,0,1-4.18-8l-.69-.2A15.18,15.18,0,0,1,132.75,469.8ZM53.53,447.43c-4.51.17-8.57,1-12.64,1.31-3,.24-5.59.09-8.24.85s-5.26,1.56-7.17,3.15c6.43-.94,13.35-1.47,19.89-2.19a42.6,42.6,0,0,1,7.05-.19c3.52.21,7.13.36,10.58.58,1,.07,2.41.45,3.33-.27A24.06,24.06,0,0,0,53.53,447.43Z" transform="translate(51.23 -10.12)"/><path class="cls-1" d="M163.25,115.18a3.77,3.77,0,0,1,0-2.73c-.19-.61-.08-1.37-.45-1.88a7.59,7.59,0,0,0,.12-3c0-.43.35-.41.3-.16C163.27,110,163.77,112.32,163.25,115.18Z" transform="translate(51.23 -10.12)"/><path class="cls-1" d="M219.17,136c-1.61,1.65-5.23,2.7-7.34,4.61C213.06,138.26,216.82,137.48,219.17,136Z" transform="translate(51.23 -10.12)"/><path class="cls-1" d="M162.66,125.76c.93.77.09,2.34,0,3.5a31.53,31.53,0,0,0,0,3.49l-.4,1.38a26.44,26.44,0,0,1-.64,7.32C161.8,136.3,162.14,131.08,162.66,125.76Z" transform="translate(51.23 -10.12)"/><path class="cls-1" d="M158.22,171c.5,1-.71,3-.46,4.12C157.05,175,157.89,172.31,158.22,171Z" transform="translate(51.23 -10.12)"/><path class="cls-1" d="M257,238.55c1.45.5,3.65,2.26,4.1,3.95a12.57,12.57,0,0,1,3.66,4.57C262.22,244.2,260.14,241.09,257,238.55Z" transform="translate(51.23 -10.12)"/><path class="cls-1" d="M214.47,238.64c-.48,1.16-3.83,1-6.17,1.45-2,.34-3.83,1.2-5.58,1.12,3.51-1.6,8-1.41,11.75-2.57Z" transform="translate(51.23 -10.12)"/><path class="cls-1" d="M202.49,241.14c-7.58,2.18-15.25,4.19-22.2,7.52,1-1.21,2.79-1.55,4.4-2.21s3.05-1.66,4.63-2.15c.75-.24,1.63-.09,2.34-.32,3-1,7.13-2.65,10.83-2.84Z" transform="translate(51.23 -10.12)"/><path class="cls-1" d="M205,319.88c-.45,2-1.93,3.74-3.06,5.36a116.59,116.59,0,0,1-11.49,13.65c.48-1.53,2-2.38,3.06-3.61A164,164,0,0,0,205,319.88Z" transform="translate(51.23 -10.12)"/><path class="cls-1" d="M150,310.34a62.39,62.39,0,0,1-3.87,8.12A49.74,49.74,0,0,1,150,310.34Z" transform="translate(51.23 -10.12)"/><path class="cls-1" d="M185.06,344.56c.44-1.44,2.63-2.72,3.71-4.17C188.92,341.32,186,343.25,185.06,344.56Z" transform="translate(51.23 -10.12)"/><path class="cls-1" d="M183.93,345c-.66,1.89-2.55,3-4,4.33s-2.88,2.91-4.47,4.19-3.31,2.3-4.81,3.6-2.79,3-4.63,3.9C171.62,355,178.5,351.31,183.93,345Z" transform="translate(51.23 -10.12)"/><path class="cls-1" d="M164.45,362.05c-1.47,2.61-5.19,4.18-7.26,6.88-.36-.2-.48.05-.59.33.81-2,3.3-2.95,5.07-4.53.38-.34.5-.93.86-1.24s.89-.21,1.13-.43c.41-.36.27-.9.79-1Z" transform="translate(51.23 -10.12)"/><path class="cls-1" d="M235.66,425.58a121,121,0,0,0-15.58-2.29c2.8-.67,7.78.65,12.36,1.35,1.1.17,2.82-.39,3.22.94Z" transform="translate(51.23 -10.12)"/><path class="cls-1" d="M200.12,425.71c1.2-.07,2.59,1.42,4.25,1.74C205.63,428.75,201.06,426.36,200.12,425.71Z" transform="translate(51.23 -10.12)"/><path class="cls-1" d="M69.66,446.14c-2,1.14-5,.28-7.26.88C63.74,446.16,67.19,446.11,69.66,446.14Z" transform="translate(51.23 -10.12)"/><path class="cls-1" d="M-23.52,424.44c-1.24.09-5.09-.49-7.15-.33a2.84,2.84,0,0,1,2.05-.16A11.83,11.83,0,0,1-23.52,424.44Z" transform="translate(51.23 -10.12)"/><path class="cls-1" d="M-8.81,441.74c.16,1.13-1.73,1.54-2.1,2.89-.64-.22-1.15.89-1.85,1.2s-1.89.64-1.75,0C-12.11,445.36-10.56,443.37-8.81,441.74Z" transform="translate(51.23 -10.12)"/></svg>