<svg id="Layer_1" data-name="Layer 1" xmlns="http://www.w3.org/2000/svg" viewBox="0 0 319.5 513.17"><defs><style>.cls-1{fill:#e9d000;fill-rule:evenodd;}</style></defs><path class="cls-1" d="M-9.37,38.36c.57.59.57,1.49.9,2.24a64.6,64.6,0,0,0,4.36,7.23c-2.77-1.06-4.48-5.94-5.26-9.47Z" transform="translate(51.23 -10.12)"/><path class="cls-1" d="M63.82,57c.73,1.57,1.59,4.27.79,5.28,0-2.87-2-6.2-2.75-7.7A6.67,6.67,0,0,1,63.82,57Z" transform="translate(51.23 -10.12)"/><path class="cls-1" d="M57.17,156.7a19.78,19.78,0,0,1-.69-5.8A16.87,16.87,0,0,1,57.17,156.7Z" transform="translate(51.23 -10.12)"/><path class="cls-1" d="M58.46,168.83c-.32-2.56-1.15-5.4-.71-7.55A43.17,43.17,0,0,1,58.46,168.83Z" transform="translate(51.23 -10.12)"/><path class="cls-1" d="M-36,235.66c3.7-2.42,9.09-2.51,12.94-2.78a17.07,17.07,0,0,1,5,0c-5.32.64-10,.17-16.11,2.2-.75.4-1,1.06-1.84.54Z" transform="translate(51.23 -10.12)"/><path class="cls-1" d="M74.82,328.56c-.17-1.81-1.57-3.24-1.34-4.61C73.86,325.31,75.37,327.76,74.82,328.56Z" transform="translate(51.23 -10.12)"/><path class="cls-1" d="M77.68,337.48a33.69,33.69,0,0,0-1.71-5c.3-.09.09-.46.32-.59C76.66,333.69,77.81,335.94,77.68,337.48Z" transform="translate(51.23 -10.12)"/><path class="cls-1" d="M80.63,347.61c-.52-2.35-1.83-5.13-1.85-7.21C79.56,342.42,81,345.68,80.63,347.61Z" transform="translate(51.23 -10.12)"/><path class="cls-1" d="M81.16,347.71a16.31,16.31,0,0,1,.91,4c.42.74.05,1.42-.16.3a18.82,18.82,0,0,0-1.07-3.69c0-.27.15-.43.32-.59Z" transform="translate(51.23 -10.12)"/><path class="cls-1" d="M231.28,426.9c-.43.14-4.47.89-2.67.28l3-.87a6.73,6.73,0,0,1,2.46-1c.45,0,1.28-.67,1.45-.18C234.3,425.23,232.83,426.42,231.28,426.9Z" transform="translate(51.23 -10.12)"/><path class="cls-1" d="M-6.4,249c-2.6,1.11-5.33,1.52-7.76,2.51-1.61.66-2.93,1.55-4.48,1.81-.66.11-1.59-.17-2.27-.09-2,.25-3.9,1.37-6.45,1.88a31.49,31.49,0,0,1-7.16.34c-2.37-.18-5.32.63-7.15.34-1.15-.19-7.36-1.93-7.73-2.5-1.3-2,.82-4.34.73-5.21,1.12-.64-.41,1.33-.45,1.88.93,1.26-.28,1.6.51,2.6,1.24,1.62,3.77,1.06,5.71,1.59.81.21,1.47.72,2.25.84,2.2.33,4.43-.65,7-.8,1,0,2.07.4,3.1.35,3.77-.19,7-2,10.73-2.63,4.27-.73,10-2.4,13.16-4.59a35.25,35.25,0,0,0-3-6.12c-.35-.49-1.2-.89-1.4-1.34,0,.06.33-.51.33-.6a6.51,6.51,0,0,0-1-2.47c-1.48-3.43-2.89-3.56-5.69-4.08,1.43-.49,2.46.81,3.65-.32-1.26-3.89-3.43-7.53-5.27-11.21-.88-1.77-1.27-3.65-2.07-5.4-.56-1.21-1.47-2.23-2-3.42-.76-1.7-1.09-3.57-1.78-5.23-2.64-6.4-5.15-12.48-7.88-18.45-2-4.25-3.19-11.08-6.2-12.69-1.14-.61-2.69-.17-3.93-.6-5.86-2.05-8.85-11-8.28-18.09.07-.74,1.64-.65,1.58-1.46,1.38-2.68,1.72-6.45,5.06-7.48s6.19,1.18,8.79,2.69c.61.19,1.58-.29,2,.15,5.22,4,8.73,14.57,4.8,19.86-1.25,1.68-3.19,2.34-3.34,4-.13,1.32.77,3.7,1.31,5.37,1.06,3.29,2.92,6.7,3.91,9.11,2.71,6.55,5.54,14.24,8.19,20.36.44,1,.47,2.05.88,3,.25.59,1,1.06,1.23,1.64.37.83.36,1.75.74,2.54.57,1.22,1.45,2.2,2,3.42,2.18,4.83,3.35,8.9,5.75,12.82,2.13.86,3.91,0,6.16-.3,8-1,15.52,2.13,22.45,4.95a149.93,149.93,0,0,1,19.74,10.24c13,7.71,26.44,15.07,36.21,26.43-1.59-9.75-5.7-19.89-9.75-27.4-3.32-2.41-5.38-5.89-7.83-9.72-6.11-9.55-10.54-21.84-15.88-32.12-.75-1.45-1.48-3.3-2.33-4.57-1.12-1.67-2.79-2.72-3.78-4.39-.39-.65-.48-1.56-.91-2.24S34.48,192.83,34,192c-.81-1.34-1.49-2.92-2.26-4.34s-1.26-3.22-2.11-4.63c-.42-.71-1.49-1.5-2.19-2.36a53.59,53.59,0,0,0-6.93-7.48,39,39,0,0,0-5.16-4c-.94-.56-2-.82-2.91-1.4s-1.71-1.54-2.59-2a24.24,24.24,0,0,0-8.94-2.39c-1.49-.06-3,.87-4.32-.24,4-3.69,10.83-2.41,15.3-5a86.11,86.11,0,0,0-8.59-3.75,39.54,39.54,0,0,1-4.7-2.38c-.61-.33-1.39-.36-1.95-.68-3.06-1.76-4.5-3.74-7.12-6.42a23.65,23.65,0,0,1-3.79-4.4c-.38-.68-.31-1.51-.67-2.3s-1-1.16-1.29-1.87c-.7-1.69-.95-3.76-1.68-5.76,2.31-1.91,9-4.5,11.81-3.2-3.46.46-9.09.91-10.86,3.92.68,1.69.65,3.06,1.35,4.61.46,1,1.6,1.59,2,2.43s.12,1.68.44,2.37a14.82,14.82,0,0,0,2.76,3.44c1,1,2.32,1.57,3.24,2.56.7.75.87,1.78,1.43,2.33s2.14,1,3.51,1.73,2.44,1.5,3.57,1.95,2.08.49,3,.88,1.61,1.1,2.45,1.53,1.83.57,2.78.94c2,.8,3.61,2,5.38,2.18a35.17,35.17,0,0,0,7.68-.24,42.46,42.46,0,0,1,7.12,4.67c.54.45,1.38,1.92,2.31,1.08-3.61-4.85-8.37-8.48-12.83-12.26-.34-.29-.35-.52-.73-.79-.91-.64-1.56-1.56-2.42-2.29-3.36-2.87-7.46-4.56-10-7.82,7.23,4.78,13.78,10.59,20.34,16.56,3.69,3.37,7.4,6.5,9.89,11.62,3.33,2.15,5.21,7,8.29,9.58a93.83,93.83,0,0,0-7.42-12.59c-1-1.31-1.74-2.68-2.66-4-.58-.8-1.57-1.33-2.12-2.13-.67-1-.94-2-1.64-3-1.81-2.63-4.08-4.8-5.87-7.28-2.51-3.48-5-7.12-7.84-9.71-.83-.77-2.13-1.31-3.11-2.1-2.17-1.75-3.92-3.21-5.89-4.78A26,26,0,0,0,5,130.42c-3.4-1.84-7.39-1.44-10.9-3.07,1.61.15,3.3.26,4.92.57,2,.38,4.79.79,6.24,1.68a63.14,63.14,0,0,1,6.49,5.1c.79.67,1.36,1.55,2.12,2.13s2,.9,2.68,1.47c3.07,2.45,6.24,7.34,8.86,10.67,1.6,2,3.19,3.41,4.65,5.64,2.43,3.72,4.82,7,7.28,10.38,4.89,6.67,9.13,15.49,13.74,22.24.76,1.11,1.44,2.56,2.69,3.21a227.56,227.56,0,0,0-7.58-22.54c-1.4-3.61-2.51-7.29-3.92-10.85-2.92-7.39-5.22-15.16-8.2-22.11-.9-2.1-2.14-4-3-6.12-1.81-4.23-2.75-8.13-4.38-12.46-1.15-3-3-5.82-4.31-8.75-2.22-5.07-4-10.42-6.25-15.43C12.73,84.82,8.88,77.44,5.65,71,1.92,63.49-.66,56.52-5.83,51.33c-1.11,0-2.1-.91-3.08-1.1-1.5-.31-3,.08-4.32-.24-.39-.1-.91-.41-1.42-.59s-1.2-.12-1.58-.29-.42-.82-.8-1-.93.06-1.28-.13c-.76-.39-1.22-1.1-2.15-1.37-1.55-.45-3.33,0-4.92-.57l-2.07.61c-4.19-1.08-10.66,2-15.58,2.3-.63-1.37,1-2.33.34-3.1-.66-.45-1.73-.14-2.08-1.15.13-1.37,2.32-1.65,1-3.3.46-.39,1.35-.55,1.71-1,.65-.59-1-1.26.06-1.51.6-.58,1.7-.88,2.33-1.43.47-.74-.88-1.35-.37-2.15a13.87,13.87,0,0,1,5.66-1.15c-.33-1.58-1.94-2.31-1.3-3.62,2.29-1.79,4.23,0,6.88-1.26,1.54.19,3.84.69,5.24,0-.48-1.68-1.18-3.48-.88-4.74,1.29-.48,2.14-.13,3.19-.18,1-.57.09-2.15,1.24-2.61,1.91-.07,3,1.35,4.89,1.32.47-1.61.52-3.45,1.92-4.56,1.62.1,2.77,1.06,4.19,1.53,1.16-2.16,2.79-6.22,6.5-5.15.52-2,3.49-1,4.34-2.27,1-.35,1,1.16,1.85,1.21.91-1,1.41-2.32,3.15-2.92.86-.27.53,1.62,1.39,1.35,1-.68,1.49-1.63,2.89-2.1.49.92-.13,1.81.67,2.31.67-.6,1.5-1.93,2.8-1.57.3,1.72-.87,2.63-.77,4.23,1.32.53,3.49-.48,4,1.59a10.64,10.64,0,0,1-5.59,3.13c-.72,1.8-2.11,3.23-2.77,5.06.67,4.36-2.87,6.18-4.6,9.09a12,12,0,0,0-1,2.55,25,25,0,0,0-.28,3.33c-.12,1-.68,2.15-.28,3.33-1.54.39-.64,1.31-1.43,1.92-.28.21-.92.11-.86.5.74,1.29-.58,1.8-.57,3.17C6,63.29,13.82,76.4,20.17,90.74c1.72,3.88,3,7.94,4.72,11.88,4.35,9.93,8.9,20,13.06,30.19,2.8,6.88,5.38,14.07,8.16,21.12s5.55,14.21,8,21.41c1.76,5.17,2.56,10.59,5,15.53.45-2.15-.06-4.5-.5-6.85-1.19-6.36-2.86-12.67-4.13-19.29-.76-4-1.61-8.09-2.74-12-2.43-8.35-6.18-16-7.38-23.59-.12-.73.15-1.5.08-2.28s-.31-1.38-.37-2.14c-.35-4.23-1.17-9.33-.2-12.69.33-1.17,1.22-2.11,1.56-3.21s.09-2.1.34-3.1c.66-2.51,2.44-4.54,3.16-7.17,2.11-.4,4-3.07,6.58-3.17A47.48,47.48,0,0,1,60,103.11c1.3,3.07,1.56,7,2.73,10.21.31.84.92,1.37,1.13,2.17,1.19,4.52-.17,9.13,1.49,12.81-.52,6.38-1.82,13-2.95,19.86-.55,3.35-.25,6.72-.17,10.55,0,1.75,0,3.71.1,5.48.09,1.94-.1,3.74.09,5.47.13,1.2.64,2.36.78,3.52.39,3.16.24,6.63.68,10,.58,4.44.83,9.11,1.46,13.58.52,3.63.93,7.27,1.65,10.77.53,2.58,1.55,5.11,1.76,7.73.14,1.85-.39,3.93-.07,5.77s1.16,3.68,1.61,5.53c1.92,7.84,3.75,16,5.94,23.77.82,2.9,1.43,5.8,2.26,8.59a99.46,99.46,0,0,0,4.72,13.63c1.05-5.55.33-11.25.8-17,.34-4.21.45-8.61.49-12.89,0-3.27.22-7,.37-9.86.07-1.34-.22-2.67-.16-4s.56-2.62.61-3.93c.17-4.56-.94-8.71-.27-12.92-1-2.75-.24-4.25-.37-6.4s-.38-4.67-.57-7.08-.1-4.61-.27-6.92c-.39-5.36-1.7-12.17-2.3-17.33-.17-1.41-.28-2.73-.46-4.12-.38-2.94-1.19-5.73-1.72-8.49a23,23,0,0,0-.49-3.36,22.92,22.92,0,0,0-2.06-3.65c-2.11-3.52-5-7.29-6.33-11.41-.43-1.33-.31-2.81-.68-4.05-1.16-3.87-2.66-6.54-2.63-10.73,0-.8.34-1.92.41-2.87.23-3.07.36-6.63,1.17-8.84.35-1,1.6-1.94,1.73-3.51.09-1.15-.56-3-.82-4.51a44.63,44.63,0,0,0-1.29-6.12c-1-3.34-1.45-7.08-2.74-12C64.19,85.14,61.13,72,59,69.66c-1-1.12-2.91-1-4.33-2a12.2,12.2,0,0,1-4.06-7.07c-.89-4.73,1.23-9.52,6.69-10.45,2.43,1.09,5.4,1.37,7.31,3.62s3.35,7.38,2,10.4c-.63,1.46-2.8,2.51-3.11,3.91-.45,2,1,5,1.55,7,2.46,9,4.57,17.59,7.34,26.86,1.09-1,1.12-2.61,3.08-3.15A12.51,12.51,0,0,1,80.84,93c.3,1.88-.54,3.6-.66,5.44-.42,6.46,1,13.55,2.49,20.53.77,3.72,1.61,7.16,2.4,10.79.51,2.34,1,4.73,1.56,7,1.4,5.69,3.5,11.16,4.61,16.66.83,4.08,1,8.14,1.75,12a259.17,259.17,0,0,1,4.42,29.71c.5,6.72.15,14,.21,20.44a75.35,75.35,0,0,1-.72,11.21c-.64,4.68-1.25,8.92-1.87,13.3-1.26,8.79-2.72,17.7-4.7,25.87-1.39,5.71-3.34,11.06-2.64,17.52.38,3.48,1.46,6.91,2.17,10.87.24,1.35,0,2.88.22,4.18.81,5.82,2.73,11.68,3.89,17.62s2.22,11.66,3.69,16.92c1.67-5.6,2.5-12.21,3.86-17.63a56.15,56.15,0,0,1,2.07-6.6c.43-1.1,1.23-2.1,1.57-3.21.73-2.4,1-5.08,1.57-7.46A84.68,84.68,0,0,1,111.07,284c.9-2.2,2.2-4.14,3.36-6.49,3.06-6.22,5.6-13.83,8.58-20.25,1.1-2.36,2.07-5.15,3.3-6.71.5-.65,1.44-.94,2-1.6.88-1,1.33-2.47,2.19-3.64s1.94-2.19,2.78-3.31c1.77-2.36,3.61-5,5.8-6.69a42.21,42.21,0,0,0,4.16-3.72c3.25-3.22,7-6.34,9.78-9.35,3-1.66,5.83-5,9.45-7,1.15-.68,1.22.6,2.28.09a64.21,64.21,0,0,1,11.28-5c1-.23,1.11,1,2,.91,2.42-.23,5.75-.38,8,.68,1.59.76,2.35,2,3.35,3.77,3,5.3-.92,7.29-5.15,9.75-5.7,3.31-11.29,8.12-15.79,11.86-.66.55-1.45.86-2.1,1.37a70.09,70.09,0,0,0-8.59,8.25c-5,5.4-9.37,10.77-14.72,15.55-.19.61.29,1.58-.15,2a93.63,93.63,0,0,1-8.53,8.49,49,49,0,0,1-4.55,4.08c-1.91,1.29-3.83,2.2-5.39,3.83-2.18,2.27-3.55,5.41-5.1,8.23-.79,1.45-1.74,2.82-2.51,4.24s-1.22,3.07-1.92,4.56a158,158,0,0,0-7.38,18.4,119.21,119.21,0,0,0-4.17,20,91.27,91.27,0,0,0-.57,10.91c-.23,11.27.53,22.4,1.22,34.15.93,15.77,2.22,30.43,2.21,46.11,0,6.61,0,15.74-2,21.34-2,5.37-7.25,9.11-9.87,14.13,11.67-5.36,23.08-11.88,35.87-16.72,4.82-1.82,10-3.77,15.23-5.19a70.43,70.43,0,0,0,7.47-2.68A64.29,64.29,0,0,0,163,433.58c5.29-3.13,9.92-6.63,15.61-9.05a167.74,167.74,0,0,1,18.26-6.83c2.59-.76,4.9-1.62,7.6-2.22,1.68-.37,3.77-.37,5.8-.69,2.35-.38,4.81-1.24,6.19-1.06.91.12,1.25.92,2.31,1.08,7.71-1.93,14.09-1.45,20.8-1.57,1.57,1.64,3.64,1.37,5.78,1.81,2.73.57,5.4,1.39,8,1.9.92,2.9,3.3,3.49,5.57,5.38,2.61,2.17,5.83,4.14,7.3,7.87s2.58,9.27,1.72,12.75c-2.26,3-5.51,5.49-9,7.86a7.9,7.9,0,0,1-1.67,2c-1,.73-2.37.94-3.78,1.6-.92.43-1.86,1.19-2.79,1.57-4.84,1.92-10.81,2.5-15.64,3.81-1.38,0-.1,1.36-1.34,1.39-6.61-.31-14.62,2-20.28-.08a6.41,6.41,0,0,1-2.3.67c-1.07,0-3.59-1.06-5.32-1.95s-3.39-2.18-4.83-2.84-3.52-1.25-5.32-1.94c-4-1.54-8.05-1.88-12-2.51-2.5-.4-4.89-.73-7.26-.88-1.25-.08-2.58.23-3.95.15-1.17-.06-2.39-.4-3.63-.44-2.66-.07-5.43.36-7.91.31-1.31,0-2.64-.43-3.86-.37s-2.37.43-3.59.55c-3.41.31-7,.37-10.77,1.64-2.1.71-4.09,2-6.19,2.8-6.58,2.54-13.7,5.09-19.91,6.31a44,44,0,0,0-6.81,1.49c-1.8.68-3.64,1.77-5.49,2.61s-3.85,1.8-5.72,2.67c-3.67,1.71-7,4-10.55,5.83-1.38.7-2.68,1.12-4,1.9s-2.35,1.54-3.58,2.29c-2.45,1.5-5,2.81-7.22,4.36-.45.31-.72,1-1.12,1.33C69.32,487.39,66.55,489,64,491c-1.11.85-2.41,1.48-3.58,2.3-4.33,3-8.26,6.71-12.38,9.86-4.29,3.28-8.51,6.49-12.67,9.7a42.54,42.54,0,0,0-8.42,8c-.6.81-.93,2.68-2.53,2.48.06-1.67,1.38-3,2.29-4.16a27.25,27.25,0,0,1,3.7-3.59,205.29,205.29,0,0,1,17-12.95c3-2.05,5.44-4.58,8.31-6.67,11.55-8.43,22.78-18.17,36.32-24.6,3.07-1.46,6.23-3.17,9.43-4.51,1.86-.77,4.23-.89,5.49-2.6-9,2.27-18.86,5-25.9,8.06-3.07,1.32-6.44,3.28-9.82,4.87-3.89,1.82-7.36,3.18-10.62,5.6-1.41,1-2.86,2.13-4.3,3.25s-2.48,2.54-3.94,3.65-3,1.69-4.43,2.79-2.49,2.17-3.84,3.12c-4.35,3-7.81,6.15-11.82,9.2-1.38,1.06-2.74,2-4.07,3.19-1.57,1.39-3.26,3.13-4.49,4.31-.91.88-2.14,1.81-2.76,2.56-1.62,2-2.42,4.71-4.11,6.45.38-3.51,2.8-6.18,5.19-8.77,1.23-1.32,2.51-2.92,3.8-4.11,2.88-2.66,6.51-4.54,9.68-7.07,1.21-1,2.09-2.3,3.32-3.22,2.69-2,5.62-3.74,8.11-5.62,4.1-3.09,7.65-6.24,11.35-9.06,2.7-2.06,5.4-3.9,8.05-5.85,7.35-5.42,14.55-13,15.86-21.88.47-3.23.69-7.21-.29-10.42a15.87,15.87,0,0,0-8-9.41A34.35,34.35,0,0,0,69.09,434,38.74,38.74,0,0,0,62,432.81a63.25,63.25,0,0,0-12.69.2c-6.32,1-12.85,3.63-19.69,4.5-1.28.16-2.72-.27-4-.08-3.5.51-6.64,2.26-9.91,2.89-1.76.34-3.36,0-5.11.49-2.52-1.06-5.6.06-8.6.51s-5.93,0-8.6.51c-1.46-1.31-3.63-.05-5.7.17-2.37.25-5.84.11-7.49-.82-1.22-.68-1.72-1.77-2.69-3.21-2.55-2.28-5.23-2.9-6.53-6.1a10.15,10.15,0,0,1,.12-7.28c.54-1.46,2.36-2.88,3-4.37.47-1.14.18-2.13.48-2.64,1.07-1.87,3.71-2.68,5.68-3.66.69-.35,1.33-1,2.1-1.36a31.37,31.37,0,0,0,3.72-1.84c2-1.59,6-3.07,8.65-3.77,2.32-.63,4.71-.59,6.88-1.26.76-.23,1.22-.8,1.94-1.07A19.06,19.06,0,0,1,7,403.84c5.79-.84,11.29.48,15.82-.61,2.54.91,5.09,1.12,7.76,1.73s5,1.84,7.66,2.27c.7.11,1.57-.08,2.28.08,2.31.55,4.9,2.45,7.6,3.79,1.29.64,2.57,1.18,3.8,1.89s2.29,1.77,3.48,2.48,2.56,1.19,3.8,1.89c2.53,1.44,4.82,3.17,7.28,4.38,1.29.64,2.75.94,4,1.59s2.65,1.84,4.07,2.81,3.11,1.77,4.3,2.75c.5.41.69,1.12,1.23,1.64,1.35,1.29,2.88,2.56,4.18,4,3.85,4.37,6,11.24,8,17.92,2.67-4.51,4.73-9.45,4-15.41-.11-.89-.65-1.9-.81-2.77-.42-2.41-.5-4.6-1-6.72a113.94,113.94,0,0,0-6.38-20.14,56.31,56.31,0,0,0-5.85-9.79c-4.48-6.48-8.54-11.85-13.81-16.47-2.61-2.29-5.14-4.92-7.72-6.75-1.19-.85-2.74-1.23-4.1-2.05s-2.53-1.95-3.77-2.65c-2.73-1.54-5.58-3.06-8.27-4.34-1.38-.66-2.83-1-4.26-1.76-2.77-1.49-5.47-2.9-8.2-4.1-1.38-.61-3.43-1.08-4.5-1.69-.59-.34-.87-1.1-1.46-1.58s-1.25-.6-1.78-1c-3.58-2.51-6.63-5.37-10.2-7.53-.63-3.2-3.55-4.45-5.14-6.5s-2.28-4.45-4.16-6.53c-.68-1.21.7-1.3,0-2.51-2.08-2.92-3.32-7.37-5.3-10.45.72-1.41.19-3.79.82-5.74a20.52,20.52,0,0,1,2-3.35c.79-1.3,1.39-2.91,2.25-3.4a9.33,9.33,0,0,1,3.75-.85c3.36-.14,6.46,2,9.81,1.89,3.41,3.43,6.72,7,10.73,9.37a76.34,76.34,0,0,1,6.19,9.19c.31.72,1.55-.25,1.55,1.05,2,3.62,4.44,6.26,5.73,11.08,2,1.35,2.95,3.8,4.32,6.24a87.65,87.65,0,0,0,10,13.82c2.15,2.44,4.38,5,6.57,7.08,2.44,2.28,4.43,4.61,6.66,6.56.59.51,1.41,1.72,2.38,1.3a53.52,53.52,0,0,0-4-6.83c-1.38-2.24-2.55-4.61-4-6.84s-3.2-4.11-4.62-6.4-2.92-4.68-4.52-6.93c-2.37-3.33-4.78-6.74-6.91-10-.78-1.17-1.7-2.16-2.46-3.29-12.27-18.14-25.06-36.19-35.86-56-4.13-7.6-8.45-15.49-12.26-23.18C-3.46,254-4.14,251-6.4,249ZM2.33,14.2c-1.75,1-2.53,3.47-2.94,5.36-.32,1.47-.63,3.42-.8,5a11.78,11.78,0,0,0,.2,4.94C.48,28.79.9,26.53,1.63,24.65,2.74,21.79,5,18.77,2.33,14.2ZM3,27.74c.89-.17,1.13-1.66,1.47-2.67A10.23,10.23,0,0,1,5.6,22l-.27-.92c1.87-2.08,2.27-6,1.4-8.91-1.89.7-1.88,2.45-2.94,3.61.3,1.59,0,2.84.29,4.42C3.55,22.41.68,25.21,3,27.74ZM-.11,14.41c-1.9.76-2.56,2.21-1.69,4.49A5.82,5.82,0,0,0-.11,14.41Zm-5.16,20C-2.15,29.8-1,23.09-4,15.78l-.46.14c-5.3,2-3.17,7.88-2,13.59C-6.08,31.37-6.68,33.4-5.27,34.42Zm15.5-22.28C9,12.51,8.84,13.45,8,14c.25,5.16-2.89,8.47-3.39,13.23a16.34,16.34,0,0,0,4.09-5.69C10,18.86,11.4,15.32,10.23,12.14ZM-10.09,33.32c.93,0,1.78,0,2.74,0,1-1.81-.49-6.06-1.18-9.16A10.48,10.48,0,0,0-8.9,22c-.43-.87-2.55-2.74-3.71-2.42-1.69.46-2,3.66-1.65,5.48A18.48,18.48,0,0,0-10.09,33.32ZM13.37,13.48l-.27-.92-.46.13c-.76,0-.26.76-1,.8C11.46,17.07,9.47,19.67,8.9,23c2.88-2.42,3.24-6.22,4.47-9.55Zm-24.68,20c-2.5-3.79-3.45-10.42-8-10.4-2.55,3.08,2.35,9.29,4.91,10.81,1.38-.66,2.14.59,3.13-.41Zm-12.31-7.91c.24,4.17,2.76,6.05,5,7.79,1.17.89,2.18,2.38,3.64,2.19-.36-1.74-2.17-2.82-3.32-4.54s-1.89-3.81-3.13-5.58C-22.2,25.52-22.63,25-23.62,25.52ZM13.43,18c.74.17,2.79-.33,2.92-1.1C16.07,15.33,12.31,16.09,13.43,18ZM-20,38c-4.36-1-7.49-4.22-10.66-7.39-1.38.17-2.45-.24-4.12.46,1.4,3.55,4.16,4.7,7.36,6.35a35.89,35.89,0,0,0,4.92,2.31c.45.14,1.29,0,2,.16,1.48.38,1.89.93,3.79.14,0-.79-.57-.61-.8-1,.17-.49,1.12.31,1.62-.47,1.2-2.46-1.37-2.83-3.26-4.3-1.27-1-1.9-2.11-3.08-2.85-2.18-1.37-5-1.8-6.8-1C-27.82,34.87-22.94,35.56-20,38Zm-18.77-1.77c2,2.51,5.49,2.22,8.07,3.65-3.07.09-6.4-2.8-9.4-.51,2.34,1.47,5.69.56,8.54,1,1.11.17,1.9,1,3,.87,1.05-.47-.94-.65-1.1-1.18,2.61.31,4.86,1.27,7.63,1.27-.23-1.72-2.08-1.46-3.34-2-3.88-1.74-8-5.6-13.41-3.09Zm2.57,4.5c-2-.11-4-1-5.44,1.09,1.29.91,2.69.59,4.62.4,3.39-.32,6.84,1.14,10.29,1-2.19-1.56-5.85-2.28-9.47-2.49ZM2.73,33.58c.19-1.72.42-3-.95-5C0,31.15-3.84,31.9-4.31,35.14S-2.1,42-1.52,45.57c-1.25-.51-1.17-2.67-1.87-4.7-1.37-3.94-2.33-6.36-5.9-6.53a9.37,9.37,0,0,0-3.66.32c-1.14.63-2.61,4.37-2.21,6.14.92,4.05,5,4.41,7.1,7.18-.72.72-1.88-.8-2.62-1.23C-13.34,45-15.23,41.86-18.36,41c-2.19.83-3.79.94-5.46,1.84,1.2,2.31,3.26.82,5.05,1,4.14.47,6,5.94,10.74,5.11,4.52,1.86,7,6.42,9.57,12.21.54,1.22,1.63,2.32,2.29,3.58C7.1,71,10.18,77.45,13.34,84.49c2.52,5.6,5.1,11.71,7.82,18.22,1.91,4.58,4.2,9,6,13.74s3.68,9.45,5.62,14.12,3.83,9.56,5.68,14.34c4.93,12.68,9.76,25,14.2,38.36,3.29,9.92,6.49,20.32,9.77,30.9,1.24-.16.73-1.28,1.21-1.86.63-2.34-.88-7.05-2.24-11.09-3-8.78-5.85-17.65-8.75-25.7-.88-2.44-1.1-5.22-1.86-7.21-.28-.77-1-1.35-1.36-2.1-1.7-3.77-2.7-7.9-4.25-12-1.42-3.75-3.47-7.58-4.88-11.58s-2.52-8.05-4.19-11.78c-3.64-8.13-6.53-16.38-10-23.84-.66-1.44-1.65-2.69-2.2-4.11-.44-1.13-.6-2.42-1.07-3.69-.58-1.54-1.7-3-2.34-4.57-.31-.76-.34-1.56-.67-2.3-1.65-3.7-3.43-7.07-5.34-11.44-1-2.26-3.07-5.53-4.53-8.68C8.2,68.33,6.48,64.3,4.6,60.54,2.4,56.15-.51,51.64-.61,47.81c-.06-1.93,1.73-3.68,1.88-5.55.22-2.9-1.93-6-.28-8.67-.12,2.08-.45,5,.86,7.25.68-2.08.59-4.55.88-7.26ZM8.07,27c-2,1.54-4.13,3-3.79,5.86C5.82,31.08,7.88,29.57,8.07,27Zm-48.3,16.1c-1.51,0-2.69-.53-3.39,1.24,1.93,1.75,4.79.42,7.28.12,3.15-.37,6.31.6,9.2-.18-.79-.88-2.38-.55-3.69-.67-2.85-.25-5.88-.41-9.4-.51Zm-1.92,4.56c3.09.25,7.29-1.54,10.86-2.17-2.81-.76-6.78.61-9.88.39C-41.67,46.4-42.32,46.82-42.15,47.68Zm21.28-2.46c2.13,1.77,5.24,1.74,7.31,3.62.38-.86-.92-1.12-1.46-1.58C-16.59,46-18,44.07-20.87,45.22ZM54.27,58.54c-1.32-1.46.84-3.63-.79-5.27-4.41,2.57-1.42,12.16,2.59,14a6.86,6.86,0,0,0,5.63-.4c.84-1.53.4-3.78-.3-6.16,1.23,1.52,1,3.89,1.39,5.6,6.92-1.63,2.35-14.23-3.09-14.85-.84,0-.15.82-.12,1.28C55.76,50.33,53.74,55.15,54.27,58.54Zm5.17,10C64.75,80.9,67.05,94.69,70.7,108c3.09-.75,1.06-4.94.16-8C67.57,88.7,64.79,77.79,62.2,67.73A10.77,10.77,0,0,0,59.44,68.54Zm.48,119.86c.61,4.64.25,8.82,2.54,13,.5-2.2-.24-4.27-.43-6.63-.15-2,.13-4.14-.07-6.23-.22-2.35-2.09-5.41-.79-7-.59-.24-.88-1-1.07-1.94.33,0,.36.52.5.85.72-1.23.39-2.76.31-4.09s-.3-3-.29-4.41c0-2.81.31-5.55.31-8.35,0-5.54-.55-11.28.63-16.68.63-2.86,1.57-5.38,1.83-8.29s.86-5.88.71-8.7c0-.73-.49-1.26-.6-2.08-.07-.55.23-1.23.22-1.81,0-.78-.35-1.44-.38-2.14-.07-1.8.41-3.62.21-5.31-.19-1.51-1-2.63-1.45-4.08-.94-3-1.24-6-2-8.43a16.21,16.21,0,0,0-1.76-3.48c-.72-1.35-1.55-4.41-2.9-5.66a.66.66,0,0,0-.67-.55c-2.69.52-3.16,2.26-5.35,3.06-1.11,3.32-3.2,6.12-3,10.14-2.76,2.83-2.13,8.51-1.67,14a40.65,40.65,0,0,0,.86,7.25c2.24,9.29,5.61,16.65,8.17,27.12,1.68,6.86,3.19,13.81,4.47,20.45.64,3.35,1.24,6.78,1.67,10ZM66.33,266c-8.48-6.69-17.72-11.16-27.56-16.45,2,0,4.41,2.3,6.64,3.06a19.48,19.48,0,0,0-4.13-3c-3-1.79-6.41-3.07-9.69-4.92A112.28,112.28,0,0,0,17,237.44c-3.39-1.34-7-3.3-10.34-3.74-1.51-.2-3.22,0-4.79-.1a32.1,32.1,0,0,0-5.1.49c-1.45.17-3-.25-4.42.29.7,2.25,1.29,4.72,3.16,4.83-.33.46-1,.76-.52,1.65,1.2,1.34,1.72,3.92,3,5.12,10.11-4.43,17.68-2.65,25.42.58,5.4,2.26,10.45,4.1,15.47,6.74,4.72,2.49,10,4.77,14.74,7.7,3.4,2.08,6.47,4.21,9.34,6.27C73.61,275,81,288.05,86.3,306.21c4.47,15.3,6.69,30.38,9.32,44.78,1-1.53.78-4,1-6a35.32,35.32,0,0,0,.46-6.13c-.21-2.51-.86-5.35-1.37-8.1-.69-3.76-1.4-7.66-2.14-11.63-.71-3.8-1.91-7.57-2.77-11.19-1.15-4.87-1.12-9.31-3.6-13.2-1.82-2.86-3.19-5.79-4.7-8.38-1.63-2.82-3-5.34-4.79-7.86A57.73,57.73,0,0,0,66.33,266ZM83,285.42c1.61,2.85,3,6.29,4.67,9.14,0,.21.16.19.3.17,0,.86.88.18.69-.21-.24-3.26-1.83-6.91-2.1-10.63-.56-7.68,2-15.26,3.82-22.87,1.76-7.34,2.93-15.38,3.9-22.64,1-7.55,2.53-15.18,2.34-23.68-.14-5.94.29-12.42-.21-18.69-.09-1.13-.43-2.22-.48-3.36-.21-4.38-1.18-10-1.93-15.19-.18-1.26,0-2.63-.16-4-.56-4.08-1.45-8.19-2.11-12.39C90,150.24,86,140,83.65,129.22c-.42-1.93-.26-3.91-.69-5.79-.23-1-.87-1.91-1.11-2.93-1-4.46-1.58-9-2.15-13.38a41.58,41.58,0,0,1-.3-6.16c0-1.89.46-3.71.14-5.54-2.6,1.29-2.41,4.1-5.22,5.27-1.43,2.9-.92,6.85-3,9.38-.46,3.48.61,7.35.36,10.65-.08,1-.67,1.86-.71,2.71A28.33,28.33,0,0,0,72.42,131a52.17,52.17,0,0,0,3.07,7.1c.36.71,1.06,1.25,1.3,1.88.35.94.24,2,.57,2.83s1.23,1.54,1.73,2.49c2.46,4.68,4,10.08,6.25,15.43.8,1.9,2,3.58,2.84,5.42,5,11.33,6.14,23.66,6.29,34.42,0,2.51.53,4.92.64,7.31.08,2-.36,4.11-.46,6.14-.22,4.25-.15,8.26-.63,12.43-.23,2.06-.28,4.13-.46,6.13-.08.93-.57,1.79-.71,2.71-.42,2.88-.5,5.83-.93,8.78-1.65,11.05-4.87,21.73-8.06,32.35.88,2.61,1,4.78,1.92,7.44-.8-.34-1.2-1.6-1.43-2.33-1.66-5.17-3-12.34-5.18-17.74-.55-1.38-1.52-2.86-2.27-4.34a72.17,72.17,0,0,0-4.63-8.15,29.61,29.61,0,0,0-2.52-3.51c-.79-.87-1.86-1.36-2.65-2.23A62.5,62.5,0,0,1,62,238.3c-3.42-5.1-5.76-10.49-8.79-16.43-.65-1.27-1.7-2.54-2.37-3.81s-.68-3.24-2.36-3.81c3.55,7.27,5.95,14.44,10.14,21,.64,1,1.46,1.87,2.1,2.89s1,2.31,1.69,3.25c1.12,1.61,2.63,3,3.79,4.4a42.9,42.9,0,0,1,3.62,4.69c2.43,4.09,3.31,8.5,4.75,12.86.75,2.26,1.69,4.51,2.32,7.08.5,2.06.68,4.57,1.49,6.81.9,2.51,3.1,5.45,4.62,8.15ZM70.23,116.64c-.39,0-.34.33-.63.43a37.56,37.56,0,0,0-.83,10c-1.66,3.8,1.14,10.57,3.08,14.86.54.94-.55,1-.22,1.81a52.41,52.41,0,0,0,2.84,5.42c.94,1.52,2,3.29,3.41,4-1-3.87-.92-8.44-2.11-12.39-.87-2.9-2.85-5.5-3.94-8.35s-2.12-7.36-1.9-9.94c.09-1,.87-2,.87-3,0-.66-.44-1.27-.37-2.14Zm-110.16,32.9c-.82.78.92.88,1.62,1.27,1.37.77,2.43,2.8,3.84,2.88C-35.61,151.08-38,150.75-39.93,149.54Zm-3.48,1.76c-.61.41-.71.53-1.22.11-.95.51-.81,1.62-.41,2.87.82-.44,1,.23,1.42.59.67,0,.33-.6.78-.73a12.63,12.63,0,0,1,1.14,2.17C-40,154.81-42.13,152.22-43.41,151.3Zm2.15,1.38c1-1.27-1.06-2.05-1.89-2.2C-42.71,151.55-42.19,152.49-41.26,152.68Zm-5.74-.83c-1.24,1.52-2.55,3-1.88,5.55C-48,155.81-46.39,153.63-47,151.85Zm6-1.52c-.43.06-.4.36-.16.3,2.17,2.05,4.11,4.52,6.37,6.39.83-.92-.15-2.4-.65-3.06C-36.33,152.72-39.62,151.11-40.95,150.33Zm-5,2.7c-1.16.81-1.21,2.95-.54,4.16C-45.28,156.34-45.92,154.51-45.91,153Zm13.57,8.79c-1.93-3.89-4.73-6.2-7.5-8.56-.39.05-.33.34-.63.43a9.38,9.38,0,0,1-1.05,5.81c.24,2.33.3,4.56.5,6.86-2.1-3.71-3.67-8.37-7.08-9.69a27,27,0,0,0,.05,8.74c-.7-1.49-1.46-5.7-2.08-7.14-.78.78-.64,2.47-.44,3.62.68,4,3.21,8.79,5.37,10.69-.18-1.48-2.67-3.56-2.44-5.79,1,1.85,1.64,3.6,3,5.13a8.14,8.14,0,0,0,9.25,2.55c4.86-1.66,6.8-4.54,7.4-8.91.22-1.65-1-5.84-1.76-7.74s-2.26-3.9-3.85-4.63c.94,3.16.45,5.54,1.27,8.63Zm-12-6.75c-2.08,1.82.5,6.2,2.47,6.78C-41.32,159.3-41.42,155.82-44.31,155.07Zm51.56,6.2a8.24,8.24,0,0,0-7,.8c1.3,1.17,2.85.7,4.29,1,8.5,1.74,15.23,7.48,21.28,13.79.57-2.49-1.61-4.13-3-5.89s-2.36-3.9-3.82-5.38-4-2.25-5.33-3.7c-2.3.28-4.1-2.13-6.43-.62Zm4-1.67c1,1.46,2.83,1.49,4.17,2.28s2.25,2.23,3.93,2.35c3.88,5.55,8.8,10.24,12.92,16,6.6,9.21,12,19.92,17.06,32.77-.13-3.05-2-7.14-3-11.13-2.05-8.35-2.31-15.72-6-23.24-.45-.7-1.28-.71-1.69-1.51-1.11-4.09-2.87-7-4.47-10.19a2.92,2.92,0,0,0-2.18-.61c-2.17-3.11-5.2-4.64-7.95-6.68C19.79,159.78,15.67,158,11.26,159.6Zm-44.42,15.71a1.24,1.24,0,0,0-.89-.49A4.62,4.62,0,0,0-36,175.89c-.93.18.37,1.41.54,1.84A658.55,658.55,0,0,0-4.58,249.22c4.82,9.6,9.51,18.89,14.79,28.44,2,3.58,4.37,7.73,6.7,11.79,3.72,6.51,7.87,12.21,11.67,18.6,2.31,3.87,4.83,7.12,7.19,10.9,4.47,7.19,9.63,13.93,14.62,21,3.31,4.68,6.29,9.62,9.48,14.49s6.42,9.55,9.48,14.48,6.49,10,9.05,15.61c7.6,16.6,17.84,34.07,19.2,54.65a16.53,16.53,0,0,0,.83-5.74,40.4,40.4,0,0,0-.07-6.23c-.8-5.45-3.45-11.67-5.64-17.6a152.5,152.5,0,0,0-6.85-15.76c-5.13-10.18-10.27-20-15.72-28.16-1.52-2.29-2.66-4.78-4.06-7.06s-3-4.18-4.32-6.24-2.72-4.41-4.16-6.54c-2.69-4-5.64-8.09-8.8-12.18-1.6-2.06-2.74-4.26-4.32-6.24-3.17-3.94-5.73-8.18-8.81-12.18-2.53-3.28-4.76-8-7.22-11.89-2.71-4.28-6.5-10.07-9.15-15.08-5.14-9.7-10.86-19.18-15.4-28.76-4.82-10.18-10.5-19.74-14.74-29.95-2.18-5.25-4.83-10.26-7-15.46-2.25-5.36-4.52-10.62-6.68-16.05-.55-1.36-1.59-2.67-2.2-4.1s-1-3.16-1.64-4.78c-1.23-3-2.71-6.17-3.68-9.17-.5-1.55-.53-3.12-1.12-4.68Zm112.07-27.2a.66.66,0,0,0-.66-.56c-.21,0-.19.15-.17.3.83,5.49,2.15,10.65,3.13,15.84.71,3.78,1,7.59,1.54,11.29a243.49,243.49,0,0,1,2.76,27.45c.08,1.69-.16,3.38,0,5,.11,1.48.67,2.85.75,4.28.18,3.6-.22,7.19-.34,10.85-.08,2.55.07,5,0,7.52s-.1,4.85-.13,7.28c-.11,9.88-.68,19.62-.66,29.45.56.86.89-.77,1.12-1.33,2.23-5.36,1.79-13.09,2.26-19.66.3-4.21-.12-8.6,0-13,.08-4.22.27-8.5.26-12.82s-.42-8.81-.64-13.32-.14-8.84-.63-13.31-.91-9.15-1.53-13.81c-.95-7.06-2.48-14.34-4-21.34-.8-3.7-1.07-7.21-3-10.13ZM45.08,205.23a104,104,0,0,0-18.34-31.15c-.21,0-.19.16-.16.3a232.32,232.32,0,0,0,15.88,27.87c1.12.54,1.22,2.95,2.62,3ZM38.3,171.71c-1,.89.89,2.25.84,3.75.49.77,1.4.74,1.92,1.44.94,2.13,1.13,4.15,2,6.16.81,1.76,2.56,3,3.85,4.62A153.77,153.77,0,0,1,57.4,202.89c.74-.86-.29-1.71-.51-2.6a25.88,25.88,0,0,0-.65-3.07c-.82-2-2.93-3.95-4.55-6.17s-2.74-4.64-4.16-6.54C44.12,179.94,41.22,175.48,38.3,171.71Zm45.26-12c-.28,7.26,4.56,12.92,6.93,19.48C90.31,172.78,85.89,164.51,83.56,159.75ZM62.24,173.22c.26-.11.07-.47,0-.76-.39,0-.34.34-.63.44-.26,5.18.53,12.21.9,18.49.32,5.46.85,11.62,1.68,17.76.3,2.16,1.07,4.3-.43,5.37-.42.3-1.3-.17-1.31.64,2.9,9.72,5.14,21.07,7.82,30.22.75,2.57,2.06,4,3.19,5.81,1,1.55,1.23,3.58,2.8,4.44-1.17-5.74-3-11.19-4.61-16.66-.91-3.09-1-6.22-1.7-9.25-.91-3.65-2.48-7.21-2.7-11-.07-1.1.32-2,.34-3.1.09-4-1.51-8.54-2.18-12.61-.41-2.45-.43-5-.7-7.55-.77-7.29-1.79-14.77-2.5-22.27Zm24.5.85c-.25-.12-.32-.59-.66-.55a372.12,372.12,0,0,1,3.41,50.25c0,3.19-.21,6.38-.21,9.56s.2,6.52.09,9.73c-.1,3-.83,6.05-.11,9a234.07,234.07,0,0,0,4.42-34.54c.44-8.84.72-18.33-2-28.93a83,83,0,0,0-5-14.55ZM49,192.09c-1.51-2.06-2.72-4.06-4.25-6-.39,0-.33.33-.62.43,1.88,6.14,2.27,12.79,4.06,19.07,1.13,4,2.74,8,4.26,12A102.8,102.8,0,0,0,65.93,242.4c.92,1.27,1.86,3,3.44,3.24-4.42-16.83-8-36-16.39-48.46-1.19-1.77-2.76-3.43-4-5.09Zm-3,17.13c-.23,1.49,1.23,2.93,1.9,3.94C47.91,212.06,46.39,210.74,46,209.22Zm-31.78,35c-4.32-.73-11.2.27-16,2.66,7.27,14.29,14.51,27.63,21.86,40.63,4.61,8.16,9.66,15.71,14.67,23.72,1.77,2.83,3.69,6.06,5.88,9,.51.69,1.33,1.1,1.76,1.74.56.81.69,1.77,1.27,2.63,1,1.49,2.22,2.79,3.25,4.3,2.93,4.25,6,8.9,9.15,13.33,11.21,16,22.1,32.94,31.65,52.77.81,1.69,2,3.27,2.69,5,2.73,6.37,4.28,12.09,6.74,18.79.26-4.54-.91-8.6-1.66-12.52-1.81-9.54-4.12-19.49-8.1-28.64a76,76,0,0,0-5.74-11.07c-3-4.66-6.81-8.88-10.36-13.23a36.8,36.8,0,0,1-3.48-4.24c-.52-.92-.6-2-1.11-2.92-1.84-3.42-4.73-6.06-5.95-9.27-.39-1-.33-2.1-.64-3.06-.8-2.41-2.33-4.29-2.87-6.41a23.68,23.68,0,0,1-.63-5.57c0-1.37.81-1.89.81-3.23,0-1.58-.73-3.09-.82-4.52-.14-2.2-.41-4.85,2.27-5.91,1.07-2.07,1.25-4.18,3.24-5.2,1-.51,4.78-.74,6.55-.66,2,.1,3.88,1.48,5.51.89,2.89,2.26,4.87,5.28,7.37,8.1.58.66,1.45,1.18,2,1.9,1.81,2.17,2.55,5.15,4.27,7.76a113.83,113.83,0,0,0-7.22-28.15c-2.69-6.51-5.58-12.48-9.46-17-6.89-8-18.1-14.29-26.77-18.93A140.11,140.11,0,0,0,29.64,250c-5.24-2.08-10.56-4.92-15.43-5.75Zm96.54,42.08c-.77,5.19-3.35,9.39-3.68,14.82,1.74-1.31,2.27-3.43,3.24-5.19a45.37,45.37,0,0,0,2.7-5.29c1.88-.78,2.66-2.16,4.37-3a22.2,22.2,0,0,1,3.6-4.81,36.08,36.08,0,0,1,4.19-4.47c2.08-1.62,4.73-2.59,6.77-4.23.79-.63,1.64-1.51,2.36-2.18,2.11-2,3.85-4.51,6.1-6.53.12-.71.26-1.41.38-2.12,3.09-2.5,5.34-5.91,7.93-8.81,1.39-1.55,3.33-2.7,3.53-5,3.45-3.66,7.53-7,9.1-11.66a83.22,83.22,0,0,0,6.76-6c-1.65-.22-3.22,1.21-4.41,2-9.34,6.46-17.08,14.41-24.23,22.32-2.1,2.32-4.32,4.42-6.26,6.83s-3.58,4.9-5.37,7.31c-3.61,4.89-7.1,9.75-10.79,14.41-.5-1.31,1-3.14,2-4.33,5.25-6.54,10.08-13.8,15.81-20.37,1.15-1.32,2.5-2.5,3.64-3.81,3.17-3.66,6.12-8,10.38-11.53.7-.58,1.59-1.09,2.27-1.66,1.87-1.57,4-3.65,6.2-5.31,6.06-4.68,13.13-9.19,20.27-11.92,3.64-1.39,7.48-1.25,10-3.42s2.13-6.78-1.17-9.16a10.61,10.61,0,0,0-3.9-1.36c-2.62-.33-5.38.66-7.51-.06-1.21-.4-2.7,1.06-4.25,1.74-1.1.49-2.49.81-3.61,1.31s-2.17,1.34-3,1.63-1.68.14-2.37.44c-1.81.8-3.65,2.59-5.32,4.06-4.51,4-10.37,8.76-13.7,13-3.65,2.18-6.27,5.42-8.76,8.55-1.77,2.23-3.35,4.75-5.2,7-.63.77-1.64,1.37-2.13,2.12s-.8,2.09-1.33,3.14c-3,5.88-5.43,12.46-8.31,18.67-.48,1-.64,2.13-1.1,3.08-.83,1.71-2.06,3.14-2.84,4.83s-1,3.53-2.31,4.92Zm69.45-59.27c.08-.28.46-.39.26-.83-4.24,1.29-6.89,3.36-10.15,5.47a32.47,32.47,0,0,0-2.89,2.09,14.87,14.87,0,0,0-2.59,2.26c-.51.74-.31,1.73-.78,2.47-.69,1.09-2.14,1.67-3,2.63-1.16,1.31-1.74,2.78-3.17,3.67,1.06.41,2.08-1.34,3.12-2.16,3.22-2.55,6-5.84,9.74-8.59,3.12-2.32,6.1-4.95,9.45-7ZM42.12,363.85c15.06,6,27.92,15.91,38.84,29.42-.62-3.72-3.16-6.13-5.29-8.7-4.25-5.11-9.21-9.65-13.9-14.2,2.4,1.13,4.56,3.69,6.93,5.73s4.68,4.22,6.82,6.26c-1.85-3.73-5.21-6.09-8.09-8.89s-5.61-5.59-8.49-8.52S53.67,358.32,51,355a43.75,43.75,0,0,1-3.76-5.15c-1.09-1.89-1.87-4.24-3.26-6.05-.6-.78-1.85-1.22-2.35-2.06a18.53,18.53,0,0,1-.81-2.77c-1.45-3.7-3.77-7.33-6.48-9.36a26.25,26.25,0,0,0-4.59-7.16,46.78,46.78,0,0,0-4.41-4c-2.45-2.27-5.08-4.45-7.55-7.05-4.25-.34-8.62-3.9-12.87-1.24-1,.64-1.38,2-2.25,3.4-.53.88-1.4,1.65-1.61,2.22-.64,1.79.08,4.06-.82,5.74,2.19,4.13,3.49,7.73,5.87,11.54.6.91-.75.75-.29,1.59,2.49,5.48,6.76,8.8,10.29,13a31.32,31.32,0,0,0,9.9,7.36c.39.82,1,1.16,1.53,1.81,5,2.1,10.12,3.88,14.54,7Zm43.53,7.8c1.79,4,3.58,8.17,5.44,12.66.29-3.25-2-8.25-2.8-12.18,2.56,5.5,3.86,11.8,5.24,18s2.41,12.46,3.4,18.51,1.8,12.1,2.21,17.86a63.69,63.69,0,0,1-.39,12.36c-.17,1.34-.14,2.76-.37,3.86-.94,4.54-3.61,8.84-5.93,12.23-2.6,3.79-6.55,6.51-9.21,10.44.39,2,1.21,3.21,2.36,3.81a51.56,51.56,0,0,0,7.71-7,16.47,16.47,0,0,0,1.21-1.85,34.16,34.16,0,0,1,2.81-4.08c2.68-3.3,4.92-6.43,6.11-10.78.7-2.57.52-4.35.45-7.88,0-1.67.26-3.39.27-5.08s-.44-3.65-.63-5.57c-.17-1.75.11-3.56,0-5.24-.7-8.51-3.14-17.71-4.86-26.08-1.14-5.52-3.72-11.27-5.5-17.14-1.73-5.71-3.27-11.6-5.14-16.76-4.34-11.91-8.12-26.92-13.47-37.57,1.34.35,1.43,2.09,1.93,3.19,7.37,16.12,12.79,39.09,19.68,58,1-.73.13-1.92,0-2.74-.69-3.11-1.88-6.52-2.67-10-.67-2.94-.8-6.17-1.4-9.09-.47-2.33-1.15-3.93-1.06-6.19a18.24,18.24,0,0,1,.84-4l-.54-1.84c.69-2.68-.09-5.89.41-8.87.15-.87.78-1.61.78-2.48,0-.59-.39-1.71-.51-2.6a26.77,26.77,0,0,0-1-4.45c-.72-2.42-.82-5.16-1.55-7-.36-.9-1.1-1.83-1.57-2.79-1.42-2.94-2.46-5.83-4.17-8.29-.67-1-1.76-1.64-2.48-2.52s-1.37-2-2.1-2.89c-1.65-1.95-3.25-3.63-4.74-5.12-2.86-.31-4.64-1.66-8.38-1.3a14.2,14.2,0,0,0-3.59.55,5.14,5.14,0,0,0-1.77,2.51c-.86,1.76-1.12,3.25-2.81,4.07-1.24,3,.48,6.07.41,9.13,0,1-.84,2.23-.87,3a17.83,17.83,0,0,0,.82,4.51,29,29,0,0,0,1.67,4,29,29,0,0,1,1.83,3.72c.23.83,0,1.73.22,2.44,1.19,3.37,4.3,5.65,6.11,9,.52.94.64,2.18,1.17,3.16s1.72,1.71,2.56,2.75,1.43,2.38,2.22,3.35c3.86,4.73,8.65,9.45,11.77,16.32Zm28.07-73.44c1.18-2.67,2.68-5.07,3.41-8l-.69.2c-.73,1.08-1.52,2.08-2.32,3.18s-2,2-2.62,3-1,2.42-1.73,3.51-1.72,2.08-2.32,3.17a64.9,64.9,0,0,0-2.77,6.81,50.72,50.72,0,0,0-3.2,10.44c-.41,2.36-.82,4.86-1.34,7.39A166,166,0,0,0,97,354.84c0,1.35,0,2.7-.08,4a38.61,38.61,0,0,0-.37,3.86c.06,2.28.68,4.64.8,7s.44,4.51.73,6.79c.56,4.41.09,9,.64,13.31.19,1.52.61,3.17.88,4.74.77,4.47,2.14,9.46,3,14.39,1,6,1.48,12.08,2.28,18.09.83-5.58.29-11.71,0-18-.57-12.37-1.89-24.65-2.26-36.85-.18-6.25-.67-12.3-.82-18.25-.31-12.16.74-23.33,3.7-33.59a170.31,170.31,0,0,1,8.28-22.16ZM97,381.34c-.71-11.74-1.51-23.53-4.39-36.47-.15,1.49-.45,4.31-.46,6.14,0,.74.4,1.4.37,2.14,0,1.09-.68,2.13-.81,3.24-.27,2.54.67,5.62,1.27,8.63,1.12,5.59,1.74,10.81,4,16.32Zm-41.77,40.2c-5.91,1.55-7.72,6.29-13.6,8.22,4.49-2.63,7.84-5.89,12.54-8.41-2.59-1.74-6.76-1.49-10.49-1.69-3.09-.17-7-.29-10.85-.33-2.51,0-5.66-.32-7.38.4a16,16,0,0,0-2,1.59,61.75,61.75,0,0,1-6.3,4.09c1.58-2,5.41-2.83,6.5-5.14-3.18-.06-6.24,1.21-9.26,1.7-5.45.88-10.67.89-15.62,1.31,4.9-1.08,10.18-.92,15.49-1.77,1.62-.26,3.37-.92,5.13-1.25,1.55-.29,3.37-.26,4.81-.65a22.77,22.77,0,0,1,7.41-1.17c1.31.06,2.66.58,3.93.61,1.52,0,2.93-.35,4.42-.29a121.49,121.49,0,0,1,23.49,3.39,24.12,24.12,0,0,1,6.87,3c5.71,3.45,13.13,8.79,16.25,16.26,2,4.75,2.51,9.26,3.11,14.09,1.84-.55,1.67-2.13,1.43-3.67-.73-4.72-3.46-12.47-5.36-14.94A53.12,53.12,0,0,0,76.08,428c-1.35-1-2.41-2.24-3.31-2.78-2.48-1.51-5.5-2.44-8.13-3.88-7.47-4.09-15.37-9.49-23.06-13-6.46-.68-12.29-2.52-18.22-4.19-5,1.34-10.76-.59-16.81.66-1.39.29-2.66,1-4.08,1.44-3.86,1.14-7.53,1.41-11.19,2.77-2.67,1-5.31,2.82-7.82,4-1.06.51-2.05,1.17-3,1.63-2,.95-3.79,1.39-4.89,2.93-.53.73-.37,1.56-.78,2.48-.85,1.9-3.09,4.39-3.36,6.48.52,1.59-.25,2.11,0,3.26,1,5.49,7,5.79,8.8,10.44,4.09,2.38,9.31-.33,15,.11,2.7.2,5.07.67,7.59.28s5.43-1.07,7.8-1.52c.85-.13,1.44.68,2.48.77,3.66.33,9.45-2.42,12.67-3.69,1.16-.15,2.62.46,3.63.44,2.11-.06,4.33-1,6.58-1.43,3.68-.76,7-1.61,11.26-2.53a49.84,49.84,0,0,1,17-.2c2.79.45,4.87.61,7.23,1.64,3.33,1.47,7.81,4.16,9.73,7.66,3.83,7,1.75,13.89,2.17,21.12,1.42-.21,1.9-1.66,2.75-2.55s2.12-1.49,2.52-2.49c.49-1.2.13-3.55,0-5a30.21,30.21,0,0,0-.56-5.34C85.78,438.62,79.56,432,73.34,428A43.08,43.08,0,0,0,65,423.43c-2.26-.88-6.51-2.76-9.8-1.89ZM185.44,430c4.88-2.16,8.68-5.27,13.54-6.7-.29,1.1-1.67.88-2.4,1.2-2.07.92-4,2.2-6,3.26-2.85,1.45-6.27,2.78-8.75,4.31,1.37.85,2.94.18,4.26,0a115.56,115.56,0,0,1,21.38-1.25c2.52.15,5.3.87,7.72.75,4.32-.22,7.66-2.45,11.62-3.89-1.89,1.67-5.43,2.45-8.19,3.64,2,1.32,4.57,1.08,6.93,1.48,6.65,1.11,14,2.33,21,3.37-5,.16-10-.89-15-1.63s-9.88-2-15-1.86c2.77,2.83,5.52,5.7,8.42,8.3-4.2-1.73-6.33-7.71-11.36-8.94-1.38-.34-3.72-.16-5.84-.3a72.31,72.31,0,0,0-16,.92c-5.69.88-10.45.09-16.34,2.27,1.93,1.42,4.17,2.27,5.92,4-3-1.67-5.3-4.17-10-3.34-1.15.2-2.3.74-3.69,1.08-2.93.71-6.23,1.06-8.79,1.56-7.66,1.5-15.29,4.5-22.74,6.89.14,1.15,1.56,0,1.95.68-12.08,2-22.17,7.74-32,12.08-1.38.62-2.69,1.73-4,2.43-3.81,2-6.93,3.62-10.55,5.83-.71.43-2.19.57-2,1.83,4.54-1.46,11.34-3.92,16.75-5.14,3.53-.8,7.19-.84,10.78-1.65,12.83-2.89,24.52-8.57,36-12.76a16.3,16.3,0,0,0,1.64-1.23c2.27.26,4.15-.94,6.43-1.13a57.85,57.85,0,0,1,7.35.36c2.72.17,5.65.76,8.54,1,3.13.26,6.08.26,8.55,1,4.45,1.35,8,4.65,12.49,5.11,3.89,2.78,8.8,3.71,12.5,6.85,1.14-.08.49-1.15,1.64-1.23,5.39,2.16,12.77.71,19.26.88,1.35-.1.45-1.43,1.5-1.69,7.26-.64,15.35-2.29,22.32-5.77,1-.31.57-1.36,1.21-1.85a17.86,17.86,0,0,0,4.6-3.09c3.59-2.8,7.06-4.8,6.31-10.09a33.45,33.45,0,0,0-1.86-7.21c-.92-2.2-4-4.85-5.9-6.53-2.54-2.21-6.13-4.1-8.35-6.31-3.88-.69-7.36-2.11-11.78-1.81-.78.25-.54-1.37-1.32-1.12-6.16-.52-12.54-.67-20.1,1.37-1.12-.14-1.73-.87-2.78-.94s-2.36.48-3.82.61c-1.64.16-3.06-.2-4.94.2-.79.17-1.42.67-2.24.9-2.36.68-6.1,1.13-9.35,2.23s-6.77,2.78-10.26,4.24a104.94,104.94,0,0,0-14.47,7c-2.62,1.6-5.55,3.36-8.77,5.06-.78.41-1.59.76-2.4,1.2-.48.26-1.42.86-1.57,1.46,9.3-2.06,19.34-4.1,27.94-7.91ZM82.29,460.39l-.69.2a26,26,0,0,1-4.17,8c-1.82,2.33-4.3,4.31-5.73,6.93,4.77-1.58,7.86-4.08,12.59-5.68A15.32,15.32,0,0,1,82.29,460.39Zm68.42-9.72c.92.72,2.35.34,3.33.27,3.46-.22,7.06-.37,10.58-.58a42.72,42.72,0,0,1,7.06.19c6.54.72,13.46,1.25,19.89,2.19-1.91-1.59-4.43-2.37-7.17-3.15s-5.27-.61-8.25-.85c-4.06-.32-8.12-1.14-12.63-1.31A24.09,24.09,0,0,0,150.71,450.67Z" transform="translate(51.23 -10.12)"/><path class="cls-1" d="M53.79,107.44c-.06-.25.24-.27.3.16a7.39,7.39,0,0,0,.11,3c-.36.51-.25,1.27-.45,1.88a3.78,3.78,0,0,1,0,2.73C53.28,112.32,53.78,110,53.79,107.44Z" transform="translate(51.23 -10.12)"/><path class="cls-1" d="M5.22,140.61c-2.11-1.91-5.73-3-7.35-4.61C.23,137.48,4,138.26,5.22,140.61Z" transform="translate(51.23 -10.12)"/><path class="cls-1" d="M55.47,141.45a26.44,26.44,0,0,1-.64-7.32l-.4-1.38a34.18,34.18,0,0,0,0-3.49c-.11-1.16-.95-2.73,0-3.5C54.91,131.08,55.25,136.3,55.47,141.45Z" transform="translate(51.23 -10.12)"/><path class="cls-1" d="M59.28,175.09c.26-1.16-1-3.11-.45-4.12C59.16,172.31,60,175,59.28,175.09Z" transform="translate(51.23 -10.12)"/><path class="cls-1" d="M-47.72,247.07A12.7,12.7,0,0,1-44,242.5c.45-1.69,2.65-3.45,4.1-3.95C-43.09,241.09-45.17,244.2-47.72,247.07Z" transform="translate(51.23 -10.12)"/><path class="cls-1" d="M2.58,238.64c3.75,1.16,8.23,1,11.75,2.57-1.76.08-3.61-.78-5.58-1.12-2.34-.41-5.69-.29-6.17-1.45Z" transform="translate(51.23 -10.12)"/><path class="cls-1" d="M14.56,241.14c3.7.19,7.82,1.88,10.83,2.84.71.23,1.59.08,2.34.32,1.58.49,3.1,1.52,4.63,2.15s3.36,1,4.39,2.21c-6.94-3.33-14.61-5.34-22.19-7.52Z" transform="translate(51.23 -10.12)"/><path class="cls-1" d="M23.53,335.28c1.08,1.23,2.58,2.08,3,3.61A116.52,116.52,0,0,1,15.1,325.24c-1.14-1.62-2.61-3.4-3.06-5.36A164,164,0,0,0,23.53,335.28Z" transform="translate(51.23 -10.12)"/><path class="cls-1" d="M70.87,318.46A65.11,65.11,0,0,1,67,310.34,48.93,48.93,0,0,1,70.87,318.46Z" transform="translate(51.23 -10.12)"/><path class="cls-1" d="M28.27,340.39c1.08,1.45,3.28,2.73,3.72,4.17C31.05,343.25,28.13,341.32,28.27,340.39Z" transform="translate(51.23 -10.12)"/><path class="cls-1" d="M51,361c-1.84-.89-3.09-2.54-4.64-3.9s-3.26-2.36-4.8-3.6-3-2.84-4.47-4.19-3.35-2.44-4-4.33C38.55,351.31,45.43,355,51,361Z" transform="translate(51.23 -10.12)"/><path class="cls-1" d="M52.59,362.05c.53.11.39.65.8,1,.24.22.91.24,1.12.43.37.31.49.9.87,1.24,1.76,1.58,4.25,2.57,5.07,4.53-.11-.28-.23-.53-.6-.33-2.07-2.7-5.78-4.27-7.26-6.88Z" transform="translate(51.23 -10.12)"/><path class="cls-1" d="M-18.62,425.58c.41-1.33,2.12-.77,3.23-.94,4.58-.7,9.56-2,12.35-1.35a121.26,121.26,0,0,0-15.58,2.29Z" transform="translate(51.23 -10.12)"/><path class="cls-1" d="M12.68,427.45c1.66-.32,3.05-1.81,4.24-1.74C16,426.36,11.41,428.75,12.68,427.45Z" transform="translate(51.23 -10.12)"/><path class="cls-1" d="M154.65,447c-2.25-.6-5.31.26-7.26-.88C149.85,446.11,153.31,446.16,154.65,447Z" transform="translate(51.23 -10.12)"/><path class="cls-1" d="M245.67,424a2.85,2.85,0,0,1,2.05.16c-2.06-.16-5.92.42-7.16.33A11.88,11.88,0,0,1,245.67,424Z" transform="translate(51.23 -10.12)"/><path class="cls-1" d="M231.55,445.82c.15.65-1.19.26-1.74,0-.71-.31-1.21-1.42-1.86-1.2-.36-1.35-2.25-1.76-2.09-2.89C227.61,443.37,229.16,445.36,231.55,445.82Z" transform="translate(51.23 -10.12)"/></svg>