<svg id="Layer_2" data-name="Layer 2" xmlns="http://www.w3.org/2000/svg" viewBox="0 0 37.06 37.02"><defs><style>.cls-1{fill:none;stroke:#7d8589;stroke-linecap:round;stroke-miterlimit:10;stroke-width:0.75px;}</style></defs><polyline class="cls-1" points="0.38 36.64 6.08 31.14 27.25 10.69"/><polyline class="cls-1" points="25.55 31.14 6.08 31.14 6.25 12.77"/><path class="cls-1" d="M20.94,33.09S18.6,22.26,43.12,14.7a34.21,34.21,0,0,1-2,9.65C39.3,29.17,34.35,37.7,25,36.14" transform="translate(-6.45 -14.18)"/><path class="cls-1" d="M10,38.7s-6-8.87,2.57-23c0,0,9.82,15.39,1.21,24.52" transform="translate(-6.45 -14.18)"/><path class="cls-1" d="M20.26,42.87s9.52-6.39,22.17,3c0,0-16.76,9.55-25.16,0" transform="translate(-6.45 -14.18)"/><polyline class="cls-1" points="19.42 13.82 19.42 18.25 23.98 18.25"/><polyline class="cls-1" points="23.4 10.17 23.4 13.82 27.25 13.82"/><line class="cls-1" x1="5.33" y1="19.43" x2="3.38" y2="16.03"/><line class="cls-1" x1="18.11" y1="32.21" x2="21.7" y2="34.56"/></svg>