<?xml version="1.0" encoding="utf-8"?>
<!-- Generator: Adobe Illustrator 26.0.3, SVG Export Plug-In . SVG Version: 6.00 Build 0)  -->
<svg version="1.1" id="Layer_4" xmlns="http://www.w3.org/2000/svg" xmlns:xlink="http://www.w3.org/1999/xlink" x="0px" y="0px"
	 viewBox="0 0 55.9 54" style="enable-background:new 0 0 55.9 54;" xml:space="preserve">
<style type="text/css">
	.st0{fill:none;stroke:#5E6B69;stroke-linecap:round;stroke-miterlimit:10;}
	.st1{fill:none;stroke:#5E6B69;stroke-miterlimit:10;}
</style>
<path class="st0" d="M36.5,11.2c0,0-11.6-5-23.1,1.7c0,0-3.1-12.5,14.5-12.5c0,0,15.1-0.7,18.9,17.2c-5.4-1.7-11.3-0.8-16,2.4
	c0,0-8.3,6.3-16.1-2.5"/>
<line class="st1" x1="27.8" y1="4.8" x2="22.3" y2="9.8"/>
<line class="st0" x1="25.9" y1="13.6" x2="29.9" y2="16.5"/>
<path class="st0" d="M39.3,46.2c0,0,9.8-8.1,8.9-21.4c0,0,12.5,2.9,4.6,18.6c0,0-6.2,13.8-23.9,9.1c3.9-4.1,5.8-9.7,5.1-15.4
	c0,0-3.4-10,9.5-13.6"/>
<line class="st1" x1="48.9" y1="41.5" x2="47" y2="34.3"/>
<line class="st0" x1="42" y1="35.8" x2="37.6" y2="38"/>
<path class="st0" d="M7.6,32.4c0,0,2.6,12.4,14.8,17.8c0,0-8.4,9.7-18.6-4.6c0,0-9.3-11.9,3-25.4C8.7,25.7,12.8,30,18.2,32
	c0,0,9.6,2.5,7.1,14.7"/>
<line class="st0" x1="7.4" y1="43.2" x2="14.6" y2="44.8"/>
<line class="st0" x1="15.6" y1="39.7" x2="15.7" y2="34.7"/>
<line class="st0" x1="24.6" y1="48.3" x2="24" y2="48.8"/>
<line class="st0" x1="13.7" y1="14.9" x2="13.8" y2="15.6"/>
<line class="st0" x1="46.3" y1="23.9" x2="45.6" y2="23.7"/>
</svg>
