<svg id="Layer_2" data-name="Layer 2" xmlns="http://www.w3.org/2000/svg" viewBox="0 0 36.21 36.31"><defs><style>.cls-1{fill:none;stroke:#7d8589;stroke-linecap:round;stroke-miterlimit:10;stroke-width:0.75px;}</style></defs><polyline class="cls-1" points="3.49 32.8 5.22 31.14 26.39 10.69"/><polyline class="cls-1" points="24.69 31.14 5.22 31.14 5.39 12.77"/><path class="cls-1" d="M14.49,18.91S12.15,8.08,36.67.52a34.21,34.21,0,0,1-2,9.65C32.85,15,27.9,23.52,18.55,22" transform="translate(-0.86 0)"/><path class="cls-1" d="M3.55,24.52s-6-8.87,2.57-23c0,0,9.82,15.39,1.21,24.52" transform="translate(-0.86 0)"/><path class="cls-1" d="M13.81,28.69s9.52-6.39,22.17,3c0,0-16.76,9.55-25.16,0" transform="translate(-0.86 0)"/><polyline class="cls-1" points="18.56 13.82 18.56 18.25 23.12 18.25"/><polyline class="cls-1" points="22.54 10.17 22.54 13.82 26.39 13.82"/><line class="cls-1" x1="4.47" y1="19.43" x2="2.52" y2="16.03"/><line class="cls-1" x1="17.25" y1="32.21" x2="20.84" y2="34.56"/><line class="cls-1" x1="1.75" y1="34.3" x2="2.27" y2="33.78"/><line class="cls-1" x1="0.38" y1="35.67" x2="0.89" y2="35.16"/></svg>