<svg id="Layer_2" data-name="Layer 2" xmlns="http://www.w3.org/2000/svg" viewBox="0 0 56.36 54.88"><defs><style>.cls-1,.cls-2{fill:none;stroke:#5e6b69;stroke-linecap:round;stroke-miterlimit:10;}.cls-1{stroke-width:0.69px;}.cls-2{stroke-width:0.7px;}</style></defs><path class="cls-1" d="M41.84,9.47c-.62-.41-7.14-4.54-14.47-1.74-7.81,3-9.57,12.33-10,14.39C15,34.87,26,50,44.41,60.87c0,0,27.48-15.18,28.28-33.06S63.85,7.89,63.85,7.89L50.51,45.05" transform="translate(-16.73 -6.39)"/><line class="cls-1" x1="49.22" y1="23.8" x2="43.59" y2="11.35"/><line class="cls-1" x1="42.95" y1="36.45" x2="38.38" y2="25.87"/><line class="cls-1" x1="30.77" y1="17.58" x2="38.38" y2="15.1"/><line class="cls-1" x1="28.18" y1="31.16" x2="32.97" y2="28.39"/><path class="cls-2" d="M59.67,6.76s-17.57-1.59-20.05,21,4.82,33.16,4.82,33.16" transform="translate(-16.73 -6.39)"/></svg>