<?xml version="1.0" encoding="utf-8"?>
<!-- Generator: Adobe Illustrator 26.0.3, SVG Export Plug-In . SVG Version: 6.00 Build 0)  -->
<svg version="1.1" id="Layer_2_00000129923118853813808680000010094645006012104884_"
	 xmlns="http://www.w3.org/2000/svg" xmlns:xlink="http://www.w3.org/1999/xlink" x="0px" y="0px" viewBox="0 0 56.4 54.9"
	 style="enable-background:new 0 0 56.4 54.9;" xml:space="preserve">
<style type="text/css">
	.st0{fill:none;stroke:#5E6B69;stroke-width:0.69;stroke-linecap:round;stroke-miterlimit:10;}
	.st1{fill:none;stroke:#5E6B69;stroke-width:0.7;stroke-linecap:round;stroke-miterlimit:10;}
</style>
<path class="st0" d="M26.8,54c0.3,0.2,0.6,0.4,0.9,0.5c0,0,27.5-15.2,28.3-33.1S47.1,1.5,47.1,1.5L33.8,38.7"/>
<path class="st0" d="M25.1,3.1C24.5,2.7,18-1.5,10.6,1.3c-7.8,3-9.6,12.3-10,14.4C-1.2,25.7,5,37,16.6,46.7c0.7,0.6,1.5,1.2,2.3,1.8
	"/>
<line class="st0" x1="49.2" y1="23.8" x2="43.6" y2="11.4"/>
<line class="st0" x1="43" y1="36.5" x2="38.4" y2="25.9"/>
<line class="st0" x1="30.8" y1="17.6" x2="38.4" y2="15.1"/>
<line class="st0" x1="28.2" y1="31.2" x2="33" y2="28.4"/>
<path class="st1" d="M42.9,0.4c0,0-17.6-1.6-20,21s4.8,33.2,4.8,33.2"/>
<line class="st0" x1="20.4" y1="49.5" x2="20.9" y2="50"/>
<line class="st0" x1="22.5" y1="51.1" x2="23" y2="51.5"/>
<line class="st0" x1="24.5" y1="52.5" x2="25" y2="52.9"/>
</svg>
