<svg xmlns="http://www.w3.org/2000/svg" viewBox="0 0 266.85 318.23"><defs><style>.cls-1,.cls-5{fill:#7a7a7a;}.cls-1,.cls-2,.cls-3,.cls-4,.cls-6,.cls-7,.cls-8{stroke:#7a7a7a;stroke-miterlimit:10;}.cls-2,.cls-3,.cls-4,.cls-7,.cls-8{fill:none;}.cls-2,.cls-3{stroke-width:9px;}.cls-3{stroke-linecap:round;}.cls-4{stroke-width:2.71px;}.cls-6{fill:#fff;}.cls-6,.cls-7{stroke-width:2.41px;}.cls-8{stroke-width:2.41px;}</style></defs><g id="Layer_4" data-name="Layer 4"><path class="cls-1" d="M270.51,286.59c3.41,0,6.67-3,6.51-6.52a6.62,6.62,0,0,0-6.51-6.51c-3.41,0-6.68,3-6.52,6.51A6.63,6.63,0,0,0,270.51,286.59Z" transform="translate(-35.41 9.9)"/></g><g id="Layer_2" data-name="Layer 2"><polygon class="cls-2" points="140.81 195.16 106.91 136.44 39.1 136.44 5.2 195.16 39.1 253.89 106.91 253.89 140.81 195.16"/><polyline class="cls-3" points="249.32 267.49 256.53 255.01 222.62 196.28 154.82 196.28 120.92 255.01 154.82 313.73 222.62 313.73 227.77 304.82"/><polygon class="cls-2" points="145.35 63.22 111.45 4.5 43.65 4.5 9.74 63.22 43.65 121.94 111.45 121.94 145.35 63.22"/><polygon class="cls-2" points="261.65 125.4 227.75 66.67 159.94 66.67 126.04 125.4 159.94 184.12 227.75 184.12 261.65 125.4"/><path class="cls-4" d="M111.42,205c-.25.11-.6.87-.86,1-8.12,3.35-13.66-.7-14.35-1.19C83.54,195.84,79,170,87.49,164.35c6.36-4.25,19.72,2.92,27.16,13.23" transform="translate(-35.41 9.9)"/><path class="cls-4" d="M119.78,189.56" transform="translate(-35.41 9.9)"/><path class="cls-5" d="M92.93,173.61c2.61,3.47,6.25,8.61,8.79,12.22,3.07,4,5.79,8.24,7.25,13.2l-.22.14c-3.84-3.45-6.46-7.72-8.79-12.23l-3.68-6.56c-1.19-2.22-2.41-4.41-3.57-6.64l.22-.13Z" transform="translate(-35.41 9.9)"/><path class="cls-6" d="M128.48,187.18" transform="translate(-35.41 9.9)"/><path class="cls-6" d="M129.21,179.47" transform="translate(-35.41 9.9)"/><ellipse class="cls-7" cx="125.12" cy="187.07" rx="23" ry="14.02" transform="translate(-135.18 188.32) rotate(-54.02)"/><path class="cls-8" d="M137.07,169.37" transform="translate(-35.41 9.9)"/><path class="cls-8" d="M131,181.21" transform="translate(-35.41 9.9)"/><path class="cls-8" d="M122.9,188.41" transform="translate(-35.41 9.9)"/><path class="cls-8" d="M119.78,192.32" transform="translate(-35.41 9.9)"/><path class="cls-5" d="M134.93,167.93c1.32,7.86-4.87,14.65-10.72,19a12.71,12.71,0,0,0-5.41,5.33c-1.1,2.44-.84,5.48-2.21,7.89a21.73,21.73,0,0,1-3.22,4.7l-.17.1-.09.05,0,0h0S113,205,113,205l.34-.2-.28.27S113,205,113,205h0l.26-.26a36.63,36.63,0,0,0,2.14-5c1-2.62.32-5.61,1.44-8.29a13.43,13.43,0,0,1,6-6.43c5.6-4.18,11.49-9.68,12.1-17.06Z" transform="translate(-35.41 9.9)"/></g></svg>