<svg id="Layer_1" data-name="Layer 1" xmlns="http://www.w3.org/2000/svg" viewBox="0 0 217.93 302.82"><defs><style>.cls-1,.cls-2,.cls-3,.cls-6,.cls-7{fill:none;}.cls-1,.cls-2,.cls-3,.cls-5,.cls-6,.cls-7{stroke:#7a7a7a;}.cls-1,.cls-2{stroke-linecap:round;stroke-miterlimit:15.12;}.cls-1{stroke-width:9px;}.cls-2{stroke-width:18.32px;}.cls-3,.cls-5,.cls-6,.cls-7{stroke-miterlimit:10;}.cls-3{stroke-width:3.27px;}.cls-4{fill:#7a7a7a;}.cls-5{fill:#fff;}.cls-5,.cls-6{stroke-width:2.91px;}.cls-7{stroke-width:2.92px;}</style></defs><path id="path67457" class="cls-1" d="M196.86,311.16H71.56c-6.26,0-11.29-5.53-11.29-12.4V94.16H269.19v204.6c0,6.87-5,12.4-11.29,12.4l-6.46.44" transform="translate(-55.77 -14.34)"/><path id="path67457-2" data-name="path67457" class="cls-2" d="M185.06,311.16" transform="translate(-55.77 -14.34)"/><path id="path67695" class="cls-1" d="M165.18,18.84h0c27.87,0,50.31,21.21,50.31,47.57v64" transform="translate(-55.77 -14.34)"/><path id="path67695-2" data-name="path67695" class="cls-1" d="M114.87,130.39v-64a45.41,45.41,0,0,1,2.55-15.07" transform="translate(-55.77 -14.34)"/><g id="g68689"><ellipse id="circle67461" class="cls-1" cx="59.1" cy="133.52" rx="11.29" ry="11.73"/><ellipse id="circle67463" class="cls-1" cx="159.72" cy="133.52" rx="11.29" ry="11.73"/></g><path class="cls-3" d="M162.82,235.48c-.3.13-.72,1.05-1,1.18-9.8,4.05-16.5-.84-17.34-1.43-15.3-10.77-20.79-42-10.52-48.82,7.67-5.12,23.81,3.53,32.8,16" transform="translate(-55.77 -14.34)"/><path class="cls-3" d="M172.92,216.88" transform="translate(-55.77 -14.34)"/><path class="cls-4" d="M140.48,197.6c3.16,4.2,7.56,10.41,10.62,14.77,3.71,4.89,7,10,8.76,15.95l-.26.16c-4.65-4.17-7.8-9.32-10.62-14.77-2.62-4.66-6.32-11.26-8.76-15.94l.26-.17Z" transform="translate(-55.77 -14.34)"/><path class="cls-5" d="M178.48,215.35" transform="translate(-55.77 -14.34)"/><path class="cls-5" d="M179.37,206" transform="translate(-55.77 -14.34)"/><ellipse class="cls-6" cx="179.37" cy="213.87" rx="27.78" ry="16.94" transform="translate(-154.85 219.04) rotate(-54.02)"/><path class="cls-7" d="M193.81,192.48" transform="translate(-55.77 -14.34)"/><path class="cls-7" d="M186.44,206.78" transform="translate(-55.77 -14.34)"/><path class="cls-7" d="M176.7,215.48" transform="translate(-55.77 -14.34)"/><path class="cls-7" d="M172.92,220.21" transform="translate(-55.77 -14.34)"/><path class="cls-4" d="M191.23,190.75c1.33,7-2.95,13.75-7.7,18.46a40.2,40.2,0,0,1-5.26,4.53c-2.75,1.63-5.17,3.53-6.53,6.43-1,1.91-.94,4.09-1.46,6.22a22.07,22.07,0,0,1-5.11,9l-.2.11-.1.06-.05,0h0l-.07-.1.4-.23s-.34.33-.33.33l-.07-.1h0l.16-.16a32.57,32.57,0,0,0,2.76-6.22c1.21-3.17.39-6.78,1.74-10,1.3-3.4,4.21-6,7.25-7.77,6.77-5,13.87-11.68,14.62-20.6Z" transform="translate(-55.77 -14.34)"/><path class="cls-4" d="M155.92,312c2.69,0,2.7-4.18,0-4.18s-2.69,4.18,0,4.18Z" transform="translate(-55.77 -14.34)"/><path class="cls-4" d="M226.78,317.16a6,6,0,1,0-6-6,6.07,6.07,0,0,0,6,6Z" transform="translate(-55.77 -14.34)"/><path class="cls-4" d="M133.59,32.69a6,6,0,1,0-6-6,6.06,6.06,0,0,0,6,6Z" transform="translate(-55.77 -14.34)"/></svg>